  0
SECTION
  2
HEADER
  9
$ACADVER
  1
AC1014
  9
$HANDSEED
  5
FFFF
  9
$MEASUREMENT
 70
     1
  0
ENDSEC
  0
SECTION
  2
TABLES
  0
TABLE
  2
VPORT
  5
8
330
0
100
AcDbSymbolTable
 70
     4
  0
VPORT
  5
2E
330
8
100
AcDbSymbolTableRecord
100
AcDbViewportTableRecord
  2
*ACTIVE
 70
     0
 10
0.0
 20
0.0
 11
1.0
 21
1.0
 12
210.0
 22
148.5
 13
0.0
 23
0.0
 14
10.0
 24
10.0
 15
10.0
 25
10.0
 16
0.0
 26
0.0
 36
1.0
 17
0.0
 27
0.0
 37
0.0
 40
341.0
 41
1.24
 42
50.0
 43
0.0
 44
0.0
 50
0.0
 51
0.0
 71
     0
 72
   100
 73
     1
 74
     3
 75
     0
 76
     0
 77
     0
 78
     0
  0
ENDTAB
  0
TABLE
  2
LTYPE
  5
5
330
0
100
AcDbSymbolTable
 70
     1
  0
LTYPE
  5
14
330
5
100
AcDbSymbolTableRecord
100
AcDbLinetypeTableRecord
  2
BYBLOCK
 70
     0
  3

 72
    65
 73
     0
 40
0.0
  0
LTYPE
  5
15
330
5
100
AcDbSymbolTableRecord
100
AcDbLinetypeTableRecord
  2
BYLAYER
 70
     0
  3

 72
    65
 73
     0
 40
0.0
  0
LTYPE
  5
16
330
5
100
AcDbSymbolTableRecord
100
AcDbLinetypeTableRecord
  2
CONTINUOUS
 70
     0
  3
Solid line
 72
    65
 73
     0
 40
0.0
  0
ENDTAB
  0
TABLE
  2
LAYER
  5
2
100
AcDbSymbolTable
 70
2
  0
LAYER
  5
50
100
AcDbSymbolTableRecord
100
AcDbLayerTableRecord
  2
0
 70
0
  6
CONTINUOUS
  0
LAYER
  5
51
100
AcDbSymbolTableRecord
100
AcDbLayerTableRecord
  2
Layer_1
 70
0
  6
CONTINUOUS
  0
ENDTAB
  0
TABLE
  2
STYLE
  5
3
330
0
100
AcDbSymbolTable
 70
     1
  0
STYLE
  5
11
330
3
100
AcDbSymbolTableRecord
100
AcDbTextStyleTableRecord
  2
STANDARD
 70
     0
 40
0.0
 41
1.0
 50
0.0
 71
     0
 42
2.5
  3
txt
  4

  0
ENDTAB
  0
TABLE
  2
VIEW
  5
6
330
0
100
AcDbSymbolTable
 70
     0
  0
ENDTAB
  0
TABLE
  2
UCS
  5
7
330
0
100
AcDbSymbolTable
 70
     0
  0
ENDTAB
  0
TABLE
  2
APPID
  5
9
330
0
100
AcDbSymbolTable
 70
     2
  0
APPID
  5
12
330
9
100
AcDbSymbolTableRecord
100
AcDbRegAppTableRecord
  2
ACAD
 70
     0
  0
ENDTAB
  0
TABLE
  2
DIMSTYLE
  5
A
330
0
100
AcDbSymbolTable
 70
     1
  0
DIMSTYLE
105
27
330
A
100
AcDbSymbolTableRecord
100
AcDbDimStyleTableRecord
  2
ISO-25
 70
     0
  3

  4

  5

  6

  7

 40
1.0
 41
2.5
 42
0.625
 43
3.75
 44
1.25
 45
0.0
 46
0.0
 47
0.0
 48
0.0
140
2.5
141
2.5
142
0.0
143
0.03937007874016
144
1.0
145
0.0
146
1.0
147
0.625
 71
     0
 72
     0
 73
     0
 74
     0
 75
     0
 76
     0
 77
     1
 78
     8
170
     0
171
     3
172
     1
173
     0
174
     0
175
     0
176
     0
177
     0
178
     0
270
     2
271
     2
272
     2
273
     2
274
     3
340
11
275
     0
280
     0
281
     0
282
     0
283
     0
284
     8
285
     0
286
     0
287
     3
288
     0
  0
ENDTAB
  0
TABLE
  2
BLOCK_RECORD
  5
1
330
0
100
AcDbSymbolTable
 70
     1
  0
BLOCK_RECORD
  5
1F
330
1
100
AcDbSymbolTableRecord
100
AcDbBlockTableRecord
  2
*MODEL_SPACE
  0
BLOCK_RECORD
  5
1B
330
1
100
AcDbSymbolTableRecord
100
AcDbBlockTableRecord
  2
*PAPER_SPACE
  0
ENDTAB
  0
ENDSEC
  0
SECTION
  2
BLOCKS
  0
BLOCK
  5
20
330
1F
100
AcDbEntity
  8
0
100
AcDbBlockBegin
  2
*MODEL_SPACE
 70
     0
 10
0.0
 20
0.0
 30
0.0
  3
*MODEL_SPACE
  1

  0
ENDBLK
  5
21
330
1F
100
AcDbEntity
  8
0
100
AcDbBlockEnd
  0
BLOCK
  5
1C
330
1B
100
AcDbEntity
 67
     1
  8
0
100
AcDbBlockBegin
  2
*PAPER_SPACE
  1

  0
ENDBLK
  5
1D
330
1B
100
AcDbEntity
 67
     1
  8
0
100
AcDbBlockEnd
  0
ENDSEC
  0
SECTION
  2
ENTITIES
  0
LINE
  5
100
100
AcDbEntity
  8
Layer_1
 62
7
100
AcDbLine
 10
0.132599
 20
576.141123
 30
0.0
 11
39.912005
 21
576.141123
 31
0.0
  0
LINE
  5
101
100
AcDbEntity
  8
Layer_1
 62
7
100
AcDbLine
 10
33.512006
 20
484.431962
 30
0.0
 11
0.132599
 21
576.141123
 31
0.0
  0
LINE
  5
102
100
AcDbEntity
  8
Layer_1
 62
7
100
AcDbLine
 10
33.512006
 20
478.641123
 30
0.0
 11
33.512006
 21
484.431962
 31
0.0
  0
LINE
  5
103
100
AcDbEntity
  8
Layer_1
 62
7
100
AcDbLine
 10
13.512004
 20
458.641124
 30
0.0
 11
33.512006
 21
478.641123
 31
0.0
  0
LINE
  5
104
100
AcDbEntity
  8
Layer_1
 62
7
100
AcDbLine
 10
13.512004
 20
432.141123
 30
0.0
 11
13.512004
 21
458.641124
 31
0.0
  0
LINE
  5
105
100
AcDbEntity
  8
Layer_1
 62
7
100
AcDbLine
 10
13.512004
 20
432.141123
 30
0.0
 11
259.012005
 21
432.141123
 31
0.0
  0
LINE
  5
106
100
AcDbEntity
  8
Layer_1
 62
7
100
AcDbLine
 10
259.012005
 20
432.141123
 30
0.0
 11
259.012005
 21
478.641123
 31
0.0
  0
LINE
  5
107
100
AcDbEntity
  8
Layer_1
 62
7
100
AcDbLine
 10
259.012005
 20
478.641123
 30
0.0
 11
55.557050
 21
533.156714
 31
0.0
  0
LINE
  5
108
100
AcDbEntity
  8
Layer_1
 62
7
100
AcDbLine
 10
55.557050
 20
533.156714
 30
0.0
 11
39.912005
 21
576.141123
 31
0.0
  0
SPLINE
  5
109
100
AcDbEntity
  8
Layer_1
 62
7
100
AcDbSpline
 70
0
 71
3
 72
25
 73
21
 74
19
 40
0.000000
 40
0.000000
 40
0.000000
 40
0.000000
 40
0.916030
 40
1.818951
 40
2.734983
 40
3.651013
 40
4.553934
 40
5.469965
 40
6.385995
 40
7.288916
 40
8.204947
 40
9.120978
 40
10.023899
 40
10.939930
 40
11.855960
 40
12.758881
 40
13.674912
 40
14.590942
 40
15.493864
 40
16.409895
 40
16.409895
 40
16.409895
 40
16.409895
 10
22.412006
 20
562.750330
 30
0.0
 10
22.718907
 20
562.781693
 30
0.0
 10
23.328316
 20
562.843971
 30
0.0
 10
24.133660
 20
563.327147
 30
0.0
 10
24.732414
 20
564.034596
 30
0.0
 10
25.049970
 20
564.910640
 30
0.0
 10
25.049970
 20
565.840221
 30
0.0
 10
24.732414
 20
566.715038
 30
0.0
 10
24.133660
 20
567.427386
 30
0.0
 10
23.328316
 20
567.892359
 30
0.0
 10
22.412006
 20
568.054704
 30
0.0
 10
21.495695
 20
567.892358
 30
0.0
 10
20.690351
 20
567.427386
 30
0.0
 10
20.091599
 20
566.715037
 30
0.0
 10
19.774040
 20
565.840221
 30
0.0
 10
19.774040
 20
564.910639
 30
0.0
 10
20.091599
 20
564.034597
 30
0.0
 10
20.690350
 20
563.327146
 30
0.0
 10
21.495695
 20
562.843971
 30
0.0
 10
22.105105
 20
562.781694
 30
0.0
 10
22.412006
 20
562.750330
 30
0.0
 11
22.412006
 21
562.750330
 31
0.0
 11
23.313991
 21
562.910124
 31
0.0
 11
24.095944
 21
563.361584
 31
0.0
 11
24.685323
 21
564.062830
 31
0.0
 11
24.997929
 21
564.923869
 31
0.0
 11
24.997929
 21
565.826790
 31
0.0
 11
24.685323
 21
566.687830
 31
0.0
 11
24.095944
 21
567.389075
 31
0.0
 11
23.313991
 21
567.840536
 31
0.0
 11
22.412006
 21
568.000329
 31
0.0
 11
21.510020
 21
567.840535
 31
0.0
 11
20.728067
 21
567.389075
 31
0.0
 11
20.138689
 21
566.687829
 31
0.0
 11
19.826081
 21
565.826790
 31
0.0
 11
19.826081
 21
564.923869
 31
0.0
 11
20.138689
 21
564.062830
 31
0.0
 11
20.728067
 21
563.361584
 31
0.0
 11
21.510020
 21
562.910124
 31
0.0
 11
22.412006
 21
562.750330
 31
0.0
  0
LINE
  5
10a
100
AcDbEntity
  8
Layer_1
 62
7
100
AcDbLine
 10
22.412006
 20
562.750330
 30
0.0
 11
22.412006
 21
562.750329
 31
0.0
  0
SPLINE
  5
10b
100
AcDbEntity
  8
Layer_1
 62
7
100
AcDbSpline
 70
0
 71
3
 72
25
 73
21
 74
19
 40
0.000000
 40
0.000000
 40
0.000000
 40
0.000000
 40
0.916030
 40
1.818950
 40
2.734981
 40
3.651011
 40
4.553932
 40
5.469964
 40
6.385993
 40
7.288913
 40
8.204944
 40
9.120976
 40
10.023897
 40
10.939927
 40
11.855958
 40
12.758879
 40
13.674909
 40
14.590940
 40
15.493861
 40
16.409893
 40
16.409893
 40
16.409893
 40
16.409893
 10
33.512006
 20
446.016125
 30
0.0
 10
33.818907
 20
446.047488
 30
0.0
 10
34.428316
 20
446.109766
 30
0.0
 10
35.233660
 20
446.592940
 30
0.0
 10
35.832410
 20
447.300391
 30
0.0
 10
36.149970
 20
448.176433
 30
0.0
 10
36.149970
 20
449.106015
 30
0.0
 10
35.832411
 20
449.980831
 30
0.0
 10
35.233660
 20
450.693180
 30
0.0
 10
34.428316
 20
451.158153
 30
0.0
 10
33.512006
 20
451.320498
 30
0.0
 10
32.595695
 20
451.158153
 30
0.0
 10
31.790351
 20
450.693180
 30
0.0
 10
31.191599
 20
449.980831
 30
0.0
 10
30.874040
 20
449.106015
 30
0.0
 10
30.874040
 20
448.176433
 30
0.0
 10
31.191600
 20
447.300391
 30
0.0
 10
31.790350
 20
446.592940
 30
0.0
 10
32.595695
 20
446.109765
 30
0.0
 10
33.205105
 20
446.047488
 30
0.0
 10
33.512006
 20
446.016125
 30
0.0
 11
33.512006
 21
446.016125
 31
0.0
 11
34.413992
 21
446.175918
 31
0.0
 11
35.195943
 21
446.627378
 31
0.0
 11
35.785321
 21
447.328624
 31
0.0
 11
36.097929
 21
448.189663
 31
0.0
 11
36.097929
 21
449.092584
 31
0.0
 11
35.785321
 21
449.953624
 31
0.0
 11
35.195943
 21
450.654869
 31
0.0
 11
34.413992
 21
451.106330
 31
0.0
 11
33.512006
 21
451.266124
 31
0.0
 11
32.610019
 21
451.106330
 31
0.0
 11
31.828067
 21
450.654869
 31
0.0
 11
31.238690
 21
449.953624
 31
0.0
 11
30.926081
 21
449.092584
 31
0.0
 11
30.926081
 21
448.189663
 31
0.0
 11
31.238690
 21
447.328624
 31
0.0
 11
31.828067
 21
446.627378
 31
0.0
 11
32.610019
 21
446.175918
 31
0.0
 11
33.512006
 21
446.016125
 31
0.0
  0
LINE
  5
10c
100
AcDbEntity
  8
Layer_1
 62
7
100
AcDbLine
 10
33.512006
 20
446.016125
 30
0.0
 11
33.512006
 21
446.016125
 31
0.0
  0
SPLINE
  5
10d
100
AcDbEntity
  8
Layer_1
 62
7
100
AcDbSpline
 70
0
 71
3
 72
25
 73
21
 74
19
 40
0.000000
 40
0.000000
 40
0.000000
 40
0.000000
 40
0.916031
 40
1.818952
 40
2.734983
 40
3.651013
 40
4.553934
 40
5.469966
 40
6.385996
 40
7.288917
 40
8.204948
 40
9.120979
 40
10.023900
 40
10.939931
 40
11.855962
 40
12.758883
 40
13.674912
 40
14.590944
 40
15.493865
 40
16.409895
 40
16.409895
 40
16.409895
 40
16.409895
 10
239.012005
 20
446.016125
 30
0.0
 10
239.318906
 20
446.047488
 30
0.0
 10
239.928315
 20
446.109766
 30
0.0
 10
240.733661
 20
446.592940
 30
0.0
 10
241.332411
 20
447.300391
 30
0.0
 10
241.649971
 20
448.176433
 30
0.0
 10
241.649971
 20
449.106015
 30
0.0
 10
241.332412
 20
449.980831
 30
0.0
 10
240.733660
 20
450.693180
 30
0.0
 10
239.928316
 20
451.158153
 30
0.0
 10
239.012005
 20
451.320499
 30
0.0
 10
238.095694
 20
451.158153
 30
0.0
 10
237.290351
 20
450.693180
 30
0.0
 10
236.691597
 20
449.980832
 30
0.0
 10
236.374041
 20
449.106014
 30
0.0
 10
236.374040
 20
448.176434
 30
0.0
 10
236.691598
 20
447.300390
 30
0.0
 10
237.290350
 20
446.592940
 30
0.0
 10
238.095695
 20
446.109766
 30
0.0
 10
238.705104
 20
446.047488
 30
0.0
 10
239.012005
 20
446.016125
 30
0.0
 11
239.012005
 21
446.016125
 31
0.0
 11
239.913991
 21
446.175918
 31
0.0
 11
240.695944
 21
446.627378
 31
0.0
 11
241.285322
 21
447.328624
 31
0.0
 11
241.597930
 21
448.189663
 31
0.0
 11
241.597930
 21
449.092584
 31
0.0
 11
241.285322
 21
449.953624
 31
0.0
 11
240.695944
 21
450.654869
 31
0.0
 11
239.913991
 21
451.106330
 31
0.0
 11
239.012005
 21
451.266124
 31
0.0
 11
238.110019
 21
451.106330
 31
0.0
 11
237.328067
 21
450.654869
 31
0.0
 11
236.738688
 21
449.953624
 31
0.0
 11
236.426081
 21
449.092584
 31
0.0
 11
236.426081
 21
448.189663
 31
0.0
 11
236.738688
 21
447.328624
 31
0.0
 11
237.328067
 21
446.627378
 31
0.0
 11
238.110019
 21
446.175918
 31
0.0
 11
239.012005
 21
446.016125
 31
0.0
  0
LINE
  5
10e
100
AcDbEntity
  8
Layer_1
 62
7
100
AcDbLine
 10
239.012005
 20
446.016125
 30
0.0
 11
239.012005
 21
446.016125
 31
0.0
  0
LINE
  5
10f
100
AcDbEntity
  8
Layer_1
 62
7
100
AcDbLine
 10
136.262006
 20
446.016125
 30
0.0
 11
136.262006
 21
446.016125
 31
0.0
  0
LINE
  5
110
100
AcDbEntity
  8
Layer_1
 62
7
100
AcDbLine
 10
327.958625
 20
432.141123
 30
0.0
 11
288.179219
 21
432.141123
 31
0.0
  0
LINE
  5
111
100
AcDbEntity
  8
Layer_1
 62
7
100
AcDbLine
 10
294.579218
 20
523.850284
 30
0.0
 11
327.958625
 21
432.141123
 31
0.0
  0
LINE
  5
112
100
AcDbEntity
  8
Layer_1
 62
7
100
AcDbLine
 10
294.579218
 20
529.641123
 30
0.0
 11
294.579218
 21
523.850284
 31
0.0
  0
LINE
  5
113
100
AcDbEntity
  8
Layer_1
 62
7
100
AcDbLine
 10
314.579220
 20
549.641123
 30
0.0
 11
294.579218
 21
529.641123
 31
0.0
  0
LINE
  5
114
100
AcDbEntity
  8
Layer_1
 62
7
100
AcDbLine
 10
314.579220
 20
576.141123
 30
0.0
 11
314.579220
 21
549.641123
 31
0.0
  0
SPLINE
  5
115
100
AcDbEntity
  8
Layer_1
 62
7
100
AcDbSpline
 70
0
 71
3
 72
25
 73
21
 74
19
 40
0.000000
 40
0.000000
 40
0.000000
 40
0.000000
 40
0.916030
 40
1.818951
 40
2.734983
 40
3.651013
 40
4.553934
 40
5.469966
 40
6.385996
 40
7.288917
 40
8.204948
 40
9.120979
 40
10.023900
 40
10.939930
 40
11.855962
 40
12.758883
 40
13.674913
 40
14.590944
 40
15.493865
 40
16.409896
 40
16.409896
 40
16.409896
 40
16.409896
 10
136.262006
 20
446.016125
 30
0.0
 10
136.568906
 20
446.047488
 30
0.0
 10
137.178316
 20
446.109766
 30
0.0
 10
137.983660
 20
446.592940
 30
0.0
 10
138.582412
 20
447.300390
 30
0.0
 10
138.899972
 20
448.176433
 30
0.0
 10
138.899972
 20
449.106015
 30
0.0
 10
138.582413
 20
449.980832
 30
0.0
 10
137.983660
 20
450.693180
 30
0.0
 10
137.178316
 20
451.158153
 30
0.0
 10
136.262005
 20
451.320499
 30
0.0
 10
135.345695
 20
451.158153
 30
0.0
 10
134.540350
 20
450.693180
 30
0.0
 10
133.941598
 20
449.980831
 30
0.0
 10
133.624039
 20
449.106015
 30
0.0
 10
133.624039
 20
448.176433
 30
0.0
 10
133.941599
 20
447.300391
 30
0.0
 10
134.540350
 20
446.592940
 30
0.0
 10
135.345695
 20
446.109766
 30
0.0
 10
135.955105
 20
446.047488
 30
0.0
 10
136.262006
 20
446.016125
 30
0.0
 11
136.262006
 21
446.016125
 31
0.0
 11
137.163991
 21
446.175918
 31
0.0
 11
137.945943
 21
446.627378
 31
0.0
 11
138.535323
 21
447.328624
 31
0.0
 11
138.847931
 21
448.189663
 31
0.0
 11
138.847931
 21
449.092584
 31
0.0
 11
138.535323
 21
449.953624
 31
0.0
 11
137.945943
 21
450.654869
 31
0.0
 11
137.163991
 21
451.106330
 31
0.0
 11
136.262006
 21
451.266124
 31
0.0
 11
135.360020
 21
451.106330
 31
0.0
 11
134.578066
 21
450.654869
 31
0.0
 11
133.988689
 21
449.953624
 31
0.0
 11
133.676080
 21
449.092584
 31
0.0
 11
133.676080
 21
448.189663
 31
0.0
 11
133.988689
 21
447.328624
 31
0.0
 11
134.578066
 21
446.627378
 31
0.0
 11
135.360020
 21
446.175918
 31
0.0
 11
136.262006
 21
446.016125
 31
0.0
  0
LINE
  5
116
100
AcDbEntity
  8
Layer_1
 62
7
100
AcDbLine
 10
314.579220
 20
576.141123
 30
0.0
 11
69.079219
 21
576.141123
 31
0.0
  0
LINE
  5
117
100
AcDbEntity
  8
Layer_1
 62
7
100
AcDbLine
 10
69.079219
 20
576.141123
 30
0.0
 11
69.079219
 21
529.641123
 31
0.0
  0
LINE
  5
118
100
AcDbEntity
  8
Layer_1
 62
7
100
AcDbLine
 10
69.079219
 20
529.641123
 30
0.0
 11
272.534174
 21
475.125532
 31
0.0
  0
LINE
  5
119
100
AcDbEntity
  8
Layer_1
 62
7
100
AcDbLine
 10
272.534174
 20
475.125532
 30
0.0
 11
288.179219
 21
432.141123
 31
0.0
  0
SPLINE
  5
11a
100
AcDbEntity
  8
Layer_1
 62
7
100
AcDbSpline
 70
0
 71
3
 72
25
 73
21
 74
19
 40
0.000000
 40
0.000000
 40
0.000000
 40
0.000000
 40
0.916030
 40
1.818951
 40
2.734983
 40
3.651013
 40
4.553934
 40
5.469965
 40
6.385995
 40
7.288916
 40
8.204947
 40
9.120978
 40
10.023899
 40
10.939930
 40
11.855960
 40
12.758881
 40
13.674912
 40
14.590942
 40
15.493864
 40
16.409895
 40
16.409895
 40
16.409895
 40
16.409895
 10
305.679218
 20
445.531916
 30
0.0
 10
305.372317
 20
445.500553
 30
0.0
 10
304.762908
 20
445.438275
 30
0.0
 10
303.957564
 20
444.955100
 30
0.0
 10
303.358811
 20
444.247651
 30
0.0
 10
303.041254
 20
443.371606
 30
0.0
 10
303.041254
 20
442.442026
 30
0.0
 10
303.358810
 20
441.567208
 30
0.0
 10
303.957564
 20
440.854860
 30
0.0
 10
304.762908
 20
440.389887
 30
0.0
 10
305.679218
 20
440.227543
 30
0.0
 10
306.595529
 20
440.389888
 30
0.0
 10
307.400874
 20
440.854860
 30
0.0
 10
307.999625
 20
441.567210
 30
0.0
 10
308.317185
 20
442.442026
 30
0.0
 10
308.317185
 20
443.371607
 30
0.0
 10
307.999625
 20
444.247650
 30
0.0
 10
307.400874
 20
444.955101
 30
0.0
 10
306.595529
 20
445.438275
 30
0.0
 10
305.986119
 20
445.500553
 30
0.0
 10
305.679218
 20
445.531916
 30
0.0
 11
305.679218
 21
445.531916
 31
0.0
 11
304.777233
 21
445.372123
 31
0.0
 11
303.995280
 21
444.920662
 31
0.0
 11
303.405901
 21
444.219417
 31
0.0
 11
303.093295
 21
443.358377
 31
0.0
 11
303.093295
 21
442.455456
 31
0.0
 11
303.405901
 21
441.594416
 31
0.0
 11
303.995280
 21
440.893171
 31
0.0
 11
304.777233
 21
440.441711
 31
0.0
 11
305.679218
 21
440.281917
 31
0.0
 11
306.581204
 21
440.441711
 31
0.0
 11
307.363157
 21
440.893172
 31
0.0
 11
307.952535
 21
441.594417
 31
0.0
 11
308.265143
 21
442.455457
 31
0.0
 11
308.265143
 21
443.358377
 31
0.0
 11
307.952535
 21
444.219417
 31
0.0
 11
307.363157
 21
444.920662
 31
0.0
 11
306.581204
 21
445.372123
 31
0.0
 11
305.679218
 21
445.531916
 31
0.0
  0
LINE
  5
11b
100
AcDbEntity
  8
Layer_1
 62
7
100
AcDbLine
 10
305.679218
 20
445.531916
 30
0.0
 11
305.679218
 21
445.531918
 31
0.0
  0
SPLINE
  5
11c
100
AcDbEntity
  8
Layer_1
 62
7
100
AcDbSpline
 70
0
 71
3
 72
25
 73
21
 74
19
 40
0.000000
 40
0.000000
 40
0.000000
 40
0.000000
 40
0.916030
 40
1.818950
 40
2.734981
 40
3.651011
 40
4.553932
 40
5.469964
 40
6.385993
 40
7.288913
 40
8.204944
 40
9.120976
 40
10.023897
 40
10.939927
 40
11.855958
 40
12.758879
 40
13.674909
 40
14.590940
 40
15.493861
 40
16.409893
 40
16.409893
 40
16.409893
 40
16.409893
 10
294.579218
 20
562.266122
 30
0.0
 10
294.272317
 20
562.234759
 30
0.0
 10
293.662908
 20
562.172481
 30
0.0
 10
292.857564
 20
561.689307
 30
0.0
 10
292.258814
 20
560.981855
 30
0.0
 10
291.941254
 20
560.105813
 30
0.0
 10
291.941254
 20
559.176232
 30
0.0
 10
292.258813
 20
558.301416
 30
0.0
 10
292.857565
 20
557.589066
 30
0.0
 10
293.662908
 20
557.124094
 30
0.0
 10
294.579218
 20
556.961748
 30
0.0
 10
295.495529
 20
557.124093
 30
0.0
 10
296.300874
 20
557.589066
 30
0.0
 10
296.899625
 20
558.301416
 30
0.0
 10
297.217184
 20
559.176232
 30
0.0
 10
297.217185
 20
560.105813
 30
0.0
 10
296.899624
 20
560.981855
 30
0.0
 10
296.300874
 20
561.689307
 30
0.0
 10
295.495529
 20
562.172481
 30
0.0
 10
294.886119
 20
562.234759
 30
0.0
 10
294.579218
 20
562.266122
 30
0.0
 11
294.579218
 21
562.266122
 31
0.0
 11
293.677233
 21
562.106329
 31
0.0
 11
292.895281
 21
561.654868
 31
0.0
 11
292.305904
 21
560.953622
 31
0.0
 11
291.993296
 21
560.092584
 31
0.0
 11
291.993296
 21
559.189663
 31
0.0
 11
292.305904
 21
558.328622
 31
0.0
 11
292.895281
 21
557.627378
 31
0.0
 11
293.677233
 21
557.175917
 31
0.0
 11
294.579218
 21
557.016123
 31
0.0
 11
295.481205
 21
557.175917
 31
0.0
 11
296.263158
 21
557.627378
 31
0.0
 11
296.852535
 21
558.328622
 31
0.0
 11
297.165143
 21
559.189663
 31
0.0
 11
297.165143
 21
560.092584
 31
0.0
 11
296.852535
 21
560.953622
 31
0.0
 11
296.263158
 21
561.654868
 31
0.0
 11
295.481205
 21
562.106329
 31
0.0
 11
294.579218
 21
562.266122
 31
0.0
  0
LINE
  5
11d
100
AcDbEntity
  8
Layer_1
 62
7
100
AcDbLine
 10
294.579218
 20
562.266122
 30
0.0
 11
294.579218
 21
562.266122
 31
0.0
  0
SPLINE
  5
11e
100
AcDbEntity
  8
Layer_1
 62
7
100
AcDbSpline
 70
0
 71
3
 72
25
 73
21
 74
19
 40
0.000000
 40
0.000000
 40
0.000000
 40
0.000000
 40
0.916031
 40
1.818952
 40
2.734983
 40
3.651013
 40
4.553934
 40
5.469966
 40
6.385996
 40
7.288917
 40
8.204948
 40
9.120979
 40
10.023900
 40
10.939931
 40
11.855962
 40
12.758883
 40
13.674912
 40
14.590944
 40
15.493865
 40
16.409895
 40
16.409895
 40
16.409895
 40
16.409895
 10
89.079220
 20
562.266122
 30
0.0
 10
88.772319
 20
562.234759
 30
0.0
 10
88.162909
 20
562.172481
 30
0.0
 10
87.357564
 20
561.689307
 30
0.0
 10
86.758813
 20
560.981856
 30
0.0
 10
86.441253
 20
560.105813
 30
0.0
 10
86.441253
 20
559.176232
 30
0.0
 10
86.758812
 20
558.301415
 30
0.0
 10
87.357564
 20
557.589066
 30
0.0
 10
88.162909
 20
557.124094
 30
0.0
 10
89.079219
 20
556.961748
 30
0.0
 10
89.995530
 20
557.124094
 30
0.0
 10
90.800873
 20
557.589067
 30
0.0
 10
91.399628
 20
558.301414
 30
0.0
 10
91.717183
 20
559.176232
 30
0.0
 10
91.717184
 20
560.105813
 30
0.0
 10
91.399627
 20
560.981857
 30
0.0
 10
90.800874
 20
561.689306
 30
0.0
 10
89.995530
 20
562.172481
 30
0.0
 10
89.386120
 20
562.234759
 30
0.0
 10
89.079220
 20
562.266122
 30
0.0
 11
89.079220
 21
562.266122
 31
0.0
 11
88.177234
 21
562.106329
 31
0.0
 11
87.395280
 21
561.654868
 31
0.0
 11
86.805903
 21
560.953622
 31
0.0
 11
86.493294
 21
560.092584
 31
0.0
 11
86.493294
 21
559.189663
 31
0.0
 11
86.805903
 21
558.328622
 31
0.0
 11
87.395280
 21
557.627378
 31
0.0
 11
88.177234
 21
557.175917
 31
0.0
 11
89.079220
 21
557.016123
 31
0.0
 11
89.981205
 21
557.175917
 31
0.0
 11
90.763157
 21
557.627378
 31
0.0
 11
91.352537
 21
558.328622
 31
0.0
 11
91.665143
 21
559.189663
 31
0.0
 11
91.665143
 21
560.092584
 31
0.0
 11
91.352537
 21
560.953622
 31
0.0
 11
90.763157
 21
561.654868
 31
0.0
 11
89.981205
 21
562.106329
 31
0.0
 11
89.079220
 21
562.266122
 31
0.0
  0
LINE
  5
11f
100
AcDbEntity
  8
Layer_1
 62
7
100
AcDbLine
 10
89.079220
 20
562.266122
 30
0.0
 11
89.079220
 21
562.266122
 31
0.0
  0
LINE
  5
120
100
AcDbEntity
  8
Layer_1
 62
7
100
AcDbLine
 10
191.829219
 20
562.266122
 30
0.0
 11
191.829219
 21
562.266122
 31
0.0
  0
LINE
  5
121
100
AcDbEntity
  8
Layer_1
 62
7
100
AcDbLine
 10
327.958625
 20
432.141123
 30
0.0
 11
288.179219
 21
432.141123
 31
0.0
  0
LINE
  5
122
100
AcDbEntity
  8
Layer_1
 62
7
100
AcDbLine
 10
294.579218
 20
340.431962
 30
0.0
 11
327.958625
 21
432.141123
 31
0.0
  0
LINE
  5
123
100
AcDbEntity
  8
Layer_1
 62
7
100
AcDbLine
 10
294.579218
 20
334.641124
 30
0.0
 11
294.579218
 21
340.431962
 31
0.0
  0
LINE
  5
124
100
AcDbEntity
  8
Layer_1
 62
7
100
AcDbLine
 10
314.579220
 20
314.641124
 30
0.0
 11
294.579218
 21
334.641124
 31
0.0
  0
LINE
  5
125
100
AcDbEntity
  8
Layer_1
 62
7
100
AcDbLine
 10
314.579220
 20
288.141123
 30
0.0
 11
314.579220
 21
314.641124
 31
0.0
  0
SPLINE
  5
126
100
AcDbEntity
  8
Layer_1
 62
7
100
AcDbSpline
 70
0
 71
3
 72
25
 73
21
 74
19
 40
0.000000
 40
0.000000
 40
0.000000
 40
0.000000
 40
0.916030
 40
1.818951
 40
2.734983
 40
3.651013
 40
4.553934
 40
5.469966
 40
6.385996
 40
7.288917
 40
8.204948
 40
9.120979
 40
10.023900
 40
10.939930
 40
11.855962
 40
12.758883
 40
13.674913
 40
14.590944
 40
15.493865
 40
16.409896
 40
16.409896
 40
16.409896
 40
16.409896
 10
191.829219
 20
562.266122
 30
0.0
 10
191.522318
 20
562.234759
 30
0.0
 10
190.912909
 20
562.172481
 30
0.0
 10
190.107564
 20
561.689306
 30
0.0
 10
189.508812
 20
560.981856
 30
0.0
 10
189.191252
 20
560.105813
 30
0.0
 10
189.191253
 20
559.176232
 30
0.0
 10
189.508811
 20
558.301415
 30
0.0
 10
190.107565
 20
557.589067
 30
0.0
 10
190.912908
 20
557.124094
 30
0.0
 10
191.829219
 20
556.961748
 30
0.0
 10
192.745530
 20
557.124094
 30
0.0
 10
193.550874
 20
557.589066
 30
0.0
 10
194.149626
 20
558.301415
 30
0.0
 10
194.467185
 20
559.176232
 30
0.0
 10
194.467185
 20
560.105813
 30
0.0
 10
194.149625
 20
560.981856
 30
0.0
 10
193.550875
 20
561.689307
 30
0.0
 10
192.745529
 20
562.172481
 30
0.0
 10
192.136120
 20
562.234759
 30
0.0
 10
191.829219
 20
562.266122
 30
0.0
 11
191.829219
 21
562.266122
 31
0.0
 11
190.927233
 21
562.106329
 31
0.0
 11
190.145281
 21
561.654868
 31
0.0
 11
189.555902
 21
560.953622
 31
0.0
 11
189.243294
 21
560.092584
 31
0.0
 11
189.243294
 21
559.189663
 31
0.0
 11
189.555902
 21
558.328622
 31
0.0
 11
190.145281
 21
557.627378
 31
0.0
 11
190.927233
 21
557.175917
 31
0.0
 11
191.829219
 21
557.016123
 31
0.0
 11
192.731205
 21
557.175917
 31
0.0
 11
193.513158
 21
557.627378
 31
0.0
 11
194.102536
 21
558.328622
 31
0.0
 11
194.415144
 21
559.189663
 31
0.0
 11
194.415144
 21
560.092584
 31
0.0
 11
194.102536
 21
560.953622
 31
0.0
 11
193.513158
 21
561.654868
 31
0.0
 11
192.731205
 21
562.106329
 31
0.0
 11
191.829219
 21
562.266122
 31
0.0
  0
LINE
  5
127
100
AcDbEntity
  8
Layer_1
 62
7
100
AcDbLine
 10
314.579220
 20
288.141123
 30
0.0
 11
69.079219
 21
288.141123
 31
0.0
  0
LINE
  5
128
100
AcDbEntity
  8
Layer_1
 62
7
100
AcDbLine
 10
69.079219
 20
288.141123
 30
0.0
 11
69.079219
 21
334.641124
 31
0.0
  0
LINE
  5
129
100
AcDbEntity
  8
Layer_1
 62
7
100
AcDbLine
 10
69.079219
 20
334.641124
 30
0.0
 11
272.534174
 21
389.156714
 31
0.0
  0
LINE
  5
12a
100
AcDbEntity
  8
Layer_1
 62
7
100
AcDbLine
 10
272.534174
 20
389.156714
 30
0.0
 11
288.179219
 21
432.141123
 31
0.0
  0
SPLINE
  5
12b
100
AcDbEntity
  8
Layer_1
 62
7
100
AcDbSpline
 70
0
 71
3
 72
25
 73
21
 74
19
 40
0.000000
 40
0.000000
 40
0.000000
 40
0.000000
 40
0.916030
 40
1.818951
 40
2.734983
 40
3.651013
 40
4.553934
 40
5.469965
 40
6.385995
 40
7.288916
 40
8.204947
 40
9.120978
 40
10.023899
 40
10.939930
 40
11.855960
 40
12.758881
 40
13.674912
 40
14.590942
 40
15.493864
 40
16.409895
 40
16.409895
 40
16.409895
 40
16.409895
 10
305.679218
 20
418.750330
 30
0.0
 10
305.372317
 20
418.781694
 30
0.0
 10
304.762908
 20
418.843972
 30
0.0
 10
303.957564
 20
419.327147
 30
0.0
 10
303.358811
 20
420.034596
 30
0.0
 10
303.041254
 20
420.910640
 30
0.0
 10
303.041254
 20
421.840221
 30
0.0
 10
303.358810
 20
422.715038
 30
0.0
 10
303.957564
 20
423.427386
 30
0.0
 10
304.762908
 20
423.892359
 30
0.0
 10
305.679218
 20
424.054704
 30
0.0
 10
306.595529
 20
423.892359
 30
0.0
 10
307.400874
 20
423.427386
 30
0.0
 10
307.999625
 20
422.715037
 30
0.0
 10
308.317185
 20
421.840221
 30
0.0
 10
308.317185
 20
420.910640
 30
0.0
 10
307.999625
 20
420.034597
 30
0.0
 10
307.400874
 20
419.327146
 30
0.0
 10
306.595529
 20
418.843972
 30
0.0
 10
305.986119
 20
418.781694
 30
0.0
 10
305.679218
 20
418.750330
 30
0.0
 11
305.679218
 21
418.750330
 31
0.0
 11
304.777233
 21
418.910124
 31
0.0
 11
303.995280
 21
419.361584
 31
0.0
 11
303.405901
 21
420.062830
 31
0.0
 11
303.093295
 21
420.923869
 31
0.0
 11
303.093295
 21
421.826790
 31
0.0
 11
303.405901
 21
422.687830
 31
0.0
 11
303.995280
 21
423.389076
 31
0.0
 11
304.777233
 21
423.840536
 31
0.0
 11
305.679218
 21
424.000329
 31
0.0
 11
306.581204
 21
423.840536
 31
0.0
 11
307.363157
 21
423.389075
 31
0.0
 11
307.952535
 21
422.687829
 31
0.0
 11
308.265143
 21
421.826790
 31
0.0
 11
308.265143
 21
420.923869
 31
0.0
 11
307.952535
 21
420.062830
 31
0.0
 11
307.363157
 21
419.361584
 31
0.0
 11
306.581204
 21
418.910124
 31
0.0
 11
305.679218
 21
418.750330
 31
0.0
  0
LINE
  5
12c
100
AcDbEntity
  8
Layer_1
 62
7
100
AcDbLine
 10
305.679218
 20
418.750330
 30
0.0
 11
305.679218
 21
418.750329
 31
0.0
  0
SPLINE
  5
12d
100
AcDbEntity
  8
Layer_1
 62
7
100
AcDbSpline
 70
0
 71
3
 72
25
 73
21
 74
19
 40
0.000000
 40
0.000000
 40
0.000000
 40
0.000000
 40
0.916030
 40
1.818950
 40
2.734981
 40
3.651011
 40
4.553932
 40
5.469964
 40
6.385993
 40
7.288913
 40
8.204944
 40
9.120976
 40
10.023897
 40
10.939927
 40
11.855958
 40
12.758879
 40
13.674909
 40
14.590940
 40
15.493861
 40
16.409893
 40
16.409893
 40
16.409893
 40
16.409893
 10
294.579218
 20
302.016125
 30
0.0
 10
294.272317
 20
302.047488
 30
0.0
 10
293.662908
 20
302.109766
 30
0.0
 10
292.857564
 20
302.592940
 30
0.0
 10
292.258814
 20
303.300391
 30
0.0
 10
291.941254
 20
304.176433
 30
0.0
 10
291.941254
 20
305.106015
 30
0.0
 10
292.258813
 20
305.980831
 30
0.0
 10
292.857565
 20
306.693180
 30
0.0
 10
293.662908
 20
307.158153
 30
0.0
 10
294.579218
 20
307.320499
 30
0.0
 10
295.495529
 20
307.158153
 30
0.0
 10
296.300874
 20
306.693181
 30
0.0
 10
296.899625
 20
305.980831
 30
0.0
 10
297.217184
 20
305.106015
 30
0.0
 10
297.217185
 20
304.176433
 30
0.0
 10
296.899624
 20
303.300391
 30
0.0
 10
296.300874
 20
302.592940
 30
0.0
 10
295.495529
 20
302.109765
 30
0.0
 10
294.886119
 20
302.047488
 30
0.0
 10
294.579218
 20
302.016125
 30
0.0
 11
294.579218
 21
302.016125
 31
0.0
 11
293.677233
 21
302.175918
 31
0.0
 11
292.895281
 21
302.627378
 31
0.0
 11
292.305904
 21
303.328624
 31
0.0
 11
291.993296
 21
304.189663
 31
0.0
 11
291.993296
 21
305.092584
 31
0.0
 11
292.305904
 21
305.953624
 31
0.0
 11
292.895281
 21
306.654869
 31
0.0
 11
293.677233
 21
307.106330
 31
0.0
 11
294.579218
 21
307.266124
 31
0.0
 11
295.481205
 21
307.106330
 31
0.0
 11
296.263158
 21
306.654869
 31
0.0
 11
296.852535
 21
305.953624
 31
0.0
 11
297.165143
 21
305.092584
 31
0.0
 11
297.165143
 21
304.189663
 31
0.0
 11
296.852535
 21
303.328624
 31
0.0
 11
296.263158
 21
302.627378
 31
0.0
 11
295.481205
 21
302.175918
 31
0.0
 11
294.579218
 21
302.016125
 31
0.0
  0
LINE
  5
12e
100
AcDbEntity
  8
Layer_1
 62
7
100
AcDbLine
 10
294.579218
 20
302.016125
 30
0.0
 11
294.579218
 21
302.016125
 31
0.0
  0
SPLINE
  5
12f
100
AcDbEntity
  8
Layer_1
 62
7
100
AcDbSpline
 70
0
 71
3
 72
25
 73
21
 74
19
 40
0.000000
 40
0.000000
 40
0.000000
 40
0.000000
 40
0.916031
 40
1.818952
 40
2.734983
 40
3.651013
 40
4.553934
 40
5.469966
 40
6.385996
 40
7.288917
 40
8.204948
 40
9.120979
 40
10.023900
 40
10.939931
 40
11.855962
 40
12.758883
 40
13.674912
 40
14.590944
 40
15.493865
 40
16.409895
 40
16.409895
 40
16.409895
 40
16.409895
 10
89.079220
 20
302.016125
 30
0.0
 10
88.772319
 20
302.047488
 30
0.0
 10
88.162909
 20
302.109766
 30
0.0
 10
87.357564
 20
302.592940
 30
0.0
 10
86.758813
 20
303.300391
 30
0.0
 10
86.441253
 20
304.176433
 30
0.0
 10
86.441253
 20
305.106015
 30
0.0
 10
86.758812
 20
305.980831
 30
0.0
 10
87.357564
 20
306.693181
 30
0.0
 10
88.162909
 20
307.158153
 30
0.0
 10
89.079219
 20
307.320499
 30
0.0
 10
89.995530
 20
307.158153
 30
0.0
 10
90.800873
 20
306.693180
 30
0.0
 10
91.399628
 20
305.980832
 30
0.0
 10
91.717183
 20
305.106014
 30
0.0
 10
91.717184
 20
304.176434
 30
0.0
 10
91.399627
 20
303.300390
 30
0.0
 10
90.800874
 20
302.592941
 30
0.0
 10
89.995530
 20
302.109766
 30
0.0
 10
89.386120
 20
302.047488
 30
0.0
 10
89.079220
 20
302.016125
 30
0.0
 11
89.079220
 21
302.016125
 31
0.0
 11
88.177234
 21
302.175918
 31
0.0
 11
87.395280
 21
302.627378
 31
0.0
 11
86.805903
 21
303.328624
 31
0.0
 11
86.493294
 21
304.189663
 31
0.0
 11
86.493294
 21
305.092584
 31
0.0
 11
86.805903
 21
305.953624
 31
0.0
 11
87.395280
 21
306.654869
 31
0.0
 11
88.177234
 21
307.106330
 31
0.0
 11
89.079220
 21
307.266124
 31
0.0
 11
89.981205
 21
307.106330
 31
0.0
 11
90.763157
 21
306.654869
 31
0.0
 11
91.352537
 21
305.953624
 31
0.0
 11
91.665143
 21
305.092584
 31
0.0
 11
91.665143
 21
304.189663
 31
0.0
 11
91.352537
 21
303.328624
 31
0.0
 11
90.763157
 21
302.627378
 31
0.0
 11
89.981205
 21
302.175918
 31
0.0
 11
89.079220
 21
302.016125
 31
0.0
  0
LINE
  5
130
100
AcDbEntity
  8
Layer_1
 62
7
100
AcDbLine
 10
89.079220
 20
302.016125
 30
0.0
 11
89.079220
 21
302.016125
 31
0.0
  0
LINE
  5
131
100
AcDbEntity
  8
Layer_1
 62
7
100
AcDbLine
 10
191.829219
 20
302.016125
 30
0.0
 11
191.829219
 21
302.016125
 31
0.0
  0
LINE
  5
132
100
AcDbEntity
  8
Layer_1
 62
7
100
AcDbLine
 10
0.132602
 20
288.141123
 30
0.0
 11
39.912008
 21
288.141123
 31
0.0
  0
LINE
  5
133
100
AcDbEntity
  8
Layer_1
 62
7
100
AcDbLine
 10
33.512009
 20
379.850284
 30
0.0
 11
0.132602
 21
288.141123
 31
0.0
  0
LINE
  5
134
100
AcDbEntity
  8
Layer_1
 62
7
100
AcDbLine
 10
33.512009
 20
385.641123
 30
0.0
 11
33.512009
 21
379.850284
 31
0.0
  0
LINE
  5
135
100
AcDbEntity
  8
Layer_1
 62
7
100
AcDbLine
 10
13.512007
 20
405.641123
 30
0.0
 11
33.512009
 21
385.641123
 31
0.0
  0
LINE
  5
136
100
AcDbEntity
  8
Layer_1
 62
7
100
AcDbLine
 10
13.512007
 20
432.141123
 30
0.0
 11
13.512007
 21
405.641123
 31
0.0
  0
SPLINE
  5
137
100
AcDbEntity
  8
Layer_1
 62
7
100
AcDbSpline
 70
0
 71
3
 72
25
 73
21
 74
19
 40
0.000000
 40
0.000000
 40
0.000000
 40
0.000000
 40
0.916030
 40
1.818951
 40
2.734983
 40
3.651013
 40
4.553934
 40
5.469966
 40
6.385996
 40
7.288917
 40
8.204948
 40
9.120979
 40
10.023900
 40
10.939930
 40
11.855962
 40
12.758883
 40
13.674913
 40
14.590944
 40
15.493865
 40
16.409896
 40
16.409896
 40
16.409896
 40
16.409896
 10
191.829219
 20
302.016125
 30
0.0
 10
191.522318
 20
302.047488
 30
0.0
 10
190.912909
 20
302.109766
 30
0.0
 10
190.107564
 20
302.592940
 30
0.0
 10
189.508812
 20
303.300391
 30
0.0
 10
189.191252
 20
304.176434
 30
0.0
 10
189.191253
 20
305.106015
 30
0.0
 10
189.508811
 20
305.980832
 30
0.0
 10
190.107565
 20
306.693180
 30
0.0
 10
190.912908
 20
307.158153
 30
0.0
 10
191.829219
 20
307.320499
 30
0.0
 10
192.745530
 20
307.158153
 30
0.0
 10
193.550874
 20
306.693181
 30
0.0
 10
194.149626
 20
305.980831
 30
0.0
 10
194.467185
 20
305.106015
 30
0.0
 10
194.467185
 20
304.176433
 30
0.0
 10
194.149625
 20
303.300391
 30
0.0
 10
193.550875
 20
302.592940
 30
0.0
 10
192.745529
 20
302.109766
 30
0.0
 10
192.136120
 20
302.047488
 30
0.0
 10
191.829219
 20
302.016125
 30
0.0
 11
191.829219
 21
302.016125
 31
0.0
 11
190.927233
 21
302.175918
 31
0.0
 11
190.145281
 21
302.627378
 31
0.0
 11
189.555902
 21
303.328624
 31
0.0
 11
189.243294
 21
304.189663
 31
0.0
 11
189.243294
 21
305.092584
 31
0.0
 11
189.555902
 21
305.953624
 31
0.0
 11
190.145281
 21
306.654869
 31
0.0
 11
190.927233
 21
307.106330
 31
0.0
 11
191.829219
 21
307.266124
 31
0.0
 11
192.731205
 21
307.106330
 31
0.0
 11
193.513158
 21
306.654869
 31
0.0
 11
194.102536
 21
305.953624
 31
0.0
 11
194.415144
 21
305.092584
 31
0.0
 11
194.415144
 21
304.189663
 31
0.0
 11
194.102536
 21
303.328624
 31
0.0
 11
193.513158
 21
302.627378
 31
0.0
 11
192.731205
 21
302.175918
 31
0.0
 11
191.829219
 21
302.016125
 31
0.0
  0
LINE
  5
138
100
AcDbEntity
  8
Layer_1
 62
7
100
AcDbLine
 10
13.512007
 20
432.141123
 30
0.0
 11
259.012008
 21
432.141123
 31
0.0
  0
LINE
  5
139
100
AcDbEntity
  8
Layer_1
 62
7
100
AcDbLine
 10
259.012008
 20
432.141123
 30
0.0
 11
259.012008
 21
385.641123
 31
0.0
  0
LINE
  5
13a
100
AcDbEntity
  8
Layer_1
 62
7
100
AcDbLine
 10
259.012008
 20
385.641123
 30
0.0
 11
55.557053
 21
331.125532
 31
0.0
  0
LINE
  5
13b
100
AcDbEntity
  8
Layer_1
 62
7
100
AcDbLine
 10
55.557053
 20
331.125532
 30
0.0
 11
39.912008
 21
288.141123
 31
0.0
  0
SPLINE
  5
13c
100
AcDbEntity
  8
Layer_1
 62
7
100
AcDbSpline
 70
0
 71
3
 72
25
 73
21
 74
19
 40
0.000000
 40
0.000000
 40
0.000000
 40
0.000000
 40
0.916030
 40
1.818951
 40
2.734983
 40
3.651013
 40
4.553934
 40
5.469965
 40
6.385995
 40
7.288916
 40
8.204947
 40
9.120978
 40
10.023899
 40
10.939930
 40
11.855960
 40
12.758881
 40
13.674912
 40
14.590942
 40
15.493864
 40
16.409895
 40
16.409895
 40
16.409895
 40
16.409895
 10
22.412009
 20
301.531917
 30
0.0
 10
22.718910
 20
301.500553
 30
0.0
 10
23.328319
 20
301.438275
 30
0.0
 10
24.133663
 20
300.955100
 30
0.0
 10
24.732416
 20
300.247651
 30
0.0
 10
25.049973
 20
299.371607
 30
0.0
 10
25.049973
 20
298.442026
 30
0.0
 10
24.732417
 20
297.567208
 30
0.0
 10
24.133663
 20
296.854860
 30
0.0
 10
23.328319
 20
296.389888
 30
0.0
 10
22.412009
 20
296.227543
 30
0.0
 10
21.495698
 20
296.389888
 30
0.0
 10
20.690353
 20
296.854860
 30
0.0
 10
20.091602
 20
297.567210
 30
0.0
 10
19.774042
 20
298.442026
 30
0.0
 10
19.774042
 20
299.371607
 30
0.0
 10
20.091602
 20
300.247650
 30
0.0
 10
20.690353
 20
300.955101
 30
0.0
 10
21.495698
 20
301.438275
 30
0.0
 10
22.105108
 20
301.500553
 30
0.0
 10
22.412009
 20
301.531917
 30
0.0
 11
22.412009
 21
301.531917
 31
0.0
 11
23.313994
 21
301.372123
 31
0.0
 11
24.095947
 21
300.920662
 31
0.0
 11
24.685326
 21
300.219417
 31
0.0
 11
24.997932
 21
299.358378
 31
0.0
 11
24.997932
 21
298.455456
 31
0.0
 11
24.685326
 21
297.594416
 31
0.0
 11
24.095947
 21
296.893171
 31
0.0
 11
23.313994
 21
296.441711
 31
0.0
 11
22.412009
 21
296.281917
 31
0.0
 11
21.510023
 21
296.441711
 31
0.0
 11
20.728070
 21
296.893172
 31
0.0
 11
20.138692
 21
297.594418
 31
0.0
 11
19.826084
 21
298.455457
 31
0.0
 11
19.826084
 21
299.358378
 31
0.0
 11
20.138692
 21
300.219417
 31
0.0
 11
20.728070
 21
300.920662
 31
0.0
 11
21.510023
 21
301.372123
 31
0.0
 11
22.412009
 21
301.531917
 31
0.0
  0
LINE
  5
13d
100
AcDbEntity
  8
Layer_1
 62
7
100
AcDbLine
 10
22.412009
 20
301.531917
 30
0.0
 11
22.412009
 21
301.531918
 31
0.0
  0
SPLINE
  5
13e
100
AcDbEntity
  8
Layer_1
 62
7
100
AcDbSpline
 70
0
 71
3
 72
25
 73
21
 74
19
 40
0.000000
 40
0.000000
 40
0.000000
 40
0.000000
 40
0.916030
 40
1.818950
 40
2.734981
 40
3.651011
 40
4.553932
 40
5.469964
 40
6.385993
 40
7.288913
 40
8.204944
 40
9.120976
 40
10.023897
 40
10.939927
 40
11.855958
 40
12.758879
 40
13.674909
 40
14.590940
 40
15.493861
 40
16.409893
 40
16.409893
 40
16.409893
 40
16.409893
 10
33.512009
 20
418.266122
 30
0.0
 10
33.818910
 20
418.234759
 30
0.0
 10
34.428319
 20
418.172481
 30
0.0
 10
35.233663
 20
417.689307
 30
0.0
 10
35.832413
 20
416.981856
 30
0.0
 10
36.149973
 20
416.105813
 30
0.0
 10
36.149973
 20
415.176232
 30
0.0
 10
35.832414
 20
414.301416
 30
0.0
 10
35.233663
 20
413.589066
 30
0.0
 10
34.428319
 20
413.124094
 30
0.0
 10
33.512009
 20
412.961748
 30
0.0
 10
32.595698
 20
413.124094
 30
0.0
 10
31.790353
 20
413.589066
 30
0.0
 10
31.191602
 20
414.301416
 30
0.0
 10
30.874043
 20
415.176232
 30
0.0
 10
30.874043
 20
416.105813
 30
0.0
 10
31.191603
 20
416.981856
 30
0.0
 10
31.790353
 20
417.689307
 30
0.0
 10
32.595698
 20
418.172481
 30
0.0
 10
33.205108
 20
418.234759
 30
0.0
 10
33.512009
 20
418.266122
 30
0.0
 11
33.512009
 21
418.266122
 31
0.0
 11
34.413995
 21
418.106329
 31
0.0
 11
35.195946
 21
417.654869
 31
0.0
 11
35.785323
 21
416.953622
 31
0.0
 11
36.097932
 21
416.092584
 31
0.0
 11
36.097932
 21
415.189663
 31
0.0
 11
35.785323
 21
414.328623
 31
0.0
 11
35.195946
 21
413.627378
 31
0.0
 11
34.413995
 21
413.175917
 31
0.0
 11
33.512009
 21
413.016123
 31
0.0
 11
32.610022
 21
413.175917
 31
0.0
 11
31.828070
 21
413.627378
 31
0.0
 11
31.238692
 21
414.328623
 31
0.0
 11
30.926084
 21
415.189663
 31
0.0
 11
30.926084
 21
416.092584
 31
0.0
 11
31.238692
 21
416.953622
 31
0.0
 11
31.828070
 21
417.654869
 31
0.0
 11
32.610022
 21
418.106329
 31
0.0
 11
33.512009
 21
418.266122
 31
0.0
  0
LINE
  5
13f
100
AcDbEntity
  8
Layer_1
 62
7
100
AcDbLine
 10
33.512009
 20
418.266122
 30
0.0
 11
33.512009
 21
418.266122
 31
0.0
  0
SPLINE
  5
140
100
AcDbEntity
  8
Layer_1
 62
7
100
AcDbSpline
 70
0
 71
3
 72
25
 73
21
 74
19
 40
0.000000
 40
0.000000
 40
0.000000
 40
0.000000
 40
0.916031
 40
1.818952
 40
2.734983
 40
3.651013
 40
4.553934
 40
5.469966
 40
6.385996
 40
7.288917
 40
8.204948
 40
9.120979
 40
10.023900
 40
10.939931
 40
11.855962
 40
12.758883
 40
13.674912
 40
14.590944
 40
15.493865
 40
16.409895
 40
16.409895
 40
16.409895
 40
16.409895
 10
239.012008
 20
418.266122
 30
0.0
 10
239.318908
 20
418.234759
 30
0.0
 10
239.928318
 20
418.172481
 30
0.0
 10
240.733663
 20
417.689307
 30
0.0
 10
241.332414
 20
416.981856
 30
0.0
 10
241.649974
 20
416.105813
 30
0.0
 10
241.649974
 20
415.176232
 30
0.0
 10
241.332415
 20
414.301416
 30
0.0
 10
240.733663
 20
413.589066
 30
0.0
 10
239.928318
 20
413.124094
 30
0.0
 10
239.012008
 20
412.961748
 30
0.0
 10
238.095697
 20
413.124094
 30
0.0
 10
237.290354
 20
413.589067
 30
0.0
 10
236.691599
 20
414.301415
 30
0.0
 10
236.374044
 20
415.176232
 30
0.0
 10
236.374043
 20
416.105813
 30
0.0
 10
236.691600
 20
416.981857
 30
0.0
 10
237.290353
 20
417.689306
 30
0.0
 10
238.095697
 20
418.172481
 30
0.0
 10
238.705107
 20
418.234759
 30
0.0
 10
239.012008
 20
418.266122
 30
0.0
 11
239.012008
 21
418.266122
 31
0.0
 11
239.913993
 21
418.106329
 31
0.0
 11
240.695947
 21
417.654869
 31
0.0
 11
241.285324
 21
416.953622
 31
0.0
 11
241.597933
 21
416.092584
 31
0.0
 11
241.597933
 21
415.189663
 31
0.0
 11
241.285324
 21
414.328623
 31
0.0
 11
240.695947
 21
413.627378
 31
0.0
 11
239.913993
 21
413.175917
 31
0.0
 11
239.012008
 21
413.016123
 31
0.0
 11
238.110022
 21
413.175917
 31
0.0
 11
237.328070
 21
413.627378
 31
0.0
 11
236.738691
 21
414.328623
 31
0.0
 11
236.426084
 21
415.189663
 31
0.0
 11
236.426084
 21
416.092584
 31
0.0
 11
236.738691
 21
416.953622
 31
0.0
 11
237.328070
 21
417.654869
 31
0.0
 11
238.110022
 21
418.106329
 31
0.0
 11
239.012008
 21
418.266122
 31
0.0
  0
LINE
  5
141
100
AcDbEntity
  8
Layer_1
 62
7
100
AcDbLine
 10
239.012008
 20
418.266122
 30
0.0
 11
239.012008
 21
418.266122
 31
0.0
  0
LINE
  5
142
100
AcDbEntity
  8
Layer_1
 62
7
100
AcDbLine
 10
136.262008
 20
418.266122
 30
0.0
 11
136.262008
 21
418.266122
 31
0.0
  0
LINE
  5
143
100
AcDbEntity
  8
Layer_1
 62
7
100
AcDbLine
 10
0.132602
 20
288.141135
 30
0.0
 11
39.912008
 21
288.141135
 31
0.0
  0
LINE
  5
144
100
AcDbEntity
  8
Layer_1
 62
7
100
AcDbLine
 10
33.512009
 20
196.431974
 30
0.0
 11
0.132602
 21
288.141135
 31
0.0
  0
LINE
  5
145
100
AcDbEntity
  8
Layer_1
 62
7
100
AcDbLine
 10
33.512009
 20
190.641135
 30
0.0
 11
33.512009
 21
196.431974
 31
0.0
  0
LINE
  5
146
100
AcDbEntity
  8
Layer_1
 62
7
100
AcDbLine
 10
13.512007
 20
170.641136
 30
0.0
 11
33.512009
 21
190.641135
 31
0.0
  0
LINE
  5
147
100
AcDbEntity
  8
Layer_1
 62
7
100
AcDbLine
 10
13.512007
 20
144.141135
 30
0.0
 11
13.512007
 21
170.641136
 31
0.0
  0
SPLINE
  5
148
100
AcDbEntity
  8
Layer_1
 62
7
100
AcDbSpline
 70
0
 71
3
 72
25
 73
21
 74
19
 40
0.000000
 40
0.000000
 40
0.000000
 40
0.000000
 40
0.916030
 40
1.818951
 40
2.734983
 40
3.651013
 40
4.553934
 40
5.469966
 40
6.385996
 40
7.288917
 40
8.204948
 40
9.120979
 40
10.023900
 40
10.939930
 40
11.855962
 40
12.758883
 40
13.674913
 40
14.590944
 40
15.493865
 40
16.409896
 40
16.409896
 40
16.409896
 40
16.409896
 10
136.262008
 20
418.266122
 30
0.0
 10
136.568909
 20
418.234759
 30
0.0
 10
137.178319
 20
418.172481
 30
0.0
 10
137.983663
 20
417.689306
 30
0.0
 10
138.582415
 20
416.981856
 30
0.0
 10
138.899975
 20
416.105813
 30
0.0
 10
138.899975
 20
415.176232
 30
0.0
 10
138.582416
 20
414.301415
 30
0.0
 10
137.983662
 20
413.589067
 30
0.0
 10
137.178319
 20
413.124094
 30
0.0
 10
136.262008
 20
412.961748
 30
0.0
 10
135.345698
 20
413.124094
 30
0.0
 10
134.540353
 20
413.589066
 30
0.0
 10
133.941601
 20
414.301416
 30
0.0
 10
133.624042
 20
415.176232
 30
0.0
 10
133.624042
 20
416.105813
 30
0.0
 10
133.941602
 20
416.981856
 30
0.0
 10
134.540353
 20
417.689307
 30
0.0
 10
135.345698
 20
418.172481
 30
0.0
 10
135.955107
 20
418.234759
 30
0.0
 10
136.262008
 20
418.266122
 30
0.0
 11
136.262008
 21
418.266122
 31
0.0
 11
137.163994
 21
418.106329
 31
0.0
 11
137.945946
 21
417.654869
 31
0.0
 11
138.535325
 21
416.953622
 31
0.0
 11
138.847933
 21
416.092584
 31
0.0
 11
138.847933
 21
415.189663
 31
0.0
 11
138.535325
 21
414.328623
 31
0.0
 11
137.945946
 21
413.627378
 31
0.0
 11
137.163994
 21
413.175917
 31
0.0
 11
136.262008
 21
413.016123
 31
0.0
 11
135.360022
 21
413.175917
 31
0.0
 11
134.578069
 21
413.627378
 31
0.0
 11
133.988691
 21
414.328623
 31
0.0
 11
133.676083
 21
415.189663
 31
0.0
 11
133.676083
 21
416.092584
 31
0.0
 11
133.988691
 21
416.953622
 31
0.0
 11
134.578069
 21
417.654869
 31
0.0
 11
135.360022
 21
418.106329
 31
0.0
 11
136.262008
 21
418.266122
 31
0.0
  0
LINE
  5
149
100
AcDbEntity
  8
Layer_1
 62
7
100
AcDbLine
 10
13.512007
 20
144.141135
 30
0.0
 11
259.012008
 21
144.141135
 31
0.0
  0
LINE
  5
14a
100
AcDbEntity
  8
Layer_1
 62
7
100
AcDbLine
 10
259.012008
 20
144.141135
 30
0.0
 11
259.012008
 21
190.641135
 31
0.0
  0
LINE
  5
14b
100
AcDbEntity
  8
Layer_1
 62
7
100
AcDbLine
 10
259.012008
 20
190.641135
 30
0.0
 11
55.557053
 21
245.156726
 31
0.0
  0
LINE
  5
14c
100
AcDbEntity
  8
Layer_1
 62
7
100
AcDbLine
 10
55.557053
 20
245.156726
 30
0.0
 11
39.912008
 21
288.141135
 31
0.0
  0
SPLINE
  5
14d
100
AcDbEntity
  8
Layer_1
 62
7
100
AcDbSpline
 70
0
 71
3
 72
25
 73
21
 74
19
 40
0.000000
 40
0.000000
 40
0.000000
 40
0.000000
 40
0.916030
 40
1.818951
 40
2.734983
 40
3.651013
 40
4.553934
 40
5.469965
 40
6.385995
 40
7.288916
 40
8.204947
 40
9.120978
 40
10.023899
 40
10.939930
 40
11.855960
 40
12.758881
 40
13.674912
 40
14.590942
 40
15.493864
 40
16.409895
 40
16.409895
 40
16.409895
 40
16.409895
 10
22.412009
 20
274.750342
 30
0.0
 10
22.718910
 20
274.781705
 30
0.0
 10
23.328319
 20
274.843983
 30
0.0
 10
24.133663
 20
275.327158
 30
0.0
 10
24.732416
 20
276.034607
 30
0.0
 10
25.049973
 20
276.910652
 30
0.0
 10
25.049973
 20
277.840232
 30
0.0
 10
24.732417
 20
278.715050
 30
0.0
 10
24.133663
 20
279.427398
 30
0.0
 10
23.328319
 20
279.892371
 30
0.0
 10
22.412009
 20
280.054715
 30
0.0
 10
21.495698
 20
279.892370
 30
0.0
 10
20.690353
 20
279.427398
 30
0.0
 10
20.091602
 20
278.715048
 30
0.0
 10
19.774042
 20
277.840232
 30
0.0
 10
19.774042
 20
276.910651
 30
0.0
 10
20.091602
 20
276.034608
 30
0.0
 10
20.690353
 20
275.327157
 30
0.0
 10
21.495698
 20
274.843983
 30
0.0
 10
22.105108
 20
274.781705
 30
0.0
 10
22.412009
 20
274.750342
 30
0.0
 11
22.412009
 21
274.750342
 31
0.0
 11
23.313994
 21
274.910135
 31
0.0
 11
24.095947
 21
275.361596
 31
0.0
 11
24.685326
 21
276.062842
 31
0.0
 11
24.997932
 21
276.923881
 31
0.0
 11
24.997932
 21
277.826802
 31
0.0
 11
24.685326
 21
278.687842
 31
0.0
 11
24.095947
 21
279.389087
 31
0.0
 11
23.313994
 21
279.840547
 31
0.0
 11
22.412009
 21
280.000341
 31
0.0
 11
21.510023
 21
279.840547
 31
0.0
 11
20.728070
 21
279.389086
 31
0.0
 11
20.138692
 21
278.687841
 31
0.0
 11
19.826084
 21
277.826802
 31
0.0
 11
19.826084
 21
276.923881
 31
0.0
 11
20.138692
 21
276.062842
 31
0.0
 11
20.728070
 21
275.361596
 31
0.0
 11
21.510023
 21
274.910135
 31
0.0
 11
22.412009
 21
274.750342
 31
0.0
  0
LINE
  5
14e
100
AcDbEntity
  8
Layer_1
 62
7
100
AcDbLine
 10
22.412009
 20
274.750342
 30
0.0
 11
22.412009
 21
274.750341
 31
0.0
  0
SPLINE
  5
14f
100
AcDbEntity
  8
Layer_1
 62
7
100
AcDbSpline
 70
0
 71
3
 72
25
 73
21
 74
19
 40
0.000000
 40
0.000000
 40
0.000000
 40
0.000000
 40
0.916030
 40
1.818950
 40
2.734981
 40
3.651011
 40
4.553932
 40
5.469964
 40
6.385993
 40
7.288913
 40
8.204944
 40
9.120976
 40
10.023897
 40
10.939927
 40
11.855958
 40
12.758879
 40
13.674909
 40
14.590940
 40
15.493861
 40
16.409893
 40
16.409893
 40
16.409893
 40
16.409893
 10
33.512009
 20
158.016136
 30
0.0
 10
33.818910
 20
158.047499
 30
0.0
 10
34.428319
 20
158.109777
 30
0.0
 10
35.233663
 20
158.592952
 30
0.0
 10
35.832413
 20
159.300403
 30
0.0
 10
36.149973
 20
160.176445
 30
0.0
 10
36.149973
 20
161.106026
 30
0.0
 10
35.832414
 20
161.980842
 30
0.0
 10
35.233663
 20
162.693192
 30
0.0
 10
34.428319
 20
163.158164
 30
0.0
 10
33.512009
 20
163.320510
 30
0.0
 10
32.595698
 20
163.158165
 30
0.0
 10
31.790353
 20
162.693192
 30
0.0
 10
31.191602
 20
161.980842
 30
0.0
 10
30.874043
 20
161.106026
 30
0.0
 10
30.874043
 20
160.176445
 30
0.0
 10
31.191603
 20
159.300403
 30
0.0
 10
31.790353
 20
158.592951
 30
0.0
 10
32.595698
 20
158.109777
 30
0.0
 10
33.205108
 20
158.047499
 30
0.0
 10
33.512009
 20
158.016136
 30
0.0
 11
33.512009
 21
158.016136
 31
0.0
 11
34.413995
 21
158.175930
 31
0.0
 11
35.195946
 21
158.627390
 31
0.0
 11
35.785323
 21
159.328636
 31
0.0
 11
36.097932
 21
160.189674
 31
0.0
 11
36.097932
 21
161.092595
 31
0.0
 11
35.785323
 21
161.953636
 31
0.0
 11
35.195946
 21
162.654881
 31
0.0
 11
34.413995
 21
163.106341
 31
0.0
 11
33.512009
 21
163.266135
 31
0.0
 11
32.610022
 21
163.106341
 31
0.0
 11
31.828070
 21
162.654881
 31
0.0
 11
31.238692
 21
161.953636
 31
0.0
 11
30.926084
 21
161.092595
 31
0.0
 11
30.926084
 21
160.189674
 31
0.0
 11
31.238692
 21
159.328636
 31
0.0
 11
31.828070
 21
158.627390
 31
0.0
 11
32.610022
 21
158.175930
 31
0.0
 11
33.512009
 21
158.016136
 31
0.0
  0
LINE
  5
150
100
AcDbEntity
  8
Layer_1
 62
7
100
AcDbLine
 10
33.512009
 20
158.016136
 30
0.0
 11
33.512009
 21
158.016136
 31
0.0
  0
SPLINE
  5
151
100
AcDbEntity
  8
Layer_1
 62
7
100
AcDbSpline
 70
0
 71
3
 72
25
 73
21
 74
19
 40
0.000000
 40
0.000000
 40
0.000000
 40
0.000000
 40
0.916031
 40
1.818952
 40
2.734983
 40
3.651013
 40
4.553934
 40
5.469966
 40
6.385996
 40
7.288917
 40
8.204948
 40
9.120979
 40
10.023900
 40
10.939931
 40
11.855962
 40
12.758883
 40
13.674912
 40
14.590944
 40
15.493865
 40
16.409895
 40
16.409895
 40
16.409895
 40
16.409895
 10
239.012008
 20
158.016136
 30
0.0
 10
239.318908
 20
158.047499
 30
0.0
 10
239.928318
 20
158.109777
 30
0.0
 10
240.733663
 20
158.592951
 30
0.0
 10
241.332414
 20
159.300402
 30
0.0
 10
241.649974
 20
160.176445
 30
0.0
 10
241.649974
 20
161.106026
 30
0.0
 10
241.332415
 20
161.980843
 30
0.0
 10
240.733663
 20
162.693192
 30
0.0
 10
239.928318
 20
163.158164
 30
0.0
 10
239.012008
 20
163.320510
 30
0.0
 10
238.095697
 20
163.158164
 30
0.0
 10
237.290354
 20
162.693191
 30
0.0
 10
236.691599
 20
161.980844
 30
0.0
 10
236.374044
 20
161.106026
 30
0.0
 10
236.374043
 20
160.176445
 30
0.0
 10
236.691600
 20
159.300402
 30
0.0
 10
237.290353
 20
158.592952
 30
0.0
 10
238.095697
 20
158.109777
 30
0.0
 10
238.705107
 20
158.047499
 30
0.0
 10
239.012008
 20
158.016136
 30
0.0
 11
239.012008
 21
158.016136
 31
0.0
 11
239.913993
 21
158.175930
 31
0.0
 11
240.695947
 21
158.627390
 31
0.0
 11
241.285324
 21
159.328636
 31
0.0
 11
241.597933
 21
160.189674
 31
0.0
 11
241.597933
 21
161.092595
 31
0.0
 11
241.285324
 21
161.953636
 31
0.0
 11
240.695947
 21
162.654881
 31
0.0
 11
239.913993
 21
163.106341
 31
0.0
 11
239.012008
 21
163.266135
 31
0.0
 11
238.110022
 21
163.106341
 31
0.0
 11
237.328070
 21
162.654881
 31
0.0
 11
236.738691
 21
161.953636
 31
0.0
 11
236.426084
 21
161.092595
 31
0.0
 11
236.426084
 21
160.189674
 31
0.0
 11
236.738691
 21
159.328636
 31
0.0
 11
237.328070
 21
158.627390
 31
0.0
 11
238.110022
 21
158.175930
 31
0.0
 11
239.012008
 21
158.016136
 31
0.0
  0
LINE
  5
152
100
AcDbEntity
  8
Layer_1
 62
7
100
AcDbLine
 10
239.012008
 20
158.016136
 30
0.0
 11
239.012008
 21
158.016136
 31
0.0
  0
LINE
  5
153
100
AcDbEntity
  8
Layer_1
 62
7
100
AcDbLine
 10
136.262008
 20
158.016136
 30
0.0
 11
136.262008
 21
158.016136
 31
0.0
  0
LINE
  5
154
100
AcDbEntity
  8
Layer_1
 62
7
100
AcDbLine
 10
327.958628
 20
144.141112
 30
0.0
 11
288.179222
 21
144.141112
 31
0.0
  0
LINE
  5
155
100
AcDbEntity
  8
Layer_1
 62
7
100
AcDbLine
 10
294.579221
 20
235.850273
 30
0.0
 11
327.958628
 21
144.141112
 31
0.0
  0
LINE
  5
156
100
AcDbEntity
  8
Layer_1
 62
7
100
AcDbLine
 10
294.579221
 20
241.641112
 30
0.0
 11
294.579221
 21
235.850273
 31
0.0
  0
LINE
  5
157
100
AcDbEntity
  8
Layer_1
 62
7
100
AcDbLine
 10
314.579223
 20
261.641112
 30
0.0
 11
294.579221
 21
241.641112
 31
0.0
  0
LINE
  5
158
100
AcDbEntity
  8
Layer_1
 62
7
100
AcDbLine
 10
314.579223
 20
288.141112
 30
0.0
 11
314.579223
 21
261.641112
 31
0.0
  0
SPLINE
  5
159
100
AcDbEntity
  8
Layer_1
 62
7
100
AcDbSpline
 70
0
 71
3
 72
25
 73
21
 74
19
 40
0.000000
 40
0.000000
 40
0.000000
 40
0.000000
 40
0.916030
 40
1.818951
 40
2.734983
 40
3.651013
 40
4.553934
 40
5.469966
 40
6.385996
 40
7.288917
 40
8.204948
 40
9.120979
 40
10.023900
 40
10.939930
 40
11.855962
 40
12.758883
 40
13.674913
 40
14.590944
 40
15.493865
 40
16.409896
 40
16.409896
 40
16.409896
 40
16.409896
 10
136.262008
 20
158.016136
 30
0.0
 10
136.568909
 20
158.047499
 30
0.0
 10
137.178319
 20
158.109777
 30
0.0
 10
137.983663
 20
158.592952
 30
0.0
 10
138.582415
 20
159.300402
 30
0.0
 10
138.899975
 20
160.176445
 30
0.0
 10
138.899975
 20
161.106026
 30
0.0
 10
138.582416
 20
161.980843
 30
0.0
 10
137.983662
 20
162.693191
 30
0.0
 10
137.178319
 20
163.158164
 30
0.0
 10
136.262008
 20
163.320510
 30
0.0
 10
135.345698
 20
163.158164
 30
0.0
 10
134.540353
 20
162.693192
 30
0.0
 10
133.941601
 20
161.980843
 30
0.0
 10
133.624042
 20
161.106026
 30
0.0
 10
133.624042
 20
160.176445
 30
0.0
 10
133.941602
 20
159.300402
 30
0.0
 10
134.540353
 20
158.592951
 30
0.0
 10
135.345698
 20
158.109777
 30
0.0
 10
135.955107
 20
158.047499
 30
0.0
 10
136.262008
 20
158.016136
 30
0.0
 11
136.262008
 21
158.016136
 31
0.0
 11
137.163994
 21
158.175930
 31
0.0
 11
137.945946
 21
158.627390
 31
0.0
 11
138.535325
 21
159.328636
 31
0.0
 11
138.847933
 21
160.189674
 31
0.0
 11
138.847933
 21
161.092595
 31
0.0
 11
138.535325
 21
161.953636
 31
0.0
 11
137.945946
 21
162.654881
 31
0.0
 11
137.163994
 21
163.106341
 31
0.0
 11
136.262008
 21
163.266135
 31
0.0
 11
135.360022
 21
163.106341
 31
0.0
 11
134.578069
 21
162.654881
 31
0.0
 11
133.988691
 21
161.953636
 31
0.0
 11
133.676083
 21
161.092595
 31
0.0
 11
133.676083
 21
160.189674
 31
0.0
 11
133.988691
 21
159.328636
 31
0.0
 11
134.578069
 21
158.627390
 31
0.0
 11
135.360022
 21
158.175930
 31
0.0
 11
136.262008
 21
158.016136
 31
0.0
  0
LINE
  5
15a
100
AcDbEntity
  8
Layer_1
 62
7
100
AcDbLine
 10
314.579223
 20
288.141112
 30
0.0
 11
69.079222
 21
288.141112
 31
0.0
  0
LINE
  5
15b
100
AcDbEntity
  8
Layer_1
 62
7
100
AcDbLine
 10
69.079222
 20
288.141112
 30
0.0
 11
69.079222
 21
241.641112
 31
0.0
  0
LINE
  5
15c
100
AcDbEntity
  8
Layer_1
 62
7
100
AcDbLine
 10
69.079222
 20
241.641112
 30
0.0
 11
272.534177
 21
187.125521
 31
0.0
  0
LINE
  5
15d
100
AcDbEntity
  8
Layer_1
 62
7
100
AcDbLine
 10
272.534177
 20
187.125521
 30
0.0
 11
288.179222
 21
144.141112
 31
0.0
  0
SPLINE
  5
15e
100
AcDbEntity
  8
Layer_1
 62
7
100
AcDbSpline
 70
0
 71
3
 72
25
 73
21
 74
19
 40
0.000000
 40
0.000000
 40
0.000000
 40
0.000000
 40
0.916030
 40
1.818951
 40
2.734983
 40
3.651013
 40
4.553934
 40
5.469965
 40
6.385995
 40
7.288916
 40
8.204947
 40
9.120978
 40
10.023899
 40
10.939930
 40
11.855960
 40
12.758881
 40
13.674912
 40
14.590942
 40
15.493864
 40
16.409895
 40
16.409895
 40
16.409895
 40
16.409895
 10
305.679221
 20
157.531905
 30
0.0
 10
305.372320
 20
157.500542
 30
0.0
 10
304.762911
 20
157.438264
 30
0.0
 10
303.957567
 20
156.955089
 30
0.0
 10
303.358814
 20
156.247640
 30
0.0
 10
303.041257
 20
155.371595
 30
0.0
 10
303.041257
 20
154.442015
 30
0.0
 10
303.358813
 20
153.567197
 30
0.0
 10
303.957567
 20
152.854849
 30
0.0
 10
304.762911
 20
152.389876
 30
0.0
 10
305.679221
 20
152.227532
 30
0.0
 10
306.595532
 20
152.389877
 30
0.0
 10
307.400877
 20
152.854849
 30
0.0
 10
307.999628
 20
153.567199
 30
0.0
 10
308.317187
 20
154.442015
 30
0.0
 10
308.317187
 20
155.371596
 30
0.0
 10
307.999628
 20
156.247639
 30
0.0
 10
307.400877
 20
156.955090
 30
0.0
 10
306.595532
 20
157.438264
 30
0.0
 10
305.986122
 20
157.500542
 30
0.0
 10
305.679221
 20
157.531905
 30
0.0
 11
305.679221
 21
157.531905
 31
0.0
 11
304.777236
 21
157.372112
 31
0.0
 11
303.995283
 21
156.920651
 31
0.0
 11
303.405904
 21
156.219406
 31
0.0
 11
303.093298
 21
155.358366
 31
0.0
 11
303.093298
 21
154.455445
 31
0.0
 11
303.405904
 21
153.594405
 31
0.0
 11
303.995283
 21
152.893160
 31
0.0
 11
304.777236
 21
152.441700
 31
0.0
 11
305.679221
 21
152.281906
 31
0.0
 11
306.581207
 21
152.441700
 31
0.0
 11
307.363160
 21
152.893161
 31
0.0
 11
307.952538
 21
153.594406
 31
0.0
 11
308.265146
 21
154.455446
 31
0.0
 11
308.265146
 21
155.358366
 31
0.0
 11
307.952538
 21
156.219406
 31
0.0
 11
307.363160
 21
156.920651
 31
0.0
 11
306.581207
 21
157.372112
 31
0.0
 11
305.679221
 21
157.531905
 31
0.0
  0
LINE
  5
15f
100
AcDbEntity
  8
Layer_1
 62
7
100
AcDbLine
 10
305.679221
 20
157.531905
 30
0.0
 11
305.679221
 21
157.531907
 31
0.0
  0
SPLINE
  5
160
100
AcDbEntity
  8
Layer_1
 62
7
100
AcDbSpline
 70
0
 71
3
 72
25
 73
21
 74
19
 40
0.000000
 40
0.000000
 40
0.000000
 40
0.000000
 40
0.916030
 40
1.818950
 40
2.734981
 40
3.651011
 40
4.553932
 40
5.469964
 40
6.385993
 40
7.288913
 40
8.204944
 40
9.120976
 40
10.023897
 40
10.939927
 40
11.855958
 40
12.758879
 40
13.674909
 40
14.590940
 40
15.493861
 40
16.409893
 40
16.409893
 40
16.409893
 40
16.409893
 10
294.579221
 20
274.266111
 30
0.0
 10
294.272320
 20
274.234748
 30
0.0
 10
293.662911
 20
274.172470
 30
0.0
 10
292.857567
 20
273.689296
 30
0.0
 10
292.258817
 20
272.981844
 30
0.0
 10
291.941257
 20
272.105802
 30
0.0
 10
291.941257
 20
271.176221
 30
0.0
 10
292.258816
 20
270.301405
 30
0.0
 10
292.857567
 20
269.589055
 30
0.0
 10
293.662911
 20
269.124083
 30
0.0
 10
294.579221
 20
268.961737
 30
0.0
 10
295.495532
 20
269.124082
 30
0.0
 10
296.300877
 20
269.589055
 30
0.0
 10
296.899628
 20
270.301405
 30
0.0
 10
297.217187
 20
271.176221
 30
0.0
 10
297.217187
 20
272.105802
 30
0.0
 10
296.899627
 20
272.981844
 30
0.0
 10
296.300877
 20
273.689296
 30
0.0
 10
295.495532
 20
274.172470
 30
0.0
 10
294.886122
 20
274.234748
 30
0.0
 10
294.579221
 20
274.266111
 30
0.0
 11
294.579221
 21
274.266111
 31
0.0
 11
293.677235
 21
274.106318
 31
0.0
 11
292.895284
 21
273.654857
 31
0.0
 11
292.305907
 21
272.953611
 31
0.0
 11
291.993298
 21
272.092573
 31
0.0
 11
291.993298
 21
271.189652
 31
0.0
 11
292.305907
 21
270.328611
 31
0.0
 11
292.895284
 21
269.627366
 31
0.0
 11
293.677235
 21
269.175906
 31
0.0
 11
294.579221
 21
269.016112
 31
0.0
 11
295.481208
 21
269.175906
 31
0.0
 11
296.263160
 21
269.627366
 31
0.0
 11
296.852538
 21
270.328611
 31
0.0
 11
297.165146
 21
271.189652
 31
0.0
 11
297.165146
 21
272.092573
 31
0.0
 11
296.852538
 21
272.953611
 31
0.0
 11
296.263160
 21
273.654857
 31
0.0
 11
295.481208
 21
274.106318
 31
0.0
 11
294.579221
 21
274.266111
 31
0.0
  0
LINE
  5
161
100
AcDbEntity
  8
Layer_1
 62
7
100
AcDbLine
 10
294.579221
 20
274.266111
 30
0.0
 11
294.579221
 21
274.266111
 31
0.0
  0
SPLINE
  5
162
100
AcDbEntity
  8
Layer_1
 62
7
100
AcDbSpline
 70
0
 71
3
 72
25
 73
21
 74
19
 40
0.000000
 40
0.000000
 40
0.000000
 40
0.000000
 40
0.916031
 40
1.818952
 40
2.734983
 40
3.651013
 40
4.553934
 40
5.469966
 40
6.385996
 40
7.288917
 40
8.204948
 40
9.120979
 40
10.023900
 40
10.939931
 40
11.855962
 40
12.758883
 40
13.674912
 40
14.590944
 40
15.493865
 40
16.409895
 40
16.409895
 40
16.409895
 40
16.409895
 10
89.079222
 20
274.266111
 30
0.0
 10
88.772321
 20
274.234748
 30
0.0
 10
88.162912
 20
274.172470
 30
0.0
 10
87.357567
 20
273.689296
 30
0.0
 10
86.758816
 20
272.981845
 30
0.0
 10
86.441256
 20
272.105802
 30
0.0
 10
86.441256
 20
271.176221
 30
0.0
 10
86.758815
 20
270.301404
 30
0.0
 10
87.357567
 20
269.589055
 30
0.0
 10
88.162912
 20
269.124083
 30
0.0
 10
89.079222
 20
268.961737
 30
0.0
 10
89.995533
 20
269.124083
 30
0.0
 10
90.800876
 20
269.589056
 30
0.0
 10
91.399630
 20
270.301403
 30
0.0
 10
91.717186
 20
271.176221
 30
0.0
 10
91.717187
 20
272.105802
 30
0.0
 10
91.399630
 20
272.981846
 30
0.0
 10
90.800877
 20
273.689295
 30
0.0
 10
89.995533
 20
274.172470
 30
0.0
 10
89.386123
 20
274.234748
 30
0.0
 10
89.079222
 20
274.266111
 30
0.0
 11
89.079222
 21
274.266111
 31
0.0
 11
88.177236
 21
274.106318
 31
0.0
 11
87.395283
 21
273.654857
 31
0.0
 11
86.805905
 21
272.953611
 31
0.0
 11
86.493297
 21
272.092573
 31
0.0
 11
86.493297
 21
271.189652
 31
0.0
 11
86.805905
 21
270.328611
 31
0.0
 11
87.395283
 21
269.627366
 31
0.0
 11
88.177236
 21
269.175906
 31
0.0
 11
89.079222
 21
269.016112
 31
0.0
 11
89.981208
 21
269.175906
 31
0.0
 11
90.763160
 21
269.627366
 31
0.0
 11
91.352539
 21
270.328611
 31
0.0
 11
91.665146
 21
271.189652
 31
0.0
 11
91.665146
 21
272.092573
 31
0.0
 11
91.352539
 21
272.953611
 31
0.0
 11
90.763160
 21
273.654857
 31
0.0
 11
89.981208
 21
274.106318
 31
0.0
 11
89.079222
 21
274.266111
 31
0.0
  0
LINE
  5
163
100
AcDbEntity
  8
Layer_1
 62
7
100
AcDbLine
 10
89.079222
 20
274.266111
 30
0.0
 11
89.079222
 21
274.266111
 31
0.0
  0
LINE
  5
164
100
AcDbEntity
  8
Layer_1
 62
7
100
AcDbLine
 10
191.829222
 20
274.266111
 30
0.0
 11
191.829222
 21
274.266111
 31
0.0
  0
LINE
  5
165
100
AcDbEntity
  8
Layer_1
 62
7
100
AcDbLine
 10
327.958628
 20
144.141112
 30
0.0
 11
288.179222
 21
144.141112
 31
0.0
  0
LINE
  5
166
100
AcDbEntity
  8
Layer_1
 62
7
100
AcDbLine
 10
294.579221
 20
52.431951
 30
0.0
 11
327.958628
 21
144.141112
 31
0.0
  0
LINE
  5
167
100
AcDbEntity
  8
Layer_1
 62
7
100
AcDbLine
 10
294.579221
 20
46.641113
 30
0.0
 11
294.579221
 21
52.431951
 31
0.0
  0
LINE
  5
168
100
AcDbEntity
  8
Layer_1
 62
7
100
AcDbLine
 10
314.579223
 20
26.641113
 30
0.0
 11
294.579221
 21
46.641113
 31
0.0
  0
LINE
  5
169
100
AcDbEntity
  8
Layer_1
 62
7
100
AcDbLine
 10
314.579223
 20
0.141112
 30
0.0
 11
314.579223
 21
26.641113
 31
0.0
  0
SPLINE
  5
16a
100
AcDbEntity
  8
Layer_1
 62
7
100
AcDbSpline
 70
0
 71
3
 72
25
 73
21
 74
19
 40
0.000000
 40
0.000000
 40
0.000000
 40
0.000000
 40
0.916030
 40
1.818951
 40
2.734983
 40
3.651013
 40
4.553934
 40
5.469966
 40
6.385996
 40
7.288917
 40
8.204948
 40
9.120979
 40
10.023900
 40
10.939930
 40
11.855962
 40
12.758883
 40
13.674913
 40
14.590944
 40
15.493865
 40
16.409896
 40
16.409896
 40
16.409896
 40
16.409896
 10
191.829222
 20
274.266111
 30
0.0
 10
191.522321
 20
274.234748
 30
0.0
 10
190.912911
 20
274.172470
 30
0.0
 10
190.107567
 20
273.689295
 30
0.0
 10
189.508815
 20
272.981845
 30
0.0
 10
189.191255
 20
272.105802
 30
0.0
 10
189.191255
 20
271.176221
 30
0.0
 10
189.508814
 20
270.301404
 30
0.0
 10
190.107568
 20
269.589056
 30
0.0
 10
190.912911
 20
269.124083
 30
0.0
 10
191.829222
 20
268.961737
 30
0.0
 10
192.745532
 20
269.124083
 30
0.0
 10
193.550877
 20
269.589055
 30
0.0
 10
194.149629
 20
270.301404
 30
0.0
 10
194.467188
 20
271.176221
 30
0.0
 10
194.467188
 20
272.105802
 30
0.0
 10
194.149628
 20
272.981845
 30
0.0
 10
193.550877
 20
273.689296
 30
0.0
 10
192.745532
 20
274.172470
 30
0.0
 10
192.136122
 20
274.234748
 30
0.0
 10
191.829222
 20
274.266111
 30
0.0
 11
191.829222
 21
274.266111
 31
0.0
 11
190.927236
 21
274.106318
 31
0.0
 11
190.145284
 21
273.654857
 31
0.0
 11
189.555905
 21
272.953611
 31
0.0
 11
189.243296
 21
272.092573
 31
0.0
 11
189.243296
 21
271.189652
 31
0.0
 11
189.555905
 21
270.328611
 31
0.0
 11
190.145284
 21
269.627366
 31
0.0
 11
190.927236
 21
269.175906
 31
0.0
 11
191.829222
 21
269.016112
 31
0.0
 11
192.731207
 21
269.175906
 31
0.0
 11
193.513161
 21
269.627366
 31
0.0
 11
194.102538
 21
270.328611
 31
0.0
 11
194.415147
 21
271.189652
 31
0.0
 11
194.415147
 21
272.092573
 31
0.0
 11
194.102538
 21
272.953611
 31
0.0
 11
193.513161
 21
273.654857
 31
0.0
 11
192.731207
 21
274.106318
 31
0.0
 11
191.829222
 21
274.266111
 31
0.0
  0
LINE
  5
16b
100
AcDbEntity
  8
Layer_1
 62
7
100
AcDbLine
 10
314.579223
 20
0.141112
 30
0.0
 11
69.079222
 21
0.141112
 31
0.0
  0
LINE
  5
16c
100
AcDbEntity
  8
Layer_1
 62
7
100
AcDbLine
 10
69.079222
 20
0.141112
 30
0.0
 11
69.079222
 21
46.641113
 31
0.0
  0
LINE
  5
16d
100
AcDbEntity
  8
Layer_1
 62
7
100
AcDbLine
 10
69.079222
 20
46.641113
 30
0.0
 11
272.534177
 21
101.156703
 31
0.0
  0
LINE
  5
16e
100
AcDbEntity
  8
Layer_1
 62
7
100
AcDbLine
 10
272.534177
 20
101.156703
 30
0.0
 11
288.179222
 21
144.141112
 31
0.0
  0
SPLINE
  5
16f
100
AcDbEntity
  8
Layer_1
 62
7
100
AcDbSpline
 70
0
 71
3
 72
25
 73
21
 74
19
 40
0.000000
 40
0.000000
 40
0.000000
 40
0.000000
 40
0.916030
 40
1.818951
 40
2.734983
 40
3.651013
 40
4.553934
 40
5.469965
 40
6.385995
 40
7.288916
 40
8.204947
 40
9.120978
 40
10.023899
 40
10.939930
 40
11.855960
 40
12.758881
 40
13.674912
 40
14.590942
 40
15.493864
 40
16.409895
 40
16.409895
 40
16.409895
 40
16.409895
 10
305.679221
 20
130.750319
 30
0.0
 10
305.372320
 20
130.781683
 30
0.0
 10
304.762911
 20
130.843961
 30
0.0
 10
303.957567
 20
131.327136
 30
0.0
 10
303.358814
 20
132.034585
 30
0.0
 10
303.041257
 20
132.910629
 30
0.0
 10
303.041257
 20
133.840210
 30
0.0
 10
303.358813
 20
134.715027
 30
0.0
 10
303.957567
 20
135.427375
 30
0.0
 10
304.762911
 20
135.892348
 30
0.0
 10
305.679221
 20
136.054693
 30
0.0
 10
306.595532
 20
135.892348
 30
0.0
 10
307.400877
 20
135.427375
 30
0.0
 10
307.999628
 20
134.715026
 30
0.0
 10
308.317187
 20
133.840210
 30
0.0
 10
308.317187
 20
132.910629
 30
0.0
 10
307.999628
 20
132.034586
 30
0.0
 10
307.400877
 20
131.327135
 30
0.0
 10
306.595532
 20
130.843961
 30
0.0
 10
305.986122
 20
130.781683
 30
0.0
 10
305.679221
 20
130.750319
 30
0.0
 11
305.679221
 21
130.750319
 31
0.0
 11
304.777236
 21
130.910113
 31
0.0
 11
303.995283
 21
131.361573
 31
0.0
 11
303.405904
 21
132.062819
 31
0.0
 11
303.093298
 21
132.923858
 31
0.0
 11
303.093298
 21
133.826779
 31
0.0
 11
303.405904
 21
134.687819
 31
0.0
 11
303.995283
 21
135.389065
 31
0.0
 11
304.777236
 21
135.840525
 31
0.0
 11
305.679221
 21
136.000318
 31
0.0
 11
306.581207
 21
135.840525
 31
0.0
 11
307.363160
 21
135.389064
 31
0.0
 11
307.952538
 21
134.687818
 31
0.0
 11
308.265146
 21
133.826779
 31
0.0
 11
308.265146
 21
132.923858
 31
0.0
 11
307.952538
 21
132.062819
 31
0.0
 11
307.363160
 21
131.361573
 31
0.0
 11
306.581207
 21
130.910113
 31
0.0
 11
305.679221
 21
130.750319
 31
0.0
  0
LINE
  5
170
100
AcDbEntity
  8
Layer_1
 62
7
100
AcDbLine
 10
305.679221
 20
130.750319
 30
0.0
 11
305.679221
 21
130.750318
 31
0.0
  0
SPLINE
  5
171
100
AcDbEntity
  8
Layer_1
 62
7
100
AcDbSpline
 70
0
 71
3
 72
25
 73
21
 74
19
 40
0.000000
 40
0.000000
 40
0.000000
 40
0.000000
 40
0.916030
 40
1.818950
 40
2.734981
 40
3.651011
 40
4.553932
 40
5.469964
 40
6.385993
 40
7.288913
 40
8.204944
 40
9.120976
 40
10.023897
 40
10.939927
 40
11.855958
 40
12.758879
 40
13.674909
 40
14.590940
 40
15.493861
 40
16.409893
 40
16.409893
 40
16.409893
 40
16.409893
 10
294.579221
 20
14.016114
 30
0.0
 10
294.272320
 20
14.047477
 30
0.0
 10
293.662911
 20
14.109755
 30
0.0
 10
292.857567
 20
14.592929
 30
0.0
 10
292.258817
 20
15.300380
 30
0.0
 10
291.941257
 20
16.176422
 30
0.0
 10
291.941257
 20
17.106004
 30
0.0
 10
292.258816
 20
17.980820
 30
0.0
 10
292.857567
 20
18.693169
 30
0.0
 10
293.662911
 20
19.158142
 30
0.0
 10
294.579221
 20
19.320488
 30
0.0
 10
295.495532
 20
19.158142
 30
0.0
 10
296.300877
 20
18.693170
 30
0.0
 10
296.899628
 20
17.980820
 30
0.0
 10
297.217187
 20
17.106004
 30
0.0
 10
297.217187
 20
16.176422
 30
0.0
 10
296.899627
 20
15.300380
 30
0.0
 10
296.300877
 20
14.592929
 30
0.0
 10
295.495532
 20
14.109754
 30
0.0
 10
294.886122
 20
14.047477
 30
0.0
 10
294.579221
 20
14.016114
 30
0.0
 11
294.579221
 21
14.016114
 31
0.0
 11
293.677235
 21
14.175907
 31
0.0
 11
292.895284
 21
14.627367
 31
0.0
 11
292.305907
 21
15.328613
 31
0.0
 11
291.993298
 21
16.189652
 31
0.0
 11
291.993298
 21
17.092573
 31
0.0
 11
292.305907
 21
17.953613
 31
0.0
 11
292.895284
 21
18.654858
 31
0.0
 11
293.677235
 21
19.106319
 31
0.0
 11
294.579221
 21
19.266113
 31
0.0
 11
295.481208
 21
19.106319
 31
0.0
 11
296.263160
 21
18.654858
 31
0.0
 11
296.852538
 21
17.953613
 31
0.0
 11
297.165146
 21
17.092573
 31
0.0
 11
297.165146
 21
16.189652
 31
0.0
 11
296.852538
 21
15.328613
 31
0.0
 11
296.263160
 21
14.627367
 31
0.0
 11
295.481208
 21
14.175907
 31
0.0
 11
294.579221
 21
14.016114
 31
0.0
  0
LINE
  5
172
100
AcDbEntity
  8
Layer_1
 62
7
100
AcDbLine
 10
294.579221
 20
14.016114
 30
0.0
 11
294.579221
 21
14.016114
 31
0.0
  0
SPLINE
  5
173
100
AcDbEntity
  8
Layer_1
 62
7
100
AcDbSpline
 70
0
 71
3
 72
25
 73
21
 74
19
 40
0.000000
 40
0.000000
 40
0.000000
 40
0.000000
 40
0.916031
 40
1.818952
 40
2.734983
 40
3.651013
 40
4.553934
 40
5.469966
 40
6.385996
 40
7.288917
 40
8.204948
 40
9.120979
 40
10.023900
 40
10.939931
 40
11.855962
 40
12.758883
 40
13.674912
 40
14.590944
 40
15.493865
 40
16.409895
 40
16.409895
 40
16.409895
 40
16.409895
 10
89.079222
 20
14.016114
 30
0.0
 10
88.772321
 20
14.047477
 30
0.0
 10
88.162912
 20
14.109755
 30
0.0
 10
87.357567
 20
14.592929
 30
0.0
 10
86.758816
 20
15.300380
 30
0.0
 10
86.441256
 20
16.176422
 30
0.0
 10
86.441256
 20
17.106004
 30
0.0
 10
86.758815
 20
17.980820
 30
0.0
 10
87.357567
 20
18.693170
 30
0.0
 10
88.162912
 20
19.158142
 30
0.0
 10
89.079222
 20
19.320488
 30
0.0
 10
89.995533
 20
19.158142
 30
0.0
 10
90.800876
 20
18.693169
 30
0.0
 10
91.399630
 20
17.980821
 30
0.0
 10
91.717186
 20
17.106003
 30
0.0
 10
91.717187
 20
16.176423
 30
0.0
 10
91.399630
 20
15.300379
 30
0.0
 10
90.800877
 20
14.592929
 30
0.0
 10
89.995533
 20
14.109755
 30
0.0
 10
89.386123
 20
14.047477
 30
0.0
 10
89.079222
 20
14.016114
 30
0.0
 11
89.079222
 21
14.016114
 31
0.0
 11
88.177236
 21
14.175907
 31
0.0
 11
87.395283
 21
14.627367
 31
0.0
 11
86.805905
 21
15.328613
 31
0.0
 11
86.493297
 21
16.189652
 31
0.0
 11
86.493297
 21
17.092573
 31
0.0
 11
86.805905
 21
17.953613
 31
0.0
 11
87.395283
 21
18.654858
 31
0.0
 11
88.177236
 21
19.106319
 31
0.0
 11
89.079222
 21
19.266113
 31
0.0
 11
89.981208
 21
19.106319
 31
0.0
 11
90.763160
 21
18.654858
 31
0.0
 11
91.352539
 21
17.953613
 31
0.0
 11
91.665146
 21
17.092573
 31
0.0
 11
91.665146
 21
16.189652
 31
0.0
 11
91.352539
 21
15.328613
 31
0.0
 11
90.763160
 21
14.627367
 31
0.0
 11
89.981208
 21
14.175907
 31
0.0
 11
89.079222
 21
14.016114
 31
0.0
  0
LINE
  5
174
100
AcDbEntity
  8
Layer_1
 62
7
100
AcDbLine
 10
89.079222
 20
14.016114
 30
0.0
 11
89.079222
 21
14.016114
 31
0.0
  0
LINE
  5
175
100
AcDbEntity
  8
Layer_1
 62
7
100
AcDbLine
 10
191.829222
 20
14.016114
 30
0.0
 11
191.829222
 21
14.016114
 31
0.0
  0
LINE
  5
176
100
AcDbEntity
  8
Layer_1
 62
7
100
AcDbLine
 10
0.132605
 20
0.141118
 30
0.0
 11
39.912011
 21
0.141118
 31
0.0
  0
LINE
  5
177
100
AcDbEntity
  8
Layer_1
 62
7
100
AcDbLine
 10
33.512012
 20
91.850279
 30
0.0
 11
0.132605
 21
0.141118
 31
0.0
  0
LINE
  5
178
100
AcDbEntity
  8
Layer_1
 62
7
100
AcDbLine
 10
33.512012
 20
97.641118
 30
0.0
 11
33.512012
 21
91.850279
 31
0.0
  0
LINE
  5
179
100
AcDbEntity
  8
Layer_1
 62
7
100
AcDbLine
 10
13.512010
 20
117.641117
 30
0.0
 11
33.512012
 21
97.641118
 31
0.0
  0
LINE
  5
17a
100
AcDbEntity
  8
Layer_1
 62
7
100
AcDbLine
 10
13.512010
 20
144.141118
 30
0.0
 11
13.512010
 21
117.641117
 31
0.0
  0
SPLINE
  5
17b
100
AcDbEntity
  8
Layer_1
 62
7
100
AcDbSpline
 70
0
 71
3
 72
25
 73
21
 74
19
 40
0.000000
 40
0.000000
 40
0.000000
 40
0.000000
 40
0.916030
 40
1.818951
 40
2.734983
 40
3.651013
 40
4.553934
 40
5.469966
 40
6.385996
 40
7.288917
 40
8.204948
 40
9.120979
 40
10.023900
 40
10.939930
 40
11.855962
 40
12.758883
 40
13.674913
 40
14.590944
 40
15.493865
 40
16.409896
 40
16.409896
 40
16.409896
 40
16.409896
 10
191.829222
 20
14.016114
 30
0.0
 10
191.522321
 20
14.047477
 30
0.0
 10
190.912911
 20
14.109755
 30
0.0
 10
190.107567
 20
14.592929
 30
0.0
 10
189.508815
 20
15.300379
 30
0.0
 10
189.191255
 20
16.176423
 30
0.0
 10
189.191255
 20
17.106004
 30
0.0
 10
189.508814
 20
17.980821
 30
0.0
 10
190.107568
 20
18.693169
 30
0.0
 10
190.912911
 20
19.158142
 30
0.0
 10
191.829222
 20
19.320488
 30
0.0
 10
192.745532
 20
19.158142
 30
0.0
 10
193.550877
 20
18.693170
 30
0.0
 10
194.149629
 20
17.980820
 30
0.0
 10
194.467188
 20
17.106004
 30
0.0
 10
194.467188
 20
16.176422
 30
0.0
 10
194.149628
 20
15.300380
 30
0.0
 10
193.550877
 20
14.592929
 30
0.0
 10
192.745532
 20
14.109755
 30
0.0
 10
192.136122
 20
14.047477
 30
0.0
 10
191.829222
 20
14.016114
 30
0.0
 11
191.829222
 21
14.016114
 31
0.0
 11
190.927236
 21
14.175907
 31
0.0
 11
190.145284
 21
14.627367
 31
0.0
 11
189.555905
 21
15.328613
 31
0.0
 11
189.243296
 21
16.189652
 31
0.0
 11
189.243296
 21
17.092573
 31
0.0
 11
189.555905
 21
17.953613
 31
0.0
 11
190.145284
 21
18.654858
 31
0.0
 11
190.927236
 21
19.106319
 31
0.0
 11
191.829222
 21
19.266113
 31
0.0
 11
192.731207
 21
19.106319
 31
0.0
 11
193.513161
 21
18.654858
 31
0.0
 11
194.102538
 21
17.953613
 31
0.0
 11
194.415147
 21
17.092573
 31
0.0
 11
194.415147
 21
16.189652
 31
0.0
 11
194.102538
 21
15.328613
 31
0.0
 11
193.513161
 21
14.627367
 31
0.0
 11
192.731207
 21
14.175907
 31
0.0
 11
191.829222
 21
14.016114
 31
0.0
  0
LINE
  5
17c
100
AcDbEntity
  8
Layer_1
 62
7
100
AcDbLine
 10
13.512010
 20
144.141118
 30
0.0
 11
259.012011
 21
144.141118
 31
0.0
  0
LINE
  5
17d
100
AcDbEntity
  8
Layer_1
 62
7
100
AcDbLine
 10
259.012011
 20
144.141118
 30
0.0
 11
259.012011
 21
97.641118
 31
0.0
  0
LINE
  5
17e
100
AcDbEntity
  8
Layer_1
 62
7
100
AcDbLine
 10
259.012011
 20
97.641118
 30
0.0
 11
55.557056
 21
43.125527
 31
0.0
  0
LINE
  5
17f
100
AcDbEntity
  8
Layer_1
 62
7
100
AcDbLine
 10
55.557056
 20
43.125527
 30
0.0
 11
39.912011
 21
0.141118
 31
0.0
  0
SPLINE
  5
180
100
AcDbEntity
  8
Layer_1
 62
7
100
AcDbSpline
 70
0
 71
3
 72
25
 73
21
 74
19
 40
0.000000
 40
0.000000
 40
0.000000
 40
0.000000
 40
0.916030
 40
1.818951
 40
2.734983
 40
3.651013
 40
4.553934
 40
5.469965
 40
6.385995
 40
7.288916
 40
8.204947
 40
9.120978
 40
10.023899
 40
10.939930
 40
11.855960
 40
12.758881
 40
13.674912
 40
14.590942
 40
15.493864
 40
16.409895
 40
16.409895
 40
16.409895
 40
16.409895
 10
22.412012
 20
13.531911
 30
0.0
 10
22.718913
 20
13.500548
 30
0.0
 10
23.328322
 20
13.438270
 30
0.0
 10
24.133666
 20
12.955095
 30
0.0
 10
24.732419
 20
12.247646
 30
0.0
 10
25.049976
 20
11.371601
 30
0.0
 10
25.049976
 20
10.442021
 30
0.0
 10
24.732420
 20
9.567203
 30
0.0
 10
24.133666
 20
8.854855
 30
0.0
 10
23.328322
 20
8.389882
 30
0.0
 10
22.412011
 20
8.227538
 30
0.0
 10
21.495701
 20
8.389883
 30
0.0
 10
20.690356
 20
8.854855
 30
0.0
 10
20.091605
 20
9.567205
 30
0.0
 10
19.774045
 20
10.442021
 30
0.0
 10
19.774045
 20
11.371602
 30
0.0
 10
20.091605
 20
12.247645
 30
0.0
 10
20.690356
 20
12.955095
 30
0.0
 10
21.495701
 20
13.438270
 30
0.0
 10
22.105111
 20
13.500548
 30
0.0
 10
22.412012
 20
13.531911
 30
0.0
 11
22.412012
 21
13.531911
 31
0.0
 11
23.313997
 21
13.372117
 31
0.0
 11
24.095950
 21
12.920657
 31
0.0
 11
24.685329
 21
12.219411
 31
0.0
 11
24.997935
 21
11.358372
 31
0.0
 11
24.997935
 21
10.455451
 31
0.0
 11
24.685329
 21
9.594411
 31
0.0
 11
24.095950
 21
8.893166
 31
0.0
 11
23.313997
 21
8.441705
 31
0.0
 11
22.412012
 21
8.281912
 31
0.0
 11
21.510026
 21
8.441706
 31
0.0
 11
20.728073
 21
8.893166
 31
0.0
 11
20.138695
 21
9.594412
 31
0.0
 11
19.826087
 21
10.455451
 31
0.0
 11
19.826087
 21
11.358372
 31
0.0
 11
20.138695
 21
12.219411
 31
0.0
 11
20.728073
 21
12.920657
 31
0.0
 11
21.510026
 21
13.372117
 31
0.0
 11
22.412012
 21
13.531911
 31
0.0
  0
LINE
  5
181
100
AcDbEntity
  8
Layer_1
 62
7
100
AcDbLine
 10
22.412012
 20
13.531911
 30
0.0
 11
22.412012
 21
13.531912
 31
0.0
  0
SPLINE
  5
182
100
AcDbEntity
  8
Layer_1
 62
7
100
AcDbSpline
 70
0
 71
3
 72
25
 73
21
 74
19
 40
0.000000
 40
0.000000
 40
0.000000
 40
0.000000
 40
0.916030
 40
1.818950
 40
2.734981
 40
3.651011
 40
4.553932
 40
5.469964
 40
6.385993
 40
7.288913
 40
8.204944
 40
9.120976
 40
10.023897
 40
10.939927
 40
11.855958
 40
12.758879
 40
13.674909
 40
14.590940
 40
15.493861
 40
16.409893
 40
16.409893
 40
16.409893
 40
16.409893
 10
33.512012
 20
130.266117
 30
0.0
 10
33.818913
 20
130.234753
 30
0.0
 10
34.428322
 20
130.172476
 30
0.0
 10
35.233666
 20
129.689301
 30
0.0
 10
35.832416
 20
128.981850
 30
0.0
 10
36.149976
 20
128.105808
 30
0.0
 10
36.149976
 20
127.176227
 30
0.0
 10
35.832417
 20
126.301410
 30
0.0
 10
35.233665
 20
125.589061
 30
0.0
 10
34.428322
 20
125.124088
 30
0.0
 10
33.512011
 20
124.961743
 30
0.0
 10
32.595701
 20
125.124088
 30
0.0
 10
31.790356
 20
125.589061
 30
0.0
 10
31.191605
 20
126.301410
 30
0.0
 10
30.874046
 20
127.176226
 30
0.0
 10
30.874045
 20
128.105808
 30
0.0
 10
31.191606
 20
128.981850
 30
0.0
 10
31.790356
 20
129.689302
 30
0.0
 10
32.595701
 20
130.172476
 30
0.0
 10
33.205111
 20
130.234754
 30
0.0
 10
33.512012
 20
130.266117
 30
0.0
 11
33.512012
 21
130.266117
 31
0.0
 11
34.413997
 21
130.106323
 31
0.0
 11
35.195949
 21
129.654863
 31
0.0
 11
35.785326
 21
128.953617
 31
0.0
 11
36.097934
 21
128.092578
 31
0.0
 11
36.097934
 21
127.189658
 31
0.0
 11
35.785326
 21
126.328617
 31
0.0
 11
35.195949
 21
125.627372
 31
0.0
 11
34.413997
 21
125.175912
 31
0.0
 11
33.512012
 21
125.016117
 31
0.0
 11
32.610025
 21
125.175912
 31
0.0
 11
31.828072
 21
125.627372
 31
0.0
 11
31.238695
 21
126.328617
 31
0.0
 11
30.926087
 21
127.189658
 31
0.0
 11
30.926087
 21
128.092578
 31
0.0
 11
31.238695
 21
128.953617
 31
0.0
 11
31.828072
 21
129.654863
 31
0.0
 11
32.610025
 21
130.106323
 31
0.0
 11
33.512012
 21
130.266117
 31
0.0
  0
LINE
  5
183
100
AcDbEntity
  8
Layer_1
 62
7
100
AcDbLine
 10
33.512012
 20
130.266117
 30
0.0
 11
33.512012
 21
130.266117
 31
0.0
  0
SPLINE
  5
184
100
AcDbEntity
  8
Layer_1
 62
7
100
AcDbSpline
 70
0
 71
3
 72
25
 73
21
 74
19
 40
0.000000
 40
0.000000
 40
0.000000
 40
0.000000
 40
0.916031
 40
1.818952
 40
2.734983
 40
3.651013
 40
4.553934
 40
5.469966
 40
6.385996
 40
7.288917
 40
8.204948
 40
9.120979
 40
10.023900
 40
10.939931
 40
11.855962
 40
12.758883
 40
13.674912
 40
14.590944
 40
15.493865
 40
16.409895
 40
16.409895
 40
16.409895
 40
16.409895
 10
239.012010
 20
130.266117
 30
0.0
 10
239.318911
 20
130.234753
 30
0.0
 10
239.928321
 20
130.172476
 30
0.0
 10
240.733666
 20
129.689302
 30
0.0
 10
241.332417
 20
128.981850
 30
0.0
 10
241.649977
 20
128.105808
 30
0.0
 10
241.649977
 20
127.176227
 30
0.0
 10
241.332418
 20
126.301410
 30
0.0
 10
240.733666
 20
125.589061
 30
0.0
 10
239.928321
 20
125.124089
 30
0.0
 10
239.012011
 20
124.961743
 30
0.0
 10
238.095700
 20
125.124088
 30
0.0
 10
237.290357
 20
125.589061
 30
0.0
 10
236.691602
 20
126.301409
 30
0.0
 10
236.374046
 20
127.176227
 30
0.0
 10
236.374046
 20
128.105807
 30
0.0
 10
236.691603
 20
128.981851
 30
0.0
 10
237.290356
 20
129.689301
 30
0.0
 10
238.095700
 20
130.172476
 30
0.0
 10
238.705110
 20
130.234753
 30
0.0
 10
239.012010
 20
130.266117
 30
0.0
 11
239.012010
 21
130.266117
 31
0.0
 11
239.913996
 21
130.106323
 31
0.0
 11
240.695949
 21
129.654863
 31
0.0
 11
241.285327
 21
128.953617
 31
0.0
 11
241.597935
 21
128.092578
 31
0.0
 11
241.597935
 21
127.189658
 31
0.0
 11
241.285327
 21
126.328617
 31
0.0
 11
240.695949
 21
125.627372
 31
0.0
 11
239.913996
 21
125.175912
 31
0.0
 11
239.012010
 21
125.016117
 31
0.0
 11
238.110025
 21
125.175912
 31
0.0
 11
237.328072
 21
125.627372
 31
0.0
 11
236.738693
 21
126.328617
 31
0.0
 11
236.426087
 21
127.189658
 31
0.0
 11
236.426087
 21
128.092578
 31
0.0
 11
236.738693
 21
128.953617
 31
0.0
 11
237.328072
 21
129.654863
 31
0.0
 11
238.110025
 21
130.106323
 31
0.0
 11
239.012010
 21
130.266117
 31
0.0
  0
LINE
  5
185
100
AcDbEntity
  8
Layer_1
 62
7
100
AcDbLine
 10
239.012010
 20
130.266117
 30
0.0
 11
239.012010
 21
130.266117
 31
0.0
  0
LINE
  5
186
100
AcDbEntity
  8
Layer_1
 62
7
100
AcDbLine
 10
136.262011
 20
130.266117
 30
0.0
 11
136.262011
 21
130.266117
 31
0.0
  0
LINE
  5
187
100
AcDbEntity
  8
Layer_1
 62
7
100
AcDbLine
 10
314.579212
 20
576.141123
 30
0.0
 11
354.358617
 21
576.141123
 31
0.0
  0
LINE
  5
188
100
AcDbEntity
  8
Layer_1
 62
7
100
AcDbLine
 10
347.958619
 20
484.431962
 30
0.0
 11
314.579212
 21
576.141123
 31
0.0
  0
LINE
  5
189
100
AcDbEntity
  8
Layer_1
 62
7
100
AcDbLine
 10
347.958619
 20
478.641123
 30
0.0
 11
347.958619
 21
484.431962
 31
0.0
  0
LINE
  5
18a
100
AcDbEntity
  8
Layer_1
 62
7
100
AcDbLine
 10
327.958617
 20
458.641124
 30
0.0
 11
347.958619
 21
478.641123
 31
0.0
  0
LINE
  5
18b
100
AcDbEntity
  8
Layer_1
 62
7
100
AcDbLine
 10
327.958617
 20
432.141123
 30
0.0
 11
327.958617
 21
458.641124
 31
0.0
  0
SPLINE
  5
18c
100
AcDbEntity
  8
Layer_1
 62
7
100
AcDbSpline
 70
0
 71
3
 72
25
 73
21
 74
19
 40
0.000000
 40
0.000000
 40
0.000000
 40
0.000000
 40
0.916030
 40
1.818951
 40
2.734983
 40
3.651013
 40
4.553934
 40
5.469966
 40
6.385996
 40
7.288917
 40
8.204948
 40
9.120979
 40
10.023900
 40
10.939930
 40
11.855962
 40
12.758883
 40
13.674913
 40
14.590944
 40
15.493865
 40
16.409896
 40
16.409896
 40
16.409896
 40
16.409896
 10
136.262011
 20
130.266117
 30
0.0
 10
136.568912
 20
130.234753
 30
0.0
 10
137.178321
 20
130.172476
 30
0.0
 10
137.983666
 20
129.689301
 30
0.0
 10
138.582418
 20
128.981851
 30
0.0
 10
138.899978
 20
128.105808
 30
0.0
 10
138.899977
 20
127.176227
 30
0.0
 10
138.582419
 20
126.301410
 30
0.0
 10
137.983665
 20
125.589061
 30
0.0
 10
137.178322
 20
125.124088
 30
0.0
 10
136.262011
 20
124.961743
 30
0.0
 10
135.345700
 20
125.124089
 30
0.0
 10
134.540356
 20
125.589061
 30
0.0
 10
133.941604
 20
126.301410
 30
0.0
 10
133.624045
 20
127.176227
 30
0.0
 10
133.624045
 20
128.105808
 30
0.0
 10
133.941605
 20
128.981850
 30
0.0
 10
134.540355
 20
129.689302
 30
0.0
 10
135.345701
 20
130.172476
 30
0.0
 10
135.955110
 20
130.234753
 30
0.0
 10
136.262011
 20
130.266117
 30
0.0
 11
136.262011
 21
130.266117
 31
0.0
 11
137.163997
 21
130.106323
 31
0.0
 11
137.945949
 21
129.654863
 31
0.0
 11
138.535328
 21
128.953617
 31
0.0
 11
138.847936
 21
128.092578
 31
0.0
 11
138.847936
 21
127.189658
 31
0.0
 11
138.535328
 21
126.328617
 31
0.0
 11
137.945949
 21
125.627372
 31
0.0
 11
137.163997
 21
125.175912
 31
0.0
 11
136.262011
 21
125.016117
 31
0.0
 11
135.360025
 21
125.175912
 31
0.0
 11
134.578072
 21
125.627372
 31
0.0
 11
133.988694
 21
126.328617
 31
0.0
 11
133.676086
 21
127.189658
 31
0.0
 11
133.676086
 21
128.092578
 31
0.0
 11
133.988694
 21
128.953617
 31
0.0
 11
134.578072
 21
129.654863
 31
0.0
 11
135.360025
 21
130.106323
 31
0.0
 11
136.262011
 21
130.266117
 31
0.0
  0
LINE
  5
18d
100
AcDbEntity
  8
Layer_1
 62
7
100
AcDbLine
 10
327.958617
 20
432.141123
 30
0.0
 11
573.458618
 21
432.141123
 31
0.0
  0
LINE
  5
18e
100
AcDbEntity
  8
Layer_1
 62
7
100
AcDbLine
 10
573.458618
 20
432.141123
 30
0.0
 11
573.458618
 21
478.641123
 31
0.0
  0
LINE
  5
18f
100
AcDbEntity
  8
Layer_1
 62
7
100
AcDbLine
 10
573.458618
 20
478.641123
 30
0.0
 11
370.003663
 21
533.156714
 31
0.0
  0
LINE
  5
190
100
AcDbEntity
  8
Layer_1
 62
7
100
AcDbLine
 10
370.003663
 20
533.156714
 30
0.0
 11
354.358617
 21
576.141123
 31
0.0
  0
SPLINE
  5
191
100
AcDbEntity
  8
Layer_1
 62
7
100
AcDbSpline
 70
0
 71
3
 72
25
 73
21
 74
19
 40
0.000000
 40
0.000000
 40
0.000000
 40
0.000000
 40
0.916030
 40
1.818951
 40
2.734983
 40
3.651013
 40
4.553934
 40
5.469965
 40
6.385995
 40
7.288916
 40
8.204947
 40
9.120978
 40
10.023899
 40
10.939930
 40
11.855960
 40
12.758881
 40
13.674912
 40
14.590942
 40
15.493864
 40
16.409895
 40
16.409895
 40
16.409895
 40
16.409895
 10
336.858618
 20
562.750330
 30
0.0
 10
337.165519
 20
562.781693
 30
0.0
 10
337.774929
 20
562.843971
 30
0.0
 10
338.580273
 20
563.327147
 30
0.0
 10
339.179026
 20
564.034596
 30
0.0
 10
339.496583
 20
564.910640
 30
0.0
 10
339.496582
 20
565.840221
 30
0.0
 10
339.179026
 20
566.715038
 30
0.0
 10
338.580272
 20
567.427386
 30
0.0
 10
337.774929
 20
567.892359
 30
0.0
 10
336.858618
 20
568.054704
 30
0.0
 10
335.942308
 20
567.892358
 30
0.0
 10
335.136963
 20
567.427386
 30
0.0
 10
334.538212
 20
566.715037
 30
0.0
 10
334.220652
 20
565.840221
 30
0.0
 10
334.220652
 20
564.910639
 30
0.0
 10
334.538212
 20
564.034597
 30
0.0
 10
335.136963
 20
563.327146
 30
0.0
 10
335.942308
 20
562.843971
 30
0.0
 10
336.551718
 20
562.781694
 30
0.0
 10
336.858618
 20
562.750330
 30
0.0
 11
336.858618
 21
562.750330
 31
0.0
 11
337.760604
 21
562.910124
 31
0.0
 11
338.542556
 21
563.361584
 31
0.0
 11
339.131935
 21
564.062830
 31
0.0
 11
339.444542
 21
564.923869
 31
0.0
 11
339.444542
 21
565.826790
 31
0.0
 11
339.131935
 21
566.687830
 31
0.0
 11
338.542556
 21
567.389075
 31
0.0
 11
337.760604
 21
567.840536
 31
0.0
 11
336.858618
 21
568.000329
 31
0.0
 11
335.956632
 21
567.840535
 31
0.0
 11
335.174679
 21
567.389075
 31
0.0
 11
334.585302
 21
566.687829
 31
0.0
 11
334.272693
 21
565.826790
 31
0.0
 11
334.272693
 21
564.923869
 31
0.0
 11
334.585302
 21
564.062830
 31
0.0
 11
335.174679
 21
563.361584
 31
0.0
 11
335.956632
 21
562.910124
 31
0.0
 11
336.858618
 21
562.750330
 31
0.0
  0
LINE
  5
192
100
AcDbEntity
  8
Layer_1
 62
7
100
AcDbLine
 10
336.858618
 20
562.750330
 30
0.0
 11
336.858618
 21
562.750329
 31
0.0
  0
SPLINE
  5
193
100
AcDbEntity
  8
Layer_1
 62
7
100
AcDbSpline
 70
0
 71
3
 72
25
 73
21
 74
19
 40
0.000000
 40
0.000000
 40
0.000000
 40
0.000000
 40
0.916030
 40
1.818950
 40
2.734981
 40
3.651011
 40
4.553932
 40
5.469964
 40
6.385993
 40
7.288913
 40
8.204944
 40
9.120976
 40
10.023897
 40
10.939927
 40
11.855958
 40
12.758879
 40
13.674909
 40
14.590940
 40
15.493861
 40
16.409893
 40
16.409893
 40
16.409893
 40
16.409893
 10
347.958619
 20
446.016125
 30
0.0
 10
348.265520
 20
446.047488
 30
0.0
 10
348.874929
 20
446.109766
 30
0.0
 10
349.680273
 20
446.592940
 30
0.0
 10
350.279022
 20
447.300391
 30
0.0
 10
350.596583
 20
448.176433
 30
0.0
 10
350.596582
 20
449.106015
 30
0.0
 10
350.279023
 20
449.980831
 30
0.0
 10
349.680272
 20
450.693180
 30
0.0
 10
348.874929
 20
451.158153
 30
0.0
 10
347.958618
 20
451.320498
 30
0.0
 10
347.042307
 20
451.158153
 30
0.0
 10
346.236963
 20
450.693180
 30
0.0
 10
345.638211
 20
449.980831
 30
0.0
 10
345.320653
 20
449.106015
 30
0.0
 10
345.320652
 20
448.176433
 30
0.0
 10
345.638212
 20
447.300391
 30
0.0
 10
346.236962
 20
446.592940
 30
0.0
 10
347.042307
 20
446.109765
 30
0.0
 10
347.651717
 20
446.047488
 30
0.0
 10
347.958619
 20
446.016125
 30
0.0
 11
347.958619
 21
446.016125
 31
0.0
 11
348.860604
 21
446.175918
 31
0.0
 11
349.642556
 21
446.627378
 31
0.0
 11
350.231933
 21
447.328624
 31
0.0
 11
350.544541
 21
448.189663
 31
0.0
 11
350.544541
 21
449.092584
 31
0.0
 11
350.231933
 21
449.953624
 31
0.0
 11
349.642556
 21
450.654869
 31
0.0
 11
348.860604
 21
451.106330
 31
0.0
 11
347.958619
 21
451.266124
 31
0.0
 11
347.056632
 21
451.106330
 31
0.0
 11
346.274679
 21
450.654869
 31
0.0
 11
345.685302
 21
449.953624
 31
0.0
 11
345.372694
 21
449.092584
 31
0.0
 11
345.372694
 21
448.189663
 31
0.0
 11
345.685302
 21
447.328624
 31
0.0
 11
346.274679
 21
446.627378
 31
0.0
 11
347.056632
 21
446.175918
 31
0.0
 11
347.958619
 21
446.016125
 31
0.0
  0
LINE
  5
194
100
AcDbEntity
  8
Layer_1
 62
7
100
AcDbLine
 10
347.958619
 20
446.016125
 30
0.0
 11
347.958619
 21
446.016125
 31
0.0
  0
SPLINE
  5
195
100
AcDbEntity
  8
Layer_1
 62
7
100
AcDbSpline
 70
0
 71
3
 72
25
 73
21
 74
19
 40
0.000000
 40
0.000000
 40
0.000000
 40
0.000000
 40
0.916031
 40
1.818952
 40
2.734983
 40
3.651013
 40
4.553934
 40
5.469966
 40
6.385996
 40
7.288917
 40
8.204948
 40
9.120979
 40
10.023900
 40
10.939931
 40
11.855962
 40
12.758883
 40
13.674912
 40
14.590944
 40
15.493865
 40
16.409895
 40
16.409895
 40
16.409895
 40
16.409895
 10
553.458617
 20
446.016125
 30
0.0
 10
553.765518
 20
446.047488
 30
0.0
 10
554.374928
 20
446.109766
 30
0.0
 10
555.180273
 20
446.592940
 30
0.0
 10
555.779024
 20
447.300391
 30
0.0
 10
556.096584
 20
448.176433
 30
0.0
 10
556.096583
 20
449.106015
 30
0.0
 10
555.779025
 20
449.980831
 30
0.0
 10
555.180272
 20
450.693180
 30
0.0
 10
554.374928
 20
451.158153
 30
0.0
 10
553.458617
 20
451.320499
 30
0.0
 10
552.542307
 20
451.158153
 30
0.0
 10
551.736963
 20
450.693180
 30
0.0
 10
551.138209
 20
449.980832
 30
0.0
 10
550.820653
 20
449.106014
 30
0.0
 10
550.820653
 20
448.176434
 30
0.0
 10
551.138210
 20
447.300390
 30
0.0
 10
551.736963
 20
446.592940
 30
0.0
 10
552.542307
 20
446.109766
 30
0.0
 10
553.151716
 20
446.047488
 30
0.0
 10
553.458617
 20
446.016125
 30
0.0
 11
553.458617
 21
446.016125
 31
0.0
 11
554.360603
 21
446.175918
 31
0.0
 11
555.142556
 21
446.627378
 31
0.0
 11
555.731934
 21
447.328624
 31
0.0
 11
556.044542
 21
448.189663
 31
0.0
 11
556.044542
 21
449.092584
 31
0.0
 11
555.731934
 21
449.953624
 31
0.0
 11
555.142556
 21
450.654869
 31
0.0
 11
554.360603
 21
451.106330
 31
0.0
 11
553.458617
 21
451.266124
 31
0.0
 11
552.556632
 21
451.106330
 31
0.0
 11
551.774679
 21
450.654869
 31
0.0
 11
551.185300
 21
449.953624
 31
0.0
 11
550.872694
 21
449.092584
 31
0.0
 11
550.872694
 21
448.189663
 31
0.0
 11
551.185300
 21
447.328624
 31
0.0
 11
551.774679
 21
446.627378
 31
0.0
 11
552.556632
 21
446.175918
 31
0.0
 11
553.458617
 21
446.016125
 31
0.0
  0
LINE
  5
196
100
AcDbEntity
  8
Layer_1
 62
7
100
AcDbLine
 10
553.458617
 20
446.016125
 30
0.0
 11
553.458617
 21
446.016125
 31
0.0
  0
LINE
  5
197
100
AcDbEntity
  8
Layer_1
 62
7
100
AcDbLine
 10
450.708618
 20
446.016125
 30
0.0
 11
450.708618
 21
446.016125
 31
0.0
  0
LINE
  5
198
100
AcDbEntity
  8
Layer_1
 62
7
100
AcDbLine
 10
642.405243
 20
432.141123
 30
0.0
 11
602.625837
 21
432.141123
 31
0.0
  0
LINE
  5
199
100
AcDbEntity
  8
Layer_1
 62
7
100
AcDbLine
 10
609.025836
 20
523.850284
 30
0.0
 11
642.405243
 21
432.141123
 31
0.0
  0
LINE
  5
19a
100
AcDbEntity
  8
Layer_1
 62
7
100
AcDbLine
 10
609.025836
 20
529.641123
 30
0.0
 11
609.025836
 21
523.850284
 31
0.0
  0
LINE
  5
19b
100
AcDbEntity
  8
Layer_1
 62
7
100
AcDbLine
 10
629.025838
 20
549.641123
 30
0.0
 11
609.025836
 21
529.641123
 31
0.0
  0
LINE
  5
19c
100
AcDbEntity
  8
Layer_1
 62
7
100
AcDbLine
 10
629.025838
 20
576.141123
 30
0.0
 11
629.025838
 21
549.641123
 31
0.0
  0
SPLINE
  5
19d
100
AcDbEntity
  8
Layer_1
 62
7
100
AcDbSpline
 70
0
 71
3
 72
25
 73
21
 74
19
 40
0.000000
 40
0.000000
 40
0.000000
 40
0.000000
 40
0.916030
 40
1.818951
 40
2.734983
 40
3.651013
 40
4.553934
 40
5.469966
 40
6.385996
 40
7.288917
 40
8.204948
 40
9.120979
 40
10.023900
 40
10.939930
 40
11.855962
 40
12.758883
 40
13.674913
 40
14.590944
 40
15.493865
 40
16.409896
 40
16.409896
 40
16.409896
 40
16.409896
 10
450.708618
 20
446.016125
 30
0.0
 10
451.015519
 20
446.047488
 30
0.0
 10
451.624928
 20
446.109766
 30
0.0
 10
452.430273
 20
446.592940
 30
0.0
 10
453.029025
 20
447.300390
 30
0.0
 10
453.346585
 20
448.176433
 30
0.0
 10
453.346584
 20
449.106015
 30
0.0
 10
453.029026
 20
449.980832
 30
0.0
 10
452.430272
 20
450.693180
 30
0.0
 10
451.624928
 20
451.158153
 30
0.0
 10
450.708618
 20
451.320499
 30
0.0
 10
449.792307
 20
451.158153
 30
0.0
 10
448.986963
 20
450.693180
 30
0.0
 10
448.388210
 20
449.980831
 30
0.0
 10
448.070652
 20
449.106015
 30
0.0
 10
448.070651
 20
448.176433
 30
0.0
 10
448.388211
 20
447.300391
 30
0.0
 10
448.986962
 20
446.592940
 30
0.0
 10
449.792307
 20
446.109766
 30
0.0
 10
450.401717
 20
446.047488
 30
0.0
 10
450.708618
 20
446.016125
 30
0.0
 11
450.708618
 21
446.016125
 31
0.0
 11
451.610603
 21
446.175918
 31
0.0
 11
452.392556
 21
446.627378
 31
0.0
 11
452.981935
 21
447.328624
 31
0.0
 11
453.294543
 21
448.189663
 31
0.0
 11
453.294543
 21
449.092584
 31
0.0
 11
452.981935
 21
449.953624
 31
0.0
 11
452.392556
 21
450.654869
 31
0.0
 11
451.610603
 21
451.106330
 31
0.0
 11
450.708618
 21
451.266124
 31
0.0
 11
449.806632
 21
451.106330
 31
0.0
 11
449.024679
 21
450.654869
 31
0.0
 11
448.435301
 21
449.953624
 31
0.0
 11
448.122693
 21
449.092584
 31
0.0
 11
448.122693
 21
448.189663
 31
0.0
 11
448.435301
 21
447.328624
 31
0.0
 11
449.024679
 21
446.627378
 31
0.0
 11
449.806632
 21
446.175918
 31
0.0
 11
450.708618
 21
446.016125
 31
0.0
  0
LINE
  5
19e
100
AcDbEntity
  8
Layer_1
 62
7
100
AcDbLine
 10
629.025838
 20
576.141123
 30
0.0
 11
383.525837
 21
576.141123
 31
0.0
  0
LINE
  5
19f
100
AcDbEntity
  8
Layer_1
 62
7
100
AcDbLine
 10
383.525837
 20
576.141123
 30
0.0
 11
383.525837
 21
529.641123
 31
0.0
  0
LINE
  5
1a0
100
AcDbEntity
  8
Layer_1
 62
7
100
AcDbLine
 10
383.525837
 20
529.641123
 30
0.0
 11
586.980792
 21
475.125532
 31
0.0
  0
LINE
  5
1a1
100
AcDbEntity
  8
Layer_1
 62
7
100
AcDbLine
 10
586.980792
 20
475.125532
 30
0.0
 11
602.625837
 21
432.141123
 31
0.0
  0
SPLINE
  5
1a2
100
AcDbEntity
  8
Layer_1
 62
7
100
AcDbSpline
 70
0
 71
3
 72
25
 73
21
 74
19
 40
0.000000
 40
0.000000
 40
0.000000
 40
0.000000
 40
0.916030
 40
1.818951
 40
2.734983
 40
3.651013
 40
4.553934
 40
5.469965
 40
6.385995
 40
7.288916
 40
8.204947
 40
9.120978
 40
10.023899
 40
10.939930
 40
11.855960
 40
12.758881
 40
13.674912
 40
14.590942
 40
15.493864
 40
16.409895
 40
16.409895
 40
16.409895
 40
16.409895
 10
620.125836
 20
445.531916
 30
0.0
 10
619.818935
 20
445.500553
 30
0.0
 10
619.209526
 20
445.438275
 30
0.0
 10
618.404182
 20
444.955100
 30
0.0
 10
617.805429
 20
444.247651
 30
0.0
 10
617.487872
 20
443.371606
 30
0.0
 10
617.487872
 20
442.442026
 30
0.0
 10
617.805428
 20
441.567208
 30
0.0
 10
618.404182
 20
440.854860
 30
0.0
 10
619.209526
 20
440.389887
 30
0.0
 10
620.125837
 20
440.227543
 30
0.0
 10
621.042147
 20
440.389888
 30
0.0
 10
621.847492
 20
440.854860
 30
0.0
 10
622.446243
 20
441.567210
 30
0.0
 10
622.763803
 20
442.442026
 30
0.0
 10
622.763803
 20
443.371607
 30
0.0
 10
622.446243
 20
444.247650
 30
0.0
 10
621.847492
 20
444.955101
 30
0.0
 10
621.042147
 20
445.438275
 30
0.0
 10
620.432737
 20
445.500553
 30
0.0
 10
620.125836
 20
445.531916
 30
0.0
 11
620.125836
 21
445.531916
 31
0.0
 11
619.223851
 21
445.372123
 31
0.0
 11
618.441898
 21
444.920662
 31
0.0
 11
617.852519
 21
444.219417
 31
0.0
 11
617.539913
 21
443.358377
 31
0.0
 11
617.539913
 21
442.455456
 31
0.0
 11
617.852519
 21
441.594416
 31
0.0
 11
618.441898
 21
440.893171
 31
0.0
 11
619.223851
 21
440.441711
 31
0.0
 11
620.125836
 21
440.281917
 31
0.0
 11
621.027822
 21
440.441711
 31
0.0
 11
621.809775
 21
440.893172
 31
0.0
 11
622.399153
 21
441.594417
 31
0.0
 11
622.711761
 21
442.455457
 31
0.0
 11
622.711761
 21
443.358377
 31
0.0
 11
622.399153
 21
444.219417
 31
0.0
 11
621.809775
 21
444.920662
 31
0.0
 11
621.027822
 21
445.372123
 31
0.0
 11
620.125836
 21
445.531916
 31
0.0
  0
LINE
  5
1a3
100
AcDbEntity
  8
Layer_1
 62
7
100
AcDbLine
 10
620.125836
 20
445.531916
 30
0.0
 11
620.125836
 21
445.531918
 31
0.0
  0
SPLINE
  5
1a4
100
AcDbEntity
  8
Layer_1
 62
7
100
AcDbSpline
 70
0
 71
3
 72
25
 73
21
 74
19
 40
0.000000
 40
0.000000
 40
0.000000
 40
0.000000
 40
0.916030
 40
1.818950
 40
2.734981
 40
3.651011
 40
4.553932
 40
5.469964
 40
6.385993
 40
7.288913
 40
8.204944
 40
9.120976
 40
10.023897
 40
10.939927
 40
11.855958
 40
12.758879
 40
13.674909
 40
14.590940
 40
15.493861
 40
16.409893
 40
16.409893
 40
16.409893
 40
16.409893
 10
609.025836
 20
562.266122
 30
0.0
 10
608.718935
 20
562.234759
 30
0.0
 10
608.109526
 20
562.172481
 30
0.0
 10
607.304182
 20
561.689307
 30
0.0
 10
606.705432
 20
560.981855
 30
0.0
 10
606.387872
 20
560.105813
 30
0.0
 10
606.387872
 20
559.176232
 30
0.0
 10
606.705431
 20
558.301416
 30
0.0
 10
607.304183
 20
557.589066
 30
0.0
 10
608.109526
 20
557.124094
 30
0.0
 10
609.025836
 20
556.961748
 30
0.0
 10
609.942147
 20
557.124093
 30
0.0
 10
610.747492
 20
557.589066
 30
0.0
 10
611.346243
 20
558.301416
 30
0.0
 10
611.663802
 20
559.176232
 30
0.0
 10
611.663803
 20
560.105813
 30
0.0
 10
611.346242
 20
560.981855
 30
0.0
 10
610.747492
 20
561.689307
 30
0.0
 10
609.942147
 20
562.172481
 30
0.0
 10
609.332737
 20
562.234759
 30
0.0
 10
609.025836
 20
562.266122
 30
0.0
 11
609.025836
 21
562.266122
 31
0.0
 11
608.123851
 21
562.106329
 31
0.0
 11
607.341899
 21
561.654868
 31
0.0
 11
606.752522
 21
560.953622
 31
0.0
 11
606.439914
 21
560.092584
 31
0.0
 11
606.439914
 21
559.189663
 31
0.0
 11
606.752522
 21
558.328622
 31
0.0
 11
607.341899
 21
557.627378
 31
0.0
 11
608.123851
 21
557.175917
 31
0.0
 11
609.025836
 21
557.016123
 31
0.0
 11
609.927823
 21
557.175917
 31
0.0
 11
610.709776
 21
557.627378
 31
0.0
 11
611.299153
 21
558.328622
 31
0.0
 11
611.611761
 21
559.189663
 31
0.0
 11
611.611761
 21
560.092584
 31
0.0
 11
611.299153
 21
560.953622
 31
0.0
 11
610.709776
 21
561.654868
 31
0.0
 11
609.927823
 21
562.106329
 31
0.0
 11
609.025836
 21
562.266122
 31
0.0
  0
LINE
  5
1a5
100
AcDbEntity
  8
Layer_1
 62
7
100
AcDbLine
 10
609.025836
 20
562.266122
 30
0.0
 11
609.025836
 21
562.266122
 31
0.0
  0
SPLINE
  5
1a6
100
AcDbEntity
  8
Layer_1
 62
7
100
AcDbSpline
 70
0
 71
3
 72
25
 73
21
 74
19
 40
0.000000
 40
0.000000
 40
0.000000
 40
0.000000
 40
0.916031
 40
1.818952
 40
2.734983
 40
3.651013
 40
4.553934
 40
5.469966
 40
6.385996
 40
7.288917
 40
8.204948
 40
9.120979
 40
10.023900
 40
10.939931
 40
11.855962
 40
12.758883
 40
13.674912
 40
14.590944
 40
15.493865
 40
16.409895
 40
16.409895
 40
16.409895
 40
16.409895
 10
403.525838
 20
562.266122
 30
0.0
 10
403.218937
 20
562.234759
 30
0.0
 10
402.609527
 20
562.172481
 30
0.0
 10
401.804182
 20
561.689307
 30
0.0
 10
401.205431
 20
560.981856
 30
0.0
 10
400.887871
 20
560.105813
 30
0.0
 10
400.887871
 20
559.176232
 30
0.0
 10
401.205430
 20
558.301415
 30
0.0
 10
401.804182
 20
557.589066
 30
0.0
 10
402.609527
 20
557.124094
 30
0.0
 10
403.525837
 20
556.961748
 30
0.0
 10
404.442148
 20
557.124094
 30
0.0
 10
405.247491
 20
557.589067
 30
0.0
 10
405.846246
 20
558.301414
 30
0.0
 10
406.163801
 20
559.176232
 30
0.0
 10
406.163802
 20
560.105813
 30
0.0
 10
405.846245
 20
560.981857
 30
0.0
 10
405.247492
 20
561.689306
 30
0.0
 10
404.442148
 20
562.172481
 30
0.0
 10
403.832738
 20
562.234759
 30
0.0
 10
403.525838
 20
562.266122
 30
0.0
 11
403.525838
 21
562.266122
 31
0.0
 11
402.623852
 21
562.106329
 31
0.0
 11
401.841899
 21
561.654868
 31
0.0
 11
401.252521
 21
560.953622
 31
0.0
 11
400.939913
 21
560.092584
 31
0.0
 11
400.939913
 21
559.189663
 31
0.0
 11
401.252521
 21
558.328622
 31
0.0
 11
401.841899
 21
557.627378
 31
0.0
 11
402.623852
 21
557.175917
 31
0.0
 11
403.525838
 21
557.016123
 31
0.0
 11
404.427823
 21
557.175917
 31
0.0
 11
405.209775
 21
557.627378
 31
0.0
 11
405.799155
 21
558.328622
 31
0.0
 11
406.111761
 21
559.189663
 31
0.0
 11
406.111761
 21
560.092584
 31
0.0
 11
405.799155
 21
560.953622
 31
0.0
 11
405.209775
 21
561.654868
 31
0.0
 11
404.427823
 21
562.106329
 31
0.0
 11
403.525838
 21
562.266122
 31
0.0
  0
LINE
  5
1a7
100
AcDbEntity
  8
Layer_1
 62
7
100
AcDbLine
 10
403.525838
 20
562.266122
 30
0.0
 11
403.525838
 21
562.266122
 31
0.0
  0
LINE
  5
1a8
100
AcDbEntity
  8
Layer_1
 62
7
100
AcDbLine
 10
506.275837
 20
562.266122
 30
0.0
 11
506.275837
 21
562.266122
 31
0.0
  0
LINE
  5
1a9
100
AcDbEntity
  8
Layer_1
 62
7
100
AcDbLine
 10
642.405243
 20
432.141123
 30
0.0
 11
602.625837
 21
432.141123
 31
0.0
  0
LINE
  5
1aa
100
AcDbEntity
  8
Layer_1
 62
7
100
AcDbLine
 10
609.025836
 20
340.431962
 30
0.0
 11
642.405243
 21
432.141123
 31
0.0
  0
LINE
  5
1ab
100
AcDbEntity
  8
Layer_1
 62
7
100
AcDbLine
 10
609.025836
 20
334.641124
 30
0.0
 11
609.025836
 21
340.431962
 31
0.0
  0
LINE
  5
1ac
100
AcDbEntity
  8
Layer_1
 62
7
100
AcDbLine
 10
629.025838
 20
314.641124
 30
0.0
 11
609.025836
 21
334.641124
 31
0.0
  0
LINE
  5
1ad
100
AcDbEntity
  8
Layer_1
 62
7
100
AcDbLine
 10
629.025838
 20
288.141123
 30
0.0
 11
629.025838
 21
314.641124
 31
0.0
  0
SPLINE
  5
1ae
100
AcDbEntity
  8
Layer_1
 62
7
100
AcDbSpline
 70
0
 71
3
 72
25
 73
21
 74
19
 40
0.000000
 40
0.000000
 40
0.000000
 40
0.000000
 40
0.916030
 40
1.818951
 40
2.734983
 40
3.651013
 40
4.553934
 40
5.469966
 40
6.385996
 40
7.288917
 40
8.204948
 40
9.120979
 40
10.023900
 40
10.939930
 40
11.855962
 40
12.758883
 40
13.674913
 40
14.590944
 40
15.493865
 40
16.409896
 40
16.409896
 40
16.409896
 40
16.409896
 10
506.275837
 20
562.266122
 30
0.0
 10
505.968936
 20
562.234759
 30
0.0
 10
505.359527
 20
562.172481
 30
0.0
 10
504.554182
 20
561.689306
 30
0.0
 10
503.955430
 20
560.981856
 30
0.0
 10
503.637870
 20
560.105813
 30
0.0
 10
503.637871
 20
559.176232
 30
0.0
 10
503.955429
 20
558.301415
 30
0.0
 10
504.554183
 20
557.589067
 30
0.0
 10
505.359526
 20
557.124094
 30
0.0
 10
506.275837
 20
556.961748
 30
0.0
 10
507.192148
 20
557.124094
 30
0.0
 10
507.997492
 20
557.589066
 30
0.0
 10
508.596244
 20
558.301415
 30
0.0
 10
508.913803
 20
559.176232
 30
0.0
 10
508.913803
 20
560.105813
 30
0.0
 10
508.596243
 20
560.981856
 30
0.0
 10
507.997493
 20
561.689307
 30
0.0
 10
507.192147
 20
562.172481
 30
0.0
 10
506.582738
 20
562.234759
 30
0.0
 10
506.275837
 20
562.266122
 30
0.0
 11
506.275837
 21
562.266122
 31
0.0
 11
505.373851
 21
562.106329
 31
0.0
 11
504.591899
 21
561.654868
 31
0.0
 11
504.002520
 21
560.953622
 31
0.0
 11
503.689912
 21
560.092584
 31
0.0
 11
503.689912
 21
559.189663
 31
0.0
 11
504.002520
 21
558.328622
 31
0.0
 11
504.591899
 21
557.627378
 31
0.0
 11
505.373851
 21
557.175917
 31
0.0
 11
506.275837
 21
557.016123
 31
0.0
 11
507.177823
 21
557.175917
 31
0.0
 11
507.959776
 21
557.627378
 31
0.0
 11
508.549154
 21
558.328622
 31
0.0
 11
508.861762
 21
559.189663
 31
0.0
 11
508.861762
 21
560.092584
 31
0.0
 11
508.549154
 21
560.953622
 31
0.0
 11
507.959776
 21
561.654868
 31
0.0
 11
507.177823
 21
562.106329
 31
0.0
 11
506.275837
 21
562.266122
 31
0.0
  0
LINE
  5
1af
100
AcDbEntity
  8
Layer_1
 62
7
100
AcDbLine
 10
629.025838
 20
288.141123
 30
0.0
 11
383.525837
 21
288.141123
 31
0.0
  0
LINE
  5
1b0
100
AcDbEntity
  8
Layer_1
 62
7
100
AcDbLine
 10
383.525837
 20
288.141123
 30
0.0
 11
383.525837
 21
334.641124
 31
0.0
  0
LINE
  5
1b1
100
AcDbEntity
  8
Layer_1
 62
7
100
AcDbLine
 10
383.525837
 20
334.641124
 30
0.0
 11
586.980792
 21
389.156714
 31
0.0
  0
LINE
  5
1b2
100
AcDbEntity
  8
Layer_1
 62
7
100
AcDbLine
 10
586.980792
 20
389.156714
 30
0.0
 11
602.625837
 21
432.141123
 31
0.0
  0
SPLINE
  5
1b3
100
AcDbEntity
  8
Layer_1
 62
7
100
AcDbSpline
 70
0
 71
3
 72
25
 73
21
 74
19
 40
0.000000
 40
0.000000
 40
0.000000
 40
0.000000
 40
0.916030
 40
1.818951
 40
2.734983
 40
3.651013
 40
4.553934
 40
5.469965
 40
6.385995
 40
7.288916
 40
8.204947
 40
9.120978
 40
10.023899
 40
10.939930
 40
11.855960
 40
12.758881
 40
13.674912
 40
14.590942
 40
15.493864
 40
16.409895
 40
16.409895
 40
16.409895
 40
16.409895
 10
620.125836
 20
418.750330
 30
0.0
 10
619.818935
 20
418.781694
 30
0.0
 10
619.209526
 20
418.843972
 30
0.0
 10
618.404182
 20
419.327147
 30
0.0
 10
617.805429
 20
420.034596
 30
0.0
 10
617.487872
 20
420.910640
 30
0.0
 10
617.487872
 20
421.840221
 30
0.0
 10
617.805428
 20
422.715038
 30
0.0
 10
618.404182
 20
423.427386
 30
0.0
 10
619.209526
 20
423.892359
 30
0.0
 10
620.125837
 20
424.054704
 30
0.0
 10
621.042147
 20
423.892359
 30
0.0
 10
621.847492
 20
423.427386
 30
0.0
 10
622.446243
 20
422.715037
 30
0.0
 10
622.763803
 20
421.840221
 30
0.0
 10
622.763803
 20
420.910640
 30
0.0
 10
622.446243
 20
420.034597
 30
0.0
 10
621.847492
 20
419.327146
 30
0.0
 10
621.042147
 20
418.843972
 30
0.0
 10
620.432737
 20
418.781694
 30
0.0
 10
620.125836
 20
418.750330
 30
0.0
 11
620.125836
 21
418.750330
 31
0.0
 11
619.223851
 21
418.910124
 31
0.0
 11
618.441898
 21
419.361584
 31
0.0
 11
617.852519
 21
420.062830
 31
0.0
 11
617.539913
 21
420.923869
 31
0.0
 11
617.539913
 21
421.826790
 31
0.0
 11
617.852519
 21
422.687830
 31
0.0
 11
618.441898
 21
423.389076
 31
0.0
 11
619.223851
 21
423.840536
 31
0.0
 11
620.125836
 21
424.000329
 31
0.0
 11
621.027822
 21
423.840536
 31
0.0
 11
621.809775
 21
423.389075
 31
0.0
 11
622.399153
 21
422.687829
 31
0.0
 11
622.711761
 21
421.826790
 31
0.0
 11
622.711761
 21
420.923869
 31
0.0
 11
622.399153
 21
420.062830
 31
0.0
 11
621.809775
 21
419.361584
 31
0.0
 11
621.027822
 21
418.910124
 31
0.0
 11
620.125836
 21
418.750330
 31
0.0
  0
LINE
  5
1b4
100
AcDbEntity
  8
Layer_1
 62
7
100
AcDbLine
 10
620.125836
 20
418.750330
 30
0.0
 11
620.125836
 21
418.750329
 31
0.0
  0
SPLINE
  5
1b5
100
AcDbEntity
  8
Layer_1
 62
7
100
AcDbSpline
 70
0
 71
3
 72
25
 73
21
 74
19
 40
0.000000
 40
0.000000
 40
0.000000
 40
0.000000
 40
0.916030
 40
1.818950
 40
2.734981
 40
3.651011
 40
4.553932
 40
5.469964
 40
6.385993
 40
7.288913
 40
8.204944
 40
9.120976
 40
10.023897
 40
10.939927
 40
11.855958
 40
12.758879
 40
13.674909
 40
14.590940
 40
15.493861
 40
16.409893
 40
16.409893
 40
16.409893
 40
16.409893
 10
609.025836
 20
302.016125
 30
0.0
 10
608.718935
 20
302.047488
 30
0.0
 10
608.109526
 20
302.109766
 30
0.0
 10
607.304182
 20
302.592940
 30
0.0
 10
606.705432
 20
303.300391
 30
0.0
 10
606.387872
 20
304.176433
 30
0.0
 10
606.387872
 20
305.106015
 30
0.0
 10
606.705431
 20
305.980831
 30
0.0
 10
607.304183
 20
306.693180
 30
0.0
 10
608.109526
 20
307.158153
 30
0.0
 10
609.025836
 20
307.320499
 30
0.0
 10
609.942147
 20
307.158153
 30
0.0
 10
610.747492
 20
306.693181
 30
0.0
 10
611.346243
 20
305.980831
 30
0.0
 10
611.663802
 20
305.106015
 30
0.0
 10
611.663803
 20
304.176433
 30
0.0
 10
611.346242
 20
303.300391
 30
0.0
 10
610.747492
 20
302.592940
 30
0.0
 10
609.942147
 20
302.109765
 30
0.0
 10
609.332737
 20
302.047488
 30
0.0
 10
609.025836
 20
302.016125
 30
0.0
 11
609.025836
 21
302.016125
 31
0.0
 11
608.123851
 21
302.175918
 31
0.0
 11
607.341899
 21
302.627378
 31
0.0
 11
606.752522
 21
303.328624
 31
0.0
 11
606.439914
 21
304.189663
 31
0.0
 11
606.439914
 21
305.092584
 31
0.0
 11
606.752522
 21
305.953624
 31
0.0
 11
607.341899
 21
306.654869
 31
0.0
 11
608.123851
 21
307.106330
 31
0.0
 11
609.025836
 21
307.266124
 31
0.0
 11
609.927823
 21
307.106330
 31
0.0
 11
610.709776
 21
306.654869
 31
0.0
 11
611.299153
 21
305.953624
 31
0.0
 11
611.611761
 21
305.092584
 31
0.0
 11
611.611761
 21
304.189663
 31
0.0
 11
611.299153
 21
303.328624
 31
0.0
 11
610.709776
 21
302.627378
 31
0.0
 11
609.927823
 21
302.175918
 31
0.0
 11
609.025836
 21
302.016125
 31
0.0
  0
LINE
  5
1b6
100
AcDbEntity
  8
Layer_1
 62
7
100
AcDbLine
 10
609.025836
 20
302.016125
 30
0.0
 11
609.025836
 21
302.016125
 31
0.0
  0
SPLINE
  5
1b7
100
AcDbEntity
  8
Layer_1
 62
7
100
AcDbSpline
 70
0
 71
3
 72
25
 73
21
 74
19
 40
0.000000
 40
0.000000
 40
0.000000
 40
0.000000
 40
0.916031
 40
1.818952
 40
2.734983
 40
3.651013
 40
4.553934
 40
5.469966
 40
6.385996
 40
7.288917
 40
8.204948
 40
9.120979
 40
10.023900
 40
10.939931
 40
11.855962
 40
12.758883
 40
13.674912
 40
14.590944
 40
15.493865
 40
16.409895
 40
16.409895
 40
16.409895
 40
16.409895
 10
403.525838
 20
302.016125
 30
0.0
 10
403.218937
 20
302.047488
 30
0.0
 10
402.609527
 20
302.109766
 30
0.0
 10
401.804182
 20
302.592940
 30
0.0
 10
401.205431
 20
303.300391
 30
0.0
 10
400.887871
 20
304.176433
 30
0.0
 10
400.887871
 20
305.106015
 30
0.0
 10
401.205430
 20
305.980831
 30
0.0
 10
401.804182
 20
306.693181
 30
0.0
 10
402.609527
 20
307.158153
 30
0.0
 10
403.525837
 20
307.320499
 30
0.0
 10
404.442148
 20
307.158153
 30
0.0
 10
405.247491
 20
306.693180
 30
0.0
 10
405.846246
 20
305.980832
 30
0.0
 10
406.163801
 20
305.106014
 30
0.0
 10
406.163802
 20
304.176434
 30
0.0
 10
405.846245
 20
303.300390
 30
0.0
 10
405.247492
 20
302.592941
 30
0.0
 10
404.442148
 20
302.109766
 30
0.0
 10
403.832738
 20
302.047488
 30
0.0
 10
403.525838
 20
302.016125
 30
0.0
 11
403.525838
 21
302.016125
 31
0.0
 11
402.623852
 21
302.175918
 31
0.0
 11
401.841899
 21
302.627378
 31
0.0
 11
401.252521
 21
303.328624
 31
0.0
 11
400.939913
 21
304.189663
 31
0.0
 11
400.939913
 21
305.092584
 31
0.0
 11
401.252521
 21
305.953624
 31
0.0
 11
401.841899
 21
306.654869
 31
0.0
 11
402.623852
 21
307.106330
 31
0.0
 11
403.525838
 21
307.266124
 31
0.0
 11
404.427823
 21
307.106330
 31
0.0
 11
405.209775
 21
306.654869
 31
0.0
 11
405.799155
 21
305.953624
 31
0.0
 11
406.111761
 21
305.092584
 31
0.0
 11
406.111761
 21
304.189663
 31
0.0
 11
405.799155
 21
303.328624
 31
0.0
 11
405.209775
 21
302.627378
 31
0.0
 11
404.427823
 21
302.175918
 31
0.0
 11
403.525838
 21
302.016125
 31
0.0
  0
LINE
  5
1b8
100
AcDbEntity
  8
Layer_1
 62
7
100
AcDbLine
 10
403.525838
 20
302.016125
 30
0.0
 11
403.525838
 21
302.016125
 31
0.0
  0
LINE
  5
1b9
100
AcDbEntity
  8
Layer_1
 62
7
100
AcDbLine
 10
506.275837
 20
302.016125
 30
0.0
 11
506.275837
 21
302.016125
 31
0.0
  0
LINE
  5
1ba
100
AcDbEntity
  8
Layer_1
 62
7
100
AcDbLine
 10
314.579212
 20
288.141123
 30
0.0
 11
354.358617
 21
288.141123
 31
0.0
  0
LINE
  5
1bb
100
AcDbEntity
  8
Layer_1
 62
7
100
AcDbLine
 10
347.958619
 20
379.850284
 30
0.0
 11
314.579212
 21
288.141123
 31
0.0
  0
LINE
  5
1bc
100
AcDbEntity
  8
Layer_1
 62
7
100
AcDbLine
 10
347.958619
 20
385.641123
 30
0.0
 11
347.958619
 21
379.850284
 31
0.0
  0
LINE
  5
1bd
100
AcDbEntity
  8
Layer_1
 62
7
100
AcDbLine
 10
327.958617
 20
405.641123
 30
0.0
 11
347.958619
 21
385.641123
 31
0.0
  0
LINE
  5
1be
100
AcDbEntity
  8
Layer_1
 62
7
100
AcDbLine
 10
327.958617
 20
432.141123
 30
0.0
 11
327.958617
 21
405.641123
 31
0.0
  0
SPLINE
  5
1bf
100
AcDbEntity
  8
Layer_1
 62
7
100
AcDbSpline
 70
0
 71
3
 72
25
 73
21
 74
19
 40
0.000000
 40
0.000000
 40
0.000000
 40
0.000000
 40
0.916030
 40
1.818951
 40
2.734983
 40
3.651013
 40
4.553934
 40
5.469966
 40
6.385996
 40
7.288917
 40
8.204948
 40
9.120979
 40
10.023900
 40
10.939930
 40
11.855962
 40
12.758883
 40
13.674913
 40
14.590944
 40
15.493865
 40
16.409896
 40
16.409896
 40
16.409896
 40
16.409896
 10
506.275837
 20
302.016125
 30
0.0
 10
505.968936
 20
302.047488
 30
0.0
 10
505.359527
 20
302.109766
 30
0.0
 10
504.554182
 20
302.592940
 30
0.0
 10
503.955430
 20
303.300391
 30
0.0
 10
503.637870
 20
304.176434
 30
0.0
 10
503.637871
 20
305.106015
 30
0.0
 10
503.955429
 20
305.980832
 30
0.0
 10
504.554183
 20
306.693180
 30
0.0
 10
505.359526
 20
307.158153
 30
0.0
 10
506.275837
 20
307.320499
 30
0.0
 10
507.192148
 20
307.158153
 30
0.0
 10
507.997492
 20
306.693181
 30
0.0
 10
508.596244
 20
305.980831
 30
0.0
 10
508.913803
 20
305.106015
 30
0.0
 10
508.913803
 20
304.176433
 30
0.0
 10
508.596243
 20
303.300391
 30
0.0
 10
507.997493
 20
302.592940
 30
0.0
 10
507.192147
 20
302.109766
 30
0.0
 10
506.582738
 20
302.047488
 30
0.0
 10
506.275837
 20
302.016125
 30
0.0
 11
506.275837
 21
302.016125
 31
0.0
 11
505.373851
 21
302.175918
 31
0.0
 11
504.591899
 21
302.627378
 31
0.0
 11
504.002520
 21
303.328624
 31
0.0
 11
503.689912
 21
304.189663
 31
0.0
 11
503.689912
 21
305.092584
 31
0.0
 11
504.002520
 21
305.953624
 31
0.0
 11
504.591899
 21
306.654869
 31
0.0
 11
505.373851
 21
307.106330
 31
0.0
 11
506.275837
 21
307.266124
 31
0.0
 11
507.177823
 21
307.106330
 31
0.0
 11
507.959776
 21
306.654869
 31
0.0
 11
508.549154
 21
305.953624
 31
0.0
 11
508.861762
 21
305.092584
 31
0.0
 11
508.861762
 21
304.189663
 31
0.0
 11
508.549154
 21
303.328624
 31
0.0
 11
507.959776
 21
302.627378
 31
0.0
 11
507.177823
 21
302.175918
 31
0.0
 11
506.275837
 21
302.016125
 31
0.0
  0
LINE
  5
1c0
100
AcDbEntity
  8
Layer_1
 62
7
100
AcDbLine
 10
327.958617
 20
432.141123
 30
0.0
 11
573.458618
 21
432.141123
 31
0.0
  0
LINE
  5
1c1
100
AcDbEntity
  8
Layer_1
 62
7
100
AcDbLine
 10
573.458618
 20
432.141123
 30
0.0
 11
573.458618
 21
385.641123
 31
0.0
  0
LINE
  5
1c2
100
AcDbEntity
  8
Layer_1
 62
7
100
AcDbLine
 10
573.458618
 20
385.641123
 30
0.0
 11
370.003663
 21
331.125532
 31
0.0
  0
LINE
  5
1c3
100
AcDbEntity
  8
Layer_1
 62
7
100
AcDbLine
 10
370.003663
 20
331.125532
 30
0.0
 11
354.358617
 21
288.141123
 31
0.0
  0
SPLINE
  5
1c4
100
AcDbEntity
  8
Layer_1
 62
7
100
AcDbSpline
 70
0
 71
3
 72
25
 73
21
 74
19
 40
0.000000
 40
0.000000
 40
0.000000
 40
0.000000
 40
0.916030
 40
1.818951
 40
2.734983
 40
3.651013
 40
4.553934
 40
5.469965
 40
6.385995
 40
7.288916
 40
8.204947
 40
9.120978
 40
10.023899
 40
10.939930
 40
11.855960
 40
12.758881
 40
13.674912
 40
14.590942
 40
15.493864
 40
16.409895
 40
16.409895
 40
16.409895
 40
16.409895
 10
336.858618
 20
301.531917
 30
0.0
 10
337.165519
 20
301.500553
 30
0.0
 10
337.774929
 20
301.438275
 30
0.0
 10
338.580273
 20
300.955100
 30
0.0
 10
339.179026
 20
300.247651
 30
0.0
 10
339.496583
 20
299.371607
 30
0.0
 10
339.496582
 20
298.442026
 30
0.0
 10
339.179026
 20
297.567208
 30
0.0
 10
338.580272
 20
296.854860
 30
0.0
 10
337.774929
 20
296.389888
 30
0.0
 10
336.858618
 20
296.227543
 30
0.0
 10
335.942308
 20
296.389888
 30
0.0
 10
335.136963
 20
296.854860
 30
0.0
 10
334.538212
 20
297.567210
 30
0.0
 10
334.220652
 20
298.442026
 30
0.0
 10
334.220652
 20
299.371607
 30
0.0
 10
334.538212
 20
300.247650
 30
0.0
 10
335.136963
 20
300.955101
 30
0.0
 10
335.942308
 20
301.438275
 30
0.0
 10
336.551718
 20
301.500553
 30
0.0
 10
336.858618
 20
301.531917
 30
0.0
 11
336.858618
 21
301.531917
 31
0.0
 11
337.760604
 21
301.372123
 31
0.0
 11
338.542556
 21
300.920662
 31
0.0
 11
339.131935
 21
300.219417
 31
0.0
 11
339.444542
 21
299.358378
 31
0.0
 11
339.444542
 21
298.455456
 31
0.0
 11
339.131935
 21
297.594416
 31
0.0
 11
338.542556
 21
296.893171
 31
0.0
 11
337.760604
 21
296.441711
 31
0.0
 11
336.858618
 21
296.281917
 31
0.0
 11
335.956632
 21
296.441711
 31
0.0
 11
335.174679
 21
296.893172
 31
0.0
 11
334.585302
 21
297.594418
 31
0.0
 11
334.272693
 21
298.455457
 31
0.0
 11
334.272693
 21
299.358378
 31
0.0
 11
334.585302
 21
300.219417
 31
0.0
 11
335.174679
 21
300.920662
 31
0.0
 11
335.956632
 21
301.372123
 31
0.0
 11
336.858618
 21
301.531917
 31
0.0
  0
LINE
  5
1c5
100
AcDbEntity
  8
Layer_1
 62
7
100
AcDbLine
 10
336.858618
 20
301.531917
 30
0.0
 11
336.858618
 21
301.531918
 31
0.0
  0
SPLINE
  5
1c6
100
AcDbEntity
  8
Layer_1
 62
7
100
AcDbSpline
 70
0
 71
3
 72
25
 73
21
 74
19
 40
0.000000
 40
0.000000
 40
0.000000
 40
0.000000
 40
0.916030
 40
1.818950
 40
2.734981
 40
3.651011
 40
4.553932
 40
5.469964
 40
6.385993
 40
7.288913
 40
8.204944
 40
9.120976
 40
10.023897
 40
10.939927
 40
11.855958
 40
12.758879
 40
13.674909
 40
14.590940
 40
15.493861
 40
16.409893
 40
16.409893
 40
16.409893
 40
16.409893
 10
347.958619
 20
418.266122
 30
0.0
 10
348.265520
 20
418.234759
 30
0.0
 10
348.874929
 20
418.172481
 30
0.0
 10
349.680273
 20
417.689307
 30
0.0
 10
350.279022
 20
416.981856
 30
0.0
 10
350.596583
 20
416.105813
 30
0.0
 10
350.596582
 20
415.176232
 30
0.0
 10
350.279023
 20
414.301416
 30
0.0
 10
349.680272
 20
413.589066
 30
0.0
 10
348.874929
 20
413.124094
 30
0.0
 10
347.958618
 20
412.961748
 30
0.0
 10
347.042307
 20
413.124094
 30
0.0
 10
346.236963
 20
413.589066
 30
0.0
 10
345.638211
 20
414.301416
 30
0.0
 10
345.320653
 20
415.176232
 30
0.0
 10
345.320652
 20
416.105813
 30
0.0
 10
345.638212
 20
416.981856
 30
0.0
 10
346.236962
 20
417.689307
 30
0.0
 10
347.042307
 20
418.172481
 30
0.0
 10
347.651717
 20
418.234759
 30
0.0
 10
347.958619
 20
418.266122
 30
0.0
 11
347.958619
 21
418.266122
 31
0.0
 11
348.860604
 21
418.106329
 31
0.0
 11
349.642556
 21
417.654869
 31
0.0
 11
350.231933
 21
416.953622
 31
0.0
 11
350.544541
 21
416.092584
 31
0.0
 11
350.544541
 21
415.189663
 31
0.0
 11
350.231933
 21
414.328623
 31
0.0
 11
349.642556
 21
413.627378
 31
0.0
 11
348.860604
 21
413.175917
 31
0.0
 11
347.958619
 21
413.016123
 31
0.0
 11
347.056632
 21
413.175917
 31
0.0
 11
346.274679
 21
413.627378
 31
0.0
 11
345.685302
 21
414.328623
 31
0.0
 11
345.372694
 21
415.189663
 31
0.0
 11
345.372694
 21
416.092584
 31
0.0
 11
345.685302
 21
416.953622
 31
0.0
 11
346.274679
 21
417.654869
 31
0.0
 11
347.056632
 21
418.106329
 31
0.0
 11
347.958619
 21
418.266122
 31
0.0
  0
LINE
  5
1c7
100
AcDbEntity
  8
Layer_1
 62
7
100
AcDbLine
 10
347.958619
 20
418.266122
 30
0.0
 11
347.958619
 21
418.266122
 31
0.0
  0
SPLINE
  5
1c8
100
AcDbEntity
  8
Layer_1
 62
7
100
AcDbSpline
 70
0
 71
3
 72
25
 73
21
 74
19
 40
0.000000
 40
0.000000
 40
0.000000
 40
0.000000
 40
0.916031
 40
1.818952
 40
2.734983
 40
3.651013
 40
4.553934
 40
5.469966
 40
6.385996
 40
7.288917
 40
8.204948
 40
9.120979
 40
10.023900
 40
10.939931
 40
11.855962
 40
12.758883
 40
13.674912
 40
14.590944
 40
15.493865
 40
16.409895
 40
16.409895
 40
16.409895
 40
16.409895
 10
553.458617
 20
418.266122
 30
0.0
 10
553.765518
 20
418.234759
 30
0.0
 10
554.374928
 20
418.172481
 30
0.0
 10
555.180273
 20
417.689307
 30
0.0
 10
555.779024
 20
416.981856
 30
0.0
 10
556.096584
 20
416.105813
 30
0.0
 10
556.096583
 20
415.176232
 30
0.0
 10
555.779025
 20
414.301416
 30
0.0
 10
555.180272
 20
413.589066
 30
0.0
 10
554.374928
 20
413.124094
 30
0.0
 10
553.458617
 20
412.961748
 30
0.0
 10
552.542307
 20
413.124094
 30
0.0
 10
551.736963
 20
413.589067
 30
0.0
 10
551.138209
 20
414.301415
 30
0.0
 10
550.820653
 20
415.176232
 30
0.0
 10
550.820653
 20
416.105813
 30
0.0
 10
551.138210
 20
416.981857
 30
0.0
 10
551.736963
 20
417.689306
 30
0.0
 10
552.542307
 20
418.172481
 30
0.0
 10
553.151716
 20
418.234759
 30
0.0
 10
553.458617
 20
418.266122
 30
0.0
 11
553.458617
 21
418.266122
 31
0.0
 11
554.360603
 21
418.106329
 31
0.0
 11
555.142556
 21
417.654869
 31
0.0
 11
555.731934
 21
416.953622
 31
0.0
 11
556.044542
 21
416.092584
 31
0.0
 11
556.044542
 21
415.189663
 31
0.0
 11
555.731934
 21
414.328623
 31
0.0
 11
555.142556
 21
413.627378
 31
0.0
 11
554.360603
 21
413.175917
 31
0.0
 11
553.458617
 21
413.016123
 31
0.0
 11
552.556632
 21
413.175917
 31
0.0
 11
551.774679
 21
413.627378
 31
0.0
 11
551.185300
 21
414.328623
 31
0.0
 11
550.872694
 21
415.189663
 31
0.0
 11
550.872694
 21
416.092584
 31
0.0
 11
551.185300
 21
416.953622
 31
0.0
 11
551.774679
 21
417.654869
 31
0.0
 11
552.556632
 21
418.106329
 31
0.0
 11
553.458617
 21
418.266122
 31
0.0
  0
LINE
  5
1c9
100
AcDbEntity
  8
Layer_1
 62
7
100
AcDbLine
 10
553.458617
 20
418.266122
 30
0.0
 11
553.458617
 21
418.266122
 31
0.0
  0
LINE
  5
1ca
100
AcDbEntity
  8
Layer_1
 62
7
100
AcDbLine
 10
450.708618
 20
418.266122
 30
0.0
 11
450.708618
 21
418.266122
 31
0.0
  0
LINE
  5
1cb
100
AcDbEntity
  8
Layer_1
 62
7
100
AcDbLine
 10
314.579212
 20
288.141135
 30
0.0
 11
354.358617
 21
288.141135
 31
0.0
  0
LINE
  5
1cc
100
AcDbEntity
  8
Layer_1
 62
7
100
AcDbLine
 10
347.958619
 20
196.431974
 30
0.0
 11
314.579212
 21
288.141135
 31
0.0
  0
LINE
  5
1cd
100
AcDbEntity
  8
Layer_1
 62
7
100
AcDbLine
 10
347.958619
 20
190.641135
 30
0.0
 11
347.958619
 21
196.431974
 31
0.0
  0
LINE
  5
1ce
100
AcDbEntity
  8
Layer_1
 62
7
100
AcDbLine
 10
327.958617
 20
170.641136
 30
0.0
 11
347.958619
 21
190.641135
 31
0.0
  0
LINE
  5
1cf
100
AcDbEntity
  8
Layer_1
 62
7
100
AcDbLine
 10
327.958617
 20
144.141135
 30
0.0
 11
327.958617
 21
170.641136
 31
0.0
  0
SPLINE
  5
1d0
100
AcDbEntity
  8
Layer_1
 62
7
100
AcDbSpline
 70
0
 71
3
 72
25
 73
21
 74
19
 40
0.000000
 40
0.000000
 40
0.000000
 40
0.000000
 40
0.916030
 40
1.818951
 40
2.734983
 40
3.651013
 40
4.553934
 40
5.469966
 40
6.385996
 40
7.288917
 40
8.204948
 40
9.120979
 40
10.023900
 40
10.939930
 40
11.855962
 40
12.758883
 40
13.674913
 40
14.590944
 40
15.493865
 40
16.409896
 40
16.409896
 40
16.409896
 40
16.409896
 10
450.708618
 20
418.266122
 30
0.0
 10
451.015519
 20
418.234759
 30
0.0
 10
451.624928
 20
418.172481
 30
0.0
 10
452.430273
 20
417.689306
 30
0.0
 10
453.029025
 20
416.981856
 30
0.0
 10
453.346585
 20
416.105813
 30
0.0
 10
453.346584
 20
415.176232
 30
0.0
 10
453.029026
 20
414.301415
 30
0.0
 10
452.430272
 20
413.589067
 30
0.0
 10
451.624928
 20
413.124094
 30
0.0
 10
450.708618
 20
412.961748
 30
0.0
 10
449.792307
 20
413.124094
 30
0.0
 10
448.986963
 20
413.589066
 30
0.0
 10
448.388210
 20
414.301416
 30
0.0
 10
448.070652
 20
415.176232
 30
0.0
 10
448.070651
 20
416.105813
 30
0.0
 10
448.388211
 20
416.981856
 30
0.0
 10
448.986962
 20
417.689307
 30
0.0
 10
449.792307
 20
418.172481
 30
0.0
 10
450.401717
 20
418.234759
 30
0.0
 10
450.708618
 20
418.266122
 30
0.0
 11
450.708618
 21
418.266122
 31
0.0
 11
451.610603
 21
418.106329
 31
0.0
 11
452.392556
 21
417.654869
 31
0.0
 11
452.981935
 21
416.953622
 31
0.0
 11
453.294543
 21
416.092584
 31
0.0
 11
453.294543
 21
415.189663
 31
0.0
 11
452.981935
 21
414.328623
 31
0.0
 11
452.392556
 21
413.627378
 31
0.0
 11
451.610603
 21
413.175917
 31
0.0
 11
450.708618
 21
413.016123
 31
0.0
 11
449.806632
 21
413.175917
 31
0.0
 11
449.024679
 21
413.627378
 31
0.0
 11
448.435301
 21
414.328623
 31
0.0
 11
448.122693
 21
415.189663
 31
0.0
 11
448.122693
 21
416.092584
 31
0.0
 11
448.435301
 21
416.953622
 31
0.0
 11
449.024679
 21
417.654869
 31
0.0
 11
449.806632
 21
418.106329
 31
0.0
 11
450.708618
 21
418.266122
 31
0.0
  0
LINE
  5
1d1
100
AcDbEntity
  8
Layer_1
 62
7
100
AcDbLine
 10
327.958617
 20
144.141135
 30
0.0
 11
573.458618
 21
144.141135
 31
0.0
  0
LINE
  5
1d2
100
AcDbEntity
  8
Layer_1
 62
7
100
AcDbLine
 10
573.458618
 20
144.141135
 30
0.0
 11
573.458618
 21
190.641135
 31
0.0
  0
LINE
  5
1d3
100
AcDbEntity
  8
Layer_1
 62
7
100
AcDbLine
 10
573.458618
 20
190.641135
 30
0.0
 11
370.003663
 21
245.156726
 31
0.0
  0
LINE
  5
1d4
100
AcDbEntity
  8
Layer_1
 62
7
100
AcDbLine
 10
370.003663
 20
245.156726
 30
0.0
 11
354.358617
 21
288.141135
 31
0.0
  0
SPLINE
  5
1d5
100
AcDbEntity
  8
Layer_1
 62
7
100
AcDbSpline
 70
0
 71
3
 72
25
 73
21
 74
19
 40
0.000000
 40
0.000000
 40
0.000000
 40
0.000000
 40
0.916030
 40
1.818951
 40
2.734983
 40
3.651013
 40
4.553934
 40
5.469965
 40
6.385995
 40
7.288916
 40
8.204947
 40
9.120978
 40
10.023899
 40
10.939930
 40
11.855960
 40
12.758881
 40
13.674912
 40
14.590942
 40
15.493864
 40
16.409895
 40
16.409895
 40
16.409895
 40
16.409895
 10
336.858618
 20
274.750342
 30
0.0
 10
337.165519
 20
274.781705
 30
0.0
 10
337.774929
 20
274.843983
 30
0.0
 10
338.580273
 20
275.327158
 30
0.0
 10
339.179026
 20
276.034607
 30
0.0
 10
339.496583
 20
276.910652
 30
0.0
 10
339.496582
 20
277.840232
 30
0.0
 10
339.179026
 20
278.715050
 30
0.0
 10
338.580272
 20
279.427398
 30
0.0
 10
337.774929
 20
279.892371
 30
0.0
 10
336.858618
 20
280.054715
 30
0.0
 10
335.942308
 20
279.892370
 30
0.0
 10
335.136963
 20
279.427398
 30
0.0
 10
334.538212
 20
278.715048
 30
0.0
 10
334.220652
 20
277.840232
 30
0.0
 10
334.220652
 20
276.910651
 30
0.0
 10
334.538212
 20
276.034608
 30
0.0
 10
335.136963
 20
275.327157
 30
0.0
 10
335.942308
 20
274.843983
 30
0.0
 10
336.551718
 20
274.781705
 30
0.0
 10
336.858618
 20
274.750342
 30
0.0
 11
336.858618
 21
274.750342
 31
0.0
 11
337.760604
 21
274.910135
 31
0.0
 11
338.542556
 21
275.361596
 31
0.0
 11
339.131935
 21
276.062842
 31
0.0
 11
339.444542
 21
276.923881
 31
0.0
 11
339.444542
 21
277.826802
 31
0.0
 11
339.131935
 21
278.687842
 31
0.0
 11
338.542556
 21
279.389087
 31
0.0
 11
337.760604
 21
279.840547
 31
0.0
 11
336.858618
 21
280.000341
 31
0.0
 11
335.956632
 21
279.840547
 31
0.0
 11
335.174679
 21
279.389086
 31
0.0
 11
334.585302
 21
278.687841
 31
0.0
 11
334.272693
 21
277.826802
 31
0.0
 11
334.272693
 21
276.923881
 31
0.0
 11
334.585302
 21
276.062842
 31
0.0
 11
335.174679
 21
275.361596
 31
0.0
 11
335.956632
 21
274.910135
 31
0.0
 11
336.858618
 21
274.750342
 31
0.0
  0
LINE
  5
1d6
100
AcDbEntity
  8
Layer_1
 62
7
100
AcDbLine
 10
336.858618
 20
274.750342
 30
0.0
 11
336.858618
 21
274.750341
 31
0.0
  0
SPLINE
  5
1d7
100
AcDbEntity
  8
Layer_1
 62
7
100
AcDbSpline
 70
0
 71
3
 72
25
 73
21
 74
19
 40
0.000000
 40
0.000000
 40
0.000000
 40
0.000000
 40
0.916030
 40
1.818950
 40
2.734981
 40
3.651011
 40
4.553932
 40
5.469964
 40
6.385993
 40
7.288913
 40
8.204944
 40
9.120976
 40
10.023897
 40
10.939927
 40
11.855958
 40
12.758879
 40
13.674909
 40
14.590940
 40
15.493861
 40
16.409893
 40
16.409893
 40
16.409893
 40
16.409893
 10
347.958619
 20
158.016136
 30
0.0
 10
348.265520
 20
158.047499
 30
0.0
 10
348.874929
 20
158.109777
 30
0.0
 10
349.680273
 20
158.592952
 30
0.0
 10
350.279022
 20
159.300403
 30
0.0
 10
350.596583
 20
160.176445
 30
0.0
 10
350.596582
 20
161.106026
 30
0.0
 10
350.279023
 20
161.980842
 30
0.0
 10
349.680272
 20
162.693192
 30
0.0
 10
348.874929
 20
163.158164
 30
0.0
 10
347.958618
 20
163.320510
 30
0.0
 10
347.042307
 20
163.158165
 30
0.0
 10
346.236963
 20
162.693192
 30
0.0
 10
345.638211
 20
161.980842
 30
0.0
 10
345.320653
 20
161.106026
 30
0.0
 10
345.320652
 20
160.176445
 30
0.0
 10
345.638212
 20
159.300403
 30
0.0
 10
346.236962
 20
158.592951
 30
0.0
 10
347.042307
 20
158.109777
 30
0.0
 10
347.651717
 20
158.047499
 30
0.0
 10
347.958619
 20
158.016136
 30
0.0
 11
347.958619
 21
158.016136
 31
0.0
 11
348.860604
 21
158.175930
 31
0.0
 11
349.642556
 21
158.627390
 31
0.0
 11
350.231933
 21
159.328636
 31
0.0
 11
350.544541
 21
160.189674
 31
0.0
 11
350.544541
 21
161.092595
 31
0.0
 11
350.231933
 21
161.953636
 31
0.0
 11
349.642556
 21
162.654881
 31
0.0
 11
348.860604
 21
163.106341
 31
0.0
 11
347.958619
 21
163.266135
 31
0.0
 11
347.056632
 21
163.106341
 31
0.0
 11
346.274679
 21
162.654881
 31
0.0
 11
345.685302
 21
161.953636
 31
0.0
 11
345.372694
 21
161.092595
 31
0.0
 11
345.372694
 21
160.189674
 31
0.0
 11
345.685302
 21
159.328636
 31
0.0
 11
346.274679
 21
158.627390
 31
0.0
 11
347.056632
 21
158.175930
 31
0.0
 11
347.958619
 21
158.016136
 31
0.0
  0
LINE
  5
1d8
100
AcDbEntity
  8
Layer_1
 62
7
100
AcDbLine
 10
347.958619
 20
158.016136
 30
0.0
 11
347.958619
 21
158.016136
 31
0.0
  0
SPLINE
  5
1d9
100
AcDbEntity
  8
Layer_1
 62
7
100
AcDbSpline
 70
0
 71
3
 72
25
 73
21
 74
19
 40
0.000000
 40
0.000000
 40
0.000000
 40
0.000000
 40
0.916031
 40
1.818952
 40
2.734983
 40
3.651013
 40
4.553934
 40
5.469966
 40
6.385996
 40
7.288917
 40
8.204948
 40
9.120979
 40
10.023900
 40
10.939931
 40
11.855962
 40
12.758883
 40
13.674912
 40
14.590944
 40
15.493865
 40
16.409895
 40
16.409895
 40
16.409895
 40
16.409895
 10
553.458617
 20
158.016136
 30
0.0
 10
553.765518
 20
158.047499
 30
0.0
 10
554.374928
 20
158.109777
 30
0.0
 10
555.180273
 20
158.592951
 30
0.0
 10
555.779024
 20
159.300402
 30
0.0
 10
556.096584
 20
160.176445
 30
0.0
 10
556.096583
 20
161.106026
 30
0.0
 10
555.779025
 20
161.980843
 30
0.0
 10
555.180272
 20
162.693192
 30
0.0
 10
554.374928
 20
163.158164
 30
0.0
 10
553.458617
 20
163.320510
 30
0.0
 10
552.542307
 20
163.158164
 30
0.0
 10
551.736963
 20
162.693191
 30
0.0
 10
551.138209
 20
161.980844
 30
0.0
 10
550.820653
 20
161.106026
 30
0.0
 10
550.820653
 20
160.176445
 30
0.0
 10
551.138210
 20
159.300402
 30
0.0
 10
551.736963
 20
158.592952
 30
0.0
 10
552.542307
 20
158.109777
 30
0.0
 10
553.151716
 20
158.047499
 30
0.0
 10
553.458617
 20
158.016136
 30
0.0
 11
553.458617
 21
158.016136
 31
0.0
 11
554.360603
 21
158.175930
 31
0.0
 11
555.142556
 21
158.627390
 31
0.0
 11
555.731934
 21
159.328636
 31
0.0
 11
556.044542
 21
160.189674
 31
0.0
 11
556.044542
 21
161.092595
 31
0.0
 11
555.731934
 21
161.953636
 31
0.0
 11
555.142556
 21
162.654881
 31
0.0
 11
554.360603
 21
163.106341
 31
0.0
 11
553.458617
 21
163.266135
 31
0.0
 11
552.556632
 21
163.106341
 31
0.0
 11
551.774679
 21
162.654881
 31
0.0
 11
551.185300
 21
161.953636
 31
0.0
 11
550.872694
 21
161.092595
 31
0.0
 11
550.872694
 21
160.189674
 31
0.0
 11
551.185300
 21
159.328636
 31
0.0
 11
551.774679
 21
158.627390
 31
0.0
 11
552.556632
 21
158.175930
 31
0.0
 11
553.458617
 21
158.016136
 31
0.0
  0
LINE
  5
1da
100
AcDbEntity
  8
Layer_1
 62
7
100
AcDbLine
 10
553.458617
 20
158.016136
 30
0.0
 11
553.458617
 21
158.016136
 31
0.0
  0
LINE
  5
1db
100
AcDbEntity
  8
Layer_1
 62
7
100
AcDbLine
 10
450.708618
 20
158.016136
 30
0.0
 11
450.708618
 21
158.016136
 31
0.0
  0
LINE
  5
1dc
100
AcDbEntity
  8
Layer_1
 62
7
100
AcDbLine
 10
642.405243
 20
144.141112
 30
0.0
 11
602.625837
 21
144.141112
 31
0.0
  0
LINE
  5
1dd
100
AcDbEntity
  8
Layer_1
 62
7
100
AcDbLine
 10
609.025836
 20
235.850273
 30
0.0
 11
642.405243
 21
144.141112
 31
0.0
  0
LINE
  5
1de
100
AcDbEntity
  8
Layer_1
 62
7
100
AcDbLine
 10
609.025836
 20
241.641112
 30
0.0
 11
609.025836
 21
235.850273
 31
0.0
  0
LINE
  5
1df
100
AcDbEntity
  8
Layer_1
 62
7
100
AcDbLine
 10
629.025838
 20
261.641112
 30
0.0
 11
609.025836
 21
241.641112
 31
0.0
  0
LINE
  5
1e0
100
AcDbEntity
  8
Layer_1
 62
7
100
AcDbLine
 10
629.025838
 20
288.141112
 30
0.0
 11
629.025838
 21
261.641112
 31
0.0
  0
SPLINE
  5
1e1
100
AcDbEntity
  8
Layer_1
 62
7
100
AcDbSpline
 70
0
 71
3
 72
25
 73
21
 74
19
 40
0.000000
 40
0.000000
 40
0.000000
 40
0.000000
 40
0.916030
 40
1.818951
 40
2.734983
 40
3.651013
 40
4.553934
 40
5.469966
 40
6.385996
 40
7.288917
 40
8.204948
 40
9.120979
 40
10.023900
 40
10.939930
 40
11.855962
 40
12.758883
 40
13.674913
 40
14.590944
 40
15.493865
 40
16.409896
 40
16.409896
 40
16.409896
 40
16.409896
 10
450.708618
 20
158.016136
 30
0.0
 10
451.015519
 20
158.047499
 30
0.0
 10
451.624928
 20
158.109777
 30
0.0
 10
452.430273
 20
158.592952
 30
0.0
 10
453.029025
 20
159.300402
 30
0.0
 10
453.346585
 20
160.176445
 30
0.0
 10
453.346584
 20
161.106026
 30
0.0
 10
453.029026
 20
161.980843
 30
0.0
 10
452.430272
 20
162.693191
 30
0.0
 10
451.624928
 20
163.158164
 30
0.0
 10
450.708618
 20
163.320510
 30
0.0
 10
449.792307
 20
163.158164
 30
0.0
 10
448.986963
 20
162.693192
 30
0.0
 10
448.388210
 20
161.980843
 30
0.0
 10
448.070652
 20
161.106026
 30
0.0
 10
448.070651
 20
160.176445
 30
0.0
 10
448.388211
 20
159.300402
 30
0.0
 10
448.986962
 20
158.592951
 30
0.0
 10
449.792307
 20
158.109777
 30
0.0
 10
450.401717
 20
158.047499
 30
0.0
 10
450.708618
 20
158.016136
 30
0.0
 11
450.708618
 21
158.016136
 31
0.0
 11
451.610603
 21
158.175930
 31
0.0
 11
452.392556
 21
158.627390
 31
0.0
 11
452.981935
 21
159.328636
 31
0.0
 11
453.294543
 21
160.189674
 31
0.0
 11
453.294543
 21
161.092595
 31
0.0
 11
452.981935
 21
161.953636
 31
0.0
 11
452.392556
 21
162.654881
 31
0.0
 11
451.610603
 21
163.106341
 31
0.0
 11
450.708618
 21
163.266135
 31
0.0
 11
449.806632
 21
163.106341
 31
0.0
 11
449.024679
 21
162.654881
 31
0.0
 11
448.435301
 21
161.953636
 31
0.0
 11
448.122693
 21
161.092595
 31
0.0
 11
448.122693
 21
160.189674
 31
0.0
 11
448.435301
 21
159.328636
 31
0.0
 11
449.024679
 21
158.627390
 31
0.0
 11
449.806632
 21
158.175930
 31
0.0
 11
450.708618
 21
158.016136
 31
0.0
  0
LINE
  5
1e2
100
AcDbEntity
  8
Layer_1
 62
7
100
AcDbLine
 10
629.025838
 20
288.141112
 30
0.0
 11
383.525837
 21
288.141112
 31
0.0
  0
LINE
  5
1e3
100
AcDbEntity
  8
Layer_1
 62
7
100
AcDbLine
 10
383.525837
 20
288.141112
 30
0.0
 11
383.525837
 21
241.641112
 31
0.0
  0
LINE
  5
1e4
100
AcDbEntity
  8
Layer_1
 62
7
100
AcDbLine
 10
383.525837
 20
241.641112
 30
0.0
 11
586.980792
 21
187.125521
 31
0.0
  0
LINE
  5
1e5
100
AcDbEntity
  8
Layer_1
 62
7
100
AcDbLine
 10
586.980792
 20
187.125521
 30
0.0
 11
602.625837
 21
144.141112
 31
0.0
  0
SPLINE
  5
1e6
100
AcDbEntity
  8
Layer_1
 62
7
100
AcDbSpline
 70
0
 71
3
 72
25
 73
21
 74
19
 40
0.000000
 40
0.000000
 40
0.000000
 40
0.000000
 40
0.916030
 40
1.818951
 40
2.734983
 40
3.651013
 40
4.553934
 40
5.469965
 40
6.385995
 40
7.288916
 40
8.204947
 40
9.120978
 40
10.023899
 40
10.939930
 40
11.855960
 40
12.758881
 40
13.674912
 40
14.590942
 40
15.493864
 40
16.409895
 40
16.409895
 40
16.409895
 40
16.409895
 10
620.125836
 20
157.531905
 30
0.0
 10
619.818935
 20
157.500542
 30
0.0
 10
619.209526
 20
157.438264
 30
0.0
 10
618.404182
 20
156.955089
 30
0.0
 10
617.805429
 20
156.247640
 30
0.0
 10
617.487872
 20
155.371595
 30
0.0
 10
617.487872
 20
154.442015
 30
0.0
 10
617.805428
 20
153.567197
 30
0.0
 10
618.404182
 20
152.854849
 30
0.0
 10
619.209526
 20
152.389876
 30
0.0
 10
620.125837
 20
152.227532
 30
0.0
 10
621.042147
 20
152.389877
 30
0.0
 10
621.847492
 20
152.854849
 30
0.0
 10
622.446243
 20
153.567199
 30
0.0
 10
622.763803
 20
154.442015
 30
0.0
 10
622.763803
 20
155.371596
 30
0.0
 10
622.446243
 20
156.247639
 30
0.0
 10
621.847492
 20
156.955090
 30
0.0
 10
621.042147
 20
157.438264
 30
0.0
 10
620.432737
 20
157.500542
 30
0.0
 10
620.125836
 20
157.531905
 30
0.0
 11
620.125836
 21
157.531905
 31
0.0
 11
619.223851
 21
157.372112
 31
0.0
 11
618.441898
 21
156.920651
 31
0.0
 11
617.852519
 21
156.219406
 31
0.0
 11
617.539913
 21
155.358366
 31
0.0
 11
617.539913
 21
154.455445
 31
0.0
 11
617.852519
 21
153.594405
 31
0.0
 11
618.441898
 21
152.893160
 31
0.0
 11
619.223851
 21
152.441700
 31
0.0
 11
620.125836
 21
152.281906
 31
0.0
 11
621.027822
 21
152.441700
 31
0.0
 11
621.809775
 21
152.893161
 31
0.0
 11
622.399153
 21
153.594406
 31
0.0
 11
622.711761
 21
154.455446
 31
0.0
 11
622.711761
 21
155.358366
 31
0.0
 11
622.399153
 21
156.219406
 31
0.0
 11
621.809775
 21
156.920651
 31
0.0
 11
621.027822
 21
157.372112
 31
0.0
 11
620.125836
 21
157.531905
 31
0.0
  0
LINE
  5
1e7
100
AcDbEntity
  8
Layer_1
 62
7
100
AcDbLine
 10
620.125836
 20
157.531905
 30
0.0
 11
620.125836
 21
157.531907
 31
0.0
  0
SPLINE
  5
1e8
100
AcDbEntity
  8
Layer_1
 62
7
100
AcDbSpline
 70
0
 71
3
 72
25
 73
21
 74
19
 40
0.000000
 40
0.000000
 40
0.000000
 40
0.000000
 40
0.916030
 40
1.818950
 40
2.734981
 40
3.651011
 40
4.553932
 40
5.469964
 40
6.385993
 40
7.288913
 40
8.204944
 40
9.120976
 40
10.023897
 40
10.939927
 40
11.855958
 40
12.758879
 40
13.674909
 40
14.590940
 40
15.493861
 40
16.409893
 40
16.409893
 40
16.409893
 40
16.409893
 10
609.025836
 20
274.266111
 30
0.0
 10
608.718935
 20
274.234748
 30
0.0
 10
608.109526
 20
274.172470
 30
0.0
 10
607.304182
 20
273.689296
 30
0.0
 10
606.705432
 20
272.981844
 30
0.0
 10
606.387872
 20
272.105802
 30
0.0
 10
606.387872
 20
271.176221
 30
0.0
 10
606.705431
 20
270.301405
 30
0.0
 10
607.304183
 20
269.589055
 30
0.0
 10
608.109526
 20
269.124083
 30
0.0
 10
609.025836
 20
268.961737
 30
0.0
 10
609.942147
 20
269.124082
 30
0.0
 10
610.747492
 20
269.589055
 30
0.0
 10
611.346243
 20
270.301405
 30
0.0
 10
611.663802
 20
271.176221
 30
0.0
 10
611.663803
 20
272.105802
 30
0.0
 10
611.346242
 20
272.981844
 30
0.0
 10
610.747492
 20
273.689296
 30
0.0
 10
609.942147
 20
274.172470
 30
0.0
 10
609.332737
 20
274.234748
 30
0.0
 10
609.025836
 20
274.266111
 30
0.0
 11
609.025836
 21
274.266111
 31
0.0
 11
608.123851
 21
274.106318
 31
0.0
 11
607.341899
 21
273.654857
 31
0.0
 11
606.752522
 21
272.953611
 31
0.0
 11
606.439914
 21
272.092573
 31
0.0
 11
606.439914
 21
271.189652
 31
0.0
 11
606.752522
 21
270.328611
 31
0.0
 11
607.341899
 21
269.627366
 31
0.0
 11
608.123851
 21
269.175906
 31
0.0
 11
609.025836
 21
269.016112
 31
0.0
 11
609.927823
 21
269.175906
 31
0.0
 11
610.709776
 21
269.627366
 31
0.0
 11
611.299153
 21
270.328611
 31
0.0
 11
611.611761
 21
271.189652
 31
0.0
 11
611.611761
 21
272.092573
 31
0.0
 11
611.299153
 21
272.953611
 31
0.0
 11
610.709776
 21
273.654857
 31
0.0
 11
609.927823
 21
274.106318
 31
0.0
 11
609.025836
 21
274.266111
 31
0.0
  0
LINE
  5
1e9
100
AcDbEntity
  8
Layer_1
 62
7
100
AcDbLine
 10
609.025836
 20
274.266111
 30
0.0
 11
609.025836
 21
274.266111
 31
0.0
  0
SPLINE
  5
1ea
100
AcDbEntity
  8
Layer_1
 62
7
100
AcDbSpline
 70
0
 71
3
 72
25
 73
21
 74
19
 40
0.000000
 40
0.000000
 40
0.000000
 40
0.000000
 40
0.916031
 40
1.818952
 40
2.734983
 40
3.651013
 40
4.553934
 40
5.469966
 40
6.385996
 40
7.288917
 40
8.204948
 40
9.120979
 40
10.023900
 40
10.939931
 40
11.855962
 40
12.758883
 40
13.674912
 40
14.590944
 40
15.493865
 40
16.409895
 40
16.409895
 40
16.409895
 40
16.409895
 10
403.525838
 20
274.266111
 30
0.0
 10
403.218937
 20
274.234748
 30
0.0
 10
402.609527
 20
274.172470
 30
0.0
 10
401.804182
 20
273.689296
 30
0.0
 10
401.205431
 20
272.981845
 30
0.0
 10
400.887871
 20
272.105802
 30
0.0
 10
400.887871
 20
271.176221
 30
0.0
 10
401.205430
 20
270.301404
 30
0.0
 10
401.804182
 20
269.589055
 30
0.0
 10
402.609527
 20
269.124083
 30
0.0
 10
403.525837
 20
268.961737
 30
0.0
 10
404.442148
 20
269.124083
 30
0.0
 10
405.247491
 20
269.589056
 30
0.0
 10
405.846246
 20
270.301403
 30
0.0
 10
406.163801
 20
271.176221
 30
0.0
 10
406.163802
 20
272.105802
 30
0.0
 10
405.846245
 20
272.981846
 30
0.0
 10
405.247492
 20
273.689295
 30
0.0
 10
404.442148
 20
274.172470
 30
0.0
 10
403.832738
 20
274.234748
 30
0.0
 10
403.525838
 20
274.266111
 30
0.0
 11
403.525838
 21
274.266111
 31
0.0
 11
402.623852
 21
274.106318
 31
0.0
 11
401.841899
 21
273.654857
 31
0.0
 11
401.252521
 21
272.953611
 31
0.0
 11
400.939913
 21
272.092573
 31
0.0
 11
400.939913
 21
271.189652
 31
0.0
 11
401.252521
 21
270.328611
 31
0.0
 11
401.841899
 21
269.627366
 31
0.0
 11
402.623852
 21
269.175906
 31
0.0
 11
403.525838
 21
269.016112
 31
0.0
 11
404.427823
 21
269.175906
 31
0.0
 11
405.209775
 21
269.627366
 31
0.0
 11
405.799155
 21
270.328611
 31
0.0
 11
406.111761
 21
271.189652
 31
0.0
 11
406.111761
 21
272.092573
 31
0.0
 11
405.799155
 21
272.953611
 31
0.0
 11
405.209775
 21
273.654857
 31
0.0
 11
404.427823
 21
274.106318
 31
0.0
 11
403.525838
 21
274.266111
 31
0.0
  0
LINE
  5
1eb
100
AcDbEntity
  8
Layer_1
 62
7
100
AcDbLine
 10
403.525838
 20
274.266111
 30
0.0
 11
403.525838
 21
274.266111
 31
0.0
  0
LINE
  5
1ec
100
AcDbEntity
  8
Layer_1
 62
7
100
AcDbLine
 10
506.275837
 20
274.266111
 30
0.0
 11
506.275837
 21
274.266111
 31
0.0
  0
LINE
  5
1ed
100
AcDbEntity
  8
Layer_1
 62
7
100
AcDbLine
 10
642.405243
 20
144.141112
 30
0.0
 11
602.625837
 21
144.141112
 31
0.0
  0
LINE
  5
1ee
100
AcDbEntity
  8
Layer_1
 62
7
100
AcDbLine
 10
609.025836
 20
52.431951
 30
0.0
 11
642.405243
 21
144.141112
 31
0.0
  0
LINE
  5
1ef
100
AcDbEntity
  8
Layer_1
 62
7
100
AcDbLine
 10
609.025836
 20
46.641113
 30
0.0
 11
609.025836
 21
52.431951
 31
0.0
  0
LINE
  5
1f0
100
AcDbEntity
  8
Layer_1
 62
7
100
AcDbLine
 10
629.025838
 20
26.641113
 30
0.0
 11
609.025836
 21
46.641113
 31
0.0
  0
LINE
  5
1f1
100
AcDbEntity
  8
Layer_1
 62
7
100
AcDbLine
 10
629.025838
 20
0.141112
 30
0.0
 11
629.025838
 21
26.641113
 31
0.0
  0
SPLINE
  5
1f2
100
AcDbEntity
  8
Layer_1
 62
7
100
AcDbSpline
 70
0
 71
3
 72
25
 73
21
 74
19
 40
0.000000
 40
0.000000
 40
0.000000
 40
0.000000
 40
0.916030
 40
1.818951
 40
2.734983
 40
3.651013
 40
4.553934
 40
5.469966
 40
6.385996
 40
7.288917
 40
8.204948
 40
9.120979
 40
10.023900
 40
10.939930
 40
11.855962
 40
12.758883
 40
13.674913
 40
14.590944
 40
15.493865
 40
16.409896
 40
16.409896
 40
16.409896
 40
16.409896
 10
506.275837
 20
274.266111
 30
0.0
 10
505.968936
 20
274.234748
 30
0.0
 10
505.359527
 20
274.172470
 30
0.0
 10
504.554182
 20
273.689295
 30
0.0
 10
503.955430
 20
272.981845
 30
0.0
 10
503.637870
 20
272.105802
 30
0.0
 10
503.637871
 20
271.176221
 30
0.0
 10
503.955429
 20
270.301404
 30
0.0
 10
504.554183
 20
269.589056
 30
0.0
 10
505.359526
 20
269.124083
 30
0.0
 10
506.275837
 20
268.961737
 30
0.0
 10
507.192148
 20
269.124083
 30
0.0
 10
507.997492
 20
269.589055
 30
0.0
 10
508.596244
 20
270.301404
 30
0.0
 10
508.913803
 20
271.176221
 30
0.0
 10
508.913803
 20
272.105802
 30
0.0
 10
508.596243
 20
272.981845
 30
0.0
 10
507.997493
 20
273.689296
 30
0.0
 10
507.192147
 20
274.172470
 30
0.0
 10
506.582738
 20
274.234748
 30
0.0
 10
506.275837
 20
274.266111
 30
0.0
 11
506.275837
 21
274.266111
 31
0.0
 11
505.373851
 21
274.106318
 31
0.0
 11
504.591899
 21
273.654857
 31
0.0
 11
504.002520
 21
272.953611
 31
0.0
 11
503.689912
 21
272.092573
 31
0.0
 11
503.689912
 21
271.189652
 31
0.0
 11
504.002520
 21
270.328611
 31
0.0
 11
504.591899
 21
269.627366
 31
0.0
 11
505.373851
 21
269.175906
 31
0.0
 11
506.275837
 21
269.016112
 31
0.0
 11
507.177823
 21
269.175906
 31
0.0
 11
507.959776
 21
269.627366
 31
0.0
 11
508.549154
 21
270.328611
 31
0.0
 11
508.861762
 21
271.189652
 31
0.0
 11
508.861762
 21
272.092573
 31
0.0
 11
508.549154
 21
272.953611
 31
0.0
 11
507.959776
 21
273.654857
 31
0.0
 11
507.177823
 21
274.106318
 31
0.0
 11
506.275837
 21
274.266111
 31
0.0
  0
LINE
  5
1f3
100
AcDbEntity
  8
Layer_1
 62
7
100
AcDbLine
 10
629.025838
 20
0.141112
 30
0.0
 11
383.525837
 21
0.141112
 31
0.0
  0
LINE
  5
1f4
100
AcDbEntity
  8
Layer_1
 62
7
100
AcDbLine
 10
383.525837
 20
0.141112
 30
0.0
 11
383.525837
 21
46.641113
 31
0.0
  0
LINE
  5
1f5
100
AcDbEntity
  8
Layer_1
 62
7
100
AcDbLine
 10
383.525837
 20
46.641113
 30
0.0
 11
586.980792
 21
101.156703
 31
0.0
  0
LINE
  5
1f6
100
AcDbEntity
  8
Layer_1
 62
7
100
AcDbLine
 10
586.980792
 20
101.156703
 30
0.0
 11
602.625837
 21
144.141112
 31
0.0
  0
SPLINE
  5
1f7
100
AcDbEntity
  8
Layer_1
 62
7
100
AcDbSpline
 70
0
 71
3
 72
25
 73
21
 74
19
 40
0.000000
 40
0.000000
 40
0.000000
 40
0.000000
 40
0.916030
 40
1.818951
 40
2.734983
 40
3.651013
 40
4.553934
 40
5.469965
 40
6.385995
 40
7.288916
 40
8.204947
 40
9.120978
 40
10.023899
 40
10.939930
 40
11.855960
 40
12.758881
 40
13.674912
 40
14.590942
 40
15.493864
 40
16.409895
 40
16.409895
 40
16.409895
 40
16.409895
 10
620.125836
 20
130.750319
 30
0.0
 10
619.818935
 20
130.781683
 30
0.0
 10
619.209526
 20
130.843961
 30
0.0
 10
618.404182
 20
131.327136
 30
0.0
 10
617.805429
 20
132.034585
 30
0.0
 10
617.487872
 20
132.910629
 30
0.0
 10
617.487872
 20
133.840210
 30
0.0
 10
617.805428
 20
134.715027
 30
0.0
 10
618.404182
 20
135.427375
 30
0.0
 10
619.209526
 20
135.892348
 30
0.0
 10
620.125837
 20
136.054693
 30
0.0
 10
621.042147
 20
135.892348
 30
0.0
 10
621.847492
 20
135.427375
 30
0.0
 10
622.446243
 20
134.715026
 30
0.0
 10
622.763803
 20
133.840210
 30
0.0
 10
622.763803
 20
132.910629
 30
0.0
 10
622.446243
 20
132.034586
 30
0.0
 10
621.847492
 20
131.327135
 30
0.0
 10
621.042147
 20
130.843961
 30
0.0
 10
620.432737
 20
130.781683
 30
0.0
 10
620.125836
 20
130.750319
 30
0.0
 11
620.125836
 21
130.750319
 31
0.0
 11
619.223851
 21
130.910113
 31
0.0
 11
618.441898
 21
131.361573
 31
0.0
 11
617.852519
 21
132.062819
 31
0.0
 11
617.539913
 21
132.923858
 31
0.0
 11
617.539913
 21
133.826779
 31
0.0
 11
617.852519
 21
134.687819
 31
0.0
 11
618.441898
 21
135.389065
 31
0.0
 11
619.223851
 21
135.840525
 31
0.0
 11
620.125836
 21
136.000318
 31
0.0
 11
621.027822
 21
135.840525
 31
0.0
 11
621.809775
 21
135.389064
 31
0.0
 11
622.399153
 21
134.687818
 31
0.0
 11
622.711761
 21
133.826779
 31
0.0
 11
622.711761
 21
132.923858
 31
0.0
 11
622.399153
 21
132.062819
 31
0.0
 11
621.809775
 21
131.361573
 31
0.0
 11
621.027822
 21
130.910113
 31
0.0
 11
620.125836
 21
130.750319
 31
0.0
  0
LINE
  5
1f8
100
AcDbEntity
  8
Layer_1
 62
7
100
AcDbLine
 10
620.125836
 20
130.750319
 30
0.0
 11
620.125836
 21
130.750318
 31
0.0
  0
SPLINE
  5
1f9
100
AcDbEntity
  8
Layer_1
 62
7
100
AcDbSpline
 70
0
 71
3
 72
25
 73
21
 74
19
 40
0.000000
 40
0.000000
 40
0.000000
 40
0.000000
 40
0.916030
 40
1.818950
 40
2.734981
 40
3.651011
 40
4.553932
 40
5.469964
 40
6.385993
 40
7.288913
 40
8.204944
 40
9.120976
 40
10.023897
 40
10.939927
 40
11.855958
 40
12.758879
 40
13.674909
 40
14.590940
 40
15.493861
 40
16.409893
 40
16.409893
 40
16.409893
 40
16.409893
 10
609.025836
 20
14.016114
 30
0.0
 10
608.718935
 20
14.047477
 30
0.0
 10
608.109526
 20
14.109755
 30
0.0
 10
607.304182
 20
14.592929
 30
0.0
 10
606.705432
 20
15.300380
 30
0.0
 10
606.387872
 20
16.176422
 30
0.0
 10
606.387872
 20
17.106004
 30
0.0
 10
606.705431
 20
17.980820
 30
0.0
 10
607.304183
 20
18.693169
 30
0.0
 10
608.109526
 20
19.158142
 30
0.0
 10
609.025836
 20
19.320488
 30
0.0
 10
609.942147
 20
19.158142
 30
0.0
 10
610.747492
 20
18.693170
 30
0.0
 10
611.346243
 20
17.980820
 30
0.0
 10
611.663802
 20
17.106004
 30
0.0
 10
611.663803
 20
16.176422
 30
0.0
 10
611.346242
 20
15.300380
 30
0.0
 10
610.747492
 20
14.592929
 30
0.0
 10
609.942147
 20
14.109754
 30
0.0
 10
609.332737
 20
14.047477
 30
0.0
 10
609.025836
 20
14.016114
 30
0.0
 11
609.025836
 21
14.016114
 31
0.0
 11
608.123851
 21
14.175907
 31
0.0
 11
607.341899
 21
14.627367
 31
0.0
 11
606.752522
 21
15.328613
 31
0.0
 11
606.439914
 21
16.189652
 31
0.0
 11
606.439914
 21
17.092573
 31
0.0
 11
606.752522
 21
17.953613
 31
0.0
 11
607.341899
 21
18.654858
 31
0.0
 11
608.123851
 21
19.106319
 31
0.0
 11
609.025836
 21
19.266113
 31
0.0
 11
609.927823
 21
19.106319
 31
0.0
 11
610.709776
 21
18.654858
 31
0.0
 11
611.299153
 21
17.953613
 31
0.0
 11
611.611761
 21
17.092573
 31
0.0
 11
611.611761
 21
16.189652
 31
0.0
 11
611.299153
 21
15.328613
 31
0.0
 11
610.709776
 21
14.627367
 31
0.0
 11
609.927823
 21
14.175907
 31
0.0
 11
609.025836
 21
14.016114
 31
0.0
  0
LINE
  5
1fa
100
AcDbEntity
  8
Layer_1
 62
7
100
AcDbLine
 10
609.025836
 20
14.016114
 30
0.0
 11
609.025836
 21
14.016114
 31
0.0
  0
SPLINE
  5
1fb
100
AcDbEntity
  8
Layer_1
 62
7
100
AcDbSpline
 70
0
 71
3
 72
25
 73
21
 74
19
 40
0.000000
 40
0.000000
 40
0.000000
 40
0.000000
 40
0.916031
 40
1.818952
 40
2.734983
 40
3.651013
 40
4.553934
 40
5.469966
 40
6.385996
 40
7.288917
 40
8.204948
 40
9.120979
 40
10.023900
 40
10.939931
 40
11.855962
 40
12.758883
 40
13.674912
 40
14.590944
 40
15.493865
 40
16.409895
 40
16.409895
 40
16.409895
 40
16.409895
 10
403.525838
 20
14.016114
 30
0.0
 10
403.218937
 20
14.047477
 30
0.0
 10
402.609527
 20
14.109755
 30
0.0
 10
401.804182
 20
14.592929
 30
0.0
 10
401.205431
 20
15.300380
 30
0.0
 10
400.887871
 20
16.176422
 30
0.0
 10
400.887871
 20
17.106004
 30
0.0
 10
401.205430
 20
17.980820
 30
0.0
 10
401.804182
 20
18.693170
 30
0.0
 10
402.609527
 20
19.158142
 30
0.0
 10
403.525837
 20
19.320488
 30
0.0
 10
404.442148
 20
19.158142
 30
0.0
 10
405.247491
 20
18.693169
 30
0.0
 10
405.846246
 20
17.980821
 30
0.0
 10
406.163801
 20
17.106003
 30
0.0
 10
406.163802
 20
16.176423
 30
0.0
 10
405.846245
 20
15.300379
 30
0.0
 10
405.247492
 20
14.592929
 30
0.0
 10
404.442148
 20
14.109755
 30
0.0
 10
403.832738
 20
14.047477
 30
0.0
 10
403.525838
 20
14.016114
 30
0.0
 11
403.525838
 21
14.016114
 31
0.0
 11
402.623852
 21
14.175907
 31
0.0
 11
401.841899
 21
14.627367
 31
0.0
 11
401.252521
 21
15.328613
 31
0.0
 11
400.939913
 21
16.189652
 31
0.0
 11
400.939913
 21
17.092573
 31
0.0
 11
401.252521
 21
17.953613
 31
0.0
 11
401.841899
 21
18.654858
 31
0.0
 11
402.623852
 21
19.106319
 31
0.0
 11
403.525838
 21
19.266113
 31
0.0
 11
404.427823
 21
19.106319
 31
0.0
 11
405.209775
 21
18.654858
 31
0.0
 11
405.799155
 21
17.953613
 31
0.0
 11
406.111761
 21
17.092573
 31
0.0
 11
406.111761
 21
16.189652
 31
0.0
 11
405.799155
 21
15.328613
 31
0.0
 11
405.209775
 21
14.627367
 31
0.0
 11
404.427823
 21
14.175907
 31
0.0
 11
403.525838
 21
14.016114
 31
0.0
  0
LINE
  5
1fc
100
AcDbEntity
  8
Layer_1
 62
7
100
AcDbLine
 10
403.525838
 20
14.016114
 30
0.0
 11
403.525838
 21
14.016114
 31
0.0
  0
LINE
  5
1fd
100
AcDbEntity
  8
Layer_1
 62
7
100
AcDbLine
 10
506.275837
 20
14.016114
 30
0.0
 11
506.275837
 21
14.016114
 31
0.0
  0
LINE
  5
1fe
100
AcDbEntity
  8
Layer_1
 62
7
100
AcDbLine
 10
314.579212
 20
0.141118
 30
0.0
 11
354.358617
 21
0.141118
 31
0.0
  0
LINE
  5
1ff
100
AcDbEntity
  8
Layer_1
 62
7
100
AcDbLine
 10
347.958619
 20
91.850279
 30
0.0
 11
314.579212
 21
0.141118
 31
0.0
  0
LINE
  5
200
100
AcDbEntity
  8
Layer_1
 62
7
100
AcDbLine
 10
347.958619
 20
97.641118
 30
0.0
 11
347.958619
 21
91.850279
 31
0.0
  0
LINE
  5
201
100
AcDbEntity
  8
Layer_1
 62
7
100
AcDbLine
 10
327.958617
 20
117.641117
 30
0.0
 11
347.958619
 21
97.641118
 31
0.0
  0
LINE
  5
202
100
AcDbEntity
  8
Layer_1
 62
7
100
AcDbLine
 10
327.958617
 20
144.141118
 30
0.0
 11
327.958617
 21
117.641117
 31
0.0
  0
SPLINE
  5
203
100
AcDbEntity
  8
Layer_1
 62
7
100
AcDbSpline
 70
0
 71
3
 72
25
 73
21
 74
19
 40
0.000000
 40
0.000000
 40
0.000000
 40
0.000000
 40
0.916030
 40
1.818951
 40
2.734983
 40
3.651013
 40
4.553934
 40
5.469966
 40
6.385996
 40
7.288917
 40
8.204948
 40
9.120979
 40
10.023900
 40
10.939930
 40
11.855962
 40
12.758883
 40
13.674913
 40
14.590944
 40
15.493865
 40
16.409896
 40
16.409896
 40
16.409896
 40
16.409896
 10
506.275837
 20
14.016114
 30
0.0
 10
505.968936
 20
14.047477
 30
0.0
 10
505.359527
 20
14.109755
 30
0.0
 10
504.554182
 20
14.592929
 30
0.0
 10
503.955430
 20
15.300379
 30
0.0
 10
503.637870
 20
16.176423
 30
0.0
 10
503.637871
 20
17.106004
 30
0.0
 10
503.955429
 20
17.980821
 30
0.0
 10
504.554183
 20
18.693169
 30
0.0
 10
505.359526
 20
19.158142
 30
0.0
 10
506.275837
 20
19.320488
 30
0.0
 10
507.192148
 20
19.158142
 30
0.0
 10
507.997492
 20
18.693170
 30
0.0
 10
508.596244
 20
17.980820
 30
0.0
 10
508.913803
 20
17.106004
 30
0.0
 10
508.913803
 20
16.176422
 30
0.0
 10
508.596243
 20
15.300380
 30
0.0
 10
507.997493
 20
14.592929
 30
0.0
 10
507.192147
 20
14.109755
 30
0.0
 10
506.582738
 20
14.047477
 30
0.0
 10
506.275837
 20
14.016114
 30
0.0
 11
506.275837
 21
14.016114
 31
0.0
 11
505.373851
 21
14.175907
 31
0.0
 11
504.591899
 21
14.627367
 31
0.0
 11
504.002520
 21
15.328613
 31
0.0
 11
503.689912
 21
16.189652
 31
0.0
 11
503.689912
 21
17.092573
 31
0.0
 11
504.002520
 21
17.953613
 31
0.0
 11
504.591899
 21
18.654858
 31
0.0
 11
505.373851
 21
19.106319
 31
0.0
 11
506.275837
 21
19.266113
 31
0.0
 11
507.177823
 21
19.106319
 31
0.0
 11
507.959776
 21
18.654858
 31
0.0
 11
508.549154
 21
17.953613
 31
0.0
 11
508.861762
 21
17.092573
 31
0.0
 11
508.861762
 21
16.189652
 31
0.0
 11
508.549154
 21
15.328613
 31
0.0
 11
507.959776
 21
14.627367
 31
0.0
 11
507.177823
 21
14.175907
 31
0.0
 11
506.275837
 21
14.016114
 31
0.0
  0
LINE
  5
204
100
AcDbEntity
  8
Layer_1
 62
7
100
AcDbLine
 10
327.958617
 20
144.141118
 30
0.0
 11
573.458618
 21
144.141118
 31
0.0
  0
LINE
  5
205
100
AcDbEntity
  8
Layer_1
 62
7
100
AcDbLine
 10
573.458618
 20
144.141118
 30
0.0
 11
573.458618
 21
97.641118
 31
0.0
  0
LINE
  5
206
100
AcDbEntity
  8
Layer_1
 62
7
100
AcDbLine
 10
573.458618
 20
97.641118
 30
0.0
 11
370.003663
 21
43.125527
 31
0.0
  0
LINE
  5
207
100
AcDbEntity
  8
Layer_1
 62
7
100
AcDbLine
 10
370.003663
 20
43.125527
 30
0.0
 11
354.358617
 21
0.141118
 31
0.0
  0
SPLINE
  5
208
100
AcDbEntity
  8
Layer_1
 62
7
100
AcDbSpline
 70
0
 71
3
 72
25
 73
21
 74
19
 40
0.000000
 40
0.000000
 40
0.000000
 40
0.000000
 40
0.916030
 40
1.818951
 40
2.734983
 40
3.651013
 40
4.553934
 40
5.469965
 40
6.385995
 40
7.288916
 40
8.204947
 40
9.120978
 40
10.023899
 40
10.939930
 40
11.855960
 40
12.758881
 40
13.674912
 40
14.590942
 40
15.493864
 40
16.409895
 40
16.409895
 40
16.409895
 40
16.409895
 10
336.858618
 20
13.531911
 30
0.0
 10
337.165519
 20
13.500548
 30
0.0
 10
337.774929
 20
13.438270
 30
0.0
 10
338.580273
 20
12.955095
 30
0.0
 10
339.179026
 20
12.247646
 30
0.0
 10
339.496583
 20
11.371601
 30
0.0
 10
339.496582
 20
10.442021
 30
0.0
 10
339.179026
 20
9.567203
 30
0.0
 10
338.580272
 20
8.854855
 30
0.0
 10
337.774929
 20
8.389882
 30
0.0
 10
336.858618
 20
8.227538
 30
0.0
 10
335.942308
 20
8.389883
 30
0.0
 10
335.136963
 20
8.854855
 30
0.0
 10
334.538212
 20
9.567205
 30
0.0
 10
334.220652
 20
10.442021
 30
0.0
 10
334.220652
 20
11.371602
 30
0.0
 10
334.538212
 20
12.247645
 30
0.0
 10
335.136963
 20
12.955095
 30
0.0
 10
335.942308
 20
13.438270
 30
0.0
 10
336.551718
 20
13.500548
 30
0.0
 10
336.858618
 20
13.531911
 30
0.0
 11
336.858618
 21
13.531911
 31
0.0
 11
337.760604
 21
13.372117
 31
0.0
 11
338.542556
 21
12.920657
 31
0.0
 11
339.131935
 21
12.219411
 31
0.0
 11
339.444542
 21
11.358372
 31
0.0
 11
339.444542
 21
10.455451
 31
0.0
 11
339.131935
 21
9.594411
 31
0.0
 11
338.542556
 21
8.893166
 31
0.0
 11
337.760604
 21
8.441705
 31
0.0
 11
336.858618
 21
8.281912
 31
0.0
 11
335.956632
 21
8.441706
 31
0.0
 11
335.174679
 21
8.893166
 31
0.0
 11
334.585302
 21
9.594412
 31
0.0
 11
334.272693
 21
10.455451
 31
0.0
 11
334.272693
 21
11.358372
 31
0.0
 11
334.585302
 21
12.219411
 31
0.0
 11
335.174679
 21
12.920657
 31
0.0
 11
335.956632
 21
13.372117
 31
0.0
 11
336.858618
 21
13.531911
 31
0.0
  0
LINE
  5
209
100
AcDbEntity
  8
Layer_1
 62
7
100
AcDbLine
 10
336.858618
 20
13.531911
 30
0.0
 11
336.858618
 21
13.531912
 31
0.0
  0
SPLINE
  5
20a
100
AcDbEntity
  8
Layer_1
 62
7
100
AcDbSpline
 70
0
 71
3
 72
25
 73
21
 74
19
 40
0.000000
 40
0.000000
 40
0.000000
 40
0.000000
 40
0.916030
 40
1.818950
 40
2.734981
 40
3.651011
 40
4.553932
 40
5.469964
 40
6.385993
 40
7.288913
 40
8.204944
 40
9.120976
 40
10.023897
 40
10.939927
 40
11.855958
 40
12.758879
 40
13.674909
 40
14.590940
 40
15.493861
 40
16.409893
 40
16.409893
 40
16.409893
 40
16.409893
 10
347.958619
 20
130.266117
 30
0.0
 10
348.265520
 20
130.234753
 30
0.0
 10
348.874929
 20
130.172476
 30
0.0
 10
349.680273
 20
129.689301
 30
0.0
 10
350.279022
 20
128.981850
 30
0.0
 10
350.596583
 20
128.105808
 30
0.0
 10
350.596582
 20
127.176227
 30
0.0
 10
350.279023
 20
126.301410
 30
0.0
 10
349.680272
 20
125.589061
 30
0.0
 10
348.874929
 20
125.124088
 30
0.0
 10
347.958618
 20
124.961743
 30
0.0
 10
347.042307
 20
125.124088
 30
0.0
 10
346.236963
 20
125.589061
 30
0.0
 10
345.638211
 20
126.301410
 30
0.0
 10
345.320653
 20
127.176226
 30
0.0
 10
345.320652
 20
128.105808
 30
0.0
 10
345.638212
 20
128.981850
 30
0.0
 10
346.236962
 20
129.689302
 30
0.0
 10
347.042307
 20
130.172476
 30
0.0
 10
347.651717
 20
130.234754
 30
0.0
 10
347.958619
 20
130.266117
 30
0.0
 11
347.958619
 21
130.266117
 31
0.0
 11
348.860604
 21
130.106323
 31
0.0
 11
349.642556
 21
129.654863
 31
0.0
 11
350.231933
 21
128.953617
 31
0.0
 11
350.544541
 21
128.092578
 31
0.0
 11
350.544541
 21
127.189658
 31
0.0
 11
350.231933
 21
126.328617
 31
0.0
 11
349.642556
 21
125.627372
 31
0.0
 11
348.860604
 21
125.175912
 31
0.0
 11
347.958619
 21
125.016117
 31
0.0
 11
347.056632
 21
125.175912
 31
0.0
 11
346.274679
 21
125.627372
 31
0.0
 11
345.685302
 21
126.328617
 31
0.0
 11
345.372694
 21
127.189658
 31
0.0
 11
345.372694
 21
128.092578
 31
0.0
 11
345.685302
 21
128.953617
 31
0.0
 11
346.274679
 21
129.654863
 31
0.0
 11
347.056632
 21
130.106323
 31
0.0
 11
347.958619
 21
130.266117
 31
0.0
  0
LINE
  5
20b
100
AcDbEntity
  8
Layer_1
 62
7
100
AcDbLine
 10
347.958619
 20
130.266117
 30
0.0
 11
347.958619
 21
130.266117
 31
0.0
  0
SPLINE
  5
20c
100
AcDbEntity
  8
Layer_1
 62
7
100
AcDbSpline
 70
0
 71
3
 72
25
 73
21
 74
19
 40
0.000000
 40
0.000000
 40
0.000000
 40
0.000000
 40
0.916031
 40
1.818952
 40
2.734983
 40
3.651013
 40
4.553934
 40
5.469966
 40
6.385996
 40
7.288917
 40
8.204948
 40
9.120979
 40
10.023900
 40
10.939931
 40
11.855962
 40
12.758883
 40
13.674912
 40
14.590944
 40
15.493865
 40
16.409895
 40
16.409895
 40
16.409895
 40
16.409895
 10
553.458617
 20
130.266117
 30
0.0
 10
553.765518
 20
130.234753
 30
0.0
 10
554.374928
 20
130.172476
 30
0.0
 10
555.180273
 20
129.689302
 30
0.0
 10
555.779024
 20
128.981850
 30
0.0
 10
556.096584
 20
128.105808
 30
0.0
 10
556.096583
 20
127.176227
 30
0.0
 10
555.779025
 20
126.301410
 30
0.0
 10
555.180272
 20
125.589061
 30
0.0
 10
554.374928
 20
125.124089
 30
0.0
 10
553.458617
 20
124.961743
 30
0.0
 10
552.542307
 20
125.124088
 30
0.0
 10
551.736963
 20
125.589061
 30
0.0
 10
551.138209
 20
126.301409
 30
0.0
 10
550.820653
 20
127.176227
 30
0.0
 10
550.820653
 20
128.105807
 30
0.0
 10
551.138210
 20
128.981851
 30
0.0
 10
551.736963
 20
129.689301
 30
0.0
 10
552.542307
 20
130.172476
 30
0.0
 10
553.151716
 20
130.234753
 30
0.0
 10
553.458617
 20
130.266117
 30
0.0
 11
553.458617
 21
130.266117
 31
0.0
 11
554.360603
 21
130.106323
 31
0.0
 11
555.142556
 21
129.654863
 31
0.0
 11
555.731934
 21
128.953617
 31
0.0
 11
556.044542
 21
128.092578
 31
0.0
 11
556.044542
 21
127.189658
 31
0.0
 11
555.731934
 21
126.328617
 31
0.0
 11
555.142556
 21
125.627372
 31
0.0
 11
554.360603
 21
125.175912
 31
0.0
 11
553.458617
 21
125.016117
 31
0.0
 11
552.556632
 21
125.175912
 31
0.0
 11
551.774679
 21
125.627372
 31
0.0
 11
551.185300
 21
126.328617
 31
0.0
 11
550.872694
 21
127.189658
 31
0.0
 11
550.872694
 21
128.092578
 31
0.0
 11
551.185300
 21
128.953617
 31
0.0
 11
551.774679
 21
129.654863
 31
0.0
 11
552.556632
 21
130.106323
 31
0.0
 11
553.458617
 21
130.266117
 31
0.0
  0
LINE
  5
20d
100
AcDbEntity
  8
Layer_1
 62
7
100
AcDbLine
 10
553.458617
 20
130.266117
 30
0.0
 11
553.458617
 21
130.266117
 31
0.0
  0
LINE
  5
20e
100
AcDbEntity
  8
Layer_1
 62
7
100
AcDbLine
 10
450.708618
 20
130.266117
 30
0.0
 11
450.708618
 21
130.266117
 31
0.0
  0
LINE
  5
20f
100
AcDbEntity
  8
Layer_1
 62
7
100
AcDbLine
 10
648.069824
 20
313.430935
 30
0.0
 11
648.069824
 21
353.210341
 31
0.0
  0
LINE
  5
210
100
AcDbEntity
  8
Layer_1
 62
7
100
AcDbLine
 10
739.778985
 20
346.810343
 30
0.0
 11
648.069824
 21
313.430935
 31
0.0
  0
LINE
  5
211
100
AcDbEntity
  8
Layer_1
 62
7
100
AcDbLine
 10
745.569824
 20
346.810343
 30
0.0
 11
739.778985
 21
346.810343
 31
0.0
  0
LINE
  5
212
100
AcDbEntity
  8
Layer_1
 62
7
100
AcDbLine
 10
765.569823
 20
326.810340
 30
0.0
 11
745.569824
 21
346.810343
 31
0.0
  0
LINE
  5
213
100
AcDbEntity
  8
Layer_1
 62
7
100
AcDbLine
 10
792.069824
 20
326.810340
 30
0.0
 11
765.569823
 21
326.810340
 31
0.0
  0
SPLINE
  5
214
100
AcDbEntity
  8
Layer_1
 62
7
100
AcDbSpline
 70
0
 71
3
 72
25
 73
21
 74
19
 40
0.000000
 40
0.000000
 40
0.000000
 40
0.000000
 40
0.916030
 40
1.818951
 40
2.734983
 40
3.651013
 40
4.553934
 40
5.469966
 40
6.385996
 40
7.288917
 40
8.204948
 40
9.120979
 40
10.023900
 40
10.939930
 40
11.855962
 40
12.758883
 40
13.674913
 40
14.590944
 40
15.493865
 40
16.409896
 40
16.409896
 40
16.409896
 40
16.409896
 10
450.708618
 20
130.266117
 30
0.0
 10
451.015519
 20
130.234753
 30
0.0
 10
451.624928
 20
130.172476
 30
0.0
 10
452.430273
 20
129.689301
 30
0.0
 10
453.029025
 20
128.981851
 30
0.0
 10
453.346585
 20
128.105808
 30
0.0
 10
453.346584
 20
127.176227
 30
0.0
 10
453.029026
 20
126.301410
 30
0.0
 10
452.430272
 20
125.589061
 30
0.0
 10
451.624928
 20
125.124088
 30
0.0
 10
450.708618
 20
124.961743
 30
0.0
 10
449.792307
 20
125.124089
 30
0.0
 10
448.986963
 20
125.589061
 30
0.0
 10
448.388210
 20
126.301410
 30
0.0
 10
448.070652
 20
127.176227
 30
0.0
 10
448.070651
 20
128.105808
 30
0.0
 10
448.388211
 20
128.981850
 30
0.0
 10
448.986962
 20
129.689302
 30
0.0
 10
449.792307
 20
130.172476
 30
0.0
 10
450.401717
 20
130.234753
 30
0.0
 10
450.708618
 20
130.266117
 30
0.0
 11
450.708618
 21
130.266117
 31
0.0
 11
451.610603
 21
130.106323
 31
0.0
 11
452.392556
 21
129.654863
 31
0.0
 11
452.981935
 21
128.953617
 31
0.0
 11
453.294543
 21
128.092578
 31
0.0
 11
453.294543
 21
127.189658
 31
0.0
 11
452.981935
 21
126.328617
 31
0.0
 11
452.392556
 21
125.627372
 31
0.0
 11
451.610603
 21
125.175912
 31
0.0
 11
450.708618
 21
125.016117
 31
0.0
 11
449.806632
 21
125.175912
 31
0.0
 11
449.024679
 21
125.627372
 31
0.0
 11
448.435301
 21
126.328617
 31
0.0
 11
448.122693
 21
127.189658
 31
0.0
 11
448.122693
 21
128.092578
 31
0.0
 11
448.435301
 21
128.953617
 31
0.0
 11
449.024679
 21
129.654863
 31
0.0
 11
449.806632
 21
130.106323
 31
0.0
 11
450.708618
 21
130.266117
 31
0.0
  0
LINE
  5
215
100
AcDbEntity
  8
Layer_1
 62
7
100
AcDbLine
 10
792.069824
 20
326.810340
 30
0.0
 11
792.069824
 21
572.310341
 31
0.0
  0
LINE
  5
216
100
AcDbEntity
  8
Layer_1
 62
7
100
AcDbLine
 10
792.069824
 20
572.310341
 30
0.0
 11
745.569824
 21
572.310341
 31
0.0
  0
LINE
  5
217
100
AcDbEntity
  8
Layer_1
 62
7
100
AcDbLine
 10
745.569824
 20
572.310341
 30
0.0
 11
691.054233
 21
368.855386
 31
0.0
  0
LINE
  5
218
100
AcDbEntity
  8
Layer_1
 62
7
100
AcDbLine
 10
691.054233
 20
368.855386
 30
0.0
 11
648.069824
 21
353.210341
 31
0.0
  0
SPLINE
  5
219
100
AcDbEntity
  8
Layer_1
 62
7
100
AcDbSpline
 70
0
 71
3
 72
25
 73
21
 74
19
 40
0.000000
 40
0.000000
 40
0.000000
 40
0.000000
 40
0.916030
 40
1.818951
 40
2.734983
 40
3.651013
 40
4.553934
 40
5.469965
 40
6.385995
 40
7.288916
 40
8.204947
 40
9.120978
 40
10.023899
 40
10.939930
 40
11.855960
 40
12.758881
 40
13.674912
 40
14.590942
 40
15.493864
 40
16.409895
 40
16.409895
 40
16.409895
 40
16.409895
 10
661.460617
 20
335.710342
 30
0.0
 10
661.429254
 20
336.017243
 30
0.0
 10
661.366976
 20
336.626653
 30
0.0
 10
660.883801
 20
337.431996
 30
0.0
 10
660.176351
 20
338.030750
 30
0.0
 10
659.300307
 20
338.348306
 30
0.0
 10
658.370727
 20
338.348306
 30
0.0
 10
657.495909
 20
338.030750
 30
0.0
 10
656.783561
 20
337.431996
 30
0.0
 10
656.318588
 20
336.626653
 30
0.0
 10
656.156244
 20
335.710342
 30
0.0
 10
656.318589
 20
334.794032
 30
0.0
 10
656.783561
 20
333.988687
 30
0.0
 10
657.495911
 20
333.389935
 30
0.0
 10
658.370726
 20
333.072376
 30
0.0
 10
659.300308
 20
333.072376
 30
0.0
 10
660.176351
 20
333.389935
 30
0.0
 10
660.883801
 20
333.988687
 30
0.0
 10
661.366976
 20
334.794032
 30
0.0
 10
661.429254
 20
335.403441
 30
0.0
 10
661.460617
 20
335.710342
 30
0.0
 11
661.460617
 21
335.710342
 31
0.0
 11
661.300823
 21
336.612328
 31
0.0
 11
660.849363
 21
337.394280
 31
0.0
 11
660.148117
 21
337.983659
 31
0.0
 11
659.287078
 21
338.296265
 31
0.0
 11
658.384157
 21
338.296265
 31
0.0
 11
657.523117
 21
337.983659
 31
0.0
 11
656.821872
 21
337.394280
 31
0.0
 11
656.370411
 21
336.612328
 31
0.0
 11
656.210618
 21
335.710342
 31
0.0
 11
656.370412
 21
334.808356
 31
0.0
 11
656.821872
 21
334.026403
 31
0.0
 11
657.523118
 21
333.437025
 31
0.0
 11
658.384157
 21
333.124417
 31
0.0
 11
659.287078
 21
333.124417
 31
0.0
 11
660.148117
 21
333.437025
 31
0.0
 11
660.849363
 21
334.026403
 31
0.0
 11
661.300823
 21
334.808356
 31
0.0
 11
661.460617
 21
335.710342
 31
0.0
  0
LINE
  5
21a
100
AcDbEntity
  8
Layer_1
 62
7
100
AcDbLine
 10
661.460617
 20
335.710342
 30
0.0
 11
661.460618
 21
335.710342
 31
0.0
  0
SPLINE
  5
21b
100
AcDbEntity
  8
Layer_1
 62
7
100
AcDbSpline
 70
0
 71
3
 72
25
 73
21
 74
19
 40
0.000000
 40
0.000000
 40
0.000000
 40
0.000000
 40
0.916030
 40
1.818950
 40
2.734981
 40
3.651011
 40
4.553932
 40
5.469964
 40
6.385993
 40
7.288913
 40
8.204944
 40
9.120976
 40
10.023897
 40
10.939927
 40
11.855958
 40
12.758879
 40
13.674909
 40
14.590940
 40
15.493861
 40
16.409893
 40
16.409893
 40
16.409893
 40
16.409893
 10
778.194823
 20
346.810343
 30
0.0
 10
778.163459
 20
347.117243
 30
0.0
 10
778.101182
 20
347.726652
 30
0.0
 10
777.618007
 20
348.531997
 30
0.0
 10
776.910556
 20
349.130746
 30
0.0
 10
776.034514
 20
349.448307
 30
0.0
 10
775.104932
 20
349.448306
 30
0.0
 10
774.230116
 20
349.130747
 30
0.0
 10
773.517767
 20
348.531996
 30
0.0
 10
773.052794
 20
347.726653
 30
0.0
 10
772.890449
 20
346.810342
 30
0.0
 10
773.052794
 20
345.894031
 30
0.0
 10
773.517767
 20
345.088687
 30
0.0
 10
774.230116
 20
344.489935
 30
0.0
 10
775.104932
 20
344.172376
 30
0.0
 10
776.034514
 20
344.172376
 30
0.0
 10
776.910556
 20
344.489936
 30
0.0
 10
777.618007
 20
345.088686
 30
0.0
 10
778.101182
 20
345.894031
 30
0.0
 10
778.163459
 20
346.503441
 30
0.0
 10
778.194823
 20
346.810343
 30
0.0
 11
778.194823
 21
346.810343
 31
0.0
 11
778.035029
 21
347.712328
 31
0.0
 11
777.583569
 21
348.494280
 31
0.0
 11
776.882323
 21
349.083657
 31
0.0
 11
776.021284
 21
349.396265
 31
0.0
 11
775.118364
 21
349.396265
 31
0.0
 11
774.257323
 21
349.083657
 31
0.0
 11
773.556078
 21
348.494280
 31
0.0
 11
773.104617
 21
347.712328
 31
0.0
 11
772.944823
 21
346.810343
 31
0.0
 11
773.104617
 21
345.908355
 31
0.0
 11
773.556078
 21
345.126403
 31
0.0
 11
774.257323
 21
344.537026
 31
0.0
 11
775.118364
 21
344.224418
 31
0.0
 11
776.021284
 21
344.224418
 31
0.0
 11
776.882323
 21
344.537026
 31
0.0
 11
777.583569
 21
345.126403
 31
0.0
 11
778.035029
 21
345.908355
 31
0.0
 11
778.194823
 21
346.810343
 31
0.0
  0
LINE
  5
21c
100
AcDbEntity
  8
Layer_1
 62
7
100
AcDbLine
 10
778.194823
 20
346.810343
 30
0.0
 11
778.194823
 21
346.810343
 31
0.0
  0
SPLINE
  5
21d
100
AcDbEntity
  8
Layer_1
 62
7
100
AcDbSpline
 70
0
 71
3
 72
25
 73
21
 74
19
 40
0.000000
 40
0.000000
 40
0.000000
 40
0.000000
 40
0.916031
 40
1.818952
 40
2.734983
 40
3.651013
 40
4.553934
 40
5.469966
 40
6.385996
 40
7.288917
 40
8.204948
 40
9.120979
 40
10.023900
 40
10.939931
 40
11.855962
 40
12.758883
 40
13.674912
 40
14.590944
 40
15.493865
 40
16.409895
 40
16.409895
 40
16.409895
 40
16.409895
 10
778.194823
 20
552.310341
 30
0.0
 10
778.163459
 20
552.617242
 30
0.0
 10
778.101182
 20
553.226651
 30
0.0
 10
777.618007
 20
554.031997
 30
0.0
 10
776.910556
 20
554.630747
 30
0.0
 10
776.034514
 20
554.948308
 30
0.0
 10
775.104932
 20
554.948307
 30
0.0
 10
774.230116
 20
554.630748
 30
0.0
 10
773.517767
 20
554.031996
 30
0.0
 10
773.052794
 20
553.226652
 30
0.0
 10
772.890449
 20
552.310341
 30
0.0
 10
773.052794
 20
551.394030
 30
0.0
 10
773.517767
 20
550.588687
 30
0.0
 10
774.230115
 20
549.989933
 30
0.0
 10
775.104933
 20
549.672377
 30
0.0
 10
776.034513
 20
549.672377
 30
0.0
 10
776.910557
 20
549.989934
 30
0.0
 10
777.618007
 20
550.588686
 30
0.0
 10
778.101182
 20
551.394031
 30
0.0
 10
778.163459
 20
552.003440
 30
0.0
 10
778.194823
 20
552.310341
 30
0.0
 11
778.194823
 21
552.310341
 31
0.0
 11
778.035029
 21
553.212327
 31
0.0
 11
777.583569
 21
553.994280
 31
0.0
 11
776.882323
 21
554.583658
 31
0.0
 11
776.021284
 21
554.896266
 31
0.0
 11
775.118364
 21
554.896266
 31
0.0
 11
774.257323
 21
554.583658
 31
0.0
 11
773.556078
 21
553.994280
 31
0.0
 11
773.104617
 21
553.212327
 31
0.0
 11
772.944823
 21
552.310341
 31
0.0
 11
773.104617
 21
551.408355
 31
0.0
 11
773.556078
 21
550.626403
 31
0.0
 11
774.257323
 21
550.037024
 31
0.0
 11
775.118364
 21
549.724418
 31
0.0
 11
776.021284
 21
549.724418
 31
0.0
 11
776.882323
 21
550.037024
 31
0.0
 11
777.583569
 21
550.626403
 31
0.0
 11
778.035029
 21
551.408355
 31
0.0
 11
778.194823
 21
552.310341
 31
0.0
  0
LINE
  5
21e
100
AcDbEntity
  8
Layer_1
 62
7
100
AcDbLine
 10
778.194823
 20
552.310341
 30
0.0
 11
778.194823
 21
552.310341
 31
0.0
  0
LINE
  5
21f
100
AcDbEntity
  8
Layer_1
 62
7
100
AcDbLine
 10
778.194823
 20
449.560342
 30
0.0
 11
778.194823
 21
449.560342
 31
0.0
  0
LINE
  5
220
100
AcDbEntity
  8
Layer_1
 62
7
100
AcDbLine
 10
792.069818
 20
326.810357
 30
0.0
 11
792.069818
 21
287.030952
 31
0.0
  0
LINE
  5
221
100
AcDbEntity
  8
Layer_1
 62
7
100
AcDbLine
 10
700.360657
 20
293.430950
 30
0.0
 11
792.069818
 21
326.810357
 31
0.0
  0
LINE
  5
222
100
AcDbEntity
  8
Layer_1
 62
7
100
AcDbLine
 10
694.569818
 20
293.430950
 30
0.0
 11
700.360657
 21
293.430950
 31
0.0
  0
LINE
  5
223
100
AcDbEntity
  8
Layer_1
 62
7
100
AcDbLine
 10
674.569819
 20
313.430952
 30
0.0
 11
694.569818
 21
293.430950
 31
0.0
  0
LINE
  5
224
100
AcDbEntity
  8
Layer_1
 62
7
100
AcDbLine
 10
648.069818
 20
313.430952
 30
0.0
 11
674.569819
 21
313.430952
 31
0.0
  0
SPLINE
  5
225
100
AcDbEntity
  8
Layer_1
 62
7
100
AcDbSpline
 70
0
 71
3
 72
25
 73
21
 74
19
 40
0.000000
 40
0.000000
 40
0.000000
 40
0.000000
 40
0.916030
 40
1.818951
 40
2.734983
 40
3.651013
 40
4.553934
 40
5.469966
 40
6.385996
 40
7.288917
 40
8.204948
 40
9.120979
 40
10.023900
 40
10.939930
 40
11.855962
 40
12.758883
 40
13.674913
 40
14.590944
 40
15.493865
 40
16.409896
 40
16.409896
 40
16.409896
 40
16.409896
 10
778.194823
 20
449.560342
 30
0.0
 10
778.163459
 20
449.867242
 30
0.0
 10
778.101182
 20
450.476652
 30
0.0
 10
777.618007
 20
451.281996
 30
0.0
 10
776.910557
 20
451.880748
 30
0.0
 10
776.034514
 20
452.198308
 30
0.0
 10
775.104933
 20
452.198308
 30
0.0
 10
774.230116
 20
451.880749
 30
0.0
 10
773.517767
 20
451.281996
 30
0.0
 10
773.052794
 20
450.476652
 30
0.0
 10
772.890449
 20
449.560341
 30
0.0
 10
773.052794
 20
448.644031
 30
0.0
 10
773.517767
 20
447.838687
 30
0.0
 10
774.230116
 20
447.239934
 30
0.0
 10
775.104932
 20
446.922376
 30
0.0
 10
776.034514
 20
446.922375
 30
0.0
 10
776.910556
 20
447.239935
 30
0.0
 10
777.618007
 20
447.838686
 30
0.0
 10
778.101182
 20
448.644031
 30
0.0
 10
778.163459
 20
449.253441
 30
0.0
 10
778.194823
 20
449.560342
 30
0.0
 11
778.194823
 21
449.560342
 31
0.0
 11
778.035029
 21
450.462327
 31
0.0
 11
777.583569
 21
451.244280
 31
0.0
 11
776.882323
 21
451.833659
 31
0.0
 11
776.021284
 21
452.146267
 31
0.0
 11
775.118364
 21
452.146267
 31
0.0
 11
774.257323
 21
451.833659
 31
0.0
 11
773.556078
 21
451.244280
 31
0.0
 11
773.104617
 21
450.462327
 31
0.0
 11
772.944823
 21
449.560342
 31
0.0
 11
773.104617
 21
448.658356
 31
0.0
 11
773.556078
 21
447.876403
 31
0.0
 11
774.257323
 21
447.287025
 31
0.0
 11
775.118364
 21
446.974417
 31
0.0
 11
776.021284
 21
446.974417
 31
0.0
 11
776.882323
 21
447.287025
 31
0.0
 11
777.583569
 21
447.876403
 31
0.0
 11
778.035029
 21
448.658356
 31
0.0
 11
778.194823
 21
449.560342
 31
0.0
  0
LINE
  5
226
100
AcDbEntity
  8
Layer_1
 62
7
100
AcDbLine
 10
648.069818
 20
313.430952
 30
0.0
 11
648.069818
 21
67.930951
 31
0.0
  0
LINE
  5
227
100
AcDbEntity
  8
Layer_1
 62
7
100
AcDbLine
 10
648.069818
 20
67.930951
 30
0.0
 11
694.569818
 21
67.930951
 31
0.0
  0
LINE
  5
228
100
AcDbEntity
  8
Layer_1
 62
7
100
AcDbLine
 10
694.569818
 20
67.930951
 30
0.0
 11
749.085409
 21
271.385906
 31
0.0
  0
LINE
  5
229
100
AcDbEntity
  8
Layer_1
 62
7
100
AcDbLine
 10
749.085409
 20
271.385906
 30
0.0
 11
792.069818
 21
287.030952
 31
0.0
  0
SPLINE
  5
22a
100
AcDbEntity
  8
Layer_1
 62
7
100
AcDbSpline
 70
0
 71
3
 72
25
 73
21
 74
19
 40
0.000000
 40
0.000000
 40
0.000000
 40
0.000000
 40
0.916030
 40
1.818951
 40
2.734983
 40
3.651013
 40
4.553934
 40
5.469965
 40
6.385995
 40
7.288916
 40
8.204947
 40
9.120978
 40
10.023899
 40
10.939930
 40
11.855960
 40
12.758881
 40
13.674912
 40
14.590942
 40
15.493864
 40
16.409895
 40
16.409895
 40
16.409895
 40
16.409895
 10
778.679025
 20
304.530950
 30
0.0
 10
778.710389
 20
304.224050
 30
0.0
 10
778.772666
 20
303.614640
 30
0.0
 10
779.255842
 20
302.809296
 30
0.0
 10
779.963291
 20
302.210543
 30
0.0
 10
780.839335
 20
301.892986
 30
0.0
 10
781.768916
 20
301.892986
 30
0.0
 10
782.643733
 20
302.210543
 30
0.0
 10
783.356081
 20
302.809296
 30
0.0
 10
783.821054
 20
303.614640
 30
0.0
 10
783.983399
 20
304.530951
 30
0.0
 10
783.821053
 20
305.447261
 30
0.0
 10
783.356081
 20
306.252606
 30
0.0
 10
782.643732
 20
306.851357
 30
0.0
 10
781.768916
 20
307.168917
 30
0.0
 10
780.839334
 20
307.168917
 30
0.0
 10
779.963292
 20
306.851357
 30
0.0
 10
779.255841
 20
306.252606
 30
0.0
 10
778.772667
 20
305.447261
 30
0.0
 10
778.710389
 20
304.837851
 30
0.0
 10
778.679025
 20
304.530950
 30
0.0
 11
778.679025
 21
304.530950
 31
0.0
 11
778.838819
 21
303.628965
 31
0.0
 11
779.290279
 21
302.847013
 31
0.0
 11
779.991525
 21
302.257633
 31
0.0
 11
780.852564
 21
301.945027
 31
0.0
 11
781.755485
 21
301.945027
 31
0.0
 11
782.616525
 21
302.257633
 31
0.0
 11
783.317770
 21
302.847013
 31
0.0
 11
783.769231
 21
303.628965
 31
0.0
 11
783.929024
 21
304.530950
 31
0.0
 11
783.769230
 21
305.432936
 31
0.0
 11
783.317770
 21
306.214890
 31
0.0
 11
782.616524
 21
306.804267
 31
0.0
 11
781.755485
 21
307.116876
 31
0.0
 11
780.852564
 21
307.116876
 31
0.0
 11
779.991525
 21
306.804267
 31
0.0
 11
779.290279
 21
306.214890
 31
0.0
 11
778.838819
 21
305.432936
 31
0.0
 11
778.679025
 21
304.530950
 31
0.0
  0
LINE
  5
22b
100
AcDbEntity
  8
Layer_1
 62
7
100
AcDbLine
 10
778.679025
 20
304.530950
 30
0.0
 11
778.679024
 21
304.530950
 31
0.0
  0
SPLINE
  5
22c
100
AcDbEntity
  8
Layer_1
 62
7
100
AcDbSpline
 70
0
 71
3
 72
25
 73
21
 74
19
 40
0.000000
 40
0.000000
 40
0.000000
 40
0.000000
 40
0.916030
 40
1.818950
 40
2.734981
 40
3.651011
 40
4.553932
 40
5.469964
 40
6.385993
 40
7.288913
 40
8.204944
 40
9.120976
 40
10.023897
 40
10.939927
 40
11.855958
 40
12.758879
 40
13.674909
 40
14.590940
 40
15.493861
 40
16.409893
 40
16.409893
 40
16.409893
 40
16.409893
 10
661.944820
 20
293.430950
 30
0.0
 10
661.976183
 20
293.124049
 30
0.0
 10
662.038461
 20
292.514640
 30
0.0
 10
662.521635
 20
291.709296
 30
0.0
 10
663.229086
 20
291.110546
 30
0.0
 10
664.105128
 20
290.792986
 30
0.0
 10
665.034710
 20
290.792987
 30
0.0
 10
665.909526
 20
291.110545
 30
0.0
 10
666.621875
 20
291.709297
 30
0.0
 10
667.086848
 20
292.514640
 30
0.0
 10
667.249193
 20
293.430951
 30
0.0
 10
667.086848
 20
294.347262
 30
0.0
 10
666.621875
 20
295.152606
 30
0.0
 10
665.909526
 20
295.751357
 30
0.0
 10
665.034710
 20
296.068916
 30
0.0
 10
664.105128
 20
296.068917
 30
0.0
 10
663.229086
 20
295.751356
 30
0.0
 10
662.521635
 20
295.152607
 30
0.0
 10
662.038460
 20
294.347261
 30
0.0
 10
661.976183
 20
293.737851
 30
0.0
 10
661.944820
 20
293.430950
 30
0.0
 11
661.944820
 21
293.430950
 31
0.0
 11
662.104613
 21
292.528965
 31
0.0
 11
662.556073
 21
291.747013
 31
0.0
 11
663.257319
 21
291.157636
 31
0.0
 11
664.118358
 21
290.845028
 31
0.0
 11
665.021279
 21
290.845028
 31
0.0
 11
665.882319
 21
291.157636
 31
0.0
 11
666.583564
 21
291.747013
 31
0.0
 11
667.035025
 21
292.528965
 31
0.0
 11
667.194819
 21
293.430950
 31
0.0
 11
667.035025
 21
294.332937
 31
0.0
 11
666.583564
 21
295.114890
 31
0.0
 11
665.882319
 21
295.704267
 31
0.0
 11
665.021279
 21
296.016875
 31
0.0
 11
664.118358
 21
296.016875
 31
0.0
 11
663.257319
 21
295.704267
 31
0.0
 11
662.556073
 21
295.114890
 31
0.0
 11
662.104613
 21
294.332937
 31
0.0
 11
661.944820
 21
293.430950
 31
0.0
  0
LINE
  5
22d
100
AcDbEntity
  8
Layer_1
 62
7
100
AcDbLine
 10
661.944820
 20
293.430950
 30
0.0
 11
661.944820
 21
293.430950
 31
0.0
  0
SPLINE
  5
22e
100
AcDbEntity
  8
Layer_1
 62
7
100
AcDbSpline
 70
0
 71
3
 72
25
 73
21
 74
19
 40
0.000000
 40
0.000000
 40
0.000000
 40
0.000000
 40
0.916031
 40
1.818952
 40
2.734983
 40
3.651013
 40
4.553934
 40
5.469966
 40
6.385996
 40
7.288917
 40
8.204948
 40
9.120979
 40
10.023900
 40
10.939931
 40
11.855962
 40
12.758883
 40
13.674912
 40
14.590944
 40
15.493865
 40
16.409895
 40
16.409895
 40
16.409895
 40
16.409895
 10
661.944820
 20
87.930952
 30
0.0
 10
661.976183
 20
87.624051
 30
0.0
 10
662.038461
 20
87.014641
 30
0.0
 10
662.521635
 20
86.209296
 30
0.0
 10
663.229086
 20
85.610545
 30
0.0
 10
664.105128
 20
85.292985
 30
0.0
 10
665.034710
 20
85.292986
 30
0.0
 10
665.909526
 20
85.610544
 30
0.0
 10
666.621876
 20
86.209297
 30
0.0
 10
667.086848
 20
87.014641
 30
0.0
 10
667.249194
 20
87.930952
 30
0.0
 10
667.086848
 20
88.847262
 30
0.0
 10
666.621875
 20
89.652606
 30
0.0
 10
665.909527
 20
90.251360
 30
0.0
 10
665.034709
 20
90.568916
 30
0.0
 10
664.105129
 20
90.568916
 30
0.0
 10
663.229085
 20
90.251359
 30
0.0
 10
662.521635
 20
89.652606
 30
0.0
 10
662.038461
 20
88.847262
 30
0.0
 10
661.976183
 20
88.237853
 30
0.0
 10
661.944820
 20
87.930952
 30
0.0
 11
661.944820
 21
87.930952
 31
0.0
 11
662.104613
 21
87.028966
 31
0.0
 11
662.556073
 21
86.247013
 31
0.0
 11
663.257319
 21
85.657635
 31
0.0
 11
664.118358
 21
85.345027
 31
0.0
 11
665.021279
 21
85.345027
 31
0.0
 11
665.882319
 21
85.657635
 31
0.0
 11
666.583564
 21
86.247013
 31
0.0
 11
667.035025
 21
87.028966
 31
0.0
 11
667.194819
 21
87.930952
 31
0.0
 11
667.035025
 21
88.832937
 31
0.0
 11
666.583564
 21
89.614890
 31
0.0
 11
665.882319
 21
90.204269
 31
0.0
 11
665.021279
 21
90.516875
 31
0.0
 11
664.118358
 21
90.516875
 31
0.0
 11
663.257319
 21
90.204269
 31
0.0
 11
662.556073
 21
89.614890
 31
0.0
 11
662.104613
 21
88.832937
 31
0.0
 11
661.944820
 21
87.930952
 31
0.0
  0
LINE
  5
22f
100
AcDbEntity
  8
Layer_1
 62
7
100
AcDbLine
 10
661.944820
 20
87.930952
 30
0.0
 11
661.944820
 21
87.930952
 31
0.0
  0
LINE
  5
230
100
AcDbEntity
  8
Layer_1
 62
7
100
AcDbLine
 10
661.944820
 20
190.680951
 30
0.0
 11
661.944820
 21
190.680951
 31
0.0
  0
LINE
  5
231
100
AcDbEntity
  8
Layer_1
 62
7
100
AcDbLine
 10
648.069824
 20
-1.015674
 30
0.0
 11
648.069824
 21
38.763732
 31
0.0
  0
LINE
  5
232
100
AcDbEntity
  8
Layer_1
 62
7
100
AcDbLine
 10
739.778985
 20
32.363733
 30
0.0
 11
648.069824
 21
-1.015674
 31
0.0
  0
LINE
  5
233
100
AcDbEntity
  8
Layer_1
 62
7
100
AcDbLine
 10
745.569824
 20
32.363733
 30
0.0
 11
739.778985
 21
32.363733
 31
0.0
  0
LINE
  5
234
100
AcDbEntity
  8
Layer_1
 62
7
100
AcDbLine
 10
765.569823
 20
12.363731
 30
0.0
 11
745.569824
 21
32.363733
 31
0.0
  0
LINE
  5
235
100
AcDbEntity
  8
Layer_1
 62
7
100
AcDbLine
 10
792.069824
 20
12.363731
 30
0.0
 11
765.569823
 21
12.363731
 31
0.0
  0
SPLINE
  5
236
100
AcDbEntity
  8
Layer_1
 62
7
100
AcDbSpline
 70
0
 71
3
 72
25
 73
21
 74
19
 40
0.000000
 40
0.000000
 40
0.000000
 40
0.000000
 40
0.916030
 40
1.818951
 40
2.734983
 40
3.651013
 40
4.553934
 40
5.469966
 40
6.385996
 40
7.288917
 40
8.204948
 40
9.120979
 40
10.023900
 40
10.939930
 40
11.855962
 40
12.758883
 40
13.674913
 40
14.590944
 40
15.493865
 40
16.409896
 40
16.409896
 40
16.409896
 40
16.409896
 10
661.944820
 20
190.680951
 30
0.0
 10
661.976183
 20
190.374050
 30
0.0
 10
662.038461
 20
189.764641
 30
0.0
 10
662.521635
 20
188.959296
 30
0.0
 10
663.229085
 20
188.360544
 30
0.0
 10
664.105128
 20
188.042984
 30
0.0
 10
665.034710
 20
188.042985
 30
0.0
 10
665.909527
 20
188.360543
 30
0.0
 10
666.621875
 20
188.959297
 30
0.0
 10
667.086848
 20
189.764641
 30
0.0
 10
667.249194
 20
190.680951
 30
0.0
 10
667.086848
 20
191.597262
 30
0.0
 10
666.621876
 20
192.402606
 30
0.0
 10
665.909526
 20
193.001358
 30
0.0
 10
665.034710
 20
193.318917
 30
0.0
 10
664.105128
 20
193.318918
 30
0.0
 10
663.229086
 20
193.001357
 30
0.0
 10
662.521635
 20
192.402607
 30
0.0
 10
662.038461
 20
191.597262
 30
0.0
 10
661.976183
 20
190.987852
 30
0.0
 10
661.944820
 20
190.680951
 30
0.0
 11
661.944820
 21
190.680951
 31
0.0
 11
662.104613
 21
189.778966
 31
0.0
 11
662.556073
 21
188.997013
 31
0.0
 11
663.257319
 21
188.407634
 31
0.0
 11
664.118358
 21
188.095026
 31
0.0
 11
665.021279
 21
188.095026
 31
0.0
 11
665.882319
 21
188.407634
 31
0.0
 11
666.583564
 21
188.997013
 31
0.0
 11
667.035025
 21
189.778966
 31
0.0
 11
667.194819
 21
190.680951
 31
0.0
 11
667.035025
 21
191.582937
 31
0.0
 11
666.583564
 21
192.364890
 31
0.0
 11
665.882319
 21
192.954268
 31
0.0
 11
665.021279
 21
193.266876
 31
0.0
 11
664.118358
 21
193.266876
 31
0.0
 11
663.257319
 21
192.954268
 31
0.0
 11
662.556073
 21
192.364890
 31
0.0
 11
662.104613
 21
191.582937
 31
0.0
 11
661.944820
 21
190.680951
 31
0.0
  0
LINE
  5
237
100
AcDbEntity
  8
Layer_1
 62
7
100
AcDbLine
 10
792.069824
 20
12.363731
 30
0.0
 11
792.069824
 21
257.863732
 31
0.0
  0
LINE
  5
238
100
AcDbEntity
  8
Layer_1
 62
7
100
AcDbLine
 10
792.069824
 20
257.863732
 30
0.0
 11
745.569824
 21
257.863732
 31
0.0
  0
LINE
  5
239
100
AcDbEntity
  8
Layer_1
 62
7
100
AcDbLine
 10
745.569824
 20
257.863732
 30
0.0
 11
691.054233
 21
54.408777
 31
0.0
  0
LINE
  5
23a
100
AcDbEntity
  8
Layer_1
 62
7
100
AcDbLine
 10
691.054233
 20
54.408777
 30
0.0
 11
648.069824
 21
38.763732
 31
0.0
  0
SPLINE
  5
23b
100
AcDbEntity
  8
Layer_1
 62
7
100
AcDbSpline
 70
0
 71
3
 72
25
 73
21
 74
19
 40
0.000000
 40
0.000000
 40
0.000000
 40
0.000000
 40
0.916030
 40
1.818951
 40
2.734983
 40
3.651013
 40
4.553934
 40
5.469965
 40
6.385995
 40
7.288916
 40
8.204947
 40
9.120978
 40
10.023899
 40
10.939930
 40
11.855960
 40
12.758881
 40
13.674912
 40
14.590942
 40
15.493864
 40
16.409895
 40
16.409895
 40
16.409895
 40
16.409895
 10
661.460617
 20
21.263733
 30
0.0
 10
661.429254
 20
21.570633
 30
0.0
 10
661.366976
 20
22.180043
 30
0.0
 10
660.883801
 20
22.985387
 30
0.0
 10
660.176351
 20
23.584140
 30
0.0
 10
659.300307
 20
23.901697
 30
0.0
 10
658.370727
 20
23.901697
 30
0.0
 10
657.495909
 20
23.584141
 30
0.0
 10
656.783561
 20
22.985387
 30
0.0
 10
656.318588
 20
22.180043
 30
0.0
 10
656.156244
 20
21.263732
 30
0.0
 10
656.318589
 20
20.347422
 30
0.0
 10
656.783561
 20
19.542077
 30
0.0
 10
657.495911
 20
18.943326
 30
0.0
 10
658.370726
 20
18.625766
 30
0.0
 10
659.300308
 20
18.625766
 30
0.0
 10
660.176351
 20
18.943326
 30
0.0
 10
660.883801
 20
19.542077
 30
0.0
 10
661.366976
 20
20.347422
 30
0.0
 10
661.429254
 20
20.956832
 30
0.0
 10
661.460617
 20
21.263733
 30
0.0
 11
661.460617
 21
21.263733
 31
0.0
 11
661.300823
 21
22.165718
 31
0.0
 11
660.849363
 21
22.947671
 31
0.0
 11
660.148117
 21
23.537050
 31
0.0
 11
659.287078
 21
23.849656
 31
0.0
 11
658.384157
 21
23.849656
 31
0.0
 11
657.523117
 21
23.537050
 31
0.0
 11
656.821872
 21
22.947671
 31
0.0
 11
656.370411
 21
22.165718
 31
0.0
 11
656.210618
 21
21.263733
 31
0.0
 11
656.370412
 21
20.361747
 31
0.0
 11
656.821872
 21
19.579794
 31
0.0
 11
657.523118
 21
18.990416
 31
0.0
 11
658.384157
 21
18.677808
 31
0.0
 11
659.287078
 21
18.677808
 31
0.0
 11
660.148117
 21
18.990416
 31
0.0
 11
660.849363
 21
19.579794
 31
0.0
 11
661.300823
 21
20.361747
 31
0.0
 11
661.460617
 21
21.263733
 31
0.0
  0
LINE
  5
23c
100
AcDbEntity
  8
Layer_1
 62
7
100
AcDbLine
 10
661.460617
 20
21.263733
 30
0.0
 11
661.460618
 21
21.263733
 31
0.0
  0
SPLINE
  5
23d
100
AcDbEntity
  8
Layer_1
 62
7
100
AcDbSpline
 70
0
 71
3
 72
25
 73
21
 74
19
 40
0.000000
 40
0.000000
 40
0.000000
 40
0.000000
 40
0.916030
 40
1.818950
 40
2.734981
 40
3.651011
 40
4.553932
 40
5.469964
 40
6.385993
 40
7.288913
 40
8.204944
 40
9.120976
 40
10.023897
 40
10.939927
 40
11.855958
 40
12.758879
 40
13.674909
 40
14.590940
 40
15.493861
 40
16.409893
 40
16.409893
 40
16.409893
 40
16.409893
 10
778.194823
 20
32.363733
 30
0.0
 10
778.163459
 20
32.670634
 30
0.0
 10
778.101182
 20
33.280043
 30
0.0
 10
777.618007
 20
34.085387
 30
0.0
 10
776.910556
 20
34.684137
 30
0.0
 10
776.034514
 20
35.001697
 30
0.0
 10
775.104932
 20
35.001696
 30
0.0
 10
774.230116
 20
34.684138
 30
0.0
 10
773.517767
 20
34.085386
 30
0.0
 10
773.052794
 20
33.280043
 30
0.0
 10
772.890449
 20
32.363732
 30
0.0
 10
773.052794
 20
31.447422
 30
0.0
 10
773.517767
 20
30.642077
 30
0.0
 10
774.230116
 20
30.043326
 30
0.0
 10
775.104932
 20
29.725767
 30
0.0
 10
776.034514
 20
29.725766
 30
0.0
 10
776.910556
 20
30.043327
 30
0.0
 10
777.618007
 20
30.642076
 30
0.0
 10
778.101182
 20
31.447422
 30
0.0
 10
778.163459
 20
32.056832
 30
0.0
 10
778.194823
 20
32.363733
 30
0.0
 11
778.194823
 21
32.363733
 31
0.0
 11
778.035029
 21
33.265718
 31
0.0
 11
777.583569
 21
34.047670
 31
0.0
 11
776.882323
 21
34.637047
 31
0.0
 11
776.021284
 21
34.949655
 31
0.0
 11
775.118364
 21
34.949655
 31
0.0
 11
774.257323
 21
34.637047
 31
0.0
 11
773.556078
 21
34.047670
 31
0.0
 11
773.104617
 21
33.265718
 31
0.0
 11
772.944823
 21
32.363733
 31
0.0
 11
773.104617
 21
31.461746
 31
0.0
 11
773.556078
 21
30.679793
 31
0.0
 11
774.257323
 21
30.090416
 31
0.0
 11
775.118364
 21
29.777808
 31
0.0
 11
776.021284
 21
29.777808
 31
0.0
 11
776.882323
 21
30.090416
 31
0.0
 11
777.583569
 21
30.679793
 31
0.0
 11
778.035029
 21
31.461746
 31
0.0
 11
778.194823
 21
32.363733
 31
0.0
  0
LINE
  5
23e
100
AcDbEntity
  8
Layer_1
 62
7
100
AcDbLine
 10
778.194823
 20
32.363733
 30
0.0
 11
778.194823
 21
32.363733
 31
0.0
  0
SPLINE
  5
23f
100
AcDbEntity
  8
Layer_1
 62
7
100
AcDbSpline
 70
0
 71
3
 72
25
 73
21
 74
19
 40
0.000000
 40
0.000000
 40
0.000000
 40
0.000000
 40
0.916031
 40
1.818952
 40
2.734983
 40
3.651013
 40
4.553934
 40
5.469966
 40
6.385996
 40
7.288917
 40
8.204948
 40
9.120979
 40
10.023900
 40
10.939931
 40
11.855962
 40
12.758883
 40
13.674912
 40
14.590944
 40
15.493865
 40
16.409895
 40
16.409895
 40
16.409895
 40
16.409895
 10
778.194823
 20
237.863731
 30
0.0
 10
778.163459
 20
238.170632
 30
0.0
 10
778.101182
 20
238.780042
 30
0.0
 10
777.618007
 20
239.585387
 30
0.0
 10
776.910556
 20
240.184138
 30
0.0
 10
776.034514
 20
240.501698
 30
0.0
 10
775.104932
 20
240.501698
 30
0.0
 10
774.230116
 20
240.184139
 30
0.0
 10
773.517767
 20
239.585386
 30
0.0
 10
773.052794
 20
238.780042
 30
0.0
 10
772.890449
 20
237.863732
 30
0.0
 10
773.052794
 20
236.947421
 30
0.0
 10
773.517767
 20
236.142077
 30
0.0
 10
774.230115
 20
235.543323
 30
0.0
 10
775.104933
 20
235.225767
 30
0.0
 10
776.034513
 20
235.225767
 30
0.0
 10
776.910557
 20
235.543324
 30
0.0
 10
777.618007
 20
236.142077
 30
0.0
 10
778.101182
 20
236.947421
 30
0.0
 10
778.163459
 20
237.556831
 30
0.0
 10
778.194823
 20
237.863731
 30
0.0
 11
778.194823
 21
237.863731
 31
0.0
 11
778.035029
 21
238.765717
 31
0.0
 11
777.583569
 21
239.547670
 31
0.0
 11
776.882323
 21
240.137048
 31
0.0
 11
776.021284
 21
240.449656
 31
0.0
 11
775.118364
 21
240.449656
 31
0.0
 11
774.257323
 21
240.137048
 31
0.0
 11
773.556078
 21
239.547670
 31
0.0
 11
773.104617
 21
238.765717
 31
0.0
 11
772.944823
 21
237.863731
 31
0.0
 11
773.104617
 21
236.961746
 31
0.0
 11
773.556078
 21
236.179793
 31
0.0
 11
774.257323
 21
235.590414
 31
0.0
 11
775.118364
 21
235.277808
 31
0.0
 11
776.021284
 21
235.277808
 31
0.0
 11
776.882323
 21
235.590414
 31
0.0
 11
777.583569
 21
236.179793
 31
0.0
 11
778.035029
 21
236.961746
 31
0.0
 11
778.194823
 21
237.863731
 31
0.0
  0
LINE
  5
240
100
AcDbEntity
  8
Layer_1
 62
7
100
AcDbLine
 10
778.194823
 20
237.863731
 30
0.0
 11
778.194823
 21
237.863731
 31
0.0
  0
LINE
  5
241
100
AcDbEntity
  8
Layer_1
 62
7
100
AcDbLine
 10
778.194823
 20
135.113732
 30
0.0
 11
778.194823
 21
135.113732
 31
0.0
  0
SPLINE
  5
242
100
AcDbEntity
  8
Layer_1
 62
7
100
AcDbSpline
 70
0
 71
3
 72
25
 73
21
 74
19
 40
0.000000
 40
0.000000
 40
0.000000
 40
0.000000
 40
0.916030
 40
1.818951
 40
2.734983
 40
3.651013
 40
4.553934
 40
5.469966
 40
6.385996
 40
7.288917
 40
8.204948
 40
9.120979
 40
10.023900
 40
10.939930
 40
11.855962
 40
12.758883
 40
13.674913
 40
14.590944
 40
15.493865
 40
16.409896
 40
16.409896
 40
16.409896
 40
16.409896
 10
778.194823
 20
135.113732
 30
0.0
 10
778.163459
 20
135.420633
 30
0.0
 10
778.101182
 20
136.030042
 30
0.0
 10
777.618007
 20
136.835387
 30
0.0
 10
776.910557
 20
137.434139
 30
0.0
 10
776.034514
 20
137.751699
 30
0.0
 10
775.104933
 20
137.751698
 30
0.0
 10
774.230116
 20
137.434140
 30
0.0
 10
773.517767
 20
136.835386
 30
0.0
 10
773.052794
 20
136.030043
 30
0.0
 10
772.890449
 20
135.113732
 30
0.0
 10
773.052794
 20
134.197421
 30
0.0
 10
773.517767
 20
133.392077
 30
0.0
 10
774.230116
 20
132.793325
 30
0.0
 10
775.104932
 20
132.475766
 30
0.0
 10
776.034514
 20
132.475765
 30
0.0
 10
776.910556
 20
132.793326
 30
0.0
 10
777.618007
 20
133.392076
 30
0.0
 10
778.101182
 20
134.197422
 30
0.0
 10
778.163459
 20
134.806831
 30
0.0
 10
778.194823
 20
135.113732
 30
0.0
 11
778.194823
 21
135.113732
 31
0.0
 11
778.035029
 21
136.015718
 31
0.0
 11
777.583569
 21
136.797670
 31
0.0
 11
776.882323
 21
137.387049
 31
0.0
 11
776.021284
 21
137.699657
 31
0.0
 11
775.118364
 21
137.699657
 31
0.0
 11
774.257323
 21
137.387049
 31
0.0
 11
773.556078
 21
136.797670
 31
0.0
 11
773.104617
 21
136.015718
 31
0.0
 11
772.944823
 21
135.113732
 31
0.0
 11
773.104617
 21
134.211746
 31
0.0
 11
773.556078
 21
133.429793
 31
0.0
 11
774.257323
 21
132.840415
 31
0.0
 11
775.118364
 21
132.527807
 31
0.0
 11
776.021284
 21
132.527807
 31
0.0
 11
776.882323
 21
132.840415
 31
0.0
 11
777.583569
 21
133.429793
 31
0.0
 11
778.035029
 21
134.211746
 31
0.0
 11
778.194823
 21
135.113732
 31
0.0
  0
ENDSEC
  0
SECTION
  2
OBJECTS
  0
DICTIONARY
  5
C
330
0
100
AcDbDictionary
  3
ACAD_GROUP
350
D
  3
ACAD_MLINESTYLE
350
17
  0
DICTIONARY
  5
D
330
C
100
AcDbDictionary
  0
DICTIONARY
  5
1A
330
C
100
AcDbDictionary
  0
DICTIONARY
  5
17
330
C
100
AcDbDictionary
  3
STANDARD
350
18
  0
DICTIONARY
  5
19
330
C
100
AcDbDictionary
  0
ENDSEC
  0
EOF
