  0
SECTION
  2
HEADER
  9
$ACADVER
  1
AC1014
  9
$HANDSEED
  5
FFFF
  9
$MEASUREMENT
 70
     1
  0
ENDSEC
  0
SECTION
  2
TABLES
  0
TABLE
  2
VPORT
  5
8
330
0
100
AcDbSymbolTable
 70
     4
  0
VPORT
  5
2E
330
8
100
AcDbSymbolTableRecord
100
AcDbViewportTableRecord
  2
*ACTIVE
 70
     0
 10
0.0
 20
0.0
 11
1.0
 21
1.0
 12
210.0
 22
148.5
 13
0.0
 23
0.0
 14
10.0
 24
10.0
 15
10.0
 25
10.0
 16
0.0
 26
0.0
 36
1.0
 17
0.0
 27
0.0
 37
0.0
 40
341.0
 41
1.24
 42
50.0
 43
0.0
 44
0.0
 50
0.0
 51
0.0
 71
     0
 72
   100
 73
     1
 74
     3
 75
     0
 76
     0
 77
     0
 78
     0
  0
ENDTAB
  0
TABLE
  2
LTYPE
  5
5
330
0
100
AcDbSymbolTable
 70
     1
  0
LTYPE
  5
14
330
5
100
AcDbSymbolTableRecord
100
AcDbLinetypeTableRecord
  2
BYBLOCK
 70
     0
  3

 72
    65
 73
     0
 40
0.0
  0
LTYPE
  5
15
330
5
100
AcDbSymbolTableRecord
100
AcDbLinetypeTableRecord
  2
BYLAYER
 70
     0
  3

 72
    65
 73
     0
 40
0.0
  0
LTYPE
  5
16
330
5
100
AcDbSymbolTableRecord
100
AcDbLinetypeTableRecord
  2
CONTINUOUS
 70
     0
  3
Solid line
 72
    65
 73
     0
 40
0.0
  0
ENDTAB
  0
TABLE
  2
LAYER
  5
2
100
AcDbSymbolTable
 70
2
  0
LAYER
  5
50
100
AcDbSymbolTableRecord
100
AcDbLayerTableRecord
  2
0
 70
0
  6
CONTINUOUS
  0
LAYER
  5
51
100
AcDbSymbolTableRecord
100
AcDbLayerTableRecord
  2
Layer_1
 70
0
  6
CONTINUOUS
  0
ENDTAB
  0
TABLE
  2
STYLE
  5
3
330
0
100
AcDbSymbolTable
 70
     1
  0
STYLE
  5
11
330
3
100
AcDbSymbolTableRecord
100
AcDbTextStyleTableRecord
  2
STANDARD
 70
     0
 40
0.0
 41
1.0
 50
0.0
 71
     0
 42
2.5
  3
txt
  4

  0
ENDTAB
  0
TABLE
  2
VIEW
  5
6
330
0
100
AcDbSymbolTable
 70
     0
  0
ENDTAB
  0
TABLE
  2
UCS
  5
7
330
0
100
AcDbSymbolTable
 70
     0
  0
ENDTAB
  0
TABLE
  2
APPID
  5
9
330
0
100
AcDbSymbolTable
 70
     2
  0
APPID
  5
12
330
9
100
AcDbSymbolTableRecord
100
AcDbRegAppTableRecord
  2
ACAD
 70
     0
  0
ENDTAB
  0
TABLE
  2
DIMSTYLE
  5
A
330
0
100
AcDbSymbolTable
 70
     1
  0
DIMSTYLE
105
27
330
A
100
AcDbSymbolTableRecord
100
AcDbDimStyleTableRecord
  2
ISO-25
 70
     0
  3

  4

  5

  6

  7

 40
1.0
 41
2.5
 42
0.625
 43
3.75
 44
1.25
 45
0.0
 46
0.0
 47
0.0
 48
0.0
140
2.5
141
2.5
142
0.0
143
0.03937007874016
144
1.0
145
0.0
146
1.0
147
0.625
 71
     0
 72
     0
 73
     0
 74
     0
 75
     0
 76
     0
 77
     1
 78
     8
170
     0
171
     3
172
     1
173
     0
174
     0
175
     0
176
     0
177
     0
178
     0
270
     2
271
     2
272
     2
273
     2
274
     3
340
11
275
     0
280
     0
281
     0
282
     0
283
     0
284
     8
285
     0
286
     0
287
     3
288
     0
  0
ENDTAB
  0
TABLE
  2
BLOCK_RECORD
  5
1
330
0
100
AcDbSymbolTable
 70
     1
  0
BLOCK_RECORD
  5
1F
330
1
100
AcDbSymbolTableRecord
100
AcDbBlockTableRecord
  2
*MODEL_SPACE
  0
BLOCK_RECORD
  5
1B
330
1
100
AcDbSymbolTableRecord
100
AcDbBlockTableRecord
  2
*PAPER_SPACE
  0
ENDTAB
  0
ENDSEC
  0
SECTION
  2
BLOCKS
  0
BLOCK
  5
20
330
1F
100
AcDbEntity
  8
0
100
AcDbBlockBegin
  2
*MODEL_SPACE
 70
     0
 10
0.0
 20
0.0
 30
0.0
  3
*MODEL_SPACE
  1

  0
ENDBLK
  5
21
330
1F
100
AcDbEntity
  8
0
100
AcDbBlockEnd
  0
BLOCK
  5
1C
330
1B
100
AcDbEntity
 67
     1
  8
0
100
AcDbBlockBegin
  2
*PAPER_SPACE
  1

  0
ENDBLK
  5
1D
330
1B
100
AcDbEntity
 67
     1
  8
0
100
AcDbBlockEnd
  0
ENDSEC
  0
SECTION
  2
ENTITIES
  0
LINE
  5
100
100
AcDbEntity
  8
Layer_1
 62
7
100
AcDbLine
 10
98.499998
 20
0.000001
 30
0.0
 11
98.499998
 21
140.000001
 31
0.0
  0
SPLINE
  5
101
100
AcDbEntity
  8
Layer_1
 62
7
100
AcDbSpline
 70
0
 71
3
 72
13
 73
9
 74
7
 40
0.000000
 40
0.000000
 40
0.000000
 40
0.000000
 40
1.308875
 40
2.606917
 40
3.915791
 40
5.224666
 40
6.522709
 40
7.831584
 40
7.831584
 40
7.831584
 40
7.831584
 10
98.499998
 20
140.000001
 30
0.0
 10
98.466667
 20
140.437567
 30
0.0
 10
98.400280
 20
141.309078
 30
0.0
 10
97.875656
 20
142.528285
 30
0.0
 10
97.077487
 20
143.577489
 30
0.0
 10
96.028283
 20
144.375658
 30
0.0
 10
94.809077
 20
144.900284
 30
0.0
 10
93.937566
 20
144.966671
 30
0.0
 10
93.499999
 20
145.000002
 30
0.0
 11
98.499998
 21
140.000001
 31
0.0
 11
98.328696
 21
141.297617
 31
0.0
 11
97.831957
 21
142.496853
 31
0.0
 11
97.035533
 21
143.535534
 31
0.0
 11
95.996851
 21
144.331959
 31
0.0
 11
94.797616
 21
144.828699
 31
0.0
 11
93.499999
 21
145.000002
 31
0.0
  0
LINE
  5
102
100
AcDbEntity
  8
Layer_1
 62
7
100
AcDbLine
 10
93.499999
 20
145.000002
 30
0.0
 11
4.999998
 21
145.000002
 31
0.0
  0
LINE
  5
103
100
AcDbEntity
  8
Layer_1
 62
7
100
AcDbLine
 10
0.000000
 20
140.000001
 30
0.0
 11
0.000000
 21
0.000001
 31
0.0
  0
LINE
  5
104
100
AcDbEntity
  8
Layer_1
 62
7
100
AcDbLine
 10
0.000000
 20
0.000001
 30
0.0
 11
4.999998
 21
-4.999989
 31
0.0
  0
LINE
  5
105
100
AcDbEntity
  8
Layer_1
 62
7
100
AcDbLine
 10
4.999998
 20
-4.999989
 30
0.0
 11
93.499999
 21
-4.999989
 31
0.0
  0
LINE
  5
106
100
AcDbEntity
  8
Layer_1
 62
7
100
AcDbLine
 10
93.499999
 20
-4.999989
 30
0.0
 11
98.499998
 21
0.000001
 31
0.0
  0
LINE
  5
107
100
AcDbEntity
  8
Layer_1
 62
7
100
AcDbLine
 10
79.249998
 20
29.999998
 30
0.0
 11
19.250000
 21
29.999998
 31
0.0
  0
LINE
  5
108
100
AcDbEntity
  8
Layer_1
 62
7
100
AcDbLine
 10
79.249998
 20
29.999998
 30
0.0
 11
84.249999
 21
25.000008
 31
0.0
  0
LINE
  5
109
100
AcDbEntity
  8
Layer_1
 62
7
100
AcDbLine
 10
84.249999
 20
15.000000
 30
0.0
 11
84.249999
 21
25.000008
 31
0.0
  0
LINE
  5
10a
100
AcDbEntity
  8
Layer_1
 62
7
100
AcDbLine
 10
84.249999
 20
15.000000
 30
0.0
 11
79.249998
 21
10.000010
 31
0.0
  0
LINE
  5
10b
100
AcDbEntity
  8
Layer_1
 62
7
100
AcDbLine
 10
19.250000
 20
10.000010
 30
0.0
 11
79.249998
 21
10.000010
 31
0.0
  0
LINE
  5
10c
100
AcDbEntity
  8
Layer_1
 62
7
100
AcDbLine
 10
19.250000
 20
10.000010
 30
0.0
 11
14.249998
 21
15.000000
 31
0.0
  0
LINE
  5
10d
100
AcDbEntity
  8
Layer_1
 62
7
100
AcDbLine
 10
14.249998
 20
25.000008
 30
0.0
 11
14.249998
 21
15.000000
 31
0.0
  0
LINE
  5
10e
100
AcDbEntity
  8
Layer_1
 62
7
100
AcDbLine
 10
14.249998
 20
25.000008
 30
0.0
 11
19.250000
 21
29.999998
 31
0.0
  0
SPLINE
  5
10f
100
AcDbEntity
  8
Layer_1
 62
7
100
AcDbSpline
 70
0
 71
3
 72
13
 73
9
 74
7
 40
0.000000
 40
0.000000
 40
0.000000
 40
0.000000
 40
1.308875
 40
2.606918
 40
3.915792
 40
5.224666
 40
6.522709
 40
7.831584
 40
7.831584
 40
7.831584
 40
7.831584
 10
4.999998
 20
145.000002
 30
0.0
 10
4.562432
 20
144.966671
 30
0.0
 10
3.690921
 20
144.900284
 30
0.0
 10
2.471715
 20
144.375658
 30
0.0
 10
1.422510
 20
143.577489
 30
0.0
 10
0.624342
 20
142.528285
 30
0.0
 10
0.099717
 20
141.309078
 30
0.0
 10
0.033331
 20
140.437567
 30
0.0
 10
0.000000
 20
140.000001
 30
0.0
 11
4.999998
 21
145.000002
 31
0.0
 11
3.702382
 21
144.828699
 31
0.0
 11
2.503147
 21
144.331959
 31
0.0
 11
1.464465
 21
143.535534
 31
0.0
 11
0.668041
 21
142.496853
 31
0.0
 11
0.171302
 21
141.297617
 31
0.0
 11
0.000000
 21
140.000001
 31
0.0
  0
LINE
  5
110
100
AcDbEntity
  8
Layer_1
 62
7
100
AcDbLine
 10
196.999995
 20
0.000001
 30
0.0
 11
196.999995
 21
140.000001
 31
0.0
  0
SPLINE
  5
111
100
AcDbEntity
  8
Layer_1
 62
7
100
AcDbSpline
 70
0
 71
3
 72
13
 73
9
 74
7
 40
0.000000
 40
0.000000
 40
0.000000
 40
0.000000
 40
1.308875
 40
2.606917
 40
3.915791
 40
5.224666
 40
6.522709
 40
7.831584
 40
7.831584
 40
7.831584
 40
7.831584
 10
196.999995
 20
140.000001
 30
0.0
 10
196.966664
 20
140.437567
 30
0.0
 10
196.900278
 20
141.309078
 30
0.0
 10
196.375653
 20
142.528285
 30
0.0
 10
195.577485
 20
143.577489
 30
0.0
 10
194.528281
 20
144.375658
 30
0.0
 10
193.309075
 20
144.900284
 30
0.0
 10
192.437563
 20
144.966671
 30
0.0
 10
191.999997
 20
145.000002
 30
0.0
 11
196.999995
 21
140.000001
 31
0.0
 11
196.828693
 21
141.297617
 31
0.0
 11
196.331955
 21
142.496853
 31
0.0
 11
195.535530
 21
143.535534
 31
0.0
 11
194.496849
 21
144.331959
 31
0.0
 11
193.297614
 21
144.828699
 31
0.0
 11
191.999997
 21
145.000002
 31
0.0
  0
LINE
  5
112
100
AcDbEntity
  8
Layer_1
 62
7
100
AcDbLine
 10
191.999997
 20
145.000002
 30
0.0
 11
103.499996
 21
145.000002
 31
0.0
  0
LINE
  5
113
100
AcDbEntity
  8
Layer_1
 62
7
100
AcDbLine
 10
98.499998
 20
140.000001
 30
0.0
 11
98.499998
 21
0.000001
 31
0.0
  0
LINE
  5
114
100
AcDbEntity
  8
Layer_1
 62
7
100
AcDbLine
 10
98.499998
 20
0.000001
 30
0.0
 11
103.499996
 21
-4.999989
 31
0.0
  0
LINE
  5
115
100
AcDbEntity
  8
Layer_1
 62
7
100
AcDbLine
 10
103.499996
 20
-4.999989
 30
0.0
 11
191.999997
 21
-4.999989
 31
0.0
  0
LINE
  5
116
100
AcDbEntity
  8
Layer_1
 62
7
100
AcDbLine
 10
191.999997
 20
-4.999989
 30
0.0
 11
196.999995
 21
0.000001
 31
0.0
  0
LINE
  5
117
100
AcDbEntity
  8
Layer_1
 62
7
100
AcDbLine
 10
177.749996
 20
29.999998
 30
0.0
 11
117.749997
 21
29.999998
 31
0.0
  0
LINE
  5
118
100
AcDbEntity
  8
Layer_1
 62
7
100
AcDbLine
 10
177.749996
 20
29.999998
 30
0.0
 11
182.749997
 21
25.000008
 31
0.0
  0
LINE
  5
119
100
AcDbEntity
  8
Layer_1
 62
7
100
AcDbLine
 10
182.749997
 20
15.000000
 30
0.0
 11
182.749997
 21
25.000008
 31
0.0
  0
LINE
  5
11a
100
AcDbEntity
  8
Layer_1
 62
7
100
AcDbLine
 10
182.749997
 20
15.000000
 30
0.0
 11
177.749996
 21
10.000010
 31
0.0
  0
LINE
  5
11b
100
AcDbEntity
  8
Layer_1
 62
7
100
AcDbLine
 10
117.749997
 20
10.000010
 30
0.0
 11
177.749996
 21
10.000010
 31
0.0
  0
LINE
  5
11c
100
AcDbEntity
  8
Layer_1
 62
7
100
AcDbLine
 10
117.749997
 20
10.000010
 30
0.0
 11
112.749996
 21
15.000000
 31
0.0
  0
LINE
  5
11d
100
AcDbEntity
  8
Layer_1
 62
7
100
AcDbLine
 10
112.749996
 20
25.000008
 30
0.0
 11
112.749996
 21
15.000000
 31
0.0
  0
LINE
  5
11e
100
AcDbEntity
  8
Layer_1
 62
7
100
AcDbLine
 10
112.749996
 20
25.000008
 30
0.0
 11
117.749997
 21
29.999998
 31
0.0
  0
SPLINE
  5
11f
100
AcDbEntity
  8
Layer_1
 62
7
100
AcDbSpline
 70
0
 71
3
 72
13
 73
9
 74
7
 40
0.000000
 40
0.000000
 40
0.000000
 40
0.000000
 40
1.308875
 40
2.606918
 40
3.915792
 40
5.224666
 40
6.522709
 40
7.831584
 40
7.831584
 40
7.831584
 40
7.831584
 10
103.499996
 20
145.000002
 30
0.0
 10
103.062430
 20
144.966671
 30
0.0
 10
102.190918
 20
144.900284
 30
0.0
 10
100.971712
 20
144.375658
 30
0.0
 10
99.922508
 20
143.577489
 30
0.0
 10
99.124340
 20
142.528285
 30
0.0
 10
98.599715
 20
141.309078
 30
0.0
 10
98.533329
 20
140.437567
 30
0.0
 10
98.499998
 20
140.000001
 30
0.0
 11
103.499996
 21
145.000002
 31
0.0
 11
102.202380
 21
144.828699
 31
0.0
 11
101.003144
 21
144.331959
 31
0.0
 11
99.964463
 21
143.535534
 31
0.0
 11
99.168039
 21
142.496853
 31
0.0
 11
98.671300
 21
141.297617
 31
0.0
 11
98.499998
 21
140.000001
 31
0.0
  0
LINE
  5
120
100
AcDbEntity
  8
Layer_1
 62
7
100
AcDbLine
 10
98.499998
 20
149.999992
 30
0.0
 11
98.499998
 21
289.999991
 31
0.0
  0
SPLINE
  5
121
100
AcDbEntity
  8
Layer_1
 62
7
100
AcDbSpline
 70
0
 71
3
 72
13
 73
9
 74
7
 40
0.000000
 40
0.000000
 40
0.000000
 40
0.000000
 40
1.308875
 40
2.606917
 40
3.915791
 40
5.224666
 40
6.522709
 40
7.831584
 40
7.831584
 40
7.831584
 40
7.831584
 10
98.499998
 20
289.999991
 30
0.0
 10
98.466667
 20
290.437558
 30
0.0
 10
98.400280
 20
291.309069
 30
0.0
 10
97.875656
 20
292.528275
 30
0.0
 10
97.077487
 20
293.577480
 30
0.0
 10
96.028283
 20
294.375648
 30
0.0
 10
94.809077
 20
294.900275
 30
0.0
 10
93.937566
 20
294.966661
 30
0.0
 10
93.499999
 20
294.999993
 30
0.0
 11
98.499998
 21
289.999991
 31
0.0
 11
98.328696
 21
291.297608
 31
0.0
 11
97.831957
 21
292.496843
 31
0.0
 11
97.035533
 21
293.535525
 31
0.0
 11
95.996851
 21
294.331950
 31
0.0
 11
94.797616
 21
294.828690
 31
0.0
 11
93.499999
 21
294.999993
 31
0.0
  0
LINE
  5
122
100
AcDbEntity
  8
Layer_1
 62
7
100
AcDbLine
 10
93.499999
 20
294.999993
 30
0.0
 11
4.999998
 21
294.999993
 31
0.0
  0
LINE
  5
123
100
AcDbEntity
  8
Layer_1
 62
7
100
AcDbLine
 10
0.000000
 20
289.999991
 30
0.0
 11
0.000000
 21
149.999992
 31
0.0
  0
LINE
  5
124
100
AcDbEntity
  8
Layer_1
 62
7
100
AcDbLine
 10
0.000000
 20
149.999992
 30
0.0
 11
4.999998
 21
145.000002
 31
0.0
  0
LINE
  5
125
100
AcDbEntity
  8
Layer_1
 62
7
100
AcDbLine
 10
4.999998
 20
145.000002
 30
0.0
 11
93.499999
 21
145.000002
 31
0.0
  0
LINE
  5
126
100
AcDbEntity
  8
Layer_1
 62
7
100
AcDbLine
 10
93.499999
 20
145.000002
 30
0.0
 11
98.499998
 21
149.999992
 31
0.0
  0
LINE
  5
127
100
AcDbEntity
  8
Layer_1
 62
7
100
AcDbLine
 10
79.249998
 20
179.999988
 30
0.0
 11
19.250000
 21
179.999988
 31
0.0
  0
LINE
  5
128
100
AcDbEntity
  8
Layer_1
 62
7
100
AcDbLine
 10
79.249998
 20
179.999988
 30
0.0
 11
84.249999
 21
174.999998
 31
0.0
  0
LINE
  5
129
100
AcDbEntity
  8
Layer_1
 62
7
100
AcDbLine
 10
84.249999
 20
164.999990
 30
0.0
 11
84.249999
 21
174.999998
 31
0.0
  0
LINE
  5
12a
100
AcDbEntity
  8
Layer_1
 62
7
100
AcDbLine
 10
84.249999
 20
164.999990
 30
0.0
 11
79.249998
 21
160.000000
 31
0.0
  0
LINE
  5
12b
100
AcDbEntity
  8
Layer_1
 62
7
100
AcDbLine
 10
19.250000
 20
160.000000
 30
0.0
 11
79.249998
 21
160.000000
 31
0.0
  0
LINE
  5
12c
100
AcDbEntity
  8
Layer_1
 62
7
100
AcDbLine
 10
19.250000
 20
160.000000
 30
0.0
 11
14.249998
 21
164.999990
 31
0.0
  0
LINE
  5
12d
100
AcDbEntity
  8
Layer_1
 62
7
100
AcDbLine
 10
14.249998
 20
174.999998
 30
0.0
 11
14.249998
 21
164.999990
 31
0.0
  0
LINE
  5
12e
100
AcDbEntity
  8
Layer_1
 62
7
100
AcDbLine
 10
14.249998
 20
174.999998
 30
0.0
 11
19.250000
 21
179.999988
 31
0.0
  0
SPLINE
  5
12f
100
AcDbEntity
  8
Layer_1
 62
7
100
AcDbSpline
 70
0
 71
3
 72
13
 73
9
 74
7
 40
0.000000
 40
0.000000
 40
0.000000
 40
0.000000
 40
1.308875
 40
2.606918
 40
3.915792
 40
5.224666
 40
6.522709
 40
7.831584
 40
7.831584
 40
7.831584
 40
7.831584
 10
4.999998
 20
294.999993
 30
0.0
 10
4.562432
 20
294.966661
 30
0.0
 10
3.690921
 20
294.900275
 30
0.0
 10
2.471715
 20
294.375648
 30
0.0
 10
1.422510
 20
293.577480
 30
0.0
 10
0.624342
 20
292.528275
 30
0.0
 10
0.099717
 20
291.309069
 30
0.0
 10
0.033331
 20
290.437558
 30
0.0
 10
0.000000
 20
289.999991
 30
0.0
 11
4.999998
 21
294.999993
 31
0.0
 11
3.702382
 21
294.828690
 31
0.0
 11
2.503147
 21
294.331950
 31
0.0
 11
1.464465
 21
293.535525
 31
0.0
 11
0.668041
 21
292.496843
 31
0.0
 11
0.171302
 21
291.297608
 31
0.0
 11
0.000000
 21
289.999991
 31
0.0
  0
LINE
  5
130
100
AcDbEntity
  8
Layer_1
 62
7
100
AcDbLine
 10
196.999995
 20
149.999992
 30
0.0
 11
196.999995
 21
289.999991
 31
0.0
  0
SPLINE
  5
131
100
AcDbEntity
  8
Layer_1
 62
7
100
AcDbSpline
 70
0
 71
3
 72
13
 73
9
 74
7
 40
0.000000
 40
0.000000
 40
0.000000
 40
0.000000
 40
1.308875
 40
2.606917
 40
3.915791
 40
5.224666
 40
6.522709
 40
7.831584
 40
7.831584
 40
7.831584
 40
7.831584
 10
196.999995
 20
289.999991
 30
0.0
 10
196.966664
 20
290.437558
 30
0.0
 10
196.900278
 20
291.309069
 30
0.0
 10
196.375653
 20
292.528275
 30
0.0
 10
195.577485
 20
293.577480
 30
0.0
 10
194.528281
 20
294.375648
 30
0.0
 10
193.309075
 20
294.900275
 30
0.0
 10
192.437563
 20
294.966661
 30
0.0
 10
191.999997
 20
294.999993
 30
0.0
 11
196.999995
 21
289.999991
 31
0.0
 11
196.828693
 21
291.297608
 31
0.0
 11
196.331955
 21
292.496843
 31
0.0
 11
195.535530
 21
293.535525
 31
0.0
 11
194.496849
 21
294.331950
 31
0.0
 11
193.297614
 21
294.828690
 31
0.0
 11
191.999997
 21
294.999993
 31
0.0
  0
LINE
  5
132
100
AcDbEntity
  8
Layer_1
 62
7
100
AcDbLine
 10
191.999997
 20
294.999993
 30
0.0
 11
103.499996
 21
294.999993
 31
0.0
  0
LINE
  5
133
100
AcDbEntity
  8
Layer_1
 62
7
100
AcDbLine
 10
98.499998
 20
289.999991
 30
0.0
 11
98.499998
 21
149.999992
 31
0.0
  0
LINE
  5
134
100
AcDbEntity
  8
Layer_1
 62
7
100
AcDbLine
 10
98.499998
 20
149.999992
 30
0.0
 11
103.499996
 21
145.000002
 31
0.0
  0
LINE
  5
135
100
AcDbEntity
  8
Layer_1
 62
7
100
AcDbLine
 10
103.499996
 20
145.000002
 30
0.0
 11
191.999997
 21
145.000002
 31
0.0
  0
LINE
  5
136
100
AcDbEntity
  8
Layer_1
 62
7
100
AcDbLine
 10
191.999997
 20
145.000002
 30
0.0
 11
196.999995
 21
149.999992
 31
0.0
  0
LINE
  5
137
100
AcDbEntity
  8
Layer_1
 62
7
100
AcDbLine
 10
177.749996
 20
179.999988
 30
0.0
 11
117.749997
 21
179.999988
 31
0.0
  0
LINE
  5
138
100
AcDbEntity
  8
Layer_1
 62
7
100
AcDbLine
 10
177.749996
 20
179.999988
 30
0.0
 11
182.749997
 21
174.999998
 31
0.0
  0
LINE
  5
139
100
AcDbEntity
  8
Layer_1
 62
7
100
AcDbLine
 10
182.749997
 20
164.999990
 30
0.0
 11
182.749997
 21
174.999998
 31
0.0
  0
LINE
  5
13a
100
AcDbEntity
  8
Layer_1
 62
7
100
AcDbLine
 10
182.749997
 20
164.999990
 30
0.0
 11
177.749996
 21
160.000000
 31
0.0
  0
LINE
  5
13b
100
AcDbEntity
  8
Layer_1
 62
7
100
AcDbLine
 10
117.749997
 20
160.000000
 30
0.0
 11
177.749996
 21
160.000000
 31
0.0
  0
LINE
  5
13c
100
AcDbEntity
  8
Layer_1
 62
7
100
AcDbLine
 10
117.749997
 20
160.000000
 30
0.0
 11
112.749996
 21
164.999990
 31
0.0
  0
LINE
  5
13d
100
AcDbEntity
  8
Layer_1
 62
7
100
AcDbLine
 10
112.749996
 20
174.999998
 30
0.0
 11
112.749996
 21
164.999990
 31
0.0
  0
LINE
  5
13e
100
AcDbEntity
  8
Layer_1
 62
7
100
AcDbLine
 10
112.749996
 20
174.999998
 30
0.0
 11
117.749997
 21
179.999988
 31
0.0
  0
SPLINE
  5
13f
100
AcDbEntity
  8
Layer_1
 62
7
100
AcDbSpline
 70
0
 71
3
 72
13
 73
9
 74
7
 40
0.000000
 40
0.000000
 40
0.000000
 40
0.000000
 40
1.308875
 40
2.606918
 40
3.915792
 40
5.224666
 40
6.522709
 40
7.831584
 40
7.831584
 40
7.831584
 40
7.831584
 10
103.499996
 20
294.999993
 30
0.0
 10
103.062430
 20
294.966661
 30
0.0
 10
102.190918
 20
294.900275
 30
0.0
 10
100.971712
 20
294.375648
 30
0.0
 10
99.922508
 20
293.577480
 30
0.0
 10
99.124340
 20
292.528275
 30
0.0
 10
98.599715
 20
291.309069
 30
0.0
 10
98.533329
 20
290.437558
 30
0.0
 10
98.499998
 20
289.999991
 30
0.0
 11
103.499996
 21
294.999993
 31
0.0
 11
102.202380
 21
294.828690
 31
0.0
 11
101.003144
 21
294.331950
 31
0.0
 11
99.964463
 21
293.535525
 31
0.0
 11
99.168039
 21
292.496843
 31
0.0
 11
98.671300
 21
291.297608
 31
0.0
 11
98.499998
 21
289.999991
 31
0.0
  0
LINE
  5
140
100
AcDbEntity
  8
Layer_1
 62
7
100
AcDbLine
 10
295.499993
 20
0.000001
 30
0.0
 11
295.499993
 21
140.000001
 31
0.0
  0
SPLINE
  5
141
100
AcDbEntity
  8
Layer_1
 62
7
100
AcDbSpline
 70
0
 71
3
 72
13
 73
9
 74
7
 40
0.000000
 40
0.000000
 40
0.000000
 40
0.000000
 40
1.308875
 40
2.606917
 40
3.915791
 40
5.224666
 40
6.522709
 40
7.831584
 40
7.831584
 40
7.831584
 40
7.831584
 10
295.499993
 20
140.000001
 30
0.0
 10
295.466662
 20
140.437567
 30
0.0
 10
295.400276
 20
141.309078
 30
0.0
 10
294.875651
 20
142.528285
 30
0.0
 10
294.077483
 20
143.577489
 30
0.0
 10
293.028279
 20
144.375658
 30
0.0
 10
291.809073
 20
144.900284
 30
0.0
 10
290.937561
 20
144.966671
 30
0.0
 10
290.499995
 20
145.000002
 30
0.0
 11
295.499993
 21
140.000001
 31
0.0
 11
295.328691
 21
141.297617
 31
0.0
 11
294.831952
 21
142.496853
 31
0.0
 11
294.035528
 21
143.535534
 31
0.0
 11
292.996847
 21
144.331959
 31
0.0
 11
291.797611
 21
144.828699
 31
0.0
 11
290.499995
 21
145.000002
 31
0.0
  0
LINE
  5
142
100
AcDbEntity
  8
Layer_1
 62
7
100
AcDbLine
 10
290.499995
 20
145.000002
 30
0.0
 11
201.999994
 21
145.000002
 31
0.0
  0
LINE
  5
143
100
AcDbEntity
  8
Layer_1
 62
7
100
AcDbLine
 10
196.999995
 20
140.000001
 30
0.0
 11
196.999995
 21
0.000001
 31
0.0
  0
LINE
  5
144
100
AcDbEntity
  8
Layer_1
 62
7
100
AcDbLine
 10
196.999995
 20
0.000001
 30
0.0
 11
201.999994
 21
-4.999989
 31
0.0
  0
LINE
  5
145
100
AcDbEntity
  8
Layer_1
 62
7
100
AcDbLine
 10
201.999994
 20
-4.999989
 30
0.0
 11
290.499995
 21
-4.999989
 31
0.0
  0
LINE
  5
146
100
AcDbEntity
  8
Layer_1
 62
7
100
AcDbLine
 10
290.499995
 20
-4.999989
 30
0.0
 11
295.499993
 21
0.000001
 31
0.0
  0
LINE
  5
147
100
AcDbEntity
  8
Layer_1
 62
7
100
AcDbLine
 10
276.249994
 20
29.999998
 30
0.0
 11
216.249995
 21
29.999998
 31
0.0
  0
LINE
  5
148
100
AcDbEntity
  8
Layer_1
 62
7
100
AcDbLine
 10
276.249994
 20
29.999998
 30
0.0
 11
281.249995
 21
25.000008
 31
0.0
  0
LINE
  5
149
100
AcDbEntity
  8
Layer_1
 62
7
100
AcDbLine
 10
281.249995
 20
15.000000
 30
0.0
 11
281.249995
 21
25.000008
 31
0.0
  0
LINE
  5
14a
100
AcDbEntity
  8
Layer_1
 62
7
100
AcDbLine
 10
281.249995
 20
15.000000
 30
0.0
 11
276.249994
 21
10.000010
 31
0.0
  0
LINE
  5
14b
100
AcDbEntity
  8
Layer_1
 62
7
100
AcDbLine
 10
216.249995
 20
10.000010
 30
0.0
 11
276.249994
 21
10.000010
 31
0.0
  0
LINE
  5
14c
100
AcDbEntity
  8
Layer_1
 62
7
100
AcDbLine
 10
216.249995
 20
10.000010
 30
0.0
 11
211.249994
 21
15.000000
 31
0.0
  0
LINE
  5
14d
100
AcDbEntity
  8
Layer_1
 62
7
100
AcDbLine
 10
211.249994
 20
25.000008
 30
0.0
 11
211.249994
 21
15.000000
 31
0.0
  0
LINE
  5
14e
100
AcDbEntity
  8
Layer_1
 62
7
100
AcDbLine
 10
211.249994
 20
25.000008
 30
0.0
 11
216.249995
 21
29.999998
 31
0.0
  0
SPLINE
  5
14f
100
AcDbEntity
  8
Layer_1
 62
7
100
AcDbSpline
 70
0
 71
3
 72
13
 73
9
 74
7
 40
0.000000
 40
0.000000
 40
0.000000
 40
0.000000
 40
1.308875
 40
2.606918
 40
3.915792
 40
5.224666
 40
6.522709
 40
7.831584
 40
7.831584
 40
7.831584
 40
7.831584
 10
201.999994
 20
145.000002
 30
0.0
 10
201.562428
 20
144.966671
 30
0.0
 10
200.690916
 20
144.900284
 30
0.0
 10
199.471710
 20
144.375658
 30
0.0
 10
198.422506
 20
143.577489
 30
0.0
 10
197.624338
 20
142.528285
 30
0.0
 10
197.099713
 20
141.309078
 30
0.0
 10
197.033327
 20
140.437567
 30
0.0
 10
196.999995
 20
140.000001
 30
0.0
 11
201.999994
 21
145.000002
 31
0.0
 11
200.702377
 21
144.828699
 31
0.0
 11
199.503142
 21
144.331959
 31
0.0
 11
198.464461
 21
143.535534
 31
0.0
 11
197.668036
 21
142.496853
 31
0.0
 11
197.171298
 21
141.297617
 31
0.0
 11
196.999995
 21
140.000001
 31
0.0
  0
LINE
  5
150
100
AcDbEntity
  8
Layer_1
 62
7
100
AcDbLine
 10
393.999994
 20
0.000001
 30
0.0
 11
393.999994
 21
140.000001
 31
0.0
  0
SPLINE
  5
151
100
AcDbEntity
  8
Layer_1
 62
7
100
AcDbSpline
 70
0
 71
3
 72
13
 73
9
 74
7
 40
0.000000
 40
0.000000
 40
0.000000
 40
0.000000
 40
1.308875
 40
2.606917
 40
3.915791
 40
5.224666
 40
6.522709
 40
7.831584
 40
7.831584
 40
7.831584
 40
7.831584
 10
393.999994
 20
140.000001
 30
0.0
 10
393.966663
 20
140.437567
 30
0.0
 10
393.900276
 20
141.309078
 30
0.0
 10
393.375652
 20
142.528285
 30
0.0
 10
392.577483
 20
143.577489
 30
0.0
 10
391.528279
 20
144.375658
 30
0.0
 10
390.309073
 20
144.900284
 30
0.0
 10
389.437562
 20
144.966671
 30
0.0
 10
388.999995
 20
145.000002
 30
0.0
 11
393.999994
 21
140.000001
 31
0.0
 11
393.828692
 21
141.297617
 31
0.0
 11
393.331953
 21
142.496853
 31
0.0
 11
392.535529
 21
143.535534
 31
0.0
 11
391.496847
 21
144.331959
 31
0.0
 11
390.297612
 21
144.828699
 31
0.0
 11
388.999995
 21
145.000002
 31
0.0
  0
LINE
  5
152
100
AcDbEntity
  8
Layer_1
 62
7
100
AcDbLine
 10
388.999995
 20
145.000002
 30
0.0
 11
300.499994
 21
145.000002
 31
0.0
  0
LINE
  5
153
100
AcDbEntity
  8
Layer_1
 62
7
100
AcDbLine
 10
295.499996
 20
140.000001
 30
0.0
 11
295.499996
 21
0.000001
 31
0.0
  0
LINE
  5
154
100
AcDbEntity
  8
Layer_1
 62
7
100
AcDbLine
 10
295.499996
 20
0.000001
 30
0.0
 11
300.499994
 21
-4.999989
 31
0.0
  0
LINE
  5
155
100
AcDbEntity
  8
Layer_1
 62
7
100
AcDbLine
 10
300.499994
 20
-4.999989
 30
0.0
 11
388.999995
 21
-4.999989
 31
0.0
  0
LINE
  5
156
100
AcDbEntity
  8
Layer_1
 62
7
100
AcDbLine
 10
388.999995
 20
-4.999989
 30
0.0
 11
393.999994
 21
0.000001
 31
0.0
  0
LINE
  5
157
100
AcDbEntity
  8
Layer_1
 62
7
100
AcDbLine
 10
374.749994
 20
29.999998
 30
0.0
 11
314.749996
 21
29.999998
 31
0.0
  0
LINE
  5
158
100
AcDbEntity
  8
Layer_1
 62
7
100
AcDbLine
 10
374.749994
 20
29.999998
 30
0.0
 11
379.749995
 21
25.000008
 31
0.0
  0
LINE
  5
159
100
AcDbEntity
  8
Layer_1
 62
7
100
AcDbLine
 10
379.749995
 20
15.000000
 30
0.0
 11
379.749995
 21
25.000008
 31
0.0
  0
LINE
  5
15a
100
AcDbEntity
  8
Layer_1
 62
7
100
AcDbLine
 10
379.749995
 20
15.000000
 30
0.0
 11
374.749994
 21
10.000010
 31
0.0
  0
LINE
  5
15b
100
AcDbEntity
  8
Layer_1
 62
7
100
AcDbLine
 10
314.749996
 20
10.000010
 30
0.0
 11
374.749994
 21
10.000010
 31
0.0
  0
LINE
  5
15c
100
AcDbEntity
  8
Layer_1
 62
7
100
AcDbLine
 10
314.749996
 20
10.000010
 30
0.0
 11
309.749994
 21
15.000000
 31
0.0
  0
LINE
  5
15d
100
AcDbEntity
  8
Layer_1
 62
7
100
AcDbLine
 10
309.749994
 20
25.000008
 30
0.0
 11
309.749994
 21
15.000000
 31
0.0
  0
LINE
  5
15e
100
AcDbEntity
  8
Layer_1
 62
7
100
AcDbLine
 10
309.749994
 20
25.000008
 30
0.0
 11
314.749996
 21
29.999998
 31
0.0
  0
SPLINE
  5
15f
100
AcDbEntity
  8
Layer_1
 62
7
100
AcDbSpline
 70
0
 71
3
 72
13
 73
9
 74
7
 40
0.000000
 40
0.000000
 40
0.000000
 40
0.000000
 40
1.308875
 40
2.606918
 40
3.915792
 40
5.224666
 40
6.522709
 40
7.831584
 40
7.831584
 40
7.831584
 40
7.831584
 10
300.499994
 20
145.000002
 30
0.0
 10
300.062428
 20
144.966671
 30
0.0
 10
299.190917
 20
144.900284
 30
0.0
 10
297.971711
 20
144.375658
 30
0.0
 10
296.922506
 20
143.577489
 30
0.0
 10
296.124338
 20
142.528285
 30
0.0
 10
295.599713
 20
141.309078
 30
0.0
 10
295.533327
 20
140.437567
 30
0.0
 10
295.499996
 20
140.000001
 30
0.0
 11
300.499994
 21
145.000002
 31
0.0
 11
299.202378
 21
144.828699
 31
0.0
 11
298.003143
 21
144.331959
 31
0.0
 11
296.964461
 21
143.535534
 31
0.0
 11
296.168037
 21
142.496853
 31
0.0
 11
295.671298
 21
141.297617
 31
0.0
 11
295.499996
 21
140.000001
 31
0.0
  0
LINE
  5
160
100
AcDbEntity
  8
Layer_1
 62
7
100
AcDbLine
 10
295.499993
 20
149.999992
 30
0.0
 11
295.499993
 21
289.999991
 31
0.0
  0
SPLINE
  5
161
100
AcDbEntity
  8
Layer_1
 62
7
100
AcDbSpline
 70
0
 71
3
 72
13
 73
9
 74
7
 40
0.000000
 40
0.000000
 40
0.000000
 40
0.000000
 40
1.308875
 40
2.606917
 40
3.915791
 40
5.224666
 40
6.522709
 40
7.831584
 40
7.831584
 40
7.831584
 40
7.831584
 10
295.499993
 20
289.999991
 30
0.0
 10
295.466662
 20
290.437558
 30
0.0
 10
295.400276
 20
291.309069
 30
0.0
 10
294.875651
 20
292.528275
 30
0.0
 10
294.077483
 20
293.577480
 30
0.0
 10
293.028279
 20
294.375648
 30
0.0
 10
291.809073
 20
294.900275
 30
0.0
 10
290.937561
 20
294.966661
 30
0.0
 10
290.499995
 20
294.999993
 30
0.0
 11
295.499993
 21
289.999991
 31
0.0
 11
295.328691
 21
291.297608
 31
0.0
 11
294.831952
 21
292.496843
 31
0.0
 11
294.035528
 21
293.535525
 31
0.0
 11
292.996847
 21
294.331950
 31
0.0
 11
291.797611
 21
294.828690
 31
0.0
 11
290.499995
 21
294.999993
 31
0.0
  0
LINE
  5
162
100
AcDbEntity
  8
Layer_1
 62
7
100
AcDbLine
 10
290.499995
 20
294.999993
 30
0.0
 11
201.999994
 21
294.999993
 31
0.0
  0
LINE
  5
163
100
AcDbEntity
  8
Layer_1
 62
7
100
AcDbLine
 10
196.999995
 20
289.999991
 30
0.0
 11
196.999995
 21
149.999992
 31
0.0
  0
LINE
  5
164
100
AcDbEntity
  8
Layer_1
 62
7
100
AcDbLine
 10
196.999995
 20
149.999992
 30
0.0
 11
201.999994
 21
145.000002
 31
0.0
  0
LINE
  5
165
100
AcDbEntity
  8
Layer_1
 62
7
100
AcDbLine
 10
201.999994
 20
145.000002
 30
0.0
 11
290.499995
 21
145.000002
 31
0.0
  0
LINE
  5
166
100
AcDbEntity
  8
Layer_1
 62
7
100
AcDbLine
 10
290.499995
 20
145.000002
 30
0.0
 11
295.499993
 21
149.999992
 31
0.0
  0
LINE
  5
167
100
AcDbEntity
  8
Layer_1
 62
7
100
AcDbLine
 10
276.249994
 20
179.999988
 30
0.0
 11
216.249995
 21
179.999988
 31
0.0
  0
LINE
  5
168
100
AcDbEntity
  8
Layer_1
 62
7
100
AcDbLine
 10
276.249994
 20
179.999988
 30
0.0
 11
281.249995
 21
174.999998
 31
0.0
  0
LINE
  5
169
100
AcDbEntity
  8
Layer_1
 62
7
100
AcDbLine
 10
281.249995
 20
164.999990
 30
0.0
 11
281.249995
 21
174.999998
 31
0.0
  0
LINE
  5
16a
100
AcDbEntity
  8
Layer_1
 62
7
100
AcDbLine
 10
281.249995
 20
164.999990
 30
0.0
 11
276.249994
 21
160.000000
 31
0.0
  0
LINE
  5
16b
100
AcDbEntity
  8
Layer_1
 62
7
100
AcDbLine
 10
216.249995
 20
160.000000
 30
0.0
 11
276.249994
 21
160.000000
 31
0.0
  0
LINE
  5
16c
100
AcDbEntity
  8
Layer_1
 62
7
100
AcDbLine
 10
216.249995
 20
160.000000
 30
0.0
 11
211.249994
 21
164.999990
 31
0.0
  0
LINE
  5
16d
100
AcDbEntity
  8
Layer_1
 62
7
100
AcDbLine
 10
211.249994
 20
174.999998
 30
0.0
 11
211.249994
 21
164.999990
 31
0.0
  0
LINE
  5
16e
100
AcDbEntity
  8
Layer_1
 62
7
100
AcDbLine
 10
211.249994
 20
174.999998
 30
0.0
 11
216.249995
 21
179.999988
 31
0.0
  0
SPLINE
  5
16f
100
AcDbEntity
  8
Layer_1
 62
7
100
AcDbSpline
 70
0
 71
3
 72
13
 73
9
 74
7
 40
0.000000
 40
0.000000
 40
0.000000
 40
0.000000
 40
1.308875
 40
2.606918
 40
3.915792
 40
5.224666
 40
6.522709
 40
7.831584
 40
7.831584
 40
7.831584
 40
7.831584
 10
201.999994
 20
294.999993
 30
0.0
 10
201.562428
 20
294.966661
 30
0.0
 10
200.690916
 20
294.900275
 30
0.0
 10
199.471710
 20
294.375648
 30
0.0
 10
198.422506
 20
293.577480
 30
0.0
 10
197.624338
 20
292.528275
 30
0.0
 10
197.099713
 20
291.309069
 30
0.0
 10
197.033327
 20
290.437558
 30
0.0
 10
196.999995
 20
289.999991
 30
0.0
 11
201.999994
 21
294.999993
 31
0.0
 11
200.702377
 21
294.828690
 31
0.0
 11
199.503142
 21
294.331950
 31
0.0
 11
198.464461
 21
293.535525
 31
0.0
 11
197.668036
 21
292.496843
 31
0.0
 11
197.171298
 21
291.297608
 31
0.0
 11
196.999995
 21
289.999991
 31
0.0
  0
LINE
  5
170
100
AcDbEntity
  8
Layer_1
 62
7
100
AcDbLine
 10
393.999994
 20
149.999992
 30
0.0
 11
393.999994
 21
289.999991
 31
0.0
  0
SPLINE
  5
171
100
AcDbEntity
  8
Layer_1
 62
7
100
AcDbSpline
 70
0
 71
3
 72
13
 73
9
 74
7
 40
0.000000
 40
0.000000
 40
0.000000
 40
0.000000
 40
1.308875
 40
2.606917
 40
3.915791
 40
5.224666
 40
6.522709
 40
7.831584
 40
7.831584
 40
7.831584
 40
7.831584
 10
393.999994
 20
289.999991
 30
0.0
 10
393.966663
 20
290.437558
 30
0.0
 10
393.900276
 20
291.309069
 30
0.0
 10
393.375652
 20
292.528275
 30
0.0
 10
392.577483
 20
293.577480
 30
0.0
 10
391.528279
 20
294.375648
 30
0.0
 10
390.309073
 20
294.900275
 30
0.0
 10
389.437562
 20
294.966661
 30
0.0
 10
388.999995
 20
294.999993
 30
0.0
 11
393.999994
 21
289.999991
 31
0.0
 11
393.828692
 21
291.297608
 31
0.0
 11
393.331953
 21
292.496843
 31
0.0
 11
392.535529
 21
293.535525
 31
0.0
 11
391.496847
 21
294.331950
 31
0.0
 11
390.297612
 21
294.828690
 31
0.0
 11
388.999995
 21
294.999993
 31
0.0
  0
LINE
  5
172
100
AcDbEntity
  8
Layer_1
 62
7
100
AcDbLine
 10
388.999995
 20
294.999993
 30
0.0
 11
300.499994
 21
294.999993
 31
0.0
  0
LINE
  5
173
100
AcDbEntity
  8
Layer_1
 62
7
100
AcDbLine
 10
295.499996
 20
289.999991
 30
0.0
 11
295.499996
 21
149.999992
 31
0.0
  0
LINE
  5
174
100
AcDbEntity
  8
Layer_1
 62
7
100
AcDbLine
 10
295.499996
 20
149.999992
 30
0.0
 11
300.499994
 21
145.000002
 31
0.0
  0
LINE
  5
175
100
AcDbEntity
  8
Layer_1
 62
7
100
AcDbLine
 10
300.499994
 20
145.000002
 30
0.0
 11
388.999995
 21
145.000002
 31
0.0
  0
LINE
  5
176
100
AcDbEntity
  8
Layer_1
 62
7
100
AcDbLine
 10
388.999995
 20
145.000002
 30
0.0
 11
393.999994
 21
149.999992
 31
0.0
  0
LINE
  5
177
100
AcDbEntity
  8
Layer_1
 62
7
100
AcDbLine
 10
374.749994
 20
179.999988
 30
0.0
 11
314.749996
 21
179.999988
 31
0.0
  0
LINE
  5
178
100
AcDbEntity
  8
Layer_1
 62
7
100
AcDbLine
 10
374.749994
 20
179.999988
 30
0.0
 11
379.749995
 21
174.999998
 31
0.0
  0
LINE
  5
179
100
AcDbEntity
  8
Layer_1
 62
7
100
AcDbLine
 10
379.749995
 20
164.999990
 30
0.0
 11
379.749995
 21
174.999998
 31
0.0
  0
LINE
  5
17a
100
AcDbEntity
  8
Layer_1
 62
7
100
AcDbLine
 10
379.749995
 20
164.999990
 30
0.0
 11
374.749994
 21
160.000000
 31
0.0
  0
LINE
  5
17b
100
AcDbEntity
  8
Layer_1
 62
7
100
AcDbLine
 10
314.749996
 20
160.000000
 30
0.0
 11
374.749994
 21
160.000000
 31
0.0
  0
LINE
  5
17c
100
AcDbEntity
  8
Layer_1
 62
7
100
AcDbLine
 10
314.749996
 20
160.000000
 30
0.0
 11
309.749994
 21
164.999990
 31
0.0
  0
LINE
  5
17d
100
AcDbEntity
  8
Layer_1
 62
7
100
AcDbLine
 10
309.749994
 20
174.999998
 30
0.0
 11
309.749994
 21
164.999990
 31
0.0
  0
LINE
  5
17e
100
AcDbEntity
  8
Layer_1
 62
7
100
AcDbLine
 10
309.749994
 20
174.999998
 30
0.0
 11
314.749996
 21
179.999988
 31
0.0
  0
SPLINE
  5
17f
100
AcDbEntity
  8
Layer_1
 62
7
100
AcDbSpline
 70
0
 71
3
 72
13
 73
9
 74
7
 40
0.000000
 40
0.000000
 40
0.000000
 40
0.000000
 40
1.308875
 40
2.606918
 40
3.915792
 40
5.224666
 40
6.522709
 40
7.831584
 40
7.831584
 40
7.831584
 40
7.831584
 10
300.499994
 20
294.999993
 30
0.0
 10
300.062428
 20
294.966661
 30
0.0
 10
299.190917
 20
294.900275
 30
0.0
 10
297.971711
 20
294.375648
 30
0.0
 10
296.922506
 20
293.577480
 30
0.0
 10
296.124338
 20
292.528275
 30
0.0
 10
295.599713
 20
291.309069
 30
0.0
 10
295.533327
 20
290.437558
 30
0.0
 10
295.499996
 20
289.999991
 30
0.0
 11
300.499994
 21
294.999993
 31
0.0
 11
299.202378
 21
294.828690
 31
0.0
 11
298.003143
 21
294.331950
 31
0.0
 11
296.964461
 21
293.535525
 31
0.0
 11
296.168037
 21
292.496843
 31
0.0
 11
295.671298
 21
291.297608
 31
0.0
 11
295.499996
 21
289.999991
 31
0.0
  0
LINE
  5
180
100
AcDbEntity
  8
Layer_1
 62
7
100
AcDbLine
 10
492.499980
 20
0.000001
 30
0.0
 11
492.499980
 21
140.000001
 31
0.0
  0
SPLINE
  5
181
100
AcDbEntity
  8
Layer_1
 62
7
100
AcDbSpline
 70
0
 71
3
 72
13
 73
9
 74
7
 40
0.000000
 40
0.000000
 40
0.000000
 40
0.000000
 40
1.308875
 40
2.606917
 40
3.915791
 40
5.224666
 40
6.522709
 40
7.831584
 40
7.831584
 40
7.831584
 40
7.831584
 10
492.499980
 20
140.000001
 30
0.0
 10
492.466649
 20
140.437567
 30
0.0
 10
492.400263
 20
141.309078
 30
0.0
 10
491.875638
 20
142.528285
 30
0.0
 10
491.077470
 20
143.577489
 30
0.0
 10
490.028266
 20
144.375658
 30
0.0
 10
488.809060
 20
144.900284
 30
0.0
 10
487.937548
 20
144.966671
 30
0.0
 10
487.499982
 20
145.000002
 30
0.0
 11
492.499980
 21
140.000001
 31
0.0
 11
492.328678
 21
141.297617
 31
0.0
 11
491.831939
 21
142.496853
 31
0.0
 11
491.035515
 21
143.535534
 31
0.0
 11
489.996834
 21
144.331959
 31
0.0
 11
488.797598
 21
144.828699
 31
0.0
 11
487.499982
 21
145.000002
 31
0.0
  0
LINE
  5
182
100
AcDbEntity
  8
Layer_1
 62
7
100
AcDbLine
 10
487.499982
 20
145.000002
 30
0.0
 11
398.999981
 21
145.000002
 31
0.0
  0
LINE
  5
183
100
AcDbEntity
  8
Layer_1
 62
7
100
AcDbLine
 10
393.999982
 20
140.000001
 30
0.0
 11
393.999982
 21
0.000001
 31
0.0
  0
LINE
  5
184
100
AcDbEntity
  8
Layer_1
 62
7
100
AcDbLine
 10
393.999982
 20
0.000001
 30
0.0
 11
398.999981
 21
-4.999989
 31
0.0
  0
LINE
  5
185
100
AcDbEntity
  8
Layer_1
 62
7
100
AcDbLine
 10
398.999981
 20
-4.999989
 30
0.0
 11
487.499982
 21
-4.999989
 31
0.0
  0
LINE
  5
186
100
AcDbEntity
  8
Layer_1
 62
7
100
AcDbLine
 10
487.499982
 20
-4.999989
 30
0.0
 11
492.499980
 21
0.000001
 31
0.0
  0
LINE
  5
187
100
AcDbEntity
  8
Layer_1
 62
7
100
AcDbLine
 10
473.249981
 20
29.999998
 30
0.0
 11
413.249982
 21
29.999998
 31
0.0
  0
LINE
  5
188
100
AcDbEntity
  8
Layer_1
 62
7
100
AcDbLine
 10
473.249981
 20
29.999998
 30
0.0
 11
478.249982
 21
25.000008
 31
0.0
  0
LINE
  5
189
100
AcDbEntity
  8
Layer_1
 62
7
100
AcDbLine
 10
478.249982
 20
15.000000
 30
0.0
 11
478.249982
 21
25.000008
 31
0.0
  0
LINE
  5
18a
100
AcDbEntity
  8
Layer_1
 62
7
100
AcDbLine
 10
478.249982
 20
15.000000
 30
0.0
 11
473.249981
 21
10.000010
 31
0.0
  0
LINE
  5
18b
100
AcDbEntity
  8
Layer_1
 62
7
100
AcDbLine
 10
413.249982
 20
10.000010
 30
0.0
 11
473.249981
 21
10.000010
 31
0.0
  0
LINE
  5
18c
100
AcDbEntity
  8
Layer_1
 62
7
100
AcDbLine
 10
413.249982
 20
10.000010
 30
0.0
 11
408.249981
 21
15.000000
 31
0.0
  0
LINE
  5
18d
100
AcDbEntity
  8
Layer_1
 62
7
100
AcDbLine
 10
408.249981
 20
25.000008
 30
0.0
 11
408.249981
 21
15.000000
 31
0.0
  0
LINE
  5
18e
100
AcDbEntity
  8
Layer_1
 62
7
100
AcDbLine
 10
408.249981
 20
25.000008
 30
0.0
 11
413.249982
 21
29.999998
 31
0.0
  0
SPLINE
  5
18f
100
AcDbEntity
  8
Layer_1
 62
7
100
AcDbSpline
 70
0
 71
3
 72
13
 73
9
 74
7
 40
0.000000
 40
0.000000
 40
0.000000
 40
0.000000
 40
1.308875
 40
2.606918
 40
3.915792
 40
5.224666
 40
6.522709
 40
7.831584
 40
7.831584
 40
7.831584
 40
7.831584
 10
398.999981
 20
145.000002
 30
0.0
 10
398.562415
 20
144.966671
 30
0.0
 10
397.690903
 20
144.900284
 30
0.0
 10
396.471697
 20
144.375658
 30
0.0
 10
395.422493
 20
143.577489
 30
0.0
 10
394.624325
 20
142.528285
 30
0.0
 10
394.099700
 20
141.309078
 30
0.0
 10
394.033314
 20
140.437567
 30
0.0
 10
393.999982
 20
140.000001
 30
0.0
 11
398.999981
 21
145.000002
 31
0.0
 11
397.702364
 21
144.828699
 31
0.0
 11
396.503129
 21
144.331959
 31
0.0
 11
395.464448
 21
143.535534
 31
0.0
 11
394.668023
 21
142.496853
 31
0.0
 11
394.171285
 21
141.297617
 31
0.0
 11
393.999982
 21
140.000001
 31
0.0
  0
LINE
  5
190
100
AcDbEntity
  8
Layer_1
 62
7
100
AcDbLine
 10
590.999995
 20
0.000001
 30
0.0
 11
590.999995
 21
140.000001
 31
0.0
  0
SPLINE
  5
191
100
AcDbEntity
  8
Layer_1
 62
7
100
AcDbSpline
 70
0
 71
3
 72
13
 73
9
 74
7
 40
0.000000
 40
0.000000
 40
0.000000
 40
0.000000
 40
1.308875
 40
2.606917
 40
3.915791
 40
5.224666
 40
6.522709
 40
7.831584
 40
7.831584
 40
7.831584
 40
7.831584
 10
590.999995
 20
140.000001
 30
0.0
 10
590.966664
 20
140.437567
 30
0.0
 10
590.900278
 20
141.309078
 30
0.0
 10
590.375653
 20
142.528285
 30
0.0
 10
589.577485
 20
143.577489
 30
0.0
 10
588.528280
 20
144.375658
 30
0.0
 10
587.309074
 20
144.900284
 30
0.0
 10
586.437563
 20
144.966671
 30
0.0
 10
585.999996
 20
145.000002
 30
0.0
 11
590.999995
 21
140.000001
 31
0.0
 11
590.828693
 21
141.297617
 31
0.0
 11
590.331954
 21
142.496853
 31
0.0
 11
589.535530
 21
143.535534
 31
0.0
 11
588.496848
 21
144.331959
 31
0.0
 11
587.297613
 21
144.828699
 31
0.0
 11
585.999996
 21
145.000002
 31
0.0
  0
LINE
  5
192
100
AcDbEntity
  8
Layer_1
 62
7
100
AcDbLine
 10
585.999996
 20
145.000002
 30
0.0
 11
497.499996
 21
145.000002
 31
0.0
  0
LINE
  5
193
100
AcDbEntity
  8
Layer_1
 62
7
100
AcDbLine
 10
492.499997
 20
140.000001
 30
0.0
 11
492.499997
 21
0.000001
 31
0.0
  0
LINE
  5
194
100
AcDbEntity
  8
Layer_1
 62
7
100
AcDbLine
 10
492.499997
 20
0.000001
 30
0.0
 11
497.499996
 21
-4.999989
 31
0.0
  0
LINE
  5
195
100
AcDbEntity
  8
Layer_1
 62
7
100
AcDbLine
 10
497.499996
 20
-4.999989
 30
0.0
 11
585.999996
 21
-4.999989
 31
0.0
  0
LINE
  5
196
100
AcDbEntity
  8
Layer_1
 62
7
100
AcDbLine
 10
585.999996
 20
-4.999989
 30
0.0
 11
590.999995
 21
0.000001
 31
0.0
  0
LINE
  5
197
100
AcDbEntity
  8
Layer_1
 62
7
100
AcDbLine
 10
571.749995
 20
29.999998
 30
0.0
 11
511.749997
 21
29.999998
 31
0.0
  0
LINE
  5
198
100
AcDbEntity
  8
Layer_1
 62
7
100
AcDbLine
 10
571.749995
 20
29.999998
 30
0.0
 11
576.749997
 21
25.000008
 31
0.0
  0
LINE
  5
199
100
AcDbEntity
  8
Layer_1
 62
7
100
AcDbLine
 10
576.749997
 20
15.000000
 30
0.0
 11
576.749997
 21
25.000008
 31
0.0
  0
LINE
  5
19a
100
AcDbEntity
  8
Layer_1
 62
7
100
AcDbLine
 10
576.749997
 20
15.000000
 30
0.0
 11
571.749995
 21
10.000010
 31
0.0
  0
LINE
  5
19b
100
AcDbEntity
  8
Layer_1
 62
7
100
AcDbLine
 10
511.749997
 20
10.000010
 30
0.0
 11
571.749995
 21
10.000010
 31
0.0
  0
LINE
  5
19c
100
AcDbEntity
  8
Layer_1
 62
7
100
AcDbLine
 10
511.749997
 20
10.000010
 30
0.0
 11
506.749995
 21
15.000000
 31
0.0
  0
LINE
  5
19d
100
AcDbEntity
  8
Layer_1
 62
7
100
AcDbLine
 10
506.749995
 20
25.000008
 30
0.0
 11
506.749995
 21
15.000000
 31
0.0
  0
LINE
  5
19e
100
AcDbEntity
  8
Layer_1
 62
7
100
AcDbLine
 10
506.749995
 20
25.000008
 30
0.0
 11
511.749997
 21
29.999998
 31
0.0
  0
SPLINE
  5
19f
100
AcDbEntity
  8
Layer_1
 62
7
100
AcDbSpline
 70
0
 71
3
 72
13
 73
9
 74
7
 40
0.000000
 40
0.000000
 40
0.000000
 40
0.000000
 40
1.308875
 40
2.606918
 40
3.915792
 40
5.224666
 40
6.522709
 40
7.831584
 40
7.831584
 40
7.831584
 40
7.831584
 10
497.499996
 20
145.000002
 30
0.0
 10
497.062429
 20
144.966671
 30
0.0
 10
496.190918
 20
144.900284
 30
0.0
 10
494.971712
 20
144.375658
 30
0.0
 10
493.922507
 20
143.577489
 30
0.0
 10
493.124339
 20
142.528285
 30
0.0
 10
492.599714
 20
141.309078
 30
0.0
 10
492.533328
 20
140.437567
 30
0.0
 10
492.499997
 20
140.000001
 30
0.0
 11
497.499996
 21
145.000002
 31
0.0
 11
496.202379
 21
144.828699
 31
0.0
 11
495.003144
 21
144.331959
 31
0.0
 11
493.964462
 21
143.535534
 31
0.0
 11
493.168038
 21
142.496853
 31
0.0
 11
492.671299
 21
141.297617
 31
0.0
 11
492.499997
 21
140.000001
 31
0.0
  0
LINE
  5
1a0
100
AcDbEntity
  8
Layer_1
 62
7
100
AcDbLine
 10
492.499980
 20
149.999992
 30
0.0
 11
492.499980
 21
289.999991
 31
0.0
  0
SPLINE
  5
1a1
100
AcDbEntity
  8
Layer_1
 62
7
100
AcDbSpline
 70
0
 71
3
 72
13
 73
9
 74
7
 40
0.000000
 40
0.000000
 40
0.000000
 40
0.000000
 40
1.308875
 40
2.606917
 40
3.915791
 40
5.224666
 40
6.522709
 40
7.831584
 40
7.831584
 40
7.831584
 40
7.831584
 10
492.499980
 20
289.999991
 30
0.0
 10
492.466649
 20
290.437558
 30
0.0
 10
492.400263
 20
291.309069
 30
0.0
 10
491.875638
 20
292.528275
 30
0.0
 10
491.077470
 20
293.577480
 30
0.0
 10
490.028266
 20
294.375648
 30
0.0
 10
488.809060
 20
294.900275
 30
0.0
 10
487.937548
 20
294.966661
 30
0.0
 10
487.499982
 20
294.999993
 30
0.0
 11
492.499980
 21
289.999991
 31
0.0
 11
492.328678
 21
291.297608
 31
0.0
 11
491.831939
 21
292.496843
 31
0.0
 11
491.035515
 21
293.535525
 31
0.0
 11
489.996834
 21
294.331950
 31
0.0
 11
488.797598
 21
294.828690
 31
0.0
 11
487.499982
 21
294.999993
 31
0.0
  0
LINE
  5
1a2
100
AcDbEntity
  8
Layer_1
 62
7
100
AcDbLine
 10
487.499982
 20
294.999993
 30
0.0
 11
398.999981
 21
294.999993
 31
0.0
  0
LINE
  5
1a3
100
AcDbEntity
  8
Layer_1
 62
7
100
AcDbLine
 10
393.999982
 20
289.999991
 30
0.0
 11
393.999982
 21
149.999992
 31
0.0
  0
LINE
  5
1a4
100
AcDbEntity
  8
Layer_1
 62
7
100
AcDbLine
 10
393.999982
 20
149.999992
 30
0.0
 11
398.999981
 21
145.000002
 31
0.0
  0
LINE
  5
1a5
100
AcDbEntity
  8
Layer_1
 62
7
100
AcDbLine
 10
398.999981
 20
145.000002
 30
0.0
 11
487.499982
 21
145.000002
 31
0.0
  0
LINE
  5
1a6
100
AcDbEntity
  8
Layer_1
 62
7
100
AcDbLine
 10
487.499982
 20
145.000002
 30
0.0
 11
492.499980
 21
149.999992
 31
0.0
  0
LINE
  5
1a7
100
AcDbEntity
  8
Layer_1
 62
7
100
AcDbLine
 10
473.249981
 20
179.999988
 30
0.0
 11
413.249982
 21
179.999988
 31
0.0
  0
LINE
  5
1a8
100
AcDbEntity
  8
Layer_1
 62
7
100
AcDbLine
 10
473.249981
 20
179.999988
 30
0.0
 11
478.249982
 21
174.999998
 31
0.0
  0
LINE
  5
1a9
100
AcDbEntity
  8
Layer_1
 62
7
100
AcDbLine
 10
478.249982
 20
164.999990
 30
0.0
 11
478.249982
 21
174.999998
 31
0.0
  0
LINE
  5
1aa
100
AcDbEntity
  8
Layer_1
 62
7
100
AcDbLine
 10
478.249982
 20
164.999990
 30
0.0
 11
473.249981
 21
160.000000
 31
0.0
  0
LINE
  5
1ab
100
AcDbEntity
  8
Layer_1
 62
7
100
AcDbLine
 10
413.249982
 20
160.000000
 30
0.0
 11
473.249981
 21
160.000000
 31
0.0
  0
LINE
  5
1ac
100
AcDbEntity
  8
Layer_1
 62
7
100
AcDbLine
 10
413.249982
 20
160.000000
 30
0.0
 11
408.249981
 21
164.999990
 31
0.0
  0
LINE
  5
1ad
100
AcDbEntity
  8
Layer_1
 62
7
100
AcDbLine
 10
408.249981
 20
174.999998
 30
0.0
 11
408.249981
 21
164.999990
 31
0.0
  0
LINE
  5
1ae
100
AcDbEntity
  8
Layer_1
 62
7
100
AcDbLine
 10
408.249981
 20
174.999998
 30
0.0
 11
413.249982
 21
179.999988
 31
0.0
  0
SPLINE
  5
1af
100
AcDbEntity
  8
Layer_1
 62
7
100
AcDbSpline
 70
0
 71
3
 72
13
 73
9
 74
7
 40
0.000000
 40
0.000000
 40
0.000000
 40
0.000000
 40
1.308875
 40
2.606918
 40
3.915792
 40
5.224666
 40
6.522709
 40
7.831584
 40
7.831584
 40
7.831584
 40
7.831584
 10
398.999981
 20
294.999993
 30
0.0
 10
398.562415
 20
294.966661
 30
0.0
 10
397.690903
 20
294.900275
 30
0.0
 10
396.471697
 20
294.375648
 30
0.0
 10
395.422493
 20
293.577480
 30
0.0
 10
394.624325
 20
292.528275
 30
0.0
 10
394.099700
 20
291.309069
 30
0.0
 10
394.033314
 20
290.437558
 30
0.0
 10
393.999982
 20
289.999991
 30
0.0
 11
398.999981
 21
294.999993
 31
0.0
 11
397.702364
 21
294.828690
 31
0.0
 11
396.503129
 21
294.331950
 31
0.0
 11
395.464448
 21
293.535525
 31
0.0
 11
394.668023
 21
292.496843
 31
0.0
 11
394.171285
 21
291.297608
 31
0.0
 11
393.999982
 21
289.999991
 31
0.0
  0
LINE
  5
1b0
100
AcDbEntity
  8
Layer_1
 62
7
100
AcDbLine
 10
590.999995
 20
149.999992
 30
0.0
 11
590.999995
 21
289.999991
 31
0.0
  0
SPLINE
  5
1b1
100
AcDbEntity
  8
Layer_1
 62
7
100
AcDbSpline
 70
0
 71
3
 72
13
 73
9
 74
7
 40
0.000000
 40
0.000000
 40
0.000000
 40
0.000000
 40
1.308875
 40
2.606917
 40
3.915791
 40
5.224666
 40
6.522709
 40
7.831584
 40
7.831584
 40
7.831584
 40
7.831584
 10
590.999995
 20
289.999991
 30
0.0
 10
590.966664
 20
290.437558
 30
0.0
 10
590.900278
 20
291.309069
 30
0.0
 10
590.375653
 20
292.528275
 30
0.0
 10
589.577485
 20
293.577480
 30
0.0
 10
588.528280
 20
294.375648
 30
0.0
 10
587.309074
 20
294.900275
 30
0.0
 10
586.437563
 20
294.966661
 30
0.0
 10
585.999996
 20
294.999993
 30
0.0
 11
590.999995
 21
289.999991
 31
0.0
 11
590.828693
 21
291.297608
 31
0.0
 11
590.331954
 21
292.496843
 31
0.0
 11
589.535530
 21
293.535525
 31
0.0
 11
588.496848
 21
294.331950
 31
0.0
 11
587.297613
 21
294.828690
 31
0.0
 11
585.999996
 21
294.999993
 31
0.0
  0
LINE
  5
1b2
100
AcDbEntity
  8
Layer_1
 62
7
100
AcDbLine
 10
585.999996
 20
294.999993
 30
0.0
 11
497.499996
 21
294.999993
 31
0.0
  0
LINE
  5
1b3
100
AcDbEntity
  8
Layer_1
 62
7
100
AcDbLine
 10
492.499997
 20
289.999991
 30
0.0
 11
492.499997
 21
149.999992
 31
0.0
  0
LINE
  5
1b4
100
AcDbEntity
  8
Layer_1
 62
7
100
AcDbLine
 10
492.499997
 20
149.999992
 30
0.0
 11
497.499996
 21
145.000002
 31
0.0
  0
LINE
  5
1b5
100
AcDbEntity
  8
Layer_1
 62
7
100
AcDbLine
 10
497.499996
 20
145.000002
 30
0.0
 11
585.999996
 21
145.000002
 31
0.0
  0
LINE
  5
1b6
100
AcDbEntity
  8
Layer_1
 62
7
100
AcDbLine
 10
585.999996
 20
145.000002
 30
0.0
 11
590.999995
 21
149.999992
 31
0.0
  0
LINE
  5
1b7
100
AcDbEntity
  8
Layer_1
 62
7
100
AcDbLine
 10
571.749995
 20
179.999988
 30
0.0
 11
511.749997
 21
179.999988
 31
0.0
  0
LINE
  5
1b8
100
AcDbEntity
  8
Layer_1
 62
7
100
AcDbLine
 10
571.749995
 20
179.999988
 30
0.0
 11
576.749997
 21
174.999998
 31
0.0
  0
LINE
  5
1b9
100
AcDbEntity
  8
Layer_1
 62
7
100
AcDbLine
 10
576.749997
 20
164.999990
 30
0.0
 11
576.749997
 21
174.999998
 31
0.0
  0
LINE
  5
1ba
100
AcDbEntity
  8
Layer_1
 62
7
100
AcDbLine
 10
576.749997
 20
164.999990
 30
0.0
 11
571.749995
 21
160.000000
 31
0.0
  0
LINE
  5
1bb
100
AcDbEntity
  8
Layer_1
 62
7
100
AcDbLine
 10
511.749997
 20
160.000000
 30
0.0
 11
571.749995
 21
160.000000
 31
0.0
  0
LINE
  5
1bc
100
AcDbEntity
  8
Layer_1
 62
7
100
AcDbLine
 10
511.749997
 20
160.000000
 30
0.0
 11
506.749995
 21
164.999990
 31
0.0
  0
LINE
  5
1bd
100
AcDbEntity
  8
Layer_1
 62
7
100
AcDbLine
 10
506.749995
 20
174.999998
 30
0.0
 11
506.749995
 21
164.999990
 31
0.0
  0
LINE
  5
1be
100
AcDbEntity
  8
Layer_1
 62
7
100
AcDbLine
 10
506.749995
 20
174.999998
 30
0.0
 11
511.749997
 21
179.999988
 31
0.0
  0
SPLINE
  5
1bf
100
AcDbEntity
  8
Layer_1
 62
7
100
AcDbSpline
 70
0
 71
3
 72
13
 73
9
 74
7
 40
0.000000
 40
0.000000
 40
0.000000
 40
0.000000
 40
1.308875
 40
2.606918
 40
3.915792
 40
5.224666
 40
6.522709
 40
7.831584
 40
7.831584
 40
7.831584
 40
7.831584
 10
497.499996
 20
294.999993
 30
0.0
 10
497.062429
 20
294.966661
 30
0.0
 10
496.190918
 20
294.900275
 30
0.0
 10
494.971712
 20
294.375648
 30
0.0
 10
493.922507
 20
293.577480
 30
0.0
 10
493.124339
 20
292.528275
 30
0.0
 10
492.599714
 20
291.309069
 30
0.0
 10
492.533328
 20
290.437558
 30
0.0
 10
492.499997
 20
289.999991
 30
0.0
 11
497.499996
 21
294.999993
 31
0.0
 11
496.202379
 21
294.828690
 31
0.0
 11
495.003144
 21
294.331950
 31
0.0
 11
493.964462
 21
293.535525
 31
0.0
 11
493.168038
 21
292.496843
 31
0.0
 11
492.671299
 21
291.297608
 31
0.0
 11
492.499997
 21
289.999991
 31
0.0
  0
LINE
  5
1c0
100
AcDbEntity
  8
Layer_1
 62
7
100
AcDbLine
 10
98.499998
 20
299.999994
 30
0.0
 11
98.499998
 21
439.999993
 31
0.0
  0
SPLINE
  5
1c1
100
AcDbEntity
  8
Layer_1
 62
7
100
AcDbSpline
 70
0
 71
3
 72
13
 73
9
 74
7
 40
0.000000
 40
0.000000
 40
0.000000
 40
0.000000
 40
1.308875
 40
2.606917
 40
3.915791
 40
5.224666
 40
6.522709
 40
7.831584
 40
7.831584
 40
7.831584
 40
7.831584
 10
98.499998
 20
439.999993
 30
0.0
 10
98.466667
 20
440.437560
 30
0.0
 10
98.400280
 20
441.309071
 30
0.0
 10
97.875656
 20
442.528277
 30
0.0
 10
97.077487
 20
443.577482
 30
0.0
 10
96.028283
 20
444.375650
 30
0.0
 10
94.809077
 20
444.900277
 30
0.0
 10
93.937566
 20
444.966663
 30
0.0
 10
93.499999
 20
444.999995
 30
0.0
 11
98.499998
 21
439.999993
 31
0.0
 11
98.328696
 21
441.297610
 31
0.0
 11
97.831957
 21
442.496845
 31
0.0
 11
97.035533
 21
443.535527
 31
0.0
 11
95.996851
 21
444.331952
 31
0.0
 11
94.797616
 21
444.828692
 31
0.0
 11
93.499999
 21
444.999995
 31
0.0
  0
LINE
  5
1c2
100
AcDbEntity
  8
Layer_1
 62
7
100
AcDbLine
 10
93.499999
 20
444.999995
 30
0.0
 11
4.999998
 21
444.999995
 31
0.0
  0
LINE
  5
1c3
100
AcDbEntity
  8
Layer_1
 62
7
100
AcDbLine
 10
0.000000
 20
439.999993
 30
0.0
 11
0.000000
 21
299.999994
 31
0.0
  0
LINE
  5
1c4
100
AcDbEntity
  8
Layer_1
 62
7
100
AcDbLine
 10
0.000000
 20
299.999994
 30
0.0
 11
4.999998
 21
295.000004
 31
0.0
  0
LINE
  5
1c5
100
AcDbEntity
  8
Layer_1
 62
7
100
AcDbLine
 10
4.999998
 20
295.000004
 30
0.0
 11
93.499999
 21
295.000004
 31
0.0
  0
LINE
  5
1c6
100
AcDbEntity
  8
Layer_1
 62
7
100
AcDbLine
 10
93.499999
 20
295.000004
 30
0.0
 11
98.499998
 21
299.999994
 31
0.0
  0
LINE
  5
1c7
100
AcDbEntity
  8
Layer_1
 62
7
100
AcDbLine
 10
79.249998
 20
329.999990
 30
0.0
 11
19.250000
 21
329.999990
 31
0.0
  0
LINE
  5
1c8
100
AcDbEntity
  8
Layer_1
 62
7
100
AcDbLine
 10
79.249998
 20
329.999990
 30
0.0
 11
84.249999
 21
325.000000
 31
0.0
  0
LINE
  5
1c9
100
AcDbEntity
  8
Layer_1
 62
7
100
AcDbLine
 10
84.249999
 20
314.999992
 30
0.0
 11
84.249999
 21
325.000000
 31
0.0
  0
LINE
  5
1ca
100
AcDbEntity
  8
Layer_1
 62
7
100
AcDbLine
 10
84.249999
 20
314.999992
 30
0.0
 11
79.249998
 21
310.000002
 31
0.0
  0
LINE
  5
1cb
100
AcDbEntity
  8
Layer_1
 62
7
100
AcDbLine
 10
19.250000
 20
310.000002
 30
0.0
 11
79.249998
 21
310.000002
 31
0.0
  0
LINE
  5
1cc
100
AcDbEntity
  8
Layer_1
 62
7
100
AcDbLine
 10
19.250000
 20
310.000002
 30
0.0
 11
14.249998
 21
314.999992
 31
0.0
  0
LINE
  5
1cd
100
AcDbEntity
  8
Layer_1
 62
7
100
AcDbLine
 10
14.249998
 20
325.000000
 30
0.0
 11
14.249998
 21
314.999992
 31
0.0
  0
LINE
  5
1ce
100
AcDbEntity
  8
Layer_1
 62
7
100
AcDbLine
 10
14.249998
 20
325.000000
 30
0.0
 11
19.250000
 21
329.999990
 31
0.0
  0
SPLINE
  5
1cf
100
AcDbEntity
  8
Layer_1
 62
7
100
AcDbSpline
 70
0
 71
3
 72
13
 73
9
 74
7
 40
0.000000
 40
0.000000
 40
0.000000
 40
0.000000
 40
1.308875
 40
2.606918
 40
3.915792
 40
5.224666
 40
6.522709
 40
7.831584
 40
7.831584
 40
7.831584
 40
7.831584
 10
4.999998
 20
444.999995
 30
0.0
 10
4.562432
 20
444.966663
 30
0.0
 10
3.690921
 20
444.900277
 30
0.0
 10
2.471715
 20
444.375650
 30
0.0
 10
1.422510
 20
443.577482
 30
0.0
 10
0.624342
 20
442.528277
 30
0.0
 10
0.099717
 20
441.309071
 30
0.0
 10
0.033331
 20
440.437560
 30
0.0
 10
0.000000
 20
439.999993
 30
0.0
 11
4.999998
 21
444.999995
 31
0.0
 11
3.702382
 21
444.828692
 31
0.0
 11
2.503147
 21
444.331952
 31
0.0
 11
1.464465
 21
443.535527
 31
0.0
 11
0.668041
 21
442.496845
 31
0.0
 11
0.171302
 21
441.297610
 31
0.0
 11
0.000000
 21
439.999993
 31
0.0
  0
LINE
  5
1d0
100
AcDbEntity
  8
Layer_1
 62
7
100
AcDbLine
 10
196.999998
 20
299.999994
 30
0.0
 11
196.999998
 21
439.999993
 31
0.0
  0
SPLINE
  5
1d1
100
AcDbEntity
  8
Layer_1
 62
7
100
AcDbSpline
 70
0
 71
3
 72
13
 73
9
 74
7
 40
0.000000
 40
0.000000
 40
0.000000
 40
0.000000
 40
1.308875
 40
2.606917
 40
3.915791
 40
5.224666
 40
6.522709
 40
7.831584
 40
7.831584
 40
7.831584
 40
7.831584
 10
196.999998
 20
439.999993
 30
0.0
 10
196.966667
 20
440.437560
 30
0.0
 10
196.900281
 20
441.309071
 30
0.0
 10
196.375656
 20
442.528277
 30
0.0
 10
195.577488
 20
443.577482
 30
0.0
 10
194.528284
 20
444.375650
 30
0.0
 10
193.309078
 20
444.900277
 30
0.0
 10
192.437566
 20
444.966663
 30
0.0
 10
192.000000
 20
444.999995
 30
0.0
 11
196.999998
 21
439.999993
 31
0.0
 11
196.828696
 21
441.297610
 31
0.0
 11
196.331957
 21
442.496845
 31
0.0
 11
195.535533
 21
443.535527
 31
0.0
 11
194.496852
 21
444.331952
 31
0.0
 11
193.297616
 21
444.828692
 31
0.0
 11
192.000000
 21
444.999995
 31
0.0
  0
LINE
  5
1d2
100
AcDbEntity
  8
Layer_1
 62
7
100
AcDbLine
 10
192.000000
 20
444.999995
 30
0.0
 11
103.499999
 21
444.999995
 31
0.0
  0
LINE
  5
1d3
100
AcDbEntity
  8
Layer_1
 62
7
100
AcDbLine
 10
98.500001
 20
439.999993
 30
0.0
 11
98.500001
 21
299.999994
 31
0.0
  0
LINE
  5
1d4
100
AcDbEntity
  8
Layer_1
 62
7
100
AcDbLine
 10
98.500001
 20
299.999994
 30
0.0
 11
103.499999
 21
295.000004
 31
0.0
  0
LINE
  5
1d5
100
AcDbEntity
  8
Layer_1
 62
7
100
AcDbLine
 10
103.499999
 20
295.000004
 30
0.0
 11
192.000000
 21
295.000004
 31
0.0
  0
LINE
  5
1d6
100
AcDbEntity
  8
Layer_1
 62
7
100
AcDbLine
 10
192.000000
 20
295.000004
 30
0.0
 11
196.999998
 21
299.999994
 31
0.0
  0
LINE
  5
1d7
100
AcDbEntity
  8
Layer_1
 62
7
100
AcDbLine
 10
177.749999
 20
329.999990
 30
0.0
 11
117.750000
 21
329.999990
 31
0.0
  0
LINE
  5
1d8
100
AcDbEntity
  8
Layer_1
 62
7
100
AcDbLine
 10
177.749999
 20
329.999990
 30
0.0
 11
182.750000
 21
325.000000
 31
0.0
  0
LINE
  5
1d9
100
AcDbEntity
  8
Layer_1
 62
7
100
AcDbLine
 10
182.750000
 20
314.999992
 30
0.0
 11
182.750000
 21
325.000000
 31
0.0
  0
LINE
  5
1da
100
AcDbEntity
  8
Layer_1
 62
7
100
AcDbLine
 10
182.750000
 20
314.999992
 30
0.0
 11
177.749999
 21
310.000002
 31
0.0
  0
LINE
  5
1db
100
AcDbEntity
  8
Layer_1
 62
7
100
AcDbLine
 10
117.750000
 20
310.000002
 30
0.0
 11
177.749999
 21
310.000002
 31
0.0
  0
LINE
  5
1dc
100
AcDbEntity
  8
Layer_1
 62
7
100
AcDbLine
 10
117.750000
 20
310.000002
 30
0.0
 11
112.749999
 21
314.999992
 31
0.0
  0
LINE
  5
1dd
100
AcDbEntity
  8
Layer_1
 62
7
100
AcDbLine
 10
112.749999
 20
325.000000
 30
0.0
 11
112.749999
 21
314.999992
 31
0.0
  0
LINE
  5
1de
100
AcDbEntity
  8
Layer_1
 62
7
100
AcDbLine
 10
112.749999
 20
325.000000
 30
0.0
 11
117.750000
 21
329.999990
 31
0.0
  0
SPLINE
  5
1df
100
AcDbEntity
  8
Layer_1
 62
7
100
AcDbSpline
 70
0
 71
3
 72
13
 73
9
 74
7
 40
0.000000
 40
0.000000
 40
0.000000
 40
0.000000
 40
1.308875
 40
2.606918
 40
3.915792
 40
5.224666
 40
6.522709
 40
7.831584
 40
7.831584
 40
7.831584
 40
7.831584
 10
103.499999
 20
444.999995
 30
0.0
 10
103.062433
 20
444.966663
 30
0.0
 10
102.190921
 20
444.900277
 30
0.0
 10
100.971715
 20
444.375650
 30
0.0
 10
99.922511
 20
443.577482
 30
0.0
 10
99.124343
 20
442.528277
 30
0.0
 10
98.599718
 20
441.309071
 30
0.0
 10
98.533332
 20
440.437560
 30
0.0
 10
98.500001
 20
439.999993
 30
0.0
 11
103.499999
 21
444.999995
 31
0.0
 11
102.202382
 21
444.828692
 31
0.0
 11
101.003147
 21
444.331952
 31
0.0
 11
99.964466
 21
443.535527
 31
0.0
 11
99.168041
 21
442.496845
 31
0.0
 11
98.671303
 21
441.297610
 31
0.0
 11
98.500001
 21
439.999993
 31
0.0
  0
LINE
  5
1e0
100
AcDbEntity
  8
Layer_1
 62
7
100
AcDbLine
 10
295.499985
 20
299.999994
 30
0.0
 11
295.499985
 21
439.999993
 31
0.0
  0
SPLINE
  5
1e1
100
AcDbEntity
  8
Layer_1
 62
7
100
AcDbSpline
 70
0
 71
3
 72
13
 73
9
 74
7
 40
0.000000
 40
0.000000
 40
0.000000
 40
0.000000
 40
1.308875
 40
2.606917
 40
3.915791
 40
5.224666
 40
6.522709
 40
7.831584
 40
7.831584
 40
7.831584
 40
7.831584
 10
295.499985
 20
439.999993
 30
0.0
 10
295.466654
 20
440.437560
 30
0.0
 10
295.400267
 20
441.309071
 30
0.0
 10
294.875643
 20
442.528277
 30
0.0
 10
294.077474
 20
443.577482
 30
0.0
 10
293.028270
 20
444.375650
 30
0.0
 10
291.809064
 20
444.900277
 30
0.0
 10
290.937553
 20
444.966663
 30
0.0
 10
290.499986
 20
444.999995
 30
0.0
 11
295.499985
 21
439.999993
 31
0.0
 11
295.328683
 21
441.297610
 31
0.0
 11
294.831944
 21
442.496845
 31
0.0
 11
294.035520
 21
443.535527
 31
0.0
 11
292.996838
 21
444.331952
 31
0.0
 11
291.797603
 21
444.828692
 31
0.0
 11
290.499986
 21
444.999995
 31
0.0
  0
LINE
  5
1e2
100
AcDbEntity
  8
Layer_1
 62
7
100
AcDbLine
 10
290.499986
 20
444.999995
 30
0.0
 11
201.999985
 21
444.999995
 31
0.0
  0
LINE
  5
1e3
100
AcDbEntity
  8
Layer_1
 62
7
100
AcDbLine
 10
196.999987
 20
439.999993
 30
0.0
 11
196.999987
 21
299.999994
 31
0.0
  0
LINE
  5
1e4
100
AcDbEntity
  8
Layer_1
 62
7
100
AcDbLine
 10
196.999987
 20
299.999994
 30
0.0
 11
201.999985
 21
295.000004
 31
0.0
  0
LINE
  5
1e5
100
AcDbEntity
  8
Layer_1
 62
7
100
AcDbLine
 10
201.999985
 20
295.000004
 30
0.0
 11
290.499986
 21
295.000004
 31
0.0
  0
LINE
  5
1e6
100
AcDbEntity
  8
Layer_1
 62
7
100
AcDbLine
 10
290.499986
 20
295.000004
 30
0.0
 11
295.499985
 21
299.999994
 31
0.0
  0
LINE
  5
1e7
100
AcDbEntity
  8
Layer_1
 62
7
100
AcDbLine
 10
276.249985
 20
329.999990
 30
0.0
 11
216.249987
 21
329.999990
 31
0.0
  0
LINE
  5
1e8
100
AcDbEntity
  8
Layer_1
 62
7
100
AcDbLine
 10
276.249985
 20
329.999990
 30
0.0
 11
281.249986
 21
325.000000
 31
0.0
  0
LINE
  5
1e9
100
AcDbEntity
  8
Layer_1
 62
7
100
AcDbLine
 10
281.249986
 20
314.999992
 30
0.0
 11
281.249986
 21
325.000000
 31
0.0
  0
LINE
  5
1ea
100
AcDbEntity
  8
Layer_1
 62
7
100
AcDbLine
 10
281.249986
 20
314.999992
 30
0.0
 11
276.249985
 21
310.000002
 31
0.0
  0
LINE
  5
1eb
100
AcDbEntity
  8
Layer_1
 62
7
100
AcDbLine
 10
216.249987
 20
310.000002
 30
0.0
 11
276.249985
 21
310.000002
 31
0.0
  0
LINE
  5
1ec
100
AcDbEntity
  8
Layer_1
 62
7
100
AcDbLine
 10
216.249987
 20
310.000002
 30
0.0
 11
211.249985
 21
314.999992
 31
0.0
  0
LINE
  5
1ed
100
AcDbEntity
  8
Layer_1
 62
7
100
AcDbLine
 10
211.249985
 20
325.000000
 30
0.0
 11
211.249985
 21
314.999992
 31
0.0
  0
LINE
  5
1ee
100
AcDbEntity
  8
Layer_1
 62
7
100
AcDbLine
 10
211.249985
 20
325.000000
 30
0.0
 11
216.249987
 21
329.999990
 31
0.0
  0
SPLINE
  5
1ef
100
AcDbEntity
  8
Layer_1
 62
7
100
AcDbSpline
 70
0
 71
3
 72
13
 73
9
 74
7
 40
0.000000
 40
0.000000
 40
0.000000
 40
0.000000
 40
1.308875
 40
2.606918
 40
3.915792
 40
5.224666
 40
6.522709
 40
7.831584
 40
7.831584
 40
7.831584
 40
7.831584
 10
201.999985
 20
444.999995
 30
0.0
 10
201.562419
 20
444.966663
 30
0.0
 10
200.690908
 20
444.900277
 30
0.0
 10
199.471702
 20
444.375650
 30
0.0
 10
198.422497
 20
443.577482
 30
0.0
 10
197.624329
 20
442.528277
 30
0.0
 10
197.099704
 20
441.309071
 30
0.0
 10
197.033318
 20
440.437560
 30
0.0
 10
196.999987
 20
439.999993
 30
0.0
 11
201.999985
 21
444.999995
 31
0.0
 11
200.702369
 21
444.828692
 31
0.0
 11
199.503134
 21
444.331952
 31
0.0
 11
198.464452
 21
443.535527
 31
0.0
 11
197.668028
 21
442.496845
 31
0.0
 11
197.171289
 21
441.297610
 31
0.0
 11
196.999987
 21
439.999993
 31
0.0
  0
LINE
  5
1f0
100
AcDbEntity
  8
Layer_1
 62
7
100
AcDbLine
 10
393.999994
 20
299.999994
 30
0.0
 11
393.999994
 21
439.999993
 31
0.0
  0
SPLINE
  5
1f1
100
AcDbEntity
  8
Layer_1
 62
7
100
AcDbSpline
 70
0
 71
3
 72
13
 73
9
 74
7
 40
0.000000
 40
0.000000
 40
0.000000
 40
0.000000
 40
1.308875
 40
2.606917
 40
3.915791
 40
5.224666
 40
6.522709
 40
7.831584
 40
7.831584
 40
7.831584
 40
7.831584
 10
393.999994
 20
439.999993
 30
0.0
 10
393.966663
 20
440.437560
 30
0.0
 10
393.900276
 20
441.309071
 30
0.0
 10
393.375652
 20
442.528277
 30
0.0
 10
392.577483
 20
443.577482
 30
0.0
 10
391.528279
 20
444.375650
 30
0.0
 10
390.309073
 20
444.900277
 30
0.0
 10
389.437562
 20
444.966663
 30
0.0
 10
388.999995
 20
444.999995
 30
0.0
 11
393.999994
 21
439.999993
 31
0.0
 11
393.828692
 21
441.297610
 31
0.0
 11
393.331953
 21
442.496845
 31
0.0
 11
392.535529
 21
443.535527
 31
0.0
 11
391.496847
 21
444.331952
 31
0.0
 11
390.297612
 21
444.828692
 31
0.0
 11
388.999995
 21
444.999995
 31
0.0
  0
LINE
  5
1f2
100
AcDbEntity
  8
Layer_1
 62
7
100
AcDbLine
 10
388.999995
 20
444.999995
 30
0.0
 11
300.499994
 21
444.999995
 31
0.0
  0
LINE
  5
1f3
100
AcDbEntity
  8
Layer_1
 62
7
100
AcDbLine
 10
295.499996
 20
439.999993
 30
0.0
 11
295.499996
 21
299.999994
 31
0.0
  0
LINE
  5
1f4
100
AcDbEntity
  8
Layer_1
 62
7
100
AcDbLine
 10
295.499996
 20
299.999994
 30
0.0
 11
300.499994
 21
295.000004
 31
0.0
  0
LINE
  5
1f5
100
AcDbEntity
  8
Layer_1
 62
7
100
AcDbLine
 10
300.499994
 20
295.000004
 30
0.0
 11
388.999995
 21
295.000004
 31
0.0
  0
LINE
  5
1f6
100
AcDbEntity
  8
Layer_1
 62
7
100
AcDbLine
 10
388.999995
 20
295.000004
 30
0.0
 11
393.999994
 21
299.999994
 31
0.0
  0
LINE
  5
1f7
100
AcDbEntity
  8
Layer_1
 62
7
100
AcDbLine
 10
374.749994
 20
329.999990
 30
0.0
 11
314.749996
 21
329.999990
 31
0.0
  0
LINE
  5
1f8
100
AcDbEntity
  8
Layer_1
 62
7
100
AcDbLine
 10
374.749994
 20
329.999990
 30
0.0
 11
379.749995
 21
325.000000
 31
0.0
  0
LINE
  5
1f9
100
AcDbEntity
  8
Layer_1
 62
7
100
AcDbLine
 10
379.749995
 20
314.999992
 30
0.0
 11
379.749995
 21
325.000000
 31
0.0
  0
LINE
  5
1fa
100
AcDbEntity
  8
Layer_1
 62
7
100
AcDbLine
 10
379.749995
 20
314.999992
 30
0.0
 11
374.749994
 21
310.000002
 31
0.0
  0
LINE
  5
1fb
100
AcDbEntity
  8
Layer_1
 62
7
100
AcDbLine
 10
314.749996
 20
310.000002
 30
0.0
 11
374.749994
 21
310.000002
 31
0.0
  0
LINE
  5
1fc
100
AcDbEntity
  8
Layer_1
 62
7
100
AcDbLine
 10
314.749996
 20
310.000002
 30
0.0
 11
309.749994
 21
314.999992
 31
0.0
  0
LINE
  5
1fd
100
AcDbEntity
  8
Layer_1
 62
7
100
AcDbLine
 10
309.749994
 20
325.000000
 30
0.0
 11
309.749994
 21
314.999992
 31
0.0
  0
LINE
  5
1fe
100
AcDbEntity
  8
Layer_1
 62
7
100
AcDbLine
 10
309.749994
 20
325.000000
 30
0.0
 11
314.749996
 21
329.999990
 31
0.0
  0
SPLINE
  5
1ff
100
AcDbEntity
  8
Layer_1
 62
7
100
AcDbSpline
 70
0
 71
3
 72
13
 73
9
 74
7
 40
0.000000
 40
0.000000
 40
0.000000
 40
0.000000
 40
1.308875
 40
2.606918
 40
3.915792
 40
5.224666
 40
6.522709
 40
7.831584
 40
7.831584
 40
7.831584
 40
7.831584
 10
300.499994
 20
444.999995
 30
0.0
 10
300.062428
 20
444.966663
 30
0.0
 10
299.190917
 20
444.900277
 30
0.0
 10
297.971711
 20
444.375650
 30
0.0
 10
296.922506
 20
443.577482
 30
0.0
 10
296.124338
 20
442.528277
 30
0.0
 10
295.599713
 20
441.309071
 30
0.0
 10
295.533327
 20
440.437560
 30
0.0
 10
295.499996
 20
439.999993
 30
0.0
 11
300.499994
 21
444.999995
 31
0.0
 11
299.202378
 21
444.828692
 31
0.0
 11
298.003143
 21
444.331952
 31
0.0
 11
296.964461
 21
443.535527
 31
0.0
 11
296.168037
 21
442.496845
 31
0.0
 11
295.671298
 21
441.297610
 31
0.0
 11
295.499996
 21
439.999993
 31
0.0
  0
LINE
  5
200
100
AcDbEntity
  8
Layer_1
 62
7
100
AcDbLine
 10
492.499980
 20
299.999994
 30
0.0
 11
492.499980
 21
439.999993
 31
0.0
  0
SPLINE
  5
201
100
AcDbEntity
  8
Layer_1
 62
7
100
AcDbSpline
 70
0
 71
3
 72
13
 73
9
 74
7
 40
0.000000
 40
0.000000
 40
0.000000
 40
0.000000
 40
1.308875
 40
2.606917
 40
3.915791
 40
5.224666
 40
6.522709
 40
7.831584
 40
7.831584
 40
7.831584
 40
7.831584
 10
492.499980
 20
439.999993
 30
0.0
 10
492.466649
 20
440.437560
 30
0.0
 10
492.400263
 20
441.309071
 30
0.0
 10
491.875638
 20
442.528277
 30
0.0
 10
491.077470
 20
443.577482
 30
0.0
 10
490.028266
 20
444.375650
 30
0.0
 10
488.809060
 20
444.900277
 30
0.0
 10
487.937548
 20
444.966663
 30
0.0
 10
487.499982
 20
444.999995
 30
0.0
 11
492.499980
 21
439.999993
 31
0.0
 11
492.328678
 21
441.297610
 31
0.0
 11
491.831939
 21
442.496845
 31
0.0
 11
491.035515
 21
443.535527
 31
0.0
 11
489.996834
 21
444.331952
 31
0.0
 11
488.797598
 21
444.828692
 31
0.0
 11
487.499982
 21
444.999995
 31
0.0
  0
LINE
  5
202
100
AcDbEntity
  8
Layer_1
 62
7
100
AcDbLine
 10
487.499982
 20
444.999995
 30
0.0
 11
398.999981
 21
444.999995
 31
0.0
  0
LINE
  5
203
100
AcDbEntity
  8
Layer_1
 62
7
100
AcDbLine
 10
393.999982
 20
439.999993
 30
0.0
 11
393.999982
 21
299.999994
 31
0.0
  0
LINE
  5
204
100
AcDbEntity
  8
Layer_1
 62
7
100
AcDbLine
 10
393.999982
 20
299.999994
 30
0.0
 11
398.999981
 21
295.000004
 31
0.0
  0
LINE
  5
205
100
AcDbEntity
  8
Layer_1
 62
7
100
AcDbLine
 10
398.999981
 20
295.000004
 30
0.0
 11
487.499982
 21
295.000004
 31
0.0
  0
LINE
  5
206
100
AcDbEntity
  8
Layer_1
 62
7
100
AcDbLine
 10
487.499982
 20
295.000004
 30
0.0
 11
492.499980
 21
299.999994
 31
0.0
  0
LINE
  5
207
100
AcDbEntity
  8
Layer_1
 62
7
100
AcDbLine
 10
473.249981
 20
329.999990
 30
0.0
 11
413.249982
 21
329.999990
 31
0.0
  0
LINE
  5
208
100
AcDbEntity
  8
Layer_1
 62
7
100
AcDbLine
 10
473.249981
 20
329.999990
 30
0.0
 11
478.249982
 21
325.000000
 31
0.0
  0
LINE
  5
209
100
AcDbEntity
  8
Layer_1
 62
7
100
AcDbLine
 10
478.249982
 20
314.999992
 30
0.0
 11
478.249982
 21
325.000000
 31
0.0
  0
LINE
  5
20a
100
AcDbEntity
  8
Layer_1
 62
7
100
AcDbLine
 10
478.249982
 20
314.999992
 30
0.0
 11
473.249981
 21
310.000002
 31
0.0
  0
LINE
  5
20b
100
AcDbEntity
  8
Layer_1
 62
7
100
AcDbLine
 10
413.249982
 20
310.000002
 30
0.0
 11
473.249981
 21
310.000002
 31
0.0
  0
LINE
  5
20c
100
AcDbEntity
  8
Layer_1
 62
7
100
AcDbLine
 10
413.249982
 20
310.000002
 30
0.0
 11
408.249981
 21
314.999992
 31
0.0
  0
LINE
  5
20d
100
AcDbEntity
  8
Layer_1
 62
7
100
AcDbLine
 10
408.249981
 20
325.000000
 30
0.0
 11
408.249981
 21
314.999992
 31
0.0
  0
LINE
  5
20e
100
AcDbEntity
  8
Layer_1
 62
7
100
AcDbLine
 10
408.249981
 20
325.000000
 30
0.0
 11
413.249982
 21
329.999990
 31
0.0
  0
SPLINE
  5
20f
100
AcDbEntity
  8
Layer_1
 62
7
100
AcDbSpline
 70
0
 71
3
 72
13
 73
9
 74
7
 40
0.000000
 40
0.000000
 40
0.000000
 40
0.000000
 40
1.308875
 40
2.606918
 40
3.915792
 40
5.224666
 40
6.522709
 40
7.831584
 40
7.831584
 40
7.831584
 40
7.831584
 10
398.999981
 20
444.999995
 30
0.0
 10
398.562415
 20
444.966663
 30
0.0
 10
397.690903
 20
444.900277
 30
0.0
 10
396.471697
 20
444.375650
 30
0.0
 10
395.422493
 20
443.577482
 30
0.0
 10
394.624325
 20
442.528277
 30
0.0
 10
394.099700
 20
441.309071
 30
0.0
 10
394.033314
 20
440.437560
 30
0.0
 10
393.999982
 20
439.999993
 30
0.0
 11
398.999981
 21
444.999995
 31
0.0
 11
397.702364
 21
444.828692
 31
0.0
 11
396.503129
 21
444.331952
 31
0.0
 11
395.464448
 21
443.535527
 31
0.0
 11
394.668023
 21
442.496845
 31
0.0
 11
394.171285
 21
441.297610
 31
0.0
 11
393.999982
 21
439.999993
 31
0.0
  0
LINE
  5
210
100
AcDbEntity
  8
Layer_1
 62
7
100
AcDbLine
 10
590.999995
 20
299.999994
 30
0.0
 11
590.999995
 21
439.999993
 31
0.0
  0
SPLINE
  5
211
100
AcDbEntity
  8
Layer_1
 62
7
100
AcDbSpline
 70
0
 71
3
 72
13
 73
9
 74
7
 40
0.000000
 40
0.000000
 40
0.000000
 40
0.000000
 40
1.308875
 40
2.606917
 40
3.915791
 40
5.224666
 40
6.522709
 40
7.831584
 40
7.831584
 40
7.831584
 40
7.831584
 10
590.999995
 20
439.999993
 30
0.0
 10
590.966664
 20
440.437560
 30
0.0
 10
590.900278
 20
441.309071
 30
0.0
 10
590.375653
 20
442.528277
 30
0.0
 10
589.577485
 20
443.577482
 30
0.0
 10
588.528280
 20
444.375650
 30
0.0
 10
587.309074
 20
444.900277
 30
0.0
 10
586.437563
 20
444.966663
 30
0.0
 10
585.999996
 20
444.999995
 30
0.0
 11
590.999995
 21
439.999993
 31
0.0
 11
590.828693
 21
441.297610
 31
0.0
 11
590.331954
 21
442.496845
 31
0.0
 11
589.535530
 21
443.535527
 31
0.0
 11
588.496848
 21
444.331952
 31
0.0
 11
587.297613
 21
444.828692
 31
0.0
 11
585.999996
 21
444.999995
 31
0.0
  0
LINE
  5
212
100
AcDbEntity
  8
Layer_1
 62
7
100
AcDbLine
 10
585.999996
 20
444.999995
 30
0.0
 11
497.499996
 21
444.999995
 31
0.0
  0
LINE
  5
213
100
AcDbEntity
  8
Layer_1
 62
7
100
AcDbLine
 10
492.499997
 20
439.999993
 30
0.0
 11
492.499997
 21
299.999994
 31
0.0
  0
LINE
  5
214
100
AcDbEntity
  8
Layer_1
 62
7
100
AcDbLine
 10
492.499997
 20
299.999994
 30
0.0
 11
497.499996
 21
295.000004
 31
0.0
  0
LINE
  5
215
100
AcDbEntity
  8
Layer_1
 62
7
100
AcDbLine
 10
497.499996
 20
295.000004
 30
0.0
 11
585.999996
 21
295.000004
 31
0.0
  0
LINE
  5
216
100
AcDbEntity
  8
Layer_1
 62
7
100
AcDbLine
 10
585.999996
 20
295.000004
 30
0.0
 11
590.999995
 21
299.999994
 31
0.0
  0
LINE
  5
217
100
AcDbEntity
  8
Layer_1
 62
7
100
AcDbLine
 10
571.749995
 20
329.999990
 30
0.0
 11
511.749997
 21
329.999990
 31
0.0
  0
LINE
  5
218
100
AcDbEntity
  8
Layer_1
 62
7
100
AcDbLine
 10
571.749995
 20
329.999990
 30
0.0
 11
576.749997
 21
325.000000
 31
0.0
  0
LINE
  5
219
100
AcDbEntity
  8
Layer_1
 62
7
100
AcDbLine
 10
576.749997
 20
314.999992
 30
0.0
 11
576.749997
 21
325.000000
 31
0.0
  0
LINE
  5
21a
100
AcDbEntity
  8
Layer_1
 62
7
100
AcDbLine
 10
576.749997
 20
314.999992
 30
0.0
 11
571.749995
 21
310.000002
 31
0.0
  0
LINE
  5
21b
100
AcDbEntity
  8
Layer_1
 62
7
100
AcDbLine
 10
511.749997
 20
310.000002
 30
0.0
 11
571.749995
 21
310.000002
 31
0.0
  0
LINE
  5
21c
100
AcDbEntity
  8
Layer_1
 62
7
100
AcDbLine
 10
511.749997
 20
310.000002
 30
0.0
 11
506.749995
 21
314.999992
 31
0.0
  0
LINE
  5
21d
100
AcDbEntity
  8
Layer_1
 62
7
100
AcDbLine
 10
506.749995
 20
325.000000
 30
0.0
 11
506.749995
 21
314.999992
 31
0.0
  0
LINE
  5
21e
100
AcDbEntity
  8
Layer_1
 62
7
100
AcDbLine
 10
506.749995
 20
325.000000
 30
0.0
 11
511.749997
 21
329.999990
 31
0.0
  0
SPLINE
  5
21f
100
AcDbEntity
  8
Layer_1
 62
7
100
AcDbSpline
 70
0
 71
3
 72
13
 73
9
 74
7
 40
0.000000
 40
0.000000
 40
0.000000
 40
0.000000
 40
1.308875
 40
2.606918
 40
3.915792
 40
5.224666
 40
6.522709
 40
7.831584
 40
7.831584
 40
7.831584
 40
7.831584
 10
497.499996
 20
444.999995
 30
0.0
 10
497.062429
 20
444.966663
 30
0.0
 10
496.190918
 20
444.900277
 30
0.0
 10
494.971712
 20
444.375650
 30
0.0
 10
493.922507
 20
443.577482
 30
0.0
 10
493.124339
 20
442.528277
 30
0.0
 10
492.599714
 20
441.309071
 30
0.0
 10
492.533328
 20
440.437560
 30
0.0
 10
492.499997
 20
439.999993
 30
0.0
 11
497.499996
 21
444.999995
 31
0.0
 11
496.202379
 21
444.828692
 31
0.0
 11
495.003144
 21
444.331952
 31
0.0
 11
493.964462
 21
443.535527
 31
0.0
 11
493.168038
 21
442.496845
 31
0.0
 11
492.671299
 21
441.297610
 31
0.0
 11
492.499997
 21
439.999993
 31
0.0
  0
ENDSEC
  0
SECTION
  2
OBJECTS
  0
DICTIONARY
  5
C
330
0
100
AcDbDictionary
  3
ACAD_GROUP
350
D
  3
ACAD_MLINESTYLE
350
17
  0
DICTIONARY
  5
D
330
C
100
AcDbDictionary
  0
DICTIONARY
  5
1A
330
C
100
AcDbDictionary
  0
DICTIONARY
  5
17
330
C
100
AcDbDictionary
  3
STANDARD
350
18
  0
DICTIONARY
  5
19
330
C
100
AcDbDictionary
  0
ENDSEC
  0
EOF
