  0
SECTION
  2
HEADER
  9
$ACADVER
  1
AC1027
  9
$ACADMAINTVER
 70
    55
  9
$DWGCODEPAGE
  3
ANSI_1252
  9
$LASTSAVEDBY
  1
Moritz
  9
$REQUIREDVERSIONS
160
                 0
  9
$INSBASE
 10
0.0
 20
0.0
 30
0.0
  9
$EXTMIN
 10
0.0
 20
-4.999989
 30
0.0
  9
$EXTMAX
 10
590.999995
 20
444.999995
 30
0.0
  9
$LIMMIN
 10
0.0
 20
0.0
  9
$LIMMAX
 10
12.0
 20
9.0
  9
$ORTHOMODE
 70
     0
  9
$REGENMODE
 70
     1
  9
$FILLMODE
 70
     1
  9
$QTEXTMODE
 70
     0
  9
$MIRRTEXT
 70
     0
  9
$LTSCALE
 40
1.0
  9
$ATTMODE
 70
     1
  9
$TEXTSIZE
 40
2.5
  9
$TRACEWID
 40
0.05
  9
$TEXTSTYLE
  7
STANDARD
  9
$CLAYER
  8
0
  9
$CELTYPE
  6
CONTINUOUS
  9
$CECOLOR
 62
   256
  9
$CELTSCALE
 40
1.0
  9
$DISPSILH
 70
     0
  9
$DIMSCALE
 40
1.0
  9
$DIMASZ
 40
0.18
  9
$DIMEXO
 40
0.0625
  9
$DIMDLI
 40
0.38
  9
$DIMRND
 40
0.0
  9
$DIMDLE
 40
0.0
  9
$DIMEXE
 40
0.18
  9
$DIMTP
 40
0.0
  9
$DIMTM
 40
0.0
  9
$DIMTXT
 40
0.18
  9
$DIMCEN
 40
0.09
  9
$DIMTSZ
 40
0.0
  9
$DIMTOL
 70
     0
  9
$DIMLIM
 70
     0
  9
$DIMTIH
 70
     1
  9
$DIMTOH
 70
     1
  9
$DIMSE1
 70
     0
  9
$DIMSE2
 70
     0
  9
$DIMTAD
 70
     0
  9
$DIMZIN
 70
     0
  9
$DIMBLK
  1

  9
$DIMASO
 70
     1
  9
$DIMSHO
 70
     1
  9
$DIMPOST
  1

  9
$DIMAPOST
  1

  9
$DIMALT
 70
     0
  9
$DIMALTD
 70
     2
  9
$DIMALTF
 40
25.4
  9
$DIMLFAC
 40
1.0
  9
$DIMTOFL
 70
     0
  9
$DIMTVP
 40
0.0
  9
$DIMTIX
 70
     0
  9
$DIMSOXD
 70
     0
  9
$DIMSAH
 70
     0
  9
$DIMBLK1
  1

  9
$DIMBLK2
  1

  9
$DIMSTYLE
  2
ISO-25
  9
$DIMCLRD
 70
     0
  9
$DIMCLRE
 70
     0
  9
$DIMCLRT
 70
     0
  9
$DIMTFAC
 40
1.0
  9
$DIMGAP
 40
0.09
  9
$DIMJUST
 70
     0
  9
$DIMSD1
 70
     0
  9
$DIMSD2
 70
     0
  9
$DIMTOLJ
 70
     1
  9
$DIMTZIN
 70
     0
  9
$DIMALTZ
 70
     0
  9
$DIMALTTZ
 70
     0
  9
$DIMUPT
 70
     0
  9
$DIMDEC
 70
     4
  9
$DIMTDEC
 70
     4
  9
$DIMALTU
 70
     2
  9
$DIMALTTD
 70
     2
  9
$DIMTXSTY
  7
STANDARD
  9
$DIMAUNIT
 70
     0
  9
$DIMADEC
 70
     0
  9
$DIMALTRND
 40
0.0
  9
$DIMAZIN
 70
     0
  9
$DIMDSEP
 70
    46
  9
$DIMATFIT
 70
     3
  9
$DIMFRAC
 70
     0
  9
$DIMLDRBLK
  1

  9
$DIMLUNIT
 70
     2
  9
$DIMLWD
 70
    -2
  9
$DIMLWE
 70
    -2
  9
$DIMTMOVE
 70
     0
  9
$DIMFXL
 40
1.0
  9
$DIMFXLON
 70
     0
  9
$DIMJOGANG
 40
0.7853981633974483
  9
$DIMTFILL
 70
     0
  9
$DIMTFILLCLR
 70
     0
  9
$DIMARCSYM
 70
     0
  9
$DIMLTYPE
  6

  9
$DIMLTEX1
  6

  9
$DIMLTEX2
  6

  9
$DIMTXTDIRECTION
 70
     0
  9
$LUNITS
 70
     2
  9
$LUPREC
 70
     4
  9
$SKETCHINC
 40
0.1
  9
$FILLETRAD
 40
0.0
  9
$AUNITS
 70
     0
  9
$AUPREC
 70
     0
  9
$MENU
  1
.
  9
$ELEVATION
 40
0.0
  9
$PELEVATION
 40
0.0
  9
$THICKNESS
 40
0.0
  9
$LIMCHECK
 70
     0
  9
$CHAMFERA
 40
0.0
  9
$CHAMFERB
 40
0.0
  9
$CHAMFERC
 40
0.0
  9
$CHAMFERD
 40
0.0
  9
$SKPOLY
 70
     0
  9
$TDCREATE
 40
2457117.143035914
  9
$TDUCREATE
 40
2457117.059702581
  9
$TDUPDATE
 40
2457117.143360660
  9
$TDUUPDATE
 40
2457117.060027326
  9
$TDINDWG
 40
0.0003249769
  9
$TDUSRTIMER
 40
0.0003249769
  9
$USRTIMER
 70
     1
  9
$ANGBASE
 50
0.0
  9
$ANGDIR
 70
     0
  9
$PDMODE
 70
     0
  9
$PDSIZE
 40
0.0
  9
$PLINEWID
 40
0.0
  9
$SPLFRAME
 70
     0
  9
$SPLINETYPE
 70
     6
  9
$SPLINESEGS
 70
     8
  9
$HANDSEED
  5
1006D
  9
$SURFTAB1
 70
     6
  9
$SURFTAB2
 70
     6
  9
$SURFTYPE
 70
     6
  9
$SURFU
 70
     6
  9
$SURFV
 70
     6
  9
$UCSBASE
  2

  9
$UCSNAME
  2

  9
$UCSORG
 10
0.0
 20
0.0
 30
0.0
  9
$UCSXDIR
 10
1.0
 20
0.0
 30
0.0
  9
$UCSYDIR
 10
0.0
 20
1.0
 30
0.0
  9
$UCSORTHOREF
  2

  9
$UCSORTHOVIEW
 70
     0
  9
$UCSORGTOP
 10
0.0
 20
0.0
 30
0.0
  9
$UCSORGBOTTOM
 10
0.0
 20
0.0
 30
0.0
  9
$UCSORGLEFT
 10
0.0
 20
0.0
 30
0.0
  9
$UCSORGRIGHT
 10
0.0
 20
0.0
 30
0.0
  9
$UCSORGFRONT
 10
0.0
 20
0.0
 30
0.0
  9
$UCSORGBACK
 10
0.0
 20
0.0
 30
0.0
  9
$PUCSBASE
  2

  9
$PUCSNAME
  2

  9
$PUCSORG
 10
0.0
 20
0.0
 30
0.0
  9
$PUCSXDIR
 10
1.0
 20
0.0
 30
0.0
  9
$PUCSYDIR
 10
0.0
 20
1.0
 30
0.0
  9
$PUCSORTHOREF
  2

  9
$PUCSORTHOVIEW
 70
     0
  9
$PUCSORGTOP
 10
0.0
 20
0.0
 30
0.0
  9
$PUCSORGBOTTOM
 10
0.0
 20
0.0
 30
0.0
  9
$PUCSORGLEFT
 10
0.0
 20
0.0
 30
0.0
  9
$PUCSORGRIGHT
 10
0.0
 20
0.0
 30
0.0
  9
$PUCSORGFRONT
 10
0.0
 20
0.0
 30
0.0
  9
$PUCSORGBACK
 10
0.0
 20
0.0
 30
0.0
  9
$USERI1
 70
     0
  9
$USERI2
 70
     0
  9
$USERI3
 70
     0
  9
$USERI4
 70
     0
  9
$USERI5
 70
     0
  9
$USERR1
 40
0.0
  9
$USERR2
 40
0.0
  9
$USERR3
 40
0.0
  9
$USERR4
 40
0.0
  9
$USERR5
 40
0.0
  9
$WORLDVIEW
 70
     1
  9
$SHADEDGE
 70
     3
  9
$SHADEDIF
 70
    70
  9
$TILEMODE
 70
     1
  9
$MAXACTVP
 70
    64
  9
$PINSBASE
 10
0.0
 20
0.0
 30
0.0
  9
$PLIMCHECK
 70
     0
  9
$PEXTMIN
 10
1.000000000000000E+20
 20
1.000000000000000E+20
 30
1.000000000000000E+20
  9
$PEXTMAX
 10
-1.000000000000000E+20
 20
-1.000000000000000E+20
 30
-1.000000000000000E+20
  9
$PLIMMIN
 10
0.0
 20
0.0
  9
$PLIMMAX
 10
12.0
 20
9.0
  9
$UNITMODE
 70
     0
  9
$VISRETAIN
 70
     1
  9
$PLINEGEN
 70
     0
  9
$PSLTSCALE
 70
     1
  9
$TREEDEPTH
 70
  3020
  9
$CMLSTYLE
  2
STANDARD
  9
$CMLJUST
 70
     0
  9
$CMLSCALE
 40
1.0
  9
$PROXYGRAPHICS
 70
     1
  9
$MEASUREMENT
 70
     1
  9
$CELWEIGHT
370
    -1
  9
$ENDCAPS
280
     0
  9
$JOINSTYLE
280
     0
  9
$LWDISPLAY
290
     0
  9
$INSUNITS
 70
     0
  9
$HYPERLINKBASE
  1

  9
$STYLESHEET
  1

  9
$XEDIT
290
     1
  9
$CEPSNTYPE
380
     0
  9
$PSTYLEMODE
290
     1
  9
$FINGERPRINTGUID
  2
{667031D4-9D27-47D1-BC2D-1E4F313DEAB4}
  9
$VERSIONGUID
  2
{A92B0AA1-AFA6-45C0-809B-C710F09CFE2C}
  9
$EXTNAMES
290
     1
  9
$PSVPSCALE
 40
0.0
  9
$OLESTARTUP
290
     0
  9
$SORTENTS
280
   127
  9
$INDEXCTL
280
     0
  9
$HIDETEXT
280
     0
  9
$XCLIPFRAME
280
     2
  9
$HALOGAP
280
     0
  9
$OBSCOLOR
 70
   257
  9
$OBSLTYPE
280
     0
  9
$INTERSECTIONDISPLAY
280
     0
  9
$INTERSECTIONCOLOR
 70
   257
  9
$DIMASSOC
280
     1
  9
$PROJECTNAME
  1

  9
$CAMERADISPLAY
290
     0
  9
$LENSLENGTH
 40
50.0
  9
$CAMERAHEIGHT
 40
0.0
  9
$STEPSPERSEC
 40
2.0
  9
$STEPSIZE
 40
6.0
  9
$3DDWFPREC
 40
2.0
  9
$PSOLWIDTH
 40
0.25
  9
$PSOLHEIGHT
 40
4.0
  9
$LOFTANG1
 40
1.570796326794896
  9
$LOFTANG2
 40
1.570796326794896
  9
$LOFTMAG1
 40
0.0
  9
$LOFTMAG2
 40
0.0
  9
$LOFTPARAM
 70
     7
  9
$LOFTNORMALS
280
     1
  9
$LATITUDE
 40
37.795
  9
$LONGITUDE
 40
-122.394
  9
$NORTHDIRECTION
 40
0.0
  9
$TIMEZONE
 70
 -8000
  9
$LIGHTGLYPHDISPLAY
280
     1
  9
$TILEMODELIGHTSYNCH
280
     1
  9
$CMATERIAL
347
10004
  9
$SOLIDHIST
280
     0
  9
$SHOWHIST
280
     1
  9
$DWFFRAME
280
     2
  9
$DGNFRAME
280
     0
  9
$REALWORLDSCALE
290
     1
  9
$INTERFERECOLOR
 62
     1
  9
$INTERFEREOBJVS
345
10026
  9
$INTERFEREVPVS
346
10023
  9
$CSHADOW
280
     0
  9
$SHADOWPLANELOCATION
 40
0.0
  0
ENDSEC
  0
SECTION
  2
CLASSES
  0
CLASS
  1
ACDBDICTIONARYWDFLT
  2
AcDbDictionaryWithDefault
  3
ObjectDBX Classes
 90
        0
 91
        1
280
     0
281
     0
  0
CLASS
  1
MATERIAL
  2
AcDbMaterial
  3
ObjectDBX Classes
 90
     1153
 91
        3
280
     0
281
     0
  0
CLASS
  1
VISUALSTYLE
  2
AcDbVisualStyle
  3
ObjectDBX Classes
 90
     4095
 91
       24
280
     0
281
     0
  0
CLASS
  1
TABLESTYLE
  2
AcDbTableStyle
  3
ObjectDBX Classes
 90
     4095
 91
        1
280
     0
281
     0
  0
CLASS
  1
SCALE
  2
AcDbScale
  3
ObjectDBX Classes
 90
     1153
 91
       17
280
     0
281
     0
  0
CLASS
  1
MLEADERSTYLE
  2
AcDbMLeaderStyle
  3
ACDB_MLEADERSTYLE_CLASS
 90
     4095
 91
        1
280
     0
281
     0
  0
CLASS
  1
ACDBSECTIONVIEWSTYLE
  2
AcDbSectionViewStyle
  3
ObjectDBX Classes
 90
     1025
 91
        1
280
     0
281
     0
  0
CLASS
  1
ACDBDETAILVIEWSTYLE
  2
AcDbDetailViewStyle
  3
ObjectDBX Classes
 90
     1025
 91
        1
280
     0
281
     0
  0
CLASS
  1
DICTIONARYVAR
  2
AcDbDictionaryVar
  3
ObjectDBX Classes
 90
        0
 91
        9
280
     0
281
     0
  0
CLASS
  1
CELLSTYLEMAP
  2
AcDbCellStyleMap
  3
ObjectDBX Classes
 90
     1152
 91
        1
280
     0
281
     0
  0
ENDSEC
  0
SECTION
  2
TABLES
  0
TABLE
  2
VPORT
  5
8
330
0
100
AcDbSymbolTable
 70
     1
  0
VPORT
  5
2E
330
8
100
AcDbSymbolTableRecord
100
AcDbViewportTableRecord
  2
*ACTIVE
 70
     0
 10
0.0
 20
0.0
 11
1.0
 21
1.0
 12
400.4425621890548
 22
148.5
 13
0.0
 23
0.0
 14
10.0
 24
10.0
 15
10.0
 25
10.0
 16
0.0
 26
0.0
 36
1.0
 17
0.0
 27
0.0
 37
0.0
 40
341.0239930926576
 41
2.356965174129353
 42
50.0
 43
0.0
 44
0.0
 50
0.0
 51
0.0
 71
     0
 72
   100
 73
     1
 74
     3
 75
     0
 76
     0
 77
     0
 78
     0
281
     0
 65
     1
110
0.0
120
0.0
130
0.0
111
1.0
121
0.0
131
0.0
112
0.0
122
1.0
132
0.0
 79
     0
146
0.0
348
10022
 60
     3
 61
     5
292
     1
282
     1
141
0.0
142
0.0
 63
   250
421
  3355443
1001
ACAD_NAV_VCDISPLAY
1070
     3
  0
ENDTAB
  0
TABLE
  2
LTYPE
  5
5
330
0
100
AcDbSymbolTable
 70
     1
  0
LTYPE
  5
14
330
5
100
AcDbSymbolTableRecord
100
AcDbLinetypeTableRecord
  2
BYBLOCK
 70
     0
  3

 72
    65
 73
     0
 40
0.0
  0
LTYPE
  5
15
330
5
100
AcDbSymbolTableRecord
100
AcDbLinetypeTableRecord
  2
BYLAYER
 70
     0
  3

 72
    65
 73
     0
 40
0.0
  0
LTYPE
  5
16
330
5
100
AcDbSymbolTableRecord
100
AcDbLinetypeTableRecord
  2
CONTINUOUS
 70
     0
  3
Solid line
 72
    65
 73
     0
 40
0.0
  0
ENDTAB
  0
TABLE
  2
LAYER
  5
2
330
0
100
AcDbSymbolTable
 70
     2
  0
LAYER
  5
50
102
{ACAD_XDICTIONARY
360
10057
102
}
330
2
100
AcDbSymbolTableRecord
100
AcDbLayerTableRecord
  2
0
 70
     0
 62
     7
  6
CONTINUOUS
370
    -3
390
10002
347
10014
348
0
  0
LAYER
  5
51
102
{ACAD_XDICTIONARY
360
10059
102
}
330
2
100
AcDbSymbolTableRecord
100
AcDbLayerTableRecord
  2
LAYER_1
 70
     0
 62
     7
  6
CONTINUOUS
370
    -3
390
10002
347
10014
348
0
  0
ENDTAB
  0
TABLE
  2
STYLE
  5
3
330
0
100
AcDbSymbolTable
 70
     1
  0
STYLE
  5
11
330
3
100
AcDbSymbolTableRecord
100
AcDbTextStyleTableRecord
  2
STANDARD
 70
     0
 40
0.0
 41
1.0
 50
0.0
 71
     0
 42
2.5
  3
txt
  4

  0
ENDTAB
  0
TABLE
  2
VIEW
  5
6
330
0
100
AcDbSymbolTable
 70
     0
  0
ENDTAB
  0
TABLE
  2
UCS
  5
7
330
0
100
AcDbSymbolTable
 70
     0
  0
ENDTAB
  0
TABLE
  2
APPID
  5
9
330
0
100
AcDbSymbolTable
 70
     2
  0
APPID
  5
12
330
9
100
AcDbSymbolTableRecord
100
AcDbRegAppTableRecord
  2
ACAD
 70
     0
  0
APPID
  5
10065
330
9
100
AcDbSymbolTableRecord
100
AcDbRegAppTableRecord
  2
ACAD_NAV_VCDISPLAY
 70
     0
  0
ENDTAB
  0
TABLE
  2
DIMSTYLE
  5
A
330
0
100
AcDbSymbolTable
 70
     1
100
AcDbDimStyleTable
 71
     0
  0
DIMSTYLE
105
27
330
A
100
AcDbSymbolTableRecord
100
AcDbDimStyleTableRecord
  2
ISO-25
 70
     0
 41
2.5
 42
0.625
 43
3.75
 44
1.25
 73
     0
 74
     0
 77
     1
 78
     8
140
2.5
141
2.5
143
0.03937007874016
147
0.625
171
     3
172
     1
271
     2
272
     2
274
     3
283
     0
284
     8
340
11
  0
ENDTAB
  0
TABLE
  2
BLOCK_RECORD
  5
1
330
0
100
AcDbSymbolTable
 70
     0
  0
BLOCK_RECORD
  5
1F
330
1
100
AcDbSymbolTableRecord
100
AcDbBlockTableRecord
  2
*MODEL_SPACE
340
10052
 70
     0
280
     1
281
     0
  0
BLOCK_RECORD
  5
1B
330
1
100
AcDbSymbolTableRecord
100
AcDbBlockTableRecord
  2
*PAPER_SPACE
340
10053
 70
     0
280
     1
281
     0
  0
ENDTAB
  0
ENDSEC
  0
SECTION
  2
BLOCKS
  0
BLOCK
  5
20
330
1F
100
AcDbEntity
  8
0
100
AcDbBlockBegin
  2
*MODEL_SPACE
 70
     0
 10
0.0
 20
0.0
 30
0.0
  3
*MODEL_SPACE
  1

  0
ENDBLK
  5
21
330
1F
100
AcDbEntity
  8
0
100
AcDbBlockEnd
  0
BLOCK
  5
1C
330
1B
100
AcDbEntity
 67
     1
  8
0
100
AcDbBlockBegin
  2
*PAPER_SPACE
 70
     0
 10
0.0
 20
0.0
 30
0.0
  3
*PAPER_SPACE
  1

  0
ENDBLK
  5
1D
330
1B
100
AcDbEntity
 67
     1
  8
0
100
AcDbBlockEnd
  0
ENDSEC
  0
SECTION
  2
ENTITIES
  0
LINE
  5
100
330
1F
100
AcDbEntity
  8
LAYER_1
 62
     7
100
AcDbLine
 10
98.499998
 20
0.000001
 30
0.0
 11
98.499998
 21
140.000001
 31
0.0
  0
SPLINE
  5
101
330
1F
100
AcDbEntity
  8
LAYER_1
 62
     7
100
AcDbSpline
210
0.0
220
0.0
230
1.0
 70
  1064
 71
     3
 72
    13
 73
     9
 74
     7
 42
0.000000001
 43
0.0000000001
 44
0.0000000001
 40
0.0
 40
0.0
 40
0.0
 40
0.0
 40
1.308874195123433
 40
2.606917575683974
 40
3.915790910860825
 40
5.224665648087038
 40
6.52270848745136
 40
7.831583804850999
 40
7.831583804850999
 40
7.831583804850999
 40
7.831583804850999
 10
98.499998
 20
140.000001
 30
0.0
 10
98.46666692458061
 20
140.437567104883
 30
0.0
 10
98.40028058535033
 20
141.309078495048
 30
0.0
 10
97.87565612864506
 20
142.5282848255929
 30
0.0
 10
97.07748777636368
 20
143.5774894736036
 30
0.0
 10
96.028283265817
 20
144.3756574938905
 30
0.0
 10
94.80907709785473
 20
144.9002839160463
 30
0.0
 10
93.93756549121965
 20
144.9666706867817
 30
0.0
 10
93.499999
 20
145.000002
 30
0.0
 11
98.499998
 21
140.000001
 31
0.0
 11
98.328696
 21
141.297617
 31
0.0
 11
97.831957
 21
142.496853
 31
0.0
 11
97.03553300000001
 21
143.535534
 31
0.0
 11
95.996851
 21
144.331959
 31
0.0
 11
94.79761600000001
 21
144.828699
 31
0.0
 11
93.499999
 21
145.000002
 31
0.0
  0
LINE
  5
103
330
1F
100
AcDbEntity
  8
LAYER_1
 62
     7
100
AcDbLine
 10
0.0
 20
140.000001
 30
0.0
 11
0.0
 21
0.000001
 31
0.0
  0
LINE
  5
104
330
1F
100
AcDbEntity
  8
LAYER_1
 62
     7
100
AcDbLine
 10
0.0
 20
0.000001
 30
0.0
 11
4.999998
 21
-4.999989
 31
0.0
  0
LINE
  5
105
330
1F
100
AcDbEntity
  8
LAYER_1
 62
     7
100
AcDbLine
 10
4.999998
 20
-4.999989
 30
0.0
 11
93.499999
 21
-4.999989
 31
0.0
  0
LINE
  5
106
330
1F
100
AcDbEntity
  8
LAYER_1
 62
     7
100
AcDbLine
 10
93.499999
 20
-4.999989
 30
0.0
 11
98.499998
 21
0.000001
 31
0.0
  0
LINE
  5
107
330
1F
100
AcDbEntity
  8
LAYER_1
 62
     7
100
AcDbLine
 10
79.24999800000001
 20
29.999998
 30
0.0
 11
19.25
 21
29.999998
 31
0.0
  0
LINE
  5
108
330
1F
100
AcDbEntity
  8
LAYER_1
 62
     7
100
AcDbLine
 10
79.24999800000001
 20
29.999998
 30
0.0
 11
84.24999900000001
 21
25.000008
 31
0.0
  0
LINE
  5
109
330
1F
100
AcDbEntity
  8
LAYER_1
 62
     7
100
AcDbLine
 10
84.24999900000001
 20
15.0
 30
0.0
 11
84.24999900000001
 21
25.000008
 31
0.0
  0
LINE
  5
10A
330
1F
100
AcDbEntity
  8
LAYER_1
 62
     7
100
AcDbLine
 10
84.24999900000001
 20
15.0
 30
0.0
 11
79.24999800000001
 21
10.00001
 31
0.0
  0
LINE
  5
10B
330
1F
100
AcDbEntity
  8
LAYER_1
 62
     7
100
AcDbLine
 10
19.25
 20
10.00001
 30
0.0
 11
79.24999800000001
 21
10.00001
 31
0.0
  0
LINE
  5
10C
330
1F
100
AcDbEntity
  8
LAYER_1
 62
     7
100
AcDbLine
 10
19.25
 20
10.00001
 30
0.0
 11
14.249998
 21
15.0
 31
0.0
  0
LINE
  5
10D
330
1F
100
AcDbEntity
  8
LAYER_1
 62
     7
100
AcDbLine
 10
14.249998
 20
25.000008
 30
0.0
 11
14.249998
 21
15.0
 31
0.0
  0
LINE
  5
10E
330
1F
100
AcDbEntity
  8
LAYER_1
 62
     7
100
AcDbLine
 10
14.249998
 20
25.000008
 30
0.0
 11
19.25
 21
29.999998
 31
0.0
  0
SPLINE
  5
10F
330
1F
100
AcDbEntity
  8
LAYER_1
 62
     7
100
AcDbSpline
210
0.0
220
0.0
230
1.0
 70
  1064
 71
     3
 72
    13
 73
     9
 74
     7
 42
0.000000001
 43
0.0000000001
 44
0.0000000001
 40
0.0
 40
0.0
 40
0.0
 40
0.0
 40
1.308874326001163
 40
2.606917165365484
 40
3.915791902591701
 40
5.22466523776856
 40
6.522708618329099
 40
7.831582813452532
 40
7.831582813452532
 40
7.831582813452532
 40
7.831582813452532
 10
4.999998
 20
145.000002
 30
0.0
 10
4.562431849217141
 20
144.9666706488258
 30
0.0
 10
3.6909205919494
 20
144.9002837774551
 30
0.0
 10
2.471714734592024
 20
144.3756574954445
 30
0.0
 10
1.422510223526332
 20
143.5774894731858
 30
0.0
 10
0.6243418713839654
 20
142.5282848257032
 30
0.0
 10
0.0997174146423787
 20
141.3090784950202
 30
0.0
 10
0.0333310754169447
 20
140.4375671048737
 30
0.0
 10
0.0
 20
140.000001
 30
0.0
 11
4.999998
 21
145.000002
 31
0.0
 11
3.702382
 21
144.828699
 31
0.0
 11
2.503147
 21
144.331959
 31
0.0
 11
1.464464999999999
 21
143.535534
 31
0.0
 11
0.6680410000000001
 21
142.496853
 31
0.0
 11
0.171302
 21
141.297617
 31
0.0
 11
0.0
 21
140.000001
 31
0.0
  0
LINE
  5
110
330
1F
100
AcDbEntity
  8
LAYER_1
 62
     7
100
AcDbLine
 10
196.999995
 20
0.000001
 30
0.0
 11
196.999995
 21
140.000001
 31
0.0
  0
SPLINE
  5
111
330
1F
100
AcDbEntity
  8
LAYER_1
 62
     7
100
AcDbSpline
210
0.0
220
0.0
230
1.0
 70
  1064
 71
     3
 72
    13
 73
     9
 74
     7
 42
0.000000001
 43
0.0000000001
 44
0.0000000001
 40
0.0
 40
0.0
 40
0.0
 40
0.0
 40
1.308874195123431
 40
2.6069171930014
 40
3.915791136659074
 40
5.224665080316748
 40
6.522707919681084
 40
7.831583237080694
 40
7.831583237080694
 40
7.831583237080694
 40
7.831583237080694
 10
196.999995
 20
140.000001
 30
0.0
 10
196.9666638099637
 20
140.4375670479917
 30
0.0
 10
196.9002772521934
 20
141.3090781969112
 30
0.0
 10
196.3756545336082
 20
142.5282854577429
 30
0.0
 10
195.5774846520604
 20
143.5774887528427
 30
0.0
 10
194.5282812510047
 20
144.375657850626
 30
0.0
 10
193.3090750394244
 20
144.9002838530514
 30
0.0
 10
192.437563471689
 20
144.9666706657253
 30
0.0
 10
191.999997
 20
145.000002
 30
0.0
 11
196.999995
 21
140.000001
 31
0.0
 11
196.828693
 21
141.297617
 31
0.0
 11
196.331955
 21
142.496853
 31
0.0
 11
195.53553
 21
143.535534
 31
0.0
 11
194.496849
 21
144.331959
 31
0.0
 11
193.297614
 21
144.828699
 31
0.0
 11
191.999997
 21
145.000002
 31
0.0
  0
LINE
  5
112
330
1F
100
AcDbEntity
  8
LAYER_1
 62
     7
100
AcDbLine
 10
191.999997
 20
145.000002
 30
0.0
 11
103.499996
 21
145.000002
 31
0.0
  0
LINE
  5
114
330
1F
100
AcDbEntity
  8
LAYER_1
 62
     7
100
AcDbLine
 10
98.499998
 20
0.000001
 30
0.0
 11
103.499996
 21
-4.999989
 31
0.0
  0
LINE
  5
115
330
1F
100
AcDbEntity
  8
LAYER_1
 62
     7
100
AcDbLine
 10
103.499996
 20
-4.999989
 30
0.0
 11
191.999997
 21
-4.999989
 31
0.0
  0
LINE
  5
116
330
1F
100
AcDbEntity
  8
LAYER_1
 62
     7
100
AcDbLine
 10
191.999997
 20
-4.999989
 30
0.0
 11
196.999995
 21
0.000001
 31
0.0
  0
LINE
  5
117
330
1F
100
AcDbEntity
  8
LAYER_1
 62
     7
100
AcDbLine
 10
177.749996
 20
29.999998
 30
0.0
 11
117.749997
 21
29.999998
 31
0.0
  0
LINE
  5
118
330
1F
100
AcDbEntity
  8
LAYER_1
 62
     7
100
AcDbLine
 10
177.749996
 20
29.999998
 30
0.0
 11
182.749997
 21
25.000008
 31
0.0
  0
LINE
  5
119
330
1F
100
AcDbEntity
  8
LAYER_1
 62
     7
100
AcDbLine
 10
182.749997
 20
15.0
 30
0.0
 11
182.749997
 21
25.000008
 31
0.0
  0
LINE
  5
11A
330
1F
100
AcDbEntity
  8
LAYER_1
 62
     7
100
AcDbLine
 10
182.749997
 20
15.0
 30
0.0
 11
177.749996
 21
10.00001
 31
0.0
  0
LINE
  5
11B
330
1F
100
AcDbEntity
  8
LAYER_1
 62
     7
100
AcDbLine
 10
117.749997
 20
10.00001
 30
0.0
 11
177.749996
 21
10.00001
 31
0.0
  0
LINE
  5
11C
330
1F
100
AcDbEntity
  8
LAYER_1
 62
     7
100
AcDbLine
 10
117.749997
 20
10.00001
 30
0.0
 11
112.749996
 21
15.0
 31
0.0
  0
LINE
  5
11D
330
1F
100
AcDbEntity
  8
LAYER_1
 62
     7
100
AcDbLine
 10
112.749996
 20
25.000008
 30
0.0
 11
112.749996
 21
15.0
 31
0.0
  0
LINE
  5
11E
330
1F
100
AcDbEntity
  8
LAYER_1
 62
     7
100
AcDbLine
 10
112.749996
 20
25.000008
 30
0.0
 11
117.749997
 21
29.999998
 31
0.0
  0
SPLINE
  5
11F
330
1F
100
AcDbEntity
  8
LAYER_1
 62
     7
100
AcDbSpline
210
0.0
220
0.0
230
1.0
 70
  1064
 71
     3
 72
    13
 73
     9
 74
     7
 42
0.000000001
 43
0.0000000001
 44
0.0000000001
 40
0.0
 40
0.0
 40
0.0
 40
0.0
 40
1.308874326001153
 40
2.606918089244913
 40
3.915792032902587
 40
5.224665368079437
 40
6.522708748639978
 40
7.831582943763409
 40
7.831582943763409
 40
7.831582943763409
 40
7.831582943763409
 10
103.499996
 20
145.000002
 30
0.0
 10
103.0624298807127
 20
144.9666705830838
 30
0.0
 10
102.1909183773161
 20
144.9002835572457
 30
0.0
 10
100.9717120424435
 20
144.3756580857193
 30
0.0
 10
99.92250819330195
 20
143.5774890722842
 30
0.0
 10
99.12433983664261
 20
142.5282848754314
 30
0.0
 10
98.59971542338195
 20
141.3090784825106
 30
0.0
 10
98.5333290783382
 20
140.4375671006923
 30
0.0
 10
98.499998
 20
140.000001
 30
0.0
 11
103.499996
 21
145.000002
 31
0.0
 11
102.20238
 21
144.828699
 31
0.0
 11
101.003144
 21
144.331959
 31
0.0
 11
99.964463
 21
143.535534
 31
0.0
 11
99.16803900000001
 21
142.496853
 31
0.0
 11
98.67130000000001
 21
141.297617
 31
0.0
 11
98.499998
 21
140.000001
 31
0.0
  0
LINE
  5
120
330
1F
100
AcDbEntity
  8
LAYER_1
 62
     7
100
AcDbLine
 10
98.499998
 20
149.999992
 30
0.0
 11
98.499998
 21
289.999991
 31
0.0
  0
SPLINE
  5
121
330
1F
100
AcDbEntity
  8
LAYER_1
 62
     7
100
AcDbSpline
210
0.0
220
0.0
230
1.0
 70
  1064
 71
     3
 72
    13
 73
     9
 74
     7
 42
0.000000001
 43
0.0000000001
 44
0.0000000001
 40
0.0
 40
0.0
 40
0.0
 40
0.0
 40
1.308875186522003
 40
2.606917643202822
 40
3.915791771948581
 40
5.224666509174793
 40
6.522709348539116
 40
7.831584665938758
 40
7.831584665938758
 40
7.831584665938758
 40
7.831584665938758
 10
98.499998
 20
289.999991
 30
0.0
 10
98.4666670282785
 20
290.4375574768153
 30
0.0
 10
98.40028094415018
 20
291.3090689702184
 30
0.0
 10
97.87565553681675
 20
292.5282751338543
 30
0.0
 10
97.07748817768342
 20
293.5774804432692
 30
0.0
 10
96.02828321597852
 20
294.3756484591783
 30
0.0
 10
94.80907711039213
 20
294.9002749247787
 30
0.0
 10
93.93756549541034
 20
294.9666616897005
 30
0.0
 10
93.499999
 20
294.999993
 30
0.0
 11
98.499998
 21
289.999991
 31
0.0
 11
98.328696
 21
291.297608
 31
0.0
 11
97.831957
 21
292.496843
 31
0.0
 11
97.03553300000001
 21
293.535525
 31
0.0
 11
95.996851
 21
294.33195
 31
0.0
 11
94.79761600000001
 21
294.82869
 31
0.0
 11
93.499999
 21
294.999993
 31
0.0
  0
LINE
  5
123
330
1F
100
AcDbEntity
  8
LAYER_1
 62
     7
100
AcDbLine
 10
0.0
 20
289.999991
 30
0.0
 11
0.0
 21
149.999992
 31
0.0
  0
LINE
  5
124
330
1F
100
AcDbEntity
  8
LAYER_1
 62
     7
100
AcDbLine
 10
0.0
 20
149.999992
 30
0.0
 11
4.999998
 21
145.000002
 31
0.0
  0
LINE
  5
125
330
1F
100
AcDbEntity
  8
LAYER_1
 62
     7
100
AcDbLine
 10
4.999998
 20
145.000002
 30
0.0
 11
93.499999
 21
145.000002
 31
0.0
  0
LINE
  5
126
330
1F
100
AcDbEntity
  8
LAYER_1
 62
     7
100
AcDbLine
 10
93.499999
 20
145.000002
 30
0.0
 11
98.499998
 21
149.999992
 31
0.0
  0
LINE
  5
127
330
1F
100
AcDbEntity
  8
LAYER_1
 62
     7
100
AcDbLine
 10
79.24999800000001
 20
179.999988
 30
0.0
 11
19.25
 21
179.999988
 31
0.0
  0
LINE
  5
128
330
1F
100
AcDbEntity
  8
LAYER_1
 62
     7
100
AcDbLine
 10
79.24999800000001
 20
179.999988
 30
0.0
 11
84.24999900000001
 21
174.999998
 31
0.0
  0
LINE
  5
129
330
1F
100
AcDbEntity
  8
LAYER_1
 62
     7
100
AcDbLine
 10
84.24999900000001
 20
164.99999
 30
0.0
 11
84.24999900000001
 21
174.999998
 31
0.0
  0
LINE
  5
12A
330
1F
100
AcDbEntity
  8
LAYER_1
 62
     7
100
AcDbLine
 10
84.24999900000001
 20
164.99999
 30
0.0
 11
79.24999800000001
 21
160.0
 31
0.0
  0
LINE
  5
12B
330
1F
100
AcDbEntity
  8
LAYER_1
 62
     7
100
AcDbLine
 10
19.25
 20
160.0
 30
0.0
 11
79.24999800000001
 21
160.0
 31
0.0
  0
LINE
  5
12C
330
1F
100
AcDbEntity
  8
LAYER_1
 62
     7
100
AcDbLine
 10
19.25
 20
160.0
 30
0.0
 11
14.249998
 21
164.99999
 31
0.0
  0
LINE
  5
12D
330
1F
100
AcDbEntity
  8
LAYER_1
 62
     7
100
AcDbLine
 10
14.249998
 20
174.999998
 30
0.0
 11
14.249998
 21
164.99999
 31
0.0
  0
LINE
  5
12E
330
1F
100
AcDbEntity
  8
LAYER_1
 62
     7
100
AcDbLine
 10
14.249998
 20
174.999998
 30
0.0
 11
19.25
 21
179.999988
 31
0.0
  0
SPLINE
  5
12F
330
1F
100
AcDbEntity
  8
LAYER_1
 62
     7
100
AcDbSpline
210
0.0
220
0.0
230
1.0
 70
  1064
 71
     3
 72
    13
 73
     9
 74
     7
 42
0.000000001
 43
0.0000000001
 44
0.0000000001
 40
0.0
 40
0.0
 40
0.0
 40
0.0
 40
1.308874326001167
 40
2.606917165365487
 40
3.915791902591704
 40
5.22466603133747
 40
6.522708488018286
 40
7.831583674540288
 40
7.831583674540288
 40
7.831583674540288
 40
7.831583674540288
 10
4.999998
 20
294.999993
 30
0.0
 10
4.562431845026434
 20
294.9666616517447
 30
0.0
 10
3.690920579411964
 20
294.9002747861874
 30
0.0
 10
2.471714784430527
 20
294.3756484607323
 30
0.0
 10
1.422509822206616
 20
293.5774804428514
 30
0.0
 10
0.6243424632122698
 20
292.5282751339646
 30
0.0
 10
0.0997170558425244
 20
291.3090689701907
 30
0.0
 10
0.0333309717190736
 20
290.4375574768061
 30
0.0
 10
0.0
 20
289.999991
 30
0.0
 11
4.999998
 21
294.999993
 31
0.0
 11
3.702382
 21
294.82869
 31
0.0
 11
2.503147
 21
294.33195
 31
0.0
 11
1.464464999999999
 21
293.535525
 31
0.0
 11
0.6680410000000001
 21
292.496843
 31
0.0
 11
0.171302
 21
291.297608
 31
0.0
 11
0.0
 21
289.999991
 31
0.0
  0
SPLINE
  5
131
330
1F
100
AcDbEntity
  8
LAYER_1
 62
     7
100
AcDbSpline
210
0.0
220
0.0
230
1.0
 70
  1064
 71
     3
 72
    13
 73
     9
 74
     7
 42
0.000000001
 43
0.0000000001
 44
0.0000000001
 40
0.0
 40
0.0
 40
0.0
 40
0.0
 40
1.308875186522001
 40
2.606917260519976
 40
3.915791997746189
 40
5.224665941403863
 40
6.522708780768199
 40
7.831584098167812
 40
7.831584098167812
 40
7.831584098167812
 40
7.831584098167812
 10
196.999995
 20
289.999991
 30
0.0
 10
196.9666639136614
 20
290.4375574199239
 30
0.0
 10
196.9002776109928
 20
291.3090686720813
 30
0.0
 10
196.3756539417801
 20
292.5282757660043
 30
0.0
 10
195.5774850533797
 20
293.5774797225083
 30
0.0
 10
194.5282812011662
 20
294.3756488159137
 30
0.0
 10
193.3090750519619
 20
294.9002748617838
 30
0.0
 10
192.4375634758797
 20
294.9666616686442
 30
0.0
 10
191.999997
 20
294.999993
 30
0.0
 11
196.999995
 21
289.999991
 31
0.0
 11
196.828693
 21
291.297608
 31
0.0
 11
196.331955
 21
292.496843
 31
0.0
 11
195.53553
 21
293.535525
 31
0.0
 11
194.496849
 21
294.33195
 31
0.0
 11
193.297614
 21
294.82869
 31
0.0
 11
191.999997
 21
294.999993
 31
0.0
  0
LINE
  5
134
330
1F
100
AcDbEntity
  8
LAYER_1
 62
     7
100
AcDbLine
 10
98.499998
 20
149.999992
 30
0.0
 11
103.499996
 21
145.000002
 31
0.0
  0
LINE
  5
136
330
1F
100
AcDbEntity
  8
LAYER_1
 62
     7
100
AcDbLine
 10
191.999997
 20
145.000002
 30
0.0
 11
196.999995
 21
149.999992
 31
0.0
  0
LINE
  5
137
330
1F
100
AcDbEntity
  8
LAYER_1
 62
     7
100
AcDbLine
 10
177.749996
 20
179.999988
 30
0.0
 11
117.749997
 21
179.999988
 31
0.0
  0
LINE
  5
138
330
1F
100
AcDbEntity
  8
LAYER_1
 62
     7
100
AcDbLine
 10
177.749996
 20
179.999988
 30
0.0
 11
182.749997
 21
174.999998
 31
0.0
  0
LINE
  5
139
330
1F
100
AcDbEntity
  8
LAYER_1
 62
     7
100
AcDbLine
 10
182.749997
 20
164.99999
 30
0.0
 11
182.749997
 21
174.999998
 31
0.0
  0
LINE
  5
13A
330
1F
100
AcDbEntity
  8
LAYER_1
 62
     7
100
AcDbLine
 10
182.749997
 20
164.99999
 30
0.0
 11
177.749996
 21
160.0
 31
0.0
  0
LINE
  5
13B
330
1F
100
AcDbEntity
  8
LAYER_1
 62
     7
100
AcDbLine
 10
117.749997
 20
160.0
 30
0.0
 11
177.749996
 21
160.0
 31
0.0
  0
LINE
  5
13C
330
1F
100
AcDbEntity
  8
LAYER_1
 62
     7
100
AcDbLine
 10
117.749997
 20
160.0
 30
0.0
 11
112.749996
 21
164.99999
 31
0.0
  0
LINE
  5
13D
330
1F
100
AcDbEntity
  8
LAYER_1
 62
     7
100
AcDbLine
 10
112.749996
 20
174.999998
 30
0.0
 11
112.749996
 21
164.99999
 31
0.0
  0
LINE
  5
13E
330
1F
100
AcDbEntity
  8
LAYER_1
 62
     7
100
AcDbLine
 10
112.749996
 20
174.999998
 30
0.0
 11
117.749997
 21
179.999988
 31
0.0
  0
SPLINE
  5
13F
330
1F
100
AcDbEntity
  8
LAYER_1
 62
     7
100
AcDbSpline
210
0.0
220
0.0
230
1.0
 70
  1064
 71
     3
 72
    13
 73
     9
 74
     7
 42
0.000000001
 43
0.0000000001
 44
0.0000000001
 40
0.0
 40
0.0
 40
0.0
 40
0.0
 40
1.308874326001157
 40
2.606918089244916
 40
3.91579203290259
 40
5.224666161648348
 40
6.522708618329167
 40
7.831583804851169
 40
7.831583804851169
 40
7.831583804851169
 40
7.831583804851169
 10
103.499996
 20
294.999993
 30
0.0
 10
103.062429876522
 20
294.9666615860026
 30
0.0
 10
102.1909183647786
 20
294.900274565978
 30
0.0
 10
100.971712092282
 20
294.375649051007
 30
0.0
 10
99.92250779198244
 20
293.5774800419495
 30
0.0
 10
99.12434042847095
 20
292.5282751836928
 30
0.0
 10
98.59971506458212
 20
291.3090689576809
 30
0.0
 10
98.53332897464035
 20
290.4375574726246
 30
0.0
 10
98.499998
 20
289.999991
 30
0.0
 11
103.499996
 21
294.999993
 31
0.0
 11
102.20238
 21
294.82869
 31
0.0
 11
101.003144
 21
294.33195
 31
0.0
 11
99.964463
 21
293.535525
 31
0.0
 11
99.16803900000001
 21
292.496843
 31
0.0
 11
98.67130000000001
 21
291.297608
 31
0.0
 11
98.499998
 21
289.999991
 31
0.0
  0
SPLINE
  5
141
330
1F
100
AcDbEntity
  8
LAYER_1
 62
     7
100
AcDbSpline
210
0.0
220
0.0
230
1.0
 70
  1064
 71
     3
 72
    13
 73
     9
 74
     7
 42
0.000000001
 43
0.0000000001
 44
0.0000000001
 40
0.0
 40
0.0
 40
0.0
 40
0.0
 40
1.308874195123435
 40
2.60691757568397
 40
3.91579091086083
 40
5.224664854518504
 40
6.522708617762289
 40
7.831582943763401
 40
7.831582943763401
 40
7.831582943763401
 40
7.831582943763401
 10
295.499993
 20
140.000001
 30
0.0
 10
295.4666619216618
 20
140.4375671006923
 30
0.0
 10
295.4002755766181
 20
141.3090784825106
 30
0.0
 10
294.8756511633574
 20
142.5282848754314
 30
0.0
 10
294.0774828066981
 20
143.5774890722842
 30
0.0
 10
293.0282789575564
 20
144.3756580857193
 30
0.0
 10
291.809072622684
 20
144.9002835572458
 30
0.0
 10
290.9375611192873
 20
144.9666705830838
 30
0.0
 10
290.499995
 20
145.000002
 30
0.0
 11
295.499993
 21
140.000001
 31
0.0
 11
295.328691
 21
141.297617
 31
0.0
 11
294.831952
 21
142.496853
 31
0.0
 11
294.035528
 21
143.535534
 31
0.0
 11
292.996847
 21
144.331959
 31
0.0
 11
291.797611
 21
144.828699
 31
0.0
 11
290.499995
 21
145.000002
 31
0.0
  0
LINE
  5
142
330
1F
100
AcDbEntity
  8
LAYER_1
 62
     7
100
AcDbLine
 10
290.499995
 20
145.000002
 30
0.0
 11
201.999994
 21
145.000002
 31
0.0
  0
LINE
  5
144
330
1F
100
AcDbEntity
  8
LAYER_1
 62
     7
100
AcDbLine
 10
196.999995
 20
0.000001
 30
0.0
 11
201.999994
 21
-4.999989
 31
0.0
  0
LINE
  5
145
330
1F
100
AcDbEntity
  8
LAYER_1
 62
     7
100
AcDbLine
 10
201.999994
 20
-4.999989
 30
0.0
 11
290.499995
 21
-4.999989
 31
0.0
  0
LINE
  5
146
330
1F
100
AcDbEntity
  8
LAYER_1
 62
     7
100
AcDbLine
 10
290.499995
 20
-4.999989
 30
0.0
 11
295.499993
 21
0.000001
 31
0.0
  0
LINE
  5
147
330
1F
100
AcDbEntity
  8
LAYER_1
 62
     7
100
AcDbLine
 10
276.249994
 20
29.999998
 30
0.0
 11
216.249995
 21
29.999998
 31
0.0
  0
LINE
  5
148
330
1F
100
AcDbEntity
  8
LAYER_1
 62
     7
100
AcDbLine
 10
276.249994
 20
29.999998
 30
0.0
 11
281.249995
 21
25.000008
 31
0.0
  0
LINE
  5
149
330
1F
100
AcDbEntity
  8
LAYER_1
 62
     7
100
AcDbLine
 10
281.249995
 20
15.0
 30
0.0
 11
281.249995
 21
25.000008
 31
0.0
  0
LINE
  5
14A
330
1F
100
AcDbEntity
  8
LAYER_1
 62
     7
100
AcDbLine
 10
281.249995
 20
15.0
 30
0.0
 11
276.249994
 21
10.00001
 31
0.0
  0
LINE
  5
14B
330
1F
100
AcDbEntity
  8
LAYER_1
 62
     7
100
AcDbLine
 10
216.249995
 20
10.00001
 30
0.0
 11
276.249994
 21
10.00001
 31
0.0
  0
LINE
  5
14C
330
1F
100
AcDbEntity
  8
LAYER_1
 62
     7
100
AcDbLine
 10
216.249995
 20
10.00001
 30
0.0
 11
211.249994
 21
15.0
 31
0.0
  0
LINE
  5
14D
330
1F
100
AcDbEntity
  8
LAYER_1
 62
     7
100
AcDbLine
 10
211.249994
 20
25.000008
 30
0.0
 11
211.249994
 21
15.0
 31
0.0
  0
LINE
  5
14E
330
1F
100
AcDbEntity
  8
LAYER_1
 62
     7
100
AcDbLine
 10
211.249994
 20
25.000008
 30
0.0
 11
216.249995
 21
29.999998
 31
0.0
  0
SPLINE
  5
14F
330
1F
100
AcDbEntity
  8
LAYER_1
 62
     7
100
AcDbSpline
210
0.0
220
0.0
230
1.0
 70
  1064
 71
     3
 72
    13
 73
     9
 74
     7
 42
0.000000001
 43
0.0000000001
 44
0.0000000001
 40
0.0
 40
0.0
 40
0.0
 40
0.0
 40
1.30887531739961
 40
2.606918156763946
 40
3.91579210042162
 40
5.224666044079294
 40
6.522709041957263
 40
7.831583367958434
 40
7.831583367958434
 40
7.831583367958434
 40
7.831583367958434
 10
201.999994
 20
145.000002
 30
0.0
 10
201.5624275287369
 20
144.9666706656686
 30
0.0
 10
200.6909159618497
 20
144.9002838528818
 30
0.0
 10
199.4717097439305
 20
144.3756578513003
 30
0.0
 10
198.4225063671148
 20
143.5774887502896
 30
0.0
 10
197.6243363950727
 20
142.5282854672391
 30
0.0
 10
197.0997139949186
 20
141.3090781209239
 30
0.0
 10
197.0333266079949
 20
140.4375670370962
 30
0.0
 10
196.999995
 20
140.000001
 30
0.0
 11
201.999994
 21
145.000002
 31
0.0
 11
200.702377
 21
144.828699
 31
0.0
 11
199.503142
 21
144.331959
 31
0.0
 11
198.464461
 21
143.535534
 31
0.0
 11
197.668036
 21
142.496853
 31
0.0
 11
197.171298
 21
141.297617
 31
0.0
 11
196.999995
 21
140.000001
 31
0.0
  0
LINE
  5
150
330
1F
100
AcDbEntity
  8
LAYER_1
 62
     7
100
AcDbLine
 10
393.999994
 20
0.000001
 30
0.0
 11
393.999994
 21
140.000001
 31
0.0
  0
SPLINE
  5
151
330
1F
100
AcDbEntity
  8
LAYER_1
 62
     7
100
AcDbSpline
210
0.0
220
0.0
230
1.0
 70
  1064
 71
     3
 72
    13
 73
     9
 74
     7
 42
0.000000001
 43
0.0000000001
 44
0.0000000001
 40
0.0
 40
0.0
 40
0.0
 40
0.0
 40
1.308874195123435
 40
2.60691757568397
 40
3.91579091086083
 40
5.224665648087043
 40
6.522708487451352
 40
7.831583804850991
 40
7.831583804850991
 40
7.831583804850991
 40
7.831583804850991
 10
393.999994
 20
140.000001
 30
0.0
 10
393.9666629245806
 20
140.437567104883
 30
0.0
 10
393.9002765853503
 20
141.309078495048
 30
0.0
 10
393.375652128645
 20
142.5282848255929
 30
0.0
 10
392.5774837763638
 20
143.5774894736037
 30
0.0
 10
391.528279265817
 20
144.3756574938905
 30
0.0
 10
390.3090730978547
 20
144.9002839160463
 30
0.0
 10
389.4375614912197
 20
144.9666706867817
 30
0.0
 10
388.999995
 20
145.000002
 30
0.0
 11
393.999994
 21
140.000001
 31
0.0
 11
393.828692
 21
141.297617
 31
0.0
 11
393.331953
 21
142.496853
 31
0.0
 11
392.535529
 21
143.535534
 31
0.0
 11
391.496847
 21
144.331959
 31
0.0
 11
390.297612
 21
144.828699
 31
0.0
 11
388.999995
 21
145.000002
 31
0.0
  0
LINE
  5
152
330
1F
100
AcDbEntity
  8
LAYER_1
 62
     7
100
AcDbLine
 10
388.999995
 20
145.000002
 30
0.0
 11
300.499994
 21
145.000002
 31
0.0
  0
LINE
  5
153
330
1F
100
AcDbEntity
  8
LAYER_1
 62
     7
100
AcDbLine
 10
295.499996
 20
140.000001
 30
0.0
 11
295.499996
 21
0.000001
 31
0.0
  0
LINE
  5
154
330
1F
100
AcDbEntity
  8
LAYER_1
 62
     7
100
AcDbLine
 10
295.499996
 20
0.000001
 30
0.0
 11
300.499994
 21
-4.999989
 31
0.0
  0
LINE
  5
155
330
1F
100
AcDbEntity
  8
LAYER_1
 62
     7
100
AcDbLine
 10
300.499994
 20
-4.999989
 30
0.0
 11
388.999995
 21
-4.999989
 31
0.0
  0
LINE
  5
156
330
1F
100
AcDbEntity
  8
LAYER_1
 62
     7
100
AcDbLine
 10
388.999995
 20
-4.999989
 30
0.0
 11
393.999994
 21
0.000001
 31
0.0
  0
LINE
  5
157
330
1F
100
AcDbEntity
  8
LAYER_1
 62
     7
100
AcDbLine
 10
374.749994
 20
29.999998
 30
0.0
 11
314.749996
 21
29.999998
 31
0.0
  0
LINE
  5
158
330
1F
100
AcDbEntity
  8
LAYER_1
 62
     7
100
AcDbLine
 10
374.749994
 20
29.999998
 30
0.0
 11
379.749995
 21
25.000008
 31
0.0
  0
LINE
  5
159
330
1F
100
AcDbEntity
  8
LAYER_1
 62
     7
100
AcDbLine
 10
379.749995
 20
15.0
 30
0.0
 11
379.749995
 21
25.000008
 31
0.0
  0
LINE
  5
15A
330
1F
100
AcDbEntity
  8
LAYER_1
 62
     7
100
AcDbLine
 10
379.749995
 20
15.0
 30
0.0
 11
374.749994
 21
10.00001
 31
0.0
  0
LINE
  5
15B
330
1F
100
AcDbEntity
  8
LAYER_1
 62
     7
100
AcDbLine
 10
314.749996
 20
10.00001
 30
0.0
 11
374.749994
 21
10.00001
 31
0.0
  0
LINE
  5
15C
330
1F
100
AcDbEntity
  8
LAYER_1
 62
     7
100
AcDbLine
 10
314.749996
 20
10.00001
 30
0.0
 11
309.749994
 21
15.0
 31
0.0
  0
LINE
  5
15D
330
1F
100
AcDbEntity
  8
LAYER_1
 62
     7
100
AcDbLine
 10
309.749994
 20
25.000008
 30
0.0
 11
309.749994
 21
15.0
 31
0.0
  0
LINE
  5
15E
330
1F
100
AcDbEntity
  8
LAYER_1
 62
     7
100
AcDbLine
 10
309.749994
 20
25.000008
 30
0.0
 11
314.749996
 21
29.999998
 31
0.0
  0
SPLINE
  5
15F
330
1F
100
AcDbEntity
  8
LAYER_1
 62
     7
100
AcDbSpline
210
0.0
220
0.0
230
1.0
 70
  1064
 71
     3
 72
    13
 73
     9
 74
     7
 42
0.000000001
 43
0.0000000001
 44
0.0000000001
 40
0.0
 40
0.0
 40
0.0
 40
0.0
 40
1.308874326001224
 40
2.606917165365481
 40
3.915791902591738
 40
5.224665237768563
 40
6.52270861832912
 40
7.831582813452548
 40
7.831582813452548
 40
7.831582813452548
 40
7.831582813452548
 10
300.499994
 20
145.000002
 30
0.0
 10
300.0624278492172
 20
144.9666706488258
 30
0.0
 10
299.1909165919494
 20
144.9002837774552
 30
0.0
 10
297.9717107345921
 20
144.3756574954445
 30
0.0
 10
296.9225062235263
 20
143.5774894731859
 30
0.0
 10
296.124337871384
 20
142.5282848257032
 30
0.0
 10
295.5997134146423
 20
141.3090784950203
 30
0.0
 10
295.5333270754169
 20
140.4375671048737
 30
0.0
 10
295.499996
 20
140.000001
 30
0.0
 11
300.499994
 21
145.000002
 31
0.0
 11
299.202378
 21
144.828699
 31
0.0
 11
298.003143
 21
144.331959
 31
0.0
 11
296.9644609999999
 21
143.535534
 31
0.0
 11
296.168037
 21
142.496853
 31
0.0
 11
295.671298
 21
141.297617
 31
0.0
 11
295.499996
 21
140.000001
 31
0.0
  0
LINE
  5
160
330
1F
100
AcDbEntity
  8
LAYER_1
 62
     7
100
AcDbLine
 10
295.499993
 20
149.999992
 30
0.0
 11
295.499993
 21
289.999991
 31
0.0
  0
SPLINE
  5
161
330
1F
100
AcDbEntity
  8
LAYER_1
 62
     7
100
AcDbSpline
210
0.0
220
0.0
230
1.0
 70
  1064
 71
     3
 72
    13
 73
     9
 74
     7
 42
0.000000001
 43
0.0000000001
 44
0.0000000001
 40
0.0
 40
0.0
 40
0.0
 40
0.0
 40
1.308875186522005
 40
2.606917643202818
 40
3.915791771948585
 40
5.22466571560626
 40
6.522709478850045
 40
7.831583804851161
 40
7.831583804851161
 40
7.831583804851161
 40
7.831583804851161
 10
295.499993
 20
289.999991
 30
0.0
 10
295.4666620253597
 20
290.4375574726246
 30
0.0
 10
295.4002759354179
 20
291.3090689576809
 30
0.0
 10
294.8756505715292
 20
292.5282751836928
 30
0.0
 10
294.0774832080174
 20
293.5774800419496
 30
0.0
 10
293.028278907718
 20
294.375649051007
 30
0.0
 10
291.8090726352214
 20
294.9002745659781
 30
0.0
 10
290.9375611234779
 20
294.9666615860027
 30
0.0
 10
290.499995
 20
294.999993
 30
0.0
 11
295.499993
 21
289.999991
 31
0.0
 11
295.328691
 21
291.297608
 31
0.0
 11
294.831952
 21
292.496843
 31
0.0
 11
294.035528
 21
293.535525
 31
0.0
 11
292.996847
 21
294.33195
 31
0.0
 11
291.797611
 21
294.82869
 31
0.0
 11
290.499995
 21
294.999993
 31
0.0
  0
LINE
  5
162
330
1F
100
AcDbEntity
  8
LAYER_1
 62
     7
100
AcDbLine
 10
290.499995
 20
294.999993
 30
0.0
 11
201.999994
 21
294.999993
 31
0.0
  0
LINE
  5
163
330
1F
100
AcDbEntity
  8
LAYER_1
 62
     7
100
AcDbLine
 10
196.999995
 20
289.999991
 30
0.0
 11
196.999995
 21
149.999992
 31
0.0
  0
LINE
  5
164
330
1F
100
AcDbEntity
  8
LAYER_1
 62
     7
100
AcDbLine
 10
196.999995
 20
149.999992
 30
0.0
 11
201.999994
 21
145.000002
 31
0.0
  0
LINE
  5
166
330
1F
100
AcDbEntity
  8
LAYER_1
 62
     7
100
AcDbLine
 10
290.499995
 20
145.000002
 30
0.0
 11
295.499993
 21
149.999992
 31
0.0
  0
LINE
  5
167
330
1F
100
AcDbEntity
  8
LAYER_1
 62
     7
100
AcDbLine
 10
276.249994
 20
179.999988
 30
0.0
 11
216.249995
 21
179.999988
 31
0.0
  0
LINE
  5
168
330
1F
100
AcDbEntity
  8
LAYER_1
 62
     7
100
AcDbLine
 10
276.249994
 20
179.999988
 30
0.0
 11
281.249995
 21
174.999998
 31
0.0
  0
LINE
  5
169
330
1F
100
AcDbEntity
  8
LAYER_1
 62
     7
100
AcDbLine
 10
281.249995
 20
164.99999
 30
0.0
 11
281.249995
 21
174.999998
 31
0.0
  0
LINE
  5
16A
330
1F
100
AcDbEntity
  8
LAYER_1
 62
     7
100
AcDbLine
 10
281.249995
 20
164.99999
 30
0.0
 11
276.249994
 21
160.0
 31
0.0
  0
LINE
  5
16B
330
1F
100
AcDbEntity
  8
LAYER_1
 62
     7
100
AcDbLine
 10
216.249995
 20
160.0
 30
0.0
 11
276.249994
 21
160.0
 31
0.0
  0
LINE
  5
16C
330
1F
100
AcDbEntity
  8
LAYER_1
 62
     7
100
AcDbLine
 10
216.249995
 20
160.0
 30
0.0
 11
211.249994
 21
164.99999
 31
0.0
  0
LINE
  5
16D
330
1F
100
AcDbEntity
  8
LAYER_1
 62
     7
100
AcDbLine
 10
211.249994
 20
174.999998
 30
0.0
 11
211.249994
 21
164.99999
 31
0.0
  0
LINE
  5
16E
330
1F
100
AcDbEntity
  8
LAYER_1
 62
     7
100
AcDbLine
 10
211.249994
 20
174.999998
 30
0.0
 11
216.249995
 21
179.999988
 31
0.0
  0
SPLINE
  5
16F
330
1F
100
AcDbEntity
  8
LAYER_1
 62
     7
100
AcDbSpline
210
0.0
220
0.0
230
1.0
 70
  1064
 71
     3
 72
    13
 73
     9
 74
     7
 42
0.000000001
 43
0.0000000001
 44
0.0000000001
 40
0.0
 40
0.0
 40
0.0
 40
0.0
 40
1.308875317399614
 40
2.606918156763949
 40
3.915792100421623
 40
5.224666837647836
 40
6.522708911645811
 40
7.831584229045453
 40
7.831584229045453
 40
7.831584229045453
 40
7.831584229045453
 10
201.999994
 20
294.999993
 30
0.0
 10
201.5624275245461
 20
294.9666616685874
 30
0.0
 10
200.6909159493122
 20
294.900274861614
 30
0.0
 10
199.471709793769
 20
294.3756488165881
 30
0.0
 10
198.4225059657955
 20
293.577479719955
 30
0.0
 10
197.6243369869009
 20
292.5282757755004
 30
0.0
 10
197.0997136361187
 20
291.3090685960941
 30
0.0
 10
197.0333265042972
 20
290.4375574090285
 30
0.0
 10
196.999995
 20
289.999991
 30
0.0
 11
201.999994
 21
294.999993
 31
0.0
 11
200.702377
 21
294.82869
 31
0.0
 11
199.503142
 21
294.33195
 31
0.0
 11
198.464461
 21
293.535525
 31
0.0
 11
197.668036
 21
292.496843
 31
0.0
 11
197.171298
 21
291.297608
 31
0.0
 11
196.999995
 21
289.999991
 31
0.0
  0
LINE
  5
170
330
1F
100
AcDbEntity
  8
LAYER_1
 62
     7
100
AcDbLine
 10
393.999994
 20
149.999992
 30
0.0
 11
393.999994
 21
289.999991
 31
0.0
  0
SPLINE
  5
171
330
1F
100
AcDbEntity
  8
LAYER_1
 62
     7
100
AcDbSpline
210
0.0
220
0.0
230
1.0
 70
  1064
 71
     3
 72
    13
 73
     9
 74
     7
 42
0.000000001
 43
0.0000000001
 44
0.0000000001
 40
0.0
 40
0.0
 40
0.0
 40
0.0
 40
1.308875186522005
 40
2.606917643202818
 40
3.915791771948585
 40
5.224666509174798
 40
6.522709348539107
 40
7.831584665938749
 40
7.831584665938749
 40
7.831584665938749
 40
7.831584665938749
 10
393.999994
 20
289.999991
 30
0.0
 10
393.9666630282785
 20
290.4375574768153
 30
0.0
 10
393.9002769441501
 20
291.3090689702183
 30
0.0
 10
393.3756515368168
 20
292.5282751338543
 30
0.0
 10
392.5774841776834
 20
293.5774804432692
 30
0.0
 10
391.5282792159786
 20
294.3756484591783
 30
0.0
 10
390.3090731103921
 20
294.9002749247786
 30
0.0
 10
389.4375614954103
 20
294.9666616897005
 30
0.0
 10
388.999995
 20
294.999993
 30
0.0
 11
393.999994
 21
289.999991
 31
0.0
 11
393.828692
 21
291.297608
 31
0.0
 11
393.331953
 21
292.496843
 31
0.0
 11
392.535529
 21
293.535525
 31
0.0
 11
391.496847
 21
294.33195
 31
0.0
 11
390.297612
 21
294.82869
 31
0.0
 11
388.999995
 21
294.999993
 31
0.0
  0
LINE
  5
174
330
1F
100
AcDbEntity
  8
LAYER_1
 62
     7
100
AcDbLine
 10
295.499996
 20
149.999992
 30
0.0
 11
300.499994
 21
145.000002
 31
0.0
  0
LINE
  5
176
330
1F
100
AcDbEntity
  8
LAYER_1
 62
     7
100
AcDbLine
 10
388.999995
 20
145.000002
 30
0.0
 11
393.999994
 21
149.999992
 31
0.0
  0
LINE
  5
177
330
1F
100
AcDbEntity
  8
LAYER_1
 62
     7
100
AcDbLine
 10
374.749994
 20
179.999988
 30
0.0
 11
314.749996
 21
179.999988
 31
0.0
  0
LINE
  5
178
330
1F
100
AcDbEntity
  8
LAYER_1
 62
     7
100
AcDbLine
 10
374.749994
 20
179.999988
 30
0.0
 11
379.749995
 21
174.999998
 31
0.0
  0
LINE
  5
179
330
1F
100
AcDbEntity
  8
LAYER_1
 62
     7
100
AcDbLine
 10
379.749995
 20
164.99999
 30
0.0
 11
379.749995
 21
174.999998
 31
0.0
  0
LINE
  5
17A
330
1F
100
AcDbEntity
  8
LAYER_1
 62
     7
100
AcDbLine
 10
379.749995
 20
164.99999
 30
0.0
 11
374.749994
 21
160.0
 31
0.0
  0
LINE
  5
17B
330
1F
100
AcDbEntity
  8
LAYER_1
 62
     7
100
AcDbLine
 10
314.749996
 20
160.0
 30
0.0
 11
374.749994
 21
160.0
 31
0.0
  0
LINE
  5
17C
330
1F
100
AcDbEntity
  8
LAYER_1
 62
     7
100
AcDbLine
 10
314.749996
 20
160.0
 30
0.0
 11
309.749994
 21
164.99999
 31
0.0
  0
LINE
  5
17D
330
1F
100
AcDbEntity
  8
LAYER_1
 62
     7
100
AcDbLine
 10
309.749994
 20
174.999998
 30
0.0
 11
309.749994
 21
164.99999
 31
0.0
  0
LINE
  5
17E
330
1F
100
AcDbEntity
  8
LAYER_1
 62
     7
100
AcDbLine
 10
309.749994
 20
174.999998
 30
0.0
 11
314.749996
 21
179.999988
 31
0.0
  0
SPLINE
  5
17F
330
1F
100
AcDbEntity
  8
LAYER_1
 62
     7
100
AcDbSpline
210
0.0
220
0.0
230
1.0
 70
  1064
 71
     3
 72
    13
 73
     9
 74
     7
 42
0.000000001
 43
0.0000000001
 44
0.0000000001
 40
0.0
 40
0.0
 40
0.0
 40
0.0
 40
1.308874326001227
 40
2.606917165365484
 40
3.915791902591742
 40
5.224666031337474
 40
6.522708488018309
 40
7.831583674540308
 40
7.831583674540308
 40
7.831583674540308
 40
7.831583674540308
 10
300.499994
 20
294.999993
 30
0.0
 10
300.0624278450264
 20
294.9666616517447
 30
0.0
 10
299.1909165794119
 20
294.9002747861874
 30
0.0
 10
297.9717107844306
 20
294.3756484607322
 30
0.0
 10
296.9225058222065
 20
293.5774804428513
 30
0.0
 10
296.1243384632123
 20
292.5282751339647
 30
0.0
 10
295.5997130558425
 20
291.3090689701905
 30
0.0
 10
295.533326971719
 20
290.437557476806
 30
0.0
 10
295.499996
 20
289.999991
 30
0.0
 11
300.499994
 21
294.999993
 31
0.0
 11
299.202378
 21
294.82869
 31
0.0
 11
298.003143
 21
294.33195
 31
0.0
 11
296.9644609999999
 21
293.535525
 31
0.0
 11
296.168037
 21
292.496843
 31
0.0
 11
295.671298
 21
291.297608
 31
0.0
 11
295.499996
 21
289.999991
 31
0.0
  0
LINE
  5
180
330
1F
100
AcDbEntity
  8
LAYER_1
 62
     7
100
AcDbLine
 10
492.49998
 20
0.000001
 30
0.0
 11
492.49998
 21
140.000001
 31
0.0
  0
SPLINE
  5
181
330
1F
100
AcDbEntity
  8
LAYER_1
 62
     7
100
AcDbSpline
210
0.0
220
0.0
230
1.0
 70
  1064
 71
     3
 72
    13
 73
     9
 74
     7
 42
0.000000001
 43
0.0000000001
 44
0.0000000001
 40
0.0
 40
0.0
 40
0.0
 40
0.0
 40
1.308874195123428
 40
2.606917575683985
 40
3.91579091086081
 40
5.224664854518529
 40
6.52270861776221
 40
7.831582943763377
 40
7.831582943763377
 40
7.831582943763377
 40
7.831582943763377
 10
492.49998
 20
140.000001
 30
0.0
 10
492.4666489216618
 20
140.4375671006923
 30
0.0
 10
492.400262576618
 20
141.3090784825106
 30
0.0
 10
491.8756381633573
 20
142.5282848754314
 30
0.0
 10
491.0774698066981
 20
143.5774890722843
 30
0.0
 10
490.0282659575564
 20
144.3756580857193
 30
0.0
 10
488.8090596226838
 20
144.9002835572458
 30
0.0
 10
487.9375481192873
 20
144.9666705830838
 30
0.0
 10
487.499982
 20
145.000002
 30
0.0
 11
492.49998
 21
140.000001
 31
0.0
 11
492.328678
 21
141.297617
 31
0.0
 11
491.8319389999999
 21
142.496853
 31
0.0
 11
491.035515
 21
143.535534
 31
0.0
 11
489.996834
 21
144.331959
 31
0.0
 11
488.797598
 21
144.828699
 31
0.0
 11
487.499982
 21
145.000002
 31
0.0
  0
LINE
  5
184
330
1F
100
AcDbEntity
  8
LAYER_1
 62
     7
100
AcDbLine
 10
393.999982
 20
0.000001
 30
0.0
 11
398.999981
 21
-4.999989
 31
0.0
  0
LINE
  5
185
330
1F
100
AcDbEntity
  8
LAYER_1
 62
     7
100
AcDbLine
 10
398.999981
 20
-4.999989
 30
0.0
 11
487.499982
 21
-4.999989
 31
0.0
  0
LINE
  5
186
330
1F
100
AcDbEntity
  8
LAYER_1
 62
     7
100
AcDbLine
 10
487.499982
 20
-4.999989
 30
0.0
 11
492.49998
 21
0.000001
 31
0.0
  0
LINE
  5
187
330
1F
100
AcDbEntity
  8
LAYER_1
 62
     7
100
AcDbLine
 10
473.2499809999999
 20
29.999998
 30
0.0
 11
413.2499819999999
 21
29.999998
 31
0.0
  0
LINE
  5
188
330
1F
100
AcDbEntity
  8
LAYER_1
 62
     7
100
AcDbLine
 10
473.2499809999999
 20
29.999998
 30
0.0
 11
478.249982
 21
25.000008
 31
0.0
  0
LINE
  5
189
330
1F
100
AcDbEntity
  8
LAYER_1
 62
     7
100
AcDbLine
 10
478.249982
 20
15.0
 30
0.0
 11
478.249982
 21
25.000008
 31
0.0
  0
LINE
  5
18A
330
1F
100
AcDbEntity
  8
LAYER_1
 62
     7
100
AcDbLine
 10
478.249982
 20
15.0
 30
0.0
 11
473.2499809999999
 21
10.00001
 31
0.0
  0
LINE
  5
18B
330
1F
100
AcDbEntity
  8
LAYER_1
 62
     7
100
AcDbLine
 10
413.2499819999999
 20
10.00001
 30
0.0
 11
473.2499809999999
 21
10.00001
 31
0.0
  0
LINE
  5
18C
330
1F
100
AcDbEntity
  8
LAYER_1
 62
     7
100
AcDbLine
 10
413.2499819999999
 20
10.00001
 30
0.0
 11
408.2499809999999
 21
15.0
 31
0.0
  0
LINE
  5
18D
330
1F
100
AcDbEntity
  8
LAYER_1
 62
     7
100
AcDbLine
 10
408.2499809999999
 20
25.000008
 30
0.0
 11
408.2499809999999
 21
15.0
 31
0.0
  0
LINE
  5
18E
330
1F
100
AcDbEntity
  8
LAYER_1
 62
     7
100
AcDbLine
 10
408.2499809999999
 20
25.000008
 30
0.0
 11
413.2499819999999
 21
29.999998
 31
0.0
  0
SPLINE
  5
18F
330
1F
100
AcDbEntity
  8
LAYER_1
 62
     7
100
AcDbSpline
210
0.0
220
0.0
230
1.0
 70
  1064
 71
     3
 72
    13
 73
     9
 74
     7
 42
0.000000001
 43
0.0000000001
 44
0.0000000001
 40
0.0
 40
0.0
 40
0.0
 40
0.0
 40
1.308875317399638
 40
2.606918156763947
 40
3.915792100421621
 40
5.224666044079295
 40
6.522709041957265
 40
7.831583367958436
 40
7.831583367958436
 40
7.831583367958436
 40
7.831583367958436
 10
398.999981
 20
145.000002
 30
0.0
 10
398.5624145287368
 20
144.9666706656686
 30
0.0
 10
397.6909029618496
 20
144.9002838528818
 30
0.0
 10
396.4716967439305
 20
144.3756578513003
 30
0.0
 10
395.4224933671148
 20
143.5774887502896
 30
0.0
 10
394.6243233950728
 20
142.5282854672391
 30
0.0
 10
394.0997009949185
 20
141.3090781209239
 30
0.0
 10
394.0333136079948
 20
140.4375670370962
 30
0.0
 10
393.999982
 20
140.000001
 30
0.0
 11
398.999981
 21
145.000002
 31
0.0
 11
397.702364
 21
144.828699
 31
0.0
 11
396.503129
 21
144.331959
 31
0.0
 11
395.464448
 21
143.535534
 31
0.0
 11
394.668023
 21
142.496853
 31
0.0
 11
394.171285
 21
141.297617
 31
0.0
 11
393.999982
 21
140.000001
 31
0.0
  0
LINE
  5
190
330
1F
100
AcDbEntity
  8
LAYER_1
 62
     7
100
AcDbLine
 10
590.999995
 20
0.000001
 30
0.0
 11
590.999995
 21
140.000001
 31
0.0
  0
SPLINE
  5
191
330
1F
100
AcDbEntity
  8
LAYER_1
 62
     7
100
AcDbSpline
210
0.0
220
0.0
230
1.0
 70
  1064
 71
     3
 72
    13
 73
     9
 74
     7
 42
0.000000001
 43
0.0000000001
 44
0.0000000001
 40
0.0
 40
0.0
 40
0.0
 40
0.0
 40
1.308874195123443
 40
2.606917575683956
 40
3.915790910860816
 40
5.224665648087029
 40
6.52270848745139
 40
7.831583804850973
 40
7.831583804850973
 40
7.831583804850973
 40
7.831583804850973
 10
590.999995
 20
140.000001
 30
0.0
 10
590.9666639245806
 20
140.437567104883
 30
0.0
 10
590.9002775853503
 20
141.309078495048
 30
0.0
 10
590.3756531286451
 20
142.5282848255929
 30
0.0
 10
589.5774847763638
 20
143.5774894736036
 30
0.0
 10
588.528280265817
 20
144.3756574938905
 30
0.0
 10
587.3090740978548
 20
144.9002839160463
 30
0.0
 10
586.4375624912197
 20
144.9666706867817
 30
0.0
 10
585.999996
 20
145.000002
 30
0.0
 11
590.999995
 21
140.000001
 31
0.0
 11
590.8286929999999
 21
141.297617
 31
0.0
 11
590.331954
 21
142.496853
 31
0.0
 11
589.53553
 21
143.535534
 31
0.0
 11
588.496848
 21
144.331959
 31
0.0
 11
587.2976129999999
 21
144.828699
 31
0.0
 11
585.999996
 21
145.000002
 31
0.0
  0
LINE
  5
192
330
1F
100
AcDbEntity
  8
LAYER_1
 62
     7
100
AcDbLine
 10
585.999996
 20
145.000002
 30
0.0
 11
497.4999959999999
 21
145.000002
 31
0.0
  0
LINE
  5
194
330
1F
100
AcDbEntity
  8
LAYER_1
 62
     7
100
AcDbLine
 10
492.499997
 20
0.000001
 30
0.0
 11
497.4999959999999
 21
-4.999989
 31
0.0
  0
LINE
  5
195
330
1F
100
AcDbEntity
  8
LAYER_1
 62
     7
100
AcDbLine
 10
497.4999959999999
 20
-4.999989
 30
0.0
 11
585.999996
 21
-4.999989
 31
0.0
  0
LINE
  5
196
330
1F
100
AcDbEntity
  8
LAYER_1
 62
     7
100
AcDbLine
 10
585.999996
 20
-4.999989
 30
0.0
 11
590.999995
 21
0.000001
 31
0.0
  0
LINE
  5
197
330
1F
100
AcDbEntity
  8
LAYER_1
 62
     7
100
AcDbLine
 10
571.749995
 20
29.999998
 30
0.0
 11
511.7499969999999
 21
29.999998
 31
0.0
  0
LINE
  5
198
330
1F
100
AcDbEntity
  8
LAYER_1
 62
     7
100
AcDbLine
 10
571.749995
 20
29.999998
 30
0.0
 11
576.749997
 21
25.000008
 31
0.0
  0
LINE
  5
199
330
1F
100
AcDbEntity
  8
LAYER_1
 62
     7
100
AcDbLine
 10
576.749997
 20
15.0
 30
0.0
 11
576.749997
 21
25.000008
 31
0.0
  0
LINE
  5
19A
330
1F
100
AcDbEntity
  8
LAYER_1
 62
     7
100
AcDbLine
 10
576.749997
 20
15.0
 30
0.0
 11
571.749995
 21
10.00001
 31
0.0
  0
LINE
  5
19B
330
1F
100
AcDbEntity
  8
LAYER_1
 62
     7
100
AcDbLine
 10
511.7499969999999
 20
10.00001
 30
0.0
 11
571.749995
 21
10.00001
 31
0.0
  0
LINE
  5
19C
330
1F
100
AcDbEntity
  8
LAYER_1
 62
     7
100
AcDbLine
 10
511.7499969999999
 20
10.00001
 30
0.0
 11
506.749995
 21
15.0
 31
0.0
  0
LINE
  5
19D
330
1F
100
AcDbEntity
  8
LAYER_1
 62
     7
100
AcDbLine
 10
506.749995
 20
25.000008
 30
0.0
 11
506.749995
 21
15.0
 31
0.0
  0
LINE
  5
19E
330
1F
100
AcDbEntity
  8
LAYER_1
 62
     7
100
AcDbLine
 10
506.749995
 20
25.000008
 30
0.0
 11
511.7499969999999
 21
29.999998
 31
0.0
  0
SPLINE
  5
19F
330
1F
100
AcDbEntity
  8
LAYER_1
 62
     7
100
AcDbSpline
210
0.0
220
0.0
230
1.0
 70
  1064
 71
     3
 72
    13
 73
     9
 74
     7
 42
0.000000001
 43
0.0000000001
 44
0.0000000001
 40
0.0
 40
0.0
 40
0.0
 40
0.0
 40
1.308875317399638
 40
2.606918156763947
 40
3.91579289399016
 40
5.224666229167055
 40
6.522709609727568
 40
7.831583804851011
 40
7.831583804851011
 40
7.831583804851011
 40
7.831583804851011
 10
497.4999959999999
 20
145.000002
 30
0.0
 10
497.0624295087803
 20
144.9666706867817
 30
0.0
 10
496.1909179021453
 20
144.9002839160463
 30
0.0
 10
494.9717117341831
 20
144.3756574938905
 30
0.0
 10
493.9225072236363
 20
143.5774894736036
 30
0.0
 10
493.1243388713548
 20
142.528284825593
 30
0.0
 10
492.5997144146497
 20
141.3090784950479
 30
0.0
 10
492.5333280754194
 20
140.437567104883
 30
0.0
 10
492.499997
 20
140.000001
 30
0.0
 11
497.4999959999999
 21
145.000002
 31
0.0
 11
496.2023789999999
 21
144.828699
 31
0.0
 11
495.003144
 21
144.331959
 31
0.0
 11
493.964462
 21
143.535534
 31
0.0
 11
493.1680379999999
 21
142.496853
 31
0.0
 11
492.671299
 21
141.297617
 31
0.0
 11
492.499997
 21
140.000001
 31
0.0
  0
SPLINE
  5
1A1
330
1F
100
AcDbEntity
  8
LAYER_1
 62
     7
100
AcDbSpline
210
0.0
220
0.0
230
1.0
 70
  1064
 71
     3
 72
    13
 73
     9
 74
     7
 42
0.000000001
 43
0.0000000001
 44
0.0000000001
 40
0.0
 40
0.0
 40
0.0
 40
0.0
 40
1.308875186521998
 40
2.606917643202833
 40
3.915791771948565
 40
5.224665715606285
 40
6.522709478849965
 40
7.831583804851137
 40
7.831583804851137
 40
7.831583804851137
 40
7.831583804851137
 10
492.49998
 20
289.999991
 30
0.0
 10
492.4666490253596
 20
290.4375574726246
 30
0.0
 10
492.4002629354179
 20
291.3090689576809
 30
0.0
 10
491.8756375715291
 20
292.5282751836928
 30
0.0
 10
491.0774702080176
 20
293.5774800419496
 30
0.0
 10
490.028265907718
 20
294.375649051007
 30
0.0
 10
488.8090596352213
 20
294.9002745659781
 30
0.0
 10
487.9375481234779
 20
294.9666615860026
 30
0.0
 10
487.499982
 20
294.999993
 30
0.0
 11
492.49998
 21
289.999991
 31
0.0
 11
492.328678
 21
291.297608
 31
0.0
 11
491.8319389999999
 21
292.496843
 31
0.0
 11
491.035515
 21
293.535525
 31
0.0
 11
489.996834
 21
294.33195
 31
0.0
 11
488.797598
 21
294.82869
 31
0.0
 11
487.499982
 21
294.999993
 31
0.0
  0
LINE
  5
1A2
330
1F
100
AcDbEntity
  8
LAYER_1
 62
     7
100
AcDbLine
 10
487.499982
 20
294.999993
 30
0.0
 11
398.999981
 21
294.999993
 31
0.0
  0
LINE
  5
1A4
330
1F
100
AcDbEntity
  8
LAYER_1
 62
     7
100
AcDbLine
 10
393.999982
 20
149.999992
 30
0.0
 11
398.999981
 21
145.000002
 31
0.0
  0
LINE
  5
1A5
330
1F
100
AcDbEntity
  8
LAYER_1
 62
     7
100
AcDbLine
 10
398.999981
 20
145.000002
 30
0.0
 11
487.499982
 21
145.000002
 31
0.0
  0
LINE
  5
1A6
330
1F
100
AcDbEntity
  8
LAYER_1
 62
     7
100
AcDbLine
 10
487.499982
 20
145.000002
 30
0.0
 11
492.49998
 21
149.999992
 31
0.0
  0
LINE
  5
1A7
330
1F
100
AcDbEntity
  8
LAYER_1
 62
     7
100
AcDbLine
 10
473.2499809999999
 20
179.999988
 30
0.0
 11
413.2499819999999
 21
179.999988
 31
0.0
  0
LINE
  5
1A8
330
1F
100
AcDbEntity
  8
LAYER_1
 62
     7
100
AcDbLine
 10
473.2499809999999
 20
179.999988
 30
0.0
 11
478.249982
 21
174.999998
 31
0.0
  0
LINE
  5
1A9
330
1F
100
AcDbEntity
  8
LAYER_1
 62
     7
100
AcDbLine
 10
478.249982
 20
164.99999
 30
0.0
 11
478.249982
 21
174.999998
 31
0.0
  0
LINE
  5
1AA
330
1F
100
AcDbEntity
  8
LAYER_1
 62
     7
100
AcDbLine
 10
478.249982
 20
164.99999
 30
0.0
 11
473.2499809999999
 21
160.0
 31
0.0
  0
LINE
  5
1AB
330
1F
100
AcDbEntity
  8
LAYER_1
 62
     7
100
AcDbLine
 10
413.2499819999999
 20
160.0
 30
0.0
 11
473.2499809999999
 21
160.0
 31
0.0
  0
LINE
  5
1AC
330
1F
100
AcDbEntity
  8
LAYER_1
 62
     7
100
AcDbLine
 10
413.2499819999999
 20
160.0
 30
0.0
 11
408.2499809999999
 21
164.99999
 31
0.0
  0
LINE
  5
1AD
330
1F
100
AcDbEntity
  8
LAYER_1
 62
     7
100
AcDbLine
 10
408.2499809999999
 20
174.999998
 30
0.0
 11
408.2499809999999
 21
164.99999
 31
0.0
  0
LINE
  5
1AE
330
1F
100
AcDbEntity
  8
LAYER_1
 62
     7
100
AcDbLine
 10
408.2499809999999
 20
174.999998
 30
0.0
 11
413.2499819999999
 21
179.999988
 31
0.0
  0
SPLINE
  5
1AF
330
1F
100
AcDbEntity
  8
LAYER_1
 62
     7
100
AcDbSpline
210
0.0
220
0.0
230
1.0
 70
  1064
 71
     3
 72
    13
 73
     9
 74
     7
 42
0.000000001
 43
0.0000000001
 44
0.0000000001
 40
0.0
 40
0.0
 40
0.0
 40
0.0
 40
1.308875317399642
 40
2.606918156763951
 40
3.915792100421625
 40
5.224666837647838
 40
6.522708911645812
 40
7.831584229045454
 40
7.831584229045454
 40
7.831584229045454
 40
7.831584229045454
 10
398.999981
 20
294.999993
 30
0.0
 10
398.5624145245462
 20
294.9666616685874
 30
0.0
 10
397.6909029493122
 20
294.9002748616141
 30
0.0
 10
396.4716967937691
 20
294.3756488165881
 30
0.0
 10
395.4224929657955
 20
293.577479719955
 30
0.0
 10
394.6243239869009
 20
292.5282757755004
 30
0.0
 10
394.0997006361187
 20
291.3090685960941
 30
0.0
 10
394.0333135042973
 20
290.4375574090285
 30
0.0
 10
393.999982
 20
289.999991
 30
0.0
 11
398.999981
 21
294.999993
 31
0.0
 11
397.702364
 21
294.82869
 31
0.0
 11
396.503129
 21
294.33195
 31
0.0
 11
395.464448
 21
293.535525
 31
0.0
 11
394.668023
 21
292.496843
 31
0.0
 11
394.171285
 21
291.297608
 31
0.0
 11
393.999982
 21
289.999991
 31
0.0
  0
LINE
  5
1B0
330
1F
100
AcDbEntity
  8
LAYER_1
 62
     7
100
AcDbLine
 10
590.999995
 20
149.999992
 30
0.0
 11
590.999995
 21
289.999991
 31
0.0
  0
SPLINE
  5
1B1
330
1F
100
AcDbEntity
  8
LAYER_1
 62
     7
100
AcDbSpline
210
0.0
220
0.0
230
1.0
 70
  1064
 71
     3
 72
    13
 73
     9
 74
     7
 42
0.000000001
 43
0.0000000001
 44
0.0000000001
 40
0.0
 40
0.0
 40
0.0
 40
0.0
 40
1.308875186522013
 40
2.606917643202804
 40
3.915791771948572
 40
5.224666509174785
 40
6.522709348539146
 40
7.831584665938732
 40
7.831584665938732
 40
7.831584665938732
 40
7.831584665938732
 10
590.999995
 20
289.999991
 30
0.0
 10
590.9666640282785
 20
290.4375574768153
 30
0.0
 10
590.90027794415
 20
291.3090689702183
 30
0.0
 10
590.3756525368167
 20
292.5282751338543
 30
0.0
 10
589.5774851776836
 20
293.5774804432692
 30
0.0
 10
588.5282802159784
 20
294.3756484591783
 30
0.0
 10
587.3090741103921
 20
294.9002749247786
 30
0.0
 10
586.4375624954102
 20
294.9666616897006
 30
0.0
 10
585.999996
 20
294.999993
 30
0.0
 11
590.999995
 21
289.999991
 31
0.0
 11
590.8286929999999
 21
291.297608
 31
0.0
 11
590.331954
 21
292.496843
 31
0.0
 11
589.53553
 21
293.535525
 31
0.0
 11
588.496848
 21
294.33195
 31
0.0
 11
587.2976129999999
 21
294.82869
 31
0.0
 11
585.999996
 21
294.999993
 31
0.0
  0
LINE
  5
1B3
330
1F
100
AcDbEntity
  8
LAYER_1
 62
     7
100
AcDbLine
 10
492.499997
 20
289.999991
 30
0.0
 11
492.499997
 21
149.999992
 31
0.0
  0
LINE
  5
1B4
330
1F
100
AcDbEntity
  8
LAYER_1
 62
     7
100
AcDbLine
 10
492.499997
 20
149.999992
 30
0.0
 11
497.4999959999999
 21
145.000002
 31
0.0
  0
LINE
  5
1B6
330
1F
100
AcDbEntity
  8
LAYER_1
 62
     7
100
AcDbLine
 10
585.999996
 20
145.000002
 30
0.0
 11
590.999995
 21
149.999992
 31
0.0
  0
LINE
  5
1B7
330
1F
100
AcDbEntity
  8
LAYER_1
 62
     7
100
AcDbLine
 10
571.749995
 20
179.999988
 30
0.0
 11
511.7499969999999
 21
179.999988
 31
0.0
  0
LINE
  5
1B8
330
1F
100
AcDbEntity
  8
LAYER_1
 62
     7
100
AcDbLine
 10
571.749995
 20
179.999988
 30
0.0
 11
576.749997
 21
174.999998
 31
0.0
  0
LINE
  5
1B9
330
1F
100
AcDbEntity
  8
LAYER_1
 62
     7
100
AcDbLine
 10
576.749997
 20
164.99999
 30
0.0
 11
576.749997
 21
174.999998
 31
0.0
  0
LINE
  5
1BA
330
1F
100
AcDbEntity
  8
LAYER_1
 62
     7
100
AcDbLine
 10
576.749997
 20
164.99999
 30
0.0
 11
571.749995
 21
160.0
 31
0.0
  0
LINE
  5
1BB
330
1F
100
AcDbEntity
  8
LAYER_1
 62
     7
100
AcDbLine
 10
511.7499969999999
 20
160.0
 30
0.0
 11
571.749995
 21
160.0
 31
0.0
  0
LINE
  5
1BC
330
1F
100
AcDbEntity
  8
LAYER_1
 62
     7
100
AcDbLine
 10
511.7499969999999
 20
160.0
 30
0.0
 11
506.749995
 21
164.99999
 31
0.0
  0
LINE
  5
1BD
330
1F
100
AcDbEntity
  8
LAYER_1
 62
     7
100
AcDbLine
 10
506.749995
 20
174.999998
 30
0.0
 11
506.749995
 21
164.99999
 31
0.0
  0
LINE
  5
1BE
330
1F
100
AcDbEntity
  8
LAYER_1
 62
     7
100
AcDbLine
 10
506.749995
 20
174.999998
 30
0.0
 11
511.7499969999999
 21
179.999988
 31
0.0
  0
SPLINE
  5
1BF
330
1F
100
AcDbEntity
  8
LAYER_1
 62
     7
100
AcDbSpline
210
0.0
220
0.0
230
1.0
 70
  1064
 71
     3
 72
    13
 73
     9
 74
     7
 42
0.000000001
 43
0.0000000001
 44
0.0000000001
 40
0.0
 40
0.0
 40
0.0
 40
0.0
 40
1.308875317399642
 40
2.606918156763951
 40
3.915792893990164
 40
5.224667022735966
 40
6.522709479416757
 40
7.831584665938771
 40
7.831584665938771
 40
7.831584665938771
 40
7.831584665938771
 10
497.4999959999999
 20
294.999993
 30
0.0
 10
497.0624295045896
 20
294.9666616897006
 30
0.0
 10
496.1909178896079
 20
294.9002749247786
 30
0.0
 10
494.9717117840215
 20
294.3756484591783
 30
0.0
 10
493.9225068223166
 20
293.5774804432691
 30
0.0
 10
493.1243394631831
 20
292.5282751338544
 30
0.0
 10
492.5997140558498
 20
291.3090689702183
 30
0.0
 10
492.5333279717214
 20
290.4375574768153
 30
0.0
 10
492.499997
 20
289.999991
 30
0.0
 11
497.4999959999999
 21
294.999993
 31
0.0
 11
496.2023789999999
 21
294.82869
 31
0.0
 11
495.003144
 21
294.33195
 31
0.0
 11
493.964462
 21
293.535525
 31
0.0
 11
493.1680379999999
 21
292.496843
 31
0.0
 11
492.671299
 21
291.297608
 31
0.0
 11
492.499997
 21
289.999991
 31
0.0
  0
LINE
  5
1C0
330
1F
100
AcDbEntity
  8
LAYER_1
 62
     7
100
AcDbLine
 10
98.499998
 20
299.999994
 30
0.0
 11
98.499998
 21
439.9999929999999
 31
0.0
  0
SPLINE
  5
1C1
330
1F
100
AcDbEntity
  8
LAYER_1
 62
     7
100
AcDbSpline
210
0.0
220
0.0
230
1.0
 70
  1064
 71
     3
 72
    13
 73
     9
 74
     7
 42
0.000000001
 43
0.0000000001
 44
0.0000000001
 40
0.0
 40
0.0
 40
0.0
 40
0.0
 40
1.308875186522003
 40
2.606917643202875
 40
3.915791771948588
 40
5.224666509174801
 40
6.522709348539144
 40
7.831584665938787
 40
7.831584665938787
 40
7.831584665938787
 40
7.831584665938787
 10
98.499998
 20
439.9999929999999
 30
0.0
 10
98.4666670282785
 20
440.4375594768152
 30
0.0
 10
98.40028094415016
 20
441.3090709702182
 30
0.0
 10
97.8756555368168
 20
442.5282771338543
 30
0.0
 10
97.0774881776834
 20
443.577482443269
 30
0.0
 10
96.02828321597852
 20
444.3756504591782
 30
0.0
 10
94.80907711039215
 20
444.9002769247786
 30
0.0
 10
93.93756549541034
 20
444.9666636897005
 30
0.0
 10
93.499999
 20
444.999995
 30
0.0
 11
98.499998
 21
439.9999929999999
 31
0.0
 11
98.328696
 21
441.2976099999999
 31
0.0
 11
97.831957
 21
442.496845
 31
0.0
 11
97.03553300000001
 21
443.5355269999999
 31
0.0
 11
95.996851
 21
444.3319519999999
 31
0.0
 11
94.79761600000001
 21
444.828692
 31
0.0
 11
93.499999
 21
444.999995
 31
0.0
  0
LINE
  5
1C2
330
1F
100
AcDbEntity
  8
LAYER_1
 62
     7
100
AcDbLine
 10
93.499999
 20
444.999995
 30
0.0
 11
4.999998
 21
444.999995
 31
0.0
  0
LINE
  5
1C3
330
1F
100
AcDbEntity
  8
LAYER_1
 62
     7
100
AcDbLine
 10
0.0
 20
439.9999929999999
 30
0.0
 11
0.0
 21
299.999994
 31
0.0
  0
LINE
  5
1C4
330
1F
100
AcDbEntity
  8
LAYER_1
 62
     7
100
AcDbLine
 10
0.0
 20
299.999994
 30
0.0
 11
4.999998
 21
295.000004
 31
0.0
  0
LINE
  5
1C5
330
1F
100
AcDbEntity
  8
LAYER_1
 62
     7
100
AcDbLine
 10
4.999998
 20
295.000004
 30
0.0
 11
93.499999
 21
295.000004
 31
0.0
  0
LINE
  5
1C6
330
1F
100
AcDbEntity
  8
LAYER_1
 62
     7
100
AcDbLine
 10
93.499999
 20
295.000004
 30
0.0
 11
98.499998
 21
299.999994
 31
0.0
  0
LINE
  5
1C7
330
1F
100
AcDbEntity
  8
LAYER_1
 62
     7
100
AcDbLine
 10
79.24999800000001
 20
329.9999899999999
 30
0.0
 11
19.25
 21
329.9999899999999
 31
0.0
  0
LINE
  5
1C8
330
1F
100
AcDbEntity
  8
LAYER_1
 62
     7
100
AcDbLine
 10
79.24999800000001
 20
329.9999899999999
 30
0.0
 11
84.24999900000001
 21
325.0
 31
0.0
  0
LINE
  5
1C9
330
1F
100
AcDbEntity
  8
LAYER_1
 62
     7
100
AcDbLine
 10
84.24999900000001
 20
314.999992
 30
0.0
 11
84.24999900000001
 21
325.0
 31
0.0
  0
LINE
  5
1CA
330
1F
100
AcDbEntity
  8
LAYER_1
 62
     7
100
AcDbLine
 10
84.24999900000001
 20
314.999992
 30
0.0
 11
79.24999800000001
 21
310.000002
 31
0.0
  0
LINE
  5
1CB
330
1F
100
AcDbEntity
  8
LAYER_1
 62
     7
100
AcDbLine
 10
19.25
 20
310.000002
 30
0.0
 11
79.24999800000001
 21
310.000002
 31
0.0
  0
LINE
  5
1CC
330
1F
100
AcDbEntity
  8
LAYER_1
 62
     7
100
AcDbLine
 10
19.25
 20
310.000002
 30
0.0
 11
14.249998
 21
314.999992
 31
0.0
  0
LINE
  5
1CD
330
1F
100
AcDbEntity
  8
LAYER_1
 62
     7
100
AcDbLine
 10
14.249998
 20
325.0
 30
0.0
 11
14.249998
 21
314.999992
 31
0.0
  0
LINE
  5
1CE
330
1F
100
AcDbEntity
  8
LAYER_1
 62
     7
100
AcDbLine
 10
14.249998
 20
325.0
 30
0.0
 11
19.25
 21
329.9999899999999
 31
0.0
  0
SPLINE
  5
1CF
330
1F
100
AcDbEntity
  8
LAYER_1
 62
     7
100
AcDbSpline
210
0.0
220
0.0
230
1.0
 70
  1064
 71
     3
 72
    13
 73
     9
 74
     7
 42
0.000000001
 43
0.0000000001
 44
0.0000000001
 40
0.0
 40
0.0
 40
0.0
 40
0.0
 40
1.308874326001167
 40
2.606917165365509
 40
3.915791902591727
 40
5.224666031337448
 40
6.522708488018317
 40
7.831583674540318
 40
7.831583674540318
 40
7.831583674540318
 40
7.831583674540318
 10
4.999998
 20
444.999995
 30
0.0
 10
4.562431845026432
 20
444.9666636517447
 30
0.0
 10
3.690920579411951
 20
444.9002767861873
 30
0.0
 10
2.471714784430538
 20
444.3756504607322
 30
0.0
 10
1.422509822206637
 20
443.5774824428513
 30
0.0
 10
0.6243424632122371
 20
442.5282771339645
 30
0.0
 10
0.0997170558425367
 20
441.3090709701905
 30
0.0
 10
0.0333309717190772
 20
440.437559476806
 30
0.0
 10
0.0
 20
439.9999929999999
 30
0.0
 11
4.999998
 21
444.999995
 31
0.0
 11
3.702382
 21
444.828692
 31
0.0
 11
2.503147
 21
444.3319519999999
 31
0.0
 11
1.464464999999999
 21
443.5355269999999
 31
0.0
 11
0.6680410000000001
 21
442.496845
 31
0.0
 11
0.171302
 21
441.2976099999999
 31
0.0
 11
0.0
 21
439.9999929999999
 31
0.0
  0
LINE
  5
1D0
330
1F
100
AcDbEntity
  8
LAYER_1
 62
     7
100
AcDbLine
 10
196.999998
 20
299.999994
 30
0.0
 11
196.999998
 21
439.9999929999999
 31
0.0
  0
SPLINE
  5
1D1
330
1F
100
AcDbEntity
  8
LAYER_1
 62
     7
100
AcDbSpline
210
0.0
220
0.0
230
1.0
 70
  1064
 71
     3
 72
    13
 73
     9
 74
     7
 42
0.000000001
 43
0.0000000001
 44
0.0000000001
 40
0.0
 40
0.0
 40
0.0
 40
0.0
 40
1.308875186522001
 40
2.606917643202867
 40
3.915791771948589
 40
5.224665715606286
 40
6.522709478850041
 40
7.831583804851212
 40
7.831583804851212
 40
7.831583804851212
 40
7.831583804851212
 10
196.999998
 20
439.9999929999999
 30
0.0
 10
196.9666670253596
 20
440.4375594726245
 30
0.0
 10
196.9002809354178
 20
441.3090709576807
 30
0.0
 10
196.3756555715291
 20
442.5282771836928
 30
0.0
 10
195.5774882080175
 20
443.5774820419495
 30
0.0
 10
194.5282839077179
 20
444.3756510510069
 30
0.0
 10
193.3090776352214
 20
444.9002765659781
 30
0.0
 10
192.4375661234779
 20
444.9666635860026
 30
0.0
 10
192.0
 20
444.999995
 30
0.0
 11
196.999998
 21
439.9999929999999
 31
0.0
 11
196.828696
 21
441.2976099999999
 31
0.0
 11
196.331957
 21
442.496845
 31
0.0
 11
195.535533
 21
443.5355269999999
 31
0.0
 11
194.496852
 21
444.3319519999999
 31
0.0
 11
193.297616
 21
444.828692
 31
0.0
 11
192.0
 21
444.999995
 31
0.0
  0
LINE
  5
1D2
330
1F
100
AcDbEntity
  8
LAYER_1
 62
     7
100
AcDbLine
 10
192.0
 20
444.999995
 30
0.0
 11
103.499999
 21
444.999995
 31
0.0
  0
LINE
  5
1D3
330
1F
100
AcDbEntity
  8
LAYER_1
 62
     7
100
AcDbLine
 10
98.500001
 20
439.9999929999999
 30
0.0
 11
98.500001
 21
299.999994
 31
0.0
  0
LINE
  5
1D4
330
1F
100
AcDbEntity
  8
LAYER_1
 62
     7
100
AcDbLine
 10
98.500001
 20
299.999994
 30
0.0
 11
103.499999
 21
295.000004
 31
0.0
  0
LINE
  5
1D5
330
1F
100
AcDbEntity
  8
LAYER_1
 62
     7
100
AcDbLine
 10
103.499999
 20
295.000004
 30
0.0
 11
192.0
 21
295.000004
 31
0.0
  0
LINE
  5
1D6
330
1F
100
AcDbEntity
  8
LAYER_1
 62
     7
100
AcDbLine
 10
192.0
 20
295.000004
 30
0.0
 11
196.999998
 21
299.999994
 31
0.0
  0
LINE
  5
1D7
330
1F
100
AcDbEntity
  8
LAYER_1
 62
     7
100
AcDbLine
 10
177.749999
 20
329.9999899999999
 30
0.0
 11
117.75
 21
329.9999899999999
 31
0.0
  0
LINE
  5
1D8
330
1F
100
AcDbEntity
  8
LAYER_1
 62
     7
100
AcDbLine
 10
177.749999
 20
329.9999899999999
 30
0.0
 11
182.75
 21
325.0
 31
0.0
  0
LINE
  5
1D9
330
1F
100
AcDbEntity
  8
LAYER_1
 62
     7
100
AcDbLine
 10
182.75
 20
314.999992
 30
0.0
 11
182.75
 21
325.0
 31
0.0
  0
LINE
  5
1DA
330
1F
100
AcDbEntity
  8
LAYER_1
 62
     7
100
AcDbLine
 10
182.75
 20
314.999992
 30
0.0
 11
177.749999
 21
310.000002
 31
0.0
  0
LINE
  5
1DB
330
1F
100
AcDbEntity
  8
LAYER_1
 62
     7
100
AcDbLine
 10
117.75
 20
310.000002
 30
0.0
 11
177.749999
 21
310.000002
 31
0.0
  0
LINE
  5
1DC
330
1F
100
AcDbEntity
  8
LAYER_1
 62
     7
100
AcDbLine
 10
117.75
 20
310.000002
 30
0.0
 11
112.749999
 21
314.999992
 31
0.0
  0
LINE
  5
1DD
330
1F
100
AcDbEntity
  8
LAYER_1
 62
     7
100
AcDbLine
 10
112.749999
 20
325.0
 30
0.0
 11
112.749999
 21
314.999992
 31
0.0
  0
LINE
  5
1DE
330
1F
100
AcDbEntity
  8
LAYER_1
 62
     7
100
AcDbLine
 10
112.749999
 20
325.0
 30
0.0
 11
117.75
 21
329.9999899999999
 31
0.0
  0
SPLINE
  5
1DF
330
1F
100
AcDbEntity
  8
LAYER_1
 62
     7
100
AcDbSpline
210
0.0
220
0.0
230
1.0
 70
  1064
 71
     3
 72
    13
 73
     9
 74
     7
 42
0.000000001
 43
0.0000000001
 44
0.0000000001
 40
0.0
 40
0.0
 40
0.0
 40
0.0
 40
1.308875317399642
 40
2.606918156763986
 40
3.91579210042166
 40
5.224666837647827
 40
6.522708911645854
 40
7.831584098167858
 40
7.831584098167858
 40
7.831584098167858
 40
7.831584098167858
 10
103.499999
 20
444.999995
 30
0.0
 10
103.0624325241203
 20
444.9666636686441
 30
0.0
 10
102.190920948038
 20
444.9002768617837
 30
0.0
 10
100.9717147988338
 20
444.3756508159135
 30
0.0
 10
99.92251094662025
 20
443.5774817225082
 30
0.0
 10
99.12434205821989
 20
442.5282777660043
 30
0.0
 10
98.59971838900714
 20
441.3090706720811
 30
0.0
 10
98.53333208633856
 20
440.4375594199238
 30
0.0
 10
98.500001
 20
439.9999929999999
 30
0.0
 11
103.499999
 21
444.999995
 31
0.0
 11
102.202382
 21
444.828692
 31
0.0
 11
101.003147
 21
444.3319519999999
 31
0.0
 11
99.964466
 21
443.5355269999999
 31
0.0
 11
99.168041
 21
442.496845
 31
0.0
 11
98.67130300000001
 21
441.2976099999999
 31
0.0
 11
98.500001
 21
439.9999929999999
 31
0.0
  0
LINE
  5
1E0
330
1F
100
AcDbEntity
  8
LAYER_1
 62
     7
100
AcDbLine
 10
295.499985
 20
299.999994
 30
0.0
 11
295.499985
 21
439.9999929999999
 31
0.0
  0
SPLINE
  5
1E1
330
1F
100
AcDbEntity
  8
LAYER_1
 62
     7
100
AcDbSpline
210
0.0
220
0.0
230
1.0
 70
  1064
 71
     3
 72
    13
 73
     9
 74
     7
 42
0.000000001
 43
0.0000000001
 44
0.0000000001
 40
0.0
 40
0.0
 40
0.0
 40
0.0
 40
1.308875186521998
 40
2.606917643202864
 40
3.915791771948585
 40
5.224666509174843
 40
6.522709348539175
 40
7.831584665938817
 40
7.831584665938817
 40
7.831584665938817
 40
7.831584665938817
 10
295.499985
 20
439.9999929999999
 30
0.0
 10
295.4666540282785
 20
440.4375594768151
 30
0.0
 10
295.4002679441502
 20
441.3090709702182
 30
0.0
 10
294.8756425368169
 20
442.5282771338543
 30
0.0
 10
294.0774751776834
 20
443.5774824432691
 30
0.0
 10
293.0282702159786
 20
444.3756504591781
 30
0.0
 10
291.8090641103921
 20
444.9002769247786
 30
0.0
 10
290.9375524954103
 20
444.9666636897005
 30
0.0
 10
290.499986
 20
444.999995
 30
0.0
 11
295.499985
 21
439.9999929999999
 31
0.0
 11
295.328683
 21
441.2976099999999
 31
0.0
 11
294.831944
 21
442.496845
 31
0.0
 11
294.03552
 21
443.5355269999999
 31
0.0
 11
292.996838
 21
444.3319519999999
 31
0.0
 11
291.797603
 21
444.828692
 31
0.0
 11
290.499986
 21
444.999995
 31
0.0
  0
LINE
  5
1E2
330
1F
100
AcDbEntity
  8
LAYER_1
 62
     7
100
AcDbLine
 10
290.499986
 20
444.999995
 30
0.0
 11
201.999985
 21
444.999995
 31
0.0
  0
LINE
  5
1E4
330
1F
100
AcDbEntity
  8
LAYER_1
 62
     7
100
AcDbLine
 10
196.999987
 20
299.999994
 30
0.0
 11
201.999985
 21
295.000004
 31
0.0
  0
LINE
  5
1E6
330
1F
100
AcDbEntity
  8
LAYER_1
 62
     7
100
AcDbLine
 10
290.499986
 20
295.000004
 30
0.0
 11
295.499985
 21
299.999994
 31
0.0
  0
LINE
  5
1E7
330
1F
100
AcDbEntity
  8
LAYER_1
 62
     7
100
AcDbLine
 10
276.249985
 20
329.9999899999999
 30
0.0
 11
216.249987
 21
329.9999899999999
 31
0.0
  0
LINE
  5
1E8
330
1F
100
AcDbEntity
  8
LAYER_1
 62
     7
100
AcDbLine
 10
276.249985
 20
329.9999899999999
 30
0.0
 11
281.249986
 21
325.0
 31
0.0
  0
LINE
  5
1E9
330
1F
100
AcDbEntity
  8
LAYER_1
 62
     7
100
AcDbLine
 10
281.249986
 20
314.999992
 30
0.0
 11
281.249986
 21
325.0
 31
0.0
  0
LINE
  5
1EA
330
1F
100
AcDbEntity
  8
LAYER_1
 62
     7
100
AcDbLine
 10
281.249986
 20
314.999992
 30
0.0
 11
276.249985
 21
310.000002
 31
0.0
  0
LINE
  5
1EB
330
1F
100
AcDbEntity
  8
LAYER_1
 62
     7
100
AcDbLine
 10
216.249987
 20
310.000002
 30
0.0
 11
276.249985
 21
310.000002
 31
0.0
  0
LINE
  5
1EC
330
1F
100
AcDbEntity
  8
LAYER_1
 62
     7
100
AcDbLine
 10
216.249987
 20
310.000002
 30
0.0
 11
211.249985
 21
314.999992
 31
0.0
  0
LINE
  5
1ED
330
1F
100
AcDbEntity
  8
LAYER_1
 62
     7
100
AcDbLine
 10
211.249985
 20
325.0
 30
0.0
 11
211.249985
 21
314.999992
 31
0.0
  0
LINE
  5
1EE
330
1F
100
AcDbEntity
  8
LAYER_1
 62
     7
100
AcDbLine
 10
211.249985
 20
325.0
 30
0.0
 11
216.249987
 21
329.9999899999999
 31
0.0
  0
SPLINE
  5
1EF
330
1F
100
AcDbEntity
  8
LAYER_1
 62
     7
100
AcDbSpline
210
0.0
220
0.0
230
1.0
 70
  1064
 71
     3
 72
    13
 73
     9
 74
     7
 42
0.000000001
 43
0.0000000001
 44
0.0000000001
 40
0.0
 40
0.0
 40
0.0
 40
0.0
 40
1.308874326001171
 40
2.606917165365502
 40
3.915791902591737
 40
5.224666031337459
 40
6.522708488018325
 40
7.831583674540327
 40
7.831583674540327
 40
7.831583674540327
 40
7.831583674540327
 10
201.999985
 20
444.999995
 30
0.0
 10
201.5624188450265
 20
444.9666636517447
 30
0.0
 10
200.6909075794119
 20
444.9002767861873
 30
0.0
 10
199.4717017844305
 20
444.3756504607321
 30
0.0
 10
198.4224968222066
 20
443.5774824428514
 30
0.0
 10
197.6243294632121
 20
442.5282771339645
 30
0.0
 10
197.0997040558425
 20
441.3090709701904
 30
0.0
 10
197.033317971719
 20
440.4375594768059
 30
0.0
 10
196.999987
 20
439.9999929999999
 30
0.0
 11
201.999985
 21
444.999995
 31
0.0
 11
200.702369
 21
444.828692
 31
0.0
 11
199.503134
 21
444.3319519999999
 31
0.0
 11
198.464452
 21
443.5355269999999
 31
0.0
 11
197.668028
 21
442.496845
 31
0.0
 11
197.171289
 21
441.2976099999999
 31
0.0
 11
196.999987
 21
439.9999929999999
 31
0.0
  0
LINE
  5
1F0
330
1F
100
AcDbEntity
  8
LAYER_1
 62
     7
100
AcDbLine
 10
393.999994
 20
299.999994
 30
0.0
 11
393.999994
 21
439.9999929999999
 31
0.0
  0
SPLINE
  5
1F1
330
1F
100
AcDbEntity
  8
LAYER_1
 62
     7
100
AcDbSpline
210
0.0
220
0.0
230
1.0
 70
  1064
 71
     3
 72
    13
 73
     9
 74
     7
 42
0.000000001
 43
0.0000000001
 44
0.0000000001
 40
0.0
 40
0.0
 40
0.0
 40
0.0
 40
1.308875186522005
 40
2.606917643202871
 40
3.915791771948593
 40
5.224666509174806
 40
6.522709348539137
 40
7.831584665938779
 40
7.831584665938779
 40
7.831584665938779
 40
7.831584665938779
 10
393.999994
 20
439.9999929999999
 30
0.0
 10
393.9666630282785
 20
440.4375594768152
 30
0.0
 10
393.9002769441501
 20
441.3090709702183
 30
0.0
 10
393.3756515368168
 20
442.5282771338542
 30
0.0
 10
392.5774841776834
 20
443.5774824432691
 30
0.0
 10
391.5282792159786
 20
444.3756504591783
 30
0.0
 10
390.3090731103922
 20
444.9002769247786
 30
0.0
 10
389.4375614954103
 20
444.9666636897005
 30
0.0
 10
388.999995
 20
444.999995
 30
0.0
 11
393.999994
 21
439.9999929999999
 31
0.0
 11
393.828692
 21
441.2976099999999
 31
0.0
 11
393.331953
 21
442.496845
 31
0.0
 11
392.535529
 21
443.5355269999999
 31
0.0
 11
391.496847
 21
444.3319519999999
 31
0.0
 11
390.297612
 21
444.828692
 31
0.0
 11
388.999995
 21
444.999995
 31
0.0
  0
LINE
  5
1F2
330
1F
100
AcDbEntity
  8
LAYER_1
 62
     7
100
AcDbLine
 10
388.999995
 20
444.999995
 30
0.0
 11
300.499994
 21
444.999995
 31
0.0
  0
LINE
  5
1F4
330
1F
100
AcDbEntity
  8
LAYER_1
 62
     7
100
AcDbLine
 10
295.499996
 20
299.999994
 30
0.0
 11
300.499994
 21
295.000004
 31
0.0
  0
LINE
  5
1F5
330
1F
100
AcDbEntity
  8
LAYER_1
 62
     7
100
AcDbLine
 10
300.499994
 20
295.000004
 30
0.0
 11
388.999995
 21
295.000004
 31
0.0
  0
LINE
  5
1F6
330
1F
100
AcDbEntity
  8
LAYER_1
 62
     7
100
AcDbLine
 10
388.999995
 20
295.000004
 30
0.0
 11
393.999994
 21
299.999994
 31
0.0
  0
LINE
  5
1F7
330
1F
100
AcDbEntity
  8
LAYER_1
 62
     7
100
AcDbLine
 10
374.749994
 20
329.9999899999999
 30
0.0
 11
314.749996
 21
329.9999899999999
 31
0.0
  0
LINE
  5
1F8
330
1F
100
AcDbEntity
  8
LAYER_1
 62
     7
100
AcDbLine
 10
374.749994
 20
329.9999899999999
 30
0.0
 11
379.749995
 21
325.0
 31
0.0
  0
LINE
  5
1F9
330
1F
100
AcDbEntity
  8
LAYER_1
 62
     7
100
AcDbLine
 10
379.749995
 20
314.999992
 30
0.0
 11
379.749995
 21
325.0
 31
0.0
  0
LINE
  5
1FA
330
1F
100
AcDbEntity
  8
LAYER_1
 62
     7
100
AcDbLine
 10
379.749995
 20
314.999992
 30
0.0
 11
374.749994
 21
310.000002
 31
0.0
  0
LINE
  5
1FB
330
1F
100
AcDbEntity
  8
LAYER_1
 62
     7
100
AcDbLine
 10
314.749996
 20
310.000002
 30
0.0
 11
374.749994
 21
310.000002
 31
0.0
  0
LINE
  5
1FC
330
1F
100
AcDbEntity
  8
LAYER_1
 62
     7
100
AcDbLine
 10
314.749996
 20
310.000002
 30
0.0
 11
309.749994
 21
314.999992
 31
0.0
  0
LINE
  5
1FD
330
1F
100
AcDbEntity
  8
LAYER_1
 62
     7
100
AcDbLine
 10
309.749994
 20
325.0
 30
0.0
 11
309.749994
 21
314.999992
 31
0.0
  0
LINE
  5
1FE
330
1F
100
AcDbEntity
  8
LAYER_1
 62
     7
100
AcDbLine
 10
309.749994
 20
325.0
 30
0.0
 11
314.749996
 21
329.9999899999999
 31
0.0
  0
SPLINE
  5
1FF
330
1F
100
AcDbEntity
  8
LAYER_1
 62
     7
100
AcDbSpline
210
0.0
220
0.0
230
1.0
 70
  1064
 71
     3
 72
    13
 73
     9
 74
     7
 42
0.000000001
 43
0.0000000001
 44
0.0000000001
 40
0.0
 40
0.0
 40
0.0
 40
0.0
 40
1.308874326001227
 40
2.606917165365506
 40
3.915791902591763
 40
5.224666031337451
 40
6.522708488018339
 40
7.831583674540337
 40
7.831583674540337
 40
7.831583674540337
 40
7.831583674540337
 10
300.499994
 20
444.999995
 30
0.0
 10
300.0624278450264
 20
444.9666636517447
 30
0.0
 10
299.1909165794119
 20
444.9002767861872
 30
0.0
 10
297.9717107844305
 20
444.3756504607322
 30
0.0
 10
296.9225058222066
 20
443.5774824428513
 30
0.0
 10
296.1243384632123
 20
442.5282771339645
 30
0.0
 10
295.5997130558425
 20
441.3090709701904
 30
0.0
 10
295.5333269717191
 20
440.4375594768059
 30
0.0
 10
295.499996
 20
439.9999929999999
 30
0.0
 11
300.499994
 21
444.999995
 31
0.0
 11
299.202378
 21
444.828692
 31
0.0
 11
298.003143
 21
444.3319519999999
 31
0.0
 11
296.9644609999999
 21
443.5355269999999
 31
0.0
 11
296.168037
 21
442.496845
 31
0.0
 11
295.671298
 21
441.2976099999999
 31
0.0
 11
295.499996
 21
439.9999929999999
 31
0.0
  0
LINE
  5
200
330
1F
100
AcDbEntity
  8
LAYER_1
 62
     7
100
AcDbLine
 10
492.49998
 20
299.999994
 30
0.0
 11
492.49998
 21
439.9999929999999
 31
0.0
  0
SPLINE
  5
201
330
1F
100
AcDbEntity
  8
LAYER_1
 62
     7
100
AcDbSpline
210
0.0
220
0.0
230
1.0
 70
  1064
 71
     3
 72
    13
 73
     9
 74
     7
 42
0.000000001
 43
0.0000000001
 44
0.0000000001
 40
0.0
 40
0.0
 40
0.0
 40
0.0
 40
1.308875186521998
 40
2.606917643202885
 40
3.915791771948573
 40
5.224665715606292
 40
6.522709478849994
 40
7.831583804851165
 40
7.831583804851165
 40
7.831583804851165
 40
7.831583804851165
 10
492.49998
 20
439.9999929999999
 30
0.0
 10
492.4666490253596
 20
440.4375594726245
 30
0.0
 10
492.4002629354178
 20
441.3090709576808
 30
0.0
 10
491.8756375715291
 20
442.5282771836928
 30
0.0
 10
491.0774702080175
 20
443.5774820419494
 30
0.0
 10
490.028265907718
 20
444.3756510510071
 30
0.0
 10
488.8090596352212
 20
444.9002765659779
 30
0.0
 10
487.9375481234779
 20
444.9666635860026
 30
0.0
 10
487.499982
 20
444.999995
 30
0.0
 11
492.49998
 21
439.9999929999999
 31
0.0
 11
492.328678
 21
441.2976099999999
 31
0.0
 11
491.8319389999999
 21
442.496845
 31
0.0
 11
491.035515
 21
443.5355269999999
 31
0.0
 11
489.996834
 21
444.3319519999999
 31
0.0
 11
488.797598
 21
444.828692
 31
0.0
 11
487.499982
 21
444.999995
 31
0.0
  0
LINE
  5
202
330
1F
100
AcDbEntity
  8
LAYER_1
 62
     7
100
AcDbLine
 10
487.499982
 20
444.999995
 30
0.0
 11
398.999981
 21
444.999995
 31
0.0
  0
LINE
  5
204
330
1F
100
AcDbEntity
  8
LAYER_1
 62
     7
100
AcDbLine
 10
393.999982
 20
299.999994
 30
0.0
 11
398.999981
 21
295.000004
 31
0.0
  0
LINE
  5
206
330
1F
100
AcDbEntity
  8
LAYER_1
 62
     7
100
AcDbLine
 10
487.499982
 20
295.000004
 30
0.0
 11
492.49998
 21
299.999994
 31
0.0
  0
LINE
  5
207
330
1F
100
AcDbEntity
  8
LAYER_1
 62
     7
100
AcDbLine
 10
473.2499809999999
 20
329.9999899999999
 30
0.0
 11
413.2499819999999
 21
329.9999899999999
 31
0.0
  0
LINE
  5
208
330
1F
100
AcDbEntity
  8
LAYER_1
 62
     7
100
AcDbLine
 10
473.2499809999999
 20
329.9999899999999
 30
0.0
 11
478.249982
 21
325.0
 31
0.0
  0
LINE
  5
209
330
1F
100
AcDbEntity
  8
LAYER_1
 62
     7
100
AcDbLine
 10
478.249982
 20
314.999992
 30
0.0
 11
478.249982
 21
325.0
 31
0.0
  0
LINE
  5
20A
330
1F
100
AcDbEntity
  8
LAYER_1
 62
     7
100
AcDbLine
 10
478.249982
 20
314.999992
 30
0.0
 11
473.2499809999999
 21
310.000002
 31
0.0
  0
LINE
  5
20B
330
1F
100
AcDbEntity
  8
LAYER_1
 62
     7
100
AcDbLine
 10
413.2499819999999
 20
310.000002
 30
0.0
 11
473.2499809999999
 21
310.000002
 31
0.0
  0
LINE
  5
20C
330
1F
100
AcDbEntity
  8
LAYER_1
 62
     7
100
AcDbLine
 10
413.2499819999999
 20
310.000002
 30
0.0
 11
408.2499809999999
 21
314.999992
 31
0.0
  0
LINE
  5
20D
330
1F
100
AcDbEntity
  8
LAYER_1
 62
     7
100
AcDbLine
 10
408.2499809999999
 20
325.0
 30
0.0
 11
408.2499809999999
 21
314.999992
 31
0.0
  0
LINE
  5
20E
330
1F
100
AcDbEntity
  8
LAYER_1
 62
     7
100
AcDbLine
 10
408.2499809999999
 20
325.0
 30
0.0
 11
413.2499819999999
 21
329.9999899999999
 31
0.0
  0
SPLINE
  5
20F
330
1F
100
AcDbEntity
  8
LAYER_1
 62
     7
100
AcDbSpline
210
0.0
220
0.0
230
1.0
 70
  1064
 71
     3
 72
    13
 73
     9
 74
     7
 42
0.000000001
 43
0.0000000001
 44
0.0000000001
 40
0.0
 40
0.0
 40
0.0
 40
0.0
 40
1.308875317399642
 40
2.606918156763973
 40
3.915792100421647
 40
5.224666837647815
 40
6.522708911645842
 40
7.831584229045484
 40
7.831584229045484
 40
7.831584229045484
 40
7.831584229045484
 10
398.999981
 20
444.999995
 30
0.0
 10
398.5624145245462
 20
444.9666636685874
 30
0.0
 10
397.6909029493122
 20
444.9002768616139
 30
0.0
 10
396.471696793769
 20
444.375650816588
 30
0.0
 10
395.4224929657955
 20
443.577481719955
 30
0.0
 10
394.624323986901
 20
442.5282777755004
 30
0.0
 10
394.0997006361186
 20
441.3090705960938
 30
0.0
 10
394.0333135042973
 20
440.4375594090284
 30
0.0
 10
393.999982
 20
439.9999929999999
 30
0.0
 11
398.999981
 21
444.999995
 31
0.0
 11
397.702364
 21
444.828692
 31
0.0
 11
396.503129
 21
444.3319519999999
 31
0.0
 11
395.464448
 21
443.5355269999999
 31
0.0
 11
394.668023
 21
442.496845
 31
0.0
 11
394.171285
 21
441.2976099999999
 31
0.0
 11
393.999982
 21
439.9999929999999
 31
0.0
  0
LINE
  5
210
330
1F
100
AcDbEntity
  8
LAYER_1
 62
     7
100
AcDbLine
 10
590.999995
 20
299.999994
 30
0.0
 11
590.999995
 21
439.9999929999999
 31
0.0
  0
SPLINE
  5
211
330
1F
100
AcDbEntity
  8
LAYER_1
 62
     7
100
AcDbSpline
210
0.0
220
0.0
230
1.0
 70
  1064
 71
     3
 72
    13
 73
     9
 74
     7
 42
0.000000001
 43
0.0000000001
 44
0.0000000001
 40
0.0
 40
0.0
 40
0.0
 40
0.0
 40
1.308875186522013
 40
2.606917643202857
 40
3.915791771948579
 40
5.224666509174792
 40
6.522709348539176
 40
7.831584665938762
 40
7.831584665938762
 40
7.831584665938762
 40
7.831584665938762
 10
590.999995
 20
439.9999929999999
 30
0.0
 10
590.9666640282785
 20
440.4375594768152
 30
0.0
 10
590.90027794415
 20
441.3090709702183
 30
0.0
 10
590.3756525368167
 20
442.528277133854
 30
0.0
 10
589.5774851776836
 20
443.5774824432692
 30
0.0
 10
588.5282802159784
 20
444.3756504591782
 30
0.0
 10
587.3090741103921
 20
444.9002769247786
 30
0.0
 10
586.4375624954103
 20
444.9666636897005
 30
0.0
 10
585.999996
 20
444.999995
 30
0.0
 11
590.999995
 21
439.9999929999999
 31
0.0
 11
590.8286929999999
 21
441.2976099999999
 31
0.0
 11
590.331954
 21
442.496845
 31
0.0
 11
589.53553
 21
443.5355269999999
 31
0.0
 11
588.496848
 21
444.3319519999999
 31
0.0
 11
587.2976129999999
 21
444.828692
 31
0.0
 11
585.999996
 21
444.999995
 31
0.0
  0
LINE
  5
212
330
1F
100
AcDbEntity
  8
LAYER_1
 62
     7
100
AcDbLine
 10
585.999996
 20
444.999995
 30
0.0
 11
497.4999959999999
 21
444.999995
 31
0.0
  0
LINE
  5
214
330
1F
100
AcDbEntity
  8
LAYER_1
 62
     7
100
AcDbLine
 10
492.499997
 20
299.999994
 30
0.0
 11
497.4999959999999
 21
295.000004
 31
0.0
  0
LINE
  5
215
330
1F
100
AcDbEntity
  8
LAYER_1
 62
     7
100
AcDbLine
 10
497.4999959999999
 20
295.000004
 30
0.0
 11
585.999996
 21
295.000004
 31
0.0
  0
LINE
  5
216
330
1F
100
AcDbEntity
  8
LAYER_1
 62
     7
100
AcDbLine
 10
585.999996
 20
295.000004
 30
0.0
 11
590.999995
 21
299.999994
 31
0.0
  0
LINE
  5
217
330
1F
100
AcDbEntity
  8
LAYER_1
 62
     7
100
AcDbLine
 10
571.749995
 20
329.9999899999999
 30
0.0
 11
511.7499969999999
 21
329.9999899999999
 31
0.0
  0
LINE
  5
218
330
1F
100
AcDbEntity
  8
LAYER_1
 62
     7
100
AcDbLine
 10
571.749995
 20
329.9999899999999
 30
0.0
 11
576.749997
 21
325.0
 31
0.0
  0
LINE
  5
219
330
1F
100
AcDbEntity
  8
LAYER_1
 62
     7
100
AcDbLine
 10
576.749997
 20
314.999992
 30
0.0
 11
576.749997
 21
325.0
 31
0.0
  0
LINE
  5
21A
330
1F
100
AcDbEntity
  8
LAYER_1
 62
     7
100
AcDbLine
 10
576.749997
 20
314.999992
 30
0.0
 11
571.749995
 21
310.000002
 31
0.0
  0
LINE
  5
21B
330
1F
100
AcDbEntity
  8
LAYER_1
 62
     7
100
AcDbLine
 10
511.7499969999999
 20
310.000002
 30
0.0
 11
571.749995
 21
310.000002
 31
0.0
  0
LINE
  5
21C
330
1F
100
AcDbEntity
  8
LAYER_1
 62
     7
100
AcDbLine
 10
511.7499969999999
 20
310.000002
 30
0.0
 11
506.749995
 21
314.999992
 31
0.0
  0
LINE
  5
21D
330
1F
100
AcDbEntity
  8
LAYER_1
 62
     7
100
AcDbLine
 10
506.749995
 20
325.0
 30
0.0
 11
506.749995
 21
314.999992
 31
0.0
  0
LINE
  5
21E
330
1F
100
AcDbEntity
  8
LAYER_1
 62
     7
100
AcDbLine
 10
506.749995
 20
325.0
 30
0.0
 11
511.7499969999999
 21
329.9999899999999
 31
0.0
  0
SPLINE
  5
21F
330
1F
100
AcDbEntity
  8
LAYER_1
 62
     7
100
AcDbSpline
210
0.0
220
0.0
230
1.0
 70
  1064
 71
     3
 72
    13
 73
     9
 74
     7
 42
0.000000001
 43
0.0000000001
 44
0.0000000001
 40
0.0
 40
0.0
 40
0.0
 40
0.0
 40
1.308875317399642
 40
2.606918156763973
 40
3.915792893990185
 40
5.224667022735942
 40
6.522709479416786
 40
7.831584665938799
 40
7.831584665938799
 40
7.831584665938799
 40
7.831584665938799
 10
497.4999959999999
 20
444.999995
 30
0.0
 10
497.0624295045896
 20
444.9666636897005
 30
0.0
 10
496.1909178896076
 20
444.9002769247786
 30
0.0
 10
494.9717117840216
 20
444.3756504591781
 30
0.0
 10
493.9225068223165
 20
443.5774824432691
 30
0.0
 10
493.1243394631831
 20
442.5282771338543
 30
0.0
 10
492.5997140558498
 20
441.3090709702182
 30
0.0
 10
492.5333279717214
 20
440.4375594768152
 30
0.0
 10
492.499997
 20
439.9999929999999
 30
0.0
 11
497.4999959999999
 21
444.999995
 31
0.0
 11
496.2023789999999
 21
444.828692
 31
0.0
 11
495.003144
 21
444.3319519999999
 31
0.0
 11
493.964462
 21
443.5355269999999
 31
0.0
 11
493.1680379999999
 21
442.496845
 31
0.0
 11
492.671299
 21
441.2976099999999
 31
0.0
 11
492.499997
 21
439.9999929999999
 31
0.0
  0
ENDSEC
  0
SECTION
  2
OBJECTS
  0
DICTIONARY
  5
C
330
0
100
AcDbDictionary
281
     1
  3
ACAD_CIP_PREVIOUS_PRODUCT_INFO
350
10056
  3
ACAD_COLOR
350
10035
  3
ACAD_DETAILVIEWSTYLE
350
1004E
  3
ACAD_GROUP
350
D
  3
ACAD_LAYOUT
350
10050
  3
ACAD_MATERIAL
350
10003
  3
ACAD_MLEADERSTYLE
350
1004A
  3
ACAD_MLINESTYLE
350
17
  3
ACAD_PLOTSETTINGS
350
10051
  3
ACAD_PLOTSTYLENAME
350
10001
  3
ACAD_SCALELIST
350
10038
  3
ACAD_SECTIONVIEWSTYLE
350
1004C
  3
ACAD_TABLESTYLE
350
10036
  3
ACAD_VISUALSTYLE
350
1001C
  3
ACDB_RECOMPOSE_DATA
350
1006C
  3
AcDbVariableDictionary
350
1005B
  0
DICTIONARY
  5
10057
330
50
100
AcDbDictionary
280
     1
281
     1
  3
ADSK_XREC_LAYER_RECONCILED
360
10058
  0
DICTIONARY
  5
10059
330
51
100
AcDbDictionary
280
     1
281
     1
  3
ADSK_XREC_LAYER_RECONCILED
360
1005A
  0
XRECORD
  5
10056
102
{ACAD_REACTORS
330
C
102
}
330
C
100
AcDbXrecord
280
     1
300
ACD
300
2014
300
ACD_F_S
  0
DICTIONARY
  5
10035
102
{ACAD_REACTORS
330
C
102
}
330
C
100
AcDbDictionary
281
     1
  0
DICTIONARY
  5
1004E
102
{ACAD_REACTORS
330
C
102
}
330
C
100
AcDbDictionary
281
     1
  3
Metric50
350
1004F
  0
DICTIONARY
  5
D
330
C
100
AcDbDictionary
281
     1
  0
DICTIONARY
  5
10050
102
{ACAD_REACTORS
330
C
102
}
330
C
100
AcDbDictionary
281
     1
  3
Layout1
350
10053
  3
Model
350
10052
  0
DICTIONARY
  5
10003
102
{ACAD_REACTORS
330
C
102
}
330
C
100
AcDbDictionary
281
     1
  3
ByBlock
350
1000C
  3
ByLayer
350
10004
  3
Global
350
10014
  0
DICTIONARY
  5
1004A
102
{ACAD_REACTORS
330
C
102
}
330
C
100
AcDbDictionary
281
     1
  3
Standard
350
1004B
  0
DICTIONARY
  5
17
330
C
100
AcDbDictionary
281
     1
  0
DICTIONARY
  5
10051
102
{ACAD_REACTORS
330
C
102
}
330
C
100
AcDbDictionary
281
     1
  0
ACDBDICTIONARYWDFLT
  5
10001
102
{ACAD_REACTORS
330
C
102
}
330
C
100
AcDbDictionary
281
     1
  3
Normal
350
10002
100
AcDbDictionaryWithDefault
340
10002
  0
DICTIONARY
  5
10038
102
{ACAD_REACTORS
330
C
102
}
330
C
100
AcDbDictionary
281
     1
  3
A0
350
10039
  3
A1
350
1003A
  3
A2
350
1003B
  3
A3
350
1003C
  3
A4
350
1003D
  3
A5
350
1003E
  3
A6
350
1003F
  3
A7
350
10040
  3
A8
350
10041
  3
A9
350
10042
  3
B0
350
10043
  3
B1
350
10044
  3
B2
350
10045
  3
B3
350
10046
  3
B4
350
10047
  3
B5
350
10048
  3
B6
350
10049
  0
DICTIONARY
  5
1004C
102
{ACAD_REACTORS
330
C
102
}
330
C
100
AcDbDictionary
281
     1
  3
Metric50
350
1004D
  0
DICTIONARY
  5
10036
102
{ACAD_REACTORS
330
C
102
}
330
C
100
AcDbDictionary
281
     1
  3
Standard
350
10037
  0
DICTIONARY
  5
1001C
102
{ACAD_REACTORS
330
C
102
}
330
C
100
AcDbDictionary
281
     1
  3
2dWireframe
350
10022
  3
Basic
350
10021
  3
Brighten
350
10028
  3
ColorChange
350
1002C
  3
Conceptual
350
10025
  3
Dim
350
10027
  3
EdgeColorOff
350
10034
  3
Facepattern
350
1002B
  3
Flat
350
1001D
  3
FlatWithEdges
350
1001E
  3
Gouraud
350
1001F
  3
GouraudWithEdges
350
10020
  3
Hidden
350
10024
  3
JitterOff
350
10032
  3
Linepattern
350
1002A
  3
OverhangOff
350
10033
  3
Realistic
350
10026
  3
Shaded
350
10031
  3
Shaded with edges
350
10030
  3
Shades of Gray
350
1002D
  3
Sketchy
350
1002E
  3
Thicken
350
10029
  3
Wireframe
350
10023
  3
X-Ray
350
1002F
  0
XRECORD
  5
1006C
102
{ACAD_REACTORS
330
C
102
}
330
C
100
AcDbXrecord
280
     1
 90
        1
330
10037
330
1004D
330
1004F
  0
DICTIONARY
  5
1005B
102
{ACAD_REACTORS
330
C
102
}
330
C
100
AcDbDictionary
281
     1
  3
CANNOSCALE
350
10061
  3
CMLEADERSTYLE
350
1005D
  3
CTABLESTYLE
350
1005C
  3
CVIEWDETAILSTYLE
350
1005E
  3
CVIEWSECTIONSTYLE
350
1005F
  3
LAYEREVAL
350
10063
  3
LAYERNOTIFY
350
10064
  3
LIGHTINGUNITS
350
10062
  3
MSLTSCALE
350
10060
  0
XRECORD
  5
10058
102
{ACAD_REACTORS
330
10057
102
}
330
10057
100
AcDbXrecord
280
     1
290
     1
  0
XRECORD
  5
1005A
102
{ACAD_REACTORS
330
10059
102
}
330
10059
100
AcDbXrecord
280
     1
290
     1
  0
ACDBDETAILVIEWSTYLE
  5
1004F
102
{ACAD_XDICTIONARY
360
1006A
102
}
102
{ACAD_REACTORS
330
1004E
102
}
330
1004E
100
AcDbModelDocViewStyle
 70
     0
  3
Metric50
290
     0
100
AcDbDetailViewStyle
 70
     0
 71
     0
 90
        3
 71
     1
340
11
 62
   256
 40
5.0
340
0
 62
   256
 40
5.0
300

 40
0.0
280
     1
 71
     2
340
16
 90
       25
 62
   256
 71
     3
340
11
 62
   256
 40
5.0
 90
        0
 40
15.0
 90
        1
300
%<\AcVar ViewDetailId>% (%<\AcVar ViewScale \f "%sn">%)
 71
     4
340
16
 90
       25
 62
   256
340
16
 90
       25
 62
   256
280
     0
  0
LAYOUT
  5
10053
102
{ACAD_REACTORS
330
10050
102
}
330
10050
100
AcDbPlotSettings
  1

  2
Canon LBP6020
  4

  6

 40
0.0
 41
0.0
 42
0.0
 43
0.0
 44
0.0
 45
0.0
 46
0.0
 47
0.0
 48
0.0
 49
0.0
140
0.0
141
0.0
142
1.0
143
1.0
 70
   688
 72
     0
 73
     0
 74
     5
  7

 75
    16
147
1.0
 76
     0
 77
     2
 78
   300
148
0.0
149
0.0
100
AcDbLayout
  1
Layout1
 70
     1
 71
     1
 10
0.0
 20
0.0
 11
12.0
 21
9.0
 12
0.0
 22
0.0
 32
0.0
 14
1.000000000000000E+20
 24
1.000000000000000E+20
 34
1.000000000000000E+20
 15
-1.000000000000000E+20
 25
-1.000000000000000E+20
 35
-1.000000000000000E+20
146
0.0
 13
0.0
 23
0.0
 33
0.0
 16
1.0
 26
0.0
 36
0.0
 17
0.0
 27
1.0
 37
0.0
 76
     0
330
1B
  0
LAYOUT
  5
10052
102
{ACAD_REACTORS
330
10050
102
}
330
10050
100
AcDbPlotSettings
  1

  2
Canon LBP6020
  4

  6

 40
0.0
 41
0.0
 42
0.0
 43
0.0
 44
0.0
 45
0.0
 46
0.0
 47
0.0
 48
0.0
 49
0.0
140
0.0
141
0.0
142
1.0
143
1.0
 70
  1712
 72
     0
 73
     0
 74
     0
  7

 75
     0
147
1.0
 76
     0
 77
     2
 78
   300
148
0.0
149
0.0
100
AcDbLayout
  1
Model
 70
     1
 71
     0
 10
0.0
 20
0.0
 11
12.0
 21
9.0
 12
0.0
 22
0.0
 32
0.0
 14
0.0
 24
0.0
 34
0.0
 15
0.0
 25
0.0
 35
0.0
146
0.0
 13
0.0
 23
0.0
 33
0.0
 16
1.0
 26
0.0
 36
0.0
 17
0.0
 27
1.0
 37
0.0
 76
     0
330
1F
331
2E
  0
MATERIAL
  5
1000C
102
{ACAD_XDICTIONARY
360
1000D
102
}
102
{ACAD_REACTORS
330
10003
102
}
330
10003
100
AcDbMaterial
  1
ByBlock
 72
     0
 43
0.0208333333333333
 43
0.0
 43
0.0
 43
0.0
 43
0.0
 43
0.0208333333333333
 43
0.0
 43
0.0
 43
0.0
 43
0.0
 43
1.0
 43
0.0
 43
0.0
 43
0.0
 43
0.0
 43
1.0
 77
     0
 47
0.0208333333333333
 47
0.0
 47
0.0
 47
0.0
 47
0.0
 47
0.0208333333333333
 47
0.0
 47
0.0
 47
0.0
 47
0.0
 47
1.0
 47
0.0
 47
0.0
 47
0.0
 47
0.0
 47
1.0
171
     0
 49
0.0208333333333333
 49
0.0
 49
0.0
 49
0.0
 49
0.0
 49
0.0208333333333333
 49
0.0
 49
0.0
 49
0.0
 49
0.0
 49
1.0
 49
0.0
 49
0.0
 49
0.0
 49
0.0
 49
1.0
175
     0
142
0.0208333333333333
142
0.0
142
0.0
142
0.0
142
0.0
142
0.0208333333333333
142
0.0
142
0.0
142
0.0
142
0.0
142
1.0
142
0.0
142
0.0
142
0.0
142
0.0
142
1.0
179
     0
144
0.0208333333333333
144
0.0
144
0.0
144
0.0
144
0.0
144
0.0208333333333333
144
0.0
144
0.0
144
0.0
144
0.0
144
1.0
144
0.0
144
0.0
144
0.0
144
0.0
144
1.0
147
0.0208333333333333
147
0.0
147
0.0
147
0.0
147
0.0
147
0.0208333333333333
147
0.0
147
0.0
147
0.0
147
0.0
147
1.0
147
0.0
147
0.0
147
0.0
147
0.0
147
1.0
  0
MATERIAL
  5
10004
102
{ACAD_XDICTIONARY
360
10005
102
}
102
{ACAD_REACTORS
330
10003
102
}
330
10003
100
AcDbMaterial
  1
ByLayer
 72
     0
 43
0.0208333333333333
 43
0.0
 43
0.0
 43
0.0
 43
0.0
 43
0.0208333333333333
 43
0.0
 43
0.0
 43
0.0
 43
0.0
 43
1.0
 43
0.0
 43
0.0
 43
0.0
 43
0.0
 43
1.0
 77
     0
 47
0.0208333333333333
 47
0.0
 47
0.0
 47
0.0
 47
0.0
 47
0.0208333333333333
 47
0.0
 47
0.0
 47
0.0
 47
0.0
 47
1.0
 47
0.0
 47
0.0
 47
0.0
 47
0.0
 47
1.0
171
     0
 49
0.0208333333333333
 49
0.0
 49
0.0
 49
0.0
 49
0.0
 49
0.0208333333333333
 49
0.0
 49
0.0
 49
0.0
 49
0.0
 49
1.0
 49
0.0
 49
0.0
 49
0.0
 49
0.0
 49
1.0
175
     0
142
0.0208333333333333
142
0.0
142
0.0
142
0.0
142
0.0
142
0.0208333333333333
142
0.0
142
0.0
142
0.0
142
0.0
142
1.0
142
0.0
142
0.0
142
0.0
142
0.0
142
1.0
179
     0
144
0.0208333333333333
144
0.0
144
0.0
144
0.0
144
0.0
144
0.0208333333333333
144
0.0
144
0.0
144
0.0
144
0.0
144
1.0
144
0.0
144
0.0
144
0.0
144
0.0
144
1.0
147
0.0208333333333333
147
0.0
147
0.0
147
0.0
147
0.0
147
0.0208333333333333
147
0.0
147
0.0
147
0.0
147
0.0
147
1.0
147
0.0
147
0.0
147
0.0
147
0.0
147
1.0
  0
MATERIAL
  5
10014
102
{ACAD_XDICTIONARY
360
10015
102
}
102
{ACAD_REACTORS
330
10003
102
}
330
10003
100
AcDbMaterial
  1
Global
 72
     0
 43
0.0208333333333333
 43
0.0
 43
0.0
 43
0.0
 43
0.0
 43
0.0208333333333333
 43
0.0
 43
0.0
 43
0.0
 43
0.0
 43
1.0
 43
0.0
 43
0.0
 43
0.0
 43
0.0
 43
1.0
 77
     0
 47
0.0208333333333333
 47
0.0
 47
0.0
 47
0.0
 47
0.0
 47
0.0208333333333333
 47
0.0
 47
0.0
 47
0.0
 47
0.0
 47
1.0
 47
0.0
 47
0.0
 47
0.0
 47
0.0
 47
1.0
171
     0
 49
0.0208333333333333
 49
0.0
 49
0.0
 49
0.0
 49
0.0
 49
0.0208333333333333
 49
0.0
 49
0.0
 49
0.0
 49
0.0
 49
1.0
 49
0.0
 49
0.0
 49
0.0
 49
0.0
 49
1.0
175
     0
142
0.0208333333333333
142
0.0
142
0.0
142
0.0
142
0.0
142
0.0208333333333333
142
0.0
142
0.0
142
0.0
142
0.0
142
1.0
142
0.0
142
0.0
142
0.0
142
0.0
142
1.0
179
     0
144
0.0208333333333333
144
0.0
144
0.0
144
0.0
144
0.0
144
0.0208333333333333
144
0.0
144
0.0
144
0.0
144
0.0
144
1.0
144
0.0
144
0.0
144
0.0
144
0.0
144
1.0
147
0.0208333333333333
147
0.0
147
0.0
147
0.0
147
0.0
147
0.0208333333333333
147
0.0
147
0.0
147
0.0
147
0.0
147
1.0
147
0.0
147
0.0
147
0.0
147
0.0
147
1.0
  0
MLEADERSTYLE
  5
1004B
102
{ACAD_REACTORS
330
1004A
102
}
330
1004A
100
AcDbMLeaderStyle
179
     2
170
     2
171
     1
172
     0
 90
        2
 40
0.0
 41
0.0
173
     1
 91
-1056964608
340
14
 92
       -2
290
     1
 42
2.0
291
     1
 43
0.36
  3
Standard
 44
4.0
300

342
11
174
     1
178
     6
175
     1
176
     0
 93
-1056964608
 45
4.0
292
     0
297
     0
 46
4.0
 94
-1056964608
 47
1.0
 49
1.0
140
1.0
293
     1
141
0.0
294
     1
177
     0
142
1.0
295
     0
296
     0
143
0.125
271
     0
272
     9
273
     9
298
     0
  0
ACDBPLACEHOLDER
  5
10002
102
{ACAD_REACTORS
330
10001
102
}
330
10001
  0
SCALE
  5
10039
102
{ACAD_REACTORS
330
10038
102
}
330
10038
100
AcDbScale
 70
     0
300
1:1
140
1.0
141
1.0
290
     1
  0
SCALE
  5
1003A
102
{ACAD_REACTORS
330
10038
102
}
330
10038
100
AcDbScale
 70
     0
300
1:2
140
1.0
141
2.0
290
     0
  0
SCALE
  5
1003B
102
{ACAD_REACTORS
330
10038
102
}
330
10038
100
AcDbScale
 70
     0
300
1:4
140
1.0
141
4.0
290
     0
  0
SCALE
  5
1003C
102
{ACAD_REACTORS
330
10038
102
}
330
10038
100
AcDbScale
 70
     0
300
1:5
140
1.0
141
5.0
290
     0
  0
SCALE
  5
1003D
102
{ACAD_REACTORS
330
10038
102
}
330
10038
100
AcDbScale
 70
     0
300
1:8
140
1.0
141
8.0
290
     0
  0
SCALE
  5
1003E
102
{ACAD_REACTORS
330
10038
102
}
330
10038
100
AcDbScale
 70
     0
300
1:10
140
1.0
141
10.0
290
     0
  0
SCALE
  5
1003F
102
{ACAD_REACTORS
330
10038
102
}
330
10038
100
AcDbScale
 70
     0
300
1:16
140
1.0
141
16.0
290
     0
  0
SCALE
  5
10040
102
{ACAD_REACTORS
330
10038
102
}
330
10038
100
AcDbScale
 70
     0
300
1:20
140
1.0
141
20.0
290
     0
  0
SCALE
  5
10041
102
{ACAD_REACTORS
330
10038
102
}
330
10038
100
AcDbScale
 70
     0
300
1:30
140
1.0
141
30.0
290
     0
  0
SCALE
  5
10042
102
{ACAD_REACTORS
330
10038
102
}
330
10038
100
AcDbScale
 70
     0
300
1:40
140
1.0
141
40.0
290
     0
  0
SCALE
  5
10043
102
{ACAD_REACTORS
330
10038
102
}
330
10038
100
AcDbScale
 70
     0
300
1:50
140
1.0
141
50.0
290
     0
  0
SCALE
  5
10044
102
{ACAD_REACTORS
330
10038
102
}
330
10038
100
AcDbScale
 70
     0
300
1:100
140
1.0
141
100.0
290
     0
  0
SCALE
  5
10045
102
{ACAD_REACTORS
330
10038
102
}
330
10038
100
AcDbScale
 70
     0
300
2:1
140
2.0
141
1.0
290
     0
  0
SCALE
  5
10046
102
{ACAD_REACTORS
330
10038
102
}
330
10038
100
AcDbScale
 70
     0
300
4:1
140
4.0
141
1.0
290
     0
  0
SCALE
  5
10047
102
{ACAD_REACTORS
330
10038
102
}
330
10038
100
AcDbScale
 70
     0
300
8:1
140
8.0
141
1.0
290
     0
  0
SCALE
  5
10048
102
{ACAD_REACTORS
330
10038
102
}
330
10038
100
AcDbScale
 70
     0
300
10:1
140
10.0
141
1.0
290
     0
  0
SCALE
  5
10049
102
{ACAD_REACTORS
330
10038
102
}
330
10038
100
AcDbScale
 70
     0
300
100:1
140
100.0
141
1.0
290
     0
  0
ACDBSECTIONVIEWSTYLE
  5
1004D
102
{ACAD_XDICTIONARY
360
10068
102
}
102
{ACAD_REACTORS
330
1004C
102
}
330
1004C
100
AcDbModelDocViewStyle
 70
     0
  3
Metric50
290
     0
100
AcDbSectionViewStyle
 70
     0
 71
     0
 90
      102
 71
     1
340
11
 62
   256
 40
5.0
340
0
340
0
 62
   256
 40
5.0
300
I, O, Q, S, X, Z
 40
10.0
 90
        0
 40
2.5
 90
        0
 71
     2
340
16
 90
       25
 62
   256
340
16
 90
       50
 62
   256
 40
5.0
 40
2.5
 40
5.0
 71
     3
340
11
 62
   256
 40
5.0
 90
        0
 40
15.0
 90
        1
300
%<\AcVar ViewSectionStartId>%-%<\AcVar ViewSectionEndId>% (%<\AcVar ViewScale \f "%sn">%)
 71
     4
 62
   256
 62
   257
300
ANSI31
 40
1.0
 90
        0
290
     0
290
     0
 90
        6
 40
0.0
 40
1.570796326794896
 40
0.2617993877991494
 40
1.308996938995747
 40
-0.2617993877991494
 40
1.832595714594046
  0
TABLESTYLE
  5
10037
102
{ACAD_XDICTIONARY
360
10066
102
}
102
{ACAD_REACTORS
330
10036
102
}
330
10036
100
AcDbTableStyle
280
     0
  3
Standard
 70
     0
 71
     0
 40
1.5
 41
1.5
280
     0
281
     0
  7
STANDARD
140
4.5
170
     2
 62
     0
 63
     7
283
     0
 90
      512
 91
        0
  1

274
    -2
284
     1
 64
     0
275
    -2
285
     1
 65
     0
276
    -2
286
     1
 66
     0
277
    -2
287
     1
 67
     0
278
    -2
288
     1
 68
     0
279
    -2
289
     1
 69
     0
  7
STANDARD
140
6.0
170
     5
 62
     0
 63
     7
283
     0
 90
      512
 91
        0
  1

274
    -2
284
     1
 64
     0
275
    -2
285
     1
 65
     0
276
    -2
286
     1
 66
     0
277
    -2
287
     1
 67
     0
278
    -2
288
     1
 68
     0
279
    -2
289
     1
 69
     0
  7
STANDARD
140
4.5
170
     5
 62
     0
 63
     7
283
     0
 90
      512
 91
        0
  1

274
    -2
284
     1
 64
     0
275
    -2
285
     1
 65
     0
276
    -2
286
     1
 66
     0
277
    -2
287
     1
 67
     0
278
    -2
288
     1
 68
     0
279
    -2
289
     1
 69
     0
  0
VISUALSTYLE
  5
10022
102
{ACAD_REACTORS
330
1001C
102
}
330
1001C
100
AcDbVisualStyle
  2
2dWireframe
 70
     4
177
     3
291
     0
 70
    58
 90
        0
176
     1
 90
        2
176
     1
 90
        0
176
     1
 90
        0
176
     1
 40
0.6
176
     1
 40
30.0
176
     1
 62
     7
420
 16777215
176
     1
 90
        1
176
     1
 90
        4
176
     1
 62
     7
176
     1
 62
   257
176
     1
 90
        1
176
     1
 90
        1
176
     1
 40
1.0
176
     1
 90
        0
176
     1
 62
   257
176
     1
 40
1.0
176
     1
 90
        1
176
     1
 90
        6
176
     1
 90
        2
176
     1
 62
     7
176
     1
 90
        5
176
     1
 90
        0
176
     1
 90
        0
176
     1
290
     0
176
     1
 90
        1
176
     1
 40
0.0
176
     1
 90
        0
176
     1
290
     1
176
     1
290
     1
176
     1
290
     0
176
     1
290
     0
176
     1
290
     0
176
     1
290
     0
176
     1
290
     0
176
     1
290
     0
176
     1
290
     0
176
     1
 90
       50
176
     1
 40
0.0
176
     1
 40
1.0
176
     1
 90
        0
176
     1
 62
    18
420
        0
176
     1
 90
       50
176
     1
 90
        3
176
     1
 62
     5
420
      255
176
     1
290
     0
176
     1
 90
       50
176
     1
 90
       50
176
     1
 90
       50
176
     1
290
     0
176
     1
 90
       50
176
     1
 62
   256
176
     0
 40
1.0
176
     0
 90
        2
176
     1
  1
strokes_ogs.tif
176
     1
290
     0
176
     1
 40
1.0
176
     1
 40
1.0
176
     1
  0
VISUALSTYLE
  5
10021
102
{ACAD_REACTORS
330
1001C
102
}
330
1001C
100
AcDbVisualStyle
  2
Basic
 70
     7
177
     3
291
     1
 70
    58
 90
        1
176
     1
 90
        0
176
     1
 90
        1
176
     1
 90
        0
176
     1
 40
0.6
176
     1
 40
30.0
176
     1
 62
     7
420
 16777215
176
     1
 90
        0
176
     1
 90
        4
176
     1
 62
     7
176
     1
 62
   257
176
     1
 90
        1
176
     1
 90
        1
176
     1
 40
1.0
176
     1
 90
        8
176
     1
 62
     7
176
     1
 40
1.0
176
     1
 90
        1
176
     1
 90
        6
176
     1
 90
        2
176
     1
 62
     7
176
     1
 90
        5
176
     1
 90
        0
176
     1
 90
        0
176
     1
290
     0
176
     1
 90
        1
176
     1
 40
0.0
176
     1
 90
        0
176
     1
290
     0
176
     1
290
     1
176
     1
290
     1
176
     1
290
     0
176
     1
290
     0
176
     1
290
     0
176
     1
290
     0
176
     1
290
     0
176
     1
290
     0
176
     1
 90
       50
176
     1
 40
0.0
176
     1
 40
1.0
176
     1
 90
        0
176
     1
 62
    18
420
        0
176
     1
 90
       50
176
     1
 90
        3
176
     1
 62
     5
420
      255
176
     1
290
     0
176
     1
 90
       50
176
     1
 90
       50
176
     1
 90
       50
176
     1
290
     0
176
     1
 90
       50
176
     1
 62
   256
176
     0
 40
1.0
176
     0
 90
        2
176
     1
  1
strokes_ogs.tif
176
     1
290
     0
176
     1
 40
1.0
176
     1
 40
1.0
176
     1
  0
VISUALSTYLE
  5
10028
102
{ACAD_REACTORS
330
1001C
102
}
330
1001C
100
AcDbVisualStyle
  2
Brighten
 70
    12
177
     3
291
     1
 70
    58
 90
        2
176
     1
 90
        2
176
     1
 90
        0
176
     1
 90
        0
176
     1
 40
0.6
176
     1
 40
30.0
176
     1
 62
     7
420
 16777215
176
     1
 90
        1
176
     1
 90
        4
176
     1
 62
     7
176
     1
 62
   257
176
     1
 90
        1
176
     1
 90
        1
176
     1
 40
1.0
176
     1
 90
        8
176
     1
 62
     7
176
     1
 40
1.0
176
     1
 90
        1
176
     1
 90
        6
176
     1
 90
        2
176
     1
 62
     7
176
     1
 90
        5
176
     1
 90
        0
176
     1
 90
        0
176
     1
290
     0
176
     1
 90
        1
176
     1
 40
50.0
176
     1
 90
        0
176
     1
290
     0
176
     1
290
     1
176
     1
290
     1
176
     1
290
     0
176
     1
290
     0
176
     1
290
     0
176
     1
290
     0
176
     1
290
     0
176
     1
290
     0
176
     1
 90
       50
176
     1
 40
0.0
176
     1
 40
1.0
176
     1
 90
        0
176
     1
 62
    18
420
        0
176
     1
 90
       50
176
     1
 90
        3
176
     1
 62
     5
420
      255
176
     1
290
     0
176
     1
 90
       50
176
     1
 90
       50
176
     1
 90
       50
176
     1
290
     0
176
     1
 90
       50
176
     1
 62
   256
176
     0
 40
1.0
176
     0
 90
        2
176
     1
  1
strokes_ogs.tif
176
     1
290
     0
176
     1
 40
1.0
176
     1
 40
1.0
176
     1
  0
VISUALSTYLE
  5
1002C
102
{ACAD_REACTORS
330
1001C
102
}
330
1001C
100
AcDbVisualStyle
  2
ColorChange
 70
    16
177
     3
291
     1
 70
    58
 90
        2
176
     1
 90
        2
176
     1
 90
        3
176
     1
 90
        0
176
     1
 40
0.6
176
     1
 40
30.0
176
     1
 62
     8
420
  8421504
176
     1
 90
        1
176
     1
 90
        4
176
     1
 62
     7
176
     1
 62
   257
176
     1
 90
        1
176
     1
 90
        1
176
     1
 40
1.0
176
     1
 90
        8
176
     1
 62
     8
420
  8421504
176
     1
 40
1.0
176
     1
 90
        1
176
     1
 90
        6
176
     1
 90
        2
176
     1
 62
     7
176
     1
 90
        5
176
     1
 90
        0
176
     1
 90
        0
176
     1
290
     0
176
     1
 90
        1
176
     1
 40
0.0
176
     1
 90
        0
176
     1
290
     0
176
     1
290
     1
176
     1
290
     1
176
     1
290
     0
176
     1
290
     0
176
     1
290
     0
176
     1
290
     0
176
     1
290
     0
176
     1
290
     0
176
     1
 90
       50
176
     1
 40
0.0
176
     1
 40
1.0
176
     1
 90
        0
176
     1
 62
    18
420
        0
176
     1
 90
       50
176
     1
 90
        3
176
     1
 62
     5
420
      255
176
     1
290
     0
176
     1
 90
       50
176
     1
 90
       50
176
     1
 90
       50
176
     1
290
     0
176
     1
 90
       50
176
     1
 62
   256
176
     0
 40
1.0
176
     0
 90
        2
176
     1
  1
strokes_ogs.tif
176
     1
290
     0
176
     1
 40
1.0
176
     1
 40
1.0
176
     1
  0
VISUALSTYLE
  5
10025
102
{ACAD_REACTORS
330
1001C
102
}
330
1001C
100
AcDbVisualStyle
  2
Conceptual
 70
     9
177
     3
291
     0
 70
    58
 90
        3
176
     1
 90
        2
176
     1
 90
        0
176
     1
 90
        0
176
     1
 40
0.6
176
     1
 40
30.0
176
     1
 62
     7
420
 16777215
176
     1
 90
        2
176
     1
 90
        2
176
     1
 62
     7
176
     1
 62
   257
176
     1
 90
        1
176
     1
 90
        1
176
     1
 40
179.0
176
     1
 90
        8
176
     1
 62
     7
176
     1
 40
1.0
176
     1
 90
        1
176
     1
 90
        6
176
     1
 90
        2
176
     1
 62
     7
176
     1
 90
        3
176
     1
 90
        0
176
     1
 90
        0
176
     1
290
     0
176
     1
 90
        1
176
     1
 40
0.0
176
     1
 90
        0
176
     1
290
     0
176
     1
290
     1
176
     1
290
     1
176
     1
290
     0
176
     1
290
     0
176
     1
290
     0
176
     1
290
     0
176
     1
290
     0
176
     1
290
     0
176
     1
 90
       50
176
     1
 40
0.0
176
     1
 40
1.0
176
     1
 90
        0
176
     1
 62
    18
420
        0
176
     1
 90
       50
176
     1
 90
        3
176
     1
 62
     5
420
      255
176
     1
290
     0
176
     1
 90
       50
176
     1
 90
       50
176
     1
 90
       50
176
     1
290
     0
176
     1
 90
       50
176
     1
 62
   256
176
     0
 40
1.0
176
     0
 90
        2
176
     1
  1
strokes_ogs.tif
176
     1
290
     0
176
     1
 40
1.0
176
     1
 40
1.0
176
     1
  0
VISUALSTYLE
  5
10027
102
{ACAD_REACTORS
330
1001C
102
}
330
1001C
100
AcDbVisualStyle
  2
Dim
 70
    11
177
     3
291
     1
 70
    58
 90
        2
176
     1
 90
        2
176
     1
 90
        0
176
     1
 90
        0
176
     1
 40
0.6
176
     1
 40
30.0
176
     1
 62
     7
420
 16777215
176
     1
 90
        1
176
     1
 90
        4
176
     1
 62
     7
176
     1
 62
   257
176
     1
 90
        1
176
     1
 90
        1
176
     1
 40
1.0
176
     1
 90
        8
176
     1
 62
     7
176
     1
 40
1.0
176
     1
 90
        1
176
     1
 90
        6
176
     1
 90
        2
176
     1
 62
     7
176
     1
 90
        5
176
     1
 90
        0
176
     1
 90
        0
176
     1
290
     0
176
     1
 90
        1
176
     1
 40
-50.0
176
     1
 90
        0
176
     1
290
     0
176
     1
290
     1
176
     1
290
     1
176
     1
290
     0
176
     1
290
     0
176
     1
290
     0
176
     1
290
     0
176
     1
290
     0
176
     1
290
     0
176
     1
 90
       50
176
     1
 40
0.0
176
     1
 40
1.0
176
     1
 90
        0
176
     1
 62
    18
420
        0
176
     1
 90
       50
176
     1
 90
        3
176
     1
 62
     5
420
      255
176
     1
290
     0
176
     1
 90
       50
176
     1
 90
       50
176
     1
 90
       50
176
     1
290
     0
176
     1
 90
       50
176
     1
 62
   256
176
     0
 40
1.0
176
     0
 90
        2
176
     1
  1
strokes_ogs.tif
176
     1
290
     0
176
     1
 40
1.0
176
     1
 40
1.0
176
     1
  0
VISUALSTYLE
  5
10034
102
{ACAD_REACTORS
330
1001C
102
}
330
1001C
100
AcDbVisualStyle
  2
EdgeColorOff
 70
    22
177
     3
291
     1
 70
    58
 90
        2
176
     0
 90
        2
176
     0
 90
        0
176
     0
 90
        0
176
     0
 40
0.6
176
     0
 40
30.0
176
     0
 62
     7
420
 16777215
176
     0
 90
        1
176
     0
 90
        4
176
     0
 62
     7
176
     0
 62
   257
176
     0
 90
        1
176
     0
 90
        1
176
     0
 40
1.0
176
     0
 90
        8
176
     2
 62
     7
176
     0
 40
1.0
176
     0
 90
        1
176
     0
 90
        6
176
     0
 90
        2
176
     0
 62
     7
176
     0
 90
        5
176
     0
 90
        0
176
     0
 90
        0
176
     0
290
     0
176
     0
 90
        1
176
     0
 40
0.0
176
     0
 90
        0
176
     0
290
     0
176
     1
290
     1
176
     1
290
     1
176
     1
290
     0
176
     1
290
     0
176
     1
290
     0
176
     1
290
     0
176
     1
290
     0
176
     1
290
     0
176
     1
 90
       50
176
     0
 40
0.0
176
     0
 40
1.0
176
     0
 90
        0
176
     0
 62
    18
420
        0
176
     0
 90
       50
176
     0
 90
        3
176
     0
 62
     5
420
      255
176
     0
290
     0
176
     1
 90
       50
176
     0
 90
       50
176
     0
 90
       50
176
     0
290
     0
176
     1
 90
       50
176
     0
 62
   256
176
     0
 40
1.0
176
     0
 90
        2
176
     0
  1
strokes_ogs.tif
176
     0
290
     0
176
     1
 40
1.0
176
     0
 40
1.0
176
     0
  0
VISUALSTYLE
  5
1002B
102
{ACAD_REACTORS
330
1001C
102
}
330
1001C
100
AcDbVisualStyle
  2
Facepattern
 70
    15
177
     3
291
     1
 70
    58
 90
        2
176
     1
 90
        2
176
     1
 90
        0
176
     1
 90
        0
176
     1
 40
0.6
176
     1
 40
30.0
176
     1
 62
     7
420
 16777215
176
     1
 90
        1
176
     1
 90
        4
176
     1
 62
     7
176
     1
 62
   257
176
     1
 90
        1
176
     1
 90
        1
176
     1
 40
1.0
176
     1
 90
        8
176
     1
 62
     7
176
     1
 40
1.0
176
     1
 90
        1
176
     1
 90
        6
176
     1
 90
        2
176
     1
 62
     7
176
     1
 90
        5
176
     1
 90
        0
176
     1
 90
        0
176
     1
290
     0
176
     1
 90
        1
176
     1
 40
0.0
176
     1
 90
        0
176
     1
290
     0
176
     1
290
     1
176
     1
290
     1
176
     1
290
     0
176
     1
290
     0
176
     1
290
     0
176
     1
290
     0
176
     1
290
     0
176
     1
290
     0
176
     1
 90
       50
176
     1
 40
0.0
176
     1
 40
1.0
176
     1
 90
        0
176
     1
 62
    18
420
        0
176
     1
 90
       50
176
     1
 90
        3
176
     1
 62
     5
420
      255
176
     1
290
     0
176
     1
 90
       50
176
     1
 90
       50
176
     1
 90
       50
176
     1
290
     0
176
     1
 90
       50
176
     1
 62
   256
176
     0
 40
1.0
176
     0
 90
        2
176
     1
  1
strokes_ogs.tif
176
     1
290
     0
176
     1
 40
1.0
176
     1
 40
1.0
176
     1
  0
VISUALSTYLE
  5
1001D
102
{ACAD_REACTORS
330
1001C
102
}
330
1001C
100
AcDbVisualStyle
  2
Flat
 70
     0
177
     3
291
     1
 70
    58
 90
        2
176
     1
 90
        1
176
     1
 90
        1
176
     1
 90
        2
176
     1
 40
0.6
176
     1
 40
30.0
176
     1
 62
     7
420
 16777215
176
     1
 90
        0
176
     1
 90
        0
176
     1
 62
     7
176
     1
 62
   257
176
     1
 90
        1
176
     1
 90
        1
176
     1
 40
1.0
176
     1
 90
        8
176
     1
 62
     7
176
     1
 40
1.0
176
     1
 90
        1
176
     1
 90
        6
176
     1
 90
        2
176
     1
 62
     7
176
     1
 90
        5
176
     1
 90
        0
176
     1
 90
        0
176
     1
290
     0
176
     1
 90
       13
176
     1
 40
0.0
176
     1
 90
        0
176
     1
290
     0
176
     1
290
     1
176
     1
290
     1
176
     1
290
     0
176
     1
290
     0
176
     1
290
     0
176
     1
290
     0
176
     1
290
     0
176
     1
290
     0
176
     1
 90
       50
176
     1
 40
0.0
176
     1
 40
1.0
176
     1
 90
        0
176
     1
 62
    18
420
        0
176
     1
 90
       50
176
     1
 90
        3
176
     1
 62
     5
420
      255
176
     1
290
     0
176
     1
 90
       50
176
     1
 90
       50
176
     1
 90
       50
176
     1
290
     0
176
     1
 90
       50
176
     1
 62
   256
176
     0
 40
1.0
176
     0
 90
        2
176
     1
  1
strokes_ogs.tif
176
     1
290
     0
176
     1
 40
1.0
176
     1
 40
1.0
176
     1
  0
VISUALSTYLE
  5
1001E
102
{ACAD_REACTORS
330
1001C
102
}
330
1001C
100
AcDbVisualStyle
  2
FlatWithEdges
 70
     1
177
     3
291
     1
 70
    58
 90
        2
176
     1
 90
        1
176
     1
 90
        1
176
     1
 90
        2
176
     1
 40
0.6
176
     1
 40
30.0
176
     1
 62
     7
420
 16777215
176
     1
 90
        1
176
     1
 90
        0
176
     1
 62
     7
176
     1
 62
   257
176
     1
 90
        1
176
     1
 90
        1
176
     1
 40
1.0
176
     1
 90
        0
176
     1
 62
   257
176
     1
 40
1.0
176
     1
 90
        1
176
     1
 90
        6
176
     1
 90
        2
176
     1
 62
     7
176
     1
 90
        5
176
     1
 90
        0
176
     1
 90
        0
176
     1
290
     0
176
     1
 90
       13
176
     1
 40
0.0
176
     1
 90
        0
176
     1
290
     0
176
     1
290
     1
176
     1
290
     1
176
     1
290
     0
176
     1
290
     0
176
     1
290
     0
176
     1
290
     0
176
     1
290
     0
176
     1
290
     0
176
     1
 90
       50
176
     1
 40
0.0
176
     1
 40
1.0
176
     1
 90
        0
176
     1
 62
    18
420
        0
176
     1
 90
       50
176
     1
 90
        3
176
     1
 62
     5
420
      255
176
     1
290
     0
176
     1
 90
       50
176
     1
 90
       50
176
     1
 90
       50
176
     1
290
     0
176
     1
 90
       50
176
     1
 62
   256
176
     0
 40
1.0
176
     0
 90
        2
176
     1
  1
strokes_ogs.tif
176
     1
290
     0
176
     1
 40
1.0
176
     1
 40
1.0
176
     1
  0
VISUALSTYLE
  5
1001F
102
{ACAD_REACTORS
330
1001C
102
}
330
1001C
100
AcDbVisualStyle
  2
Gouraud
 70
     2
177
     3
291
     1
 70
    58
 90
        2
176
     1
 90
        2
176
     1
 90
        1
176
     1
 90
        2
176
     1
 40
0.6
176
     1
 40
30.0
176
     1
 62
     7
420
 16777215
176
     1
 90
        0
176
     1
 90
        0
176
     1
 62
     7
176
     1
 62
   257
176
     1
 90
        1
176
     1
 90
        1
176
     1
 40
1.0
176
     1
 90
        0
176
     1
 62
     7
176
     1
 40
1.0
176
     1
 90
        1
176
     1
 90
        6
176
     1
 90
        2
176
     1
 62
     7
176
     1
 90
        5
176
     1
 90
        0
176
     1
 90
        0
176
     1
290
     0
176
     1
 90
       13
176
     1
 40
0.0
176
     1
 90
        0
176
     1
290
     0
176
     1
290
     1
176
     1
290
     1
176
     1
290
     0
176
     1
290
     0
176
     1
290
     0
176
     1
290
     0
176
     1
290
     0
176
     1
290
     0
176
     1
 90
       50
176
     1
 40
0.0
176
     1
 40
1.0
176
     1
 90
        0
176
     1
 62
    18
420
        0
176
     1
 90
       50
176
     1
 90
        3
176
     1
 62
     5
420
      255
176
     1
290
     0
176
     1
 90
       50
176
     1
 90
       50
176
     1
 90
       50
176
     1
290
     0
176
     1
 90
       50
176
     1
 62
   256
176
     0
 40
1.0
176
     0
 90
        2
176
     1
  1
strokes_ogs.tif
176
     1
290
     0
176
     1
 40
1.0
176
     1
 40
1.0
176
     1
  0
VISUALSTYLE
  5
10020
102
{ACAD_REACTORS
330
1001C
102
}
330
1001C
100
AcDbVisualStyle
  2
GouraudWithEdges
 70
     3
177
     3
291
     1
 70
    58
 90
        2
176
     1
 90
        2
176
     1
 90
        1
176
     1
 90
        2
176
     1
 40
0.6
176
     1
 40
30.0
176
     1
 62
     7
420
 16777215
176
     1
 90
        1
176
     1
 90
        0
176
     1
 62
     7
176
     1
 62
   257
176
     1
 90
        1
176
     1
 90
        1
176
     1
 40
1.0
176
     1
 90
        0
176
     1
 62
   257
176
     1
 40
1.0
176
     1
 90
        1
176
     1
 90
        6
176
     1
 90
        2
176
     1
 62
     7
176
     1
 90
        5
176
     1
 90
        0
176
     1
 90
        0
176
     1
290
     0
176
     1
 90
       13
176
     1
 40
0.0
176
     1
 90
        0
176
     1
290
     0
176
     1
290
     1
176
     1
290
     1
176
     1
290
     0
176
     1
290
     0
176
     1
290
     0
176
     1
290
     0
176
     1
290
     0
176
     1
290
     0
176
     1
 90
       50
176
     1
 40
0.0
176
     1
 40
1.0
176
     1
 90
        0
176
     1
 62
    18
420
        0
176
     1
 90
       50
176
     1
 90
        3
176
     1
 62
     5
420
      255
176
     1
290
     0
176
     1
 90
       50
176
     1
 90
       50
176
     1
 90
       50
176
     1
290
     0
176
     1
 90
       50
176
     1
 62
   256
176
     0
 40
1.0
176
     0
 90
        2
176
     1
  1
strokes_ogs.tif
176
     1
290
     0
176
     1
 40
1.0
176
     1
 40
1.0
176
     1
  0
VISUALSTYLE
  5
10024
102
{ACAD_REACTORS
330
1001C
102
}
330
1001C
100
AcDbVisualStyle
  2
Hidden
 70
     6
177
     3
291
     0
 70
    58
 90
        1
176
     1
 90
        2
176
     1
 90
        2
176
     1
 90
        0
176
     1
 40
0.6
176
     1
 40
30.0
176
     1
 62
     7
420
 16777215
176
     1
 90
        2
176
     1
 90
        2
176
     1
 62
     7
176
     1
 62
   257
176
     1
 90
        2
176
     1
 90
        1
176
     1
 40
40.0
176
     1
 90
        0
176
     1
 62
   257
176
     1
 40
1.0
176
     1
 90
        1
176
     1
 90
        6
176
     1
 90
        2
176
     1
 62
     7
176
     1
 90
        3
176
     1
 90
        0
176
     1
 90
        0
176
     1
290
     0
176
     1
 90
        1
176
     1
 40
0.0
176
     1
 90
        0
176
     1
290
     0
176
     1
290
     1
176
     1
290
     1
176
     1
290
     0
176
     1
290
     0
176
     1
290
     0
176
     1
290
     0
176
     1
290
     0
176
     1
290
     0
176
     1
 90
       50
176
     1
 40
0.0
176
     1
 40
1.0
176
     1
 90
        0
176
     1
 62
    18
420
        0
176
     1
 90
       50
176
     1
 90
        3
176
     1
 62
     5
420
      255
176
     1
290
     0
176
     1
 90
       50
176
     1
 90
       50
176
     1
 90
       50
176
     1
290
     0
176
     1
 90
       50
176
     1
 62
   256
176
     0
 40
1.0
176
     0
 90
        2
176
     1
  1
strokes_ogs.tif
176
     1
290
     0
176
     1
 40
1.0
176
     1
 40
1.0
176
     1
  0
VISUALSTYLE
  5
10032
102
{ACAD_REACTORS
330
1001C
102
}
330
1001C
100
AcDbVisualStyle
  2
JitterOff
 70
    20
177
     3
291
     1
 70
    58
 90
        2
176
     0
 90
        2
176
     0
 90
        0
176
     0
 90
        0
176
     0
 40
0.6
176
     0
 40
30.0
176
     0
 62
     7
420
 16777215
176
     0
 90
        1
176
     0
 90
        4
176
     0
 62
     7
176
     0
 62
   257
176
     0
 90
        1
176
     0
 90
        1
176
     0
 40
1.0
176
     0
 90
       10
176
     2
 62
     7
176
     0
 40
1.0
176
     0
 90
        1
176
     0
 90
        6
176
     0
 90
        2
176
     0
 62
     7
176
     0
 90
        5
176
     0
 90
        0
176
     0
 90
        0
176
     0
290
     0
176
     0
 90
        1
176
     0
 40
0.0
176
     0
 90
        0
176
     0
290
     0
176
     1
290
     1
176
     1
290
     1
176
     1
290
     0
176
     1
290
     0
176
     1
290
     0
176
     1
290
     0
176
     1
290
     0
176
     1
290
     0
176
     1
 90
       50
176
     0
 40
0.0
176
     0
 40
1.0
176
     0
 90
        0
176
     0
 62
    18
420
        0
176
     0
 90
       50
176
     0
 90
        3
176
     0
 62
     5
420
      255
176
     0
290
     0
176
     1
 90
       50
176
     0
 90
       50
176
     0
 90
       50
176
     0
290
     0
176
     1
 90
       50
176
     0
 62
   256
176
     0
 40
1.0
176
     0
 90
        2
176
     0
  1
strokes_ogs.tif
176
     0
290
     0
176
     1
 40
1.0
176
     0
 40
1.0
176
     0
  0
VISUALSTYLE
  5
1002A
102
{ACAD_REACTORS
330
1001C
102
}
330
1001C
100
AcDbVisualStyle
  2
Linepattern
 70
    14
177
     3
291
     1
 70
    58
 90
        2
176
     1
 90
        2
176
     1
 90
        0
176
     1
 90
        0
176
     1
 40
0.6
176
     1
 40
30.0
176
     1
 62
     7
420
 16777215
176
     1
 90
        1
176
     1
 90
        4
176
     1
 62
     7
176
     1
 62
   257
176
     1
 90
        7
176
     1
 90
        7
176
     1
 40
1.0
176
     1
 90
        8
176
     1
 62
     7
176
     1
 40
1.0
176
     1
 90
        1
176
     1
 90
        6
176
     1
 90
        2
176
     1
 62
     7
176
     1
 90
        5
176
     1
 90
        0
176
     1
 90
        0
176
     1
290
     0
176
     1
 90
        1
176
     1
 40
0.0
176
     1
 90
        0
176
     1
290
     0
176
     1
290
     1
176
     1
290
     1
176
     1
290
     0
176
     1
290
     0
176
     1
290
     0
176
     1
290
     0
176
     1
290
     0
176
     1
290
     0
176
     1
 90
       50
176
     1
 40
0.0
176
     1
 40
1.0
176
     1
 90
        0
176
     1
 62
    18
420
        0
176
     1
 90
       50
176
     1
 90
        3
176
     1
 62
     5
420
      255
176
     1
290
     0
176
     1
 90
       50
176
     1
 90
       50
176
     1
 90
       50
176
     1
290
     0
176
     1
 90
       50
176
     1
 62
   256
176
     0
 40
1.0
176
     0
 90
        2
176
     1
  1
strokes_ogs.tif
176
     1
290
     0
176
     1
 40
1.0
176
     1
 40
1.0
176
     1
  0
VISUALSTYLE
  5
10033
102
{ACAD_REACTORS
330
1001C
102
}
330
1001C
100
AcDbVisualStyle
  2
OverhangOff
 70
    21
177
     3
291
     1
 70
    58
 90
        2
176
     0
 90
        2
176
     0
 90
        0
176
     0
 90
        0
176
     0
 40
0.6
176
     0
 40
30.0
176
     0
 62
     7
420
 16777215
176
     0
 90
        1
176
     0
 90
        4
176
     0
 62
     7
176
     0
 62
   257
176
     0
 90
        1
176
     0
 90
        1
176
     0
 40
1.0
176
     0
 90
        9
176
     2
 62
     7
176
     0
 40
1.0
176
     0
 90
        1
176
     0
 90
        6
176
     0
 90
        2
176
     0
 62
     7
176
     0
 90
        5
176
     0
 90
        0
176
     0
 90
        0
176
     0
290
     0
176
     0
 90
        1
176
     0
 40
0.0
176
     0
 90
        0
176
     0
290
     0
176
     1
290
     1
176
     1
290
     1
176
     1
290
     0
176
     1
290
     0
176
     1
290
     0
176
     1
290
     0
176
     1
290
     0
176
     1
290
     0
176
     1
 90
       50
176
     0
 40
0.0
176
     0
 40
1.0
176
     0
 90
        0
176
     0
 62
    18
420
        0
176
     0
 90
       50
176
     0
 90
        3
176
     0
 62
     5
420
      255
176
     0
290
     0
176
     1
 90
       50
176
     0
 90
       50
176
     0
 90
       50
176
     0
290
     0
176
     1
 90
       50
176
     0
 62
   256
176
     0
 40
1.0
176
     0
 90
        2
176
     0
  1
strokes_ogs.tif
176
     0
290
     0
176
     1
 40
1.0
176
     0
 40
1.0
176
     0
  0
VISUALSTYLE
  5
10026
102
{ACAD_REACTORS
330
1001C
102
}
330
1001C
100
AcDbVisualStyle
  2
Realistic
 70
     8
177
     3
291
     0
 70
    58
 90
        2
176
     1
 90
        3
176
     1
 90
        0
176
     1
 90
        2
176
     1
 40
0.6
176
     1
 40
30.0
176
     1
 62
     7
420
 16777215
176
     1
 90
        0
176
     1
 90
        0
176
     1
 62
     7
176
     1
 62
   257
176
     1
 90
        1
176
     1
 90
        1
176
     1
 40
1.0
176
     1
 90
        8
176
     1
 62
   257
176
     1
 40
1.0
176
     1
 90
        1
176
     1
 90
        6
176
     1
 90
        2
176
     1
 62
     7
176
     1
 90
        3
176
     1
 90
        0
176
     1
 90
        0
176
     1
290
     0
176
     1
 90
       13
176
     1
 40
0.0
176
     1
 90
        0
176
     1
290
     0
176
     1
290
     1
176
     1
290
     1
176
     1
290
     0
176
     1
290
     0
176
     1
290
     0
176
     1
290
     0
176
     1
290
     0
176
     1
290
     0
176
     1
 90
       50
176
     1
 40
0.0
176
     1
 40
1.0
176
     1
 90
        0
176
     1
 62
    18
420
        0
176
     1
 90
       50
176
     1
 90
        3
176
     1
 62
     5
420
      255
176
     1
290
     0
176
     1
 90
       50
176
     1
 90
       50
176
     1
 90
       50
176
     1
290
     0
176
     1
 90
       50
176
     1
 62
   256
176
     0
 40
1.0
176
     0
 90
        2
176
     1
  1
strokes_ogs.tif
176
     1
290
     0
176
     1
 40
1.0
176
     1
 40
1.0
176
     1
  0
VISUALSTYLE
  5
10031
102
{ACAD_REACTORS
330
1001C
102
}
330
1001C
100
AcDbVisualStyle
  2
Shaded
 70
    27
177
     3
291
     0
 70
    58
 90
        2
176
     1
 90
        2
176
     1
 90
        1
176
     1
 90
        2
176
     1
 40
0.6
176
     1
 40
30.0
176
     1
 62
     7
420
 16777215
176
     1
 90
        0
176
     1
 90
        4
176
     1
 62
     7
176
     1
 62
   257
176
     1
 90
        1
176
     1
 90
        1
176
     1
 40
1.0
176
     1
 90
        8
176
     1
 62
   257
176
     1
 40
1.0
176
     1
 90
        1
176
     1
 90
        6
176
     1
 90
        2
176
     1
 62
     8
420
  7895160
176
     1
 90
        3
176
     1
 90
        0
176
     1
 90
        0
176
     1
290
     0
176
     1
 90
        5
176
     1
 40
0.0
176
     1
 90
        0
176
     1
290
     0
176
     1
290
     1
176
     1
290
     1
176
     1
290
     0
176
     1
290
     0
176
     1
290
     0
176
     1
290
     0
176
     1
290
     0
176
     1
290
     0
176
     1
 90
       50
176
     1
 40
0.0
176
     1
 40
1.0
176
     1
 90
        0
176
     1
 62
    18
420
        0
176
     1
 90
       50
176
     1
 90
        3
176
     1
 62
     5
420
      255
176
     1
290
     0
176
     1
 90
       50
176
     1
 90
       50
176
     1
 90
       50
176
     1
290
     0
176
     1
 90
       50
176
     1
 62
   256
176
     0
 40
1.0
176
     0
 90
        2
176
     1
  1
strokes_ogs.tif
176
     1
290
     0
176
     1
 40
1.0
176
     1
 40
1.0
176
     1
  0
VISUALSTYLE
  5
10030
102
{ACAD_REACTORS
330
1001C
102
}
330
1001C
100
AcDbVisualStyle
  2
Shaded with edges
 70
    26
177
     3
291
     0
 70
    58
 90
        2
176
     1
 90
        2
176
     1
 90
        1
176
     1
 90
        2
176
     1
 40
0.6
176
     1
 40
30.0
176
     1
 62
     7
420
 16777215
176
     1
 90
        1
176
     1
 90
       10
176
     1
 62
     7
176
     1
 62
   257
176
     1
 90
        2
176
     1
 90
        1
176
     1
 40
1.0
176
     1
 90
        8
176
     1
 62
   257
176
     1
 40
1.0
176
     1
 90
        1
176
     1
 90
        6
176
     1
 90
        2
176
     1
 62
     7
176
     1
 90
        3
176
     1
 90
        0
176
     1
 90
        0
176
     1
290
     0
176
     1
 90
        5
176
     1
 40
0.0
176
     1
 90
        0
176
     1
290
     0
176
     1
290
     1
176
     1
290
     1
176
     1
290
     0
176
     1
290
     0
176
     1
290
     0
176
     1
290
     0
176
     1
290
     0
176
     1
290
     0
176
     1
 90
       50
176
     1
 40
0.0
176
     1
 40
1.0
176
     1
 90
        0
176
     1
 62
    18
420
        0
176
     1
 90
       50
176
     1
 90
        3
176
     1
 62
     5
420
      255
176
     1
290
     0
176
     1
 90
       50
176
     1
 90
       50
176
     1
 90
       50
176
     1
290
     0
176
     1
 90
       50
176
     1
 62
   256
176
     0
 40
1.0
176
     0
 90
        2
176
     1
  1
strokes_ogs.tif
176
     1
290
     0
176
     1
 40
1.0
176
     1
 40
1.0
176
     1
  0
VISUALSTYLE
  5
1002D
102
{ACAD_REACTORS
330
1001C
102
}
330
1001C
100
AcDbVisualStyle
  2
Shades of Gray
 70
    23
177
     3
291
     0
 70
    58
 90
        2
176
     1
 90
        2
176
     1
 90
        3
176
     1
 90
        0
176
     1
 40
0.6
176
     1
 40
30.0
176
     1
 62
     7
420
 16777215
176
     1
 90
        2
176
     1
 90
        2
176
     1
 62
     7
176
     1
 62
     7
176
     1
 90
        1
176
     1
 90
        1
176
     1
 40
40.0
176
     1
 90
        8
176
     1
 62
     7
176
     1
 40
1.0
176
     1
 90
        1
176
     1
 90
        6
176
     1
 90
        2
176
     1
 62
     7
176
     1
 90
        3
176
     1
 90
        0
176
     1
 90
        0
176
     1
290
     0
176
     1
 90
        1
176
     1
 40
0.0
176
     1
 90
        0
176
     1
290
     0
176
     1
290
     1
176
     1
290
     1
176
     1
290
     0
176
     1
290
     0
176
     1
290
     0
176
     1
290
     0
176
     1
290
     0
176
     1
290
     0
176
     1
 90
       50
176
     1
 40
0.0
176
     1
 40
1.0
176
     1
 90
        0
176
     1
 62
    18
420
        0
176
     1
 90
       50
176
     1
 90
        3
176
     1
 62
     5
420
      255
176
     1
290
     0
176
     1
 90
       50
176
     1
 90
       50
176
     1
 90
       50
176
     1
290
     0
176
     1
 90
       50
176
     1
 62
   256
176
     0
 40
1.0
176
     0
 90
        2
176
     1
  1
strokes_ogs.tif
176
     1
290
     0
176
     1
 40
1.0
176
     1
 40
1.0
176
     1
  0
VISUALSTYLE
  5
1002E
102
{ACAD_REACTORS
330
1001C
102
}
330
1001C
100
AcDbVisualStyle
  2
Sketchy
 70
    24
177
     3
291
     0
 70
    58
 90
        1
176
     1
 90
        2
176
     1
 90
        2
176
     1
 90
        0
176
     1
 40
0.6
176
     1
 40
30.0
176
     1
 62
     7
420
 16777215
176
     1
 90
        2
176
     1
 90
        2
176
     1
 62
     7
176
     1
 62
     7
176
     1
 90
        1
176
     1
 90
        1
176
     1
 40
40.0
176
     1
 90
       11
176
     1
 62
     7
176
     1
 40
1.0
176
     1
 90
        1
176
     1
 90
        6
176
     1
 90
        2
176
     1
 62
     7
176
     1
 90
        6
176
     1
 90
        0
176
     1
 90
        0
176
     1
290
     0
176
     1
 90
        1
176
     1
 40
0.0
176
     1
 90
        0
176
     1
290
     0
176
     1
290
     1
176
     1
290
     1
176
     1
290
     0
176
     1
290
     0
176
     1
290
     0
176
     1
290
     0
176
     1
290
     0
176
     1
290
     0
176
     1
 90
       50
176
     1
 40
0.0
176
     1
 40
1.0
176
     1
 90
        0
176
     1
 62
    18
420
        0
176
     1
 90
       50
176
     1
 90
        3
176
     1
 62
     5
420
      255
176
     1
290
     0
176
     1
 90
       50
176
     1
 90
       50
176
     1
 90
       50
176
     1
290
     0
176
     1
 90
       50
176
     1
 62
   256
176
     0
 40
1.0
176
     0
 90
        2
176
     1
  1
strokes_ogs.tif
176
     1
290
     0
176
     1
 40
1.0
176
     1
 40
1.0
176
     1
  0
VISUALSTYLE
  5
10029
102
{ACAD_REACTORS
330
1001C
102
}
330
1001C
100
AcDbVisualStyle
  2
Thicken
 70
    13
177
     3
291
     1
 70
    58
 90
        2
176
     1
 90
        2
176
     1
 90
        0
176
     1
 90
        0
176
     1
 40
0.6
176
     1
 40
30.0
176
     1
 62
     7
420
 16777215
176
     1
 90
        1
176
     1
 90
        4
176
     1
 62
     7
176
     1
 62
   257
176
     1
 90
        1
176
     1
 90
        1
176
     1
 40
1.0
176
     1
 90
       12
176
     1
 62
     7
176
     1
 40
1.0
176
     1
 90
        1
176
     1
 90
        6
176
     1
 90
        2
176
     1
 62
     7
176
     1
 90
        5
176
     1
 90
        0
176
     1
 90
        0
176
     1
290
     0
176
     1
 90
        1
176
     1
 40
0.0
176
     1
 90
        0
176
     1
290
     0
176
     1
290
     1
176
     1
290
     1
176
     1
290
     0
176
     1
290
     0
176
     1
290
     0
176
     1
290
     0
176
     1
290
     0
176
     1
290
     0
176
     1
 90
       50
176
     1
 40
0.0
176
     1
 40
1.0
176
     1
 90
        0
176
     1
 62
    18
420
        0
176
     1
 90
       50
176
     1
 90
        3
176
     1
 62
     5
420
      255
176
     1
290
     0
176
     1
 90
       50
176
     1
 90
       50
176
     1
 90
       50
176
     1
290
     0
176
     1
 90
       50
176
     1
 62
   256
176
     0
 40
1.0
176
     0
 90
        2
176
     1
  1
strokes_ogs.tif
176
     1
290
     0
176
     1
 40
1.0
176
     1
 40
1.0
176
     1
  0
VISUALSTYLE
  5
10023
102
{ACAD_REACTORS
330
1001C
102
}
330
1001C
100
AcDbVisualStyle
  2
Wireframe
 70
     5
177
     3
291
     0
 70
    58
 90
        0
176
     1
 90
        2
176
     1
 90
        0
176
     1
 90
        0
176
     1
 40
0.6
176
     1
 40
30.0
176
     1
 62
     7
420
 16777215
176
     1
 90
        1
176
     1
 90
        4
176
     1
 62
     7
176
     1
 62
   257
176
     1
 90
        1
176
     1
 90
        1
176
     1
 40
1.0
176
     1
 90
        0
176
     1
 62
   257
176
     1
 40
1.0
176
     1
 90
        1
176
     1
 90
        6
176
     1
 90
        2
176
     1
 62
     7
176
     1
 90
        3
176
     1
 90
        0
176
     1
 90
        0
176
     1
290
     0
176
     1
 90
        1
176
     1
 40
0.0
176
     1
 90
        0
176
     1
290
     0
176
     1
290
     1
176
     1
290
     1
176
     1
290
     0
176
     1
290
     0
176
     1
290
     0
176
     1
290
     0
176
     1
290
     0
176
     1
290
     0
176
     1
 90
       50
176
     1
 40
0.0
176
     1
 40
1.0
176
     1
 90
        0
176
     1
 62
    18
420
        0
176
     1
 90
       50
176
     1
 90
        3
176
     1
 62
     5
420
      255
176
     1
290
     0
176
     1
 90
       50
176
     1
 90
       50
176
     1
 90
       50
176
     1
290
     0
176
     1
 90
       50
176
     1
 62
   256
176
     0
 40
1.0
176
     0
 90
        2
176
     1
  1
strokes_ogs.tif
176
     1
290
     0
176
     1
 40
1.0
176
     1
 40
1.0
176
     1
  0
VISUALSTYLE
  5
1002F
102
{ACAD_REACTORS
330
1001C
102
}
330
1001C
100
AcDbVisualStyle
  2
X-Ray
 70
    25
177
     3
291
     0
 70
    58
 90
        2
176
     1
 90
        2
176
     1
 90
        1
176
     1
 90
        1
176
     1
 40
0.5
176
     1
 40
30.0
176
     1
 62
     7
420
 16777215
176
     1
 90
        1
176
     1
 90
        0
176
     1
 62
     7
176
     1
 62
   257
176
     1
 90
        1
176
     1
 90
        1
176
     1
 40
1.0
176
     1
 90
        8
176
     1
 62
     7
176
     1
 40
1.0
176
     1
 90
        1
176
     1
 90
        6
176
     1
 90
        2
176
     1
 62
     7
176
     1
 90
        3
176
     1
 90
        0
176
     1
 90
        0
176
     1
290
     0
176
     1
 90
       13
176
     1
 40
0.0
176
     1
 90
        0
176
     1
290
     0
176
     1
290
     1
176
     1
290
     1
176
     1
290
     0
176
     1
290
     0
176
     1
290
     0
176
     1
290
     0
176
     1
290
     0
176
     1
290
     0
176
     1
 90
       50
176
     1
 40
0.0
176
     1
 40
1.0
176
     1
 90
        0
176
     1
 62
    18
420
        0
176
     1
 90
       50
176
     1
 90
        3
176
     1
 62
     5
420
      255
176
     1
290
     0
176
     1
 90
       50
176
     1
 90
       50
176
     1
 90
       50
176
     1
290
     0
176
     1
 90
       50
176
     1
 62
   256
176
     0
 40
1.0
176
     0
 90
        2
176
     1
  1
strokes_ogs.tif
176
     1
290
     0
176
     1
 40
1.0
176
     1
 40
1.0
176
     1
  0
DICTIONARYVAR
  5
10061
102
{ACAD_REACTORS
330
1005B
102
}
330
1005B
100
DictionaryVariables
280
     0
  1
1:1
  0
DICTIONARYVAR
  5
1005D
102
{ACAD_REACTORS
330
1005B
102
}
330
1005B
100
DictionaryVariables
280
     0
  1
STANDARD
  0
DICTIONARYVAR
  5
1005C
102
{ACAD_REACTORS
330
1005B
102
}
330
1005B
100
DictionaryVariables
280
     0
  1
STANDARD
  0
DICTIONARYVAR
  5
1005E
102
{ACAD_REACTORS
330
1005B
102
}
330
1005B
100
DictionaryVariables
280
     0
  1
Metric50
  0
DICTIONARYVAR
  5
1005F
102
{ACAD_REACTORS
330
1005B
102
}
330
1005B
100
DictionaryVariables
280
     0
  1
Metric50
  0
DICTIONARYVAR
  5
10063
102
{ACAD_REACTORS
330
1005B
102
}
330
1005B
100
DictionaryVariables
280
     0
  1
1
  0
DICTIONARYVAR
  5
10064
102
{ACAD_REACTORS
330
1005B
102
}
330
1005B
100
DictionaryVariables
280
     0
  1
15
  0
DICTIONARYVAR
  5
10062
102
{ACAD_REACTORS
330
1005B
102
}
330
1005B
100
DictionaryVariables
280
     0
  1
0
  0
DICTIONARYVAR
  5
10060
102
{ACAD_REACTORS
330
1005B
102
}
330
1005B
100
DictionaryVariables
280
     0
  1
0
  0
DICTIONARY
  5
1006A
330
1004F
100
AcDbDictionary
280
     1
281
     1
  3
ACAD_XREC_ROUNDTRIP
360
1006B
  0
DICTIONARY
  5
1000D
330
1000C
100
AcDbDictionary
280
     1
281
     1
  3
BUMPTILE
360
1000F
  3
DIFFUSETILE
360
1000E
  3
OPACITYTILE
360
10012
  3
REFLECTIONTILE
360
10011
  3
REFRACTIONTILE
360
10013
  3
SPECULARTILE
360
10010
  0
DICTIONARY
  5
10005
330
10004
100
AcDbDictionary
280
     1
281
     1
  3
BUMPTILE
360
10007
  3
DIFFUSETILE
360
10006
  3
OPACITYTILE
360
1000A
  3
REFLECTIONTILE
360
10009
  3
REFRACTIONTILE
360
1000B
  3
SPECULARTILE
360
10008
  0
DICTIONARY
  5
10015
330
10014
100
AcDbDictionary
280
     1
281
     1
  3
BUMPTILE
360
10017
  3
DIFFUSETILE
360
10016
  3
OPACITYTILE
360
1001A
  3
REFLECTIONTILE
360
10019
  3
REFRACTIONTILE
360
1001B
  3
SPECULARTILE
360
10018
  0
DICTIONARY
  5
10068
330
1004D
100
AcDbDictionary
280
     1
281
     1
  3
ACAD_XREC_ROUNDTRIP
360
10069
  0
DICTIONARY
  5
10066
330
10037
100
AcDbDictionary
280
     1
281
     1
  3
ACAD_ROUNDTRIP_2008_TABLESTYLE_CELLSTYLEMAP
360
10067
  0
XRECORD
  5
1006B
102
{ACAD_REACTORS
330
1006A
102
}
330
1006A
100
AcDbXrecord
280
     1
102
DISPLAYNAME
  1
Metric50
102
FLAGS
 90
        0
  0
XRECORD
  5
1000F
102
{ACAD_REACTORS
330
1000D
102
}
330
1000D
100
AcDbXrecord
280
     1
270
     1
271
     1
  0
XRECORD
  5
1000E
102
{ACAD_REACTORS
330
1000D
102
}
330
1000D
100
AcDbXrecord
280
     1
270
     1
271
     1
  0
XRECORD
  5
10012
102
{ACAD_REACTORS
330
1000D
102
}
330
1000D
100
AcDbXrecord
280
     1
270
     1
271
     1
  0
XRECORD
  5
10011
102
{ACAD_REACTORS
330
1000D
102
}
330
1000D
100
AcDbXrecord
280
     1
270
     1
271
     1
  0
XRECORD
  5
10013
102
{ACAD_REACTORS
330
1000D
102
}
330
1000D
100
AcDbXrecord
280
     1
270
     1
271
     1
  0
XRECORD
  5
10010
102
{ACAD_REACTORS
330
1000D
102
}
330
1000D
100
AcDbXrecord
280
     1
270
     1
271
     1
  0
XRECORD
  5
10007
102
{ACAD_REACTORS
330
10005
102
}
330
10005
100
AcDbXrecord
280
     1
270
     1
271
     1
  0
XRECORD
  5
10006
102
{ACAD_REACTORS
330
10005
102
}
330
10005
100
AcDbXrecord
280
     1
270
     1
271
     1
  0
XRECORD
  5
1000A
102
{ACAD_REACTORS
330
10005
102
}
330
10005
100
AcDbXrecord
280
     1
270
     1
271
     1
  0
XRECORD
  5
10009
102
{ACAD_REACTORS
330
10005
102
}
330
10005
100
AcDbXrecord
280
     1
270
     1
271
     1
  0
XRECORD
  5
1000B
102
{ACAD_REACTORS
330
10005
102
}
330
10005
100
AcDbXrecord
280
     1
270
     1
271
     1
  0
XRECORD
  5
10008
102
{ACAD_REACTORS
330
10005
102
}
330
10005
100
AcDbXrecord
280
     1
270
     1
271
     1
  0
XRECORD
  5
10017
102
{ACAD_REACTORS
330
10015
102
}
330
10015
100
AcDbXrecord
280
     1
270
     1
271
     1
  0
XRECORD
  5
10016
102
{ACAD_REACTORS
330
10015
102
}
330
10015
100
AcDbXrecord
280
     1
270
     1
271
     1
  0
XRECORD
  5
1001A
102
{ACAD_REACTORS
330
10015
102
}
330
10015
100
AcDbXrecord
280
     1
270
     1
271
     1
  0
XRECORD
  5
10019
102
{ACAD_REACTORS
330
10015
102
}
330
10015
100
AcDbXrecord
280
     1
270
     1
271
     1
  0
XRECORD
  5
1001B
102
{ACAD_REACTORS
330
10015
102
}
330
10015
100
AcDbXrecord
280
     1
270
     1
271
     1
  0
XRECORD
  5
10018
102
{ACAD_REACTORS
330
10015
102
}
330
10015
100
AcDbXrecord
280
     1
270
     1
271
     1
  0
XRECORD
  5
10069
102
{ACAD_REACTORS
330
10068
102
}
330
10068
100
AcDbXrecord
280
     1
102
DISPLAYNAME
  1
Metric50
102
FLAGS
 90
        0
  0
CELLSTYLEMAP
  5
10067
102
{ACAD_REACTORS
330
10066
102
}
330
10066
100
AcDbCellStyleMap
 90
        3
300
CELLSTYLE
  1
TABLEFORMAT_BEGIN
 90
        5
170
     1
 91
        0
 92
    32768
 62
   257
 93
        1
300
CONTENTFORMAT
  1
CONTENTFORMAT_BEGIN
 90
        0
 91
        0
 92
      512
 93
        0
300

 40
0.0
140
1.0
 94
        5
 62
     0
340
11
144
6.0
309
CONTENTFORMAT_END
171
     1
301
MARGIN
  1
CELLMARGIN_BEGIN
 40
1.5
 40
1.5
 40
1.5
 40
1.5
 40
4.5
 40
4.5
309
CELLMARGIN_END
 94
        6
 95
        1
302
GRIDFORMAT
  1
GRIDFORMAT_BEGIN
 90
        0
 91
        1
 62
     0
 92
       -2
340
0
 93
        0
 40
1.125
309
GRIDFORMAT_END
 95
        2
302
GRIDFORMAT
  1
GRIDFORMAT_BEGIN
 90
        0
 91
        1
 62
     0
 92
       -2
340
0
 93
        0
 40
1.125
309
GRIDFORMAT_END
 95
        4
302
GRIDFORMAT
  1
GRIDFORMAT_BEGIN
 90
        0
 91
        1
 62
     0
 92
       -2
340
0
 93
        0
 40
1.125
309
GRIDFORMAT_END
 95
        8
302
GRIDFORMAT
  1
GRIDFORMAT_BEGIN
 90
        0
 91
        1
 62
     0
 92
       -2
340
0
 93
        0
 40
1.125
309
GRIDFORMAT_END
 95
       16
302
GRIDFORMAT
  1
GRIDFORMAT_BEGIN
 90
        0
 91
        1
 62
     0
 92
       -2
340
0
 93
        0
 40
1.125
309
GRIDFORMAT_END
 95
       32
302
GRIDFORMAT
  1
GRIDFORMAT_BEGIN
 90
        0
 91
        1
 62
     0
 92
       -2
340
0
 93
        0
 40
1.125
309
GRIDFORMAT_END
309
TABLEFORMAT_END
  1
CELLSTYLE_BEGIN
 90
        1
 91
        1
300
_TITLE
309
CELLSTYLE_END
300
CELLSTYLE
  1
TABLEFORMAT_BEGIN
 90
        5
170
     1
 91
        0
 92
        0
 62
   257
 93
        1
300
CONTENTFORMAT
  1
CONTENTFORMAT_BEGIN
 90
        0
 91
        0
 92
      512
 93
        0
300

 40
0.0
140
1.0
 94
        5
 62
     0
340
11
144
4.5
309
CONTENTFORMAT_END
171
     1
301
MARGIN
  1
CELLMARGIN_BEGIN
 40
1.5
 40
1.5
 40
1.5
 40
1.5
 40
4.5
 40
4.5
309
CELLMARGIN_END
 94
        6
 95
        1
302
GRIDFORMAT
  1
GRIDFORMAT_BEGIN
 90
        0
 91
        1
 62
     0
 92
       -2
340
0
 93
        0
 40
1.125
309
GRIDFORMAT_END
 95
        2
302
GRIDFORMAT
  1
GRIDFORMAT_BEGIN
 90
        0
 91
        1
 62
     0
 92
       -2
340
0
 93
        0
 40
1.125
309
GRIDFORMAT_END
 95
        4
302
GRIDFORMAT
  1
GRIDFORMAT_BEGIN
 90
        0
 91
        1
 62
     0
 92
       -2
340
0
 93
        0
 40
1.125
309
GRIDFORMAT_END
 95
        8
302
GRIDFORMAT
  1
GRIDFORMAT_BEGIN
 90
        0
 91
        1
 62
     0
 92
       -2
340
0
 93
        0
 40
1.125
309
GRIDFORMAT_END
 95
       16
302
GRIDFORMAT
  1
GRIDFORMAT_BEGIN
 90
        0
 91
        1
 62
     0
 92
       -2
340
0
 93
        0
 40
1.125
309
GRIDFORMAT_END
 95
       32
302
GRIDFORMAT
  1
GRIDFORMAT_BEGIN
 90
        0
 91
        1
 62
     0
 92
       -2
340
0
 93
        0
 40
1.125
309
GRIDFORMAT_END
309
TABLEFORMAT_END
  1
CELLSTYLE_BEGIN
 90
        2
 91
        1
300
_HEADER
309
CELLSTYLE_END
300
CELLSTYLE
  1
TABLEFORMAT_BEGIN
 90
        5
170
     1
 91
        0
 92
        0
 62
   257
 93
        1
300
CONTENTFORMAT
  1
CONTENTFORMAT_BEGIN
 90
        0
 91
        0
 92
      512
 93
        0
300

 40
0.0
140
1.0
 94
        2
 62
     0
340
11
144
4.5
309
CONTENTFORMAT_END
171
     1
301
MARGIN
  1
CELLMARGIN_BEGIN
 40
1.5
 40
1.5
 40
1.5
 40
1.5
 40
4.5
 40
4.5
309
CELLMARGIN_END
 94
        6
 95
        1
302
GRIDFORMAT
  1
GRIDFORMAT_BEGIN
 90
        0
 91
        1
 62
     0
 92
       -2
340
0
 93
        0
 40
1.125
309
GRIDFORMAT_END
 95
        2
302
GRIDFORMAT
  1
GRIDFORMAT_BEGIN
 90
        0
 91
        1
 62
     0
 92
       -2
340
0
 93
        0
 40
1.125
309
GRIDFORMAT_END
 95
        4
302
GRIDFORMAT
  1
GRIDFORMAT_BEGIN
 90
        0
 91
        1
 62
     0
 92
       -2
340
0
 93
        0
 40
1.125
309
GRIDFORMAT_END
 95
        8
302
GRIDFORMAT
  1
GRIDFORMAT_BEGIN
 90
        0
 91
        1
 62
     0
 92
       -2
340
0
 93
        0
 40
1.125
309
GRIDFORMAT_END
 95
       16
302
GRIDFORMAT
  1
GRIDFORMAT_BEGIN
 90
        0
 91
        1
 62
     0
 92
       -2
340
0
 93
        0
 40
1.125
309
GRIDFORMAT_END
 95
       32
302
GRIDFORMAT
  1
GRIDFORMAT_BEGIN
 90
        0
 91
        1
 62
     0
 92
       -2
340
0
 93
        0
 40
1.125
309
GRIDFORMAT_END
309
TABLEFORMAT_END
  1
CELLSTYLE_BEGIN
 90
        3
 91
        2
300
_DATA
309
CELLSTYLE_END
  0
ENDSEC
  0
EOF
