  0
SECTION
  2
HEADER
  9
$ACADVER
  1
AC1014
  9
$HANDSEED
  5
FFFF
  9
$MEASUREMENT
 70
     1
  0
ENDSEC
  0
SECTION
  2
TABLES
  0
TABLE
  2
VPORT
  5
8
330
0
100
AcDbSymbolTable
 70
     4
  0
VPORT
  5
2E
330
8
100
AcDbSymbolTableRecord
100
AcDbViewportTableRecord
  2
*ACTIVE
 70
     0
 10
0.0
 20
0.0
 11
1.0
 21
1.0
 12
210.0
 22
148.5
 13
0.0
 23
0.0
 14
10.0
 24
10.0
 15
10.0
 25
10.0
 16
0.0
 26
0.0
 36
1.0
 17
0.0
 27
0.0
 37
0.0
 40
341.0
 41
1.24
 42
50.0
 43
0.0
 44
0.0
 50
0.0
 51
0.0
 71
     0
 72
   100
 73
     1
 74
     3
 75
     0
 76
     0
 77
     0
 78
     0
  0
ENDTAB
  0
TABLE
  2
LTYPE
  5
5
330
0
100
AcDbSymbolTable
 70
     1
  0
LTYPE
  5
14
330
5
100
AcDbSymbolTableRecord
100
AcDbLinetypeTableRecord
  2
BYBLOCK
 70
     0
  3

 72
    65
 73
     0
 40
0.0
  0
LTYPE
  5
15
330
5
100
AcDbSymbolTableRecord
100
AcDbLinetypeTableRecord
  2
BYLAYER
 70
     0
  3

 72
    65
 73
     0
 40
0.0
  0
LTYPE
  5
16
330
5
100
AcDbSymbolTableRecord
100
AcDbLinetypeTableRecord
  2
CONTINUOUS
 70
     0
  3
Solid line
 72
    65
 73
     0
 40
0.0
  0
ENDTAB
  0
TABLE
  2
LAYER
  5
2
100
AcDbSymbolTable
 70
2
  0
LAYER
  5
50
100
AcDbSymbolTableRecord
100
AcDbLayerTableRecord
  2
0
 70
0
  6
CONTINUOUS
  0
LAYER
  5
51
100
AcDbSymbolTableRecord
100
AcDbLayerTableRecord
  2
Layer_1
 70
0
  6
CONTINUOUS
  0
ENDTAB
  0
TABLE
  2
STYLE
  5
3
330
0
100
AcDbSymbolTable
 70
     1
  0
STYLE
  5
11
330
3
100
AcDbSymbolTableRecord
100
AcDbTextStyleTableRecord
  2
STANDARD
 70
     0
 40
0.0
 41
1.0
 50
0.0
 71
     0
 42
2.5
  3
txt
  4

  0
ENDTAB
  0
TABLE
  2
VIEW
  5
6
330
0
100
AcDbSymbolTable
 70
     0
  0
ENDTAB
  0
TABLE
  2
UCS
  5
7
330
0
100
AcDbSymbolTable
 70
     0
  0
ENDTAB
  0
TABLE
  2
APPID
  5
9
330
0
100
AcDbSymbolTable
 70
     2
  0
APPID
  5
12
330
9
100
AcDbSymbolTableRecord
100
AcDbRegAppTableRecord
  2
ACAD
 70
     0
  0
ENDTAB
  0
TABLE
  2
DIMSTYLE
  5
A
330
0
100
AcDbSymbolTable
 70
     1
  0
DIMSTYLE
105
27
330
A
100
AcDbSymbolTableRecord
100
AcDbDimStyleTableRecord
  2
ISO-25
 70
     0
  3

  4

  5

  6

  7

 40
1.0
 41
2.5
 42
0.625
 43
3.75
 44
1.25
 45
0.0
 46
0.0
 47
0.0
 48
0.0
140
2.5
141
2.5
142
0.0
143
0.03937007874016
144
1.0
145
0.0
146
1.0
147
0.625
 71
     0
 72
     0
 73
     0
 74
     0
 75
     0
 76
     0
 77
     1
 78
     8
170
     0
171
     3
172
     1
173
     0
174
     0
175
     0
176
     0
177
     0
178
     0
270
     2
271
     2
272
     2
273
     2
274
     3
340
11
275
     0
280
     0
281
     0
282
     0
283
     0
284
     8
285
     0
286
     0
287
     3
288
     0
  0
ENDTAB
  0
TABLE
  2
BLOCK_RECORD
  5
1
330
0
100
AcDbSymbolTable
 70
     1
  0
BLOCK_RECORD
  5
1F
330
1
100
AcDbSymbolTableRecord
100
AcDbBlockTableRecord
  2
*MODEL_SPACE
  0
BLOCK_RECORD
  5
1B
330
1
100
AcDbSymbolTableRecord
100
AcDbBlockTableRecord
  2
*PAPER_SPACE
  0
ENDTAB
  0
ENDSEC
  0
SECTION
  2
BLOCKS
  0
BLOCK
  5
20
330
1F
100
AcDbEntity
  8
0
100
AcDbBlockBegin
  2
*MODEL_SPACE
 70
     0
 10
0.0
 20
0.0
 30
0.0
  3
*MODEL_SPACE
  1

  0
ENDBLK
  5
21
330
1F
100
AcDbEntity
  8
0
100
AcDbBlockEnd
  0
BLOCK
  5
1C
330
1B
100
AcDbEntity
 67
     1
  8
0
100
AcDbBlockBegin
  2
*PAPER_SPACE
  1

  0
ENDBLK
  5
1D
330
1B
100
AcDbEntity
 67
     1
  8
0
100
AcDbBlockEnd
  0
ENDSEC
  0
SECTION
  2
ENTITIES
  0
SPLINE
  5
100
100
AcDbEntity
  8
Layer_1
 62
7
100
AcDbSpline
 70
0
 71
3
 72
25
 73
21
 74
19
 40
0.000000
 40
0.000000
 40
0.000000
 40
0.000000
 40
0.567067
 40
1.126017
 40
1.693083
 40
2.260150
 40
2.819101
 40
3.386169
 40
3.953235
 40
4.512185
 40
5.079252
 40
5.646319
 40
6.205269
 40
6.772335
 40
7.339403
 40
7.898353
 40
8.465420
 40
9.032487
 40
9.591437
 40
10.158504
 40
10.158504
 40
10.158504
 40
10.158504
 10
103.275001
 20
209.999993
 30
0.0
 10
103.294417
 20
210.189980
 30
0.0
 10
103.332970
 20
210.567233
 30
0.0
 10
103.632078
 20
211.065779
 30
0.0
 10
104.070024
 20
211.436434
 30
0.0
 10
104.612336
 20
211.633019
 30
0.0
 10
105.187791
 20
211.633019
 30
0.0
 10
105.729344
 20
211.436434
 30
0.0
 10
106.170322
 20
211.065779
 30
0.0
 10
106.458162
 20
210.567233
 30
0.0
 10
106.558662
 20
209.999993
 30
0.0
 10
106.458162
 20
209.432754
 30
0.0
 10
106.170322
 20
208.934207
 30
0.0
 10
105.729344
 20
208.563553
 30
0.0
 10
105.187791
 20
208.366968
 30
0.0
 10
104.612336
 20
208.366968
 30
0.0
 10
104.070024
 20
208.563553
 30
0.0
 10
103.632078
 20
208.934207
 30
0.0
 10
103.332970
 20
209.432754
 30
0.0
 10
103.294417
 20
209.810007
 30
0.0
 10
103.275001
 20
209.999993
 30
0.0
 11
103.275001
 21
209.999993
 31
0.0
 11
103.373921
 21
210.558365
 31
0.0
 11
103.653397
 21
211.042431
 31
0.0
 11
104.087501
 21
211.407283
 31
0.0
 11
104.620526
 21
211.600803
 31
0.0
 11
105.179477
 21
211.600803
 31
0.0
 11
105.712501
 21
211.407283
 31
0.0
 11
106.146606
 21
211.042431
 31
0.0
 11
106.426081
 21
210.558365
 31
0.0
 11
106.525001
 21
209.999993
 31
0.0
 11
106.426081
 21
209.441621
 31
0.0
 11
106.146606
 21
208.957556
 31
0.0
 11
105.712501
 21
208.592704
 31
0.0
 11
105.179477
 21
208.399184
 31
0.0
 11
104.620526
 21
208.399184
 31
0.0
 11
104.087501
 21
208.592704
 31
0.0
 11
103.653397
 21
208.957556
 31
0.0
 11
103.373921
 21
209.441621
 31
0.0
 11
103.275001
 21
209.999993
 31
0.0
  0
LINE
  5
101
100
AcDbEntity
  8
Layer_1
 62
7
100
AcDbLine
 10
103.275001
 20
209.999993
 30
0.0
 11
103.275001
 21
209.999993
 31
0.0
  0
LINE
  5
102
100
AcDbEntity
  8
Layer_1
 62
7
100
AcDbLine
 10
131.175001
 20
209.999993
 30
0.0
 11
131.175001
 21
209.999993
 31
0.0
  0
LINE
  5
103
100
AcDbEntity
  8
Layer_1
 62
7
100
AcDbLine
 10
156.800002
 20
0.000001
 30
0.0
 11
136.800000
 21
0.000001
 31
0.0
  0
LINE
  5
104
100
AcDbEntity
  8
Layer_1
 62
7
100
AcDbLine
 10
136.800000
 20
0.000001
 30
0.0
 11
116.800001
 21
19.999990
 31
0.0
  0
LINE
  5
105
100
AcDbEntity
  8
Layer_1
 62
7
100
AcDbLine
 10
40.000002
 20
19.999990
 30
0.0
 11
116.800001
 21
19.999990
 31
0.0
  0
LINE
  5
106
100
AcDbEntity
  8
Layer_1
 62
7
100
AcDbLine
 10
40.000002
 20
19.999990
 30
0.0
 11
20.000002
 21
0.000001
 31
0.0
  0
LINE
  5
107
100
AcDbEntity
  8
Layer_1
 62
7
100
AcDbLine
 10
20.000002
 20
0.000001
 30
0.0
 11
-0.000000
 21
0.000001
 31
0.0
  0
LINE
  5
108
100
AcDbEntity
  8
Layer_1
 62
7
100
AcDbLine
 10
0.000000
 20
238.999992
 30
0.0
 11
0.000000
 21
0.000001
 31
0.0
  0
LINE
  5
109
100
AcDbEntity
  8
Layer_1
 62
7
100
AcDbLine
 10
0.000000
 20
238.999992
 30
0.0
 11
156.800002
 21
238.999992
 31
0.0
  0
SPLINE
  5
10a
100
AcDbEntity
  8
Layer_1
 62
7
100
AcDbSpline
 70
0
 71
3
 72
25
 73
21
 74
19
 40
0.000000
 40
0.000000
 40
0.000000
 40
0.000000
 40
0.567067
 40
1.126017
 40
1.693084
 40
2.260151
 40
2.819102
 40
3.386168
 40
3.953235
 40
4.512186
 40
5.079252
 40
5.646319
 40
6.205270
 40
6.772337
 40
7.339403
 40
7.898354
 40
8.465421
 40
9.032488
 40
9.591438
 40
10.158505
 40
10.158505
 40
10.158505
 40
10.158505
 10
131.175001
 20
209.999993
 30
0.0
 10
131.194416
 20
210.189980
 30
0.0
 10
131.232969
 20
210.567233
 30
0.0
 10
131.532077
 20
211.065780
 30
0.0
 10
131.970024
 20
211.436434
 30
0.0
 10
132.512336
 20
211.633019
 30
0.0
 10
133.087791
 20
211.633019
 30
0.0
 10
133.629343
 20
211.436434
 30
0.0
 10
134.070323
 20
211.065780
 30
0.0
 10
134.358163
 20
210.567233
 30
0.0
 10
134.458662
 20
209.999993
 30
0.0
 10
134.358163
 20
209.432754
 30
0.0
 10
134.070323
 20
208.934207
 30
0.0
 10
133.629343
 20
208.563553
 30
0.0
 10
133.087791
 20
208.366967
 30
0.0
 10
132.512336
 20
208.366967
 30
0.0
 10
131.970024
 20
208.563553
 30
0.0
 10
131.532077
 20
208.934207
 30
0.0
 10
131.232969
 20
209.432754
 30
0.0
 10
131.194416
 20
209.810007
 30
0.0
 10
131.175001
 20
209.999993
 30
0.0
 11
131.175001
 21
209.999993
 31
0.0
 11
131.273921
 21
210.558365
 31
0.0
 11
131.553396
 21
211.042431
 31
0.0
 11
131.987502
 21
211.407283
 31
0.0
 11
132.520526
 21
211.600803
 31
0.0
 11
133.079477
 21
211.600803
 31
0.0
 11
133.612501
 21
211.407283
 31
0.0
 11
134.046606
 21
211.042431
 31
0.0
 11
134.326082
 21
210.558365
 31
0.0
 11
134.425001
 21
209.999993
 31
0.0
 11
134.326082
 21
209.441621
 31
0.0
 11
134.046606
 21
208.957556
 31
0.0
 11
133.612501
 21
208.592704
 31
0.0
 11
133.079477
 21
208.399184
 31
0.0
 11
132.520526
 21
208.399184
 31
0.0
 11
131.987502
 21
208.592704
 31
0.0
 11
131.553396
 21
208.957556
 31
0.0
 11
131.273921
 21
209.441621
 31
0.0
 11
131.175001
 21
209.999993
 31
0.0
  0
LINE
  5
10b
100
AcDbEntity
  8
Layer_1
 62
7
100
AcDbLine
 10
156.800002
 20
0.000001
 30
0.0
 11
156.800002
 21
238.999992
 31
0.0
  0
SPLINE
  5
10c
100
AcDbEntity
  8
Layer_1
 62
7
100
AcDbSpline
 70
0
 71
3
 72
25
 73
21
 74
19
 40
0.000000
 40
0.000000
 40
0.000000
 40
0.000000
 40
0.916035
 40
1.818960
 40
2.734994
 40
3.651024
 40
4.553945
 40
5.469977
 40
6.386009
 40
7.288934
 40
8.204969
 40
9.121003
 40
10.023928
 40
10.939961
 40
11.855992
 40
12.758913
 40
13.674943
 40
14.590977
 40
15.493903
 40
16.409937
 40
16.409937
 40
16.409937
 40
16.409937
 10
7.375000
 20
25.499993
 30
0.0
 10
7.406364
 20
25.806895
 30
0.0
 10
7.468642
 20
26.416307
 30
0.0
 10
7.951817
 20
27.221656
 30
0.0
 10
8.659268
 20
27.820411
 30
0.0
 10
9.535312
 20
28.137971
 30
0.0
 10
10.464893
 20
28.137970
 30
0.0
 10
11.339711
 20
27.820412
 30
0.0
 10
12.052059
 20
27.221655
 30
0.0
 10
12.517031
 20
26.416307
 30
0.0
 10
12.679377
 20
25.499993
 30
0.0
 10
12.517031
 20
24.583678
 30
0.0
 10
12.052059
 20
23.778330
 30
0.0
 10
11.339711
 20
23.179574
 30
0.0
 10
10.464893
 20
22.862015
 30
0.0
 10
9.535312
 20
22.862015
 30
0.0
 10
8.659268
 20
23.179575
 30
0.0
 10
7.951817
 20
23.778330
 30
0.0
 10
7.468642
 20
24.583678
 30
0.0
 10
7.406364
 20
25.193091
 30
0.0
 10
7.375000
 20
25.499993
 30
0.0
 11
7.375000
 21
25.499993
 31
0.0
 11
7.534794
 21
26.401982
 31
0.0
 11
7.986256
 21
27.183939
 31
0.0
 11
8.687503
 21
27.773321
 31
0.0
 11
9.548541
 21
28.085929
 31
0.0
 11
10.451462
 21
28.085929
 31
0.0
 11
11.312502
 21
27.773321
 31
0.0
 11
12.013747
 21
27.183939
 31
0.0
 11
12.465208
 21
26.401982
 31
0.0
 11
12.625002
 21
25.499993
 31
0.0
 11
12.465208
 21
24.598003
 31
0.0
 11
12.013747
 21
23.816046
 31
0.0
 11
11.312502
 21
23.226664
 31
0.0
 11
10.451462
 21
22.914056
 31
0.0
 11
9.548541
 21
22.914056
 31
0.0
 11
8.687503
 21
23.226664
 31
0.0
 11
7.986256
 21
23.816046
 31
0.0
 11
7.534794
 21
24.598003
 31
0.0
 11
7.375000
 21
25.499993
 31
0.0
  0
LINE
  5
10d
100
AcDbEntity
  8
Layer_1
 62
7
100
AcDbLine
 10
7.375000
 20
25.499993
 30
0.0
 11
7.375000
 21
25.499993
 31
0.0
  0
SPLINE
  5
10e
100
AcDbEntity
  8
Layer_1
 62
7
100
AcDbSpline
 70
0
 71
3
 72
25
 73
21
 74
19
 40
0.000000
 40
0.000000
 40
0.000000
 40
0.000000
 40
0.916035
 40
1.818960
 40
2.734992
 40
3.651024
 40
4.553945
 40
5.469975
 40
6.386008
 40
7.288934
 40
8.204969
 40
9.121003
 40
10.023929
 40
10.939963
 40
11.855993
 40
12.758913
 40
13.674945
 40
14.590977
 40
15.493903
 40
16.409937
 40
16.409937
 40
16.409937
 40
16.409937
 10
144.175000
 20
25.499993
 30
0.0
 10
144.206364
 20
25.806895
 30
0.0
 10
144.268642
 20
26.416307
 30
0.0
 10
144.751816
 20
27.221655
 30
0.0
 10
145.459266
 20
27.820412
 30
0.0
 10
146.335311
 20
28.137970
 30
0.0
 10
147.264892
 20
28.137971
 30
0.0
 10
148.139709
 20
27.820411
 30
0.0
 10
148.852058
 20
27.221656
 30
0.0
 10
149.317031
 20
26.416307
 30
0.0
 10
149.479377
 20
25.499993
 30
0.0
 10
149.317031
 20
24.583678
 30
0.0
 10
148.852058
 20
23.778330
 30
0.0
 10
148.139709
 20
23.179575
 30
0.0
 10
147.264892
 20
22.862015
 30
0.0
 10
146.335311
 20
22.862015
 30
0.0
 10
145.459266
 20
23.179574
 30
0.0
 10
144.751816
 20
23.778330
 30
0.0
 10
144.268642
 20
24.583678
 30
0.0
 10
144.206364
 20
25.193091
 30
0.0
 10
144.175000
 20
25.499993
 30
0.0
 11
144.175000
 21
25.499993
 31
0.0
 11
144.334794
 21
26.401982
 31
0.0
 11
144.786255
 21
27.183939
 31
0.0
 11
145.487500
 21
27.773321
 31
0.0
 11
146.348540
 21
28.085929
 31
0.0
 11
147.251461
 21
28.085929
 31
0.0
 11
148.112500
 21
27.773321
 31
0.0
 11
148.813747
 21
27.183939
 31
0.0
 11
149.265208
 21
26.401982
 31
0.0
 11
149.425002
 21
25.499993
 31
0.0
 11
149.265208
 21
24.598003
 31
0.0
 11
148.813747
 21
23.816046
 31
0.0
 11
148.112500
 21
23.226664
 31
0.0
 11
147.251461
 21
22.914056
 31
0.0
 11
146.348540
 21
22.914056
 31
0.0
 11
145.487500
 21
23.226664
 31
0.0
 11
144.786255
 21
23.816046
 31
0.0
 11
144.334794
 21
24.598003
 31
0.0
 11
144.175000
 21
25.499993
 31
0.0
  0
LINE
  5
10f
100
AcDbEntity
  8
Layer_1
 62
7
100
AcDbLine
 10
144.175000
 20
25.499993
 30
0.0
 11
144.175000
 21
25.499993
 31
0.0
  0
SPLINE
  5
110
100
AcDbEntity
  8
Layer_1
 62
7
100
AcDbSpline
 70
0
 71
3
 72
25
 73
21
 74
19
 40
0.000000
 40
0.000000
 40
0.000000
 40
0.000000
 40
0.916030
 40
1.818952
 40
2.734984
 40
3.651014
 40
4.553935
 40
5.469967
 40
6.385998
 40
7.288919
 40
8.204949
 40
9.120980
 40
10.023901
 40
10.939931
 40
11.855963
 40
12.758884
 40
13.674914
 40
14.590946
 40
15.493868
 40
16.409898
 40
16.409898
 40
16.409898
 40
16.409898
 10
7.375000
 20
125.499993
 30
0.0
 10
7.406364
 20
125.806894
 30
0.0
 10
7.468642
 20
126.416304
 30
0.0
 10
7.951818
 20
127.221648
 30
0.0
 10
8.659269
 20
127.820400
 30
0.0
 10
9.535312
 20
128.137960
 30
0.0
 10
10.464893
 20
128.137959
 30
0.0
 10
11.339710
 20
127.820401
 30
0.0
 10
12.052058
 20
127.221647
 30
0.0
 10
12.517031
 20
126.416303
 30
0.0
 10
12.679377
 20
125.499993
 30
0.0
 10
12.517031
 20
124.583683
 30
0.0
 10
12.052058
 20
123.778339
 30
0.0
 10
11.339710
 20
123.179585
 30
0.0
 10
10.464893
 20
122.862027
 30
0.0
 10
9.535312
 20
122.862026
 30
0.0
 10
8.659269
 20
123.179587
 30
0.0
 10
7.951818
 20
123.778338
 30
0.0
 10
7.468642
 20
124.583683
 30
0.0
 10
7.406364
 20
125.193092
 30
0.0
 10
7.375000
 20
125.499993
 30
0.0
 11
7.375000
 21
125.499993
 31
0.0
 11
7.534794
 21
126.401978
 31
0.0
 11
7.986256
 21
127.183931
 31
0.0
 11
8.687503
 21
127.773310
 31
0.0
 11
9.548541
 21
128.085918
 31
0.0
 11
10.451462
 21
128.085918
 31
0.0
 11
11.312502
 21
127.773310
 31
0.0
 11
12.013747
 21
127.183931
 31
0.0
 11
12.465208
 21
126.401978
 31
0.0
 11
12.625002
 21
125.499993
 31
0.0
 11
12.465208
 21
124.598008
 31
0.0
 11
12.013747
 21
123.816055
 31
0.0
 11
11.312502
 21
123.226676
 31
0.0
 11
10.451462
 21
122.914068
 31
0.0
 11
9.548541
 21
122.914068
 31
0.0
 11
8.687503
 21
123.226676
 31
0.0
 11
7.986256
 21
123.816055
 31
0.0
 11
7.534794
 21
124.598008
 31
0.0
 11
7.375000
 21
125.499993
 31
0.0
  0
LINE
  5
111
100
AcDbEntity
  8
Layer_1
 62
7
100
AcDbLine
 10
7.375000
 20
125.499993
 30
0.0
 11
7.375000
 21
125.499993
 31
0.0
  0
SPLINE
  5
112
100
AcDbEntity
  8
Layer_1
 62
7
100
AcDbSpline
 70
0
 71
3
 72
25
 73
21
 74
19
 40
0.000000
 40
0.000000
 40
0.000000
 40
0.000000
 40
0.916030
 40
1.818952
 40
2.734982
 40
3.651014
 40
4.553935
 40
5.469965
 40
6.385997
 40
7.288919
 40
8.204949
 40
9.120980
 40
10.023901
 40
10.939933
 40
11.855963
 40
12.758884
 40
13.674916
 40
14.590947
 40
15.493868
 40
16.409898
 40
16.409898
 40
16.409898
 40
16.409898
 10
144.175000
 20
125.499993
 30
0.0
 10
144.206364
 20
125.806894
 30
0.0
 10
144.268642
 20
126.416303
 30
0.0
 10
144.751817
 20
127.221647
 30
0.0
 10
145.459267
 20
127.820401
 30
0.0
 10
146.335310
 20
128.137959
 30
0.0
 10
147.264892
 20
128.137960
 30
0.0
 10
148.139708
 20
127.820400
 30
0.0
 10
148.852057
 20
127.221648
 30
0.0
 10
149.317031
 20
126.416304
 30
0.0
 10
149.479377
 20
125.499993
 30
0.0
 10
149.317031
 20
124.583683
 30
0.0
 10
148.852057
 20
123.778338
 30
0.0
 10
148.139708
 20
123.179587
 30
0.0
 10
147.264892
 20
122.862026
 30
0.0
 10
146.335310
 20
122.862027
 30
0.0
 10
145.459267
 20
123.179585
 30
0.0
 10
144.751817
 20
123.778339
 30
0.0
 10
144.268642
 20
124.583683
 30
0.0
 10
144.206364
 20
125.193092
 30
0.0
 10
144.175000
 20
125.499993
 30
0.0
 11
144.175000
 21
125.499993
 31
0.0
 11
144.334794
 21
126.401978
 31
0.0
 11
144.786255
 21
127.183931
 31
0.0
 11
145.487500
 21
127.773310
 31
0.0
 11
146.348540
 21
128.085918
 31
0.0
 11
147.251461
 21
128.085918
 31
0.0
 11
148.112500
 21
127.773310
 31
0.0
 11
148.813747
 21
127.183931
 31
0.0
 11
149.265208
 21
126.401978
 31
0.0
 11
149.425002
 21
125.499993
 31
0.0
 11
149.265208
 21
124.598008
 31
0.0
 11
148.813747
 21
123.816055
 31
0.0
 11
148.112500
 21
123.226676
 31
0.0
 11
147.251461
 21
122.914068
 31
0.0
 11
146.348540
 21
122.914068
 31
0.0
 11
145.487500
 21
123.226676
 31
0.0
 11
144.786255
 21
123.816055
 31
0.0
 11
144.334794
 21
124.598008
 31
0.0
 11
144.175000
 21
125.499993
 31
0.0
  0
LINE
  5
113
100
AcDbEntity
  8
Layer_1
 62
7
100
AcDbLine
 10
144.175000
 20
125.499993
 30
0.0
 11
144.175000
 21
125.499993
 31
0.0
  0
SPLINE
  5
114
100
AcDbEntity
  8
Layer_1
 62
7
100
AcDbSpline
 70
0
 71
3
 72
25
 73
21
 74
19
 40
0.000000
 40
0.000000
 40
0.000000
 40
0.000000
 40
0.916030
 40
1.818952
 40
2.734984
 40
3.651014
 40
4.553934
 40
5.469966
 40
6.385996
 40
7.288917
 40
8.204948
 40
9.120979
 40
10.023901
 40
10.939930
 40
11.855962
 40
12.758883
 40
13.674913
 40
14.590945
 40
15.493867
 40
16.409898
 40
16.409898
 40
16.409898
 40
16.409898
 10
7.375000
 20
225.499993
 30
0.0
 10
7.406364
 20
225.806894
 30
0.0
 10
7.468642
 20
226.416304
 30
0.0
 10
7.951818
 20
227.221648
 30
0.0
 10
8.659268
 20
227.820400
 30
0.0
 10
9.535312
 20
228.137958
 30
0.0
 10
10.464893
 20
228.137957
 30
0.0
 10
11.339710
 20
227.820402
 30
0.0
 10
12.052058
 20
227.221647
 30
0.0
 10
12.517031
 20
226.416304
 30
0.0
 10
12.679377
 20
225.499993
 30
0.0
 10
12.517031
 20
224.583683
 30
0.0
 10
12.052059
 20
223.778338
 30
0.0
 10
11.339710
 20
223.179586
 30
0.0
 10
10.464893
 20
222.862027
 30
0.0
 10
9.535312
 20
222.862027
 30
0.0
 10
8.659269
 20
223.179587
 30
0.0
 10
7.951818
 20
223.778338
 30
0.0
 10
7.468642
 20
224.583682
 30
0.0
 10
7.406364
 20
225.193092
 30
0.0
 10
7.375000
 20
225.499993
 30
0.0
 11
7.375000
 21
225.499993
 31
0.0
 11
7.534794
 21
226.401979
 31
0.0
 11
7.986256
 21
227.183931
 31
0.0
 11
8.687503
 21
227.773310
 31
0.0
 11
9.548541
 21
228.085917
 31
0.0
 11
10.451462
 21
228.085917
 31
0.0
 11
11.312502
 21
227.773310
 31
0.0
 11
12.013747
 21
227.183931
 31
0.0
 11
12.465208
 21
226.401979
 31
0.0
 11
12.625002
 21
225.499993
 31
0.0
 11
12.465208
 21
224.598007
 31
0.0
 11
12.013747
 21
223.816054
 31
0.0
 11
11.312502
 21
223.226676
 31
0.0
 11
10.451462
 21
222.914068
 31
0.0
 11
9.548541
 21
222.914068
 31
0.0
 11
8.687503
 21
223.226676
 31
0.0
 11
7.986256
 21
223.816054
 31
0.0
 11
7.534794
 21
224.598007
 31
0.0
 11
7.375000
 21
225.499993
 31
0.0
  0
LINE
  5
115
100
AcDbEntity
  8
Layer_1
 62
7
100
AcDbLine
 10
7.375000
 20
225.499993
 30
0.0
 11
7.375000
 21
225.499993
 31
0.0
  0
SPLINE
  5
116
100
AcDbEntity
  8
Layer_1
 62
7
100
AcDbSpline
 70
0
 71
3
 72
25
 73
21
 74
19
 40
0.000000
 40
0.000000
 40
0.000000
 40
0.000000
 40
0.916030
 40
1.818952
 40
2.734982
 40
3.651013
 40
4.553934
 40
5.469964
 40
6.385996
 40
7.288917
 40
8.204948
 40
9.120979
 40
10.023901
 40
10.939932
 40
11.855962
 40
12.758883
 40
13.674915
 40
14.590945
 40
15.493867
 40
16.409898
 40
16.409898
 40
16.409898
 40
16.409898
 10
144.175000
 20
225.499993
 30
0.0
 10
144.206364
 20
225.806894
 30
0.0
 10
144.268642
 20
226.416304
 30
0.0
 10
144.751817
 20
227.221647
 30
0.0
 10
145.459266
 20
227.820401
 30
0.0
 10
146.335311
 20
228.137957
 30
0.0
 10
147.264891
 20
228.137958
 30
0.0
 10
148.139708
 20
227.820400
 30
0.0
 10
148.852057
 20
227.221648
 30
0.0
 10
149.317031
 20
226.416304
 30
0.0
 10
149.479377
 20
225.499993
 30
0.0
 10
149.317031
 20
224.583682
 30
0.0
 10
148.852058
 20
223.778338
 30
0.0
 10
148.139707
 20
223.179587
 30
0.0
 10
147.264892
 20
222.862027
 30
0.0
 10
146.335310
 20
222.862027
 30
0.0
 10
145.459267
 20
223.179586
 30
0.0
 10
144.751817
 20
223.778338
 30
0.0
 10
144.268642
 20
224.583683
 30
0.0
 10
144.206364
 20
225.193092
 30
0.0
 10
144.175000
 20
225.499993
 30
0.0
 11
144.175000
 21
225.499993
 31
0.0
 11
144.334794
 21
226.401979
 31
0.0
 11
144.786255
 21
227.183931
 31
0.0
 11
145.487500
 21
227.773310
 31
0.0
 11
146.348540
 21
228.085917
 31
0.0
 11
147.251461
 21
228.085917
 31
0.0
 11
148.112500
 21
227.773310
 31
0.0
 11
148.813747
 21
227.183931
 31
0.0
 11
149.265208
 21
226.401979
 31
0.0
 11
149.425002
 21
225.499993
 31
0.0
 11
149.265208
 21
224.598007
 31
0.0
 11
148.813747
 21
223.816054
 31
0.0
 11
148.112500
 21
223.226676
 31
0.0
 11
147.251461
 21
222.914068
 31
0.0
 11
146.348540
 21
222.914068
 31
0.0
 11
145.487500
 21
223.226676
 31
0.0
 11
144.786255
 21
223.816054
 31
0.0
 11
144.334794
 21
224.598007
 31
0.0
 11
144.175000
 21
225.499993
 31
0.0
  0
LINE
  5
117
100
AcDbEntity
  8
Layer_1
 62
7
100
AcDbLine
 10
144.175000
 20
225.499993
 30
0.0
 11
144.175000
 21
225.499993
 31
0.0
  0
SPLINE
  5
118
100
AcDbEntity
  8
Layer_1
 62
7
100
AcDbSpline
 70
0
 71
3
 72
25
 73
21
 74
19
 40
0.000000
 40
0.000000
 40
0.000000
 40
0.000000
 40
0.916034
 40
1.818960
 40
2.734992
 40
3.651024
 40
4.553944
 40
5.469976
 40
6.386008
 40
7.288933
 40
8.204968
 40
9.121002
 40
10.023927
 40
10.939960
 40
11.855991
 40
12.758912
 40
13.674944
 40
14.590976
 40
15.493901
 40
16.409936
 40
16.409936
 40
16.409936
 40
16.409936
 10
75.775001
 20
73.999994
 30
0.0
 10
75.806365
 20
74.306897
 30
0.0
 10
75.868643
 20
74.916309
 30
0.0
 10
76.351817
 20
75.721657
 30
0.0
 10
77.059267
 20
76.320413
 30
0.0
 10
77.935311
 20
76.637972
 30
0.0
 10
78.864892
 20
76.637972
 30
0.0
 10
79.739710
 20
76.320413
 30
0.0
 10
80.452059
 20
75.721657
 30
0.0
 10
80.917030
 20
74.916309
 30
0.0
 10
81.079376
 20
73.999994
 30
0.0
 10
80.917030
 20
73.083680
 30
0.0
 10
80.452059
 20
72.278332
 30
0.0
 10
79.739710
 20
71.679576
 30
0.0
 10
78.864892
 20
71.362017
 30
0.0
 10
77.935311
 20
71.362017
 30
0.0
 10
77.059267
 20
71.679576
 30
0.0
 10
76.351817
 20
72.278332
 30
0.0
 10
75.868643
 20
73.083680
 30
0.0
 10
75.806365
 20
73.693092
 30
0.0
 10
75.775001
 20
73.999994
 30
0.0
 11
75.775001
 21
73.999994
 31
0.0
 11
75.934795
 21
74.901984
 31
0.0
 11
76.386255
 21
75.683941
 31
0.0
 11
77.087501
 21
76.273323
 31
0.0
 11
77.948541
 21
76.585931
 31
0.0
 11
78.851462
 21
76.585931
 31
0.0
 11
79.712501
 21
76.273323
 31
0.0
 11
80.413747
 21
75.683941
 31
0.0
 11
80.865207
 21
74.901984
 31
0.0
 11
81.025001
 21
73.999994
 31
0.0
 11
80.865207
 21
73.098005
 31
0.0
 11
80.413747
 21
72.316048
 31
0.0
 11
79.712501
 21
71.726666
 31
0.0
 11
78.851462
 21
71.414058
 31
0.0
 11
77.948541
 21
71.414058
 31
0.0
 11
77.087501
 21
71.726666
 31
0.0
 11
76.386255
 21
72.316048
 31
0.0
 11
75.934795
 21
73.098005
 31
0.0
 11
75.775001
 21
73.999994
 31
0.0
  0
LINE
  5
119
100
AcDbEntity
  8
Layer_1
 62
7
100
AcDbLine
 10
75.775001
 20
73.999994
 30
0.0
 11
75.775001
 21
73.999994
 31
0.0
  0
SPLINE
  5
11a
100
AcDbEntity
  8
Layer_1
 62
7
100
AcDbSpline
 70
0
 71
3
 72
25
 73
21
 74
19
 40
0.000000
 40
0.000000
 40
0.000000
 40
0.000000
 40
0.916030
 40
1.818951
 40
2.734983
 40
3.651013
 40
4.553934
 40
5.469965
 40
6.385996
 40
7.288917
 40
8.204947
 40
9.120979
 40
10.023900
 40
10.939930
 40
11.855961
 40
12.758882
 40
13.674914
 40
14.590944
 40
15.493865
 40
16.409897
 40
16.409897
 40
16.409897
 40
16.409897
 10
75.775001
 20
193.999994
 30
0.0
 10
75.806365
 20
194.306895
 30
0.0
 10
75.868643
 20
194.916305
 30
0.0
 10
76.351818
 20
195.721649
 30
0.0
 10
77.059267
 20
196.320402
 30
0.0
 10
77.935312
 20
196.637958
 30
0.0
 10
78.864892
 20
196.637958
 30
0.0
 10
79.739710
 20
196.320402
 30
0.0
 10
80.452058
 20
195.721649
 30
0.0
 10
80.917031
 20
194.916305
 30
0.0
 10
81.079376
 20
193.999994
 30
0.0
 10
80.917031
 20
193.083683
 30
0.0
 10
80.452059
 20
192.278338
 30
0.0
 10
79.739708
 20
191.679587
 30
0.0
 10
78.864893
 20
191.362028
 30
0.0
 10
77.935311
 20
191.362028
 30
0.0
 10
77.059268
 20
191.679587
 30
0.0
 10
76.351817
 20
192.278338
 30
0.0
 10
75.868642
 20
193.083683
 30
0.0
 10
75.806365
 20
193.693093
 30
0.0
 10
75.775001
 20
193.999994
 30
0.0
 11
75.775001
 21
193.999994
 31
0.0
 11
75.934795
 21
194.901980
 31
0.0
 11
76.386255
 21
195.683932
 31
0.0
 11
77.087501
 21
196.273311
 31
0.0
 11
77.948541
 21
196.585918
 31
0.0
 11
78.851462
 21
196.585918
 31
0.0
 11
79.712501
 21
196.273311
 31
0.0
 11
80.413747
 21
195.683932
 31
0.0
 11
80.865207
 21
194.901980
 31
0.0
 11
81.025001
 21
193.999994
 31
0.0
 11
80.865207
 21
193.098007
 31
0.0
 11
80.413747
 21
192.316055
 31
0.0
 11
79.712501
 21
191.726677
 31
0.0
 11
78.851462
 21
191.414069
 31
0.0
 11
77.948541
 21
191.414069
 31
0.0
 11
77.087501
 21
191.726677
 31
0.0
 11
76.386255
 21
192.316055
 31
0.0
 11
75.934795
 21
193.098007
 31
0.0
 11
75.775001
 21
193.999994
 31
0.0
  0
LINE
  5
11b
100
AcDbEntity
  8
Layer_1
 62
7
100
AcDbLine
 10
75.775001
 20
193.999994
 30
0.0
 11
75.775001
 21
193.999994
 31
0.0
  0
SPLINE
  5
11c
100
AcDbEntity
  8
Layer_1
 62
7
100
AcDbSpline
 70
0
 71
3
 72
25
 73
21
 74
19
 40
0.000000
 40
0.000000
 40
0.000000
 40
0.000000
 40
0.916030
 40
1.818951
 40
2.734983
 40
3.651014
 40
4.553935
 40
5.469966
 40
6.385997
 40
7.288918
 40
8.204948
 40
9.120979
 40
10.023900
 40
10.939931
 40
11.855961
 40
12.758882
 40
13.674913
 40
14.590944
 40
15.493865
 40
16.409895
 40
16.409895
 40
16.409895
 40
16.409895
 10
75.775001
 20
133.999993
 30
0.0
 10
75.806365
 20
134.306894
 30
0.0
 10
75.868643
 20
134.916303
 30
0.0
 10
76.351818
 20
135.721647
 30
0.0
 10
77.059267
 20
136.320400
 30
0.0
 10
77.935311
 20
136.637959
 30
0.0
 10
78.864893
 20
136.637959
 30
0.0
 10
79.739709
 20
136.320400
 30
0.0
 10
80.452058
 20
135.721647
 30
0.0
 10
80.917031
 20
134.916303
 30
0.0
 10
81.079376
 20
133.999993
 30
0.0
 10
80.917031
 20
133.083683
 30
0.0
 10
80.452058
 20
132.278339
 30
0.0
 10
79.739710
 20
131.679585
 30
0.0
 10
78.864892
 20
131.362029
 30
0.0
 10
77.935312
 20
131.362029
 30
0.0
 10
77.059267
 20
131.679585
 30
0.0
 10
76.351818
 20
132.278339
 30
0.0
 10
75.868643
 20
133.083683
 30
0.0
 10
75.806365
 20
133.693092
 30
0.0
 10
75.775001
 20
133.999993
 30
0.0
 11
75.775001
 21
133.999993
 31
0.0
 11
75.934795
 21
134.901978
 31
0.0
 11
76.386255
 21
135.683931
 31
0.0
 11
77.087501
 21
136.273310
 31
0.0
 11
77.948541
 21
136.585918
 31
0.0
 11
78.851462
 21
136.585918
 31
0.0
 11
79.712501
 21
136.273310
 31
0.0
 11
80.413747
 21
135.683931
 31
0.0
 11
80.865207
 21
134.901978
 31
0.0
 11
81.025001
 21
133.999993
 31
0.0
 11
80.865207
 21
133.098008
 31
0.0
 11
80.413747
 21
132.316055
 31
0.0
 11
79.712501
 21
131.726676
 31
0.0
 11
78.851462
 21
131.414070
 31
0.0
 11
77.948541
 21
131.414070
 31
0.0
 11
77.087501
 21
131.726676
 31
0.0
 11
76.386255
 21
132.316055
 31
0.0
 11
75.934795
 21
133.098008
 31
0.0
 11
75.775001
 21
133.999993
 31
0.0
  0
LINE
  5
11d
100
AcDbEntity
  8
Layer_1
 62
7
100
AcDbLine
 10
75.775001
 20
133.999993
 30
0.0
 11
75.775001
 21
133.999993
 31
0.0
  0
SPLINE
  5
11e
100
AcDbEntity
  8
Layer_1
 62
7
100
AcDbSpline
 70
0
 71
3
 72
25
 73
21
 74
19
 40
0.000000
 40
0.000000
 40
0.000000
 40
0.000000
 40
0.916030
 40
1.818951
 40
2.734983
 40
3.651013
 40
4.553934
 40
5.469965
 40
6.385996
 40
7.288917
 40
8.204947
 40
9.120978
 40
10.023900
 40
10.939930
 40
11.855961
 40
12.758882
 40
13.674913
 40
14.590944
 40
15.493865
 40
16.409896
 40
16.409896
 40
16.409896
 40
16.409896
 10
75.775001
 20
103.999994
 30
0.0
 10
75.806365
 20
104.306894
 30
0.0
 10
75.868643
 20
104.916304
 30
0.0
 10
76.351818
 20
105.721648
 30
0.0
 10
77.059267
 20
106.320401
 30
0.0
 10
77.935312
 20
106.637958
 30
0.0
 10
78.864892
 20
106.637958
 30
0.0
 10
79.739710
 20
106.320401
 30
0.0
 10
80.452058
 20
105.721648
 30
0.0
 10
80.917031
 20
104.916304
 30
0.0
 10
81.079376
 20
103.999993
 30
0.0
 10
80.917030
 20
103.083683
 30
0.0
 10
80.452059
 20
102.278338
 30
0.0
 10
79.739709
 20
101.679587
 30
0.0
 10
78.864893
 20
101.362027
 30
0.0
 10
77.935311
 20
101.362027
 30
0.0
 10
77.059268
 20
101.679587
 30
0.0
 10
76.351817
 20
102.278338
 30
0.0
 10
75.868643
 20
103.083683
 30
0.0
 10
75.806365
 20
103.693093
 30
0.0
 10
75.775001
 20
103.999994
 30
0.0
 11
75.775001
 21
103.999994
 31
0.0
 11
75.934795
 21
104.901979
 31
0.0
 11
76.386255
 21
105.683932
 31
0.0
 11
77.087501
 21
106.273311
 31
0.0
 11
77.948541
 21
106.585917
 31
0.0
 11
78.851462
 21
106.585917
 31
0.0
 11
79.712501
 21
106.273311
 31
0.0
 11
80.413747
 21
105.683932
 31
0.0
 11
80.865207
 21
104.901979
 31
0.0
 11
81.025001
 21
103.999994
 31
0.0
 11
80.865207
 21
103.098008
 31
0.0
 11
80.413747
 21
102.316055
 31
0.0
 11
79.712501
 21
101.726677
 31
0.0
 11
78.851462
 21
101.414069
 31
0.0
 11
77.948541
 21
101.414069
 31
0.0
 11
77.087501
 21
101.726677
 31
0.0
 11
76.386255
 21
102.316055
 31
0.0
 11
75.934795
 21
103.098008
 31
0.0
 11
75.775001
 21
103.999994
 31
0.0
  0
LINE
  5
11f
100
AcDbEntity
  8
Layer_1
 62
7
100
AcDbLine
 10
75.775001
 20
103.999994
 30
0.0
 11
75.775001
 21
103.999994
 31
0.0
  0
SPLINE
  5
120
100
AcDbEntity
  8
Layer_1
 62
7
100
AcDbSpline
 70
0
 71
3
 72
25
 73
21
 74
19
 40
0.000000
 40
0.000000
 40
0.000000
 40
0.000000
 40
0.916031
 40
1.818952
 40
2.734983
 40
3.651014
 40
4.553935
 40
5.469966
 40
6.385997
 40
7.288918
 40
8.204949
 40
9.120979
 40
10.023900
 40
10.939932
 40
11.855962
 40
12.758883
 40
13.674914
 40
14.590945
 40
15.493866
 40
16.409896
 40
16.409896
 40
16.409896
 40
16.409896
 10
75.775001
 20
163.999992
 30
0.0
 10
75.806365
 20
164.306893
 30
0.0
 10
75.868643
 20
164.916303
 30
0.0
 10
76.351817
 20
165.721648
 30
0.0
 10
77.059268
 20
166.320399
 30
0.0
 10
77.935311
 20
166.637959
 30
0.0
 10
78.864893
 20
166.637959
 30
0.0
 10
79.739709
 20
166.320399
 30
0.0
 10
80.452059
 20
165.721648
 30
0.0
 10
80.917030
 20
164.916303
 30
0.0
 10
81.079376
 20
163.999992
 30
0.0
 10
80.917031
 20
163.083682
 30
0.0
 10
80.452058
 20
162.278338
 30
0.0
 10
79.739710
 20
161.679585
 30
0.0
 10
78.864892
 20
161.362028
 30
0.0
 10
77.935312
 20
161.362028
 30
0.0
 10
77.059267
 20
161.679585
 30
0.0
 10
76.351818
 20
162.278338
 30
0.0
 10
75.868643
 20
163.083682
 30
0.0
 10
75.806365
 20
163.693091
 30
0.0
 10
75.775001
 20
163.999992
 30
0.0
 11
75.775001
 21
163.999992
 31
0.0
 11
75.934795
 21
164.901978
 31
0.0
 11
76.386255
 21
165.683931
 31
0.0
 11
77.087501
 21
166.273309
 31
0.0
 11
77.948541
 21
166.585917
 31
0.0
 11
78.851462
 21
166.585917
 31
0.0
 11
79.712501
 21
166.273309
 31
0.0
 11
80.413747
 21
165.683931
 31
0.0
 11
80.865207
 21
164.901978
 31
0.0
 11
81.025001
 21
163.999992
 31
0.0
 11
80.865207
 21
163.098007
 31
0.0
 11
80.413747
 21
162.316054
 31
0.0
 11
79.712501
 21
161.726675
 31
0.0
 11
78.851462
 21
161.414069
 31
0.0
 11
77.948541
 21
161.414069
 31
0.0
 11
77.087501
 21
161.726675
 31
0.0
 11
76.386255
 21
162.316054
 31
0.0
 11
75.934795
 21
163.098007
 31
0.0
 11
75.775001
 21
163.999992
 31
0.0
  0
LINE
  5
121
100
AcDbEntity
  8
Layer_1
 62
7
100
AcDbLine
 10
75.775001
 20
163.999992
 30
0.0
 11
75.775001
 21
163.999992
 31
0.0
  0
SPLINE
  5
122
100
AcDbEntity
  8
Layer_1
 62
7
100
AcDbSpline
 70
0
 71
3
 72
25
 73
21
 74
19
 40
0.000000
 40
0.000000
 40
0.000000
 40
0.000000
 40
0.916030
 40
1.818951
 40
2.734983
 40
3.651013
 40
4.553934
 40
5.469965
 40
6.385996
 40
7.288917
 40
8.204947
 40
9.120978
 40
10.023900
 40
10.939930
 40
11.855961
 40
12.758882
 40
13.674913
 40
14.590944
 40
15.493865
 40
16.409896
 40
16.409896
 40
16.409896
 40
16.409896
 10
75.775001
 20
223.999994
 30
0.0
 10
75.806365
 20
224.306894
 30
0.0
 10
75.868643
 20
224.916304
 30
0.0
 10
76.351818
 20
225.721648
 30
0.0
 10
77.059267
 20
226.320401
 30
0.0
 10
77.935312
 20
226.637958
 30
0.0
 10
78.864892
 20
226.637958
 30
0.0
 10
79.739710
 20
226.320401
 30
0.0
 10
80.452058
 20
225.721648
 30
0.0
 10
80.917031
 20
224.916304
 30
0.0
 10
81.079376
 20
223.999993
 30
0.0
 10
80.917030
 20
223.083683
 30
0.0
 10
80.452059
 20
222.278338
 30
0.0
 10
79.739709
 20
221.679587
 30
0.0
 10
78.864893
 20
221.362027
 30
0.0
 10
77.935311
 20
221.362027
 30
0.0
 10
77.059268
 20
221.679587
 30
0.0
 10
76.351817
 20
222.278338
 30
0.0
 10
75.868643
 20
223.083683
 30
0.0
 10
75.806365
 20
223.693093
 30
0.0
 10
75.775001
 20
223.999994
 30
0.0
 11
75.775001
 21
223.999994
 31
0.0
 11
75.934795
 21
224.901979
 31
0.0
 11
76.386255
 21
225.683931
 31
0.0
 11
77.087501
 21
226.273311
 31
0.0
 11
77.948541
 21
226.585917
 31
0.0
 11
78.851462
 21
226.585917
 31
0.0
 11
79.712501
 21
226.273311
 31
0.0
 11
80.413747
 21
225.683931
 31
0.0
 11
80.865207
 21
224.901979
 31
0.0
 11
81.025001
 21
223.999994
 31
0.0
 11
80.865207
 21
223.098008
 31
0.0
 11
80.413747
 21
222.316055
 31
0.0
 11
79.712501
 21
221.726677
 31
0.0
 11
78.851462
 21
221.414069
 31
0.0
 11
77.948541
 21
221.414069
 31
0.0
 11
77.087501
 21
221.726677
 31
0.0
 11
76.386255
 21
222.316055
 31
0.0
 11
75.934795
 21
223.098008
 31
0.0
 11
75.775001
 21
223.999994
 31
0.0
  0
LINE
  5
123
100
AcDbEntity
  8
Layer_1
 62
7
100
AcDbLine
 10
75.775001
 20
223.999994
 30
0.0
 11
75.775001
 21
223.999994
 31
0.0
  0
LINE
  5
124
100
AcDbEntity
  8
Layer_1
 62
7
100
AcDbLine
 10
75.775001
 20
43.999998
 30
0.0
 11
75.775001
 21
43.999998
 31
0.0
  0
LINE
  5
125
100
AcDbEntity
  8
Layer_1
 62
7
100
AcDbLine
 10
68.141110
 20
211.888870
 30
0.0
 11
23.141111
 21
211.888870
 31
0.0
  0
LINE
  5
126
100
AcDbEntity
  8
Layer_1
 62
7
100
AcDbLine
 10
23.141111
 20
211.888870
 30
0.0
 11
23.141111
 21
208.888870
 31
0.0
  0
LINE
  5
127
100
AcDbEntity
  8
Layer_1
 62
7
100
AcDbLine
 10
23.141111
 20
208.888870
 30
0.0
 11
68.141110
 21
208.888870
 31
0.0
  0
LINE
  5
128
100
AcDbEntity
  8
Layer_1
 62
7
100
AcDbLine
 10
68.141110
 20
208.888870
 30
0.0
 11
68.141110
 21
211.888870
 31
0.0
  0
LINE
  5
129
100
AcDbEntity
  8
Layer_1
 62
7
100
AcDbLine
 10
27.515910
 20
201.924272
 30
0.0
 11
27.759111
 21
201.986770
 31
0.0
  0
LINE
  5
12a
100
AcDbEntity
  8
Layer_1
 62
7
100
AcDbLine
 10
27.759111
 20
201.986770
 30
0.0
 11
27.992710
 21
202.079170
 31
0.0
  0
LINE
  5
12b
100
AcDbEntity
  8
Layer_1
 62
7
100
AcDbLine
 10
27.992710
 20
202.079170
 30
0.0
 11
28.212810
 21
202.200170
 31
0.0
  0
LINE
  5
12c
100
AcDbEntity
  8
Layer_1
 62
7
100
AcDbLine
 10
28.212810
 20
202.200170
 30
0.0
 11
28.416010
 21
202.347871
 31
0.0
  0
LINE
  5
12d
100
AcDbEntity
  8
Layer_1
 62
7
100
AcDbLine
 10
28.416010
 20
202.347871
 30
0.0
 11
28.599010
 21
202.519770
 31
0.0
  0
LINE
  5
12e
100
AcDbEntity
  8
Layer_1
 62
7
100
AcDbLine
 10
28.599010
 20
202.519770
 30
0.0
 11
28.759110
 21
202.713270
 31
0.0
  0
LINE
  5
12f
100
AcDbEntity
  8
Layer_1
 62
7
100
AcDbLine
 10
28.759110
 20
202.713270
 30
0.0
 11
28.893710
 21
202.925371
 31
0.0
  0
LINE
  5
130
100
AcDbEntity
  8
Layer_1
 62
7
100
AcDbLine
 10
28.893710
 20
202.925371
 30
0.0
 11
29.000710
 21
203.152571
 31
0.0
  0
LINE
  5
131
100
AcDbEntity
  8
Layer_1
 62
7
100
AcDbLine
 10
29.000710
 20
203.152571
 30
0.0
 11
29.078310
 21
203.391469
 31
0.0
  0
LINE
  5
132
100
AcDbEntity
  8
Layer_1
 62
7
100
AcDbLine
 10
29.078310
 20
203.391469
 30
0.0
 11
29.125310
 21
203.638171
 31
0.0
  0
LINE
  5
133
100
AcDbEntity
  8
Layer_1
 62
7
100
AcDbLine
 10
29.125310
 20
203.638171
 30
0.0
 11
29.141109
 21
203.888872
 31
0.0
  0
LINE
  5
134
100
AcDbEntity
  8
Layer_1
 62
7
100
AcDbLine
 10
29.141110
 20
203.888872
 30
0.0
 11
29.125312
 21
204.139570
 31
0.0
  0
LINE
  5
135
100
AcDbEntity
  8
Layer_1
 62
7
100
AcDbLine
 10
29.125310
 20
204.139570
 30
0.0
 11
29.078310
 21
204.386272
 31
0.0
  0
LINE
  5
136
100
AcDbEntity
  8
Layer_1
 62
7
100
AcDbLine
 10
29.078310
 20
204.386272
 30
0.0
 11
29.000710
 21
204.625071
 31
0.0
  0
LINE
  5
137
100
AcDbEntity
  8
Layer_1
 62
7
100
AcDbLine
 10
29.000710
 20
204.625071
 30
0.0
 11
28.893710
 21
204.852370
 31
0.0
  0
LINE
  5
138
100
AcDbEntity
  8
Layer_1
 62
7
100
AcDbLine
 10
28.893710
 20
204.852370
 30
0.0
 11
28.759110
 21
205.064471
 31
0.0
  0
LINE
  5
139
100
AcDbEntity
  8
Layer_1
 62
7
100
AcDbLine
 10
28.759110
 20
205.064471
 30
0.0
 11
28.599010
 21
205.257971
 31
0.0
  0
LINE
  5
13a
100
AcDbEntity
  8
Layer_1
 62
7
100
AcDbLine
 10
28.599010
 20
205.257971
 30
0.0
 11
28.416010
 21
205.429870
 31
0.0
  0
LINE
  5
13b
100
AcDbEntity
  8
Layer_1
 62
7
100
AcDbLine
 10
28.416010
 20
205.429870
 30
0.0
 11
28.212810
 21
205.577472
 31
0.0
  0
LINE
  5
13c
100
AcDbEntity
  8
Layer_1
 62
7
100
AcDbLine
 10
28.212810
 20
205.577472
 30
0.0
 11
27.992710
 21
205.698470
 31
0.0
  0
LINE
  5
13d
100
AcDbEntity
  8
Layer_1
 62
7
100
AcDbLine
 10
27.992710
 20
205.698470
 30
0.0
 11
27.759111
 21
205.790971
 31
0.0
  0
LINE
  5
13e
100
AcDbEntity
  8
Layer_1
 62
7
100
AcDbLine
 10
27.759111
 20
205.790971
 30
0.0
 11
27.515910
 21
205.853472
 31
0.0
  0
LINE
  5
13f
100
AcDbEntity
  8
Layer_1
 62
7
100
AcDbLine
 10
27.515910
 20
205.853472
 30
0.0
 11
27.266710
 21
205.884872
 31
0.0
  0
LINE
  5
140
100
AcDbEntity
  8
Layer_1
 62
7
100
AcDbLine
 10
27.266710
 20
205.884872
 30
0.0
 11
27.015511
 21
205.884872
 31
0.0
  0
LINE
  5
141
100
AcDbEntity
  8
Layer_1
 62
7
100
AcDbLine
 10
27.015511
 20
205.884872
 30
0.0
 11
26.766310
 21
205.853472
 31
0.0
  0
LINE
  5
142
100
AcDbEntity
  8
Layer_1
 62
7
100
AcDbLine
 10
26.766310
 20
205.853472
 30
0.0
 11
26.523110
 21
205.790971
 31
0.0
  0
LINE
  5
143
100
AcDbEntity
  8
Layer_1
 62
7
100
AcDbLine
 10
26.523110
 20
205.790971
 30
0.0
 11
26.289610
 21
205.698470
 31
0.0
  0
LINE
  5
144
100
AcDbEntity
  8
Layer_1
 62
7
100
AcDbLine
 10
26.289610
 20
205.698470
 30
0.0
 11
26.069510
 21
205.577472
 31
0.0
  0
LINE
  5
145
100
AcDbEntity
  8
Layer_1
 62
7
100
AcDbLine
 10
26.069510
 20
205.577472
 30
0.0
 11
25.866310
 21
205.429870
 31
0.0
  0
LINE
  5
146
100
AcDbEntity
  8
Layer_1
 62
7
100
AcDbLine
 10
25.866310
 20
205.429870
 30
0.0
 11
25.683210
 21
205.257971
 31
0.0
  0
LINE
  5
147
100
AcDbEntity
  8
Layer_1
 62
7
100
AcDbLine
 10
25.683210
 20
205.257971
 30
0.0
 11
25.523110
 21
205.064471
 31
0.0
  0
LINE
  5
148
100
AcDbEntity
  8
Layer_1
 62
7
100
AcDbLine
 10
25.523110
 20
205.064471
 30
0.0
 11
25.388510
 21
204.852370
 31
0.0
  0
LINE
  5
149
100
AcDbEntity
  8
Layer_1
 62
7
100
AcDbLine
 10
25.388510
 20
204.852370
 30
0.0
 11
25.281610
 21
204.625071
 31
0.0
  0
LINE
  5
14a
100
AcDbEntity
  8
Layer_1
 62
7
100
AcDbLine
 10
25.281610
 20
204.625071
 30
0.0
 11
25.203910
 21
204.386272
 31
0.0
  0
LINE
  5
14b
100
AcDbEntity
  8
Layer_1
 62
7
100
AcDbLine
 10
25.203910
 20
204.386272
 30
0.0
 11
25.156910
 21
204.139570
 31
0.0
  0
LINE
  5
14c
100
AcDbEntity
  8
Layer_1
 62
7
100
AcDbLine
 10
25.156910
 20
204.139570
 30
0.0
 11
25.141112
 21
203.888872
 31
0.0
  0
LINE
  5
14d
100
AcDbEntity
  8
Layer_1
 62
7
100
AcDbLine
 10
25.141111
 20
203.888872
 30
0.0
 11
25.156909
 21
203.638171
 31
0.0
  0
LINE
  5
14e
100
AcDbEntity
  8
Layer_1
 62
7
100
AcDbLine
 10
25.156910
 20
203.638171
 30
0.0
 11
25.203910
 21
203.391469
 31
0.0
  0
LINE
  5
14f
100
AcDbEntity
  8
Layer_1
 62
7
100
AcDbLine
 10
25.203910
 20
203.391469
 30
0.0
 11
25.281610
 21
203.152571
 31
0.0
  0
LINE
  5
150
100
AcDbEntity
  8
Layer_1
 62
7
100
AcDbLine
 10
25.281610
 20
203.152571
 30
0.0
 11
25.388510
 21
202.925371
 31
0.0
  0
LINE
  5
151
100
AcDbEntity
  8
Layer_1
 62
7
100
AcDbLine
 10
25.388510
 20
202.925371
 30
0.0
 11
25.523110
 21
202.713270
 31
0.0
  0
LINE
  5
152
100
AcDbEntity
  8
Layer_1
 62
7
100
AcDbLine
 10
25.523110
 20
202.713270
 30
0.0
 11
25.683210
 21
202.519770
 31
0.0
  0
LINE
  5
153
100
AcDbEntity
  8
Layer_1
 62
7
100
AcDbLine
 10
25.683210
 20
202.519770
 30
0.0
 11
25.866310
 21
202.347871
 31
0.0
  0
LINE
  5
154
100
AcDbEntity
  8
Layer_1
 62
7
100
AcDbLine
 10
25.866310
 20
202.347871
 30
0.0
 11
26.069510
 21
202.200170
 31
0.0
  0
LINE
  5
155
100
AcDbEntity
  8
Layer_1
 62
7
100
AcDbLine
 10
26.069510
 20
202.200170
 30
0.0
 11
26.289610
 21
202.079170
 31
0.0
  0
LINE
  5
156
100
AcDbEntity
  8
Layer_1
 62
7
100
AcDbLine
 10
26.289610
 20
202.079170
 30
0.0
 11
26.523110
 21
201.986770
 31
0.0
  0
LINE
  5
157
100
AcDbEntity
  8
Layer_1
 62
7
100
AcDbLine
 10
26.523110
 20
201.986770
 30
0.0
 11
26.766310
 21
201.924272
 31
0.0
  0
LINE
  5
158
100
AcDbEntity
  8
Layer_1
 62
7
100
AcDbLine
 10
26.766310
 20
201.924272
 30
0.0
 11
27.015511
 21
201.892771
 31
0.0
  0
LINE
  5
159
100
AcDbEntity
  8
Layer_1
 62
7
100
AcDbLine
 10
27.015511
 20
201.892771
 30
0.0
 11
27.266710
 21
201.892771
 31
0.0
  0
LINE
  5
15a
100
AcDbEntity
  8
Layer_1
 62
7
100
AcDbLine
 10
27.266710
 20
201.892771
 30
0.0
 11
27.515910
 21
201.924272
 31
0.0
  0
LINE
  5
15b
100
AcDbEntity
  8
Layer_1
 62
7
100
AcDbLine
 10
64.515911
 20
201.924272
 30
0.0
 11
64.759110
 21
201.986770
 31
0.0
  0
LINE
  5
15c
100
AcDbEntity
  8
Layer_1
 62
7
100
AcDbLine
 10
64.759110
 20
201.986770
 30
0.0
 11
64.992610
 21
202.079170
 31
0.0
  0
LINE
  5
15d
100
AcDbEntity
  8
Layer_1
 62
7
100
AcDbLine
 10
64.992610
 20
202.079170
 30
0.0
 11
65.212710
 21
202.200170
 31
0.0
  0
LINE
  5
15e
100
AcDbEntity
  8
Layer_1
 62
7
100
AcDbLine
 10
65.212710
 20
202.200170
 30
0.0
 11
65.415910
 21
202.347871
 31
0.0
  0
LINE
  5
15f
100
AcDbEntity
  8
Layer_1
 62
7
100
AcDbLine
 10
65.415910
 20
202.347871
 30
0.0
 11
65.599011
 21
202.519770
 31
0.0
  0
LINE
  5
160
100
AcDbEntity
  8
Layer_1
 62
7
100
AcDbLine
 10
65.599011
 20
202.519770
 30
0.0
 11
65.759110
 21
202.713270
 31
0.0
  0
LINE
  5
161
100
AcDbEntity
  8
Layer_1
 62
7
100
AcDbLine
 10
65.759110
 20
202.713270
 30
0.0
 11
65.893710
 21
202.925371
 31
0.0
  0
LINE
  5
162
100
AcDbEntity
  8
Layer_1
 62
7
100
AcDbLine
 10
65.893710
 20
202.925371
 30
0.0
 11
66.000611
 21
203.152571
 31
0.0
  0
LINE
  5
163
100
AcDbEntity
  8
Layer_1
 62
7
100
AcDbLine
 10
66.000611
 20
203.152571
 30
0.0
 11
66.078311
 21
203.391469
 31
0.0
  0
LINE
  5
164
100
AcDbEntity
  8
Layer_1
 62
7
100
AcDbLine
 10
66.078311
 20
203.391469
 30
0.0
 11
66.125310
 21
203.638171
 31
0.0
  0
LINE
  5
165
100
AcDbEntity
  8
Layer_1
 62
7
100
AcDbLine
 10
66.125310
 20
203.638171
 30
0.0
 11
66.141109
 21
203.888872
 31
0.0
  0
LINE
  5
166
100
AcDbEntity
  8
Layer_1
 62
7
100
AcDbLine
 10
66.141110
 20
203.888872
 30
0.0
 11
66.125312
 21
204.139570
 31
0.0
  0
LINE
  5
167
100
AcDbEntity
  8
Layer_1
 62
7
100
AcDbLine
 10
66.125310
 20
204.139570
 30
0.0
 11
66.078311
 21
204.386272
 31
0.0
  0
LINE
  5
168
100
AcDbEntity
  8
Layer_1
 62
7
100
AcDbLine
 10
66.078311
 20
204.386272
 30
0.0
 11
66.000611
 21
204.625071
 31
0.0
  0
LINE
  5
169
100
AcDbEntity
  8
Layer_1
 62
7
100
AcDbLine
 10
66.000611
 20
204.625071
 30
0.0
 11
65.893710
 21
204.852370
 31
0.0
  0
LINE
  5
16a
100
AcDbEntity
  8
Layer_1
 62
7
100
AcDbLine
 10
65.893710
 20
204.852370
 30
0.0
 11
65.759110
 21
205.064471
 31
0.0
  0
LINE
  5
16b
100
AcDbEntity
  8
Layer_1
 62
7
100
AcDbLine
 10
65.759110
 20
205.064471
 30
0.0
 11
65.599011
 21
205.257971
 31
0.0
  0
LINE
  5
16c
100
AcDbEntity
  8
Layer_1
 62
7
100
AcDbLine
 10
65.599011
 20
205.257971
 30
0.0
 11
65.415910
 21
205.429870
 31
0.0
  0
LINE
  5
16d
100
AcDbEntity
  8
Layer_1
 62
7
100
AcDbLine
 10
65.415910
 20
205.429870
 30
0.0
 11
65.212710
 21
205.577472
 31
0.0
  0
LINE
  5
16e
100
AcDbEntity
  8
Layer_1
 62
7
100
AcDbLine
 10
65.212710
 20
205.577472
 30
0.0
 11
64.992610
 21
205.698470
 31
0.0
  0
LINE
  5
16f
100
AcDbEntity
  8
Layer_1
 62
7
100
AcDbLine
 10
64.992610
 20
205.698470
 30
0.0
 11
64.759110
 21
205.790971
 31
0.0
  0
LINE
  5
170
100
AcDbEntity
  8
Layer_1
 62
7
100
AcDbLine
 10
64.759110
 20
205.790971
 30
0.0
 11
64.515911
 21
205.853472
 31
0.0
  0
LINE
  5
171
100
AcDbEntity
  8
Layer_1
 62
7
100
AcDbLine
 10
64.515911
 20
205.853472
 30
0.0
 11
64.266710
 21
205.884872
 31
0.0
  0
LINE
  5
172
100
AcDbEntity
  8
Layer_1
 62
7
100
AcDbLine
 10
64.266710
 20
205.884872
 30
0.0
 11
64.015510
 21
205.884872
 31
0.0
  0
LINE
  5
173
100
AcDbEntity
  8
Layer_1
 62
7
100
AcDbLine
 10
64.015510
 20
205.884872
 30
0.0
 11
63.766311
 21
205.853472
 31
0.0
  0
LINE
  5
174
100
AcDbEntity
  8
Layer_1
 62
7
100
AcDbLine
 10
63.766311
 20
205.853472
 30
0.0
 11
63.523110
 21
205.790971
 31
0.0
  0
LINE
  5
175
100
AcDbEntity
  8
Layer_1
 62
7
100
AcDbLine
 10
63.523110
 20
205.790971
 30
0.0
 11
63.289510
 21
205.698470
 31
0.0
  0
LINE
  5
176
100
AcDbEntity
  8
Layer_1
 62
7
100
AcDbLine
 10
63.289510
 20
205.698470
 30
0.0
 11
63.069410
 21
205.577472
 31
0.0
  0
LINE
  5
177
100
AcDbEntity
  8
Layer_1
 62
7
100
AcDbLine
 10
63.069410
 20
205.577472
 30
0.0
 11
62.866210
 21
205.429870
 31
0.0
  0
LINE
  5
178
100
AcDbEntity
  8
Layer_1
 62
7
100
AcDbLine
 10
62.866210
 20
205.429870
 30
0.0
 11
62.683211
 21
205.257971
 31
0.0
  0
LINE
  5
179
100
AcDbEntity
  8
Layer_1
 62
7
100
AcDbLine
 10
62.683211
 20
205.257971
 30
0.0
 11
62.523110
 21
205.064471
 31
0.0
  0
LINE
  5
17a
100
AcDbEntity
  8
Layer_1
 62
7
100
AcDbLine
 10
62.523110
 20
205.064471
 30
0.0
 11
62.388510
 21
204.852370
 31
0.0
  0
LINE
  5
17b
100
AcDbEntity
  8
Layer_1
 62
7
100
AcDbLine
 10
62.388510
 20
204.852370
 30
0.0
 11
62.281510
 21
204.625071
 31
0.0
  0
LINE
  5
17c
100
AcDbEntity
  8
Layer_1
 62
7
100
AcDbLine
 10
62.281510
 20
204.625071
 30
0.0
 11
62.203911
 21
204.386272
 31
0.0
  0
LINE
  5
17d
100
AcDbEntity
  8
Layer_1
 62
7
100
AcDbLine
 10
62.203911
 20
204.386272
 30
0.0
 11
62.156910
 21
204.139570
 31
0.0
  0
LINE
  5
17e
100
AcDbEntity
  8
Layer_1
 62
7
100
AcDbLine
 10
62.156910
 20
204.139570
 30
0.0
 11
62.141112
 21
203.888872
 31
0.0
  0
LINE
  5
17f
100
AcDbEntity
  8
Layer_1
 62
7
100
AcDbLine
 10
62.141110
 20
203.888872
 30
0.0
 11
62.156909
 21
203.638171
 31
0.0
  0
LINE
  5
180
100
AcDbEntity
  8
Layer_1
 62
7
100
AcDbLine
 10
62.156910
 20
203.638171
 30
0.0
 11
62.203911
 21
203.391469
 31
0.0
  0
LINE
  5
181
100
AcDbEntity
  8
Layer_1
 62
7
100
AcDbLine
 10
62.203911
 20
203.391469
 30
0.0
 11
62.281510
 21
203.152571
 31
0.0
  0
LINE
  5
182
100
AcDbEntity
  8
Layer_1
 62
7
100
AcDbLine
 10
62.281510
 20
203.152571
 30
0.0
 11
62.388510
 21
202.925371
 31
0.0
  0
LINE
  5
183
100
AcDbEntity
  8
Layer_1
 62
7
100
AcDbLine
 10
62.388510
 20
202.925371
 30
0.0
 11
62.523110
 21
202.713270
 31
0.0
  0
LINE
  5
184
100
AcDbEntity
  8
Layer_1
 62
7
100
AcDbLine
 10
62.523110
 20
202.713270
 30
0.0
 11
62.683211
 21
202.519770
 31
0.0
  0
LINE
  5
185
100
AcDbEntity
  8
Layer_1
 62
7
100
AcDbLine
 10
62.683211
 20
202.519770
 30
0.0
 11
62.866210
 21
202.347871
 31
0.0
  0
LINE
  5
186
100
AcDbEntity
  8
Layer_1
 62
7
100
AcDbLine
 10
62.866210
 20
202.347871
 30
0.0
 11
63.069410
 21
202.200170
 31
0.0
  0
LINE
  5
187
100
AcDbEntity
  8
Layer_1
 62
7
100
AcDbLine
 10
63.069410
 20
202.200170
 30
0.0
 11
63.289510
 21
202.079170
 31
0.0
  0
LINE
  5
188
100
AcDbEntity
  8
Layer_1
 62
7
100
AcDbLine
 10
63.289510
 20
202.079170
 30
0.0
 11
63.523110
 21
201.986770
 31
0.0
  0
LINE
  5
189
100
AcDbEntity
  8
Layer_1
 62
7
100
AcDbLine
 10
63.523110
 20
201.986770
 30
0.0
 11
63.766311
 21
201.924272
 31
0.0
  0
LINE
  5
18a
100
AcDbEntity
  8
Layer_1
 62
7
100
AcDbLine
 10
63.766311
 20
201.924272
 30
0.0
 11
64.015510
 21
201.892771
 31
0.0
  0
LINE
  5
18b
100
AcDbEntity
  8
Layer_1
 62
7
100
AcDbLine
 10
64.015510
 20
201.892771
 30
0.0
 11
64.266710
 21
201.892771
 31
0.0
  0
LINE
  5
18c
100
AcDbEntity
  8
Layer_1
 62
7
100
AcDbLine
 10
64.266710
 20
201.892771
 30
0.0
 11
64.515911
 21
201.924272
 31
0.0
  0
LINE
  5
18d
100
AcDbEntity
  8
Layer_1
 62
7
100
AcDbLine
 10
23.141111
 20
197.388871
 30
0.0
 11
20.141110
 21
197.388871
 31
0.0
  0
LINE
  5
18e
100
AcDbEntity
  8
Layer_1
 62
7
100
AcDbLine
 10
20.141110
 20
197.388871
 30
0.0
 11
20.141110
 21
194.388871
 31
0.0
  0
LINE
  5
18f
100
AcDbEntity
  8
Layer_1
 62
7
100
AcDbLine
 10
20.141110
 20
194.388871
 30
0.0
 11
23.141111
 21
194.388871
 31
0.0
  0
LINE
  5
190
100
AcDbEntity
  8
Layer_1
 62
7
100
AcDbLine
 10
23.141111
 20
194.388871
 30
0.0
 11
23.141111
 21
197.388871
 31
0.0
  0
LINE
  5
191
100
AcDbEntity
  8
Layer_1
 62
7
100
AcDbLine
 10
71.141111
 20
197.388871
 30
0.0
 11
68.141110
 21
197.388871
 31
0.0
  0
LINE
  5
192
100
AcDbEntity
  8
Layer_1
 62
7
100
AcDbLine
 10
68.141110
 20
197.388871
 30
0.0
 11
68.141110
 21
194.388871
 31
0.0
  0
LINE
  5
193
100
AcDbEntity
  8
Layer_1
 62
7
100
AcDbLine
 10
68.141110
 20
194.388871
 30
0.0
 11
71.141111
 21
194.388871
 31
0.0
  0
LINE
  5
194
100
AcDbEntity
  8
Layer_1
 62
7
100
AcDbLine
 10
71.141111
 20
194.388871
 30
0.0
 11
71.141111
 21
197.388871
 31
0.0
  0
LINE
  5
195
100
AcDbEntity
  8
Layer_1
 62
7
100
AcDbLine
 10
23.141111
 20
167.388872
 30
0.0
 11
20.141110
 21
167.388872
 31
0.0
  0
LINE
  5
196
100
AcDbEntity
  8
Layer_1
 62
7
100
AcDbLine
 10
20.141110
 20
167.388872
 30
0.0
 11
20.141110
 21
164.388872
 31
0.0
  0
LINE
  5
197
100
AcDbEntity
  8
Layer_1
 62
7
100
AcDbLine
 10
20.141110
 20
164.388872
 30
0.0
 11
23.141111
 21
164.388872
 31
0.0
  0
LINE
  5
198
100
AcDbEntity
  8
Layer_1
 62
7
100
AcDbLine
 10
23.141111
 20
164.388872
 30
0.0
 11
23.141111
 21
167.388872
 31
0.0
  0
LINE
  5
199
100
AcDbEntity
  8
Layer_1
 62
7
100
AcDbLine
 10
71.141111
 20
167.388872
 30
0.0
 11
68.141110
 21
167.388872
 31
0.0
  0
LINE
  5
19a
100
AcDbEntity
  8
Layer_1
 62
7
100
AcDbLine
 10
68.141110
 20
167.388872
 30
0.0
 11
68.141110
 21
164.388872
 31
0.0
  0
LINE
  5
19b
100
AcDbEntity
  8
Layer_1
 62
7
100
AcDbLine
 10
68.141110
 20
164.388872
 30
0.0
 11
71.141111
 21
164.388872
 31
0.0
  0
LINE
  5
19c
100
AcDbEntity
  8
Layer_1
 62
7
100
AcDbLine
 10
71.141111
 20
164.388872
 30
0.0
 11
71.141111
 21
167.388872
 31
0.0
  0
LINE
  5
19d
100
AcDbEntity
  8
Layer_1
 62
7
100
AcDbLine
 10
23.141111
 20
127.388867
 30
0.0
 11
20.141110
 21
127.388867
 31
0.0
  0
LINE
  5
19e
100
AcDbEntity
  8
Layer_1
 62
7
100
AcDbLine
 10
20.141110
 20
127.388867
 30
0.0
 11
20.141110
 21
124.388873
 31
0.0
  0
LINE
  5
19f
100
AcDbEntity
  8
Layer_1
 62
7
100
AcDbLine
 10
20.141110
 20
124.388873
 30
0.0
 11
23.141111
 21
124.388873
 31
0.0
  0
LINE
  5
1a0
100
AcDbEntity
  8
Layer_1
 62
7
100
AcDbLine
 10
23.141111
 20
124.388873
 30
0.0
 11
23.141111
 21
127.388867
 31
0.0
  0
LINE
  5
1a1
100
AcDbEntity
  8
Layer_1
 62
7
100
AcDbLine
 10
71.141111
 20
127.388867
 30
0.0
 11
68.141110
 21
127.388867
 31
0.0
  0
LINE
  5
1a2
100
AcDbEntity
  8
Layer_1
 62
7
100
AcDbLine
 10
68.141110
 20
127.388867
 30
0.0
 11
68.141110
 21
124.388873
 31
0.0
  0
LINE
  5
1a3
100
AcDbEntity
  8
Layer_1
 62
7
100
AcDbLine
 10
68.141110
 20
124.388873
 30
0.0
 11
71.141111
 21
124.388873
 31
0.0
  0
LINE
  5
1a4
100
AcDbEntity
  8
Layer_1
 62
7
100
AcDbLine
 10
71.141111
 20
124.388873
 30
0.0
 11
71.141111
 21
127.388867
 31
0.0
  0
LINE
  5
1a5
100
AcDbEntity
  8
Layer_1
 62
7
100
AcDbLine
 10
23.141111
 20
97.388870
 30
0.0
 11
20.141110
 21
97.388870
 31
0.0
  0
LINE
  5
1a6
100
AcDbEntity
  8
Layer_1
 62
7
100
AcDbLine
 10
20.141110
 20
97.388870
 30
0.0
 11
20.141110
 21
94.388876
 31
0.0
  0
LINE
  5
1a7
100
AcDbEntity
  8
Layer_1
 62
7
100
AcDbLine
 10
20.141110
 20
94.388876
 30
0.0
 11
23.141111
 21
94.388876
 31
0.0
  0
LINE
  5
1a8
100
AcDbEntity
  8
Layer_1
 62
7
100
AcDbLine
 10
23.141111
 20
94.388876
 30
0.0
 11
23.141111
 21
97.388870
 31
0.0
  0
LINE
  5
1a9
100
AcDbEntity
  8
Layer_1
 62
7
100
AcDbLine
 10
71.141111
 20
97.388870
 30
0.0
 11
68.141110
 21
97.388870
 31
0.0
  0
LINE
  5
1aa
100
AcDbEntity
  8
Layer_1
 62
7
100
AcDbLine
 10
68.141110
 20
97.388870
 30
0.0
 11
68.141110
 21
94.388876
 31
0.0
  0
LINE
  5
1ab
100
AcDbEntity
  8
Layer_1
 62
7
100
AcDbLine
 10
68.141110
 20
94.388876
 30
0.0
 11
71.141111
 21
94.388876
 31
0.0
  0
LINE
  5
1ac
100
AcDbEntity
  8
Layer_1
 62
7
100
AcDbLine
 10
71.141111
 20
94.388876
 30
0.0
 11
71.141111
 21
97.388870
 31
0.0
  0
LINE
  5
1ad
100
AcDbEntity
  8
Layer_1
 62
7
100
AcDbLine
 10
68.141110
 20
82.888857
 30
0.0
 11
23.141111
 21
82.888857
 31
0.0
  0
LINE
  5
1ae
100
AcDbEntity
  8
Layer_1
 62
7
100
AcDbLine
 10
23.141111
 20
82.888857
 30
0.0
 11
23.141111
 21
79.888863
 31
0.0
  0
LINE
  5
1af
100
AcDbEntity
  8
Layer_1
 62
7
100
AcDbLine
 10
23.141111
 20
79.888863
 30
0.0
 11
68.141110
 21
79.888863
 31
0.0
  0
LINE
  5
1b0
100
AcDbEntity
  8
Layer_1
 62
7
100
AcDbLine
 10
68.141110
 20
79.888863
 30
0.0
 11
68.141110
 21
82.888857
 31
0.0
  0
SPLINE
  5
1b1
100
AcDbEntity
  8
Layer_1
 62
7
100
AcDbSpline
 70
0
 71
3
 72
25
 73
21
 74
19
 40
0.000000
 40
0.000000
 40
0.000000
 40
0.000000
 40
0.916027
 40
1.818941
 40
2.734969
 40
3.651000
 40
4.553921
 40
5.469952
 40
6.385980
 40
7.288893
 40
8.204921
 40
9.120955
 40
10.023880
 40
10.939913
 40
11.855944
 40
12.758865
 40
13.674896
 40
14.590929
 40
15.493854
 40
16.409888
 40
16.409888
 40
16.409888
 40
16.409888
 10
75.775001
 20
43.999998
 30
0.0
 10
75.806364
 20
44.306898
 30
0.0
 10
75.868642
 20
44.916304
 30
0.0
 10
76.351819
 20
45.721642
 30
0.0
 10
77.059269
 20
46.320388
 30
0.0
 10
77.935311
 20
46.637948
 30
0.0
 10
78.864893
 20
46.637948
 30
0.0
 10
79.739708
 20
46.320388
 30
0.0
 10
80.452056
 20
45.721642
 30
0.0
 10
80.917032
 20
44.916304
 30
0.0
 10
81.079375
 20
43.999995
 30
0.0
 10
80.917030
 20
43.083684
 30
0.0
 10
80.452059
 20
42.278335
 30
0.0
 10
79.739710
 20
41.679579
 30
0.0
 10
78.864892
 20
41.362020
 30
0.0
 10
77.935311
 20
41.362020
 30
0.0
 10
77.059267
 20
41.679579
 30
0.0
 10
76.351817
 20
42.278335
 30
0.0
 10
75.868643
 20
43.083684
 30
0.0
 10
75.806365
 20
43.693096
 30
0.0
 10
75.775001
 20
43.999998
 30
0.0
 11
75.775001
 21
43.999998
 31
0.0
 11
75.934795
 21
44.901980
 31
0.0
 11
76.386255
 21
45.683924
 31
0.0
 11
77.087501
 21
46.273298
 31
0.0
 11
77.948541
 21
46.585906
 31
0.0
 11
78.851462
 21
46.585906
 31
0.0
 11
79.712501
 21
46.273298
 31
0.0
 11
80.413747
 21
45.683924
 31
0.0
 11
80.865207
 21
44.901980
 31
0.0
 11
81.025001
 21
43.999998
 31
0.0
 11
80.865207
 21
43.098008
 31
0.0
 11
80.413747
 21
42.316051
 31
0.0
 11
79.712501
 21
41.726670
 31
0.0
 11
78.851462
 21
41.414062
 31
0.0
 11
77.948541
 21
41.414062
 31
0.0
 11
77.087501
 21
41.726670
 31
0.0
 11
76.386255
 21
42.316051
 31
0.0
 11
75.934795
 21
43.098008
 31
0.0
 11
75.775001
 21
43.999998
 31
0.0
  0
ENDSEC
  0
SECTION
  2
OBJECTS
  0
DICTIONARY
  5
C
330
0
100
AcDbDictionary
  3
ACAD_GROUP
350
D
  3
ACAD_MLINESTYLE
350
17
  0
DICTIONARY
  5
D
330
C
100
AcDbDictionary
  0
DICTIONARY
  5
1A
330
C
100
AcDbDictionary
  0
DICTIONARY
  5
17
330
C
100
AcDbDictionary
  3
STANDARD
350
18
  0
DICTIONARY
  5
19
330
C
100
AcDbDictionary
  0
ENDSEC
  0
EOF
