<?xml version="1.0" encoding="UTF-8" standalone="no"?>
<svg
   xmlns:dc="http://purl.org/dc/elements/1.1/"
   xmlns:cc="http://creativecommons.org/ns#"
   xmlns:rdf="http://www.w3.org/1999/02/22-rdf-syntax-ns#"
   xmlns:svg="http://www.w3.org/2000/svg"
   xmlns="http://www.w3.org/2000/svg"
   xmlns:sodipodi="http://sodipodi.sourceforge.net/DTD/sodipodi-0.dtd"
   xmlns:inkscape="http://www.inkscape.org/namespaces/inkscape"
   width="744.094488189"
   height="1052.36220472"
   id="svg2"
   version="1.1"
   inkscape:version="0.48.3.1 r9886"
   sodipodi:docname="mk3_base_x1240_p1500_carrier_lefted.dxf">
  <metadata
     id="metadata348">
    <rdf:RDF>
      <cc:Work
         rdf:about="">
        <dc:format>image/svg+xml</dc:format>
        <dc:type
           rdf:resource="http://purl.org/dc/dcmitype/StillImage" />
        <dc:title></dc:title>
      </cc:Work>
    </rdf:RDF>
  </metadata>
  <sodipodi:namedview
     pagecolor="#ffffff"
     bordercolor="#666666"
     borderopacity="1"
     objecttolerance="10"
     gridtolerance="10"
     guidetolerance="10"
     inkscape:pageopacity="0"
     inkscape:pageshadow="2"
     inkscape:window-width="1375"
     inkscape:window-height="876"
     id="namedview346"
     showgrid="false"
     inkscape:zoom="0.89702957"
     inkscape:cx="529.80862"
     inkscape:cy="-378.38762"
     inkscape:window-x="65"
     inkscape:window-y="24"
     inkscape:window-maximized="1"
     inkscape:current-layer="g20" />
  <desc
     id="desc4">/home/daniel/LittleRiP/DXF/CARRIER/mk3_base_x1240_p1500_carrier.DXF - scale = 1.000000</desc>
  <defs
     id="defs6">
    <marker
       refY="0.0"
       refX="0.0"
       style="overflow:visible"
       id="DistanceX"
       orient="auto">
      <path
         style="stroke:#000000; stroke-width:0.5"
         d="M 3,-3 L -3,3 M 0,-5 L  0,5"
         id="path9" />
    </marker>
    <pattern
       height="8"
       width="8"
       patternUnits="userSpaceOnUse"
       y="0"
       x="0"
       id="Hatch">
      <path
         linecap="square"
         stroke="#000000"
         stroke-width="0.25"
         d="M8 4 l-4,4"
         id="path12" />
      <path
         linecap="square"
         stroke="#000000"
         stroke-width="0.25"
         d="M6 2 l-4,4"
         id="path14" />
      <path
         linecap="square"
         stroke="#000000"
         stroke-width="0.25"
         d="M4 0 l-4,4"
         id="path16" />
    </pattern>
    <symbol
       id="*MODEL_SPACE" />
    <symbol
       id="*PAPER_SPACE" />
  </defs>
  <g
     inkscape:label="0"
     inkscape:groupmode="layer"
     id="g20">
    <path
       style="stroke:#000000;fill:none"
       d="M -49.606299,885.295276 C -49.605474,883.395875 -50.618321,881.640404 -52.263113,880.690465"
       id="path22" />
    <path
       style="stroke:#000000;fill:none"
       d="M -52.263113,880.690465 C -53.907906,879.740525 -55.934614,879.740525 -57.579406,880.690465"
       id="path24" />
    <path
       style="stroke:#000000;fill:none"
       d="M -57.579406,880.690465 C -59.224199,881.640404 -60.237043,883.395875 -60.236220,885.295276"
       id="path26" />
    <path
       style="stroke:#000000;fill:none"
       d="M -60.236220,885.295276 C -60.237043,887.194676 -59.224199,888.950151 -57.579406,889.900087"
       id="path28" />
    <path
       style="stroke:#000000;fill:none"
       d="M -57.579406,889.900087 C -55.934614,890.850026 -53.907906,890.850026 -52.263113,889.900087"
       id="path30" />
    <path
       style="stroke:#000000;fill:none"
       d="M -52.263113,889.900087 C -50.618321,888.950151 -49.605474,887.194676 -49.606299,885.295276"
       id="path32" />
    <path
       style="stroke:#000000;fill:none"
       d="M 60.236220,885.295276 C 60.237043,883.395875 59.224199,881.640404 57.579406,880.690465"
       id="path34" />
    <path
       style="stroke:#000000;fill:none"
       d="M 57.579406,880.690465 C 55.934614,879.740525 53.907906,879.740525 52.263113,880.690465"
       id="path36" />
    <path
       style="stroke:#000000;fill:none"
       d="M 52.263113,880.690465 C 50.618321,881.640404 49.605474,883.395875 49.606299,885.295276"
       id="path38" />
    <path
       style="stroke:#000000;fill:none"
       d="M 49.606299,885.295276 C 49.605474,887.194676 50.618321,888.950151 52.263113,889.900087"
       id="path40" />
    <path
       style="stroke:#000000;fill:none"
       d="M 52.263113,889.900087 C 53.907906,890.850026 55.934614,890.850026 57.579406,889.900087"
       id="path42" />
    <path
       style="stroke:#000000;fill:none"
       d="M 57.579406,889.900087 C 59.224199,888.950151 60.237043,887.194676 60.236220,885.295276"
       id="path44" />
    <path
       style="stroke:#000000;fill:none"
       d="M -49.606299,885.295276 L -49.606299,885.295276"
       id="path46" />
    <path
       style="stroke:#000000;fill:none"
       d="M 60.236220,775.452756 C 60.237043,773.553356 59.224199,771.797881 57.579406,770.847945"
       id="path48" />
    <path
       style="stroke:#000000;fill:none"
       d="M 57.579406,770.847945 C 55.934614,769.898006 53.907906,769.898006 52.263113,770.847945"
       id="path50" />
    <path
       style="stroke:#000000;fill:none"
       d="M 52.263113,770.847945 C 50.618321,771.797881 49.605474,773.553356 49.606299,775.452756"
       id="path52" />
    <path
       style="stroke:#000000;fill:none"
       d="M 49.606299,775.452756 C 49.605474,777.352156 50.618321,779.107631 52.263113,780.057567"
       id="path54" />
    <path
       style="stroke:#000000;fill:none"
       d="M 52.263113,780.057567 C 53.907906,781.007506 55.934614,781.007506 57.579406,780.057567"
       id="path56" />
    <path
       style="stroke:#000000;fill:none"
       d="M 57.579406,780.057567 C 59.224199,779.107631 60.237043,777.352156 60.236220,775.452756"
       id="path58" />
    <path
       style="stroke:#000000;fill:none"
       d="M 60.236220,885.295276 L 60.236220,885.295276"
       id="path60" />
    <path
       style="stroke:#000000;fill:none"
       d="M -49.606299,775.452756 C -49.605474,773.553356 -50.618321,771.797881 -52.263113,770.847945"
       id="path62" />
    <path
       style="stroke:#000000;fill:none"
       d="M -52.263113,770.847945 C -53.907906,769.898006 -55.934614,769.898006 -57.579406,770.847945"
       id="path64" />
    <path
       style="stroke:#000000;fill:none"
       d="M -57.579406,770.847945 C -59.224199,771.797881 -60.237043,773.553356 -60.236220,775.452756"
       id="path66" />
    <path
       style="stroke:#000000;fill:none"
       d="M -60.236220,775.452756 C -60.237043,777.352156 -59.224199,779.107631 -57.579406,780.057567"
       id="path68" />
    <path
       style="stroke:#000000;fill:none"
       d="M -57.579406,780.057567 C -55.934614,781.007506 -53.907906,781.007506 -52.263113,780.057567"
       id="path70" />
    <path
       style="stroke:#000000;fill:none"
       d="M -52.263113,780.057567 C -50.618321,779.107631 -49.605474,777.352156 -49.606299,775.452756"
       id="path72" />
    <path
       style="stroke:#000000;fill:none"
       d="M 60.236220,775.452756 L 60.236220,775.452756"
       id="path74" />
    <path
       style="fill:none;stroke:#000000;stroke-width:1"
       d="m 174.15353,1533.9367 c 8.2e-4,-1.8994 -1.01203,-3.6548 -2.65682,-4.6048"
       id="path76"
       inkscape:connector-curvature="0" />
    <path
       style="fill:none;stroke:#000000;stroke-width:1"
       d="m 171.49671,1529.3319 c -1.64479,-0.9499 -3.6715,-0.9499 -5.31629,0"
       id="path78"
       inkscape:connector-curvature="0" />
    <path
       style="fill:none;stroke:#000000;stroke-width:1"
       d="m 166.18042,1529.3319 c -1.64479,0.95 -2.65764,2.7054 -2.65682,4.6048"
       id="path80"
       inkscape:connector-curvature="0" />
    <path
       style="fill:none;stroke:#000000;stroke-width:1"
       d="m 163.5236,1533.9367 c -8.2e-4,1.8994 1.01203,3.6549 2.65682,4.6048"
       id="path82"
       inkscape:connector-curvature="0" />
    <path
       style="fill:none;stroke:#000000;stroke-width:1"
       d="m 166.18042,1538.5415 c 1.64479,0.95 3.6715,0.95 5.31629,0"
       id="path84"
       inkscape:connector-curvature="0" />
    <path
       style="fill:none;stroke:#000000;stroke-width:1"
       d="m 171.49671,1538.5415 c 1.64479,-0.9499 2.65764,-2.7054 2.65682,-4.6048"
       id="path86"
       inkscape:connector-curvature="0" />
    <path
       style="stroke:#000000;fill:none"
       d="M -49.606299,775.452756 L -49.606299,775.452756"
       id="path88" />
    <path
       style="fill:none;stroke:#000000;stroke-width:1"
       d="m 563.9173,1533.9367 c 8.3e-4,-1.8994 -1.01202,-3.6548 -2.65681,-4.6048"
       id="path90"
       inkscape:connector-curvature="0" />
    <path
       style="fill:none;stroke:#000000;stroke-width:1"
       d="m 561.26049,1529.3319 c -1.64479,-0.9499 -3.6715,-0.9499 -5.31629,0"
       id="path92"
       inkscape:connector-curvature="0" />
    <path
       style="fill:none;stroke:#000000;stroke-width:1"
       d="m 555.9442,1529.3319 c -1.64479,0.95 -2.65764,2.7054 -2.65682,4.6048"
       id="path94"
       inkscape:connector-curvature="0" />
    <path
       style="fill:none;stroke:#000000;stroke-width:1"
       d="m 553.28738,1533.9367 c -8.2e-4,1.8994 1.01203,3.6549 2.65682,4.6048"
       id="path96"
       inkscape:connector-curvature="0" />
    <path
       style="fill:none;stroke:#000000;stroke-width:1"
       d="m 555.9442,1538.5415 c 1.64479,0.95 3.6715,0.95 5.31629,0"
       id="path98"
       inkscape:connector-curvature="0" />
    <path
       style="fill:none;stroke:#000000;stroke-width:1"
       d="m 561.26049,1538.5415 c 1.64479,-0.9499 2.65764,-2.7054 2.65681,-4.6048"
       id="path100"
       inkscape:connector-curvature="0" />
    <path
       style="fill:none;stroke:#000000;stroke-width:1"
       d="m 174.15353,1533.9367 0,0"
       id="path102"
       inkscape:connector-curvature="0" />
    <path
       style="fill:none;stroke:#000000;stroke-width:1"
       d="m 369.03542,1246.5354 c 0,-1.8988 -1.01303,-3.6534 -2.65749,-4.6029"
       id="path104"
       inkscape:connector-curvature="0" />
    <path
       style="fill:none;stroke:#000000;stroke-width:1"
       d="m 366.37793,1241.9325 c -1.64445,-0.9494 -3.6705,-0.9494 -5.31496,0"
       id="path106"
       inkscape:connector-curvature="0" />
    <path
       style="fill:none;stroke:#000000;stroke-width:1"
       d="m 361.06297,1241.9325 c -1.64445,0.9495 -2.65748,2.7041 -2.65748,4.6029"
       id="path108"
       inkscape:connector-curvature="0" />
    <path
       style="fill:none;stroke:#000000;stroke-width:1"
       d="m 358.40549,1246.5354 c 0,1.8989 1.01303,3.6535 2.65748,4.6029"
       id="path110"
       inkscape:connector-curvature="0" />
    <path
       style="fill:none;stroke:#000000;stroke-width:1"
       d="m 361.06297,1251.1383 c 1.64446,0.9494 3.67051,0.9494 5.31496,0"
       id="path112"
       inkscape:connector-curvature="0" />
    <path
       style="fill:none;stroke:#000000;stroke-width:1"
       d="m 366.37793,1251.1383 c 1.64446,-0.9494 2.65749,-2.704 2.65749,-4.6029"
       id="path114"
       inkscape:connector-curvature="0" />
    <path
       style="fill:none;stroke:#000000;stroke-width:1"
       d="m 563.9173,1533.9367 0,0"
       id="path116"
       inkscape:connector-curvature="0" />
    <path
       style="fill:none;stroke:#000000;stroke-width:1"
       d="m 369.03542,1246.5354 0,0"
       id="path118"
       inkscape:connector-curvature="0" />
    <path
       style="stroke:#000000;fill:none"
       d="M 251.663386,1136.692913 C 251.663386,1133.369922 249.890591,1130.299349 247.012795,1128.637853"
       id="path120" />
    <path
       style="stroke:#000000;fill:none"
       d="M 247.012795,1128.637853 C 244.134999,1126.976357 240.589410,1126.976357 237.711614,1128.637853"
       id="path122" />
    <path
       style="stroke:#000000;fill:none"
       d="M 237.711614,1128.637853 C 234.833818,1130.299349 233.061024,1133.369922 233.061024,1136.692913"
       id="path124" />
    <path
       style="stroke:#000000;fill:none"
       d="M 233.061024,1136.692913 C 233.061024,1140.015905 234.833818,1143.086474 237.711614,1144.747974"
       id="path126" />
    <path
       style="stroke:#000000;fill:none"
       d="M 237.711614,1144.747974 C 240.589410,1146.409469 244.134999,1146.409469 247.012795,1144.747974"
       id="path128" />
    <path
       style="stroke:#000000;fill:none"
       d="M 247.012795,1144.747974 C 249.890591,1143.086474 251.663386,1140.015905 251.663386,1136.692913"
       id="path130" />
    <path
       style="stroke:#000000;fill:none"
       d="M 648.070866,1560.171430 L 300.826772,1048.074559 L 300.826772,661.535433 L -300.826772,661.535433 L -300.826772,1195.157480 L 147.682924,1668.582407 L 648.070866,1668.582407 L 648.070866,1560.171430"
       id="path132" />
    <path
       style="stroke:#000000;fill:none"
       d="M -233.061024,1136.692913 C -233.061024,1133.369922 -234.833818,1130.299349 -237.711614,1128.637853"
       id="path134" />
    <path
       style="stroke:#000000;fill:none"
       d="M -237.711614,1128.637853 C -240.589410,1126.976357 -244.134999,1126.976357 -247.012795,1128.637853"
       id="path136" />
    <path
       style="stroke:#000000;fill:none"
       d="M -247.012795,1128.637853 C -249.890591,1130.299349 -251.663386,1133.369922 -251.663386,1136.692913"
       id="path138" />
    <path
       style="stroke:#000000;fill:none"
       d="M -251.663386,1136.692913 C -251.663386,1140.015905 -249.890591,1143.086478 -247.012795,1144.747974"
       id="path140" />
    <path
       style="stroke:#000000;fill:none"
       d="M -247.012795,1144.747974 C -244.134999,1146.409469 -240.589410,1146.409469 -237.711614,1144.747974"
       id="path142" />
    <path
       style="stroke:#000000;fill:none"
       d="M -237.711614,1144.747974 C -234.833818,1143.086478 -233.061024,1140.015905 -233.061024,1136.692913"
       id="path144" />
    <path
       style="stroke:#000000;fill:none"
       d="M 251.663386,1136.692913 L 251.663386,1136.692913"
       id="path146" />
    <path
       style="stroke:#000000;fill:none"
       d="M -120.738189,885.295276 C -120.738189,882.668530 -122.139542,880.241315 -124.414370,878.927942"
       id="path148" />
    <path
       style="stroke:#000000;fill:none"
       d="M -124.414370,878.927942 C -126.689198,877.614569 -129.491904,877.614569 -131.766732,878.927942"
       id="path150" />
    <path
       style="stroke:#000000;fill:none"
       d="M -131.766732,878.927942 C -134.041560,880.241315 -135.442913,882.668530 -135.442913,885.295276"
       id="path152" />
    <path
       style="stroke:#000000;fill:none"
       d="M -135.442913,885.295276 C -135.442913,887.922021 -134.041560,890.349236 -131.766732,891.662609"
       id="path154" />
    <path
       style="stroke:#000000;fill:none"
       d="M -131.766732,891.662609 C -129.491904,892.975982 -126.689198,892.975982 -124.414370,891.662609"
       id="path156" />
    <path
       style="stroke:#000000;fill:none"
       d="M -124.414370,891.662609 C -122.139542,890.349236 -120.738189,887.922021 -120.738189,885.295276"
       id="path158" />
    <path
       style="stroke:#000000;fill:none"
       d="M -233.061024,1136.692913 L -233.061024,1136.692913"
       id="path160" />
    <path
       style="stroke:#000000;fill:none"
       d="M -120.738189,775.452756 C -120.738189,772.826010 -122.139542,770.398795 -124.414370,769.085422"
       id="path162" />
    <path
       style="stroke:#000000;fill:none"
       d="M -124.414370,769.085422 C -126.689198,767.772050 -129.491904,767.772050 -131.766732,769.085422"
       id="path164" />
    <path
       style="stroke:#000000;fill:none"
       d="M -131.766732,769.085422 C -134.041560,770.398795 -135.442913,772.826010 -135.442913,775.452756"
       id="path166" />
    <path
       style="stroke:#000000;fill:none"
       d="M -135.442913,775.452756 C -135.442913,778.079502 -134.041560,780.506717 -131.766732,781.820089"
       id="path168" />
    <path
       style="stroke:#000000;fill:none"
       d="M -131.766732,781.820089 C -129.491904,783.133462 -126.689198,783.133462 -124.414370,781.820089"
       id="path170" />
    <path
       style="stroke:#000000;fill:none"
       d="M -124.414370,781.820089 C -122.139542,780.506717 -120.738189,778.079502 -120.738189,775.452756"
       id="path172" />
    <path
       style="stroke:#000000;fill:none"
       d="M -120.738189,885.295276 L -120.738189,885.295276"
       id="path174" />
    <path
       style="stroke:#000000;fill:none"
       d="M 135.442913,775.452756 C 135.442913,772.826010 134.041560,770.398795 131.766732,769.085422"
       id="path176" />
    <path
       style="stroke:#000000;fill:none"
       d="M 131.766732,769.085422 C 129.491904,767.772050 126.689198,767.772050 124.414370,769.085422"
       id="path178" />
    <path
       style="stroke:#000000;fill:none"
       d="M 124.414370,769.085422 C 122.139542,770.398795 120.738189,772.826010 120.738189,775.452756"
       id="path180" />
    <path
       style="stroke:#000000;fill:none"
       d="M 120.738189,775.452756 C 120.738189,778.079502 122.139542,780.506717 124.414370,781.820089"
       id="path182" />
    <path
       style="stroke:#000000;fill:none"
       d="M 124.414370,781.820089 C 126.689198,783.133462 129.491904,783.133462 131.766732,781.820089"
       id="path184" />
    <path
       style="stroke:#000000;fill:none"
       d="M 131.766732,781.820089 C 134.041560,780.506717 135.442913,778.079502 135.442913,775.452756"
       id="path186" />
    <path
       style="stroke:#000000;fill:none"
       d="M -120.738189,775.452756 L -120.738189,775.452756"
       id="path188" />
    <path
       style="stroke:#000000;fill:none"
       d="M 135.442913,885.295276 C 135.442913,882.668530 134.041560,880.241315 131.766732,878.927942"
       id="path190" />
    <path
       style="stroke:#000000;fill:none"
       d="M 131.766732,878.927942 C 129.491904,877.614569 126.689198,877.614569 124.414370,878.927942"
       id="path192" />
    <path
       style="stroke:#000000;fill:none"
       d="M 124.414370,878.927942 C 122.139542,880.241315 120.738189,882.668530 120.738189,885.295276"
       id="path194" />
    <path
       style="stroke:#000000;fill:none"
       d="M 120.738189,885.295276 C 120.738189,887.922021 122.139542,890.349236 124.414370,891.662609"
       id="path196" />
    <path
       style="stroke:#000000;fill:none"
       d="M 124.414370,891.662609 C 126.689198,892.975982 129.491904,892.975982 131.766732,891.662609"
       id="path198" />
    <path
       style="stroke:#000000;fill:none"
       d="M 131.766732,891.662609 C 134.041560,890.349236 135.442913,887.922021 135.442913,885.295276"
       id="path200" />
    <path
       style="stroke:#000000;fill:none"
       d="M 135.442913,775.452756 L 135.442913,775.452756"
       id="path202" />
    <path
       style="stroke:#000000;fill:none"
       d="M -100.048426,1114.370079 C -100.048426,1111.743333 -101.449779,1109.316118 -103.724607,1108.002745"
       id="path204" />
    <path
       style="stroke:#000000;fill:none"
       d="M -103.724607,1108.002745 C -105.999435,1106.689372 -108.802141,1106.689372 -111.076969,1108.002745"
       id="path206" />
    <path
       style="stroke:#000000;fill:none"
       d="M -111.076969,1108.002745 C -113.351797,1109.316118 -114.753150,1111.743333 -114.753150,1114.370079"
       id="path208" />
    <path
       style="stroke:#000000;fill:none"
       d="M -114.753150,1114.370079 C -114.753150,1116.996824 -113.351797,1119.424039 -111.076969,1120.737412"
       id="path210" />
    <path
       style="stroke:#000000;fill:none"
       d="M -111.076969,1120.737412 C -108.802141,1122.050785 -105.999435,1122.050785 -103.724607,1120.737412"
       id="path212" />
    <path
       style="stroke:#000000;fill:none"
       d="M -103.724607,1120.737412 C -101.449779,1119.424039 -100.048426,1116.996824 -100.048426,1114.370079"
       id="path214" />
    <path
       style="stroke:#000000;fill:none"
       d="M 135.442913,885.295276 L 135.442913,885.295276"
       id="path216" />
    <path
       style="stroke:#000000;fill:none"
       d="M -100.048426,990.354331 C -100.048426,987.727585 -101.449779,985.300370 -103.724607,983.986997"
       id="path218" />
    <path
       style="stroke:#000000;fill:none"
       d="M -103.724607,983.986997 C -105.999435,982.673624 -108.802141,982.673624 -111.076969,983.986997"
       id="path220" />
    <path
       style="stroke:#000000;fill:none"
       d="M -111.076969,983.986997 C -113.351797,985.300370 -114.753150,987.727585 -114.753150,990.354331"
       id="path222" />
    <path
       style="stroke:#000000;fill:none"
       d="M -114.753150,990.354331 C -114.753150,992.981076 -113.351797,995.408291 -111.076969,996.721664"
       id="path224" />
    <path
       style="stroke:#000000;fill:none"
       d="M -111.076969,996.721664 C -108.802141,998.035037 -105.999435,998.035037 -103.724607,996.721664"
       id="path226" />
    <path
       style="stroke:#000000;fill:none"
       d="M -103.724607,996.721664 C -101.449779,995.408291 -100.048426,992.981076 -100.048426,990.354331"
       id="path228" />
    <path
       style="stroke:#000000;fill:none"
       d="M -100.048426,1114.370079 L -100.048426,1114.370079"
       id="path230" />
    <path
       style="stroke:#000000;fill:none"
       d="M 251.663386,720.000000 C 251.663386,716.677009 249.890591,713.606435 247.012795,711.944940"
       id="path232" />
    <path
       style="stroke:#000000;fill:none"
       d="M 247.012795,711.944940 C 244.134999,710.283444 240.589410,710.283444 237.711614,711.944940"
       id="path234" />
    <path
       style="stroke:#000000;fill:none"
       d="M 237.711614,711.944940 C 234.833818,713.606435 233.061024,716.677009 233.061024,720.000000"
       id="path236" />
    <path
       style="stroke:#000000;fill:none"
       d="M 233.061024,720.000000 C 233.061024,723.322991 234.833818,726.393565 237.711614,728.055060"
       id="path238" />
    <path
       style="stroke:#000000;fill:none"
       d="M 237.711614,728.055060 C 240.589410,729.716556 244.134999,729.716556 247.012795,728.055060"
       id="path240" />
    <path
       style="stroke:#000000;fill:none"
       d="M 247.012795,728.055060 C 249.890591,726.393565 251.663386,723.322991 251.663386,720.000000"
       id="path242" />
    <path
       style="stroke:#000000;fill:none"
       d="M -100.048426,990.354331 L -100.048426,990.354331"
       id="path244" />
    <path
       style="stroke:#000000;fill:none"
       d="M -233.061024,720.000000 C -233.061024,716.677009 -234.833818,713.606435 -237.711614,711.944940"
       id="path246" />
    <path
       style="stroke:#000000;fill:none"
       d="M -237.711614,711.944940 C -240.589410,710.283444 -244.134999,710.283444 -247.012795,711.944940"
       id="path248" />
    <path
       style="stroke:#000000;fill:none"
       d="M -247.012795,711.944940 C -249.890591,713.606435 -251.663386,716.677009 -251.663386,720.000000"
       id="path250" />
    <path
       style="stroke:#000000;fill:none"
       d="M -251.663386,720.000000 C -251.663386,723.322991 -249.890591,726.393565 -247.012795,728.055060"
       id="path252" />
    <path
       style="stroke:#000000;fill:none"
       d="M -247.012795,728.055060 C -244.134999,729.716556 -240.589410,729.716556 -237.711614,728.055060"
       id="path254" />
    <path
       style="stroke:#000000;fill:none"
       d="M -237.711614,728.055060 C -234.833818,726.393565 -233.061024,723.322991 -233.061024,720.000000"
       id="path256" />
    <path
       style="stroke:#000000;fill:none"
       d="M 251.663386,720.000000 L 251.663386,720.000000"
       id="path258" />
    <path
       style="stroke:#000000;fill:none"
       d="M 114.753150,990.354331 C 114.753150,987.727585 113.351797,985.300370 111.076969,983.986997"
       id="path260" />
    <path
       style="stroke:#000000;fill:none"
       d="M 111.076969,983.986997 C 108.802141,982.673624 105.999435,982.673624 103.724607,983.986997"
       id="path262" />
    <path
       style="stroke:#000000;fill:none"
       d="M 103.724607,983.986997 C 101.449779,985.300370 100.048426,987.727585 100.048426,990.354331"
       id="path264" />
    <path
       style="stroke:#000000;fill:none"
       d="M 100.048426,990.354331 C 100.048426,992.981076 101.449779,995.408291 103.724607,996.721664"
       id="path266" />
    <path
       style="stroke:#000000;fill:none"
       d="M 103.724607,996.721664 C 105.999435,998.035037 108.802141,998.035037 111.076969,996.721664"
       id="path268" />
    <path
       style="stroke:#000000;fill:none"
       d="M 111.076969,996.721664 C 113.351797,995.408291 114.753150,992.981076 114.753150,990.354331"
       id="path270" />
    <path
       style="stroke:#000000;fill:none"
       d="M -233.061024,720.000000 L -233.061024,720.000000"
       id="path272" />
    <path
       style="stroke:#000000;fill:none"
       d="M 7.352362,1052.362205 C 7.352362,1049.735459 5.951009,1047.308244 3.676181,1045.994871"
       id="path274" />
    <path
       style="stroke:#000000;fill:none"
       d="M 3.676181,1045.994871 C 1.401353,1044.681498 -1.401353,1044.681498 -3.676181,1045.994871"
       id="path276" />
    <path
       style="stroke:#000000;fill:none"
       d="M -3.676181,1045.994871 C -5.951009,1047.308244 -7.352362,1049.735459 -7.352362,1052.362205"
       id="path278" />
    <path
       style="stroke:#000000;fill:none"
       d="M -7.352362,1052.362205 C -7.352362,1054.988950 -5.951009,1057.416165 -3.676181,1058.729538"
       id="path280" />
    <path
       style="stroke:#000000;fill:none"
       d="M -3.676181,1058.729538 C -1.401353,1060.042911 1.401353,1060.042911 3.676181,1058.729538"
       id="path282" />
    <path
       style="stroke:#000000;fill:none"
       d="M 3.676181,1058.729538 C 5.951009,1057.416165 7.352362,1054.988950 7.352362,1052.362205"
       id="path284" />
    <path
       style="stroke:#000000;fill:none"
       d="M 114.753150,990.354331 L 114.753150,990.354331"
       id="path286" />
    <path
       style="stroke:#000000;fill:none"
       d="M 114.753150,1114.370079 C 114.753150,1111.743333 113.351797,1109.316118 111.076969,1108.002745"
       id="path288" />
    <path
       style="stroke:#000000;fill:none"
       d="M 111.076969,1108.002745 C 108.802141,1106.689372 105.999435,1106.689372 103.724607,1108.002745"
       id="path290" />
    <path
       style="stroke:#000000;fill:none"
       d="M 103.724607,1108.002745 C 101.449779,1109.316118 100.048426,1111.743333 100.048426,1114.370079"
       id="path292" />
    <path
       style="stroke:#000000;fill:none"
       d="M 100.048426,1114.370079 C 100.048426,1116.996824 101.449779,1119.424039 103.724607,1120.737412"
       id="path294" />
    <path
       style="stroke:#000000;fill:none"
       d="M 103.724607,1120.737412 C 105.999435,1122.050785 108.802141,1122.050785 111.076969,1120.737412"
       id="path296" />
    <path
       style="stroke:#000000;fill:none"
       d="M 111.076969,1120.737412 C 113.351797,1119.424039 114.753150,1116.996824 114.753150,1114.370079"
       id="path298" />
    <path
       style="stroke:#000000;fill:none"
       d="M 7.352362,1052.362205 L 7.352362,1052.362205"
       id="path300" />
    <path
       style="fill:none;stroke:#000000;stroke-width:1"
       d="m 167.95274,1597.7163 c 0,-1.8989 -1.01303,-3.6535 -2.65748,-4.6029"
       id="path302"
       inkscape:connector-curvature="0" />
    <path
       style="fill:none;stroke:#000000;stroke-width:1"
       d="m 165.29526,1593.1134 c -1.64446,-0.9494 -3.67051,-0.9494 -5.31496,0"
       id="path304"
       inkscape:connector-curvature="0" />
    <path
       style="fill:none;stroke:#000000;stroke-width:1"
       d="m 159.9803,1593.1134 c -1.64446,0.9494 -2.65748,2.704 -2.65748,4.6029"
       id="path306"
       inkscape:connector-curvature="0" />
    <path
       style="fill:none;stroke:#000000;stroke-width:1"
       d="m 157.32282,1597.7163 c 0,1.8988 1.01302,3.6534 2.65748,4.6029"
       id="path308"
       inkscape:connector-curvature="0" />
    <path
       style="fill:none;stroke:#000000;stroke-width:1"
       d="m 159.9803,1602.3192 c 1.64445,0.9494 3.6705,0.9494 5.31496,0"
       id="path310"
       inkscape:connector-curvature="0" />
    <path
       style="fill:none;stroke:#000000;stroke-width:1"
       d="m 165.29526,1602.3192 c 1.64445,-0.9495 2.65748,-2.7041 2.65748,-4.6029"
       id="path312"
       inkscape:connector-curvature="0" />
    <path
       style="stroke:#000000;fill:none"
       d="M 114.753150,1114.370079 L 114.753150,1114.370079"
       id="path314" />
    <path
       style="fill:none;stroke:#000000;stroke-width:1"
       d="m 557.71652,1597.7163 c 8.2e-4,-1.8994 -1.01202,-3.6549 -2.65682,-4.6048"
       id="path316"
       inkscape:connector-curvature="0" />
    <path
       style="fill:none;stroke:#000000;stroke-width:1"
       d="m 555.0597,1593.1115 c -1.64479,-0.95 -3.6715,-0.95 -5.31629,0"
       id="path318"
       inkscape:connector-curvature="0" />
    <path
       style="fill:none;stroke:#000000;stroke-width:1"
       d="m 549.74341,1593.1115 c -1.64479,0.9499 -2.65764,2.7054 -2.65681,4.6048"
       id="path320"
       inkscape:connector-curvature="0" />
    <path
       style="fill:none;stroke:#000000;stroke-width:1"
       d="m 547.0866,1597.7163 c -8.3e-4,1.8994 1.01202,3.6548 2.65681,4.6048"
       id="path322"
       inkscape:connector-curvature="0" />
    <path
       style="fill:none;stroke:#000000;stroke-width:1"
       d="m 549.74341,1602.3211 c 1.64479,0.9499 3.6715,0.9499 5.31629,0"
       id="path324"
       inkscape:connector-curvature="0" />
    <path
       style="fill:none;stroke:#000000;stroke-width:1"
       d="m 555.0597,1602.3211 c 1.6448,-0.95 2.65764,-2.7054 2.65682,-4.6048"
       id="path326"
       inkscape:connector-curvature="0" />
    <path
       style="fill:none;stroke:#000000;stroke-width:1"
       d="m 167.95274,1597.7163 0,0"
       id="path328"
       inkscape:connector-curvature="0" />
    <path
       style="fill:none;stroke:#000000;stroke-width:1"
       d="m 362.83463,1310.315 c 8.2e-4,-1.8994 -1.01202,-3.6549 -2.65682,-4.6048"
       id="path330"
       inkscape:connector-curvature="0" />
    <path
       style="fill:none;stroke:#000000;stroke-width:1"
       d="m 360.17781,1305.7102 c -1.64479,-0.95 -3.6715,-0.95 -5.31629,0"
       id="path332"
       inkscape:connector-curvature="0" />
    <path
       style="fill:none;stroke:#000000;stroke-width:1"
       d="m 354.86152,1305.7102 c -1.64479,0.9499 -2.65764,2.7054 -2.65681,4.6048"
       id="path334"
       inkscape:connector-curvature="0" />
    <path
       style="fill:none;stroke:#000000;stroke-width:1"
       d="m 352.20471,1310.315 c -8.3e-4,1.8994 1.01202,3.6548 2.65681,4.6048"
       id="path336"
       inkscape:connector-curvature="0" />
    <path
       style="fill:none;stroke:#000000;stroke-width:1"
       d="m 354.86152,1314.9198 c 1.64479,0.9499 3.6715,0.9499 5.31629,0"
       id="path338"
       inkscape:connector-curvature="0" />
    <path
       style="fill:none;stroke:#000000;stroke-width:1"
       d="m 360.17781,1314.9198 c 1.6448,-0.95 2.65764,-2.7054 2.65682,-4.6048"
       id="path340"
       inkscape:connector-curvature="0" />
    <path
       style="fill:none;stroke:#000000;stroke-width:1"
       d="m 557.71652,1597.7163 0,0"
       id="path342"
       inkscape:connector-curvature="0" />
    <path
       style="fill:none;stroke:#000000;stroke-width:1"
       d="m 362.83463,1310.315 0,0"
       id="path344"
       inkscape:connector-curvature="0" />
  </g>
</svg>
