  0
SECTION
  2
HEADER
  9
$ACADVER
  1
AC1014
  9
$HANDSEED
  5
FFFF
  9
$MEASUREMENT
 70
     1
  0
ENDSEC
  0
SECTION
  2
TABLES
  0
TABLE
  2
VPORT
  5
8
330
0
100
AcDbSymbolTable
 70
     4
  0
VPORT
  5
2E
330
8
100
AcDbSymbolTableRecord
100
AcDbViewportTableRecord
  2
*ACTIVE
 70
     0
 10
0.0
 20
0.0
 11
1.0
 21
1.0
 12
210.0
 22
148.5
 13
0.0
 23
0.0
 14
10.0
 24
10.0
 15
10.0
 25
10.0
 16
0.0
 26
0.0
 36
1.0
 17
0.0
 27
0.0
 37
0.0
 40
341.0
 41
1.24
 42
50.0
 43
0.0
 44
0.0
 50
0.0
 51
0.0
 71
     0
 72
   100
 73
     1
 74
     3
 75
     0
 76
     0
 77
     0
 78
     0
  0
ENDTAB
  0
TABLE
  2
LTYPE
  5
5
330
0
100
AcDbSymbolTable
 70
     1
  0
LTYPE
  5
14
330
5
100
AcDbSymbolTableRecord
100
AcDbLinetypeTableRecord
  2
BYBLOCK
 70
     0
  3

 72
    65
 73
     0
 40
0.0
  0
LTYPE
  5
15
330
5
100
AcDbSymbolTableRecord
100
AcDbLinetypeTableRecord
  2
BYLAYER
 70
     0
  3

 72
    65
 73
     0
 40
0.0
  0
LTYPE
  5
16
330
5
100
AcDbSymbolTableRecord
100
AcDbLinetypeTableRecord
  2
CONTINUOUS
 70
     0
  3
Solid line
 72
    65
 73
     0
 40
0.0
  0
ENDTAB
  0
TABLE
  2
LAYER
  5
2
100
AcDbSymbolTable
 70
1
  0
LAYER
  5
50
100
AcDbSymbolTableRecord
100
AcDbLayerTableRecord
  2
0
 70
0
  6
CONTINUOUS
  0
ENDTAB
  0
TABLE
  2
STYLE
  5
3
330
0
100
AcDbSymbolTable
 70
     1
  0
STYLE
  5
11
330
3
100
AcDbSymbolTableRecord
100
AcDbTextStyleTableRecord
  2
STANDARD
 70
     0
 40
0.0
 41
1.0
 50
0.0
 71
     0
 42
2.5
  3
txt
  4

  0
ENDTAB
  0
TABLE
  2
VIEW
  5
6
330
0
100
AcDbSymbolTable
 70
     0
  0
ENDTAB
  0
TABLE
  2
UCS
  5
7
330
0
100
AcDbSymbolTable
 70
     0
  0
ENDTAB
  0
TABLE
  2
APPID
  5
9
330
0
100
AcDbSymbolTable
 70
     2
  0
APPID
  5
12
330
9
100
AcDbSymbolTableRecord
100
AcDbRegAppTableRecord
  2
ACAD
 70
     0
  0
ENDTAB
  0
TABLE
  2
DIMSTYLE
  5
A
330
0
100
AcDbSymbolTable
 70
     1
  0
DIMSTYLE
105
27
330
A
100
AcDbSymbolTableRecord
100
AcDbDimStyleTableRecord
  2
ISO-25
 70
     0
  3

  4

  5

  6

  7

 40
1.0
 41
2.5
 42
0.625
 43
3.75
 44
1.25
 45
0.0
 46
0.0
 47
0.0
 48
0.0
140
2.5
141
2.5
142
0.0
143
0.03937007874016
144
1.0
145
0.0
146
1.0
147
0.625
 71
     0
 72
     0
 73
     0
 74
     0
 75
     0
 76
     0
 77
     1
 78
     8
170
     0
171
     3
172
     1
173
     0
174
     0
175
     0
176
     0
177
     0
178
     0
270
     2
271
     2
272
     2
273
     2
274
     3
340
11
275
     0
280
     0
281
     0
282
     0
283
     0
284
     8
285
     0
286
     0
287
     3
288
     0
  0
ENDTAB
  0
TABLE
  2
BLOCK_RECORD
  5
1
330
0
100
AcDbSymbolTable
 70
     1
  0
BLOCK_RECORD
  5
1F
330
1
100
AcDbSymbolTableRecord
100
AcDbBlockTableRecord
  2
*MODEL_SPACE
  0
BLOCK_RECORD
  5
1B
330
1
100
AcDbSymbolTableRecord
100
AcDbBlockTableRecord
  2
*PAPER_SPACE
  0
ENDTAB
  0
ENDSEC
  0
SECTION
  2
BLOCKS
  0
BLOCK
  5
20
330
1F
100
AcDbEntity
  8
0
100
AcDbBlockBegin
  2
*MODEL_SPACE
 70
     0
 10
0.0
 20
0.0
 30
0.0
  3
*MODEL_SPACE
  1

  0
ENDBLK
  5
21
330
1F
100
AcDbEntity
  8
0
100
AcDbBlockEnd
  0
BLOCK
  5
1C
330
1B
100
AcDbEntity
 67
     1
  8
0
100
AcDbBlockBegin
  2
*PAPER_SPACE
  1

  0
ENDBLK
  5
1D
330
1B
100
AcDbEntity
 67
     1
  8
0
100
AcDbBlockEnd
  0
ENDSEC
  0
SECTION
  2
ENTITIES
  0
SPLINE
  5
100
100
AcDbEntity
  8
0
 62
7
100
AcDbSpline
 70
0
 71
3
 72
25
 73
21
 74
19
 40
0.000000
 40
0.000000
 40
0.000000
 40
0.000000
 40
0.697929
 40
1.385870
 40
2.083798
 40
2.781727
 40
3.469667
 40
4.167595
 40
4.865523
 40
5.553464
 40
6.251393
 40
6.949322
 40
7.637263
 40
8.335191
 40
9.033120
 40
9.721060
 40
10.418989
 40
11.116916
 40
11.804858
 40
12.502786
 40
12.502786
 40
12.502786
 40
12.502786
 10
-69.580557
 20
-191.787609
 30
0.0
 10
-69.604453
 20
-191.553780
 30
0.0
 10
-69.651903
 20
-191.089467
 30
0.0
 10
-70.020035
 20
-190.475871
 30
0.0
 10
-70.559043
 20
-190.019676
 30
0.0
 10
-71.226506
 20
-189.777728
 30
0.0
 10
-71.934758
 20
-189.777728
 30
0.0
 10
-72.601286
 20
-190.019676
 30
0.0
 10
-73.144027
 20
-190.475871
 30
0.0
 10
-73.498291
 20
-191.089467
 30
0.0
 10
-73.621983
 20
-191.787609
 30
0.0
 10
-73.498291
 20
-192.485751
 30
0.0
 10
-73.144027
 20
-193.099348
 30
0.0
 10
-72.601286
 20
-193.555543
 30
0.0
 10
-71.934758
 20
-193.797491
 30
0.0
 10
-71.226506
 20
-193.797491
 30
0.0
 10
-70.559043
 20
-193.555543
 30
0.0
 10
-70.020035
 20
-193.099348
 30
0.0
 10
-69.651903
 20
-192.485751
 30
0.0
 10
-69.604453
 20
-192.021439
 30
0.0
 10
-69.580557
 20
-191.787609
 30
0.0
 11
-69.580557
 21
-191.787609
 31
0.0
 11
-69.702304
 21
-191.100381
 31
0.0
 11
-70.046274
 21
-190.504606
 31
0.0
 11
-70.580555
 21
-190.055555
 31
0.0
 11
-71.236586
 21
-189.817378
 31
0.0
 11
-71.924526
 21
-189.817378
 31
0.0
 11
-72.580556
 21
-190.055555
 31
0.0
 11
-73.114838
 21
-190.504606
 31
0.0
 11
-73.458807
 21
-191.100381
 31
0.0
 11
-73.580554
 21
-191.787609
 31
0.0
 11
-73.458807
 21
-192.474837
 31
0.0
 11
-73.114838
 21
-193.070612
 31
0.0
 11
-72.580556
 21
-193.519664
 31
0.0
 11
-71.924526
 21
-193.757840
 31
0.0
 11
-71.236586
 21
-193.757840
 31
0.0
 11
-70.580555
 21
-193.519664
 31
0.0
 11
-70.046274
 21
-193.070612
 31
0.0
 11
-69.702304
 21
-192.474837
 31
0.0
 11
-69.580557
 21
-191.787609
 31
0.0
  0
SPLINE
  5
101
100
AcDbEntity
  8
0
 62
7
100
AcDbSpline
 70
0
 71
3
 72
25
 73
21
 74
19
 40
0.000000
 40
0.000000
 40
0.000000
 40
0.000000
 40
0.697929
 40
1.385871
 40
2.083799
 40
2.781728
 40
3.469668
 40
4.167597
 40
4.865525
 40
5.553466
 40
6.251395
 40
6.949323
 40
7.637264
 40
8.335192
 40
9.033121
 40
9.721061
 40
10.418990
 40
11.116918
 40
11.804860
 40
12.502789
 40
12.502789
 40
12.502789
 40
12.502789
 10
169.761668
 20
-191.787609
 30
0.0
 10
169.737771
 20
-191.553780
 30
0.0
 10
169.690321
 20
-191.089467
 30
0.0
 10
169.322187
 20
-190.475871
 30
0.0
 10
168.783178
 20
-190.019676
 30
0.0
 10
168.115716
 20
-189.777728
 30
0.0
 10
167.407463
 20
-189.777728
 30
0.0
 10
166.740935
 20
-190.019676
 30
0.0
 10
166.198194
 20
-190.475871
 30
0.0
 10
165.843931
 20
-191.089467
 30
0.0
 10
165.720239
 20
-191.787609
 30
0.0
 10
165.843931
 20
-192.485751
 30
0.0
 10
166.198194
 20
-193.099348
 30
0.0
 10
166.740935
 20
-193.555543
 30
0.0
 10
167.407463
 20
-193.797491
 30
0.0
 10
168.115716
 20
-193.797491
 30
0.0
 10
168.783178
 20
-193.555542
 30
0.0
 10
169.322187
 20
-193.099348
 30
0.0
 10
169.690321
 20
-192.485752
 30
0.0
 10
169.737771
 20
-192.021439
 30
0.0
 10
169.761668
 20
-191.787609
 30
0.0
 11
169.761668
 21
-191.787609
 31
0.0
 11
169.639919
 21
-191.100381
 31
0.0
 11
169.295949
 21
-190.504606
 31
0.0
 11
168.761667
 21
-190.055555
 31
0.0
 11
168.105636
 21
-189.817378
 31
0.0
 11
167.417696
 21
-189.817378
 31
0.0
 11
166.761665
 21
-190.055555
 31
0.0
 11
166.227384
 21
-190.504606
 31
0.0
 11
165.883415
 21
-191.100381
 31
0.0
 11
165.761667
 21
-191.787609
 31
0.0
 11
165.883415
 21
-192.474837
 31
0.0
 11
166.227384
 21
-193.070612
 31
0.0
 11
166.761665
 21
-193.519664
 31
0.0
 11
167.417696
 21
-193.757840
 31
0.0
 11
168.105636
 21
-193.757840
 31
0.0
 11
168.761667
 21
-193.519664
 31
0.0
 11
169.295949
 21
-193.070612
 31
0.0
 11
169.639919
 21
-192.474837
 31
0.0
 11
169.761668
 21
-191.787609
 31
0.0
  0
LWPOLYLINE
  5
102
100
AcDbEntity
  8
0
 62
7
100
AcDbPolyline
 90
2
 70
0
 10
-69.580557
 20
-191.787609
 30
0.0
 10
-69.580557
 20
-191.787609
 30
0.0
  0
LWPOLYLINE
  5
103
100
AcDbEntity
  8
0
 62
7
100
AcDbPolyline
 90
2
 70
0
 10
169.761668
 20
-191.787609
 30
0.0
 10
169.761668
 20
-191.787609
 30
0.0
  0
SPLINE
  5
104
100
AcDbEntity
  8
0
 62
7
100
AcDbSpline
 70
0
 71
3
 72
25
 73
21
 74
19
 40
0.000000
 40
0.000000
 40
0.000000
 40
0.000000
 40
0.697928
 40
1.385868
 40
2.083796
 40
2.781724
 40
3.469664
 40
4.167592
 40
4.865521
 40
5.553460
 40
6.251389
 40
6.949317
 40
7.637257
 40
8.335185
 40
9.033113
 40
9.721053
 40
10.418981
 40
11.116909
 40
11.804849
 40
12.502777
 40
12.502777
 40
12.502777
 40
12.502777
 10
9.500000
 20
-115.300000
 30
0.0
 10
9.476104
 20
-115.066171
 30
0.0
 10
9.428654
 20
-114.601859
 30
0.0
 10
9.060521
 20
-113.988263
 30
0.0
 10
8.521512
 20
-113.532070
 30
0.0
 10
7.854049
 20
-113.290122
 30
0.0
 10
7.145797
 20
-113.290122
 30
0.0
 10
6.479270
 20
-113.532070
 30
0.0
 10
5.936528
 20
-113.988263
 30
0.0
 10
5.582263
 20
-114.601859
 30
0.0
 10
5.458572
 20
-115.300000
 30
0.0
 10
5.582263
 20
-115.998141
 30
0.0
 10
5.936528
 20
-116.611737
 30
0.0
 10
6.479270
 20
-117.067929
 30
0.0
 10
7.145797
 20
-117.309878
 30
0.0
 10
7.854049
 20
-117.309878
 30
0.0
 10
8.521511
 20
-117.067929
 30
0.0
 10
9.060521
 20
-116.611737
 30
0.0
 10
9.428654
 20
-115.998141
 30
0.0
 10
9.476104
 20
-115.533829
 30
0.0
 10
9.500000
 20
-115.300000
 30
0.0
 11
9.500000
 21
-115.300000
 31
0.0
 11
9.378252
 21
-114.612773
 31
0.0
 11
9.034282
 21
-114.016999
 31
0.0
 11
8.500000
 21
-113.567949
 31
0.0
 11
7.843970
 21
-113.329772
 31
0.0
 11
7.156030
 21
-113.329772
 31
0.0
 11
6.500000
 21
-113.567949
 31
0.0
 11
5.965718
 21
-114.016999
 31
0.0
 11
5.621748
 21
-114.612773
 31
0.0
 11
5.500000
 21
-115.300000
 31
0.0
 11
5.621748
 21
-115.987227
 31
0.0
 11
5.965718
 21
-116.583000
 31
0.0
 11
6.500000
 21
-117.032051
 31
0.0
 11
7.156030
 21
-117.270228
 31
0.0
 11
7.843970
 21
-117.270228
 31
0.0
 11
8.500000
 21
-117.032051
 31
0.0
 11
9.034282
 21
-116.583000
 31
0.0
 11
9.378252
 21
-115.987227
 31
0.0
 11
9.500000
 21
-115.300000
 31
0.0
  0
LWPOLYLINE
  5
105
100
AcDbEntity
  8
0
 62
7
100
AcDbPolyline
 90
2
 70
0
 10
9.500000
 20
-115.300000
 30
0.0
 10
9.500000
 20
-115.300000
 30
0.0
  0
SPLINE
  5
106
100
AcDbEntity
  8
0
 62
7
100
AcDbSpline
 70
0
 71
3
 72
25
 73
21
 74
19
 40
0.000000
 40
0.000000
 40
0.000000
 40
0.000000
 40
0.523590
 40
1.039684
 40
1.563274
 40
2.086865
 40
2.602958
 40
3.126549
 40
3.650140
 40
4.166233
 40
4.689823
 40
5.213414
 40
5.729507
 40
6.253097
 40
6.776688
 40
7.292781
 40
7.816372
 40
8.339962
 40
8.856056
 40
9.379646
 40
9.379646
 40
9.379646
 40
9.379646
 10
-14.000000
 20
47.150000
 30
0.0
 10
-14.017856
 20
47.325428
 30
0.0
 10
-14.053312
 20
47.673774
 30
0.0
 10
-14.329360
 20
48.134182
 30
0.0
 10
-14.733665
 20
48.476501
 30
0.0
 10
-15.234387
 20
48.658063
 30
0.0
 10
-15.765727
 20
48.658063
 30
0.0
 10
-16.265750
 20
48.476501
 30
0.0
 10
-16.672845
 20
48.134182
 30
0.0
 10
-16.938530
 20
47.673773
 30
0.0
 10
-17.030957
 20
47.150000
 30
0.0
 10
-16.938530
 20
46.626226
 30
0.0
 10
-16.672845
 20
46.165817
 30
0.0
 10
-16.265750
 20
45.823499
 30
0.0
 10
-15.765727
 20
45.641937
 30
0.0
 10
-15.234388
 20
45.641937
 30
0.0
 10
-14.733666
 20
45.823498
 30
0.0
 10
-14.329360
 20
46.165817
 30
0.0
 10
-14.053312
 20
46.626226
 30
0.0
 10
-14.017856
 20
46.974571
 30
0.0
 10
-14.000000
 20
47.150000
 30
0.0
 11
-14.000000
 21
47.150000
 31
0.0
 11
-14.091137
 21
47.665597
 31
0.0
 11
-14.349055
 21
48.112622
 31
0.0
 11
-14.749812
 21
48.449580
 31
0.0
 11
-15.241953
 21
48.628309
 31
0.0
 11
-15.758047
 21
48.628309
 31
0.0
 11
-16.250188
 21
48.449580
 31
0.0
 11
-16.650945
 21
48.112622
 31
0.0
 11
-16.908862
 21
47.665597
 31
0.0
 11
-17.000000
 21
47.150000
 31
0.0
 11
-16.908862
 21
46.634402
 31
0.0
 11
-16.650945
 21
46.187378
 31
0.0
 11
-16.250188
 21
45.850420
 31
0.0
 11
-15.758047
 21
45.671691
 31
0.0
 11
-15.241953
 21
45.671691
 31
0.0
 11
-14.749812
 21
45.850420
 31
0.0
 11
-14.349055
 21
46.187378
 31
0.0
 11
-14.091137
 21
46.634402
 31
0.0
 11
-14.000000
 21
47.150000
 31
0.0
  0
LWPOLYLINE
  5
107
100
AcDbEntity
  8
0
 62
7
100
AcDbPolyline
 90
7
 70
0
 10
-84.900000
 20
-204.932055
 30
0.0
 10
182.900000
 20
-204.932055
 30
0.0
 10
182.900000
 20
-143.315048
 30
0.0
 10
84.900000
 20
1.210069
 30
0.0
 10
84.900000
 20
110.300000
 30
0.0
 10
-84.900000
 20
110.300000
 30
0.0
 10
-84.900000
 20
-204.932055
 30
0.0
  0
SPLINE
  5
108
100
AcDbEntity
  8
0
 62
7
100
AcDbSpline
 70
0
 71
3
 72
25
 73
21
 74
19
 40
0.000000
 40
0.000000
 40
0.000000
 40
0.000000
 40
0.523590
 40
1.039684
 40
1.563274
 40
2.086865
 40
2.602958
 40
3.126549
 40
3.650139
 40
4.166233
 40
4.689823
 40
5.213413
 40
5.729507
 40
6.253097
 40
6.776688
 40
7.292781
 40
7.816372
 40
8.339962
 40
8.856056
 40
9.379646
 40
9.379646
 40
9.379646
 40
9.379646
 10
17.000000
 20
47.150000
 30
0.0
 10
16.982144
 20
47.325428
 30
0.0
 10
16.946688
 20
47.673773
 30
0.0
 10
16.670640
 20
48.134182
 30
0.0
 10
16.266334
 20
48.476501
 30
0.0
 10
15.765612
 20
48.658063
 30
0.0
 10
15.234273
 20
48.658063
 30
0.0
 10
14.734250
 20
48.476501
 30
0.0
 10
14.327155
 20
48.134182
 30
0.0
 10
14.061470
 20
47.673774
 30
0.0
 10
13.969043
 20
47.150000
 30
0.0
 10
14.061470
 20
46.626226
 30
0.0
 10
14.327155
 20
46.165817
 30
0.0
 10
14.734250
 20
45.823498
 30
0.0
 10
15.234273
 20
45.641937
 30
0.0
 10
15.765612
 20
45.641937
 30
0.0
 10
16.266334
 20
45.823499
 30
0.0
 10
16.670640
 20
46.165817
 30
0.0
 10
16.946688
 20
46.626226
 30
0.0
 10
16.982144
 20
46.974571
 30
0.0
 10
17.000000
 20
47.150000
 30
0.0
 11
17.000000
 21
47.150000
 31
0.0
 11
16.908862
 21
47.665597
 31
0.0
 11
16.650945
 21
48.112622
 31
0.0
 11
16.250188
 21
48.449580
 31
0.0
 11
15.758047
 21
48.628309
 31
0.0
 11
15.241953
 21
48.628309
 31
0.0
 11
14.749812
 21
48.449580
 31
0.0
 11
14.349055
 21
48.112622
 31
0.0
 11
14.091137
 21
47.665597
 31
0.0
 11
14.000000
 21
47.150000
 31
0.0
 11
14.091137
 21
46.634402
 31
0.0
 11
14.349055
 21
46.187378
 31
0.0
 11
14.749812
 21
45.850420
 31
0.0
 11
15.241953
 21
45.671691
 31
0.0
 11
15.758047
 21
45.671691
 31
0.0
 11
16.250188
 21
45.850420
 31
0.0
 11
16.650945
 21
46.187378
 31
0.0
 11
16.908862
 21
46.634402
 31
0.0
 11
17.000000
 21
47.150000
 31
0.0
  0
LWPOLYLINE
  5
109
100
AcDbEntity
  8
0
 62
7
100
AcDbPolyline
 90
2
 70
0
 10
-14.000000
 20
47.150000
 30
0.0
 10
-14.000000
 20
47.150000
 30
0.0
  0
SPLINE
  5
10a
100
AcDbEntity
  8
0
 62
7
100
AcDbSpline
 70
0
 71
3
 72
25
 73
21
 74
19
 40
0.000000
 40
0.000000
 40
0.000000
 40
0.000000
 40
0.523590
 40
1.039684
 40
1.563274
 40
2.086865
 40
2.602958
 40
3.126549
 40
3.650139
 40
4.166233
 40
4.689823
 40
5.213413
 40
5.729507
 40
6.253097
 40
6.776688
 40
7.292781
 40
7.816372
 40
8.339962
 40
8.856056
 40
9.379646
 40
9.379646
 40
9.379646
 40
9.379646
 10
17.000000
 20
78.150000
 30
0.0
 10
16.982144
 20
78.325429
 30
0.0
 10
16.946688
 20
78.673774
 30
0.0
 10
16.670640
 20
79.134183
 30
0.0
 10
16.266334
 20
79.476501
 30
0.0
 10
15.765612
 20
79.658063
 30
0.0
 10
15.234273
 20
79.658063
 30
0.0
 10
14.734250
 20
79.476501
 30
0.0
 10
14.327155
 20
79.134182
 30
0.0
 10
14.061470
 20
78.673774
 30
0.0
 10
13.969043
 20
78.150000
 30
0.0
 10
14.061470
 20
77.626226
 30
0.0
 10
14.327155
 20
77.165817
 30
0.0
 10
14.734250
 20
76.823499
 30
0.0
 10
15.234273
 20
76.641937
 30
0.0
 10
15.765612
 20
76.641937
 30
0.0
 10
16.266334
 20
76.823499
 30
0.0
 10
16.670640
 20
77.165817
 30
0.0
 10
16.946688
 20
77.626226
 30
0.0
 10
16.982144
 20
77.974571
 30
0.0
 10
17.000000
 20
78.150000
 30
0.0
 11
17.000000
 21
78.150000
 31
0.0
 11
16.908862
 21
78.665598
 31
0.0
 11
16.650945
 21
79.112622
 31
0.0
 11
16.250188
 21
79.449580
 31
0.0
 11
15.758047
 21
79.628309
 31
0.0
 11
15.241953
 21
79.628309
 31
0.0
 11
14.749812
 21
79.449580
 31
0.0
 11
14.349055
 21
79.112622
 31
0.0
 11
14.091137
 21
78.665598
 31
0.0
 11
14.000000
 21
78.150000
 31
0.0
 11
14.091137
 21
77.634402
 31
0.0
 11
14.349055
 21
77.187378
 31
0.0
 11
14.749812
 21
76.850420
 31
0.0
 11
15.241953
 21
76.671691
 31
0.0
 11
15.758047
 21
76.671691
 31
0.0
 11
16.250188
 21
76.850420
 31
0.0
 11
16.650945
 21
77.187378
 31
0.0
 11
16.908862
 21
77.634402
 31
0.0
 11
17.000000
 21
78.150000
 31
0.0
  0
LWPOLYLINE
  5
10b
100
AcDbEntity
  8
0
 62
7
100
AcDbPolyline
 90
2
 70
0
 10
17.000000
 20
47.150000
 30
0.0
 10
17.000000
 20
47.150000
 30
0.0
  0
SPLINE
  5
10c
100
AcDbEntity
  8
0
 62
7
100
AcDbSpline
 70
0
 71
3
 72
25
 73
21
 74
19
 40
0.000000
 40
0.000000
 40
0.000000
 40
0.000000
 40
0.523590
 40
1.039684
 40
1.563274
 40
2.086865
 40
2.602958
 40
3.126549
 40
3.650139
 40
4.166233
 40
4.689823
 40
5.213414
 40
5.729507
 40
6.253097
 40
6.776688
 40
7.292781
 40
7.816372
 40
8.339962
 40
8.856056
 40
9.379646
 40
9.379646
 40
9.379646
 40
9.379646
 10
-14.000000
 20
78.150000
 30
0.0
 10
-14.017856
 20
78.325429
 30
0.0
 10
-14.053312
 20
78.673774
 30
0.0
 10
-14.329360
 20
79.134182
 30
0.0
 10
-14.733666
 20
79.476501
 30
0.0
 10
-15.234388
 20
79.658063
 30
0.0
 10
-15.765727
 20
79.658063
 30
0.0
 10
-16.265750
 20
79.476501
 30
0.0
 10
-16.672845
 20
79.134183
 30
0.0
 10
-16.938530
 20
78.673774
 30
0.0
 10
-17.030957
 20
78.150000
 30
0.0
 10
-16.938530
 20
77.626226
 30
0.0
 10
-16.672845
 20
77.165817
 30
0.0
 10
-16.265750
 20
76.823499
 30
0.0
 10
-15.765727
 20
76.641937
 30
0.0
 10
-15.234388
 20
76.641937
 30
0.0
 10
-14.733666
 20
76.823499
 30
0.0
 10
-14.329360
 20
77.165817
 30
0.0
 10
-14.053312
 20
77.626226
 30
0.0
 10
-14.017856
 20
77.974571
 30
0.0
 10
-14.000000
 20
78.150000
 30
0.0
 11
-14.000000
 21
78.150000
 31
0.0
 11
-14.091137
 21
78.665598
 31
0.0
 11
-14.349055
 21
79.112622
 31
0.0
 11
-14.749812
 21
79.449580
 31
0.0
 11
-15.241953
 21
79.628309
 31
0.0
 11
-15.758047
 21
79.628309
 31
0.0
 11
-16.250188
 21
79.449580
 31
0.0
 11
-16.650945
 21
79.112622
 31
0.0
 11
-16.908862
 21
78.665598
 31
0.0
 11
-17.000000
 21
78.150000
 31
0.0
 11
-16.908862
 21
77.634402
 31
0.0
 11
-16.650945
 21
77.187378
 31
0.0
 11
-16.250188
 21
76.850420
 31
0.0
 11
-15.758047
 21
76.671691
 31
0.0
 11
-15.241953
 21
76.671691
 31
0.0
 11
-14.749812
 21
76.850420
 31
0.0
 11
-14.349055
 21
77.187378
 31
0.0
 11
-14.091137
 21
77.634402
 31
0.0
 11
-14.000000
 21
78.150000
 31
0.0
  0
LWPOLYLINE
  5
10d
100
AcDbEntity
  8
0
 62
7
100
AcDbPolyline
 90
2
 70
0
 10
17.000000
 20
78.150000
 30
0.0
 10
17.000000
 20
78.150000
 30
0.0
  0
SPLINE
  5
10e
100
AcDbEntity
  8
0
 62
7
100
AcDbSpline
 70
0
 71
3
 72
25
 73
21
 74
19
 40
0.000000
 40
0.000000
 40
0.000000
 40
0.000000
 40
0.683084
 40
1.356430
 40
2.039529
 40
2.722609
 40
3.395902
 40
4.078979
 40
4.762082
 40
5.435429
 40
6.118511
 40
6.801685
 40
7.475033
 40
8.158144
 40
8.841215
 40
9.514507
 40
10.197581
 40
10.880693
 40
11.554043
 40
12.237217
 40
12.237217
 40
12.237217
 40
12.237217
 10
56.607899
 20
-135.907948
 30
0.0
 10
56.584597
 20
-135.679083
 30
0.0
 10
56.538324
 20
-135.224617
 30
0.0
 10
56.178216
 20
-134.623926
 30
0.0
 10
55.650758
 20
-134.177294
 30
0.0
 10
54.997516
 20
-133.940402
 30
0.0
 10
54.304326
 20
-133.940401
 30
0.0
 10
53.651996
 20
-134.177296
 30
0.0
 10
53.120896
 20
-134.623924
 30
0.0
 10
52.774303
 20
-135.224616
 30
0.0
 10
52.653707
 20
-135.907978
 30
0.0
 10
52.774299
 20
-136.591346
 30
0.0
 10
53.120903
 20
-137.192065
 30
0.0
 10
53.651987
 20
-137.638720
 30
0.0
 10
54.304332
 20
-137.875584
 30
0.0
 10
54.997510
 20
-137.875583
 30
0.0
 10
55.650769
 20
-137.638721
 30
0.0
 10
56.178213
 20
-137.192064
 30
0.0
 10
56.538348
 20
-136.591347
 30
0.0
 10
56.584604
 20
-136.136845
 30
0.0
 10
56.607899
 20
-135.907948
 30
0.0
 11
56.607899
 21
-135.907948
 31
0.0
 11
56.488990
 21
-135.235293
 31
0.0
 11
56.152512
 21
-134.652047
 31
0.0
 11
55.629686
 21
-134.212413
 31
0.0
 11
54.987641
 21
-133.979223
 31
0.0
 11
54.314349
 21
-133.979223
 31
0.0
 11
53.672308
 21
-134.212413
 31
0.0
 11
53.149476
 21
-134.652047
 31
0.0
 11
52.812996
 21
-135.235293
 31
0.0
 11
52.694098
 21
-135.907948
 31
0.0
 11
52.813005
 21
-136.580695
 31
0.0
 11
53.149481
 21
-137.163946
 31
0.0
 11
53.672308
 21
-137.603596
 31
0.0
 11
54.314349
 21
-137.836768
 31
0.0
 11
54.987641
 21
-137.836768
 31
0.0
 11
55.629686
 21
-137.603596
 31
0.0
 11
56.152514
 21
-137.163946
 31
0.0
 11
56.488995
 21
-136.580695
 31
0.0
 11
56.607899
 21
-135.907948
 31
0.0
  0
LWPOLYLINE
  5
10f
100
AcDbEntity
  8
0
 62
7
100
AcDbPolyline
 90
2
 70
0
 10
-14.000000
 20
78.150000
 30
0.0
 10
-14.000000
 20
78.150000
 30
0.0
  0
SPLINE
  5
110
100
AcDbEntity
  8
0
 62
7
100
AcDbSpline
 70
0
 71
3
 72
25
 73
21
 74
19
 40
0.000000
 40
0.000000
 40
0.000000
 40
0.000000
 40
0.683084
 40
1.356430
 40
2.039529
 40
2.722609
 40
3.395902
 40
4.078979
 40
4.762083
 40
5.435430
 40
6.118512
 40
6.801686
 40
7.475034
 40
8.158145
 40
8.841215
 40
9.514508
 40
10.197582
 40
10.880694
 40
11.554044
 40
12.237218
 40
12.237218
 40
12.237218
 40
12.237218
 10
166.607899
 20
-135.907948
 30
0.0
 10
166.584597
 20
-135.679083
 30
0.0
 10
166.538324
 20
-135.224617
 30
0.0
 10
166.178216
 20
-134.623926
 30
0.0
 10
165.650758
 20
-134.177294
 30
0.0
 10
164.997516
 20
-133.940402
 30
0.0
 10
164.304326
 20
-133.940401
 30
0.0
 10
163.651996
 20
-134.177297
 30
0.0
 10
163.120896
 20
-134.623924
 30
0.0
 10
162.774301
 20
-135.224615
 30
0.0
 10
162.653708
 20
-135.907978
 30
0.0
 10
162.774299
 20
-136.591346
 30
0.0
 10
163.120904
 20
-137.192065
 30
0.0
 10
163.651987
 20
-137.638720
 30
0.0
 10
164.304332
 20
-137.875584
 30
0.0
 10
164.997510
 20
-137.875583
 30
0.0
 10
165.650769
 20
-137.638721
 30
0.0
 10
166.178213
 20
-137.192064
 30
0.0
 10
166.538348
 20
-136.591347
 30
0.0
 10
166.584604
 20
-136.136845
 30
0.0
 10
166.607899
 20
-135.907948
 30
0.0
 11
166.607899
 21
-135.907948
 31
0.0
 11
166.488990
 21
-135.235293
 31
0.0
 11
166.152512
 21
-134.652047
 31
0.0
 11
165.629686
 21
-134.212413
 31
0.0
 11
164.987642
 21
-133.979223
 31
0.0
 11
164.314349
 21
-133.979223
 31
0.0
 11
163.672308
 21
-134.212413
 31
0.0
 11
163.149476
 21
-134.652047
 31
0.0
 11
162.812995
 21
-135.235293
 31
0.0
 11
162.694098
 21
-135.907948
 31
0.0
 11
162.813005
 21
-136.580695
 31
0.0
 11
163.149481
 21
-137.163946
 31
0.0
 11
163.672308
 21
-137.603596
 31
0.0
 11
164.314349
 21
-137.836768
 31
0.0
 11
164.987642
 21
-137.836768
 31
0.0
 11
165.629686
 21
-137.603596
 31
0.0
 11
166.152514
 21
-137.163946
 31
0.0
 11
166.488995
 21
-136.580695
 31
0.0
 11
166.607899
 21
-135.907948
 31
0.0
  0
LWPOLYLINE
  5
111
100
AcDbEntity
  8
0
 62
7
100
AcDbPolyline
 90
2
 70
0
 10
56.607899
 20
-135.907948
 30
0.0
 10
56.607899
 20
-135.907948
 30
0.0
  0
SPLINE
  5
112
100
AcDbEntity
  8
0
 62
7
100
AcDbSpline
 70
0
 71
3
 72
25
 73
21
 74
19
 40
0.000000
 40
0.000000
 40
0.000000
 40
0.000000
 40
0.682864
 40
1.355986
 40
2.038902
 40
2.721769
 40
3.394884
 40
4.077747
 40
4.760663
 40
5.433784
 40
6.116648
 40
6.799608
 40
7.472748
 40
8.155641
 40
8.838523
 40
9.511639
 40
10.194524
 40
10.877419
 40
11.550559
 40
12.233519
 40
12.233519
 40
12.233519
 40
12.233519
 10
111.607902
 20
-54.796914
 30
0.0
 10
111.584520
 20
-54.568132
 30
0.0
 10
111.538090
 20
-54.113830
 30
0.0
 10
111.177880
 20
-53.513468
 30
0.0
 10
110.650519
 20
-53.067048
 30
0.0
 10
109.997396
 20
-52.830405
 30
0.0
 10
109.304443
 20
-52.830404
 30
0.0
 10
108.652237
 20
-53.067049
 30
0.0
 10
108.121224
 20
-53.513467
 30
0.0
 10
107.774584
 20
-54.113830
 30
0.0
 10
107.653558
 20
-54.796947
 30
0.0
 10
107.774575
 20
-55.480068
 30
0.0
 10
108.121204
 20
-56.080484
 30
0.0
 10
108.652263
 20
-56.526846
 30
0.0
 10
109.304426
 20
-56.763580
 30
0.0
 10
109.997413
 20
-56.763579
 30
0.0
 10
110.650492
 20
-56.526847
 30
0.0
 10
111.177901
 20
-56.080484
 30
0.0
 10
111.538101
 20
-55.480069
 30
0.0
 10
111.584523
 20
-55.025729
 30
0.0
 10
111.607902
 20
-54.796914
 30
0.0
 11
111.607902
 21
-54.796914
 31
0.0
 11
111.488778
 21
-54.124521
 31
0.0
 11
111.152218
 21
-53.541580
 31
0.0
 11
110.629443
 21
-53.102170
 31
0.0
 11
109.987552
 21
-52.869186
 31
0.0
 11
109.314436
 21
-52.869186
 31
0.0
 11
108.672548
 21
-53.102170
 31
0.0
 11
108.149774
 21
-53.541580
 31
0.0
 11
107.813216
 21
-54.124521
 31
0.0
 11
107.694092
 21
-54.796914
 31
0.0
 11
107.813216
 21
-55.469405
 31
0.0
 11
108.149774
 21
-56.052369
 31
0.0
 11
108.672548
 21
-56.491744
 31
0.0
 11
109.314436
 21
-56.724784
 31
0.0
 11
109.987552
 21
-56.724784
 31
0.0
 11
110.629443
 21
-56.491744
 31
0.0
 11
111.152218
 21
-56.052369
 31
0.0
 11
111.488778
 21
-55.469405
 31
0.0
 11
111.607902
 21
-54.796914
 31
0.0
  0
LWPOLYLINE
  5
113
100
AcDbEntity
  8
0
 62
7
100
AcDbPolyline
 90
2
 70
0
 10
166.607899
 20
-135.907948
 30
0.0
 10
166.607899
 20
-135.907948
 30
0.0
  0
SPLINE
  5
114
100
AcDbEntity
  8
0
 62
7
100
AcDbSpline
 70
0
 71
3
 72
25
 73
21
 74
19
 40
0.000000
 40
0.000000
 40
0.000000
 40
0.000000
 40
0.916031
 40
1.818952
 40
2.734983
 40
3.651014
 40
4.553935
 40
5.469965
 40
6.385996
 40
7.288917
 40
8.204948
 40
9.120979
 40
10.023900
 40
10.939931
 40
11.855962
 40
12.758883
 40
13.674913
 40
14.590945
 40
15.493866
 40
16.409896
 40
16.409896
 40
16.409896
 40
16.409896
 10
71.025000
 20
-23.800000
 30
0.0
 10
70.993637
 20
-23.493099
 30
0.0
 10
70.931359
 20
-22.883689
 30
0.0
 10
70.448184
 20
-22.078345
 30
0.0
 10
69.740734
 20
-21.479593
 30
0.0
 10
68.864690
 20
-21.162034
 30
0.0
 10
67.935109
 20
-21.162034
 30
0.0
 10
67.060292
 20
-21.479593
 30
0.0
 10
66.347943
 20
-22.078345
 30
0.0
 10
65.882971
 20
-22.883689
 30
0.0
 10
65.720626
 20
-23.800000
 30
0.0
 10
65.882971
 20
-24.716310
 30
0.0
 10
66.347943
 20
-25.521655
 30
0.0
 10
67.060292
 20
-26.120408
 30
0.0
 10
67.935109
 20
-26.437965
 30
0.0
 10
68.864690
 20
-26.437965
 30
0.0
 10
69.740734
 20
-26.120408
 30
0.0
 10
70.448183
 20
-25.521654
 30
0.0
 10
70.931359
 20
-24.716310
 30
0.0
 10
70.993637
 20
-24.106901
 30
0.0
 10
71.025000
 20
-23.800000
 30
0.0
 11
71.025000
 21
-23.800000
 31
0.0
 11
70.865206
 21
-22.898014
 31
0.0
 11
70.413746
 21
-22.116061
 31
0.0
 11
69.712500
 21
-21.526683
 31
0.0
 11
68.851460
 21
-21.214076
 31
0.0
 11
67.948539
 21
-21.214076
 31
0.0
 11
67.087500
 21
-21.526683
 31
0.0
 11
66.386254
 21
-22.116061
 31
0.0
 11
65.934794
 21
-22.898014
 31
0.0
 11
65.775000
 21
-23.800000
 31
0.0
 11
65.934794
 21
-24.701986
 31
0.0
 11
66.386254
 21
-25.483938
 31
0.0
 11
67.087500
 21
-26.073317
 31
0.0
 11
67.948539
 21
-26.385924
 31
0.0
 11
68.851460
 21
-26.385924
 31
0.0
 11
69.712500
 21
-26.073317
 31
0.0
 11
70.413746
 21
-25.483938
 31
0.0
 11
70.865206
 21
-24.701986
 31
0.0
 11
71.025000
 21
-23.800000
 31
0.0
  0
LWPOLYLINE
  5
115
100
AcDbEntity
  8
0
 62
7
100
AcDbPolyline
 90
2
 70
0
 10
111.607902
 20
-54.796914
 30
0.0
 10
111.607902
 20
-54.796914
 30
0.0
  0
SPLINE
  5
116
100
AcDbEntity
  8
0
 62
7
100
AcDbSpline
 70
0
 71
3
 72
25
 73
21
 74
19
 40
0.000000
 40
0.000000
 40
0.000000
 40
0.000000
 40
0.916031
 40
1.818952
 40
2.734983
 40
3.651014
 40
4.553934
 40
5.469965
 40
6.385996
 40
7.288917
 40
8.204948
 40
9.120979
 40
10.023900
 40
10.939931
 40
11.855962
 40
12.758883
 40
13.674914
 40
14.590945
 40
15.493866
 40
16.409897
 40
16.409897
 40
16.409897
 40
16.409897
 10
-65.775000
 20
-23.800000
 30
0.0
 10
-65.806363
 20
-23.493099
 30
0.0
 10
-65.868641
 20
-22.883689
 30
0.0
 10
-66.351816
 20
-22.078345
 30
0.0
 10
-67.059266
 20
-21.479593
 30
0.0
 10
-67.935310
 20
-21.162034
 30
0.0
 10
-68.864891
 20
-21.162034
 30
0.0
 10
-69.739708
 20
-21.479593
 30
0.0
 10
-70.452057
 20
-22.078345
 30
0.0
 10
-70.917029
 20
-22.883689
 30
0.0
 10
-71.079374
 20
-23.800000
 30
0.0
 10
-70.917029
 20
-24.716311
 30
0.0
 10
-70.452057
 20
-25.521655
 30
0.0
 10
-69.739708
 20
-26.120407
 30
0.0
 10
-68.864891
 20
-26.437965
 30
0.0
 10
-67.935310
 20
-26.437965
 30
0.0
 10
-67.059266
 20
-26.120407
 30
0.0
 10
-66.351816
 20
-25.521655
 30
0.0
 10
-65.868641
 20
-24.716311
 30
0.0
 10
-65.806363
 20
-24.106901
 30
0.0
 10
-65.775000
 20
-23.800000
 30
0.0
 11
-65.775000
 21
-23.800000
 31
0.0
 11
-65.934794
 21
-22.898014
 31
0.0
 11
-66.386254
 21
-22.116061
 31
0.0
 11
-67.087500
 21
-21.526683
 31
0.0
 11
-67.948539
 21
-21.214076
 31
0.0
 11
-68.851460
 21
-21.214076
 31
0.0
 11
-69.712500
 21
-21.526683
 31
0.0
 11
-70.413746
 21
-22.116061
 31
0.0
 11
-70.865206
 21
-22.898014
 31
0.0
 11
-71.025000
 21
-23.800000
 31
0.0
 11
-70.865206
 21
-24.701986
 31
0.0
 11
-70.413746
 21
-25.483939
 31
0.0
 11
-69.712500
 21
-26.073317
 31
0.0
 11
-68.851460
 21
-26.385924
 31
0.0
 11
-67.948539
 21
-26.385924
 31
0.0
 11
-67.087500
 21
-26.073317
 31
0.0
 11
-66.386254
 21
-25.483939
 31
0.0
 11
-65.934794
 21
-24.701986
 31
0.0
 11
-65.775000
 21
-23.800000
 31
0.0
  0
LWPOLYLINE
  5
117
100
AcDbEntity
  8
0
 62
7
100
AcDbPolyline
 90
2
 70
0
 10
71.025000
 20
-23.800000
 30
0.0
 10
71.025000
 20
-23.800000
 30
0.0
  0
SPLINE
  5
118
100
AcDbEntity
  8
0
 62
7
100
AcDbSpline
 70
0
 71
3
 72
25
 73
21
 74
19
 40
0.000000
 40
0.000000
 40
0.000000
 40
0.000000
 40
0.724101
 40
1.437838
 40
2.161939
 40
2.886039
 40
3.599777
 40
4.323877
 40
5.047978
 40
5.761716
 40
6.485816
 40
7.209917
 40
7.923655
 40
8.647755
 40
9.371856
 40
10.085593
 40
10.809694
 40
11.533794
 40
12.247532
 40
12.971632
 40
12.971632
 40
12.971632
 40
12.971632
 10
-34.075000
 20
47.150000
 30
0.0
 10
-34.099792
 20
47.392598
 30
0.0
 10
-34.149021
 20
47.874322
 30
0.0
 10
-34.530960
 20
48.510927
 30
0.0
 10
-35.090182
 20
48.984227
 30
0.0
 10
-35.782674
 20
49.235249
 30
0.0
 10
-36.517485
 20
49.235249
 30
0.0
 10
-37.209007
 20
48.984227
 30
0.0
 10
-37.772102
 20
48.510927
 30
0.0
 10
-38.139652
 20
47.874322
 30
0.0
 10
-38.267982
 20
47.150000
 30
0.0
 10
-38.139652
 20
46.425678
 30
0.0
 10
-37.772102
 20
45.789073
 30
0.0
 10
-37.209007
 20
45.315773
 30
0.0
 10
-36.517485
 20
45.064751
 30
0.0
 10
-35.782674
 20
45.064751
 30
0.0
 10
-35.090182
 20
45.315773
 30
0.0
 10
-34.530960
 20
45.789073
 30
0.0
 10
-34.149021
 20
46.425678
 30
0.0
 10
-34.099792
 20
46.907402
 30
0.0
 10
-34.075000
 20
47.150000
 30
0.0
 11
-34.075000
 21
47.150000
 31
0.0
 11
-34.201313
 21
47.862998
 31
0.0
 11
-34.558182
 21
48.481113
 31
0.0
 11
-35.112500
 21
48.947003
 31
0.0
 11
-35.793131
 21
49.194112
 31
0.0
 11
-36.506869
 21
49.194112
 31
0.0
 11
-37.187500
 21
48.947003
 31
0.0
 11
-37.741818
 21
48.481113
 31
0.0
 11
-38.098687
 21
47.862998
 31
0.0
 11
-38.225000
 21
47.150000
 31
0.0
 11
-38.098687
 21
46.437002
 31
0.0
 11
-37.741818
 21
45.818887
 31
0.0
 11
-37.187500
 21
45.352997
 31
0.0
 11
-36.506869
 21
45.105888
 31
0.0
 11
-35.793131
 21
45.105888
 31
0.0
 11
-35.112500
 21
45.352997
 31
0.0
 11
-34.558182
 21
45.818887
 31
0.0
 11
-34.201313
 21
46.437002
 31
0.0
 11
-34.075000
 21
47.150000
 31
0.0
  0
LWPOLYLINE
  5
119
100
AcDbEntity
  8
0
 62
7
100
AcDbPolyline
 90
2
 70
0
 10
-65.775000
 20
-23.800000
 30
0.0
 10
-65.775000
 20
-23.800000
 30
0.0
  0
SPLINE
  5
11a
100
AcDbEntity
  8
0
 62
7
100
AcDbSpline
 70
0
 71
3
 72
25
 73
21
 74
19
 40
0.000000
 40
0.000000
 40
0.000000
 40
0.000000
 40
0.724101
 40
1.437838
 40
2.161939
 40
2.886039
 40
3.599777
 40
4.323877
 40
5.047978
 40
5.761716
 40
6.485816
 40
7.209917
 40
7.923655
 40
8.647755
 40
9.371855
 40
10.085593
 40
10.809694
 40
11.533794
 40
12.247532
 40
12.971632
 40
12.971632
 40
12.971632
 40
12.971632
 10
-34.075000
 20
78.150000
 30
0.0
 10
-34.099792
 20
78.392598
 30
0.0
 10
-34.149021
 20
78.874322
 30
0.0
 10
-34.530960
 20
79.510927
 30
0.0
 10
-35.090182
 20
79.984227
 30
0.0
 10
-35.782674
 20
80.235249
 30
0.0
 10
-36.517485
 20
80.235249
 30
0.0
 10
-37.209007
 20
79.984227
 30
0.0
 10
-37.772102
 20
79.510927
 30
0.0
 10
-38.139652
 20
78.874322
 30
0.0
 10
-38.267982
 20
78.150000
 30
0.0
 10
-38.139652
 20
77.425678
 30
0.0
 10
-37.772102
 20
76.789073
 30
0.0
 10
-37.209007
 20
76.315773
 30
0.0
 10
-36.517485
 20
76.064751
 30
0.0
 10
-35.782674
 20
76.064751
 30
0.0
 10
-35.090182
 20
76.315773
 30
0.0
 10
-34.530960
 20
76.789073
 30
0.0
 10
-34.149021
 20
77.425678
 30
0.0
 10
-34.099792
 20
77.907402
 30
0.0
 10
-34.075000
 20
78.150000
 30
0.0
 11
-34.075000
 21
78.150000
 31
0.0
 11
-34.201313
 21
78.862998
 31
0.0
 11
-34.558182
 21
79.481113
 31
0.0
 11
-35.112500
 21
79.947003
 31
0.0
 11
-35.793131
 21
80.194112
 31
0.0
 11
-36.506869
 21
80.194112
 31
0.0
 11
-37.187500
 21
79.947003
 31
0.0
 11
-37.741818
 21
79.481113
 31
0.0
 11
-38.098687
 21
78.862998
 31
0.0
 11
-38.225000
 21
78.150000
 31
0.0
 11
-38.098687
 21
77.437002
 31
0.0
 11
-37.741818
 21
76.818887
 31
0.0
 11
-37.187500
 21
76.352997
 31
0.0
 11
-36.506869
 21
76.105888
 31
0.0
 11
-35.793131
 21
76.105888
 31
0.0
 11
-35.112500
 21
76.352997
 31
0.0
 11
-34.558182
 21
76.818887
 31
0.0
 11
-34.201313
 21
77.437002
 31
0.0
 11
-34.075000
 21
78.150000
 31
0.0
  0
LWPOLYLINE
  5
11b
100
AcDbEntity
  8
0
 62
7
100
AcDbPolyline
 90
2
 70
0
 10
-34.075000
 20
47.150000
 30
0.0
 10
-34.075000
 20
47.150000
 30
0.0
  0
SPLINE
  5
11c
100
AcDbEntity
  8
0
 62
7
100
AcDbSpline
 70
0
 71
3
 72
25
 73
21
 74
19
 40
0.000000
 40
0.000000
 40
0.000000
 40
0.000000
 40
0.724101
 40
1.437838
 40
2.161939
 40
2.886039
 40
3.599777
 40
4.323877
 40
5.047978
 40
5.761716
 40
6.485816
 40
7.209917
 40
7.923655
 40
8.647755
 40
9.371855
 40
10.085593
 40
10.809694
 40
11.533794
 40
12.247532
 40
12.971632
 40
12.971632
 40
12.971632
 40
12.971632
 10
38.225000
 20
78.150000
 30
0.0
 10
38.200208
 20
78.392598
 30
0.0
 10
38.150979
 20
78.874322
 30
0.0
 10
37.769040
 20
79.510927
 30
0.0
 10
37.209818
 20
79.984227
 30
0.0
 10
36.517326
 20
80.235249
 30
0.0
 10
35.782515
 20
80.235249
 30
0.0
 10
35.090993
 20
79.984227
 30
0.0
 10
34.527898
 20
79.510927
 30
0.0
 10
34.160348
 20
78.874322
 30
0.0
 10
34.032018
 20
78.150000
 30
0.0
 10
34.160348
 20
77.425678
 30
0.0
 10
34.527898
 20
76.789073
 30
0.0
 10
35.090993
 20
76.315773
 30
0.0
 10
35.782515
 20
76.064751
 30
0.0
 10
36.517326
 20
76.064751
 30
0.0
 10
37.209818
 20
76.315773
 30
0.0
 10
37.769040
 20
76.789073
 30
0.0
 10
38.150979
 20
77.425678
 30
0.0
 10
38.200208
 20
77.907402
 30
0.0
 10
38.225000
 20
78.150000
 30
0.0
 11
38.225000
 21
78.150000
 31
0.0
 11
38.098687
 21
78.862998
 31
0.0
 11
37.741818
 21
79.481113
 31
0.0
 11
37.187500
 21
79.947003
 31
0.0
 11
36.506869
 21
80.194112
 31
0.0
 11
35.793131
 21
80.194112
 31
0.0
 11
35.112500
 21
79.947003
 31
0.0
 11
34.558182
 21
79.481113
 31
0.0
 11
34.201313
 21
78.862998
 31
0.0
 11
34.075000
 21
78.150000
 31
0.0
 11
34.201313
 21
77.437002
 31
0.0
 11
34.558182
 21
76.818887
 31
0.0
 11
35.112500
 21
76.352997
 31
0.0
 11
35.793131
 21
76.105888
 31
0.0
 11
36.506869
 21
76.105888
 31
0.0
 11
37.187500
 21
76.352997
 31
0.0
 11
37.741818
 21
76.818887
 31
0.0
 11
38.098687
 21
77.437002
 31
0.0
 11
38.225000
 21
78.150000
 31
0.0
  0
LWPOLYLINE
  5
11d
100
AcDbEntity
  8
0
 62
7
100
AcDbPolyline
 90
2
 70
0
 10
-34.075000
 20
78.150000
 30
0.0
 10
-34.075000
 20
78.150000
 30
0.0
  0
SPLINE
  5
11e
100
AcDbEntity
  8
0
 62
7
100
AcDbSpline
 70
0
 71
3
 72
25
 73
21
 74
19
 40
0.000000
 40
0.000000
 40
0.000000
 40
0.000000
 40
0.724101
 40
1.437838
 40
2.161939
 40
2.886039
 40
3.599777
 40
4.323877
 40
5.047978
 40
5.761716
 40
6.485816
 40
7.209917
 40
7.923655
 40
8.647755
 40
9.371856
 40
10.085593
 40
10.809694
 40
11.533794
 40
12.247532
 40
12.971632
 40
12.971632
 40
12.971632
 40
12.971632
 10
38.225000
 20
47.150000
 30
0.0
 10
38.200208
 20
47.392598
 30
0.0
 10
38.150979
 20
47.874322
 30
0.0
 10
37.769040
 20
48.510927
 30
0.0
 10
37.209818
 20
48.984227
 30
0.0
 10
36.517326
 20
49.235249
 30
0.0
 10
35.782515
 20
49.235249
 30
0.0
 10
35.090993
 20
48.984227
 30
0.0
 10
34.527898
 20
48.510927
 30
0.0
 10
34.160348
 20
47.874322
 30
0.0
 10
34.032018
 20
47.150000
 30
0.0
 10
34.160348
 20
46.425678
 30
0.0
 10
34.527898
 20
45.789073
 30
0.0
 10
35.090993
 20
45.315773
 30
0.0
 10
35.782515
 20
45.064751
 30
0.0
 10
36.517326
 20
45.064751
 30
0.0
 10
37.209818
 20
45.315773
 30
0.0
 10
37.769040
 20
45.789073
 30
0.0
 10
38.150979
 20
46.425678
 30
0.0
 10
38.200208
 20
46.907402
 30
0.0
 10
38.225000
 20
47.150000
 30
0.0
 11
38.225000
 21
47.150000
 31
0.0
 11
38.098687
 21
47.862998
 31
0.0
 11
37.741818
 21
48.481113
 31
0.0
 11
37.187500
 21
48.947003
 31
0.0
 11
36.506869
 21
49.194112
 31
0.0
 11
35.793131
 21
49.194112
 31
0.0
 11
35.112500
 21
48.947003
 31
0.0
 11
34.558182
 21
48.481113
 31
0.0
 11
34.201313
 21
47.862998
 31
0.0
 11
34.075000
 21
47.150000
 31
0.0
 11
34.201313
 21
46.437002
 31
0.0
 11
34.558182
 21
45.818887
 31
0.0
 11
35.112500
 21
45.352997
 31
0.0
 11
35.793131
 21
45.105888
 31
0.0
 11
36.506869
 21
45.105888
 31
0.0
 11
37.187500
 21
45.352997
 31
0.0
 11
37.741818
 21
45.818887
 31
0.0
 11
38.098687
 21
46.437002
 31
0.0
 11
38.225000
 21
47.150000
 31
0.0
  0
LWPOLYLINE
  5
11f
100
AcDbEntity
  8
0
 62
7
100
AcDbPolyline
 90
2
 70
0
 10
38.225000
 20
78.150000
 30
0.0
 10
38.225000
 20
78.150000
 30
0.0
  0
SPLINE
  5
120
100
AcDbEntity
  8
0
 62
7
100
AcDbSpline
 70
0
 71
3
 72
25
 73
21
 74
19
 40
0.000000
 40
0.000000
 40
0.000000
 40
0.000000
 40
0.724101
 40
1.437838
 40
2.161939
 40
2.886039
 40
3.599777
 40
4.323877
 40
5.047978
 40
5.761716
 40
6.485816
 40
7.209917
 40
7.923655
 40
8.647755
 40
9.371856
 40
10.085593
 40
10.809694
 40
11.533794
 40
12.247532
 40
12.971632
 40
12.971632
 40
12.971632
 40
12.971632
 10
-28.235889
 20
-17.500000
 30
0.0
 10
-28.260681
 20
-17.257402
 30
0.0
 10
-28.309910
 20
-16.775678
 30
0.0
 10
-28.691849
 20
-16.139073
 30
0.0
 10
-29.251071
 20
-15.665773
 30
0.0
 10
-29.943563
 20
-15.414751
 30
0.0
 10
-30.678374
 20
-15.414751
 30
0.0
 10
-31.369896
 20
-15.665773
 30
0.0
 10
-31.932991
 20
-16.139073
 30
0.0
 10
-32.300541
 20
-16.775678
 30
0.0
 10
-32.428871
 20
-17.500000
 30
0.0
 10
-32.300541
 20
-18.224322
 30
0.0
 10
-31.932991
 20
-18.860927
 30
0.0
 10
-31.369896
 20
-19.334227
 30
0.0
 10
-30.678374
 20
-19.585249
 30
0.0
 10
-29.943563
 20
-19.585249
 30
0.0
 10
-29.251071
 20
-19.334227
 30
0.0
 10
-28.691849
 20
-18.860927
 30
0.0
 10
-28.309910
 20
-18.224322
 30
0.0
 10
-28.260681
 20
-17.742598
 30
0.0
 10
-28.235889
 20
-17.500000
 30
0.0
 11
-28.235889
 21
-17.500000
 31
0.0
 11
-28.362202
 21
-16.787002
 31
0.0
 11
-28.719071
 21
-16.168887
 31
0.0
 11
-29.273389
 21
-15.702997
 31
0.0
 11
-29.954020
 21
-15.455888
 31
0.0
 11
-30.667758
 21
-15.455888
 31
0.0
 11
-31.348389
 21
-15.702997
 31
0.0
 11
-31.902707
 21
-16.168887
 31
0.0
 11
-32.259576
 21
-16.787002
 31
0.0
 11
-32.385889
 21
-17.500000
 31
0.0
 11
-32.259576
 21
-18.212998
 31
0.0
 11
-31.902707
 21
-18.831113
 31
0.0
 11
-31.348389
 21
-19.297003
 31
0.0
 11
-30.667758
 21
-19.544112
 31
0.0
 11
-29.954020
 21
-19.544112
 31
0.0
 11
-29.273389
 21
-19.297003
 31
0.0
 11
-28.719071
 21
-18.831113
 31
0.0
 11
-28.362202
 21
-18.212998
 31
0.0
 11
-28.235889
 21
-17.500000
 31
0.0
  0
LWPOLYLINE
  5
121
100
AcDbEntity
  8
0
 62
7
100
AcDbPolyline
 90
2
 70
0
 10
38.225000
 20
47.150000
 30
0.0
 10
38.225000
 20
47.150000
 30
0.0
  0
SPLINE
  5
122
100
AcDbEntity
  8
0
 62
7
100
AcDbSpline
 70
0
 71
3
 72
25
 73
21
 74
19
 40
0.000000
 40
0.000000
 40
0.000000
 40
0.000000
 40
0.724101
 40
1.437838
 40
2.161939
 40
2.886039
 40
3.599777
 40
4.323877
 40
5.047978
 40
5.761716
 40
6.485816
 40
7.209917
 40
7.923655
 40
8.647755
 40
9.371856
 40
10.085593
 40
10.809694
 40
11.533794
 40
12.247532
 40
12.971632
 40
12.971632
 40
12.971632
 40
12.971632
 10
-28.235889
 20
17.500000
 30
0.0
 10
-28.260681
 20
17.742598
 30
0.0
 10
-28.309910
 20
18.224322
 30
0.0
 10
-28.691849
 20
18.860927
 30
0.0
 10
-29.251071
 20
19.334227
 30
0.0
 10
-29.943563
 20
19.585249
 30
0.0
 10
-30.678374
 20
19.585249
 30
0.0
 10
-31.369896
 20
19.334227
 30
0.0
 10
-31.932991
 20
18.860927
 30
0.0
 10
-32.300541
 20
18.224322
 30
0.0
 10
-32.428871
 20
17.500000
 30
0.0
 10
-32.300541
 20
16.775678
 30
0.0
 10
-31.932991
 20
16.139073
 30
0.0
 10
-31.369896
 20
15.665773
 30
0.0
 10
-30.678374
 20
15.414751
 30
0.0
 10
-29.943563
 20
15.414751
 30
0.0
 10
-29.251071
 20
15.665773
 30
0.0
 10
-28.691849
 20
16.139073
 30
0.0
 10
-28.309910
 20
16.775678
 30
0.0
 10
-28.260681
 20
17.257402
 30
0.0
 10
-28.235889
 20
17.500000
 30
0.0
 11
-28.235889
 21
17.500000
 31
0.0
 11
-28.362202
 21
18.212998
 31
0.0
 11
-28.719071
 21
18.831113
 31
0.0
 11
-29.273389
 21
19.297003
 31
0.0
 11
-29.954020
 21
19.544112
 31
0.0
 11
-30.667758
 21
19.544112
 31
0.0
 11
-31.348389
 21
19.297003
 31
0.0
 11
-31.902707
 21
18.831113
 31
0.0
 11
-32.259576
 21
18.212998
 31
0.0
 11
-32.385889
 21
17.500000
 31
0.0
 11
-32.259576
 21
16.787002
 31
0.0
 11
-31.902707
 21
16.168887
 31
0.0
 11
-31.348389
 21
15.702997
 31
0.0
 11
-30.667758
 21
15.455888
 31
0.0
 11
-29.954020
 21
15.455888
 31
0.0
 11
-29.273389
 21
15.702997
 31
0.0
 11
-28.719071
 21
16.168887
 31
0.0
 11
-28.362202
 21
16.787002
 31
0.0
 11
-28.235889
 21
17.500000
 31
0.0
  0
LWPOLYLINE
  5
123
100
AcDbEntity
  8
0
 62
7
100
AcDbPolyline
 90
2
 70
0
 10
-28.235889
 20
-17.500000
 30
0.0
 10
-28.235889
 20
-17.500000
 30
0.0
  0
SPLINE
  5
124
100
AcDbEntity
  8
0
 62
7
100
AcDbSpline
 70
0
 71
3
 72
25
 73
21
 74
19
 40
0.000000
 40
0.000000
 40
0.000000
 40
0.000000
 40
0.916031
 40
1.818952
 40
2.734983
 40
3.651014
 40
4.553935
 40
5.469965
 40
6.385996
 40
7.288917
 40
8.204948
 40
9.120979
 40
10.023900
 40
10.939931
 40
11.855962
 40
12.758883
 40
13.674913
 40
14.590944
 40
15.493866
 40
16.409896
 40
16.409896
 40
16.409896
 40
16.409896
 10
71.025000
 20
93.800000
 30
0.0
 10
70.993637
 20
94.106901
 30
0.0
 10
70.931359
 20
94.716311
 30
0.0
 10
70.448184
 20
95.521655
 30
0.0
 10
69.740734
 20
96.120407
 30
0.0
 10
68.864690
 20
96.437966
 30
0.0
 10
67.935109
 20
96.437966
 30
0.0
 10
67.060292
 20
96.120407
 30
0.0
 10
66.347943
 20
95.521655
 30
0.0
 10
65.882971
 20
94.716311
 30
0.0
 10
65.720626
 20
93.800000
 30
0.0
 10
65.882971
 20
92.883689
 30
0.0
 10
66.347943
 20
92.078345
 30
0.0
 10
67.060292
 20
91.479593
 30
0.0
 10
67.935109
 20
91.162034
 30
0.0
 10
68.864690
 20
91.162034
 30
0.0
 10
69.740734
 20
91.479593
 30
0.0
 10
70.448184
 20
92.078345
 30
0.0
 10
70.931359
 20
92.883689
 30
0.0
 10
70.993637
 20
93.493099
 30
0.0
 10
71.025000
 20
93.800000
 30
0.0
 11
71.025000
 21
93.800000
 31
0.0
 11
70.865206
 21
94.701986
 31
0.0
 11
70.413746
 21
95.483939
 31
0.0
 11
69.712500
 21
96.073317
 31
0.0
 11
68.851460
 21
96.385924
 31
0.0
 11
67.948539
 21
96.385924
 31
0.0
 11
67.087500
 21
96.073317
 31
0.0
 11
66.386254
 21
95.483939
 31
0.0
 11
65.934794
 21
94.701986
 31
0.0
 11
65.775000
 21
93.800000
 31
0.0
 11
65.934794
 21
92.898014
 31
0.0
 11
66.386254
 21
92.116061
 31
0.0
 11
67.087500
 21
91.526683
 31
0.0
 11
67.948539
 21
91.214076
 31
0.0
 11
68.851460
 21
91.214076
 31
0.0
 11
69.712500
 21
91.526683
 31
0.0
 11
70.413746
 21
92.116061
 31
0.0
 11
70.865206
 21
92.898014
 31
0.0
 11
71.025000
 21
93.800000
 31
0.0
  0
LWPOLYLINE
  5
125
100
AcDbEntity
  8
0
 62
7
100
AcDbPolyline
 90
2
 70
0
 10
-28.235889
 20
17.500000
 30
0.0
 10
-28.235889
 20
17.500000
 30
0.0
  0
SPLINE
  5
126
100
AcDbEntity
  8
0
 62
7
100
AcDbSpline
 70
0
 71
3
 72
25
 73
21
 74
19
 40
0.000000
 40
0.000000
 40
0.000000
 40
0.000000
 40
0.916031
 40
1.818952
 40
2.734983
 40
3.651014
 40
4.553934
 40
5.469965
 40
6.385996
 40
7.288917
 40
8.204948
 40
9.120979
 40
10.023900
 40
10.939931
 40
11.855962
 40
12.758883
 40
13.674914
 40
14.590944
 40
15.493866
 40
16.409896
 40
16.409896
 40
16.409896
 40
16.409896
 10
-65.775000
 20
93.800000
 30
0.0
 10
-65.806363
 20
94.106901
 30
0.0
 10
-65.868641
 20
94.716311
 30
0.0
 10
-66.351816
 20
95.521655
 30
0.0
 10
-67.059266
 20
96.120407
 30
0.0
 10
-67.935310
 20
96.437966
 30
0.0
 10
-68.864891
 20
96.437966
 30
0.0
 10
-69.739708
 20
96.120407
 30
0.0
 10
-70.452057
 20
95.521655
 30
0.0
 10
-70.917029
 20
94.716311
 30
0.0
 10
-71.079375
 20
93.800000
 30
0.0
 10
-70.917029
 20
92.883689
 30
0.0
 10
-70.452057
 20
92.078345
 30
0.0
 10
-69.739708
 20
91.479593
 30
0.0
 10
-68.864891
 20
91.162034
 30
0.0
 10
-67.935310
 20
91.162034
 30
0.0
 10
-67.059266
 20
91.479593
 30
0.0
 10
-66.351816
 20
92.078345
 30
0.0
 10
-65.868641
 20
92.883689
 30
0.0
 10
-65.806363
 20
93.493099
 30
0.0
 10
-65.775000
 20
93.800000
 30
0.0
 11
-65.775000
 21
93.800000
 31
0.0
 11
-65.934794
 21
94.701986
 31
0.0
 11
-66.386254
 21
95.483939
 31
0.0
 11
-67.087500
 21
96.073317
 31
0.0
 11
-67.948539
 21
96.385924
 31
0.0
 11
-68.851460
 21
96.385924
 31
0.0
 11
-69.712500
 21
96.073317
 31
0.0
 11
-70.413746
 21
95.483939
 31
0.0
 11
-70.865206
 21
94.701986
 31
0.0
 11
-71.025000
 21
93.800000
 31
0.0
 11
-70.865206
 21
92.898014
 31
0.0
 11
-70.413746
 21
92.116061
 31
0.0
 11
-69.712500
 21
91.526683
 31
0.0
 11
-68.851460
 21
91.214076
 31
0.0
 11
-67.948539
 21
91.214076
 31
0.0
 11
-67.087500
 21
91.526683
 31
0.0
 11
-66.386254
 21
92.116061
 31
0.0
 11
-65.934794
 21
92.898014
 31
0.0
 11
-65.775000
 21
93.800000
 31
0.0
  0
LWPOLYLINE
  5
127
100
AcDbEntity
  8
0
 62
7
100
AcDbPolyline
 90
2
 70
0
 10
71.025000
 20
93.800000
 30
0.0
 10
71.025000
 20
93.800000
 30
0.0
  0
SPLINE
  5
128
100
AcDbEntity
  8
0
 62
7
100
AcDbSpline
 70
0
 71
3
 72
25
 73
21
 74
19
 40
0.000000
 40
0.000000
 40
0.000000
 40
0.000000
 40
0.724101
 40
1.437838
 40
2.161939
 40
2.886039
 40
3.599777
 40
4.323877
 40
5.047978
 40
5.761716
 40
6.485816
 40
7.209917
 40
7.923655
 40
8.647755
 40
9.371856
 40
10.085593
 40
10.809694
 40
11.533794
 40
12.247532
 40
12.971632
 40
12.971632
 40
12.971632
 40
12.971632
 10
32.385889
 20
17.500000
 30
0.0
 10
32.361097
 20
17.742598
 30
0.0
 10
32.311868
 20
18.224322
 30
0.0
 10
31.929929
 20
18.860927
 30
0.0
 10
31.370707
 20
19.334227
 30
0.0
 10
30.678215
 20
19.585249
 30
0.0
 10
29.943404
 20
19.585249
 30
0.0
 10
29.251882
 20
19.334227
 30
0.0
 10
28.688787
 20
18.860927
 30
0.0
 10
28.321237
 20
18.224322
 30
0.0
 10
28.192907
 20
17.500000
 30
0.0
 10
28.321237
 20
16.775678
 30
0.0
 10
28.688787
 20
16.139073
 30
0.0
 10
29.251882
 20
15.665773
 30
0.0
 10
29.943404
 20
15.414751
 30
0.0
 10
30.678215
 20
15.414751
 30
0.0
 10
31.370707
 20
15.665773
 30
0.0
 10
31.929929
 20
16.139073
 30
0.0
 10
32.311868
 20
16.775678
 30
0.0
 10
32.361097
 20
17.257402
 30
0.0
 10
32.385889
 20
17.500000
 30
0.0
 11
32.385889
 21
17.500000
 31
0.0
 11
32.259576
 21
18.212998
 31
0.0
 11
31.902707
 21
18.831113
 31
0.0
 11
31.348389
 21
19.297003
 31
0.0
 11
30.667758
 21
19.544112
 31
0.0
 11
29.954020
 21
19.544112
 31
0.0
 11
29.273389
 21
19.297003
 31
0.0
 11
28.719071
 21
18.831113
 31
0.0
 11
28.362202
 21
18.212998
 31
0.0
 11
28.235889
 21
17.500000
 31
0.0
 11
28.362202
 21
16.787002
 31
0.0
 11
28.719071
 21
16.168887
 31
0.0
 11
29.273389
 21
15.702997
 31
0.0
 11
29.954020
 21
15.455888
 31
0.0
 11
30.667758
 21
15.455888
 31
0.0
 11
31.348389
 21
15.702997
 31
0.0
 11
31.902707
 21
16.168887
 31
0.0
 11
32.259576
 21
16.787002
 31
0.0
 11
32.385889
 21
17.500000
 31
0.0
  0
LWPOLYLINE
  5
129
100
AcDbEntity
  8
0
 62
7
100
AcDbPolyline
 90
2
 70
0
 10
-65.775000
 20
93.800000
 30
0.0
 10
-65.775000
 20
93.800000
 30
0.0
  0
SPLINE
  5
12a
100
AcDbEntity
  8
0
 62
7
100
AcDbSpline
 70
0
 71
3
 72
25
 73
21
 74
19
 40
0.000000
 40
0.000000
 40
0.000000
 40
0.000000
 40
0.724101
 40
1.437838
 40
2.161939
 40
2.886039
 40
3.599777
 40
4.323877
 40
5.047978
 40
5.761716
 40
6.485816
 40
7.209917
 40
7.923655
 40
8.647755
 40
9.371856
 40
10.085593
 40
10.809694
 40
11.533794
 40
12.247532
 40
12.971632
 40
12.971632
 40
12.971632
 40
12.971632
 10
2.075000
 20
-0.000000
 30
0.0
 10
2.050208
 20
0.242598
 30
0.0
 10
2.000979
 20
0.724322
 30
0.0
 10
1.619040
 20
1.360927
 30
0.0
 10
1.059818
 20
1.834227
 30
0.0
 10
0.367326
 20
2.085249
 30
0.0
 10
-0.367485
 20
2.085249
 30
0.0
 10
-1.059007
 20
1.834227
 30
0.0
 10
-1.622102
 20
1.360927
 30
0.0
 10
-1.989652
 20
0.724322
 30
0.0
 10
-2.117982
 20
-0.000000
 30
0.0
 10
-1.989652
 20
-0.724322
 30
0.0
 10
-1.622102
 20
-1.360927
 30
0.0
 10
-1.059007
 20
-1.834227
 30
0.0
 10
-0.367485
 20
-2.085249
 30
0.0
 10
0.367326
 20
-2.085249
 30
0.0
 10
1.059818
 20
-1.834227
 30
0.0
 10
1.619040
 20
-1.360927
 30
0.0
 10
2.000979
 20
-0.724322
 30
0.0
 10
2.050208
 20
-0.242598
 30
0.0
 10
2.075000
 20
-0.000000
 30
0.0
 11
2.075000
 21
-0.000000
 31
0.0
 11
1.948687
 21
0.712998
 31
0.0
 11
1.591818
 21
1.331113
 31
0.0
 11
1.037500
 21
1.797003
 31
0.0
 11
0.356869
 21
2.044112
 31
0.0
 11
-0.356869
 21
2.044112
 31
0.0
 11
-1.037500
 21
1.797003
 31
0.0
 11
-1.591818
 21
1.331113
 31
0.0
 11
-1.948687
 21
0.712998
 31
0.0
 11
-2.075000
 21
-0.000000
 31
0.0
 11
-1.948687
 21
-0.712998
 31
0.0
 11
-1.591818
 21
-1.331113
 31
0.0
 11
-1.037500
 21
-1.797003
 31
0.0
 11
-0.356869
 21
-2.044112
 31
0.0
 11
0.356869
 21
-2.044112
 31
0.0
 11
1.037500
 21
-1.797003
 31
0.0
 11
1.591818
 21
-1.331113
 31
0.0
 11
1.948687
 21
-0.712998
 31
0.0
 11
2.075000
 21
-0.000000
 31
0.0
  0
LWPOLYLINE
  5
12b
100
AcDbEntity
  8
0
 62
7
100
AcDbPolyline
 90
2
 70
0
 10
32.385889
 20
17.500000
 30
0.0
 10
32.385889
 20
17.500000
 30
0.0
  0
SPLINE
  5
12c
100
AcDbEntity
  8
0
 62
7
100
AcDbSpline
 70
0
 71
3
 72
25
 73
21
 74
19
 40
0.000000
 40
0.000000
 40
0.000000
 40
0.000000
 40
0.724101
 40
1.437838
 40
2.161939
 40
2.886039
 40
3.599777
 40
4.323877
 40
5.047978
 40
5.761716
 40
6.485816
 40
7.209917
 40
7.923655
 40
8.647755
 40
9.371856
 40
10.085593
 40
10.809694
 40
11.533794
 40
12.247532
 40
12.971632
 40
12.971632
 40
12.971632
 40
12.971632
 10
32.385889
 20
-17.500000
 30
0.0
 10
32.361097
 20
-17.257402
 30
0.0
 10
32.311868
 20
-16.775678
 30
0.0
 10
31.929929
 20
-16.139073
 30
0.0
 10
31.370707
 20
-15.665773
 30
0.0
 10
30.678215
 20
-15.414751
 30
0.0
 10
29.943404
 20
-15.414751
 30
0.0
 10
29.251882
 20
-15.665773
 30
0.0
 10
28.688787
 20
-16.139073
 30
0.0
 10
28.321237
 20
-16.775678
 30
0.0
 10
28.192907
 20
-17.500000
 30
0.0
 10
28.321237
 20
-18.224322
 30
0.0
 10
28.688787
 20
-18.860927
 30
0.0
 10
29.251882
 20
-19.334227
 30
0.0
 10
29.943404
 20
-19.585249
 30
0.0
 10
30.678215
 20
-19.585249
 30
0.0
 10
31.370707
 20
-19.334227
 30
0.0
 10
31.929929
 20
-18.860927
 30
0.0
 10
32.311868
 20
-18.224322
 30
0.0
 10
32.361097
 20
-17.742598
 30
0.0
 10
32.385889
 20
-17.500000
 30
0.0
 11
32.385889
 21
-17.500000
 31
0.0
 11
32.259576
 21
-16.787002
 31
0.0
 11
31.902707
 21
-16.168887
 31
0.0
 11
31.348389
 21
-15.702997
 31
0.0
 11
30.667758
 21
-15.455888
 31
0.0
 11
29.954020
 21
-15.455888
 31
0.0
 11
29.273389
 21
-15.702997
 31
0.0
 11
28.719071
 21
-16.168887
 31
0.0
 11
28.362202
 21
-16.787002
 31
0.0
 11
28.235889
 21
-17.500000
 31
0.0
 11
28.362202
 21
-18.212998
 31
0.0
 11
28.719071
 21
-18.831113
 31
0.0
 11
29.273389
 21
-19.297003
 31
0.0
 11
29.954020
 21
-19.544112
 31
0.0
 11
30.667758
 21
-19.544112
 31
0.0
 11
31.348389
 21
-19.297003
 31
0.0
 11
31.902707
 21
-18.831113
 31
0.0
 11
32.259576
 21
-18.212998
 31
0.0
 11
32.385889
 21
-17.500000
 31
0.0
  0
LWPOLYLINE
  5
12d
100
AcDbEntity
  8
0
 62
7
100
AcDbPolyline
 90
2
 70
0
 10
2.075000
 20
-0.000000
 30
0.0
 10
2.075000
 20
-0.000000
 30
0.0
  0
SPLINE
  5
12e
100
AcDbEntity
  8
0
 62
7
100
AcDbSpline
 70
0
 71
3
 72
25
 73
21
 74
19
 40
0.000000
 40
0.000000
 40
0.000000
 40
0.000000
 40
0.682852
 40
1.355979
 40
2.038898
 40
2.721765
 40
3.394881
 40
4.077745
 40
4.760665
 40
5.433791
 40
6.116643
 40
6.799603
 40
7.472743
 40
8.155636
 40
8.838520
 40
9.511635
 40
10.194522
 40
10.877415
 40
11.550555
 40
12.233515
 40
12.233515
 40
12.233515
 40
12.233515
 10
54.857904
 20
-153.907912
 30
0.0
 10
54.834521
 20
-153.679134
 30
0.0
 10
54.788089
 20
-153.224835
 30
0.0
 10
54.427884
 20
-152.624473
 30
0.0
 10
53.900525
 20
-152.178044
 30
0.0
 10
53.247400
 20
-151.941403
 30
0.0
 10
52.554446
 20
-151.941402
 30
0.0
 10
51.902237
 20
-152.178046
 30
0.0
 10
51.371226
 20
-152.624472
 30
0.0
 10
51.024590
 20
-153.224835
 30
0.0
 10
50.903559
 20
-153.907948
 30
0.0
 10
51.024578
 20
-154.591066
 30
0.0
 10
51.371206
 20
-155.191481
 30
0.0
 10
51.902265
 20
-155.637844
 30
0.0
 10
52.554429
 20
-155.874577
 30
0.0
 10
53.247417
 20
-155.874577
 30
0.0
 10
53.900497
 20
-155.637846
 30
0.0
 10
54.427904
 20
-155.191481
 30
0.0
 10
54.788103
 20
-154.591066
 30
0.0
 10
54.834525
 20
-154.136727
 30
0.0
 10
54.857904
 20
-153.907912
 30
0.0
 11
54.857904
 21
-153.907912
 31
0.0
 11
54.738780
 21
-153.235531
 31
0.0
 11
54.402221
 21
-152.652583
 31
0.0
 11
53.879448
 21
-152.213168
 31
0.0
 11
53.237555
 21
-151.980184
 31
0.0
 11
52.564439
 21
-151.980184
 31
0.0
 11
51.922550
 21
-152.213168
 31
0.0
 11
51.399776
 21
-152.652583
 31
0.0
 11
51.063218
 21
-153.235531
 31
0.0
 11
50.944094
 21
-153.907912
 31
0.0
 11
51.063218
 21
-154.580403
 31
0.0
 11
51.399776
 21
-155.163366
 31
0.0
 11
51.922550
 21
-155.602741
 31
0.0
 11
52.564439
 21
-155.835781
 31
0.0
 11
53.237555
 21
-155.835781
 31
0.0
 11
53.879448
 21
-155.602741
 31
0.0
 11
54.402221
 21
-155.163366
 31
0.0
 11
54.738780
 21
-154.580403
 31
0.0
 11
54.857904
 21
-153.907912
 31
0.0
  0
LWPOLYLINE
  5
12f
100
AcDbEntity
  8
0
 62
7
100
AcDbPolyline
 90
2
 70
0
 10
32.385889
 20
-17.500000
 30
0.0
 10
32.385889
 20
-17.500000
 30
0.0
  0
SPLINE
  5
130
100
AcDbEntity
  8
0
 62
7
100
AcDbSpline
 70
0
 71
3
 72
25
 73
21
 74
19
 40
0.000000
 40
0.000000
 40
0.000000
 40
0.000000
 40
0.683115
 40
1.356437
 40
2.039529
 40
2.722617
 40
3.395914
 40
4.079006
 40
4.762100
 40
5.435424
 40
6.118537
 40
6.801660
 40
7.474999
 40
8.158107
 40
8.841185
 40
9.514482
 40
10.197557
 40
10.880671
 40
11.554013
 40
12.237135
 40
12.237135
 40
12.237135
 40
12.237135
 10
164.857901
 20
-153.907997
 30
0.0
 10
164.834601
 20
-153.679121
 30
0.0
 10
164.788334
 20
-153.224650
 30
0.0
 10
164.428214
 20
-152.623964
 30
0.0
 10
163.900760
 20
-152.177346
 30
0.0
 10
163.247526
 20
-151.940427
 30
0.0
 10
162.554323
 20
-151.940428
 30
0.0
 10
161.901998
 20
-152.177345
 30
0.0
 10
161.370903
 20
-152.623964
 30
0.0
 10
161.024295
 20
-153.224648
 30
0.0
 10
160.903709
 20
-153.908001
 30
0.0
 10
161.024312
 20
-154.591355
 30
0.0
 10
161.370909
 20
-155.192051
 30
0.0
 10
161.901981
 20
-155.638718
 30
0.0
 10
162.554334
 20
-155.875575
 30
0.0
 10
163.247515
 20
-155.875576
 30
0.0
 10
163.900779
 20
-155.638715
 30
0.0
 10
164.428215
 20
-155.192052
 30
0.0
 10
164.788346
 20
-154.591358
 30
0.0
 10
164.834605
 20
-154.136876
 30
0.0
 10
164.857901
 20
-153.907997
 30
0.0
 11
164.857901
 21
-153.907997
 31
0.0
 11
164.738990
 21
-153.235311
 31
0.0
 11
164.402515
 21
-152.652089
 31
0.0
 11
163.879694
 21
-152.212462
 31
0.0
 11
163.237648
 21
-151.979252
 31
0.0
 11
162.564351
 21
-151.979252
 31
0.0
 11
161.922302
 21
-152.212462
 31
0.0
 11
161.399477
 21
-152.652089
 31
0.0
 11
161.062999
 21
-153.235311
 31
0.0
 11
160.944100
 21
-153.907997
 31
0.0
 11
161.063010
 21
-154.580691
 31
0.0
 11
161.399483
 21
-155.163934
 31
0.0
 11
161.922302
 21
-155.603588
 31
0.0
 11
162.564351
 21
-155.836760
 31
0.0
 11
163.237648
 21
-155.836760
 31
0.0
 11
163.879694
 21
-155.603588
 31
0.0
 11
164.402520
 21
-155.163934
 31
0.0
 11
164.739000
 21
-154.580691
 31
0.0
 11
164.857901
 21
-153.907997
 31
0.0
  0
LWPOLYLINE
  5
131
100
AcDbEntity
  8
0
 62
7
100
AcDbPolyline
 90
2
 70
0
 10
54.857904
 20
-153.907912
 30
0.0
 10
54.857904
 20
-153.907912
 30
0.0
  0
LWPOLYLINE
  5
132
100
AcDbEntity
  8
0
 62
7
100
AcDbPolyline
 90
2
 70
0
 10
164.857901
 20
-153.907997
 30
0.0
 10
164.857901
 20
-153.907997
 30
0.0
  0
SPLINE
  5
133
100
AcDbEntity
  8
0
 62
7
100
AcDbSpline
 70
0
 71
3
 72
25
 73
21
 74
19
 40
0.000000
 40
0.000000
 40
0.000000
 40
0.000000
 40
0.683104
 40
1.356461
 40
2.039573
 40
2.722627
 40
3.395920
 40
4.078969
 40
4.762088
 40
5.435448
 40
6.118550
 40
6.801738
 40
7.475103
 40
8.158212
 40
8.841281
 40
9.514574
 40
10.197647
 40
10.880756
 40
11.554123
 40
12.237309
 40
12.237309
 40
12.237309
 40
12.237309
 10
109.857896
 20
-72.796907
 30
0.0
 10
109.834594
 20
-72.568034
 30
0.0
 10
109.788324
 20
-72.113556
 30
0.0
 10
109.428213
 20
-71.512857
 30
0.0
 10
108.900784
 20
-71.066176
 30
0.0
 10
108.247498
 20
-70.829397
 30
0.0
 10
107.554350
 20
-70.829396
 30
0.0
 10
106.901976
 20
-71.066180
 30
0.0
 10
106.370903
 20
-71.512855
 30
0.0
 10
106.024301
 20
-72.113553
 30
0.0
 10
105.903710
 20
-72.796936
 30
0.0
 10
106.024303
 20
-73.480317
 30
0.0
 10
106.370898
 20
-74.081056
 30
0.0
 10
106.901993
 20
-74.527704
 30
0.0
 10
107.554335
 20
-74.764572
 30
0.0
 10
108.247513
 20
-74.764570
 30
0.0
 10
108.900769
 20
-74.527707
 30
0.0
 10
109.428224
 20
-74.081054
 30
0.0
 10
109.788349
 20
-73.480320
 30
0.0
 10
109.834602
 20
-73.025808
 30
0.0
 10
109.857896
 20
-72.796907
 30
0.0
 11
109.857896
 21
-72.796907
 31
0.0
 11
109.738988
 21
-72.124231
 31
0.0
 11
109.402512
 21
-71.540970
 31
0.0
 11
108.879688
 21
-71.101316
 31
0.0
 11
108.237644
 21
-70.868200
 31
0.0
 11
107.564351
 21
-70.868200
 31
0.0
 11
106.922313
 21
-71.101316
 31
0.0
 11
106.399479
 21
-71.540970
 31
0.0
 11
106.062997
 21
-72.124231
 31
0.0
 11
105.944100
 21
-72.796907
 31
0.0
 11
106.063007
 21
-73.469667
 31
0.0
 11
106.399484
 21
-74.052938
 31
0.0
 11
106.922313
 21
-74.492582
 31
0.0
 11
107.564351
 21
-74.725754
 31
0.0
 11
108.237644
 21
-74.725754
 31
0.0
 11
108.879688
 21
-74.492582
 31
0.0
 11
109.402517
 21
-74.052938
 31
0.0
 11
109.738997
 21
-73.469667
 31
0.0
 11
109.857896
 21
-72.796907
 31
0.0
  0
LWPOLYLINE
  5
134
100
AcDbEntity
  8
0
 62
7
100
AcDbPolyline
 90
2
 70
0
 10
109.857896
 20
-72.796907
 30
0.0
 10
109.857896
 20
-72.796907
 30
0.0
  0
ENDSEC
  0
SECTION
  2
OBJECTS
  0
DICTIONARY
  5
C
330
0
100
AcDbDictionary
  3
ACAD_GROUP
350
D
  3
ACAD_MLINESTYLE
350
17
  0
DICTIONARY
  5
D
330
C
100
AcDbDictionary
  0
DICTIONARY
  5
1A
330
C
100
AcDbDictionary
  0
DICTIONARY
  5
17
330
C
100
AcDbDictionary
  3
STANDARD
350
18
  0
DICTIONARY
  5
19
330
C
100
AcDbDictionary
  0
ENDSEC
  0
EOF
