<?xml version="1.0" encoding="UTF-8" standalone="no"?>
<svg
   xmlns:dc="http://purl.org/dc/elements/1.1/"
   xmlns:cc="http://creativecommons.org/ns#"
   xmlns:rdf="http://www.w3.org/1999/02/22-rdf-syntax-ns#"
   xmlns:svg="http://www.w3.org/2000/svg"
   xmlns="http://www.w3.org/2000/svg"
   xmlns:sodipodi="http://sodipodi.sourceforge.net/DTD/sodipodi-0.dtd"
   xmlns:inkscape="http://www.inkscape.org/namespaces/inkscape"
   width="744.094488189"
   height="1052.36220472"
   id="svg2"
   version="1.1"
   inkscape:version="0.48.3.1 r9886"
   sodipodi:docname="mk3_base_x1240_p1500_p1283_carrier_4mm.svg">
  <metadata
     id="metadata390">
    <rdf:RDF>
      <cc:Work
         rdf:about="">
        <dc:format>image/svg+xml</dc:format>
        <dc:type
           rdf:resource="http://purl.org/dc/dcmitype/StillImage" />
        <dc:title></dc:title>
      </cc:Work>
    </rdf:RDF>
  </metadata>
  <sodipodi:namedview
     pagecolor="#ffffff"
     bordercolor="#666666"
     borderopacity="1"
     objecttolerance="10"
     gridtolerance="10"
     guidetolerance="10"
     inkscape:pageopacity="0"
     inkscape:pageshadow="2"
     inkscape:window-width="1375"
     inkscape:window-height="876"
     id="namedview388"
     showgrid="false"
     inkscape:zoom="1.4081748"
     inkscape:cx="392.40624"
     inkscape:cy="-376.79917"
     inkscape:window-x="65"
     inkscape:window-y="24"
     inkscape:window-maximized="1"
     inkscape:current-layer="g20" />
  <desc
     id="desc4">/home/daniel/LittleRiP/DXF/CARRIER/mk3_base_x1240_p1500_p1283_carrier.DXF - scale = 1.000000</desc>
  <defs
     id="defs6">
    <marker
       refY="0.0"
       refX="0.0"
       style="overflow:visible"
       id="DistanceX"
       orient="auto">
      <path
         style="stroke:#000000; stroke-width:0.5"
         d="M 3,-3 L -3,3 M 0,-5 L  0,5"
         id="path9" />
    </marker>
    <pattern
       height="8"
       width="8"
       patternUnits="userSpaceOnUse"
       y="0"
       x="0"
       id="Hatch">
      <path
         linecap="square"
         stroke="#000000"
         stroke-width="0.25"
         d="M8 4 l-4,4"
         id="path12" />
      <path
         linecap="square"
         stroke="#000000"
         stroke-width="0.25"
         d="M6 2 l-4,4"
         id="path14" />
      <path
         linecap="square"
         stroke="#000000"
         stroke-width="0.25"
         d="M4 0 l-4,4"
         id="path16" />
    </pattern>
    <symbol
       id="*MODEL_SPACE" />
    <symbol
       id="*PAPER_SPACE" />
  </defs>
  <g
     inkscape:label="0"
     inkscape:groupmode="layer"
     id="g20">
    <path
       style="stroke:#000000;fill:none"
       d="M -266.545276,1751.924604 C -266.545276,1749.392798 -267.895977,1747.053315 -270.088583,1745.787416"
       id="path22" />
    <path
       style="stroke:#000000;fill:none"
       d="M -270.088583,1745.787416 C -272.281188,1744.521513 -274.982591,1744.521513 -277.175197,1745.787416"
       id="path24" />
    <path
       style="stroke:#000000;fill:none"
       d="M -277.175197,1745.787416 C -279.367802,1747.053315 -280.718504,1749.392798 -280.718504,1751.924604"
       id="path26" />
    <path
       style="stroke:#000000;fill:none"
       d="M -280.718504,1751.924604 C -280.718504,1754.456407 -279.367802,1756.795890 -277.175197,1758.061793"
       id="path28" />
    <path
       style="stroke:#000000;fill:none"
       d="M -277.175197,1758.061793 C -274.982591,1759.327693 -272.281188,1759.327693 -270.088583,1758.061793"
       id="path30" />
    <path
       style="stroke:#000000;fill:none"
       d="M -270.088583,1758.061793 C -267.895977,1756.795890 -266.545276,1754.456407 -266.545276,1751.924604"
       id="path32" />
    <path
       style="stroke:#000000;fill:none"
       d="M 229.517717,1751.924604 C 229.517717,1749.392798 228.167015,1747.053315 225.974409,1745.787416"
       id="path34" />
    <path
       style="stroke:#000000;fill:none"
       d="M 225.974409,1745.787416 C 223.781804,1744.521513 221.080401,1744.521513 218.887795,1745.787416"
       id="path36" />
    <path
       style="stroke:#000000;fill:none"
       d="M 218.887795,1745.787416 C 216.695190,1747.053315 215.344488,1749.392798 215.344488,1751.924604"
       id="path38" />
    <path
       style="stroke:#000000;fill:none"
       d="M 215.344488,1751.924604 C 215.344488,1754.456407 216.695190,1756.795890 218.887795,1758.061789"
       id="path40" />
    <path
       style="stroke:#000000;fill:none"
       d="M 218.887795,1758.061789 C 221.080401,1759.327693 223.781804,1759.327693 225.974409,1758.061789"
       id="path42" />
    <path
       style="stroke:#000000;fill:none"
       d="M 225.974409,1758.061789 C 228.167015,1756.795890 229.517717,1754.456407 229.517717,1751.924604"
       id="path44" />
    <path
       style="stroke:#000000;fill:none"
       d="M -266.545276,1751.924604 L -266.545276,1751.924604"
       id="path46" />
    <path
       style="stroke:#000000;fill:none"
       d="M 33.661417,1460.905512 C 33.661417,1458.373709 32.310716,1456.034226 30.118110,1454.768323"
       id="path48" />
    <path
       style="stroke:#000000;fill:none"
       d="M 30.118110,1454.768323 C 27.925505,1453.502424 25.224102,1453.502424 23.031496,1454.768323"
       id="path50" />
    <path
       style="stroke:#000000;fill:none"
       d="M 23.031496,1454.768323 C 20.838891,1456.034226 19.488189,1458.373709 19.488189,1460.905512"
       id="path52" />
    <path
       style="stroke:#000000;fill:none"
       d="M 19.488189,1460.905512 C 19.488189,1463.437315 20.838891,1465.776797 23.031496,1467.042700"
       id="path54" />
    <path
       style="stroke:#000000;fill:none"
       d="M 23.031496,1467.042700 C 25.224102,1468.308600 27.925505,1468.308600 30.118110,1467.042700"
       id="path56" />
    <path
       style="stroke:#000000;fill:none"
       d="M 30.118110,1467.042700 C 32.310716,1465.776797 33.661417,1463.437315 33.661417,1460.905512"
       id="path58" />
    <path
       style="stroke:#000000;fill:none"
       d="M 229.517717,1751.924604 L 229.517717,1751.924604"
       id="path60" />
    <path
       style="stroke:#000000;fill:none"
       d="M 33.661417,1460.905512 L 33.661417,1460.905512"
       id="path62" />
    <path
       style="stroke:#000000;fill:none"
       d="M -49.606299,885.295276 C -49.605474,883.395875 -50.618321,881.640404 -52.263113,880.690465"
       id="path64" />
    <path
       style="stroke:#000000;fill:none"
       d="M -52.263113,880.690465 C -53.907906,879.740525 -55.934614,879.740525 -57.579406,880.690465"
       id="path66" />
    <path
       style="stroke:#000000;fill:none"
       d="M -57.579406,880.690465 C -59.224199,881.640404 -60.237043,883.395875 -60.236220,885.295276"
       id="path68" />
    <path
       style="stroke:#000000;fill:none"
       d="M -60.236220,885.295276 C -60.237043,887.194676 -59.224199,888.950151 -57.579406,889.900087"
       id="path70" />
    <path
       style="stroke:#000000;fill:none"
       d="M -57.579406,889.900087 C -55.934614,890.850026 -53.907906,890.850026 -52.263113,889.900087"
       id="path72" />
    <path
       style="stroke:#000000;fill:none"
       d="M -52.263113,889.900087 C -50.618321,888.950151 -49.605474,887.194676 -49.606299,885.295276"
       id="path74" />
    <path
       style="stroke:#000000;fill:none"
       d="M -300.826772,1778.499407 L 648.070866,1778.499407 L 648.070866,1560.171430 L 300.826772,1048.074559 L 300.826772,661.535433 L -300.826772,661.535433 L -300.826772,1778.499407"
       id="path76" />
    <path
       style="stroke:#000000;fill:none"
       d="M 60.236220,885.295276 C 60.237043,883.395875 59.224199,881.640404 57.579406,880.690465"
       id="path78" />
    <path
       style="stroke:#000000;fill:none"
       d="M 57.579406,880.690465 C 55.934614,879.740525 53.907906,879.740525 52.263113,880.690465"
       id="path80" />
    <path
       style="stroke:#000000;fill:none"
       d="M 52.263113,880.690465 C 50.618321,881.640404 49.605474,883.395875 49.606299,885.295276"
       id="path82" />
    <path
       style="stroke:#000000;fill:none"
       d="M 49.606299,885.295276 C 49.605474,887.194676 50.618321,888.950151 52.263113,889.900087"
       id="path84" />
    <path
       style="stroke:#000000;fill:none"
       d="M 52.263113,889.900087 C 53.907906,890.850026 55.934614,890.850026 57.579406,889.900087"
       id="path86" />
    <path
       style="stroke:#000000;fill:none"
       d="M 57.579406,889.900087 C 59.224199,888.950151 60.237043,887.194676 60.236220,885.295276"
       id="path88" />
    <path
       style="stroke:#000000;fill:none"
       d="M -49.606299,885.295276 L -49.606299,885.295276"
       id="path90" />
    <path
       style="stroke:#000000;fill:none"
       d="M 60.236220,775.452756 C 60.237043,773.553356 59.224199,771.797881 57.579406,770.847945"
       id="path92" />
    <path
       style="stroke:#000000;fill:none"
       d="M 57.579406,770.847945 C 55.934614,769.898006 53.907906,769.898006 52.263113,770.847945"
       id="path94" />
    <path
       style="stroke:#000000;fill:none"
       d="M 52.263113,770.847945 C 50.618321,771.797881 49.605474,773.553356 49.606299,775.452756"
       id="path96" />
    <path
       style="stroke:#000000;fill:none"
       d="M 49.606299,775.452756 C 49.605474,777.352156 50.618321,779.107631 52.263113,780.057567"
       id="path98" />
    <path
       style="stroke:#000000;fill:none"
       d="M 52.263113,780.057567 C 53.907906,781.007506 55.934614,781.007506 57.579406,780.057567"
       id="path100" />
    <path
       style="stroke:#000000;fill:none"
       d="M 57.579406,780.057567 C 59.224199,779.107631 60.237043,777.352156 60.236220,775.452756"
       id="path102" />
    <path
       style="stroke:#000000;fill:none"
       d="M 60.236220,885.295276 L 60.236220,885.295276"
       id="path104" />
    <path
       style="stroke:#000000;fill:none"
       d="M -49.606299,775.452756 C -49.605474,773.553356 -50.618321,771.797881 -52.263113,770.847945"
       id="path106" />
    <path
       style="stroke:#000000;fill:none"
       d="M -52.263113,770.847945 C -53.907906,769.898006 -55.934614,769.898006 -57.579406,770.847945"
       id="path108" />
    <path
       style="stroke:#000000;fill:none"
       d="M -57.579406,770.847945 C -59.224199,771.797881 -60.237043,773.553356 -60.236220,775.452756"
       id="path110" />
    <path
       style="stroke:#000000;fill:none"
       d="M -60.236220,775.452756 C -60.237043,777.352156 -59.224199,779.107631 -57.579406,780.057567"
       id="path112" />
    <path
       style="stroke:#000000;fill:none"
       d="M -57.579406,780.057567 C -55.934614,781.007506 -53.907906,781.007506 -52.263113,780.057567"
       id="path114" />
    <path
       style="stroke:#000000;fill:none"
       d="M -52.263113,780.057567 C -50.618321,779.107631 -49.605474,777.352156 -49.606299,775.452756"
       id="path116" />
    <path
       style="stroke:#000000;fill:none"
       d="M 60.236220,775.452756 L 60.236220,775.452756"
       id="path118" />
    <path
       style="fill:none;stroke:#000000;stroke-width:1.30464017"
       d="m 200.57917,1533.9258 c 0.001,-2.4778 -1.32031,-4.7685 -3.46611,-6.0078"
       id="path120"
       inkscape:connector-curvature="0" />
    <path
       style="fill:none;stroke:#000000;stroke-width:1.30464017"
       d="m 197.11306,1527.918 c -2.14578,-1.2394 -4.78983,-1.2394 -6.93559,0"
       id="path122"
       inkscape:connector-curvature="0" />
    <path
       style="fill:none;stroke:#000000;stroke-width:1.30464017"
       d="m 190.17747,1527.918 c -2.14582,1.2393 -3.46717,3.53 -3.4661,6.0078"
       id="path124"
       inkscape:connector-curvature="0" />
    <path
       style="fill:none;stroke:#000000;stroke-width:1.30464017"
       d="m 186.71137,1533.9258 c -10e-4,2.4784 1.32028,4.7687 3.4661,6.0082"
       id="path126"
       inkscape:connector-curvature="0" />
    <path
       style="fill:none;stroke:#000000;stroke-width:1.30464017"
       d="m 190.17747,1539.934 c 2.14576,1.2393 4.78981,1.2393 6.93559,0"
       id="path128"
       inkscape:connector-curvature="0" />
    <path
       style="fill:none;stroke:#000000;stroke-width:1.30464017"
       d="m 197.11306,1539.934 c 2.1458,-1.2395 3.46715,-3.5298 3.46611,-6.0082"
       id="path130"
       inkscape:connector-curvature="0" />
    <path
       style="stroke:#000000;fill:none"
       d="M -49.606299,775.452756 L -49.606299,775.452756"
       id="path132" />
    <path
       style="fill:none;stroke:#000000;stroke-width:1.30464017"
       d="m 590.34295,1533.9258 c 10e-4,-2.4778 -1.32031,-4.7685 -3.46611,-6.0078"
       id="path134"
       inkscape:connector-curvature="0" />
    <path
       style="fill:none;stroke:#000000;stroke-width:1.30464017"
       d="m 586.87684,1527.918 c -2.14578,-1.2394 -4.78983,-1.2394 -6.93559,0"
       id="path136"
       inkscape:connector-curvature="0" />
    <path
       style="fill:none;stroke:#000000;stroke-width:1.30464017"
       d="m 579.94125,1527.918 c -2.14582,1.2393 -3.46718,3.53 -3.4661,6.0078"
       id="path138"
       inkscape:connector-curvature="0" />
    <path
       style="fill:none;stroke:#000000;stroke-width:1.30464017"
       d="m 576.47515,1533.9258 c -10e-4,2.4784 1.32028,4.7687 3.4661,6.0082"
       id="path140"
       inkscape:connector-curvature="0" />
    <path
       style="fill:none;stroke:#000000;stroke-width:1.30464017"
       d="m 579.94125,1539.934 c 2.14576,1.2393 4.78981,1.2393 6.93559,0"
       id="path142"
       inkscape:connector-curvature="0" />
    <path
       style="fill:none;stroke:#000000;stroke-width:1.30464017"
       d="m 586.87684,1539.934 c 2.1458,-1.2395 3.46715,-3.5298 3.46611,-6.0082"
       id="path144"
       inkscape:connector-curvature="0" />
    <path
       style="fill:none;stroke:#000000;stroke-width:1.30464017"
       d="m 200.57917,1533.9258 0,0"
       id="path146"
       inkscape:connector-curvature="0" />
    <path
       style="fill:none;stroke:#000000;stroke-width:1.30460596"
       d="m 395.46107,1246.5245 c 0,-2.4771 -1.32159,-4.7662 -3.46698,-6.005"
       id="path148"
       inkscape:connector-curvature="0" />
    <path
       style="fill:none;stroke:#000000;stroke-width:1.30460596"
       d="m 391.99409,1240.5195 c -2.14534,-1.2383 -4.78856,-1.2383 -6.93388,0"
       id="path150"
       inkscape:connector-curvature="0" />
    <path
       style="fill:none;stroke:#000000;stroke-width:1.30460596"
       d="m 385.06021,1240.5195 c -2.14539,1.2388 -3.46697,3.5279 -3.46697,6.005"
       id="path152"
       inkscape:connector-curvature="0" />
    <path
       style="fill:none;stroke:#000000;stroke-width:1.30460596"
       d="m 381.59324,1246.5245 c 0,2.4776 1.32158,4.7667 3.46697,6.0053"
       id="path154"
       inkscape:connector-curvature="0" />
    <path
       style="fill:none;stroke:#000000;stroke-width:1.30460596"
       d="m 385.06021,1252.5298 c 2.14532,1.2386 4.78854,1.2386 6.93388,0"
       id="path156"
       inkscape:connector-curvature="0" />
    <path
       style="fill:none;stroke:#000000;stroke-width:1.30460596"
       d="m 391.99409,1252.5298 c 2.14539,-1.2386 3.46698,-3.5277 3.46698,-6.0053"
       id="path158"
       inkscape:connector-curvature="0" />
    <path
       style="fill:none;stroke:#000000;stroke-width:1.30464017"
       d="m 590.34295,1533.9258 0,0"
       id="path160"
       inkscape:connector-curvature="0" />
    <path
       style="stroke:#000000;fill:none"
       d="M 251.663386,1136.692913 C 251.663386,1133.369922 249.890591,1130.299349 247.012795,1128.637853"
       id="path162" />
    <path
       style="stroke:#000000;fill:none"
       d="M 247.012795,1128.637853 C 244.134999,1126.976357 240.589410,1126.976357 237.711614,1128.637853"
       id="path164" />
    <path
       style="stroke:#000000;fill:none"
       d="M 237.711614,1128.637853 C 234.833818,1130.299349 233.061024,1133.369922 233.061024,1136.692913"
       id="path166" />
    <path
       style="stroke:#000000;fill:none"
       d="M 233.061024,1136.692913 C 233.061024,1140.015905 234.833818,1143.086474 237.711614,1144.747974"
       id="path168" />
    <path
       style="stroke:#000000;fill:none"
       d="M 237.711614,1144.747974 C 240.589410,1146.409469 244.134999,1146.409469 247.012795,1144.747974"
       id="path170" />
    <path
       style="stroke:#000000;fill:none"
       d="M 247.012795,1144.747974 C 249.890591,1143.086474 251.663386,1140.015905 251.663386,1136.692913"
       id="path172" />
    <path
       style="fill:none;stroke:#000000;stroke-width:1.30460596"
       d="m 395.46107,1246.5245 0,0"
       id="path174"
       inkscape:connector-curvature="0" />
    <path
       style="stroke:#000000;fill:none"
       d="M -233.061024,1136.692913 C -233.061024,1133.369922 -234.833818,1130.299349 -237.711614,1128.637853"
       id="path176" />
    <path
       style="stroke:#000000;fill:none"
       d="M -237.711614,1128.637853 C -240.589410,1126.976357 -244.134999,1126.976357 -247.012795,1128.637853"
       id="path178" />
    <path
       style="stroke:#000000;fill:none"
       d="M -247.012795,1128.637853 C -249.890591,1130.299349 -251.663386,1133.369922 -251.663386,1136.692913"
       id="path180" />
    <path
       style="stroke:#000000;fill:none"
       d="M -251.663386,1136.692913 C -251.663386,1140.015905 -249.890591,1143.086478 -247.012795,1144.747974"
       id="path182" />
    <path
       style="stroke:#000000;fill:none"
       d="M -247.012795,1144.747974 C -244.134999,1146.409469 -240.589410,1146.409469 -237.711614,1144.747974"
       id="path184" />
    <path
       style="stroke:#000000;fill:none"
       d="M -237.711614,1144.747974 C -234.833818,1143.086478 -233.061024,1140.015905 -233.061024,1136.692913"
       id="path186" />
    <path
       style="stroke:#000000;fill:none"
       d="M 251.663386,1136.692913 L 251.663386,1136.692913"
       id="path188" />
    <path
       style="stroke:#000000;fill:none"
       d="M -120.738189,885.295276 C -120.738189,882.668530 -122.139542,880.241315 -124.414370,878.927942"
       id="path190" />
    <path
       style="stroke:#000000;fill:none"
       d="M -124.414370,878.927942 C -126.689198,877.614569 -129.491904,877.614569 -131.766732,878.927942"
       id="path192" />
    <path
       style="stroke:#000000;fill:none"
       d="M -131.766732,878.927942 C -134.041560,880.241315 -135.442913,882.668530 -135.442913,885.295276"
       id="path194" />
    <path
       style="stroke:#000000;fill:none"
       d="M -135.442913,885.295276 C -135.442913,887.922021 -134.041560,890.349236 -131.766732,891.662609"
       id="path196" />
    <path
       style="stroke:#000000;fill:none"
       d="M -131.766732,891.662609 C -129.491904,892.975982 -126.689198,892.975982 -124.414370,891.662609"
       id="path198" />
    <path
       style="stroke:#000000;fill:none"
       d="M -124.414370,891.662609 C -122.139542,890.349236 -120.738189,887.922021 -120.738189,885.295276"
       id="path200" />
    <path
       style="stroke:#000000;fill:none"
       d="M -233.061024,1136.692913 L -233.061024,1136.692913"
       id="path202" />
    <path
       style="stroke:#000000;fill:none"
       d="M -120.738189,775.452756 C -120.738189,772.826010 -122.139542,770.398795 -124.414370,769.085422"
       id="path204" />
    <path
       style="stroke:#000000;fill:none"
       d="M -124.414370,769.085422 C -126.689198,767.772050 -129.491904,767.772050 -131.766732,769.085422"
       id="path206" />
    <path
       style="stroke:#000000;fill:none"
       d="M -131.766732,769.085422 C -134.041560,770.398795 -135.442913,772.826010 -135.442913,775.452756"
       id="path208" />
    <path
       style="stroke:#000000;fill:none"
       d="M -135.442913,775.452756 C -135.442913,778.079502 -134.041560,780.506717 -131.766732,781.820089"
       id="path210" />
    <path
       style="stroke:#000000;fill:none"
       d="M -131.766732,781.820089 C -129.491904,783.133462 -126.689198,783.133462 -124.414370,781.820089"
       id="path212" />
    <path
       style="stroke:#000000;fill:none"
       d="M -124.414370,781.820089 C -122.139542,780.506717 -120.738189,778.079502 -120.738189,775.452756"
       id="path214" />
    <path
       style="stroke:#000000;fill:none"
       d="M -120.738189,885.295276 L -120.738189,885.295276"
       id="path216" />
    <path
       style="stroke:#000000;fill:none"
       d="M 135.442913,775.452756 C 135.442913,772.826010 134.041560,770.398795 131.766732,769.085422"
       id="path218" />
    <path
       style="stroke:#000000;fill:none"
       d="M 131.766732,769.085422 C 129.491904,767.772050 126.689198,767.772050 124.414370,769.085422"
       id="path220" />
    <path
       style="stroke:#000000;fill:none"
       d="M 124.414370,769.085422 C 122.139542,770.398795 120.738189,772.826010 120.738189,775.452756"
       id="path222" />
    <path
       style="stroke:#000000;fill:none"
       d="M 120.738189,775.452756 C 120.738189,778.079502 122.139542,780.506717 124.414370,781.820089"
       id="path224" />
    <path
       style="stroke:#000000;fill:none"
       d="M 124.414370,781.820089 C 126.689198,783.133462 129.491904,783.133462 131.766732,781.820089"
       id="path226" />
    <path
       style="stroke:#000000;fill:none"
       d="M 131.766732,781.820089 C 134.041560,780.506717 135.442913,778.079502 135.442913,775.452756"
       id="path228" />
    <path
       style="stroke:#000000;fill:none"
       d="M -120.738189,775.452756 L -120.738189,775.452756"
       id="path230" />
    <path
       style="stroke:#000000;fill:none"
       d="M 135.442913,885.295276 C 135.442913,882.668530 134.041560,880.241315 131.766732,878.927942"
       id="path232" />
    <path
       style="stroke:#000000;fill:none"
       d="M 131.766732,878.927942 C 129.491904,877.614569 126.689198,877.614569 124.414370,878.927942"
       id="path234" />
    <path
       style="stroke:#000000;fill:none"
       d="M 124.414370,878.927942 C 122.139542,880.241315 120.738189,882.668530 120.738189,885.295276"
       id="path236" />
    <path
       style="stroke:#000000;fill:none"
       d="M 120.738189,885.295276 C 120.738189,887.922021 122.139542,890.349236 124.414370,891.662609"
       id="path238" />
    <path
       style="stroke:#000000;fill:none"
       d="M 124.414370,891.662609 C 126.689198,892.975982 129.491904,892.975982 131.766732,891.662609"
       id="path240" />
    <path
       style="stroke:#000000;fill:none"
       d="M 131.766732,891.662609 C 134.041560,890.349236 135.442913,887.922021 135.442913,885.295276"
       id="path242" />
    <path
       style="stroke:#000000;fill:none"
       d="M 135.442913,775.452756 L 135.442913,775.452756"
       id="path244" />
    <path
       style="stroke:#000000;fill:none"
       d="M -100.048426,1114.370079 C -100.048426,1111.743333 -101.449779,1109.316118 -103.724607,1108.002745"
       id="path246" />
    <path
       style="stroke:#000000;fill:none"
       d="M -103.724607,1108.002745 C -105.999435,1106.689372 -108.802141,1106.689372 -111.076969,1108.002745"
       id="path248" />
    <path
       style="stroke:#000000;fill:none"
       d="M -111.076969,1108.002745 C -113.351797,1109.316118 -114.753150,1111.743333 -114.753150,1114.370079"
       id="path250" />
    <path
       style="stroke:#000000;fill:none"
       d="M -114.753150,1114.370079 C -114.753150,1116.996824 -113.351797,1119.424039 -111.076969,1120.737412"
       id="path252" />
    <path
       style="stroke:#000000;fill:none"
       d="M -111.076969,1120.737412 C -108.802141,1122.050785 -105.999435,1122.050785 -103.724607,1120.737412"
       id="path254" />
    <path
       style="stroke:#000000;fill:none"
       d="M -103.724607,1120.737412 C -101.449779,1119.424039 -100.048426,1116.996824 -100.048426,1114.370079"
       id="path256" />
    <path
       style="stroke:#000000;fill:none"
       d="M 135.442913,885.295276 L 135.442913,885.295276"
       id="path258" />
    <path
       style="stroke:#000000;fill:none"
       d="M -100.048426,990.354331 C -100.048426,987.727585 -101.449779,985.300370 -103.724607,983.986997"
       id="path260" />
    <path
       style="stroke:#000000;fill:none"
       d="M -103.724607,983.986997 C -105.999435,982.673624 -108.802141,982.673624 -111.076969,983.986997"
       id="path262" />
    <path
       style="stroke:#000000;fill:none"
       d="M -111.076969,983.986997 C -113.351797,985.300370 -114.753150,987.727585 -114.753150,990.354331"
       id="path264" />
    <path
       style="stroke:#000000;fill:none"
       d="M -114.753150,990.354331 C -114.753150,992.981076 -113.351797,995.408291 -111.076969,996.721664"
       id="path266" />
    <path
       style="stroke:#000000;fill:none"
       d="M -111.076969,996.721664 C -108.802141,998.035037 -105.999435,998.035037 -103.724607,996.721664"
       id="path268" />
    <path
       style="stroke:#000000;fill:none"
       d="M -103.724607,996.721664 C -101.449779,995.408291 -100.048426,992.981076 -100.048426,990.354331"
       id="path270" />
    <path
       style="stroke:#000000;fill:none"
       d="M -100.048426,1114.370079 L -100.048426,1114.370079"
       id="path272" />
    <path
       style="stroke:#000000;fill:none"
       d="M 251.663386,720.000000 C 251.663386,716.677009 249.890591,713.606435 247.012795,711.944940"
       id="path274" />
    <path
       style="stroke:#000000;fill:none"
       d="M 247.012795,711.944940 C 244.134999,710.283444 240.589410,710.283444 237.711614,711.944940"
       id="path276" />
    <path
       style="stroke:#000000;fill:none"
       d="M 237.711614,711.944940 C 234.833818,713.606435 233.061024,716.677009 233.061024,720.000000"
       id="path278" />
    <path
       style="stroke:#000000;fill:none"
       d="M 233.061024,720.000000 C 233.061024,723.322991 234.833818,726.393565 237.711614,728.055060"
       id="path280" />
    <path
       style="stroke:#000000;fill:none"
       d="M 237.711614,728.055060 C 240.589410,729.716556 244.134999,729.716556 247.012795,728.055060"
       id="path282" />
    <path
       style="stroke:#000000;fill:none"
       d="M 247.012795,728.055060 C 249.890591,726.393565 251.663386,723.322991 251.663386,720.000000"
       id="path284" />
    <path
       style="stroke:#000000;fill:none"
       d="M -100.048426,990.354331 L -100.048426,990.354331"
       id="path286" />
    <path
       style="stroke:#000000;fill:none"
       d="M -233.061024,720.000000 C -233.061024,716.677009 -234.833818,713.606435 -237.711614,711.944940"
       id="path288" />
    <path
       style="stroke:#000000;fill:none"
       d="M -237.711614,711.944940 C -240.589410,710.283444 -244.134999,710.283444 -247.012795,711.944940"
       id="path290" />
    <path
       style="stroke:#000000;fill:none"
       d="M -247.012795,711.944940 C -249.890591,713.606435 -251.663386,716.677009 -251.663386,720.000000"
       id="path292" />
    <path
       style="stroke:#000000;fill:none"
       d="M -251.663386,720.000000 C -251.663386,723.322991 -249.890591,726.393565 -247.012795,728.055060"
       id="path294" />
    <path
       style="stroke:#000000;fill:none"
       d="M -247.012795,728.055060 C -244.134999,729.716556 -240.589410,729.716556 -237.711614,728.055060"
       id="path296" />
    <path
       style="stroke:#000000;fill:none"
       d="M -237.711614,728.055060 C -234.833818,726.393565 -233.061024,723.322991 -233.061024,720.000000"
       id="path298" />
    <path
       style="stroke:#000000;fill:none"
       d="M 251.663386,720.000000 L 251.663386,720.000000"
       id="path300" />
    <path
       style="stroke:#000000;fill:none"
       d="M 114.753150,990.354331 C 114.753150,987.727585 113.351797,985.300370 111.076969,983.986997"
       id="path302" />
    <path
       style="stroke:#000000;fill:none"
       d="M 111.076969,983.986997 C 108.802141,982.673624 105.999435,982.673624 103.724607,983.986997"
       id="path304" />
    <path
       style="stroke:#000000;fill:none"
       d="M 103.724607,983.986997 C 101.449779,985.300370 100.048426,987.727585 100.048426,990.354331"
       id="path306" />
    <path
       style="stroke:#000000;fill:none"
       d="M 100.048426,990.354331 C 100.048426,992.981076 101.449779,995.408291 103.724607,996.721664"
       id="path308" />
    <path
       style="stroke:#000000;fill:none"
       d="M 103.724607,996.721664 C 105.999435,998.035037 108.802141,998.035037 111.076969,996.721664"
       id="path310" />
    <path
       style="stroke:#000000;fill:none"
       d="M 111.076969,996.721664 C 113.351797,995.408291 114.753150,992.981076 114.753150,990.354331"
       id="path312" />
    <path
       style="stroke:#000000;fill:none"
       d="M -233.061024,720.000000 L -233.061024,720.000000"
       id="path314" />
    <path
       style="stroke:#000000;fill:none"
       d="M 7.352362,1052.362205 C 7.352362,1049.735459 5.951009,1047.308244 3.676181,1045.994871"
       id="path316" />
    <path
       style="stroke:#000000;fill:none"
       d="M 3.676181,1045.994871 C 1.401353,1044.681498 -1.401353,1044.681498 -3.676181,1045.994871"
       id="path318" />
    <path
       style="stroke:#000000;fill:none"
       d="M -3.676181,1045.994871 C -5.951009,1047.308244 -7.352362,1049.735459 -7.352362,1052.362205"
       id="path320" />
    <path
       style="stroke:#000000;fill:none"
       d="M -7.352362,1052.362205 C -7.352362,1054.988950 -5.951009,1057.416165 -3.676181,1058.729538"
       id="path322" />
    <path
       style="stroke:#000000;fill:none"
       d="M -3.676181,1058.729538 C -1.401353,1060.042911 1.401353,1060.042911 3.676181,1058.729538"
       id="path324" />
    <path
       style="stroke:#000000;fill:none"
       d="M 3.676181,1058.729538 C 5.951009,1057.416165 7.352362,1054.988950 7.352362,1052.362205"
       id="path326" />
    <path
       style="stroke:#000000;fill:none"
       d="M 114.753150,990.354331 L 114.753150,990.354331"
       id="path328" />
    <path
       style="stroke:#000000;fill:none"
       d="M 114.753150,1114.370079 C 114.753150,1111.743333 113.351797,1109.316118 111.076969,1108.002745"
       id="path330" />
    <path
       style="stroke:#000000;fill:none"
       d="M 111.076969,1108.002745 C 108.802141,1106.689372 105.999435,1106.689372 103.724607,1108.002745"
       id="path332" />
    <path
       style="stroke:#000000;fill:none"
       d="M 103.724607,1108.002745 C 101.449779,1109.316118 100.048426,1111.743333 100.048426,1114.370079"
       id="path334" />
    <path
       style="stroke:#000000;fill:none"
       d="M 100.048426,1114.370079 C 100.048426,1116.996824 101.449779,1119.424039 103.724607,1120.737412"
       id="path336" />
    <path
       style="stroke:#000000;fill:none"
       d="M 103.724607,1120.737412 C 105.999435,1122.050785 108.802141,1122.050785 111.076969,1120.737412"
       id="path338" />
    <path
       style="stroke:#000000;fill:none"
       d="M 111.076969,1120.737412 C 113.351797,1119.424039 114.753150,1116.996824 114.753150,1114.370079"
       id="path340" />
    <path
       style="stroke:#000000;fill:none"
       d="M 7.352362,1052.362205 L 7.352362,1052.362205"
       id="path342" />
    <path
       style="fill:none;stroke:#000000;stroke-width:1.30460596"
       d="m 194.3784,1597.7052 c 0,-2.477 -1.32159,-4.7662 -3.46697,-6.005"
       id="path344"
       inkscape:connector-curvature="0" />
    <path
       style="fill:none;stroke:#000000;stroke-width:1.30460596"
       d="m 190.91143,1591.7002 c -2.14535,-1.2383 -4.78856,-1.2383 -6.93389,0"
       id="path346"
       inkscape:connector-curvature="0" />
    <path
       style="fill:none;stroke:#000000;stroke-width:1.30460596"
       d="m 183.97754,1591.7002 c -2.14539,1.2388 -3.46697,3.528 -3.46697,6.005"
       id="path348"
       inkscape:connector-curvature="0" />
    <path
       style="fill:none;stroke:#000000;stroke-width:1.30460596"
       d="m 180.51057,1597.7052 c 0,2.4776 1.32158,4.7667 3.46697,6.0053"
       id="path350"
       inkscape:connector-curvature="0" />
    <path
       style="fill:none;stroke:#000000;stroke-width:1.30460596"
       d="m 183.97754,1603.7105 c 2.14533,1.2386 4.78854,1.2386 6.93389,0"
       id="path352"
       inkscape:connector-curvature="0" />
    <path
       style="fill:none;stroke:#000000;stroke-width:1.30460596"
       d="m 190.91143,1603.7105 c 2.14538,-1.2386 3.46697,-3.5277 3.46697,-6.0053"
       id="path354"
       inkscape:connector-curvature="0" />
    <path
       style="stroke:#000000;fill:none"
       d="M 114.753150,1114.370079 L 114.753150,1114.370079"
       id="path356" />
    <path
       style="fill:none;stroke:#000000;stroke-width:1.30464101"
       d="m 584.14217,1597.7055 c 9.8e-4,-2.4781 -1.3203,-4.7684 -3.46609,-6.0078"
       id="path358"
       inkscape:connector-curvature="0" />
    <path
       style="fill:none;stroke:#000000;stroke-width:1.30464101"
       d="m 580.67608,1591.6977 c -2.14578,-1.2395 -4.78984,-1.2395 -6.93564,0"
       id="path360"
       inkscape:connector-curvature="0" />
    <path
       style="fill:none;stroke:#000000;stroke-width:1.30464101"
       d="m 573.74044,1591.6977 c -2.14578,1.2394 -3.46714,3.5297 -3.46607,6.0078"
       id="path362"
       inkscape:connector-curvature="0" />
    <path
       style="fill:none;stroke:#000000;stroke-width:1.30464101"
       d="m 570.27437,1597.7055 c -9.8e-4,2.4781 1.32029,4.7685 3.46607,6.008"
       id="path364"
       inkscape:connector-curvature="0" />
    <path
       style="fill:none;stroke:#000000;stroke-width:1.30464101"
       d="m 573.74044,1603.7135 c 2.1458,1.2393 4.78986,1.2393 6.93564,0"
       id="path366"
       inkscape:connector-curvature="0" />
    <path
       style="fill:none;stroke:#000000;stroke-width:1.30464101"
       d="m 580.67608,1603.7135 c 2.14579,-1.2395 3.46715,-3.5299 3.46609,-6.008"
       id="path368"
       inkscape:connector-curvature="0" />
    <path
       style="fill:none;stroke:#000000;stroke-width:1.30460596"
       d="m 194.3784,1597.7052 0,0"
       id="path370"
       inkscape:connector-curvature="0" />
    <path
       style="fill:none;stroke:#000000;stroke-width:1.30465186"
       d="m 389.26026,1310.304 c 10e-4,-2.4779 -1.32029,-4.7686 -3.46609,-6.008"
       id="path372"
       inkscape:connector-curvature="0" />
    <path
       style="fill:none;stroke:#000000;stroke-width:1.30465186"
       d="m 385.79417,1304.296 c -2.14577,-1.239 -4.78984,-1.239 -6.93558,0"
       id="path374"
       inkscape:connector-curvature="0" />
    <path
       style="fill:none;stroke:#000000;stroke-width:1.30465186"
       d="m 378.85859,1304.296 c -2.14583,1.2394 -3.46719,3.5301 -3.46611,6.008"
       id="path376"
       inkscape:connector-curvature="0" />
    <path
       style="fill:none;stroke:#000000;stroke-width:1.30465186"
       d="m 375.39248,1310.304 c -10e-4,2.4784 1.32028,4.7689 3.46611,6.0083"
       id="path378"
       inkscape:connector-curvature="0" />
    <path
       style="fill:none;stroke:#000000;stroke-width:1.30465186"
       d="m 378.85859,1316.3123 c 2.14574,1.2393 4.78981,1.2393 6.93558,0"
       id="path380"
       inkscape:connector-curvature="0" />
    <path
       style="fill:none;stroke:#000000;stroke-width:1.30465186"
       d="m 385.79417,1316.3123 c 2.1458,-1.2394 3.46716,-3.5299 3.46609,-6.0083"
       id="path382"
       inkscape:connector-curvature="0" />
    <path
       style="fill:none;stroke:#000000;stroke-width:1.30464101"
       d="m 584.14217,1597.7055 0,0"
       id="path384"
       inkscape:connector-curvature="0" />
    <path
       style="fill:none;stroke:#000000;stroke-width:1.30465186"
       d="m 389.26026,1310.304 0,0"
       id="path386"
       inkscape:connector-curvature="0" />
  </g>
</svg>
