  0
SECTION
  2
HEADER
  9
$ACADVER
  1
AC1014
  9
$HANDSEED
  5
FFFF
  9
$MEASUREMENT
 70
     1
  0
ENDSEC
  0
SECTION
  2
TABLES
  0
TABLE
  2
VPORT
  5
8
330
0
100
AcDbSymbolTable
 70
     4
  0
VPORT
  5
2E
330
8
100
AcDbSymbolTableRecord
100
AcDbViewportTableRecord
  2
*ACTIVE
 70
     0
 10
0.0
 20
0.0
 11
1.0
 21
1.0
 12
210.0
 22
148.5
 13
0.0
 23
0.0
 14
10.0
 24
10.0
 15
10.0
 25
10.0
 16
0.0
 26
0.0
 36
1.0
 17
0.0
 27
0.0
 37
0.0
 40
341.0
 41
1.24
 42
50.0
 43
0.0
 44
0.0
 50
0.0
 51
0.0
 71
     0
 72
   100
 73
     1
 74
     3
 75
     0
 76
     0
 77
     0
 78
     0
  0
ENDTAB
  0
TABLE
  2
LTYPE
  5
5
330
0
100
AcDbSymbolTable
 70
     1
  0
LTYPE
  5
14
330
5
100
AcDbSymbolTableRecord
100
AcDbLinetypeTableRecord
  2
BYBLOCK
 70
     0
  3

 72
    65
 73
     0
 40
0.0
  0
LTYPE
  5
15
330
5
100
AcDbSymbolTableRecord
100
AcDbLinetypeTableRecord
  2
BYLAYER
 70
     0
  3

 72
    65
 73
     0
 40
0.0
  0
LTYPE
  5
16
330
5
100
AcDbSymbolTableRecord
100
AcDbLinetypeTableRecord
  2
CONTINUOUS
 70
     0
  3
Solid line
 72
    65
 73
     0
 40
0.0
  0
ENDTAB
  0
TABLE
  2
LAYER
  5
2
100
AcDbSymbolTable
 70
1
  0
LAYER
  5
50
100
AcDbSymbolTableRecord
100
AcDbLayerTableRecord
  2
0
 70
0
  6
CONTINUOUS
  0
ENDTAB
  0
TABLE
  2
STYLE
  5
3
330
0
100
AcDbSymbolTable
 70
     1
  0
STYLE
  5
11
330
3
100
AcDbSymbolTableRecord
100
AcDbTextStyleTableRecord
  2
STANDARD
 70
     0
 40
0.0
 41
1.0
 50
0.0
 71
     0
 42
2.5
  3
txt
  4

  0
ENDTAB
  0
TABLE
  2
VIEW
  5
6
330
0
100
AcDbSymbolTable
 70
     0
  0
ENDTAB
  0
TABLE
  2
UCS
  5
7
330
0
100
AcDbSymbolTable
 70
     0
  0
ENDTAB
  0
TABLE
  2
APPID
  5
9
330
0
100
AcDbSymbolTable
 70
     2
  0
APPID
  5
12
330
9
100
AcDbSymbolTableRecord
100
AcDbRegAppTableRecord
  2
ACAD
 70
     0
  0
ENDTAB
  0
TABLE
  2
DIMSTYLE
  5
A
330
0
100
AcDbSymbolTable
 70
     1
  0
DIMSTYLE
105
27
330
A
100
AcDbSymbolTableRecord
100
AcDbDimStyleTableRecord
  2
ISO-25
 70
     0
  3

  4

  5

  6

  7

 40
1.0
 41
2.5
 42
0.625
 43
3.75
 44
1.25
 45
0.0
 46
0.0
 47
0.0
 48
0.0
140
2.5
141
2.5
142
0.0
143
0.03937007874016
144
1.0
145
0.0
146
1.0
147
0.625
 71
     0
 72
     0
 73
     0
 74
     0
 75
     0
 76
     0
 77
     1
 78
     8
170
     0
171
     3
172
     1
173
     0
174
     0
175
     0
176
     0
177
     0
178
     0
270
     2
271
     2
272
     2
273
     2
274
     3
340
11
275
     0
280
     0
281
     0
282
     0
283
     0
284
     8
285
     0
286
     0
287
     3
288
     0
  0
ENDTAB
  0
TABLE
  2
BLOCK_RECORD
  5
1
330
0
100
AcDbSymbolTable
 70
     1
  0
BLOCK_RECORD
  5
1F
330
1
100
AcDbSymbolTableRecord
100
AcDbBlockTableRecord
  2
*MODEL_SPACE
  0
BLOCK_RECORD
  5
1B
330
1
100
AcDbSymbolTableRecord
100
AcDbBlockTableRecord
  2
*PAPER_SPACE
  0
ENDTAB
  0
ENDSEC
  0
SECTION
  2
BLOCKS
  0
BLOCK
  5
20
330
1F
100
AcDbEntity
  8
0
100
AcDbBlockBegin
  2
*MODEL_SPACE
 70
     0
 10
0.0
 20
0.0
 30
0.0
  3
*MODEL_SPACE
  1

  0
ENDBLK
  5
21
330
1F
100
AcDbEntity
  8
0
100
AcDbBlockEnd
  0
BLOCK
  5
1C
330
1B
100
AcDbEntity
 67
     1
  8
0
100
AcDbBlockBegin
  2
*PAPER_SPACE
  1

  0
ENDBLK
  5
1D
330
1B
100
AcDbEntity
 67
     1
  8
0
100
AcDbBlockEnd
  0
ENDSEC
  0
SECTION
  2
ENTITIES
  0
SPLINE
  5
100
100
AcDbEntity
  8
0
 62
7
100
AcDbSpline
 70
0
 71
3
 72
25
 73
21
 74
19
 40
0.000000
 40
0.000000
 40
0.000000
 40
0.000000
 40
0.682852
 40
1.355979
 40
2.038898
 40
2.721765
 40
3.394881
 40
4.077745
 40
4.760665
 40
5.433791
 40
6.116643
 40
6.799603
 40
7.472743
 40
8.155636
 40
8.838520
 40
9.511635
 40
10.194522
 40
10.877415
 40
11.550555
 40
12.233515
 40
12.233515
 40
12.233515
 40
12.233515
 10
46.857903
 20
-153.907912
 30
0.0
 10
46.834520
 20
-153.679134
 30
0.0
 10
46.788088
 20
-153.224835
 30
0.0
 10
46.427883
 20
-152.624473
 30
0.0
 10
45.900524
 20
-152.178044
 30
0.0
 10
45.247399
 20
-151.941403
 30
0.0
 10
44.554445
 20
-151.941402
 30
0.0
 10
43.902236
 20
-152.178046
 30
0.0
 10
43.371225
 20
-152.624472
 30
0.0
 10
43.024589
 20
-153.224835
 30
0.0
 10
42.903558
 20
-153.907948
 30
0.0
 10
43.024577
 20
-154.591066
 30
0.0
 10
43.371205
 20
-155.191481
 30
0.0
 10
43.902264
 20
-155.637844
 30
0.0
 10
44.554428
 20
-155.874577
 30
0.0
 10
45.247416
 20
-155.874577
 30
0.0
 10
45.900496
 20
-155.637846
 30
0.0
 10
46.427903
 20
-155.191481
 30
0.0
 10
46.788102
 20
-154.591066
 30
0.0
 10
46.834524
 20
-154.136727
 30
0.0
 10
46.857903
 20
-153.907912
 30
0.0
 11
46.857903
 21
-153.907912
 31
0.0
 11
46.738779
 21
-153.235531
 31
0.0
 11
46.402220
 21
-152.652583
 31
0.0
 11
45.879447
 21
-152.213168
 31
0.0
 11
45.237554
 21
-151.980184
 31
0.0
 11
44.564438
 21
-151.980184
 31
0.0
 11
43.922549
 21
-152.213168
 31
0.0
 11
43.399775
 21
-152.652583
 31
0.0
 11
43.063217
 21
-153.235531
 31
0.0
 11
42.944093
 21
-153.907912
 31
0.0
 11
43.063217
 21
-154.580403
 31
0.0
 11
43.399775
 21
-155.163366
 31
0.0
 11
43.922549
 21
-155.602741
 31
0.0
 11
44.564438
 21
-155.835781
 31
0.0
 11
45.237554
 21
-155.835781
 31
0.0
 11
45.879447
 21
-155.602741
 31
0.0
 11
46.402220
 21
-155.163366
 31
0.0
 11
46.738779
 21
-154.580403
 31
0.0
 11
46.857903
 21
-153.907912
 31
0.0
  0
SPLINE
  5
101
100
AcDbEntity
  8
0
 62
7
100
AcDbSpline
 70
0
 71
3
 72
25
 73
21
 74
19
 40
0.000000
 40
0.000000
 40
0.000000
 40
0.000000
 40
0.683115
 40
1.356437
 40
2.039529
 40
2.722617
 40
3.395914
 40
4.079006
 40
4.762100
 40
5.435424
 40
6.118537
 40
6.801660
 40
7.474999
 40
8.158107
 40
8.841185
 40
9.514482
 40
10.197557
 40
10.880671
 40
11.554013
 40
12.237135
 40
12.237135
 40
12.237135
 40
12.237135
 10
156.857900
 20
-153.907997
 30
0.0
 10
156.834600
 20
-153.679121
 30
0.0
 10
156.788333
 20
-153.224650
 30
0.0
 10
156.428213
 20
-152.623964
 30
0.0
 10
155.900759
 20
-152.177346
 30
0.0
 10
155.247525
 20
-151.940427
 30
0.0
 10
154.554322
 20
-151.940428
 30
0.0
 10
153.901997
 20
-152.177345
 30
0.0
 10
153.370902
 20
-152.623964
 30
0.0
 10
153.024294
 20
-153.224648
 30
0.0
 10
152.903708
 20
-153.908001
 30
0.0
 10
153.024311
 20
-154.591355
 30
0.0
 10
153.370908
 20
-155.192051
 30
0.0
 10
153.901980
 20
-155.638718
 30
0.0
 10
154.554333
 20
-155.875575
 30
0.0
 10
155.247514
 20
-155.875576
 30
0.0
 10
155.900778
 20
-155.638715
 30
0.0
 10
156.428214
 20
-155.192052
 30
0.0
 10
156.788346
 20
-154.591358
 30
0.0
 10
156.834604
 20
-154.136876
 30
0.0
 10
156.857900
 20
-153.907997
 30
0.0
 11
156.857900
 21
-153.907997
 31
0.0
 11
156.738989
 21
-153.235311
 31
0.0
 11
156.402515
 21
-152.652089
 31
0.0
 11
155.879693
 21
-152.212462
 31
0.0
 11
155.237647
 21
-151.979252
 31
0.0
 11
154.564350
 21
-151.979252
 31
0.0
 11
153.922301
 21
-152.212462
 31
0.0
 11
153.399476
 21
-152.652089
 31
0.0
 11
153.062998
 21
-153.235311
 31
0.0
 11
152.944099
 21
-153.907997
 31
0.0
 11
153.063009
 21
-154.580691
 31
0.0
 11
153.399482
 21
-155.163934
 31
0.0
 11
153.922301
 21
-155.603588
 31
0.0
 11
154.564350
 21
-155.836760
 31
0.0
 11
155.237647
 21
-155.836760
 31
0.0
 11
155.879693
 21
-155.603588
 31
0.0
 11
156.402520
 21
-155.163934
 31
0.0
 11
156.738999
 21
-154.580691
 31
0.0
 11
156.857900
 21
-153.907997
 31
0.0
  0
LWPOLYLINE
  5
102
100
AcDbEntity
  8
0
 62
7
100
AcDbPolyline
 90
2
 70
0
 10
46.857903
 20
-153.907912
 30
0.0
 10
46.857903
 20
-153.907912
 30
0.0
  0
LWPOLYLINE
  5
103
100
AcDbEntity
  8
0
 62
7
100
AcDbPolyline
 90
2
 70
0
 10
156.857900
 20
-153.907997
 30
0.0
 10
156.857900
 20
-153.907997
 30
0.0
  0
LWPOLYLINE
  5
104
100
AcDbEntity
  8
0
 62
7
100
AcDbPolyline
 90
2
 70
0
 10
101.857895
 20
-72.796907
 30
0.0
 10
101.857895
 20
-72.796907
 30
0.0
  0
SPLINE
  5
105
100
AcDbEntity
  8
0
 62
7
100
AcDbSpline
 70
0
 71
3
 72
25
 73
21
 74
19
 40
0.000000
 40
0.000000
 40
0.000000
 40
0.000000
 40
0.683104
 40
1.356461
 40
2.039573
 40
2.722627
 40
3.395920
 40
4.078969
 40
4.762088
 40
5.435448
 40
6.118550
 40
6.801738
 40
7.475103
 40
8.158212
 40
8.841281
 40
9.514574
 40
10.197647
 40
10.880756
 40
11.554123
 40
12.237309
 40
12.237309
 40
12.237309
 40
12.237309
 10
101.857895
 20
-72.796907
 30
0.0
 10
101.834593
 20
-72.568034
 30
0.0
 10
101.788323
 20
-72.113556
 30
0.0
 10
101.428212
 20
-71.512857
 30
0.0
 10
100.900783
 20
-71.066176
 30
0.0
 10
100.247497
 20
-70.829397
 30
0.0
 10
99.554349
 20
-70.829396
 30
0.0
 10
98.901975
 20
-71.066180
 30
0.0
 10
98.370902
 20
-71.512855
 30
0.0
 10
98.024300
 20
-72.113553
 30
0.0
 10
97.903709
 20
-72.796936
 30
0.0
 10
98.024302
 20
-73.480317
 30
0.0
 10
98.370897
 20
-74.081056
 30
0.0
 10
98.901992
 20
-74.527704
 30
0.0
 10
99.554334
 20
-74.764572
 30
0.0
 10
100.247512
 20
-74.764570
 30
0.0
 10
100.900768
 20
-74.527707
 30
0.0
 10
101.428223
 20
-74.081054
 30
0.0
 10
101.788348
 20
-73.480320
 30
0.0
 10
101.834601
 20
-73.025808
 30
0.0
 10
101.857895
 20
-72.796907
 30
0.0
 11
101.857895
 21
-72.796907
 31
0.0
 11
101.738987
 21
-72.124231
 31
0.0
 11
101.402511
 21
-71.540970
 31
0.0
 11
100.879687
 21
-71.101316
 31
0.0
 11
100.237643
 21
-70.868200
 31
0.0
 11
99.564350
 21
-70.868200
 31
0.0
 11
98.922312
 21
-71.101316
 31
0.0
 11
98.399478
 21
-71.540970
 31
0.0
 11
98.062996
 21
-72.124231
 31
0.0
 11
97.944099
 21
-72.796907
 31
0.0
 11
98.063006
 21
-73.469667
 31
0.0
 11
98.399483
 21
-74.052938
 31
0.0
 11
98.922312
 21
-74.492582
 31
0.0
 11
99.564350
 21
-74.725754
 31
0.0
 11
100.237643
 21
-74.725754
 31
0.0
 11
100.879687
 21
-74.492582
 31
0.0
 11
101.402516
 21
-74.052938
 31
0.0
 11
101.738996
 21
-73.469667
 31
0.0
 11
101.857895
 21
-72.796907
 31
0.0
  0
LWPOLYLINE
  5
106
100
AcDbEntity
  8
0
 62
7
100
AcDbPolyline
 90
12
 70
1
 10
31.000000
 20
-157.343177
 30
0.0
 10
31.000000
 20
-66.249746
 30
0.0
 10
120.133000
 20
-66.249746
 30
0.0
 10
120.133000
 20
-85.972282
 30
0.0
 10
163.000001
 20
-85.972282
 30
0.0
 10
163.000001
 20
-164.382223
 30
0.0
 10
150.069000
 20
-164.382223
 30
0.0
 10
150.069000
 20
-144.093239
 30
0.0
 10
123.446834
 20
-144.093239
 30
0.0
 10
123.446834
 20
-164.796271
 30
0.0
 10
31.000000
 20
-164.796271
 30
0.0
 10
31.000000
 20
-157.343177
 30
0.0
  0
ENDSEC
  0
SECTION
  2
OBJECTS
  0
DICTIONARY
  5
C
330
0
100
AcDbDictionary
  3
ACAD_GROUP
350
D
  3
ACAD_MLINESTYLE
350
17
  0
DICTIONARY
  5
D
330
C
100
AcDbDictionary
  0
DICTIONARY
  5
1A
330
C
100
AcDbDictionary
  0
DICTIONARY
  5
17
330
C
100
AcDbDictionary
  3
STANDARD
350
18
  0
DICTIONARY
  5
19
330
C
100
AcDbDictionary
  0
ENDSEC
  0
EOF
