<?xml version="1.0" encoding="UTF-8" standalone="no"?>
<svg
   xmlns:dc="http://purl.org/dc/elements/1.1/"
   xmlns:cc="http://creativecommons.org/ns#"
   xmlns:rdf="http://www.w3.org/1999/02/22-rdf-syntax-ns#"
   xmlns:svg="http://www.w3.org/2000/svg"
   xmlns="http://www.w3.org/2000/svg"
   xmlns:sodipodi="http://sodipodi.sourceforge.net/DTD/sodipodi-0.dtd"
   xmlns:inkscape="http://www.inkscape.org/namespaces/inkscape"
   width="744.094488189"
   height="1052.36220472"
   id="svg2"
   version="1.1"
   inkscape:version="0.48.3.1 r9886"
   sodipodi:docname="spaceholder_sheet.dxf">
  <metadata
     id="metadata390">
    <rdf:RDF>
      <cc:Work
         rdf:about="">
        <dc:format>image/svg+xml</dc:format>
        <dc:type
           rdf:resource="http://purl.org/dc/dcmitype/StillImage" />
        <dc:title></dc:title>
      </cc:Work>
    </rdf:RDF>
  </metadata>
  <sodipodi:namedview
     pagecolor="#ffffff"
     bordercolor="#666666"
     borderopacity="1"
     objecttolerance="10"
     gridtolerance="10"
     guidetolerance="10"
     inkscape:pageopacity="0"
     inkscape:pageshadow="2"
     inkscape:window-width="1375"
     inkscape:window-height="876"
     id="namedview388"
     showgrid="false"
     inkscape:zoom="1.3631914"
     inkscape:cx="457.32959"
     inkscape:cy="-404.87855"
     inkscape:window-x="65"
     inkscape:window-y="24"
     inkscape:window-maximized="1"
     inkscape:current-layer="g20" />
  <desc
     id="desc4">/home/daniel/LittleRiP/DXF/CARRIER/mk3_base_x1240_p1500_p1283_carrier.DXF - scale = 1.000000</desc>
  <defs
     id="defs6">
    <marker
       refY="0.0"
       refX="0.0"
       style="overflow:visible"
       id="DistanceX"
       orient="auto">
      <path
         style="stroke:#000000; stroke-width:0.5"
         d="M 3,-3 L -3,3 M 0,-5 L  0,5"
         id="path9" />
    </marker>
    <pattern
       height="8"
       width="8"
       patternUnits="userSpaceOnUse"
       y="0"
       x="0"
       id="Hatch">
      <path
         linecap="square"
         stroke="#000000"
         stroke-width="0.25"
         d="M8 4 l-4,4"
         id="path12" />
      <path
         linecap="square"
         stroke="#000000"
         stroke-width="0.25"
         d="M6 2 l-4,4"
         id="path14" />
      <path
         linecap="square"
         stroke="#000000"
         stroke-width="0.25"
         d="M4 0 l-4,4"
         id="path16" />
    </pattern>
    <symbol
       id="*MODEL_SPACE" />
    <symbol
       id="*PAPER_SPACE" />
  </defs>
  <g
     inkscape:label="0"
     inkscape:groupmode="layer"
     id="g20">
    <path
       style="fill:none;stroke:#000000;stroke-width:1.30460596"
       d="m 166.03194,1597.7052 c 0,-2.477 -1.32159,-4.7662 -3.46697,-6.005"
       id="path344"
       inkscape:connector-curvature="0" />
    <path
       style="fill:none;stroke:#000000;stroke-width:1.30460596"
       d="m 162.56497,1591.7002 c -2.14535,-1.2383 -4.78856,-1.2383 -6.93389,0"
       id="path346"
       inkscape:connector-curvature="0" />
    <path
       style="fill:none;stroke:#000000;stroke-width:1.30460596"
       d="m 155.63108,1591.7002 c -2.14539,1.2388 -3.46697,3.528 -3.46697,6.005"
       id="path348"
       inkscape:connector-curvature="0" />
    <path
       style="fill:none;stroke:#000000;stroke-width:1.30460596"
       d="m 152.16411,1597.7052 c 0,2.4776 1.32158,4.7667 3.46697,6.0053"
       id="path350"
       inkscape:connector-curvature="0" />
    <path
       style="fill:none;stroke:#000000;stroke-width:1.30460596"
       d="m 155.63108,1603.7105 c 2.14533,1.2386 4.78854,1.2386 6.93389,0"
       id="path352"
       inkscape:connector-curvature="0" />
    <path
       style="fill:none;stroke:#000000;stroke-width:1.30460596"
       d="m 162.56497,1603.7105 c 2.14538,-1.2386 3.46697,-3.5277 3.46697,-6.0053"
       id="path354"
       inkscape:connector-curvature="0" />
    <path
       style="fill:none;stroke:#000000;stroke-width:1.30464101"
       d="m 555.79571,1597.7055 c 9.8e-4,-2.4781 -1.3203,-4.7684 -3.46609,-6.0078"
       id="path358"
       inkscape:connector-curvature="0" />
    <path
       style="fill:none;stroke:#000000;stroke-width:1.30464101"
       d="m 552.32962,1591.6977 c -2.14578,-1.2395 -4.78984,-1.2395 -6.93564,0"
       id="path360"
       inkscape:connector-curvature="0" />
    <path
       style="fill:none;stroke:#000000;stroke-width:1.30464101"
       d="m 545.39398,1591.6977 c -2.14578,1.2394 -3.46714,3.5297 -3.46607,6.0078"
       id="path362"
       inkscape:connector-curvature="0" />
    <path
       style="fill:none;stroke:#000000;stroke-width:1.30464101"
       d="m 541.92791,1597.7055 c -9.8e-4,2.4781 1.32029,4.7685 3.46607,6.008"
       id="path364"
       inkscape:connector-curvature="0" />
    <path
       style="fill:none;stroke:#000000;stroke-width:1.30464101"
       d="m 545.39398,1603.7135 c 2.1458,1.2393 4.78986,1.2393 6.93564,0"
       id="path366"
       inkscape:connector-curvature="0" />
    <path
       style="fill:none;stroke:#000000;stroke-width:1.30464101"
       d="m 552.32962,1603.7135 c 2.14579,-1.2395 3.46715,-3.5299 3.46609,-6.008"
       id="path368"
       inkscape:connector-curvature="0" />
    <path
       style="fill:none;stroke:#000000;stroke-width:1.30460596"
       d="m 166.03194,1597.7052 0,0"
       id="path370"
       inkscape:connector-curvature="0" />
    <path
       style="fill:none;stroke:#000000;stroke-width:1.30465186"
       d="m 360.9138,1310.304 c 0.001,-2.4779 -1.32029,-4.7686 -3.46609,-6.008"
       id="path372"
       inkscape:connector-curvature="0"
       sodipodi:nodetypes="cc" />
    <path
       style="fill:none;stroke:#000000;stroke-width:1.30465186"
       d="m 357.44771,1304.296 c -2.14577,-1.239 -4.78984,-1.239 -6.93558,0"
       id="path374"
       inkscape:connector-curvature="0"
       sodipodi:nodetypes="cc" />
    <path
       style="fill:none;stroke:#000000;stroke-width:1.30465186"
       d="m 350.51213,1304.296 c -2.14583,1.2394 -3.46719,3.5301 -3.46611,6.008"
       id="path376"
       inkscape:connector-curvature="0"
       sodipodi:nodetypes="cc" />
    <path
       style="fill:none;stroke:#000000;stroke-width:1.30465186"
       d="m 347.04602,1310.304 c -10e-4,2.4784 1.32028,4.7689 3.46611,6.0083"
       id="path378"
       inkscape:connector-curvature="0"
       sodipodi:nodetypes="cc" />
    <path
       style="fill:none;stroke:#000000;stroke-width:1.30465186"
       d="m 350.51213,1316.3123 c 2.14574,1.2393 4.78981,1.2393 6.93558,0"
       id="path380"
       inkscape:connector-curvature="0"
       sodipodi:nodetypes="cc" />
    <path
       style="fill:none;stroke:#000000;stroke-width:1.30465186"
       d="m 357.44771,1316.3123 c 2.1458,-1.2394 3.46716,-3.5299 3.46609,-6.0083"
       id="path382"
       inkscape:connector-curvature="0"
       sodipodi:nodetypes="cc" />
    <path
       style="fill:none;stroke:#000000;stroke-width:1.30464101"
       d="m 555.79571,1597.7055 0,0"
       id="path384"
       inkscape:connector-curvature="0" />
    <path
       style="fill:none;stroke:#000000;stroke-width:1.30465186"
       d="m 360.9138,1310.304 0,0"
       id="path386"
       inkscape:connector-curvature="0"
       sodipodi:nodetypes="cc" />
    <path
       style="fill:none;stroke:#000000;stroke-width:1px;stroke-linecap:butt;stroke-linejoin:miter;stroke-opacity:1"
       d="m 109.84252,1609.8774 0,-322.772 315.82559,0 0,49.883 151.89095,0 0,297.8305 -45.81851,0 0,-71.8901 -92.33051,0 0,73.3572 -329.56752,0 z"
       id="path3426"
       inkscape:connector-curvature="0"
       sodipodi:nodetypes="cccccccccccc" />
  </g>
</svg>
