  0
SECTION
  2
HEADER
  9
$ACADVER
  1
AC1014
  9
$HANDSEED
  5
FFFF
  9
$MEASUREMENT
 70
     1
  0
ENDSEC
  0
SECTION
  2
TABLES
  0
TABLE
  2
VPORT
  5
8
330
0
100
AcDbSymbolTable
 70
     4
  0
VPORT
  5
2E
330
8
100
AcDbSymbolTableRecord
100
AcDbViewportTableRecord
  2
*ACTIVE
 70
     0
 10
0.0
 20
0.0
 11
1.0
 21
1.0
 12
210.0
 22
148.5
 13
0.0
 23
0.0
 14
10.0
 24
10.0
 15
10.0
 25
10.0
 16
0.0
 26
0.0
 36
1.0
 17
0.0
 27
0.0
 37
0.0
 40
341.0
 41
1.24
 42
50.0
 43
0.0
 44
0.0
 50
0.0
 51
0.0
 71
     0
 72
   100
 73
     1
 74
     3
 75
     0
 76
     0
 77
     0
 78
     0
  0
ENDTAB
  0
TABLE
  2
LTYPE
  5
5
330
0
100
AcDbSymbolTable
 70
     1
  0
LTYPE
  5
14
330
5
100
AcDbSymbolTableRecord
100
AcDbLinetypeTableRecord
  2
BYBLOCK
 70
     0
  3

 72
    65
 73
     0
 40
0.0
  0
LTYPE
  5
15
330
5
100
AcDbSymbolTableRecord
100
AcDbLinetypeTableRecord
  2
BYLAYER
 70
     0
  3

 72
    65
 73
     0
 40
0.0
  0
LTYPE
  5
16
330
5
100
AcDbSymbolTableRecord
100
AcDbLinetypeTableRecord
  2
CONTINUOUS
 70
     0
  3
Solid line
 72
    65
 73
     0
 40
0.0
  0
ENDTAB
  0
TABLE
  2
LAYER
  5
2
100
AcDbSymbolTable
 70
1
  0
LAYER
  5
50
100
AcDbSymbolTableRecord
100
AcDbLayerTableRecord
  2
0
 70
0
  6
CONTINUOUS
  0
ENDTAB
  0
TABLE
  2
STYLE
  5
3
330
0
100
AcDbSymbolTable
 70
     1
  0
STYLE
  5
11
330
3
100
AcDbSymbolTableRecord
100
AcDbTextStyleTableRecord
  2
STANDARD
 70
     0
 40
0.0
 41
1.0
 50
0.0
 71
     0
 42
2.5
  3
txt
  4

  0
ENDTAB
  0
TABLE
  2
VIEW
  5
6
330
0
100
AcDbSymbolTable
 70
     0
  0
ENDTAB
  0
TABLE
  2
UCS
  5
7
330
0
100
AcDbSymbolTable
 70
     0
  0
ENDTAB
  0
TABLE
  2
APPID
  5
9
330
0
100
AcDbSymbolTable
 70
     2
  0
APPID
  5
12
330
9
100
AcDbSymbolTableRecord
100
AcDbRegAppTableRecord
  2
ACAD
 70
     0
  0
ENDTAB
  0
TABLE
  2
DIMSTYLE
  5
A
330
0
100
AcDbSymbolTable
 70
     1
  0
DIMSTYLE
105
27
330
A
100
AcDbSymbolTableRecord
100
AcDbDimStyleTableRecord
  2
ISO-25
 70
     0
  3

  4

  5

  6

  7

 40
1.0
 41
2.5
 42
0.625
 43
3.75
 44
1.25
 45
0.0
 46
0.0
 47
0.0
 48
0.0
140
2.5
141
2.5
142
0.0
143
0.03937007874016
144
1.0
145
0.0
146
1.0
147
0.625
 71
     0
 72
     0
 73
     0
 74
     0
 75
     0
 76
     0
 77
     1
 78
     8
170
     0
171
     3
172
     1
173
     0
174
     0
175
     0
176
     0
177
     0
178
     0
270
     2
271
     2
272
     2
273
     2
274
     3
340
11
275
     0
280
     0
281
     0
282
     0
283
     0
284
     8
285
     0
286
     0
287
     3
288
     0
  0
ENDTAB
  0
TABLE
  2
BLOCK_RECORD
  5
1
330
0
100
AcDbSymbolTable
 70
     1
  0
BLOCK_RECORD
  5
1F
330
1
100
AcDbSymbolTableRecord
100
AcDbBlockTableRecord
  2
*MODEL_SPACE
  0
BLOCK_RECORD
  5
1B
330
1
100
AcDbSymbolTableRecord
100
AcDbBlockTableRecord
  2
*PAPER_SPACE
  0
ENDTAB
  0
ENDSEC
  0
SECTION
  2
BLOCKS
  0
BLOCK
  5
20
330
1F
100
AcDbEntity
  8
0
100
AcDbBlockBegin
  2
*MODEL_SPACE
 70
     0
 10
0.0
 20
0.0
 30
0.0
  3
*MODEL_SPACE
  1

  0
ENDBLK
  5
21
330
1F
100
AcDbEntity
  8
0
100
AcDbBlockEnd
  0
BLOCK
  5
1C
330
1B
100
AcDbEntity
 67
     1
  8
0
100
AcDbBlockBegin
  2
*PAPER_SPACE
  1

  0
ENDBLK
  5
1D
330
1B
100
AcDbEntity
 67
     1
  8
0
100
AcDbBlockEnd
  0
ENDSEC
  0
SECTION
  2
ENTITIES
  0
LINE
  5
100
100
AcDbEntity
  8
0
 62
7
100
AcDbLine
 10
-517.063538
 20
319.877621
 30
0.0
 11
-467.063554
 21
319.877621
 31
0.0
  0
SPLINE
  5
101
100
AcDbEntity
  8
0
 62
7
100
AcDbSpline
 70
8
 71
3
 72
8
 73
4
 74
0
 40
0
 40
0
 40
0
 40
0
 40
1
 40
1
 40
1
 40
1
 10
-529.263554
 20
376.077620
 30
0.0
 10
-529.263554
 20
378.578814
 30
0.0
 10
-530.597138
 20
380.890225
 30
0.0
 10
-532.763137
 20
382.140969
 30
0.0
  0
SPLINE
  5
102
100
AcDbEntity
  8
0
 62
7
100
AcDbSpline
 70
8
 71
3
 72
8
 73
4
 74
0
 40
0
 40
0
 40
0
 40
0
 40
1
 40
1
 40
1
 40
1
 10
-532.763137
 20
382.140969
 30
0.0
 10
-534.929165
 20
383.391710
 30
0.0
 10
-537.597943
 20
383.391710
 30
0.0
 10
-539.763942
 20
382.140969
 30
0.0
  0
SPLINE
  5
103
100
AcDbEntity
  8
0
 62
7
100
AcDbSpline
 70
8
 71
3
 72
8
 73
4
 74
0
 40
0
 40
0
 40
0
 40
0
 40
1
 40
1
 40
1
 40
1
 10
-539.763942
 20
382.140969
 30
0.0
 10
-541.929969
 20
380.890225
 30
0.0
 10
-543.264062
 20
378.578814
 30
0.0
 10
-543.263554
 20
376.077620
 30
0.0
  0
SPLINE
  5
104
100
AcDbEntity
  8
0
 62
7
100
AcDbSpline
 70
8
 71
3
 72
8
 73
4
 74
0
 40
0
 40
0
 40
0
 40
0
 40
1
 40
1
 40
1
 40
1
 10
-543.263554
 20
376.077620
 30
0.0
 10
-543.263554
 20
373.576425
 30
0.0
 10
-541.929969
 20
371.265014
 30
0.0
 10
-539.763942
 20
370.014270
 30
0.0
  0
SPLINE
  5
105
100
AcDbEntity
  8
0
 62
7
100
AcDbSpline
 70
8
 71
3
 72
8
 73
4
 74
0
 40
0
 40
0
 40
0
 40
0
 40
1
 40
1
 40
1
 40
1
 10
-539.763942
 20
370.014270
 30
0.0
 10
-537.597943
 20
368.763529
 30
0.0
 10
-534.929165
 20
368.763529
 30
0.0
 10
-532.763137
 20
370.014270
 30
0.0
  0
SPLINE
  5
106
100
AcDbEntity
  8
0
 62
7
100
AcDbSpline
 70
8
 71
3
 72
8
 73
4
 74
0
 40
0
 40
0
 40
0
 40
0
 40
1
 40
1
 40
1
 40
1
 10
-532.763137
 20
370.014270
 30
0.0
 10
-530.597138
 20
371.265014
 30
0.0
 10
-529.263046
 20
373.576425
 30
0.0
 10
-529.263554
 20
376.077620
 30
0.0
  0
LINE
  5
107
100
AcDbEntity
  8
0
 62
7
100
AcDbLine
 10
-517.063538
 20
319.877621
 30
0.0
 11
-522.063557
 21
324.877621
 31
0.0
  0
LINE
  5
108
100
AcDbEntity
  8
0
 62
7
100
AcDbLine
 10
-522.063557
 20
324.877621
 30
0.0
 11
-522.063557
 21
382.577621
 31
0.0
  0
LINE
  5
109
100
AcDbEntity
  8
0
 62
7
100
AcDbLine
 10
-522.063557
 20
382.577621
 30
0.0
 11
-532.063537
 21
392.577620
 31
0.0
  0
LINE
  5
10a
100
AcDbEntity
  8
0
 62
7
100
AcDbLine
 10
-532.063537
 20
392.577620
 30
0.0
 11
-540.463542
 21
392.577620
 31
0.0
  0
LINE
  5
10b
100
AcDbEntity
  8
0
 62
7
100
AcDbLine
 10
-540.463542
 20
392.577620
 30
0.0
 11
-550.463551
 21
382.577621
 31
0.0
  0
LINE
  5
10c
100
AcDbEntity
  8
0
 62
7
100
AcDbLine
 10
-550.463551
 20
382.577621
 30
0.0
 11
-550.463551
 21
363.837619
 31
0.0
  0
LINE
  5
10d
100
AcDbEntity
  8
0
 62
7
100
AcDbLine
 10
-550.463551
 20
363.837619
 30
0.0
 11
-560.463559
 21
353.837622
 31
0.0
  0
LINE
  5
10e
100
AcDbEntity
  8
0
 62
7
100
AcDbLine
 10
-560.463559
 20
353.837622
 30
0.0
 11
-577.963538
 21
353.837622
 31
0.0
  0
LINE
  5
10f
100
AcDbEntity
  8
0
 62
7
100
AcDbLine
 10
-577.963538
 20
353.837622
 30
0.0
 11
-577.963538
 21
332.577622
 31
0.0
  0
LINE
  5
110
100
AcDbEntity
  8
0
 62
7
100
AcDbLine
 10
-577.963538
 20
332.577622
 30
0.0
 11
-580.963560
 21
332.577622
 31
0.0
  0
LINE
  5
111
100
AcDbEntity
  8
0
 62
7
100
AcDbLine
 10
-580.963560
 20
332.577622
 30
0.0
 11
-580.963560
 21
315.077621
 31
0.0
  0
LINE
  5
112
100
AcDbEntity
  8
0
 62
7
100
AcDbLine
 10
-580.963560
 20
315.077621
 30
0.0
 11
-577.963538
 21
315.077621
 31
0.0
  0
LINE
  5
113
100
AcDbEntity
  8
0
 62
7
100
AcDbLine
 10
-577.963538
 20
315.077621
 30
0.0
 11
-577.963538
 21
297.577620
 31
0.0
  0
LINE
  5
114
100
AcDbEntity
  8
0
 62
7
100
AcDbLine
 10
-577.963538
 20
297.577620
 30
0.0
 11
-580.963560
 21
297.577620
 31
0.0
  0
LINE
  5
115
100
AcDbEntity
  8
0
 62
7
100
AcDbLine
 10
-580.963560
 20
297.577620
 30
0.0
 11
-580.963560
 21
280.077621
 31
0.0
  0
LINE
  5
116
100
AcDbEntity
  8
0
 62
7
100
AcDbLine
 10
-580.963560
 20
280.077621
 30
0.0
 11
-577.963538
 21
280.077621
 31
0.0
  0
LINE
  5
117
100
AcDbEntity
  8
0
 62
7
100
AcDbLine
 10
-577.963538
 20
280.077621
 30
0.0
 11
-577.963538
 21
262.577621
 31
0.0
  0
LINE
  5
118
100
AcDbEntity
  8
0
 62
7
100
AcDbLine
 10
-577.963538
 20
262.577621
 30
0.0
 11
-580.963560
 21
262.577621
 31
0.0
  0
LINE
  5
119
100
AcDbEntity
  8
0
 62
7
100
AcDbLine
 10
-580.963560
 20
262.577621
 30
0.0
 11
-580.963560
 21
245.077619
 31
0.0
  0
LINE
  5
11a
100
AcDbEntity
  8
0
 62
7
100
AcDbLine
 10
-580.963560
 20
245.077619
 30
0.0
 11
-577.963538
 21
245.077619
 31
0.0
  0
LINE
  5
11b
100
AcDbEntity
  8
0
 62
7
100
AcDbLine
 10
-577.963538
 20
245.077619
 30
0.0
 11
-577.963538
 21
227.577620
 31
0.0
  0
LINE
  5
11c
100
AcDbEntity
  8
0
 62
7
100
AcDbLine
 10
-577.963538
 20
227.577620
 30
0.0
 11
-560.463559
 21
227.577620
 31
0.0
  0
LINE
  5
11d
100
AcDbEntity
  8
0
 62
7
100
AcDbLine
 10
-560.463559
 20
227.577620
 30
0.0
 11
-560.463559
 21
224.577621
 31
0.0
  0
LINE
  5
11e
100
AcDbEntity
  8
0
 62
7
100
AcDbLine
 10
-560.463559
 20
224.577621
 30
0.0
 11
-542.963552
 21
224.577621
 31
0.0
  0
LINE
  5
11f
100
AcDbEntity
  8
0
 62
7
100
AcDbLine
 10
-542.963552
 20
224.577621
 30
0.0
 11
-542.963552
 21
227.577620
 31
0.0
  0
LINE
  5
120
100
AcDbEntity
  8
0
 62
7
100
AcDbLine
 10
-542.963552
 20
227.577620
 30
0.0
 11
-525.463544
 21
227.577620
 31
0.0
  0
LINE
  5
121
100
AcDbEntity
  8
0
 62
7
100
AcDbLine
 10
-525.463544
 20
227.577620
 30
0.0
 11
-525.463544
 21
224.577621
 31
0.0
  0
LINE
  5
122
100
AcDbEntity
  8
0
 62
7
100
AcDbLine
 10
-525.463544
 20
224.577621
 30
0.0
 11
-507.963537
 21
224.577621
 31
0.0
  0
LINE
  5
123
100
AcDbEntity
  8
0
 62
7
100
AcDbLine
 10
-507.963537
 20
224.577621
 30
0.0
 11
-507.963537
 21
227.577620
 31
0.0
  0
LINE
  5
124
100
AcDbEntity
  8
0
 62
7
100
AcDbLine
 10
-507.963537
 20
227.577620
 30
0.0
 11
-476.163555
 21
227.577620
 31
0.0
  0
LINE
  5
125
100
AcDbEntity
  8
0
 62
7
100
AcDbLine
 10
-476.163555
 20
227.577620
 30
0.0
 11
-476.163555
 21
224.577621
 31
0.0
  0
LINE
  5
126
100
AcDbEntity
  8
0
 62
7
100
AcDbLine
 10
-476.163555
 20
224.577621
 30
0.0
 11
-458.663548
 21
224.577621
 31
0.0
  0
LINE
  5
127
100
AcDbEntity
  8
0
 62
7
100
AcDbLine
 10
-458.663548
 20
224.577621
 30
0.0
 11
-458.663548
 21
227.577620
 31
0.0
  0
LINE
  5
128
100
AcDbEntity
  8
0
 62
7
100
AcDbLine
 10
-458.663548
 20
227.577620
 30
0.0
 11
-441.163541
 21
227.577620
 31
0.0
  0
LINE
  5
129
100
AcDbEntity
  8
0
 62
7
100
AcDbLine
 10
-441.163541
 20
227.577620
 30
0.0
 11
-441.163541
 21
224.577621
 31
0.0
  0
LINE
  5
12a
100
AcDbEntity
  8
0
 62
7
100
AcDbLine
 10
-441.163541
 20
224.577621
 30
0.0
 11
-423.663562
 21
224.577621
 31
0.0
  0
LINE
  5
12b
100
AcDbEntity
  8
0
 62
7
100
AcDbLine
 10
-423.663562
 20
224.577621
 30
0.0
 11
-423.663562
 21
227.577620
 31
0.0
  0
LINE
  5
12c
100
AcDbEntity
  8
0
 62
7
100
AcDbLine
 10
-423.663562
 20
227.577620
 30
0.0
 11
-406.163554
 21
227.577620
 31
0.0
  0
LINE
  5
12d
100
AcDbEntity
  8
0
 62
7
100
AcDbLine
 10
-406.163554
 20
227.577620
 30
0.0
 11
-406.163554
 21
245.077619
 31
0.0
  0
LINE
  5
12e
100
AcDbEntity
  8
0
 62
7
100
AcDbLine
 10
-406.163554
 20
245.077619
 30
0.0
 11
-403.163560
 21
245.077619
 31
0.0
  0
LINE
  5
12f
100
AcDbEntity
  8
0
 62
7
100
AcDbLine
 10
-403.163560
 20
245.077619
 30
0.0
 11
-403.163560
 21
262.577621
 31
0.0
  0
LINE
  5
130
100
AcDbEntity
  8
0
 62
7
100
AcDbLine
 10
-403.163560
 20
262.577621
 30
0.0
 11
-406.163554
 21
262.577621
 31
0.0
  0
LINE
  5
131
100
AcDbEntity
  8
0
 62
7
100
AcDbLine
 10
-406.163554
 20
262.577621
 30
0.0
 11
-406.163554
 21
280.077621
 31
0.0
  0
LINE
  5
132
100
AcDbEntity
  8
0
 62
7
100
AcDbLine
 10
-406.163554
 20
280.077621
 30
0.0
 11
-403.163560
 21
280.077621
 31
0.0
  0
LINE
  5
133
100
AcDbEntity
  8
0
 62
7
100
AcDbLine
 10
-403.163560
 20
280.077621
 30
0.0
 11
-403.163560
 21
297.577620
 31
0.0
  0
LINE
  5
134
100
AcDbEntity
  8
0
 62
7
100
AcDbLine
 10
-403.163560
 20
297.577620
 30
0.0
 11
-406.163554
 21
297.577620
 31
0.0
  0
LINE
  5
135
100
AcDbEntity
  8
0
 62
7
100
AcDbLine
 10
-406.163554
 20
297.577620
 30
0.0
 11
-406.163554
 21
315.077621
 31
0.0
  0
LINE
  5
136
100
AcDbEntity
  8
0
 62
7
100
AcDbLine
 10
-406.163554
 20
315.077621
 30
0.0
 11
-403.163560
 21
315.077621
 31
0.0
  0
LINE
  5
137
100
AcDbEntity
  8
0
 62
7
100
AcDbLine
 10
-403.163560
 20
315.077621
 30
0.0
 11
-403.163560
 21
332.577622
 31
0.0
  0
LINE
  5
138
100
AcDbEntity
  8
0
 62
7
100
AcDbLine
 10
-403.163560
 20
332.577622
 30
0.0
 11
-406.163554
 21
332.577622
 31
0.0
  0
LINE
  5
139
100
AcDbEntity
  8
0
 62
7
100
AcDbLine
 10
-406.163554
 20
332.577622
 30
0.0
 11
-406.163554
 21
353.837622
 31
0.0
  0
LINE
  5
13a
100
AcDbEntity
  8
0
 62
7
100
AcDbLine
 10
-406.163554
 20
353.837622
 30
0.0
 11
-423.663562
 21
353.837622
 31
0.0
  0
LINE
  5
13b
100
AcDbEntity
  8
0
 62
7
100
AcDbLine
 10
-423.663562
 20
353.837622
 30
0.0
 11
-433.663542
 21
363.837619
 31
0.0
  0
LINE
  5
13c
100
AcDbEntity
  8
0
 62
7
100
AcDbLine
 10
-433.663542
 20
363.837619
 30
0.0
 11
-433.663542
 21
382.577621
 31
0.0
  0
LINE
  5
13d
100
AcDbEntity
  8
0
 62
7
100
AcDbLine
 10
-433.663542
 20
382.577621
 30
0.0
 11
-443.663550
 21
392.577620
 31
0.0
  0
LINE
  5
13e
100
AcDbEntity
  8
0
 62
7
100
AcDbLine
 10
-443.663550
 20
392.577620
 30
0.0
 11
-452.063556
 21
392.577620
 31
0.0
  0
LINE
  5
13f
100
AcDbEntity
  8
0
 62
7
100
AcDbLine
 10
-452.063556
 20
392.577620
 30
0.0
 11
-462.063536
 21
382.577621
 31
0.0
  0
LINE
  5
140
100
AcDbEntity
  8
0
 62
7
100
AcDbLine
 10
-462.063536
 20
382.577621
 30
0.0
 11
-462.063536
 21
324.877621
 31
0.0
  0
LINE
  5
141
100
AcDbEntity
  8
0
 62
7
100
AcDbLine
 10
-462.063536
 20
324.877621
 30
0.0
 11
-467.063554
 21
319.877621
 31
0.0
  0
SPLINE
  5
142
100
AcDbEntity
  8
0
 62
7
100
AcDbSpline
 70
8
 71
3
 72
8
 73
4
 74
0
 40
0
 40
0
 40
0
 40
0
 40
1
 40
1
 40
1
 40
1
 10
-440.863538
 20
376.077620
 30
0.0
 10
-440.863538
 20
378.578814
 30
0.0
 10
-442.197123
 20
380.890225
 30
0.0
 10
-444.363150
 20
382.140969
 30
0.0
  0
SPLINE
  5
143
100
AcDbEntity
  8
0
 62
7
100
AcDbSpline
 70
8
 71
3
 72
8
 73
4
 74
0
 40
0
 40
0
 40
0
 40
0
 40
1
 40
1
 40
1
 40
1
 10
-444.363150
 20
382.140969
 30
0.0
 10
-446.529150
 20
383.391710
 30
0.0
 10
-449.197928
 20
383.391710
 30
0.0
 10
-451.363955
 20
382.140969
 30
0.0
  0
SPLINE
  5
144
100
AcDbEntity
  8
0
 62
7
100
AcDbSpline
 70
8
 71
3
 72
8
 73
4
 74
0
 40
0
 40
0
 40
0
 40
0
 40
1
 40
1
 40
1
 40
1
 10
-451.363955
 20
382.140969
 30
0.0
 10
-453.529982
 20
380.890225
 30
0.0
 10
-454.864047
 20
378.578814
 30
0.0
 10
-454.863539
 20
376.077620
 30
0.0
  0
SPLINE
  5
145
100
AcDbEntity
  8
0
 62
7
100
AcDbSpline
 70
8
 71
3
 72
8
 73
4
 74
0
 40
0
 40
0
 40
0
 40
0
 40
1
 40
1
 40
1
 40
1
 10
-454.863539
 20
376.077620
 30
0.0
 10
-454.863539
 20
373.576425
 30
0.0
 10
-453.529982
 20
371.265014
 30
0.0
 10
-451.363955
 20
370.014270
 30
0.0
  0
SPLINE
  5
146
100
AcDbEntity
  8
0
 62
7
100
AcDbSpline
 70
8
 71
3
 72
8
 73
4
 74
0
 40
0
 40
0
 40
0
 40
0
 40
1
 40
1
 40
1
 40
1
 10
-451.363955
 20
370.014270
 30
0.0
 10
-449.197928
 20
368.763529
 30
0.0
 10
-446.529150
 20
368.763529
 30
0.0
 10
-444.363150
 20
370.014270
 30
0.0
  0
SPLINE
  5
147
100
AcDbEntity
  8
0
 62
7
100
AcDbSpline
 70
8
 71
3
 72
8
 73
4
 74
0
 40
0
 40
0
 40
0
 40
0
 40
1
 40
1
 40
1
 40
1
 10
-444.363150
 20
370.014270
 30
0.0
 10
-442.197123
 20
371.265014
 30
0.0
 10
-440.863059
 20
373.576425
 30
0.0
 10
-440.863538
 20
376.077620
 30
0.0
  0
LINE
  5
148
100
AcDbEntity
  8
0
 62
7
100
AcDbLine
 10
-529.263554
 20
376.077620
 30
0.0
 11
-529.263554
 21
376.077620
 31
0.0
  0
LINE
  5
149
100
AcDbEntity
  8
0
 62
7
100
AcDbLine
 10
-440.863538
 20
376.077620
 30
0.0
 11
-440.863538
 21
376.077620
 31
0.0
  0
LINE
  5
14a
100
AcDbEntity
  8
0
 62
7
100
AcDbLine
 10
-298.143450
 20
224.579534
 30
0.0
 11
-298.143450
 21
227.579534
 31
0.0
  0
LINE
  5
14b
100
AcDbEntity
  8
0
 62
7
100
AcDbLine
 10
-315.643458
 20
224.579534
 30
0.0
 11
-298.143450
 21
224.579534
 31
0.0
  0
LINE
  5
14c
100
AcDbEntity
  8
0
 62
7
100
AcDbLine
 10
-315.643458
 20
227.579534
 30
0.0
 11
-315.643458
 21
224.579534
 31
0.0
  0
LINE
  5
14d
100
AcDbEntity
  8
0
 62
7
100
AcDbLine
 10
-315.643458
 20
227.579534
 30
0.0
 11
-333.143465
 21
227.579534
 31
0.0
  0
LINE
  5
14e
100
AcDbEntity
  8
0
 62
7
100
AcDbLine
 10
-333.143465
 20
224.579534
 30
0.0
 11
-333.143465
 21
227.579534
 31
0.0
  0
LINE
  5
14f
100
AcDbEntity
  8
0
 62
7
100
AcDbLine
 10
-350.643472
 20
224.579534
 30
0.0
 11
-333.143465
 21
224.579534
 31
0.0
  0
LINE
  5
150
100
AcDbEntity
  8
0
 62
7
100
AcDbLine
 10
-350.643472
 20
227.579534
 30
0.0
 11
-350.643472
 21
224.579534
 31
0.0
  0
LINE
  5
151
100
AcDbEntity
  8
0
 62
7
100
AcDbLine
 10
-350.643472
 20
227.579534
 30
0.0
 11
-368.143451
 21
227.579534
 31
0.0
  0
LINE
  5
152
100
AcDbEntity
  8
0
 62
7
100
AcDbLine
 10
-368.143451
 20
224.579534
 30
0.0
 11
-368.143451
 21
227.579534
 31
0.0
  0
LINE
  5
153
100
AcDbEntity
  8
0
 62
7
100
AcDbLine
 10
-385.643459
 20
224.579534
 30
0.0
 11
-368.143451
 21
224.579534
 31
0.0
  0
LINE
  5
154
100
AcDbEntity
  8
0
 62
7
100
AcDbLine
 10
-385.643459
 20
227.579534
 30
0.0
 11
-385.643459
 21
224.579534
 31
0.0
  0
LINE
  5
155
100
AcDbEntity
  8
0
 62
7
100
AcDbLine
 10
-385.643459
 20
227.579534
 30
0.0
 11
-403.143466
 21
227.579534
 31
0.0
  0
LINE
  5
156
100
AcDbEntity
  8
0
 62
7
100
AcDbLine
 10
-403.143466
 20
227.579534
 30
0.0
 11
-403.143466
 21
210.079532
 31
0.0
  0
LINE
  5
157
100
AcDbEntity
  8
0
 62
7
100
AcDbLine
 10
-403.143466
 20
210.079532
 30
0.0
 11
-406.143460
 21
210.079532
 31
0.0
  0
LINE
  5
158
100
AcDbEntity
  8
0
 62
7
100
AcDbLine
 10
-406.143460
 20
210.079532
 30
0.0
 11
-406.143460
 21
192.579533
 31
0.0
  0
LINE
  5
159
100
AcDbEntity
  8
0
 62
7
100
AcDbLine
 10
-406.143460
 20
192.579533
 30
0.0
 11
-403.143466
 21
192.579533
 31
0.0
  0
LINE
  5
15a
100
AcDbEntity
  8
0
 62
7
100
AcDbLine
 10
-403.143466
 20
192.579533
 30
0.0
 11
-403.143466
 21
175.079534
 31
0.0
  0
LINE
  5
15b
100
AcDbEntity
  8
0
 62
7
100
AcDbLine
 10
-403.143466
 20
175.079534
 30
0.0
 11
-406.143460
 21
175.079534
 31
0.0
  0
LINE
  5
15c
100
AcDbEntity
  8
0
 62
7
100
AcDbLine
 10
-406.143460
 20
175.079534
 30
0.0
 11
-406.143460
 21
157.579533
 31
0.0
  0
LINE
  5
15d
100
AcDbEntity
  8
0
 62
7
100
AcDbLine
 10
-406.143460
 20
157.579533
 30
0.0
 11
-403.143466
 21
157.579533
 31
0.0
  0
LINE
  5
15e
100
AcDbEntity
  8
0
 62
7
100
AcDbLine
 10
-403.143466
 20
157.579533
 30
0.0
 11
-403.143466
 21
140.079534
 31
0.0
  0
LINE
  5
15f
100
AcDbEntity
  8
0
 62
7
100
AcDbLine
 10
-403.143466
 20
140.079534
 30
0.0
 11
-406.143460
 21
140.079534
 31
0.0
  0
LINE
  5
160
100
AcDbEntity
  8
0
 62
7
100
AcDbLine
 10
-406.143460
 20
140.079534
 30
0.0
 11
-406.143460
 21
122.579532
 31
0.0
  0
LINE
  5
161
100
AcDbEntity
  8
0
 62
7
100
AcDbLine
 10
-406.143460
 20
122.579532
 30
0.0
 11
-403.143466
 21
122.579532
 31
0.0
  0
LINE
  5
162
100
AcDbEntity
  8
0
 62
7
100
AcDbLine
 10
-403.143466
 20
122.579532
 30
0.0
 11
-403.143466
 21
105.079533
 31
0.0
  0
LINE
  5
163
100
AcDbEntity
  8
0
 62
7
100
AcDbLine
 10
-403.143466
 20
105.079533
 30
0.0
 11
-406.143460
 21
105.079533
 31
0.0
  0
LINE
  5
164
100
AcDbEntity
  8
0
 62
7
100
AcDbLine
 10
-406.143460
 20
105.079533
 30
0.0
 11
-406.143460
 21
87.579532
 31
0.0
  0
LINE
  5
165
100
AcDbEntity
  8
0
 62
7
100
AcDbLine
 10
-406.143460
 20
87.579532
 30
0.0
 11
-403.143466
 21
87.579532
 31
0.0
  0
LINE
  5
166
100
AcDbEntity
  8
0
 62
7
100
AcDbLine
 10
-403.143466
 20
87.579532
 30
0.0
 11
-403.143466
 21
70.079533
 31
0.0
  0
LINE
  5
167
100
AcDbEntity
  8
0
 62
7
100
AcDbLine
 10
-403.143466
 20
70.079533
 30
0.0
 11
-406.143460
 21
70.079533
 31
0.0
  0
LINE
  5
168
100
AcDbEntity
  8
0
 62
7
100
AcDbLine
 10
-406.143460
 20
70.079533
 30
0.0
 11
-406.143460
 21
52.579534
 31
0.0
  0
LINE
  5
169
100
AcDbEntity
  8
0
 62
7
100
AcDbLine
 10
-406.143460
 20
52.579534
 30
0.0
 11
-403.143466
 21
52.579534
 31
0.0
  0
LINE
  5
16a
100
AcDbEntity
  8
0
 62
7
100
AcDbLine
 10
-403.143466
 20
52.579534
 30
0.0
 11
-403.143466
 21
35.079532
 31
0.0
  0
LINE
  5
16b
100
AcDbEntity
  8
0
 62
7
100
AcDbLine
 10
-403.143466
 20
35.079532
 30
0.0
 11
-406.143460
 21
35.079532
 31
0.0
  0
LINE
  5
16c
100
AcDbEntity
  8
0
 62
7
100
AcDbLine
 10
-406.143460
 20
35.079532
 30
0.0
 11
-406.143460
 21
17.579545
 31
0.0
  0
LINE
  5
16d
100
AcDbEntity
  8
0
 62
7
100
AcDbLine
 10
-406.143460
 20
17.579545
 30
0.0
 11
-403.143466
 21
17.579545
 31
0.0
  0
LINE
  5
16e
100
AcDbEntity
  8
0
 62
7
100
AcDbLine
 10
-403.143466
 20
17.579545
 30
0.0
 11
-403.143466
 21
-3.020482
 31
0.0
  0
LINE
  5
16f
100
AcDbEntity
  8
0
 62
7
100
AcDbLine
 10
-403.143466
 20
-3.020482
 30
0.0
 11
-380.821015
 21
-3.020482
 31
0.0
  0
LINE
  5
170
100
AcDbEntity
  8
0
 62
7
100
AcDbLine
 10
-380.821015
 20
-3.020482
 30
0.0
 11
-332.925110
 21
14.412215
 31
0.0
  0
LINE
  5
171
100
AcDbEntity
  8
0
 62
7
100
AcDbLine
 10
-332.925110
 20
14.412215
 30
0.0
 11
-276.878895
 21
223.579533
 31
0.0
  0
LINE
  5
172
100
AcDbEntity
  8
0
 62
7
100
AcDbLine
 10
-276.878895
 20
223.579533
 30
0.0
 11
-276.878895
 21
227.579534
 31
0.0
  0
LINE
  5
173
100
AcDbEntity
  8
0
 62
7
100
AcDbLine
 10
-276.878895
 20
227.579534
 30
0.0
 11
-298.143450
 21
227.579534
 31
0.0
  0
LINE
  5
174
100
AcDbEntity
  8
0
 62
7
100
AcDbLine
 10
-685.877780
 20
224.579534
 30
0.0
 11
-685.877780
 21
227.579534
 31
0.0
  0
LINE
  5
175
100
AcDbEntity
  8
0
 62
7
100
AcDbLine
 10
-668.377773
 20
224.579534
 30
0.0
 11
-685.877780
 21
224.579534
 31
0.0
  0
LINE
  5
176
100
AcDbEntity
  8
0
 62
7
100
AcDbLine
 10
-668.377773
 20
227.579534
 30
0.0
 11
-668.377773
 21
224.579534
 31
0.0
  0
LINE
  5
177
100
AcDbEntity
  8
0
 62
7
100
AcDbLine
 10
-668.377773
 20
227.579534
 30
0.0
 11
-650.877766
 21
227.579534
 31
0.0
  0
LINE
  5
178
100
AcDbEntity
  8
0
 62
7
100
AcDbLine
 10
-650.877766
 20
224.579534
 30
0.0
 11
-650.877766
 21
227.579534
 31
0.0
  0
LINE
  5
179
100
AcDbEntity
  8
0
 62
7
100
AcDbLine
 10
-633.377758
 20
224.579534
 30
0.0
 11
-650.877766
 21
224.579534
 31
0.0
  0
LINE
  5
17a
100
AcDbEntity
  8
0
 62
7
100
AcDbLine
 10
-633.377758
 20
227.579534
 30
0.0
 11
-633.377758
 21
224.579534
 31
0.0
  0
LINE
  5
17b
100
AcDbEntity
  8
0
 62
7
100
AcDbLine
 10
-633.377758
 20
227.579534
 30
0.0
 11
-615.877779
 21
227.579534
 31
0.0
  0
LINE
  5
17c
100
AcDbEntity
  8
0
 62
7
100
AcDbLine
 10
-615.877779
 20
224.579534
 30
0.0
 11
-615.877779
 21
227.579534
 31
0.0
  0
LINE
  5
17d
100
AcDbEntity
  8
0
 62
7
100
AcDbLine
 10
-598.377772
 20
224.579534
 30
0.0
 11
-615.877779
 21
224.579534
 31
0.0
  0
LINE
  5
17e
100
AcDbEntity
  8
0
 62
7
100
AcDbLine
 10
-598.377772
 20
227.579534
 30
0.0
 11
-598.377772
 21
224.579534
 31
0.0
  0
LINE
  5
17f
100
AcDbEntity
  8
0
 62
7
100
AcDbLine
 10
-598.377772
 20
227.579534
 30
0.0
 11
-580.877765
 21
227.579534
 31
0.0
  0
LINE
  5
180
100
AcDbEntity
  8
0
 62
7
100
AcDbLine
 10
-580.877765
 20
227.579534
 30
0.0
 11
-580.877765
 21
210.079532
 31
0.0
  0
LINE
  5
181
100
AcDbEntity
  8
0
 62
7
100
AcDbLine
 10
-580.877765
 20
210.079532
 30
0.0
 11
-577.877771
 21
210.079532
 31
0.0
  0
LINE
  5
182
100
AcDbEntity
  8
0
 62
7
100
AcDbLine
 10
-577.877771
 20
210.079532
 30
0.0
 11
-577.877771
 21
192.579533
 31
0.0
  0
LINE
  5
183
100
AcDbEntity
  8
0
 62
7
100
AcDbLine
 10
-577.877771
 20
192.579533
 30
0.0
 11
-580.877765
 21
192.579533
 31
0.0
  0
LINE
  5
184
100
AcDbEntity
  8
0
 62
7
100
AcDbLine
 10
-580.877765
 20
192.579533
 30
0.0
 11
-580.877765
 21
175.079534
 31
0.0
  0
LINE
  5
185
100
AcDbEntity
  8
0
 62
7
100
AcDbLine
 10
-580.877765
 20
175.079534
 30
0.0
 11
-577.877771
 21
175.079534
 31
0.0
  0
LINE
  5
186
100
AcDbEntity
  8
0
 62
7
100
AcDbLine
 10
-577.877771
 20
175.079534
 30
0.0
 11
-577.877771
 21
157.579533
 31
0.0
  0
LINE
  5
187
100
AcDbEntity
  8
0
 62
7
100
AcDbLine
 10
-577.877771
 20
157.579533
 30
0.0
 11
-580.877765
 21
157.579533
 31
0.0
  0
LINE
  5
188
100
AcDbEntity
  8
0
 62
7
100
AcDbLine
 10
-580.877765
 20
157.579533
 30
0.0
 11
-580.877765
 21
140.079534
 31
0.0
  0
LINE
  5
189
100
AcDbEntity
  8
0
 62
7
100
AcDbLine
 10
-580.877765
 20
140.079534
 30
0.0
 11
-577.877771
 21
140.079534
 31
0.0
  0
LINE
  5
18a
100
AcDbEntity
  8
0
 62
7
100
AcDbLine
 10
-577.877771
 20
140.079534
 30
0.0
 11
-577.877771
 21
122.579532
 31
0.0
  0
LINE
  5
18b
100
AcDbEntity
  8
0
 62
7
100
AcDbLine
 10
-577.877771
 20
122.579532
 30
0.0
 11
-580.877765
 21
122.579532
 31
0.0
  0
LINE
  5
18c
100
AcDbEntity
  8
0
 62
7
100
AcDbLine
 10
-580.877765
 20
122.579532
 30
0.0
 11
-580.877765
 21
105.079533
 31
0.0
  0
LINE
  5
18d
100
AcDbEntity
  8
0
 62
7
100
AcDbLine
 10
-580.877765
 20
105.079533
 30
0.0
 11
-577.877771
 21
105.079533
 31
0.0
  0
LINE
  5
18e
100
AcDbEntity
  8
0
 62
7
100
AcDbLine
 10
-577.877771
 20
105.079533
 30
0.0
 11
-577.877771
 21
87.579532
 31
0.0
  0
LINE
  5
18f
100
AcDbEntity
  8
0
 62
7
100
AcDbLine
 10
-577.877771
 20
87.579532
 30
0.0
 11
-580.877765
 21
87.579532
 31
0.0
  0
LINE
  5
190
100
AcDbEntity
  8
0
 62
7
100
AcDbLine
 10
-580.877765
 20
87.579532
 30
0.0
 11
-580.877765
 21
70.079533
 31
0.0
  0
LINE
  5
191
100
AcDbEntity
  8
0
 62
7
100
AcDbLine
 10
-580.877765
 20
70.079533
 30
0.0
 11
-577.877771
 21
70.079533
 31
0.0
  0
LINE
  5
192
100
AcDbEntity
  8
0
 62
7
100
AcDbLine
 10
-577.877771
 20
70.079533
 30
0.0
 11
-577.877771
 21
52.579534
 31
0.0
  0
LINE
  5
193
100
AcDbEntity
  8
0
 62
7
100
AcDbLine
 10
-577.877771
 20
52.579534
 30
0.0
 11
-580.877765
 21
52.579534
 31
0.0
  0
LINE
  5
194
100
AcDbEntity
  8
0
 62
7
100
AcDbLine
 10
-580.877765
 20
52.579534
 30
0.0
 11
-580.877765
 21
35.079532
 31
0.0
  0
LINE
  5
195
100
AcDbEntity
  8
0
 62
7
100
AcDbLine
 10
-580.877765
 20
35.079532
 30
0.0
 11
-577.877771
 21
35.079532
 31
0.0
  0
LINE
  5
196
100
AcDbEntity
  8
0
 62
7
100
AcDbLine
 10
-577.877771
 20
35.079532
 30
0.0
 11
-577.877771
 21
17.579545
 31
0.0
  0
LINE
  5
197
100
AcDbEntity
  8
0
 62
7
100
AcDbLine
 10
-577.877771
 20
17.579545
 30
0.0
 11
-580.877765
 21
17.579545
 31
0.0
  0
LINE
  5
198
100
AcDbEntity
  8
0
 62
7
100
AcDbLine
 10
-580.877765
 20
17.579545
 30
0.0
 11
-580.877765
 21
-3.020482
 31
0.0
  0
LINE
  5
199
100
AcDbEntity
  8
0
 62
7
100
AcDbLine
 10
-580.877765
 20
-3.020482
 30
0.0
 11
-603.200216
 21
-3.020482
 31
0.0
  0
LINE
  5
19a
100
AcDbEntity
  8
0
 62
7
100
AcDbLine
 10
-603.200216
 20
-3.020482
 30
0.0
 11
-651.096121
 21
14.412215
 31
0.0
  0
LINE
  5
19b
100
AcDbEntity
  8
0
 62
7
100
AcDbLine
 10
-651.096121
 20
14.412215
 30
0.0
 11
-707.142322
 21
223.579533
 31
0.0
  0
LINE
  5
19c
100
AcDbEntity
  8
0
 62
7
100
AcDbLine
 10
-707.142322
 20
223.579533
 30
0.0
 11
-707.142322
 21
227.579534
 31
0.0
  0
LINE
  5
19d
100
AcDbEntity
  8
0
 62
7
100
AcDbLine
 10
-707.142322
 20
227.579534
 30
0.0
 11
-685.877780
 21
227.579534
 31
0.0
  0
LINE
  5
19e
100
AcDbEntity
  8
0
 62
7
100
AcDbLine
 10
-403.163560
 20
35.079538
 30
0.0
 11
-406.163554
 21
35.079538
 31
0.0
  0
LINE
  5
19f
100
AcDbEntity
  8
0
 62
7
100
AcDbLine
 10
-403.163560
 20
35.079538
 30
0.0
 11
-403.163560
 21
52.579545
 31
0.0
  0
LINE
  5
1a0
100
AcDbEntity
  8
0
 62
7
100
AcDbLine
 10
-406.163554
 20
52.579545
 30
0.0
 11
-403.163560
 21
52.579545
 31
0.0
  0
LINE
  5
1a1
100
AcDbEntity
  8
0
 62
7
100
AcDbLine
 10
-406.163554
 20
70.079524
 30
0.0
 11
-406.163554
 21
52.579545
 31
0.0
  0
LINE
  5
1a2
100
AcDbEntity
  8
0
 62
7
100
AcDbLine
 10
-403.163560
 20
70.079524
 30
0.0
 11
-406.163554
 21
70.079524
 31
0.0
  0
LINE
  5
1a3
100
AcDbEntity
  8
0
 62
7
100
AcDbLine
 10
-403.163560
 20
70.079524
 30
0.0
 11
-403.163560
 21
87.579532
 31
0.0
  0
LINE
  5
1a4
100
AcDbEntity
  8
0
 62
7
100
AcDbLine
 10
-406.163554
 20
87.579532
 30
0.0
 11
-403.163560
 21
87.579532
 31
0.0
  0
LINE
  5
1a5
100
AcDbEntity
  8
0
 62
7
100
AcDbLine
 10
-406.163554
 20
105.079539
 30
0.0
 11
-406.163554
 21
87.579532
 31
0.0
  0
LINE
  5
1a6
100
AcDbEntity
  8
0
 62
7
100
AcDbLine
 10
-403.163560
 20
105.079539
 30
0.0
 11
-406.163554
 21
105.079539
 31
0.0
  0
LINE
  5
1a7
100
AcDbEntity
  8
0
 62
7
100
AcDbLine
 10
-403.163560
 20
105.079539
 30
0.0
 11
-403.163560
 21
122.579546
 31
0.0
  0
LINE
  5
1a8
100
AcDbEntity
  8
0
 62
7
100
AcDbLine
 10
-406.163554
 20
122.579546
 30
0.0
 11
-403.163560
 21
122.579546
 31
0.0
  0
LINE
  5
1a9
100
AcDbEntity
  8
0
 62
7
100
AcDbLine
 10
-406.163554
 20
140.079531
 30
0.0
 11
-406.163554
 21
122.579546
 31
0.0
  0
LINE
  5
1aa
100
AcDbEntity
  8
0
 62
7
100
AcDbLine
 10
-403.163560
 20
140.079531
 30
0.0
 11
-406.163554
 21
140.079531
 31
0.0
  0
LINE
  5
1ab
100
AcDbEntity
  8
0
 62
7
100
AcDbLine
 10
-403.163560
 20
140.079531
 30
0.0
 11
-403.163560
 21
157.579533
 31
0.0
  0
LINE
  5
1ac
100
AcDbEntity
  8
0
 62
7
100
AcDbLine
 10
-406.163554
 20
157.579533
 30
0.0
 11
-403.163560
 21
157.579533
 31
0.0
  0
LINE
  5
1ad
100
AcDbEntity
  8
0
 62
7
100
AcDbLine
 10
-406.163554
 20
175.079532
 30
0.0
 11
-406.163554
 21
157.579533
 31
0.0
  0
LINE
  5
1ae
100
AcDbEntity
  8
0
 62
7
100
AcDbLine
 10
-403.163560
 20
175.079532
 30
0.0
 11
-406.163554
 21
175.079532
 31
0.0
  0
LINE
  5
1af
100
AcDbEntity
  8
0
 62
7
100
AcDbLine
 10
-403.163560
 20
175.079532
 30
0.0
 11
-403.163560
 21
192.579533
 31
0.0
  0
LINE
  5
1b0
100
AcDbEntity
  8
0
 62
7
100
AcDbLine
 10
-406.163554
 20
192.579533
 30
0.0
 11
-403.163560
 21
192.579533
 31
0.0
  0
LINE
  5
1b1
100
AcDbEntity
  8
0
 62
7
100
AcDbLine
 10
-406.163554
 20
210.079535
 30
0.0
 11
-406.163554
 21
192.579533
 31
0.0
  0
LINE
  5
1b2
100
AcDbEntity
  8
0
 62
7
100
AcDbLine
 10
-403.163560
 20
210.079535
 30
0.0
 11
-406.163554
 21
210.079535
 31
0.0
  0
LINE
  5
1b3
100
AcDbEntity
  8
0
 62
7
100
AcDbLine
 10
-403.163560
 20
210.079535
 30
0.0
 11
-403.163560
 21
227.579534
 31
0.0
  0
LINE
  5
1b4
100
AcDbEntity
  8
0
 62
7
100
AcDbLine
 10
-403.163560
 20
227.579534
 30
0.0
 11
-423.663562
 21
227.579534
 31
0.0
  0
LINE
  5
1b5
100
AcDbEntity
  8
0
 62
7
100
AcDbLine
 10
-423.663562
 20
224.579534
 30
0.0
 11
-423.663562
 21
227.579534
 31
0.0
  0
LINE
  5
1b6
100
AcDbEntity
  8
0
 62
7
100
AcDbLine
 10
-441.163541
 20
224.579534
 30
0.0
 11
-423.663562
 21
224.579534
 31
0.0
  0
LINE
  5
1b7
100
AcDbEntity
  8
0
 62
7
100
AcDbLine
 10
-441.163541
 20
227.579534
 30
0.0
 11
-441.163541
 21
224.579534
 31
0.0
  0
LINE
  5
1b8
100
AcDbEntity
  8
0
 62
7
100
AcDbLine
 10
-441.163541
 20
227.579534
 30
0.0
 11
-458.663548
 21
227.579534
 31
0.0
  0
LINE
  5
1b9
100
AcDbEntity
  8
0
 62
7
100
AcDbLine
 10
-458.663548
 20
224.579534
 30
0.0
 11
-458.663548
 21
227.579534
 31
0.0
  0
LINE
  5
1ba
100
AcDbEntity
  8
0
 62
7
100
AcDbLine
 10
-476.163555
 20
224.579534
 30
0.0
 11
-458.663548
 21
224.579534
 31
0.0
  0
LINE
  5
1bb
100
AcDbEntity
  8
0
 62
7
100
AcDbLine
 10
-476.163555
 20
227.579534
 30
0.0
 11
-476.163555
 21
224.579534
 31
0.0
  0
LINE
  5
1bc
100
AcDbEntity
  8
0
 62
7
100
AcDbLine
 10
-476.163555
 20
227.579534
 30
0.0
 11
-507.963537
 21
227.579534
 31
0.0
  0
LINE
  5
1bd
100
AcDbEntity
  8
0
 62
7
100
AcDbLine
 10
-507.963537
 20
224.579534
 30
0.0
 11
-507.963537
 21
227.579534
 31
0.0
  0
LINE
  5
1be
100
AcDbEntity
  8
0
 62
7
100
AcDbLine
 10
-525.463544
 20
224.579534
 30
0.0
 11
-507.963537
 21
224.579534
 31
0.0
  0
LINE
  5
1bf
100
AcDbEntity
  8
0
 62
7
100
AcDbLine
 10
-525.463544
 20
227.579534
 30
0.0
 11
-525.463544
 21
224.579534
 31
0.0
  0
LINE
  5
1c0
100
AcDbEntity
  8
0
 62
7
100
AcDbLine
 10
-525.463544
 20
227.579534
 30
0.0
 11
-542.963552
 21
227.579534
 31
0.0
  0
LINE
  5
1c1
100
AcDbEntity
  8
0
 62
7
100
AcDbLine
 10
-542.963552
 20
224.579534
 30
0.0
 11
-542.963552
 21
227.579534
 31
0.0
  0
LINE
  5
1c2
100
AcDbEntity
  8
0
 62
7
100
AcDbLine
 10
-560.463559
 20
224.579534
 30
0.0
 11
-542.963552
 21
224.579534
 31
0.0
  0
LINE
  5
1c3
100
AcDbEntity
  8
0
 62
7
100
AcDbLine
 10
-560.463559
 20
227.579534
 30
0.0
 11
-560.463559
 21
224.579534
 31
0.0
  0
LINE
  5
1c4
100
AcDbEntity
  8
0
 62
7
100
AcDbLine
 10
-560.463559
 20
227.579534
 30
0.0
 11
-580.963560
 21
227.579534
 31
0.0
  0
LINE
  5
1c5
100
AcDbEntity
  8
0
 62
7
100
AcDbLine
 10
-580.963560
 20
227.579534
 30
0.0
 11
-580.963560
 21
210.079535
 31
0.0
  0
LINE
  5
1c6
100
AcDbEntity
  8
0
 62
7
100
AcDbLine
 10
-577.963538
 20
210.079535
 30
0.0
 11
-580.963560
 21
210.079535
 31
0.0
  0
LINE
  5
1c7
100
AcDbEntity
  8
0
 62
7
100
AcDbLine
 10
-577.963538
 20
192.579533
 30
0.0
 11
-577.963538
 21
210.079535
 31
0.0
  0
LINE
  5
1c8
100
AcDbEntity
  8
0
 62
7
100
AcDbLine
 10
-580.963560
 20
192.579533
 30
0.0
 11
-577.963538
 21
192.579533
 31
0.0
  0
LINE
  5
1c9
100
AcDbEntity
  8
0
 62
7
100
AcDbLine
 10
-580.963560
 20
192.579533
 30
0.0
 11
-580.963560
 21
175.079532
 31
0.0
  0
LINE
  5
1ca
100
AcDbEntity
  8
0
 62
7
100
AcDbLine
 10
-577.963538
 20
175.079532
 30
0.0
 11
-580.963560
 21
175.079532
 31
0.0
  0
LINE
  5
1cb
100
AcDbEntity
  8
0
 62
7
100
AcDbLine
 10
-577.963538
 20
157.579533
 30
0.0
 11
-577.963538
 21
175.079532
 31
0.0
  0
LINE
  5
1cc
100
AcDbEntity
  8
0
 62
7
100
AcDbLine
 10
-580.963560
 20
157.579533
 30
0.0
 11
-577.963538
 21
157.579533
 31
0.0
  0
LINE
  5
1cd
100
AcDbEntity
  8
0
 62
7
100
AcDbLine
 10
-580.963560
 20
157.579533
 30
0.0
 11
-580.963560
 21
140.079531
 31
0.0
  0
LINE
  5
1ce
100
AcDbEntity
  8
0
 62
7
100
AcDbLine
 10
-577.963538
 20
140.079531
 30
0.0
 11
-580.963560
 21
140.079531
 31
0.0
  0
LINE
  5
1cf
100
AcDbEntity
  8
0
 62
7
100
AcDbLine
 10
-577.963538
 20
122.579546
 30
0.0
 11
-577.963538
 21
140.079531
 31
0.0
  0
LINE
  5
1d0
100
AcDbEntity
  8
0
 62
7
100
AcDbLine
 10
-580.963560
 20
122.579546
 30
0.0
 11
-577.963538
 21
122.579546
 31
0.0
  0
LINE
  5
1d1
100
AcDbEntity
  8
0
 62
7
100
AcDbLine
 10
-580.963560
 20
122.579546
 30
0.0
 11
-580.963560
 21
105.079539
 31
0.0
  0
LINE
  5
1d2
100
AcDbEntity
  8
0
 62
7
100
AcDbLine
 10
-577.963538
 20
105.079539
 30
0.0
 11
-580.963560
 21
105.079539
 31
0.0
  0
LINE
  5
1d3
100
AcDbEntity
  8
0
 62
7
100
AcDbLine
 10
-577.963538
 20
87.579532
 30
0.0
 11
-577.963538
 21
105.079539
 31
0.0
  0
LINE
  5
1d4
100
AcDbEntity
  8
0
 62
7
100
AcDbLine
 10
-580.963560
 20
87.579532
 30
0.0
 11
-577.963538
 21
87.579532
 31
0.0
  0
LINE
  5
1d5
100
AcDbEntity
  8
0
 62
7
100
AcDbLine
 10
-580.963560
 20
87.579532
 30
0.0
 11
-580.963560
 21
70.079524
 31
0.0
  0
LINE
  5
1d6
100
AcDbEntity
  8
0
 62
7
100
AcDbLine
 10
-577.963538
 20
70.079524
 30
0.0
 11
-580.963560
 21
70.079524
 31
0.0
  0
LINE
  5
1d7
100
AcDbEntity
  8
0
 62
7
100
AcDbLine
 10
-577.963538
 20
52.579545
 30
0.0
 11
-577.963538
 21
70.079524
 31
0.0
  0
LINE
  5
1d8
100
AcDbEntity
  8
0
 62
7
100
AcDbLine
 10
-580.963560
 20
52.579545
 30
0.0
 11
-577.963538
 21
52.579545
 31
0.0
  0
LINE
  5
1d9
100
AcDbEntity
  8
0
 62
7
100
AcDbLine
 10
-580.963560
 20
52.579545
 30
0.0
 11
-580.963560
 21
35.079538
 31
0.0
  0
LINE
  5
1da
100
AcDbEntity
  8
0
 62
7
100
AcDbLine
 10
-577.963538
 20
35.079538
 30
0.0
 11
-580.963560
 21
35.079538
 31
0.0
  0
LINE
  5
1db
100
AcDbEntity
  8
0
 62
7
100
AcDbLine
 10
-577.963538
 20
17.579522
 30
0.0
 11
-577.963538
 21
35.079538
 31
0.0
  0
LINE
  5
1dc
100
AcDbEntity
  8
0
 62
7
100
AcDbLine
 10
-580.963560
 20
17.579522
 30
0.0
 11
-577.963538
 21
17.579522
 31
0.0
  0
LINE
  5
1dd
100
AcDbEntity
  8
0
 62
7
100
AcDbLine
 10
-580.963560
 20
17.579522
 30
0.0
 11
-580.963560
 21
-3.020482
 31
0.0
  0
LINE
  5
1de
100
AcDbEntity
  8
0
 62
7
100
AcDbLine
 10
-580.963560
 20
-3.020482
 30
0.0
 11
-403.163560
 21
-3.020482
 31
0.0
  0
LINE
  5
1df
100
AcDbEntity
  8
0
 62
7
100
AcDbLine
 10
-403.163560
 20
-3.020482
 30
0.0
 11
-403.163560
 21
17.579522
 31
0.0
  0
LINE
  5
1e0
100
AcDbEntity
  8
0
 62
7
100
AcDbLine
 10
-406.163554
 20
17.579522
 30
0.0
 11
-403.163560
 21
17.579522
 31
0.0
  0
LINE
  5
1e1
100
AcDbEntity
  8
0
 62
7
100
AcDbLine
 10
-406.163554
 20
35.079538
 30
0.0
 11
-406.163554
 21
17.579522
 31
0.0
  0
ENDSEC
  0
SECTION
  2
OBJECTS
  0
DICTIONARY
  5
C
330
0
100
AcDbDictionary
  3
ACAD_GROUP
350
D
  3
ACAD_MLINESTYLE
350
17
  0
DICTIONARY
  5
D
330
C
100
AcDbDictionary
  0
DICTIONARY
  5
1A
330
C
100
AcDbDictionary
  0
DICTIONARY
  5
17
330
C
100
AcDbDictionary
  3
STANDARD
350
18
  0
DICTIONARY
  5
19
330
C
100
AcDbDictionary
  0
ENDSEC
  0
EOF
