<?xml version="1.0" encoding="UTF-8" standalone="no"?>
<svg
   xmlns:dc="http://purl.org/dc/elements/1.1/"
   xmlns:cc="http://creativecommons.org/ns#"
   xmlns:rdf="http://www.w3.org/1999/02/22-rdf-syntax-ns#"
   xmlns:svg="http://www.w3.org/2000/svg"
   xmlns="http://www.w3.org/2000/svg"
   xmlns:sodipodi="http://sodipodi.sourceforge.net/DTD/sodipodi-0.dtd"
   xmlns:inkscape="http://www.inkscape.org/namespaces/inkscape"
   width="744.094488189"
   height="1052.36220472"
   id="svg3536"
   version="1.1"
   inkscape:version="0.91 r13725"
   sodipodi:docname="lid_complete.svg">
  <metadata
     id="metadata3590">
    <rdf:RDF>
      <cc:Work
         rdf:about="">
        <dc:format>image/svg+xml</dc:format>
        <dc:type
           rdf:resource="http://purl.org/dc/dcmitype/StillImage" />
        <dc:title></dc:title>
      </cc:Work>
    </rdf:RDF>
  </metadata>
  <sodipodi:namedview
     pagecolor="#ffffff"
     bordercolor="#666666"
     borderopacity="1"
     objecttolerance="10"
     gridtolerance="10"
     guidetolerance="10"
     inkscape:pageopacity="0"
     inkscape:pageshadow="2"
     inkscape:window-width="1920"
     inkscape:window-height="1017"
     id="namedview3588"
     showgrid="false"
     inkscape:snap-bbox="true"
     inkscape:bbox-nodes="true"
     inkscape:bbox-paths="true"
     inkscape:snap-bbox-midpoints="true"
     inkscape:snap-bbox-edge-midpoints="true"
     inkscape:zoom="0.44851479"
     inkscape:cx="-2136.448"
     inkscape:cy="641.46547"
     inkscape:window-x="-8"
     inkscape:window-y="-8"
     inkscape:window-maximized="1"
     inkscape:current-layer="g3554" />
  <desc
     id="desc3538">C:\Users\Moritz\Documents\GitHub\LittleRiP\DXF\LID\mk3_lid_top.DXF - scale = 1.000000, origin = (0.000000, 0.000000), auto = False</desc>
  <defs
     id="defs3540">
    <marker
       refY="0.0"
       refX="0.0"
       style="overflow:visible"
       id="DistanceX"
       orient="auto">
      <path
         style="stroke:#000000; stroke-width:0.5"
         d="M 3,-3 L -3,3 M 0,-5 L  0,5"
         id="path3543" />
    </marker>
    <pattern
       height="8"
       width="8"
       patternUnits="userSpaceOnUse"
       y="0"
       x="0"
       id="Hatch">
      <path
         linecap="square"
         stroke="#000000"
         stroke-width="0.25"
         d="M8 4 l-4,4"
         id="path3546" />
      <path
         linecap="square"
         stroke="#000000"
         stroke-width="0.25"
         d="M6 2 l-4,4"
         id="path3548" />
      <path
         linecap="square"
         stroke="#000000"
         stroke-width="0.25"
         d="M4 0 l-4,4"
         id="path3550" />
    </pattern>
    <symbol
       id="*MODEL_SPACE" />
    <symbol
       id="*PAPER_SPACE" />
  </defs>
  <g
     inkscape:label="0"
     inkscape:groupmode="layer"
     id="g3554">
    <path
       style="fill:none;stroke:#000000"
       d="m -1832.1149,-81.062437 177.1653,0"
       id="path3556"
       inkscape:connector-curvature="0" />
    <path
       style="fill:none;stroke:#000000"
       d="m -1875.3433,-280.19629 c 0,-8.8625 -4.7253,-17.05254 -12.4001,-21.48431"
       id="path3558"
       inkscape:connector-curvature="0" />
    <path
       style="fill:none;stroke:#000000"
       d="m -1887.7434,-301.6806 c -7.6749,-4.43176 -17.1312,-4.43176 -24.806,0"
       id="path3560"
       inkscape:connector-curvature="0" />
    <path
       style="fill:none;stroke:#000000"
       d="m -1912.5494,-301.6806 c -7.6749,4.43177 -12.402,12.62181 -12.4002,21.48431"
       id="path3562"
       inkscape:connector-curvature="0" />
    <path
       style="fill:none;stroke:#000000"
       d="m -1924.9496,-280.19629 c 0,8.8625 4.7253,17.05254 12.4002,21.48431"
       id="path3564"
       inkscape:connector-curvature="0" />
    <path
       style="fill:none;stroke:#000000"
       d="m -1912.5494,-258.71198 c 7.6748,4.43176 17.1311,4.43176 24.806,0"
       id="path3566"
       inkscape:connector-curvature="0" />
    <path
       style="fill:none;stroke:#000000"
       d="m -1887.7434,-258.71198 c 7.6748,-4.43177 12.4019,-12.62181 12.4001,-21.48431"
       id="path3568"
       inkscape:connector-curvature="0" />
    <path
       style="fill:none;stroke:#000000"
       d="m -1832.1149,-81.062437 -17.7166,-17.716535 0,-204.448818 -35.433,-35.43307 -29.7638,0 -35.4331,35.43307 0,66.40158 -35.4331,35.43306 -62.0078,0 0,75.33071 -10.63,0 0,62.007877 10.63,0 0,62.0078782 -10.63,0 0,62.0078698 10.63,0 0,62.007875 -10.63,0 0,62.00788 10.63,0 0,62.00787 62.0078,0 0,10.62992 62.0079,0 0,-10.62992 62.0079,0 0,10.62992 62.0079,0 0,-10.62992 112.6771,0 0,10.62992 62.0079,0 0,-10.62992 62.0079,0 0,10.62992 62.0078,0 0,-10.62992 62.0079,0 0,-62.00787 10.6299,0 0,-62.00788 -10.6299,0 0,-62.007875 10.6299,0 0,-62.0078698 -10.6299,0 0,-62.0078782 10.6299,0 0,-62.007877 -10.6299,0 0,-75.33071 -62.0079,0 -35.433,-35.43306 0,-66.40158 -35.4331,-35.43307 -29.7638,0 -35.433,35.43307 0,204.448818 -17.7166,17.716535"
       id="path3570"
       inkscape:connector-curvature="0" />
    <path
       style="fill:none;stroke:#000000"
       d="m -1562.1149,-280.19629 c 0,-8.8625 -4.7253,-17.05254 -12.4002,-21.48431"
       id="path3572"
       inkscape:connector-curvature="0" />
    <path
       style="fill:none;stroke:#000000"
       d="m -1574.5151,-301.6806 c -7.6748,-4.43176 -17.1311,-4.43176 -24.806,0"
       id="path3574"
       inkscape:connector-curvature="0" />
    <path
       style="fill:none;stroke:#000000"
       d="m -1599.3211,-301.6806 c -7.6749,4.43177 -12.4019,12.62181 -12.4001,21.48431"
       id="path3576"
       inkscape:connector-curvature="0" />
    <path
       style="fill:none;stroke:#000000"
       d="m -1611.7212,-280.19629 c 0,8.8625 4.7252,17.05254 12.4001,21.48431"
       id="path3578"
       inkscape:connector-curvature="0" />
    <path
       style="fill:none;stroke:#000000"
       d="m -1599.3211,-258.71198 c 7.6749,4.43176 17.1312,4.43176 24.806,0"
       id="path3580"
       inkscape:connector-curvature="0" />
    <path
       style="fill:none;stroke:#000000"
       d="m -1574.5151,-258.71198 c 7.6749,-4.43177 12.4019,-12.62181 12.4002,-21.48431"
       id="path3582"
       inkscape:connector-curvature="0" />
    <path
       style="fill:none;stroke:#000000"
       d="m -1875.3433,-280.19629 0,0"
       id="path3584"
       inkscape:connector-curvature="0" />
    <path
       style="fill:none;stroke:#000000"
       d="m -1562.1149,-280.19629 0,0"
       id="path3586"
       inkscape:connector-curvature="0" />
    <path
       inkscape:connector-curvature="0"
       style="fill:none;stroke:#000000"
       d="m -1056.4138,256.60795 0,-10.62992"
       id="path3612" />
    <path
       inkscape:connector-curvature="0"
       style="fill:none;stroke:#000000"
       d="m -1118.4217,256.60795 62.0079,0"
       id="path3614" />
    <path
       inkscape:connector-curvature="0"
       style="fill:none;stroke:#000000"
       d="m -1118.4217,245.97803 0,10.62992"
       id="path3616" />
    <path
       inkscape:connector-curvature="0"
       style="fill:none;stroke:#000000"
       d="m -1118.4217,245.97803 -62.0079,0"
       id="path3618" />
    <path
       inkscape:connector-curvature="0"
       style="fill:none;stroke:#000000"
       d="m -1180.4296,256.60795 0,-10.62992"
       id="path3620" />
    <path
       inkscape:connector-curvature="0"
       style="fill:none;stroke:#000000"
       d="m -1242.4375,256.60795 62.0079,0"
       id="path3622" />
    <path
       inkscape:connector-curvature="0"
       style="fill:none;stroke:#000000"
       d="m -1242.4375,245.97803 0,10.62992"
       id="path3624" />
    <path
       inkscape:connector-curvature="0"
       style="fill:none;stroke:#000000"
       d="m -1242.4375,245.97803 -62.0078,0"
       id="path3626" />
    <path
       inkscape:connector-curvature="0"
       style="fill:none;stroke:#000000"
       d="m -1304.4453,256.60795 0,-10.62992"
       id="path3628" />
    <path
       inkscape:connector-curvature="0"
       style="fill:none;stroke:#000000"
       d="m -1366.4532,256.60795 62.0079,0"
       id="path3630" />
    <path
       inkscape:connector-curvature="0"
       style="fill:none;stroke:#000000"
       d="m -1366.4532,245.97803 0,10.62992"
       id="path3632" />
    <path
       inkscape:connector-curvature="0"
       style="fill:none;stroke:#000000"
       d="m -1366.4532,245.97803 -62.0079,0 0,62.00788 -10.6299,0 0,62.00787 10.6299,0 0,62.00787 -10.6299,0 0,62.00788 10.6299,0 0,62.00787 -10.6299,0 0,62.00788 10.6299,0 0,62.00787 -10.6299,0 0,62.00788 10.6299,0 0,62.00787 -10.6299,0 0,62.00787 10.6299,0 0,62.00788 -10.6299,0 0,62.00783 10.6299,0 0,72.99222 79.0953,0 169.7099,-61.7694 198.58895,-741.14404 0,-14.17323 -75.34685,0"
       id="path3634" />
    <path
       inkscape:connector-curvature="0"
       style="fill:none;stroke:#000000"
       d="m -2430.2756,256.60795 0,-10.62992"
       id="path3612-9" />
    <path
       inkscape:connector-curvature="0"
       style="fill:none;stroke:#000000"
       d="m -2368.2677,256.60795 -62.0079,0"
       id="path3614-9" />
    <path
       inkscape:connector-curvature="0"
       style="fill:none;stroke:#000000"
       d="m -2368.2677,245.97803 0,10.62992"
       id="path3616-2" />
    <path
       inkscape:connector-curvature="0"
       style="fill:none;stroke:#000000"
       d="m -2368.2677,245.97803 62.0079,0"
       id="path3618-5" />
    <path
       inkscape:connector-curvature="0"
       style="fill:none;stroke:#000000"
       d="m -2306.2598,256.60795 0,-10.62992"
       id="path3620-4" />
    <path
       inkscape:connector-curvature="0"
       style="fill:none;stroke:#000000"
       d="m -2244.2519,256.60795 -62.0079,0"
       id="path3622-9" />
    <path
       inkscape:connector-curvature="0"
       style="fill:none;stroke:#000000"
       d="m -2244.2519,245.97803 0,10.62992"
       id="path3624-4" />
    <path
       inkscape:connector-curvature="0"
       style="fill:none;stroke:#000000"
       d="m -2244.2519,245.97803 62.0078,0"
       id="path3626-9" />
    <path
       inkscape:connector-curvature="0"
       style="fill:none;stroke:#000000"
       d="m -2182.2441,256.60795 0,-10.62992"
       id="path3628-5" />
    <path
       inkscape:connector-curvature="0"
       style="fill:none;stroke:#000000"
       d="m -2120.2362,256.60795 -62.0079,0"
       id="path3630-5" />
    <path
       inkscape:connector-curvature="0"
       style="fill:none;stroke:#000000"
       d="m -2120.2362,245.97803 0,10.62992"
       id="path3632-2" />
    <path
       inkscape:connector-curvature="0"
       style="fill:none;stroke:#000000"
       d="m -2120.2362,245.97803 62.0079,0 0,62.00788 10.6299,0 0,62.00787 -10.6299,0 0,62.00787 10.6299,0 0,62.00788 -10.6299,0 0,62.00787 10.6299,0 0,62.00788 -10.6299,0 0,62.00787 10.6299,0 0,62.00788 -10.6299,0 0,62.00787 10.6299,0 0,62.00787 -10.6299,0 0,62.00788 10.6299,0 0,62.00783 -10.6299,0 0,72.99222 -79.0953,0 -169.7099,-61.7694 -198.5889,-741.14404 0,-14.17323 75.3468,0"
       id="path3634-8" />
    <path
       inkscape:connector-curvature="0"
       style="fill:none;stroke:#000000"
       d="m -1428.5323,928.06463 -10.6299,0"
       id="path3356" />
    <path
       inkscape:connector-curvature="0"
       style="fill:none;stroke:#000000"
       d="m -1428.5323,928.06463 0,-62.0079"
       id="path3358" />
    <path
       inkscape:connector-curvature="0"
       style="fill:none;stroke:#000000"
       d="m -1439.1622,866.05673 10.6299,0"
       id="path3360" />
    <path
       inkscape:connector-curvature="0"
       style="fill:none;stroke:#000000"
       d="m -1439.1622,804.04893 0,62.0078"
       id="path3362" />
    <path
       inkscape:connector-curvature="0"
       style="fill:none;stroke:#000000"
       d="m -1428.5323,804.04893 -10.6299,0"
       id="path3364" />
    <path
       inkscape:connector-curvature="0"
       style="fill:none;stroke:#000000"
       d="m -1428.5323,804.04893 0,-62.0079"
       id="path3366" />
    <path
       inkscape:connector-curvature="0"
       style="fill:none;stroke:#000000"
       d="m -1439.1622,742.04103 10.6299,0"
       id="path3368" />
    <path
       inkscape:connector-curvature="0"
       style="fill:none;stroke:#000000"
       d="m -1439.1622,680.03313 0,62.0079"
       id="path3370" />
    <path
       inkscape:connector-curvature="0"
       style="fill:none;stroke:#000000"
       d="m -1428.5323,680.03313 -10.6299,0"
       id="path3372" />
    <path
       inkscape:connector-curvature="0"
       style="fill:none;stroke:#000000"
       d="m -1428.5323,680.03313 0,-62.0079"
       id="path3374" />
    <path
       inkscape:connector-curvature="0"
       style="fill:none;stroke:#000000"
       d="m -1439.1622,618.02523 10.6299,0"
       id="path3376" />
    <path
       inkscape:connector-curvature="0"
       style="fill:none;stroke:#000000"
       d="m -1439.1622,556.01741 0,62.00782"
       id="path3378" />
    <path
       inkscape:connector-curvature="0"
       style="fill:none;stroke:#000000"
       d="m -1428.5323,556.01741 -10.6299,0"
       id="path3380" />
    <path
       inkscape:connector-curvature="0"
       style="fill:none;stroke:#000000"
       d="m -1428.5323,556.01741 0,-62.00788"
       id="path3382" />
    <path
       inkscape:connector-curvature="0"
       style="fill:none;stroke:#000000"
       d="m -1439.1622,494.00953 10.6299,0"
       id="path3384" />
    <path
       inkscape:connector-curvature="0"
       style="fill:none;stroke:#000000"
       d="m -1439.1622,432.00166 0,62.00787"
       id="path3386" />
    <path
       inkscape:connector-curvature="0"
       style="fill:none;stroke:#000000"
       d="m -1428.5323,432.00166 -10.6299,0"
       id="path3388" />
    <path
       inkscape:connector-curvature="0"
       style="fill:none;stroke:#000000"
       d="m -1428.5323,432.00166 0,-62.00788"
       id="path3390" />
    <path
       inkscape:connector-curvature="0"
       style="fill:none;stroke:#000000"
       d="m -1439.1622,369.99378 10.6299,0"
       id="path3392" />
    <path
       inkscape:connector-curvature="0"
       style="fill:none;stroke:#000000"
       d="m -1439.1622,307.9859 0,62.00788"
       id="path3394" />
    <path
       inkscape:connector-curvature="0"
       style="fill:none;stroke:#000000"
       d="m -1428.5323,307.9859 -10.6299,0"
       id="path3396" />
    <path
       inkscape:connector-curvature="0"
       style="fill:none;stroke:#000000"
       d="m -1428.5323,307.9859 0,-62.00787 -72.6378,0"
       id="path3398" />
    <path
       inkscape:connector-curvature="0"
       style="fill:none;stroke:#000000"
       d="m -1501.1701,256.60795 0,-10.62992"
       id="path3400" />
    <path
       inkscape:connector-curvature="0"
       style="fill:none;stroke:#000000"
       d="m -1563.1779,256.60795 62.0078,0"
       id="path3402" />
    <path
       inkscape:connector-curvature="0"
       style="fill:none;stroke:#000000"
       d="m -1563.1779,245.97803 0,10.62992"
       id="path3404" />
    <path
       inkscape:connector-curvature="0"
       style="fill:none;stroke:#000000"
       d="m -1563.1779,245.97803 -62.0079,0"
       id="path3406" />
    <path
       inkscape:connector-curvature="0"
       style="fill:none;stroke:#000000"
       d="m -1625.1858,256.60795 0,-10.62992"
       id="path3408" />
    <path
       inkscape:connector-curvature="0"
       style="fill:none;stroke:#000000"
       d="m -1687.1937,256.60795 62.0079,0"
       id="path3410" />
    <path
       inkscape:connector-curvature="0"
       style="fill:none;stroke:#000000"
       d="m -1687.1937,245.97803 0,10.62992"
       id="path3412" />
    <path
       inkscape:connector-curvature="0"
       style="fill:none;stroke:#000000"
       d="m -1687.1937,245.97803 -112.6771,0"
       id="path3414" />
    <path
       inkscape:connector-curvature="0"
       style="fill:none;stroke:#000000"
       d="m -1799.8708,256.60795 0,-10.62992"
       id="path3416" />
    <path
       inkscape:connector-curvature="0"
       style="fill:none;stroke:#000000"
       d="m -1861.8787,256.60795 62.0079,0"
       id="path3418" />
    <path
       inkscape:connector-curvature="0"
       style="fill:none;stroke:#000000"
       d="m -1861.8787,245.97803 0,10.62992"
       id="path3420" />
    <path
       inkscape:connector-curvature="0"
       style="fill:none;stroke:#000000"
       d="m -1861.8787,245.97803 -62.0079,0"
       id="path3422" />
    <path
       inkscape:connector-curvature="0"
       style="fill:none;stroke:#000000"
       d="m -1923.8866,256.60795 0,-10.62992"
       id="path3424" />
    <path
       inkscape:connector-curvature="0"
       style="fill:none;stroke:#000000"
       d="m -1985.8945,256.60795 62.0079,0"
       id="path3426" />
    <path
       inkscape:connector-curvature="0"
       style="fill:none;stroke:#000000"
       d="m -1985.8945,245.97803 0,10.62992"
       id="path3428" />
    <path
       inkscape:connector-curvature="0"
       style="fill:none;stroke:#000000"
       d="m -1985.8945,245.97803 -72.6378,0 0,62.00787"
       id="path3430" />
    <path
       inkscape:connector-curvature="0"
       style="fill:none;stroke:#000000"
       d="m -2047.9023,307.9859 -10.63,0"
       id="path3432" />
    <path
       inkscape:connector-curvature="0"
       style="fill:none;stroke:#000000"
       d="m -2047.9023,369.99378 0,-62.00788"
       id="path3434" />
    <path
       inkscape:connector-curvature="0"
       style="fill:none;stroke:#000000"
       d="m -2058.5323,369.99378 10.63,0"
       id="path3436" />
    <path
       inkscape:connector-curvature="0"
       style="fill:none;stroke:#000000"
       d="m -2058.5323,369.99378 0,62.00788"
       id="path3438" />
    <path
       inkscape:connector-curvature="0"
       style="fill:none;stroke:#000000"
       d="m -2047.9023,432.00166 -10.63,0"
       id="path3440" />
    <path
       inkscape:connector-curvature="0"
       style="fill:none;stroke:#000000"
       d="m -2047.9023,494.00953 0,-62.00787"
       id="path3442" />
    <path
       inkscape:connector-curvature="0"
       style="fill:none;stroke:#000000"
       d="m -2058.5323,494.00953 10.63,0"
       id="path3444" />
    <path
       inkscape:connector-curvature="0"
       style="fill:none;stroke:#000000"
       d="m -2058.5323,494.00953 0,62.00788"
       id="path3446" />
    <path
       inkscape:connector-curvature="0"
       style="fill:none;stroke:#000000"
       d="m -2047.9023,556.01741 -10.63,0"
       id="path3448" />
    <path
       inkscape:connector-curvature="0"
       style="fill:none;stroke:#000000"
       d="m -2047.9023,618.02523 0,-62.00782"
       id="path3450" />
    <path
       inkscape:connector-curvature="0"
       style="fill:none;stroke:#000000"
       d="m -2058.5323,618.02523 10.63,0"
       id="path3452" />
    <path
       inkscape:connector-curvature="0"
       style="fill:none;stroke:#000000"
       d="m -2058.5323,618.02523 0,62.0079"
       id="path3454" />
    <path
       inkscape:connector-curvature="0"
       style="fill:none;stroke:#000000"
       d="m -2047.9023,680.03313 -10.63,0"
       id="path3456" />
    <path
       inkscape:connector-curvature="0"
       style="fill:none;stroke:#000000"
       d="m -2047.9023,742.04103 0,-62.0079"
       id="path3458" />
    <path
       inkscape:connector-curvature="0"
       style="fill:none;stroke:#000000"
       d="m -2058.5323,742.04103 10.63,0"
       id="path3460" />
    <path
       inkscape:connector-curvature="0"
       style="fill:none;stroke:#000000"
       d="m -2058.5323,742.04103 0,62.0079"
       id="path3462" />
    <path
       inkscape:connector-curvature="0"
       style="fill:none;stroke:#000000"
       d="m -2047.9023,804.04893 -10.63,0"
       id="path3464" />
    <path
       inkscape:connector-curvature="0"
       style="fill:none;stroke:#000000"
       d="m -2047.9023,866.05673 0,-62.0078"
       id="path3466" />
    <path
       inkscape:connector-curvature="0"
       style="fill:none;stroke:#000000"
       d="m -2058.5323,866.05673 10.63,0"
       id="path3468" />
    <path
       inkscape:connector-curvature="0"
       style="fill:none;stroke:#000000"
       d="m -2058.5323,866.05673 0,62.0079"
       id="path3470" />
    <path
       inkscape:connector-curvature="0"
       style="fill:none;stroke:#000000"
       d="m -2047.9023,928.06463 -10.63,0"
       id="path3472" />
    <path
       inkscape:connector-curvature="0"
       style="fill:none;stroke:#000000"
       d="m -2047.9023,990.07256 0,-62.00793"
       id="path3474" />
    <path
       inkscape:connector-curvature="0"
       style="fill:none;stroke:#000000"
       d="m -2058.5323,990.07256 10.63,0"
       id="path3476" />
    <path
       inkscape:connector-curvature="0"
       style="fill:none;stroke:#000000"
       d="m -2058.5323,990.07256 0,72.99214 630,0 0,-72.99214"
       id="path3478" />
    <path
       inkscape:connector-curvature="0"
       style="fill:none;stroke:#000000"
       d="m -1439.1622,990.07256 10.6299,0"
       id="path3480" />
    <path
       inkscape:connector-curvature="0"
       style="fill:none;stroke:#000000"
       d="m -1439.1622,928.06463 0,62.00793"
       id="path3482" />
  </g>
</svg>
