999
Inkscape export via OpenSCAD DXF Export
  0
SECTION
  2
HEADER
  9
$ACADVER
  1
AC1014
  9
$HANDSEED
  5
FFFF
  9
$MEASUREMENT
 70
     1
  0
ENDSEC
  0
SECTION
  2
TABLES
  0
TABLE
  2
VPORT
  5
8
330
0
100
AcDbSymbolTable
 70
     4
  0
VPORT
  5
2E
330
8
100
AcDbSymbolTableRecord
100
AcDbViewportTableRecord
  2
*ACTIVE
 70
     0
 10
0.0
 20
0.0
 11
1.0
 21
1.0
 12
210.0
 22
148.5
 13
0.0
 23
0.0
 14
10.0
 24
10.0
 15
10.0
 25
10.0
 16
0.0
 26
0.0
 36
1.0
 17
0.0
 27
0.0
 37
0.0
 40
341.0
 41
1.24
 42
50.0
 43
0.0
 44
0.0
 50
0.0
 51
0.0
 71
     0
 72
   100
 73
     1
 74
     3
 75
     0
 76
     0
 77
     0
 78
     0
  0
ENDTAB
  0
TABLE
  2
LTYPE
  5
5
330
0
100
AcDbSymbolTable
 70
     1
  0
LTYPE
  5
14
330
5
100
AcDbSymbolTableRecord
100
AcDbLinetypeTableRecord
  2
BYBLOCK
 70
     0
  3

 72
    65
 73
     0
 40
0.0
  0
LTYPE
  5
15
330
5
100
AcDbSymbolTableRecord
100
AcDbLinetypeTableRecord
  2
BYLAYER
 70
     0
  3

 72
    65
 73
     0
 40
0.0
  0
LTYPE
  5
16
330
5
100
AcDbSymbolTableRecord
100
AcDbLinetypeTableRecord
  2
CONTINUOUS
 70
     0
  3
Solid line
 72
    65
 73
     0
 40
0.0
  0
ENDTAB
  0
TABLE
0
TABLE
2
LAYER
5
2
330
0
100
AcDbSymbolTable
70
2
0
LAYER
5
10
330
2
100
AcDbSymbolTableRecord
100
AcDbLayerTableRecord
2
Layer_1
70
0
62
7
6
CONTINUOUS
0
LAYER
5
10
330
2
100
AcDbSymbolTableRecord
100
AcDbLayerTableRecord
2
0
70
0
62
7
6
CONTINUOUS
0
ENDTAB
0
ENDSEC
  0
ENDTAB
  0
TABLE
  2
STYLE
  5
3
330
0
100
AcDbSymbolTable
 70
     1
  0
STYLE
  5
11
330
3
100
AcDbSymbolTableRecord
100
AcDbTextStyleTableRecord
  2
STANDARD
 70
     0
 40
0.0
 41
1.0
 50
0.0
 71
     0
 42
2.5
  3
txt
  4

  0
ENDTAB
  0
TABLE
  2
VIEW
  5
6
330
0
100
AcDbSymbolTable
 70
     0
  0
ENDTAB
  0
TABLE
  2
UCS
  5
7
330
0
100
AcDbSymbolTable
 70
     0
  0
ENDTAB
  0
TABLE
  2
APPID
  5
9
330
0
100
AcDbSymbolTable
 70
     2
  0
APPID
  5
12
330
9
100
AcDbSymbolTableRecord
100
AcDbRegAppTableRecord
  2
ACAD
 70
     0
  0
ENDTAB
  0
TABLE
  2
DIMSTYLE
  5
A
330
0
100
AcDbSymbolTable
 70
     1
  0
DIMSTYLE
105
27
330
A
100
AcDbSymbolTableRecord
100
AcDbDimStyleTableRecord
  2
ISO-25
 70
     0
  3

  4

  5

  6

  7

 40
1.0
 41
2.5
 42
0.625
 43
3.75
 44
1.25
 45
0.0
 46
0.0
 47
0.0
 48
0.0
140
2.5
141
2.5
142
0.0
143
0.03937007874016
144
1.0
145
0.0
146
1.0
147
0.625
 71
     0
 72
     0
 73
     0
 74
     0
 75
     0
 76
     0
 77
     1
 78
     8
170
     0
171
     3
172
     1
173
     0
174
     0
175
     0
176
     0
177
     0
178
     0
270
     2
271
     2
272
     2
273
     2
274
     3
340
11
275
     0
280
     0
281
     0
282
     0
283
     0
284
     8
285
     0
286
     0
287
     3
288
     0
  0
ENDTAB
  0
TABLE
  2
BLOCK_RECORD
  5
1
330
0
100
AcDbSymbolTable
 70
     1
  0
BLOCK_RECORD
  5
1F
330
1
100
AcDbSymbolTableRecord
100
AcDbBlockTableRecord
  2
*MODEL_SPACE
  0
BLOCK_RECORD
  5
1B
330
1
100
AcDbSymbolTableRecord
100
AcDbBlockTableRecord
  2
*PAPER_SPACE
  0
ENDTAB
  0
ENDSEC
  0
SECTION
  2
BLOCKS
  0
BLOCK
  5
20
330
1F
100
AcDbEntity
  8
0
100
AcDbBlockBegin
  2
*MODEL_SPACE
 70
     0
 10
0.0
 20
0.0
 30
0.0
  3
*MODEL_SPACE
  1

  0
ENDBLK
  5
21
330
1F
100
AcDbEntity
  8
0
100
AcDbBlockEnd
  0
BLOCK
  5
1C
330
1B
100
AcDbEntity
 67
     1
  8
0
100
AcDbBlockBegin
  2
*PAPER_SPACE
  1

  0
ENDBLK
  5
1D
330
1B
100
AcDbEntity
 67
     1
  8
0
100
AcDbBlockEnd
  0
ENDSEC
  0
SECTION
  2
ENTITIES
0
DIMENSION
5
83
100
AcDbEntity
62
256
370
-1
6
ByLayer
1
total_width
3
Standard
70
0
71
5
72
1
41
1.0
100
AcDbAlignedDimension
13
-0.846667
23
0.000000
33
0.0
14
177.941111
24
0.000000
34
0.0
50
0.000000
100
AcDbRotatedDimension
0
DIMENSION
5
83
100
AcDbEntity
62
256
370
-1
6
ByLayer
1
total_minx
3
Standard
70
0
71
5
72
1
41
1.0
100
AcDbAlignedDimension
13
-0.846667
23
0.000000
33
0.0
14
0.000000
24
0.000000
34
0.0
50
0.000000
100
AcDbRotatedDimension
0
DIMENSION
5
83
100
AcDbEntity
62
256
370
-1
6
ByLayer
1
total_maxx
3
Standard
70
0
71
5
72
1
41
1.0
100
AcDbAlignedDimension
13
0.000000
23
0.000000
33
0.0
14
177.941111
24
0.000000
34
0.0
50
0.000000
100
AcDbRotatedDimension
0
DIMENSION
5
83
100
AcDbEntity
62
256
370
-1
6
ByLayer
1
total_height
3
Standard
70
0
71
5
72
1
41
1.0
100
AcDbAlignedDimension
13
0.000000
23
0.141112
33
0.0
14
0.000000
24
298.411111
34
0.0
50
90.000000
100
AcDbRotatedDimension
0
DIMENSION
5
83
100
AcDbEntity
62
256
370
-1
6
ByLayer
1
total_miny
3
Standard
70
0
71
5
72
1
41
1.0
100
AcDbAlignedDimension
13
0.141112
23
0.000000
33
0.0
14
0.000000
24
0.000000
34
0.0
50
0.000000
100
AcDbRotatedDimension
0
DIMENSION
5
83
100
AcDbEntity
62
256
370
-1
6
ByLayer
1
total_maxy
3
Standard
70
0
71
5
72
1
41
1.0
100
AcDbAlignedDimension
13
0.000000
23
0.000000
33
0.0
14
298.411111
24
0.000000
34
0.0
50
0.000000
100
AcDbRotatedDimension
0
DIMENSION
8
Layer_1
5
83
100
AcDbEntity
62
256
370
-1
6
ByLayer
1
Layer_1_width
3
Standard
70
0
71
5
72
1
41
1.0
100
AcDbAlignedDimension
13
-0.846667
23
0.000000
33
0.0
14
2.257778
24
0.000000
34
0.0
50
0.000000
100
AcDbRotatedDimension
0
DIMENSION
8
Layer_1
5
83
100
AcDbEntity
62
256
370
-1
6
ByLayer
1
Layer_1_minx
3
Standard
70
0
71
5
72
1
41
1.0
100
AcDbAlignedDimension
13
-0.846667
23
0.000000
33
0.0
14
0.000000
24
0.000000
34
0.0
50
0.000000
100
AcDbRotatedDimension
0
DIMENSION
8
Layer_1
5
83
100
AcDbEntity
62
256
370
-1
6
ByLayer
1
Layer_1_maxx
3
Standard
70
0
71
5
72
1
41
1.0
100
AcDbAlignedDimension
13
0.000000
23
0.000000
33
0.0
14
2.257778
24
0.000000
34
0.0
50
0.000000
100
AcDbRotatedDimension
0
DIMENSION
8
Layer_1
5
83
100
AcDbEntity
62
256
370
-1
6
ByLayer
1
Layer_1_height
3
Standard
70
0
71
5
72
1
41
1.0
100
AcDbAlignedDimension
13
0.000000
23
294.742222
33
0.0
14
0.000000
24
298.411111
34
0.0
50
90.000000
100
AcDbRotatedDimension
0
DIMENSION
8
Layer_1
5
83
100
AcDbEntity
62
256
370
-1
6
ByLayer
1
Layer_1_miny
3
Standard
70
0
71
5
72
1
41
1.0
100
AcDbAlignedDimension
13
294.742222
23
0.000000
33
0.0
14
0.000000
24
0.000000
34
0.0
50
0.000000
100
AcDbRotatedDimension
0
DIMENSION
8
Layer_1
5
83
100
AcDbEntity
62
256
370
-1
6
ByLayer
1
Layer_1_maxy
3
Standard
70
0
71
5
72
1
41
1.0
100
AcDbAlignedDimension
13
0.000000
23
0.000000
33
0.0
14
298.411111
24
0.000000
34
0.0
50
0.000000
100
AcDbRotatedDimension
0
DIMENSION
8
0
5
83
100
AcDbEntity
62
256
370
-1
6
ByLayer
1
0_width
3
Standard
70
0
71
5
72
1
41
1.0
100
AcDbAlignedDimension
13
0.141111
23
0.000000
33
0.0
14
177.941111
24
0.000000
34
0.0
50
0.000000
100
AcDbRotatedDimension
0
DIMENSION
8
0
5
83
100
AcDbEntity
62
256
370
-1
6
ByLayer
1
0_minx
3
Standard
70
0
71
5
72
1
41
1.0
100
AcDbAlignedDimension
13
0.141111
23
0.000000
33
0.0
14
0.000000
24
0.000000
34
0.0
50
0.000000
100
AcDbRotatedDimension
0
DIMENSION
8
0
5
83
100
AcDbEntity
62
256
370
-1
6
ByLayer
1
0_maxx
3
Standard
70
0
71
5
72
1
41
1.0
100
AcDbAlignedDimension
13
0.000000
23
0.000000
33
0.0
14
177.941111
24
0.000000
34
0.0
50
0.000000
100
AcDbRotatedDimension
0
DIMENSION
8
0
5
83
100
AcDbEntity
62
256
370
-1
6
ByLayer
1
0_height
3
Standard
70
0
71
5
72
1
41
1.0
100
AcDbAlignedDimension
13
0.000000
23
0.141112
33
0.0
14
0.000000
24
230.741114
34
0.0
50
90.000000
100
AcDbRotatedDimension
0
DIMENSION
8
0
5
83
100
AcDbEntity
62
256
370
-1
6
ByLayer
1
0_miny
3
Standard
70
0
71
5
72
1
41
1.0
100
AcDbAlignedDimension
13
0.141112
23
0.000000
33
0.0
14
0.000000
24
0.000000
34
0.0
50
0.000000
100
AcDbRotatedDimension
0
DIMENSION
8
0
5
83
100
AcDbEntity
62
256
370
-1
6
ByLayer
1
0_maxy
3
Standard
70
0
71
5
72
1
41
1.0
100
AcDbAlignedDimension
13
0.000000
23
0.000000
33
0.0
14
230.741114
24
0.000000
34
0.0
50
0.000000
100
AcDbRotatedDimension
62
0
0
LWPOLYLINE
100
AcDbPolyline
8
Layer_1
90
2
70
0
10
0.846667
20
297.846667
30
0.0
10
-0.846667
20
296.153333
30
0.0
62
0
0
LWPOLYLINE
100
AcDbPolyline
8
Layer_1
90
2
70
0
10
0.000000
20
298.411111
30
0.0
10
0.000000
20
295.588889
30
0.0
62
0
0
LWPOLYLINE
100
AcDbPolyline
8
Layer_1
90
2
70
0
10
2.257778
20
295.871111
30
0.0
10
1.128889
20
294.742222
30
0.0
62
0
0
LWPOLYLINE
100
AcDbPolyline
8
Layer_1
90
2
70
0
10
1.693333
20
296.435556
30
0.0
10
0.564444
20
295.306667
30
0.0
62
0
0
LWPOLYLINE
100
AcDbPolyline
8
Layer_1
90
2
70
0
10
1.128889
20
297.000000
30
0.0
10
0.000000
20
295.871111
30
0.0
62
0
0
LWPOLYLINE
100
AcDbPolyline
8
0
90
2
70
0
10
177.941111
20
38.241118
30
0.0
10
174.941111
20
38.241118
30
0.0
62
0
0
LWPOLYLINE
100
AcDbPolyline
8
0
90
2
70
0
10
177.941111
20
38.241118
30
0.0
10
177.941111
20
55.741125
30
0.0
62
0
0
LWPOLYLINE
100
AcDbPolyline
8
0
90
2
70
0
10
174.941111
20
55.741125
30
0.0
10
177.941111
20
55.741125
30
0.0
62
0
0
LWPOLYLINE
100
AcDbPolyline
8
0
90
2
70
0
10
174.941111
20
73.241105
30
0.0
10
174.941111
20
55.741125
30
0.0
62
0
0
LWPOLYLINE
100
AcDbPolyline
8
0
90
2
70
0
10
177.941111
20
73.241105
30
0.0
10
174.941111
20
73.241105
30
0.0
62
0
0
LWPOLYLINE
100
AcDbPolyline
8
0
90
2
70
0
10
177.941111
20
73.241105
30
0.0
10
177.941111
20
90.741112
30
0.0
62
0
0
LWPOLYLINE
100
AcDbPolyline
8
0
90
2
70
0
10
174.941111
20
90.741112
30
0.0
10
177.941111
20
90.741112
30
0.0
62
0
0
LWPOLYLINE
100
AcDbPolyline
8
0
90
2
70
0
10
174.941111
20
108.241119
30
0.0
10
174.941111
20
90.741112
30
0.0
62
0
0
LWPOLYLINE
100
AcDbPolyline
8
0
90
2
70
0
10
177.941111
20
108.241119
30
0.0
10
174.941111
20
108.241119
30
0.0
62
0
0
LWPOLYLINE
100
AcDbPolyline
8
0
90
2
70
0
10
177.941111
20
108.241119
30
0.0
10
177.941111
20
125.741127
30
0.0
62
0
0
LWPOLYLINE
100
AcDbPolyline
8
0
90
2
70
0
10
174.941111
20
125.741127
30
0.0
10
177.941111
20
125.741127
30
0.0
62
0
0
LWPOLYLINE
100
AcDbPolyline
8
0
90
2
70
0
10
174.941111
20
143.241114
30
0.0
10
174.941111
20
125.741127
30
0.0
62
0
0
LWPOLYLINE
100
AcDbPolyline
8
0
90
2
70
0
10
177.941111
20
143.241114
30
0.0
10
174.941111
20
143.241114
30
0.0
62
0
0
LWPOLYLINE
100
AcDbPolyline
8
0
90
2
70
0
10
177.941111
20
143.241114
30
0.0
10
177.941111
20
160.741116
30
0.0
62
0
0
LWPOLYLINE
100
AcDbPolyline
8
0
90
2
70
0
10
174.941111
20
160.741116
30
0.0
10
177.941111
20
160.741116
30
0.0
62
0
0
LWPOLYLINE
100
AcDbPolyline
8
0
90
2
70
0
10
174.941111
20
178.241115
30
0.0
10
174.941111
20
160.741116
30
0.0
62
0
0
LWPOLYLINE
100
AcDbPolyline
8
0
90
2
70
0
10
177.941111
20
178.241115
30
0.0
10
174.941111
20
178.241115
30
0.0
62
0
0
LWPOLYLINE
100
AcDbPolyline
8
0
90
2
70
0
10
177.941111
20
178.241115
30
0.0
10
177.941111
20
195.741114
30
0.0
62
0
0
LWPOLYLINE
100
AcDbPolyline
8
0
90
2
70
0
10
174.941111
20
195.741114
30
0.0
10
177.941111
20
195.741114
30
0.0
62
0
0
LWPOLYLINE
100
AcDbPolyline
8
0
90
2
70
0
10
174.941111
20
213.241115
30
0.0
10
174.941111
20
195.741114
30
0.0
62
0
0
LWPOLYLINE
100
AcDbPolyline
8
0
90
2
70
0
10
177.941111
20
213.241115
30
0.0
10
174.941111
20
213.241115
30
0.0
62
0
0
LWPOLYLINE
100
AcDbPolyline
8
0
90
3
70
0
10
177.941111
20
213.241115
30
0.0
10
177.941111
20
230.741114
30
0.0
10
157.441113
20
230.741114
30
0.0
62
0
0
LWPOLYLINE
100
AcDbPolyline
8
0
90
2
70
0
10
157.441113
20
227.741114
30
0.0
10
157.441113
20
230.741114
30
0.0
62
0
0
LWPOLYLINE
100
AcDbPolyline
8
0
90
2
70
0
10
139.941111
20
227.741114
30
0.0
10
157.441113
20
227.741114
30
0.0
62
0
0
LWPOLYLINE
100
AcDbPolyline
8
0
90
2
70
0
10
139.941111
20
230.741114
30
0.0
10
139.941111
20
227.741114
30
0.0
62
0
0
LWPOLYLINE
100
AcDbPolyline
8
0
90
2
70
0
10
139.941111
20
230.741114
30
0.0
10
122.441112
20
230.741114
30
0.0
62
0
0
LWPOLYLINE
100
AcDbPolyline
8
0
90
2
70
0
10
122.441112
20
227.741114
30
0.0
10
122.441112
20
230.741114
30
0.0
62
0
0
LWPOLYLINE
100
AcDbPolyline
8
0
90
2
70
0
10
104.941110
20
227.741114
30
0.0
10
122.441112
20
227.741114
30
0.0
62
0
0
LWPOLYLINE
100
AcDbPolyline
8
0
90
2
70
0
10
104.941110
20
230.741114
30
0.0
10
104.941110
20
227.741114
30
0.0
62
0
0
LWPOLYLINE
100
AcDbPolyline
8
0
90
2
70
0
10
104.941110
20
230.741114
30
0.0
10
73.141112
20
230.741114
30
0.0
62
0
0
LWPOLYLINE
100
AcDbPolyline
8
0
90
2
70
0
10
73.141112
20
227.741114
30
0.0
10
73.141112
20
230.741114
30
0.0
62
0
0
LWPOLYLINE
100
AcDbPolyline
8
0
90
2
70
0
10
55.641110
20
227.741114
30
0.0
10
73.141112
20
227.741114
30
0.0
62
0
0
LWPOLYLINE
100
AcDbPolyline
8
0
90
2
70
0
10
55.641110
20
230.741114
30
0.0
10
55.641110
20
227.741114
30
0.0
62
0
0
LWPOLYLINE
100
AcDbPolyline
8
0
90
2
70
0
10
55.641110
20
230.741114
30
0.0
10
38.141111
20
230.741114
30
0.0
62
0
0
LWPOLYLINE
100
AcDbPolyline
8
0
90
2
70
0
10
38.141111
20
227.741114
30
0.0
10
38.141111
20
230.741114
30
0.0
62
0
0
LWPOLYLINE
100
AcDbPolyline
8
0
90
2
70
0
10
20.641111
20
227.741114
30
0.0
10
38.141111
20
227.741114
30
0.0
62
0
0
LWPOLYLINE
100
AcDbPolyline
8
0
90
2
70
0
10
20.641111
20
230.741114
30
0.0
10
20.641111
20
227.741114
30
0.0
62
0
0
LWPOLYLINE
100
AcDbPolyline
8
0
90
3
70
0
10
20.641111
20
230.741114
30
0.0
10
0.141111
20
230.741114
30
0.0
10
0.141111
20
213.241115
30
0.0
62
0
0
LWPOLYLINE
100
AcDbPolyline
8
0
90
2
70
0
10
3.141111
20
213.241115
30
0.0
10
0.141111
20
213.241115
30
0.0
62
0
0
LWPOLYLINE
100
AcDbPolyline
8
0
90
2
70
0
10
3.141111
20
195.741114
30
0.0
10
3.141111
20
213.241115
30
0.0
62
0
0
LWPOLYLINE
100
AcDbPolyline
8
0
90
2
70
0
10
0.141111
20
195.741114
30
0.0
10
3.141111
20
195.741114
30
0.0
62
0
0
LWPOLYLINE
100
AcDbPolyline
8
0
90
2
70
0
10
0.141111
20
195.741114
30
0.0
10
0.141111
20
178.241115
30
0.0
62
0
0
LWPOLYLINE
100
AcDbPolyline
8
0
90
2
70
0
10
3.141111
20
178.241115
30
0.0
10
0.141111
20
178.241115
30
0.0
62
0
0
LWPOLYLINE
100
AcDbPolyline
8
0
90
2
70
0
10
3.141111
20
160.741116
30
0.0
10
3.141111
20
178.241115
30
0.0
62
0
0
LWPOLYLINE
100
AcDbPolyline
8
0
90
2
70
0
10
0.141111
20
160.741116
30
0.0
10
3.141111
20
160.741116
30
0.0
62
0
0
LWPOLYLINE
100
AcDbPolyline
8
0
90
2
70
0
10
0.141111
20
160.741116
30
0.0
10
0.141111
20
143.241114
30
0.0
62
0
0
LWPOLYLINE
100
AcDbPolyline
8
0
90
2
70
0
10
3.141111
20
143.241114
30
0.0
10
0.141111
20
143.241114
30
0.0
62
0
0
LWPOLYLINE
100
AcDbPolyline
8
0
90
2
70
0
10
3.141111
20
125.741127
30
0.0
10
3.141111
20
143.241114
30
0.0
62
0
0
LWPOLYLINE
100
AcDbPolyline
8
0
90
2
70
0
10
0.141111
20
125.741127
30
0.0
10
3.141111
20
125.741127
30
0.0
62
0
0
LWPOLYLINE
100
AcDbPolyline
8
0
90
2
70
0
10
0.141111
20
125.741127
30
0.0
10
0.141111
20
108.241119
30
0.0
62
0
0
LWPOLYLINE
100
AcDbPolyline
8
0
90
2
70
0
10
3.141111
20
108.241119
30
0.0
10
0.141111
20
108.241119
30
0.0
62
0
0
LWPOLYLINE
100
AcDbPolyline
8
0
90
2
70
0
10
3.141111
20
90.741112
30
0.0
10
3.141111
20
108.241119
30
0.0
62
0
0
LWPOLYLINE
100
AcDbPolyline
8
0
90
2
70
0
10
0.141111
20
90.741112
30
0.0
10
3.141111
20
90.741112
30
0.0
62
0
0
LWPOLYLINE
100
AcDbPolyline
8
0
90
2
70
0
10
0.141111
20
90.741112
30
0.0
10
0.141111
20
73.241105
30
0.0
62
0
0
LWPOLYLINE
100
AcDbPolyline
8
0
90
2
70
0
10
3.141111
20
73.241105
30
0.0
10
0.141111
20
73.241105
30
0.0
62
0
0
LWPOLYLINE
100
AcDbPolyline
8
0
90
2
70
0
10
3.141111
20
55.741125
30
0.0
10
3.141111
20
73.241105
30
0.0
62
0
0
LWPOLYLINE
100
AcDbPolyline
8
0
90
2
70
0
10
0.141111
20
55.741125
30
0.0
10
3.141111
20
55.741125
30
0.0
62
0
0
LWPOLYLINE
100
AcDbPolyline
8
0
90
2
70
0
10
0.141111
20
55.741125
30
0.0
10
0.141111
20
38.241118
30
0.0
62
0
0
LWPOLYLINE
100
AcDbPolyline
8
0
90
2
70
0
10
3.141111
20
38.241118
30
0.0
10
0.141111
20
38.241118
30
0.0
62
0
0
LWPOLYLINE
100
AcDbPolyline
8
0
90
2
70
0
10
3.141111
20
20.741111
30
0.0
10
3.141111
20
38.241118
30
0.0
62
0
0
LWPOLYLINE
100
AcDbPolyline
8
0
90
2
70
0
10
0.141111
20
20.741111
30
0.0
10
3.141111
20
20.741111
30
0.0
62
0
0
LWPOLYLINE
100
AcDbPolyline
8
0
90
4
70
0
10
0.141111
20
20.741111
30
0.0
10
0.141111
20
0.141112
30
0.0
10
177.941111
20
0.141112
30
0.0
10
177.941111
20
20.741111
30
0.0
62
0
0
LWPOLYLINE
100
AcDbPolyline
8
0
90
2
70
0
10
174.941111
20
20.741111
30
0.0
10
177.941111
20
20.741111
30
0.0
62
0
0
LWPOLYLINE
100
AcDbPolyline
8
0
90
2
70
0
10
174.941111
20
38.241118
30
0.0
10
174.941111
20
20.741111
30
0.0
62
0
0
LWPOLYLINE
100
AcDbPolyline
8
0
90
107
70
0
10
37.528940
20
151.678156
30
0.0
10
30.558272
20
151.640121
30
0.0
10
28.121350
20
151.587204
30
0.0
10
26.915842
20
151.508382
30
0.0
10
25.913329
20
151.182781
30
0.0
10
25.127949
20
150.662360
30
0.0
10
24.539367
20
149.928571
30
0.0
10
24.127244
20
148.962868
30
0.0
10
23.996026
20
147.455640
30
0.0
10
23.931011
20
141.251368
30
0.0
10
23.900143
20
97.746703
30
0.0
10
23.931011
20
54.291093
30
0.0
10
23.995041
20
48.062855
30
0.0
10
24.125590
20
46.545967
30
0.0
10
24.527145
20
45.605453
30
0.0
10
25.089073
20
44.882677
30
0.0
10
25.824379
20
44.362058
30
0.0
10
26.746068
20
44.028017
30
0.0
10
26.746068
20
44.014245
30
0.0
10
26.857413
20
43.990538
30
0.0
10
27.145699
20
43.967396
30
0.0
10
27.767470
20
43.949221
30
0.0
10
30.181242
20
43.918354
30
0.0
10
40.487312
20
43.877564
30
0.0
10
89.283647
20
43.862691
30
0.0
10
151.036844
20
43.883632
30
0.0
10
151.734131
20
44.165854
30
0.0
10
152.604664
20
44.664864
30
0.0
10
153.262086
20
45.378624
30
0.0
10
153.720664
20
46.324948
30
0.0
10
153.994666
20
47.521652
30
0.0
10
153.994666
20
47.522216
30
0.0
10
154.029393
20
48.237692
30
0.0
10
154.056402
20
49.859919
30
0.0
10
154.092783
20
56.161414
30
0.0
10
154.096649
20
83.073397
30
0.0
10
154.060821
20
117.662154
30
0.0
10
153.759857
20
118.409052
30
0.0
10
153.375253
20
119.161790
30
0.0
10
152.889178
20
119.786472
30
0.0
10
152.319749
20
120.274349
30
0.0
10
151.685083
20
120.616668
30
0.0
10
151.003923
20
120.803984
30
0.0
10
150.296739
20
120.828100
30
0.0
10
149.584234
20
120.682146
30
0.0
10
148.887112
20
120.359250
30
0.0
10
148.248807
20
119.916074
30
0.0
10
146.374674
20
118.289438
30
0.0
10
132.014414
20
105.341390
30
0.0
10
123.428684
20
97.633196
30
0.0
10
120.793324
20
95.304312
30
0.0
10
120.066822
20
94.678132
30
0.0
10
120.007293
20
94.629623
30
0.0
10
119.987989
20
95.242026
30
0.0
10
119.954365
20
97.603983
30
0.0
10
119.922945
20
105.484706
30
0.0
10
119.889321
20
113.904521
30
0.0
10
119.849082
20
116.275848
30
0.0
10
119.792307
20
117.353474
30
0.0
10
119.513113
20
118.432002
30
0.0
10
119.054668
20
119.328472
30
0.0
10
118.416860
20
120.040288
30
0.0
10
117.599573
20
120.564855
30
0.0
10
116.640889
20
120.841931
30
0.0
10
115.656538
20
120.768803
30
0.0
10
114.640710
20
120.342591
30
0.0
10
113.571841
20
119.568258
30
0.0
10
109.132906
20
115.595097
30
0.0
10
99.324581
20
106.785025
30
0.0
10
89.667289
20
98.147481
30
0.0
10
86.707263
20
95.534718
30
0.0
10
85.892567
20
94.830817
30
0.0
10
85.804923
20
94.758057
30
0.0
10
85.787284
20
95.375418
30
0.0
10
85.754763
20
97.743440
30
0.0
10
85.723343
20
105.484706
30
0.0
10
85.688616
20
113.661984
30
0.0
10
85.650033
20
116.138044
30
0.0
10
85.598768
20
117.277957
30
0.0
10
85.221185
20
118.709464
30
0.0
10
84.681383
20
119.570401
30
0.0
10
83.934293
20
120.253225
30
0.0
10
83.054814
20
120.703533
30
0.0
10
82.117844
20
120.866920
30
0.0
10
81.346909
20
120.753193
30
0.0
10
80.507194
20
120.359804
30
0.0
10
78.093420
20
118.429446
30
0.0
10
63.850018
20
105.631882
30
0.0
10
55.091209
20
97.810135
30
0.0
10
52.406790
20
95.453139
30
0.0
10
51.668161
20
94.821997
30
0.0
10
51.616348
20
94.779554
30
0.0
10
51.609179
20
95.070595
30
0.0
10
51.589339
20
96.647622
30
0.0
10
51.551854
20
102.407823
30
0.0
10
51.496733
20
121.275372
30
0.0
10
51.434425
20
144.090756
30
0.0
10
51.364728
20
147.655831
30
0.0
10
51.239866
20
148.774950
30
0.0
10
50.832422
20
149.877107
30
0.0
10
50.246576
20
150.664515
30
0.0
10
49.416591
20
151.182090
30
0.0
10
48.292518
20
151.491339
30
0.0
10
47.023621
20
151.571264
30
0.0
10
44.538192
20
151.628592
30
0.0
10
37.528937
20
151.678201
30
0.0
10
37.528940
20
151.678156
30
0.0
62
0
0
LWPOLYLINE
100
AcDbPolyline
8
0
90
134
70
0
10
37.528376
20
151.395934
30
0.0
10
44.533772
20
151.346325
30
0.0
10
47.013687
20
151.289547
30
0.0
10
48.242897
20
151.213480
30
0.0
10
49.305920
20
150.922616
30
0.0
10
50.055295
20
150.456661
30
0.0
10
50.583276
20
149.745104
30
0.0
10
50.967555
20
148.701592
30
0.0
10
51.078810
20
147.638471
30
0.0
10
51.146437
20
144.093423
30
0.0
10
51.214500
20
121.274774
30
0.0
10
51.269621
20
102.406124
30
0.0
10
51.307105
20
96.644823
30
0.0
10
51.326946
20
95.065592
30
0.0
10
51.336880
20
94.648320
30
0.0
10
51.341847
20
94.535872
30
0.0
10
51.345149
20
94.499493
30
0.0
10
51.348451
20
94.479089
30
0.0
10
51.353954
20
94.459249
30
0.0
10
51.387578
20
94.405228
30
0.0
10
51.470811
20
94.364989
30
0.0
10
51.517115
20
94.366682
30
0.0
10
51.554047
20
94.378818
30
0.0
10
51.586017
20
94.396993
30
0.0
10
51.647200
20
94.441644
30
0.0
10
51.848947
20
94.604802
30
0.0
10
52.591434
20
95.239251
30
0.0
10
55.278607
20
97.599005
30
0.0
10
64.038520
20
105.422402
30
0.0
10
78.281372
20
118.218866
30
0.0
10
80.654353
20
120.119455
30
0.0
10
81.426998
20
120.484999
30
0.0
10
82.117280
20
120.584681
30
0.0
10
82.961596
20
120.432702
30
0.0
10
83.769916
20
120.015319
30
0.0
10
84.463261
20
119.385283
30
0.0
10
84.962653
20
118.595345
30
0.0
10
85.319289
20
117.237703
30
0.0
10
85.367797
20
116.131412
30
0.0
10
85.406380
20
113.659213
30
0.0
10
85.441107
20
105.484689
30
0.0
10
85.472527
20
97.740666
30
0.0
10
85.505047
20
95.369339
30
0.0
10
85.523787
20
94.715046
30
0.0
10
85.534257
20
94.536453
30
0.0
10
85.540861
20
94.480229
30
0.0
10
85.546929
20
94.450463
30
0.0
10
85.557400
20
94.424019
30
0.0
10
85.572273
20
94.400312
30
0.0
10
85.610858
20
94.365034
30
0.0
10
85.698502
20
94.344630
30
0.0
10
85.733780
20
94.351798
30
0.0
10
85.761353
20
94.364470
30
0.0
10
85.789462
20
94.382645
30
0.0
10
85.853953
20
94.432254
30
0.0
10
86.074989
20
94.615258
30
0.0
10
86.892443
20
95.321917
30
0.0
10
89.854673
20
97.936331
30
0.0
10
99.513068
20
106.574975
30
0.0
10
109.321394
20
115.385050
30
0.0
10
113.755368
20
119.353800
30
0.0
10
114.781372
20
120.097282
30
0.0
10
115.725411
20
120.494816
30
0.0
10
116.611571
20
120.562756
30
0.0
10
117.478827
20
120.309607
30
0.0
10
118.238091
20
119.825508
30
0.0
10
118.827974
20
119.169282
30
0.0
10
119.252056
20
118.332877
30
0.0
10
119.513914
20
117.308242
30
0.0
10
119.566831
20
116.268098
30
0.0
10
119.607070
20
113.901179
30
0.0
10
119.640694
20
105.484672
30
0.0
10
119.672114
20
97.601192
30
0.0
10
119.706288
20
95.235377
30
0.0
10
119.726129
20
94.586596
30
0.0
10
119.737700
20
94.409656
30
0.0
10
119.744304
20
94.352879
30
0.0
10
119.752008
20
94.322563
30
0.0
10
119.763043
20
94.295554
30
0.0
10
119.778481
20
94.272412
30
0.0
10
119.814862
20
94.239888
30
0.0
10
119.893134
20
94.218948
30
0.0
10
119.930065
20
94.224451
30
0.0
10
119.960382
20
94.236586
30
0.0
10
119.989597
20
94.254225
30
0.0
10
120.049679
20
94.298873
30
0.0
10
120.248666
20
94.462031
30
0.0
10
120.979029
20
95.091519
30
0.0
10
123.616593
20
97.422610
30
0.0
10
132.203424
20
105.131905
30
0.0
10
146.562583
20
118.078299
30
0.0
10
148.425690
20
119.696669
30
0.0
10
149.033128
20
120.117795
30
0.0
10
149.672406
20
120.415083
30
0.0
10
150.320240
20
120.548588
30
0.0
10
150.961171
20
120.525952
30
0.0
10
151.579744
20
120.354819
30
0.0
10
152.685388
20
119.591369
30
0.0
10
153.497971
20
118.303197
30
0.0
10
153.778543
20
117.607011
30
0.0
10
153.814371
20
83.072821
30
0.0
10
153.810504
20
56.161941
30
0.0
10
153.774123
20
49.863204
30
0.0
10
153.747114
20
48.244835
30
0.0
10
153.715144
20
47.560779
30
0.0
10
153.459536
20
46.417174
30
0.0
10
153.040302
20
45.536735
30
0.0
10
152.436763
20
44.885041
30
0.0
10
151.628241
20
44.427669
30
0.0
10
150.981667
20
44.165843
30
0.0
10
89.283591
20
44.144902
30
0.0
10
40.487809
20
44.159775
30
0.0
10
30.183390
20
44.200565
30
0.0
10
27.773476
20
44.231432
30
0.0
10
27.157769
20
44.249607
30
0.0
10
26.917439
20
44.266145
30
0.0
10
26.009484
20
44.564945
30
0.0
10
25.306446
20
45.039491
30
0.0
10
24.778452
20
45.718129
30
0.0
10
24.395629
20
46.629206
30
0.0
10
24.280178
20
48.076315
30
0.0
10
24.213177
20
54.292199
30
0.0
10
24.182309
20
97.746706
30
0.0
10
24.213177
20
141.250268
30
0.0
10
24.280175
20
147.439950
30
0.0
10
24.397283
20
148.880741
30
0.0
10
24.777197
20
149.789927
30
0.0
10
25.309650
20
150.463478
30
0.0
10
26.030014
20
150.933531
30
0.0
10
26.973663
20
151.232225
30
0.0
10
28.130664
20
151.304985
30
0.0
10
30.562076
20
151.357901
30
0.0
10
37.528333
20
151.395937
30
0.0
10
37.528376
20
151.395934
30
0.0
  0
ENDSEC
  0
SECTION
  2
OBJECTS
  0
DICTIONARY
  5
C
330
0
100
AcDbDictionary
  3
ACAD_GROUP
350
D
  3
ACAD_MLINESTYLE
350
17
  0
DICTIONARY
  5
D
330
C
100
AcDbDictionary
  0
DICTIONARY
  5
1A
330
C
100
AcDbDictionary
  0
DICTIONARY
  5
17
330
C
100
AcDbDictionary
  3
STANDARD
350
18
  0
DICTIONARY
  5
19
330
C
100
AcDbDictionary
  0
ENDSEC
  0
EOF
