  0
SECTION
  2
HEADER
  9
$ACADVER
  1
AC1014
  9
$HANDSEED
  5
FFFF
  9
$MEASUREMENT
 70
     1
  0
ENDSEC
  0
SECTION
  2
TABLES
  0
TABLE
  2
VPORT
  5
8
330
0
100
AcDbSymbolTable
 70
     4
  0
VPORT
  5
2E
330
8
100
AcDbSymbolTableRecord
100
AcDbViewportTableRecord
  2
*ACTIVE
 70
     0
 10
0.0
 20
0.0
 11
1.0
 21
1.0
 12
210.0
 22
148.5
 13
0.0
 23
0.0
 14
10.0
 24
10.0
 15
10.0
 25
10.0
 16
0.0
 26
0.0
 36
1.0
 17
0.0
 27
0.0
 37
0.0
 40
341.0
 41
1.24
 42
50.0
 43
0.0
 44
0.0
 50
0.0
 51
0.0
 71
     0
 72
   100
 73
     1
 74
     3
 75
     0
 76
     0
 77
     0
 78
     0
  0
ENDTAB
  0
TABLE
  2
LTYPE
  5
5
330
0
100
AcDbSymbolTable
 70
     1
  0
LTYPE
  5
14
330
5
100
AcDbSymbolTableRecord
100
AcDbLinetypeTableRecord
  2
BYBLOCK
 70
     0
  3

 72
    65
 73
     0
 40
0.0
  0
LTYPE
  5
15
330
5
100
AcDbSymbolTableRecord
100
AcDbLinetypeTableRecord
  2
BYLAYER
 70
     0
  3

 72
    65
 73
     0
 40
0.0
  0
LTYPE
  5
16
330
5
100
AcDbSymbolTableRecord
100
AcDbLinetypeTableRecord
  2
CONTINUOUS
 70
     0
  3
Solid line
 72
    65
 73
     0
 40
0.0
  0
ENDTAB
  0
TABLE
  2
LAYER
  5
2
100
AcDbSymbolTable
 70
1
  0
LAYER
  5
50
100
AcDbSymbolTableRecord
100
AcDbLayerTableRecord
  2
0
 70
0
  6
CONTINUOUS
  0
ENDTAB
  0
TABLE
  2
STYLE
  5
3
330
0
100
AcDbSymbolTable
 70
     1
  0
STYLE
  5
11
330
3
100
AcDbSymbolTableRecord
100
AcDbTextStyleTableRecord
  2
STANDARD
 70
     0
 40
0.0
 41
1.0
 50
0.0
 71
     0
 42
2.5
  3
txt
  4

  0
ENDTAB
  0
TABLE
  2
VIEW
  5
6
330
0
100
AcDbSymbolTable
 70
     0
  0
ENDTAB
  0
TABLE
  2
UCS
  5
7
330
0
100
AcDbSymbolTable
 70
     0
  0
ENDTAB
  0
TABLE
  2
APPID
  5
9
330
0
100
AcDbSymbolTable
 70
     2
  0
APPID
  5
12
330
9
100
AcDbSymbolTableRecord
100
AcDbRegAppTableRecord
  2
ACAD
 70
     0
  0
ENDTAB
  0
TABLE
  2
DIMSTYLE
  5
A
330
0
100
AcDbSymbolTable
 70
     1
  0
DIMSTYLE
105
27
330
A
100
AcDbSymbolTableRecord
100
AcDbDimStyleTableRecord
  2
ISO-25
 70
     0
  3

  4

  5

  6

  7

 40
1.0
 41
2.5
 42
0.625
 43
3.75
 44
1.25
 45
0.0
 46
0.0
 47
0.0
 48
0.0
140
2.5
141
2.5
142
0.0
143
0.03937007874016
144
1.0
145
0.0
146
1.0
147
0.625
 71
     0
 72
     0
 73
     0
 74
     0
 75
     0
 76
     0
 77
     1
 78
     8
170
     0
171
     3
172
     1
173
     0
174
     0
175
     0
176
     0
177
     0
178
     0
270
     2
271
     2
272
     2
273
     2
274
     3
340
11
275
     0
280
     0
281
     0
282
     0
283
     0
284
     8
285
     0
286
     0
287
     3
288
     0
  0
ENDTAB
  0
TABLE
  2
BLOCK_RECORD
  5
1
330
0
100
AcDbSymbolTable
 70
     1
  0
BLOCK_RECORD
  5
1F
330
1
100
AcDbSymbolTableRecord
100
AcDbBlockTableRecord
  2
*MODEL_SPACE
  0
BLOCK_RECORD
  5
1B
330
1
100
AcDbSymbolTableRecord
100
AcDbBlockTableRecord
  2
*PAPER_SPACE
  0
ENDTAB
  0
ENDSEC
  0
SECTION
  2
BLOCKS
  0
BLOCK
  5
20
330
1F
100
AcDbEntity
  8
0
100
AcDbBlockBegin
  2
*MODEL_SPACE
 70
     0
 10
0.0
 20
0.0
 30
0.0
  3
*MODEL_SPACE
  1

  0
ENDBLK
  5
21
330
1F
100
AcDbEntity
  8
0
100
AcDbBlockEnd
  0
BLOCK
  5
1C
330
1B
100
AcDbEntity
 67
     1
  8
0
100
AcDbBlockBegin
  2
*PAPER_SPACE
  1

  0
ENDBLK
  5
1D
330
1B
100
AcDbEntity
 67
     1
  8
0
100
AcDbBlockEnd
  0
ENDSEC
  0
SECTION
  2
ENTITIES
  0
LINE
  5
100
100
AcDbEntity
  8
0
 62
7
100
AcDbLine
 10
177.941111
 20
38.241118
 30
0.0
 11
174.941111
 21
38.241118
 31
0.0
  0
LINE
  5
101
100
AcDbEntity
  8
0
 62
7
100
AcDbLine
 10
177.941111
 20
38.241118
 30
0.0
 11
177.941111
 21
55.741125
 31
0.0
  0
LINE
  5
102
100
AcDbEntity
  8
0
 62
7
100
AcDbLine
 10
174.941111
 20
55.741125
 30
0.0
 11
177.941111
 21
55.741125
 31
0.0
  0
LINE
  5
103
100
AcDbEntity
  8
0
 62
7
100
AcDbLine
 10
174.941111
 20
73.241105
 30
0.0
 11
174.941111
 21
55.741125
 31
0.0
  0
LINE
  5
104
100
AcDbEntity
  8
0
 62
7
100
AcDbLine
 10
177.941111
 20
73.241105
 30
0.0
 11
174.941111
 21
73.241105
 31
0.0
  0
LINE
  5
105
100
AcDbEntity
  8
0
 62
7
100
AcDbLine
 10
177.941111
 20
73.241105
 30
0.0
 11
177.941111
 21
90.741112
 31
0.0
  0
LINE
  5
106
100
AcDbEntity
  8
0
 62
7
100
AcDbLine
 10
174.941111
 20
90.741112
 30
0.0
 11
177.941111
 21
90.741112
 31
0.0
  0
LINE
  5
107
100
AcDbEntity
  8
0
 62
7
100
AcDbLine
 10
174.941111
 20
108.241119
 30
0.0
 11
174.941111
 21
90.741112
 31
0.0
  0
LINE
  5
108
100
AcDbEntity
  8
0
 62
7
100
AcDbLine
 10
177.941111
 20
108.241119
 30
0.0
 11
174.941111
 21
108.241119
 31
0.0
  0
LINE
  5
109
100
AcDbEntity
  8
0
 62
7
100
AcDbLine
 10
177.941111
 20
108.241119
 30
0.0
 11
177.941111
 21
125.741127
 31
0.0
  0
LINE
  5
10a
100
AcDbEntity
  8
0
 62
7
100
AcDbLine
 10
174.941111
 20
125.741127
 30
0.0
 11
177.941111
 21
125.741127
 31
0.0
  0
LINE
  5
10b
100
AcDbEntity
  8
0
 62
7
100
AcDbLine
 10
174.941111
 20
143.241114
 30
0.0
 11
174.941111
 21
125.741127
 31
0.0
  0
LINE
  5
10c
100
AcDbEntity
  8
0
 62
7
100
AcDbLine
 10
177.941111
 20
143.241114
 30
0.0
 11
174.941111
 21
143.241114
 31
0.0
  0
LINE
  5
10d
100
AcDbEntity
  8
0
 62
7
100
AcDbLine
 10
177.941111
 20
143.241114
 30
0.0
 11
177.941111
 21
160.741116
 31
0.0
  0
LINE
  5
10e
100
AcDbEntity
  8
0
 62
7
100
AcDbLine
 10
174.941111
 20
160.741116
 30
0.0
 11
177.941111
 21
160.741116
 31
0.0
  0
LINE
  5
10f
100
AcDbEntity
  8
0
 62
7
100
AcDbLine
 10
174.941111
 20
178.241115
 30
0.0
 11
174.941111
 21
160.741116
 31
0.0
  0
LINE
  5
110
100
AcDbEntity
  8
0
 62
7
100
AcDbLine
 10
177.941111
 20
178.241115
 30
0.0
 11
174.941111
 21
178.241115
 31
0.0
  0
LINE
  5
111
100
AcDbEntity
  8
0
 62
7
100
AcDbLine
 10
177.941111
 20
178.241115
 30
0.0
 11
177.941111
 21
195.741114
 31
0.0
  0
LINE
  5
112
100
AcDbEntity
  8
0
 62
7
100
AcDbLine
 10
174.941111
 20
195.741114
 30
0.0
 11
177.941111
 21
195.741114
 31
0.0
  0
LINE
  5
113
100
AcDbEntity
  8
0
 62
7
100
AcDbLine
 10
174.941111
 20
213.241115
 30
0.0
 11
174.941111
 21
195.741114
 31
0.0
  0
LINE
  5
114
100
AcDbEntity
  8
0
 62
7
100
AcDbLine
 10
177.941111
 20
213.241115
 30
0.0
 11
174.941111
 21
213.241115
 31
0.0
  0
LINE
  5
115
100
AcDbEntity
  8
0
 62
7
100
AcDbLine
 10
177.941111
 20
213.241115
 30
0.0
 11
177.941111
 21
230.741114
 31
0.0
  0
LINE
  5
116
100
AcDbEntity
  8
0
 62
7
100
AcDbLine
 10
177.941111
 20
230.741114
 30
0.0
 11
157.441113
 21
230.741114
 31
0.0
  0
LINE
  5
117
100
AcDbEntity
  8
0
 62
7
100
AcDbLine
 10
157.441113
 20
227.741114
 30
0.0
 11
157.441113
 21
230.741114
 31
0.0
  0
LINE
  5
118
100
AcDbEntity
  8
0
 62
7
100
AcDbLine
 10
139.941111
 20
227.741114
 30
0.0
 11
157.441113
 21
227.741114
 31
0.0
  0
LINE
  5
119
100
AcDbEntity
  8
0
 62
7
100
AcDbLine
 10
139.941111
 20
230.741114
 30
0.0
 11
139.941111
 21
227.741114
 31
0.0
  0
LINE
  5
11a
100
AcDbEntity
  8
0
 62
7
100
AcDbLine
 10
139.941111
 20
230.741114
 30
0.0
 11
122.441112
 21
230.741114
 31
0.0
  0
LINE
  5
11b
100
AcDbEntity
  8
0
 62
7
100
AcDbLine
 10
122.441112
 20
227.741114
 30
0.0
 11
122.441112
 21
230.741114
 31
0.0
  0
LINE
  5
11c
100
AcDbEntity
  8
0
 62
7
100
AcDbLine
 10
104.941110
 20
227.741114
 30
0.0
 11
122.441112
 21
227.741114
 31
0.0
  0
LINE
  5
11d
100
AcDbEntity
  8
0
 62
7
100
AcDbLine
 10
104.941110
 20
230.741114
 30
0.0
 11
104.941110
 21
227.741114
 31
0.0
  0
LINE
  5
11e
100
AcDbEntity
  8
0
 62
7
100
AcDbLine
 10
104.941110
 20
230.741114
 30
0.0
 11
73.141112
 21
230.741114
 31
0.0
  0
LINE
  5
11f
100
AcDbEntity
  8
0
 62
7
100
AcDbLine
 10
73.141112
 20
227.741114
 30
0.0
 11
73.141112
 21
230.741114
 31
0.0
  0
LINE
  5
120
100
AcDbEntity
  8
0
 62
7
100
AcDbLine
 10
55.641110
 20
227.741114
 30
0.0
 11
73.141112
 21
227.741114
 31
0.0
  0
LINE
  5
121
100
AcDbEntity
  8
0
 62
7
100
AcDbLine
 10
55.641110
 20
230.741114
 30
0.0
 11
55.641110
 21
227.741114
 31
0.0
  0
LINE
  5
122
100
AcDbEntity
  8
0
 62
7
100
AcDbLine
 10
55.641110
 20
230.741114
 30
0.0
 11
38.141111
 21
230.741114
 31
0.0
  0
LINE
  5
123
100
AcDbEntity
  8
0
 62
7
100
AcDbLine
 10
38.141111
 20
227.741114
 30
0.0
 11
38.141111
 21
230.741114
 31
0.0
  0
LINE
  5
124
100
AcDbEntity
  8
0
 62
7
100
AcDbLine
 10
20.641111
 20
227.741114
 30
0.0
 11
38.141111
 21
227.741114
 31
0.0
  0
LINE
  5
125
100
AcDbEntity
  8
0
 62
7
100
AcDbLine
 10
20.641111
 20
230.741114
 30
0.0
 11
20.641111
 21
227.741114
 31
0.0
  0
LINE
  5
126
100
AcDbEntity
  8
0
 62
7
100
AcDbLine
 10
20.641111
 20
230.741114
 30
0.0
 11
0.141111
 21
230.741114
 31
0.0
  0
LINE
  5
127
100
AcDbEntity
  8
0
 62
7
100
AcDbLine
 10
0.141111
 20
230.741114
 30
0.0
 11
0.141111
 21
213.241115
 31
0.0
  0
LINE
  5
128
100
AcDbEntity
  8
0
 62
7
100
AcDbLine
 10
3.141111
 20
213.241115
 30
0.0
 11
0.141111
 21
213.241115
 31
0.0
  0
LINE
  5
129
100
AcDbEntity
  8
0
 62
7
100
AcDbLine
 10
3.141111
 20
195.741114
 30
0.0
 11
3.141111
 21
213.241115
 31
0.0
  0
LINE
  5
12a
100
AcDbEntity
  8
0
 62
7
100
AcDbLine
 10
0.141111
 20
195.741114
 30
0.0
 11
3.141111
 21
195.741114
 31
0.0
  0
LINE
  5
12b
100
AcDbEntity
  8
0
 62
7
100
AcDbLine
 10
0.141111
 20
195.741114
 30
0.0
 11
0.141111
 21
178.241115
 31
0.0
  0
LINE
  5
12c
100
AcDbEntity
  8
0
 62
7
100
AcDbLine
 10
3.141111
 20
178.241115
 30
0.0
 11
0.141111
 21
178.241115
 31
0.0
  0
LINE
  5
12d
100
AcDbEntity
  8
0
 62
7
100
AcDbLine
 10
3.141111
 20
160.741116
 30
0.0
 11
3.141111
 21
178.241115
 31
0.0
  0
LINE
  5
12e
100
AcDbEntity
  8
0
 62
7
100
AcDbLine
 10
0.141111
 20
160.741116
 30
0.0
 11
3.141111
 21
160.741116
 31
0.0
  0
LINE
  5
12f
100
AcDbEntity
  8
0
 62
7
100
AcDbLine
 10
0.141111
 20
160.741116
 30
0.0
 11
0.141111
 21
143.241114
 31
0.0
  0
LINE
  5
130
100
AcDbEntity
  8
0
 62
7
100
AcDbLine
 10
3.141111
 20
143.241114
 30
0.0
 11
0.141111
 21
143.241114
 31
0.0
  0
LINE
  5
131
100
AcDbEntity
  8
0
 62
7
100
AcDbLine
 10
3.141111
 20
125.741127
 30
0.0
 11
3.141111
 21
143.241114
 31
0.0
  0
LINE
  5
132
100
AcDbEntity
  8
0
 62
7
100
AcDbLine
 10
0.141111
 20
125.741127
 30
0.0
 11
3.141111
 21
125.741127
 31
0.0
  0
LINE
  5
133
100
AcDbEntity
  8
0
 62
7
100
AcDbLine
 10
0.141111
 20
125.741127
 30
0.0
 11
0.141111
 21
108.241119
 31
0.0
  0
LINE
  5
134
100
AcDbEntity
  8
0
 62
7
100
AcDbLine
 10
3.141111
 20
108.241119
 30
0.0
 11
0.141111
 21
108.241119
 31
0.0
  0
LINE
  5
135
100
AcDbEntity
  8
0
 62
7
100
AcDbLine
 10
3.141111
 20
90.741112
 30
0.0
 11
3.141111
 21
108.241119
 31
0.0
  0
LINE
  5
136
100
AcDbEntity
  8
0
 62
7
100
AcDbLine
 10
0.141111
 20
90.741112
 30
0.0
 11
3.141111
 21
90.741112
 31
0.0
  0
LINE
  5
137
100
AcDbEntity
  8
0
 62
7
100
AcDbLine
 10
0.141111
 20
90.741112
 30
0.0
 11
0.141111
 21
73.241105
 31
0.0
  0
LINE
  5
138
100
AcDbEntity
  8
0
 62
7
100
AcDbLine
 10
3.141111
 20
73.241105
 30
0.0
 11
0.141111
 21
73.241105
 31
0.0
  0
LINE
  5
139
100
AcDbEntity
  8
0
 62
7
100
AcDbLine
 10
3.141111
 20
55.741125
 30
0.0
 11
3.141111
 21
73.241105
 31
0.0
  0
LINE
  5
13a
100
AcDbEntity
  8
0
 62
7
100
AcDbLine
 10
0.141111
 20
55.741125
 30
0.0
 11
3.141111
 21
55.741125
 31
0.0
  0
LINE
  5
13b
100
AcDbEntity
  8
0
 62
7
100
AcDbLine
 10
0.141111
 20
55.741125
 30
0.0
 11
0.141111
 21
38.241118
 31
0.0
  0
LINE
  5
13c
100
AcDbEntity
  8
0
 62
7
100
AcDbLine
 10
3.141111
 20
38.241118
 30
0.0
 11
0.141111
 21
38.241118
 31
0.0
  0
LINE
  5
13d
100
AcDbEntity
  8
0
 62
7
100
AcDbLine
 10
3.141111
 20
20.741111
 30
0.0
 11
3.141111
 21
38.241118
 31
0.0
  0
LINE
  5
13e
100
AcDbEntity
  8
0
 62
7
100
AcDbLine
 10
0.141111
 20
20.741111
 30
0.0
 11
3.141111
 21
20.741111
 31
0.0
  0
LINE
  5
13f
100
AcDbEntity
  8
0
 62
7
100
AcDbLine
 10
0.141111
 20
20.741111
 30
0.0
 11
0.141111
 21
0.141112
 31
0.0
  0
LINE
  5
140
100
AcDbEntity
  8
0
 62
7
100
AcDbLine
 10
0.141111
 20
0.141112
 30
0.0
 11
177.941111
 21
0.141112
 31
0.0
  0
LINE
  5
141
100
AcDbEntity
  8
0
 62
7
100
AcDbLine
 10
177.941111
 20
0.141112
 30
0.0
 11
177.941111
 21
20.741111
 31
0.0
  0
LINE
  5
142
100
AcDbEntity
  8
0
 62
7
100
AcDbLine
 10
174.941111
 20
20.741111
 30
0.0
 11
177.941111
 21
20.741111
 31
0.0
  0
LINE
  5
143
100
AcDbEntity
  8
0
 62
7
100
AcDbLine
 10
174.941111
 20
38.241118
 30
0.0
 11
174.941111
 21
20.741111
 31
0.0
  0
LINE
  5
144
100
AcDbEntity
  8
0
 62
7
100
AcDbLine
 10
26.746068
 20
44.028017
 30
0.0
 11
26.746068
 21
44.014245
 31
0.0
  0
LINE
  5
145
100
AcDbEntity
  8
0
 62
7
100
AcDbLine
 10
26.746068
 20
44.014245
 30
0.0
 11
26.857413
 21
43.990538
 31
0.0
  0
SPLINE
  5
146
100
AcDbEntity
  8
0
 62
7
100
AcDbSpline
 70
0
 71
3
 72
34
 73
30
 74
28
 40
0.000000
 40
0.000000
 40
0.000000
 40
0.000000
 40
2.491403
 40
4.855844
 40
6.970825
 40
7.896528
 40
8.714091
 40
9.408353
 40
9.960434
 40
10.362615
 40
10.617112
 40
11.989896
 40
13.226715
 40
14.594560
 40
15.294337
 40
17.445397
 40
22.313786
 40
31.161014
 40
45.244175
 40
65.818478
 40
86.348752
 40
100.419304
 40
109.274115
 40
114.158554
 40
116.323818
 40
117.026864
 40
118.359926
 40
119.555369
 40
120.837908
 40
120.837908
 40
120.837908
 40
120.837908
 10
37.528940
 20
151.678156
 30
0.0
 10
36.698472
 20
151.677926
 30
0.0
 10
35.079855
 20
151.677478
 30
0.0
 10
32.756269
 20
151.665116
 30
0.0
 10
30.954644
 20
151.647023
 30
0.0
 10
29.668713
 20
151.626446
 30
0.0
 10
28.856401
 20
151.609272
 30
0.0
 10
28.168634
 20
151.590021
 30
0.0
 10
27.619695
 20
151.568291
 30
0.0
 10
27.216868
 20
151.549403
 30
0.0
 10
26.545742
 20
151.464724
 30
0.0
 10
25.619624
 20
151.129163
 30
0.0
 10
24.624061
 20
150.215030
 30
0.0
 10
24.123813
 20
149.190433
 30
0.0
 10
23.972655
 20
147.787163
 30
0.0
 10
23.970080
 20
145.213592
 30
0.0
 10
23.908666
 20
139.925341
 30
0.0
 10
23.912787
 20
130.658728
 30
0.0
 10
23.896668
 20
116.157359
 30
0.0
 10
23.902153
 20
97.761328
 30
0.0
 10
23.896847
 20
79.369777
 30
0.0
 10
23.912511
 20
64.884241
 30
0.0
 10
23.909337
 20
55.614931
 30
0.0
 10
23.969189
 20
50.312474
 30
0.0
 10
23.972434
 20
47.729765
 30
0.0
 10
24.118966
 20
46.329495
 30
0.0
 10
24.612363
 20
45.338920
 30
0.0
 10
25.533790
 20
44.411307
 30
0.0
 10
26.332616
 20
44.158739
 30
0.0
 10
26.746068
 20
44.028017
 30
0.0
 11
37.528940
 21
151.678156
 31
0.0
 11
35.037539
 21
151.675317
 31
0.0
 11
32.673132
 21
151.662709
 31
0.0
 11
30.558272
 21
151.640121
 31
0.0
 11
29.632691
 21
151.625028
 31
0.0
 11
28.815318
 21
151.607394
 31
0.0
 11
28.121350
 21
151.587204
 31
0.0
 11
27.569695
 21
151.565535
 31
0.0
 11
27.168283
 21
151.540667
 31
0.0
 11
26.915842
 21
151.508382
 31
0.0
 11
25.628414
 21
151.031870
 31
0.0
 11
24.714950
 21
150.198020
 31
0.0
 11
24.127244
 21
148.962868
 31
0.0
 11
24.030753
 21
148.269775
 31
0.0
 11
23.968655
 21
146.119612
 31
0.0
 11
23.931011
 21
141.251368
 31
0.0
 11
23.910240
 21
132.404164
 31
0.0
 11
23.901762
 21
118.321006
 31
0.0
 11
23.900143
 21
97.746703
 31
0.0
 11
23.901788
 21
77.216430
 31
0.0
 11
23.910293
 21
63.145880
 31
0.0
 11
23.931011
 21
54.291093
 31
0.0
 11
23.968103
 21
49.406795
 31
0.0
 11
24.029370
 21
47.242398
 31
0.0
 11
24.125590
 21
46.545967
 31
0.0
 11
24.695993
 21
45.341104
 31
0.0
 11
25.559210
 21
44.514098
 31
0.0
 11
26.746068
 21
44.028017
 31
0.0
  0
LINE
  5
147
100
AcDbEntity
  8
0
 62
7
100
AcDbLine
 10
89.283647
 20
43.862691
 30
0.0
 11
151.036844
 21
43.883632
 31
0.0
  0
LINE
  5
148
100
AcDbEntity
  8
0
 62
7
100
AcDbLine
 10
151.036844
 20
43.883632
 30
0.0
 11
151.734131
 21
44.165854
 31
0.0
  0
SPLINE
  5
149
100
AcDbEntity
  8
0
 62
7
100
AcDbSpline
 70
0
 71
3
 72
22
 73
18
 74
16
 40
0.000000
 40
0.000000
 40
0.000000
 40
0.000000
 40
0.071735
 40
0.163530
 40
0.289475
 40
0.456573
 40
0.663490
 40
0.911522
 40
1.535607
 40
2.337442
 40
3.325504
 40
5.893855
 40
9.307134
 40
13.631667
 40
25.279802
 40
41.368548
 40
62.428012
 40
62.428012
 40
62.428012
 40
62.428012
 10
26.857413
 20
43.990538
 30
0.0
 10
26.881003
 20
43.986518
 30
0.0
 10
26.934779
 20
43.977353
 30
0.0
 10
27.031291
 20
43.972464
 30
0.0
 10
27.159379
 20
43.966627
 30
0.0
 10
27.325941
 20
43.960380
 30
0.0
 10
27.533200
 20
43.954486
 30
0.0
 10
27.892787
 20
43.946181
 30
0.0
 10
28.450693
 20
43.936747
 30
0.0
 10
29.255293
 20
43.926682
 30
0.0
 10
30.707980
 20
43.913126
 30
0.0
 10
33.031175
 20
43.899386
 30
0.0
 10
36.466540
 20
43.886536
 30
0.0
 10
42.928506
 20
43.871251
 30
0.0
 10
53.615641
 20
43.860730
 30
0.0
 10
69.881090
 20
43.857298
 30
0.0
 10
82.263826
 20
43.860740
 30
0.0
 10
89.283647
 20
43.862691
 30
0.0
 11
26.857413
 21
43.990538
 31
0.0
 11
26.928326
 21
43.979709
 31
0.0
 11
27.019883
 21
43.973107
 31
0.0
 11
27.145699
 21
43.967396
 31
0.0
 11
27.312678
 21
43.961103
 31
0.0
 11
27.519507
 21
43.955043
 31
0.0
 11
27.767470
 21
43.949221
 31
0.0
 11
28.391457
 21
43.938149
 31
0.0
 11
29.193226
 21
43.927839
 31
0.0
 11
30.181242
 21
43.918354
 31
0.0
 11
32.749540
 21
43.901851
 31
0.0
 11
36.162793
 21
43.888363
 31
0.0
 11
40.487312
 21
43.877564
 31
0.0
 11
52.135438
 21
43.863448
 31
0.0
 11
68.224183
 21
43.858783
 31
0.0
 11
89.283647
 21
43.862691
 31
0.0
  0
LINE
  5
14a
100
AcDbEntity
  8
0
 62
7
100
AcDbLine
 10
153.994666
 20
47.521652
 30
0.0
 11
153.994666
 21
47.522216
 31
0.0
  0
SPLINE
  5
14b
100
AcDbEntity
  8
0
 62
7
100
AcDbSpline
 70
0
 71
3
 72
10
 73
6
 74
4
 40
0.000000
 40
0.000000
 40
0.000000
 40
0.000000
 40
1.321060
 40
2.651808
 40
4.243453
 40
4.243453
 40
4.243453
 40
4.243453
 10
151.734131
 20
44.165854
 30
0.0
 10
152.130085
 20
44.373038
 30
0.0
 10
152.924896
 20
44.788924
 30
0.0
 10
153.711795
 20
46.038854
 30
0.0
 10
153.894926
 20
46.998819
 30
0.0
 10
153.994666
 20
47.521652
 30
0.0
 11
151.734131
 21
44.165854
 31
0.0
 11
152.846779
 21
44.878043
 31
0.0
 11
153.589017
 21
45.982566
 31
0.0
 11
153.994666
 21
47.521652
 31
0.0
  0
LINE
  5
14c
100
AcDbEntity
  8
0
 62
7
100
AcDbLine
 10
154.096649
 20
83.073397
 30
0.0
 11
154.060821
 21
117.662154
 31
0.0
  0
LINE
  5
14d
100
AcDbEntity
  8
0
 62
7
100
AcDbLine
 10
154.060821
 20
117.662154
 30
0.0
 11
153.759857
 21
118.409052
 31
0.0
  0
SPLINE
  5
14e
100
AcDbEntity
  8
0
 62
7
100
AcDbSpline
 70
0
 71
3
 72
19
 73
15
 74
13
 40
0.000000
 40
0.000000
 40
0.000000
 40
0.000000
 40
0.149461
 40
0.384584
 40
0.716503
 40
1.151731
 40
1.691520
 40
2.338967
 40
3.968244
 40
6.061472
 40
8.640581
 40
15.344645
 40
24.256680
 40
35.552577
 40
35.552577
 40
35.552577
 40
35.552577
 10
153.994666
 20
47.522216
 30
0.0
 10
153.999580
 20
47.571803
 30
0.0
 10
154.012226
 20
47.699397
 30
0.0
 10
154.020489
 20
47.938206
 30
0.0
 10
154.030965
 20
48.272083
 30
0.0
 10
154.040146
 20
48.707658
 30
0.0
 10
154.048979
 20
49.248400
 30
0.0
 10
154.060751
 20
50.187169
 30
0.0
 10
154.073193
 20
51.643769
 30
0.0
 10
154.084869
 20
53.744277
 30
0.0
 10
154.098102
 20
57.536389
 30
0.0
 10
154.106042
 20
63.601459
 30
0.0
 10
154.106251
 20
72.572124
 30
0.0
 10
154.100092
 20
79.308099
 30
0.0
 10
154.096649
 20
83.073397
 30
0.0
 11
153.994666
 21
47.522216
 31
0.0
 11
154.008169
 21
47.671065
 31
0.0
 11
154.019267
 21
47.905927
 31
0.0
 11
154.029393
 21
48.237692
 31
0.0
 11
154.039105
 21
48.672811
 31
0.0
 11
154.048082
 21
49.212525
 31
0.0
 11
154.056402
 21
49.859919
 31
0.0
 11
154.071163
 21
51.489129
 31
0.0
 11
154.083322
 21
53.582321
 31
0.0
 11
154.092783
 21
56.161414
 31
0.0
 11
154.103845
 21
62.865468
 31
0.0
 11
154.105004
 21
71.777503
 31
0.0
 11
154.096649
 21
83.073397
 31
0.0
  0
SPLINE
  5
14f
100
AcDbEntity
  8
0
 62
7
100
AcDbSpline
 70
0
 71
3
 72
34
 73
30
 74
28
 40
0.000000
 40
0.000000
 40
0.000000
 40
0.000000
 40
1.113287
 40
2.137999
 40
3.103698
 40
4.043369
 40
4.995781
 40
6.008212
 40
6.215793
 40
6.448825
 40
6.786080
 40
7.310182
 40
8.108586
 40
9.267838
 40
13.013018
 40
19.230375
 40
28.603548
 40
32.931165
 40
36.830325
 40
40.141811
 40
41.527438
 40
42.706415
 40
43.658755
 40
44.043695
 40
44.364318
 40
44.617883
 40
44.646514
 40
44.669471
 40
44.694675
 40
44.694675
 40
44.694675
 40
44.694675
 10
153.759857
 20
118.409052
 30
0.0
 10
153.598391
 20
118.745362
 30
0.0
 10
153.288306
 20
119.391223
 30
0.0
 10
152.560548
 20
120.150508
 30
0.0
 10
151.712377
 20
120.659143
 30
0.0
 10
150.769760
 20
120.880844
 30
0.0
 10
149.787465
 20
120.798959
 30
0.0
 10
149.115282
 20
120.499920
 30
0.0
 10
148.701770
 20
120.248229
 30
0.0
 10
148.485963
 20
120.104119
 30
0.0
 10
148.198838
 20
119.878710
 30
0.0
 10
147.775301
 20
119.522773
 30
0.0
 10
147.151521
 20
118.979332
 30
0.0
 10
145.729376
 20
117.717960
 30
0.0
 10
142.973410
 20
115.238291
 30
0.0
 10
138.188528
 20
110.920224
 30
0.0
 10
133.263564
 20
106.467558
 30
0.0
 10
128.907448
 20
102.537944
 30
0.0
 10
126.045439
 20
99.968641
 30
0.0
 10
123.908825
 20
98.059305
 30
0.0
 10
122.444623
 20
96.758301
 30
0.0
 10
121.566368
 20
95.981774
 30
0.0
 10
120.936073
 20
95.428387
 30
0.0
 10
120.519267
 20
95.065510
 30
0.0
 10
120.277059
 20
94.856826
 30
0.0
 10
120.124473
 20
94.726076
 30
0.0
 10
120.046274
 20
94.661019
 30
0.0
 10
120.026207
 20
94.645124
 30
0.0
 10
120.013791
 20
94.634949
 30
0.0
 10
120.007293
 20
94.629623
 30
0.0
 11
153.759857
 21
118.409052
 31
0.0
 11
153.223608
 21
119.384678
 31
0.0
 11
152.517701
 21
120.127464
 31
0.0
 11
151.685083
 21
120.616668
 31
0.0
 11
150.770064
 21
120.830495
 31
0.0
 11
149.821049
 21
120.750118
 31
0.0
 11
148.887112
 21
120.359250
 31
0.0
 11
148.709712
 21
120.251459
 31
0.0
 11
148.516313
 21
120.121456
 31
0.0
 11
148.248807
 21
119.916074
 31
0.0
 11
147.846094
 21
119.580658
 31
0.0
 11
147.242861
 21
119.057629
 31
0.0
 11
146.374674
 21
118.289438
 31
0.0
 11
143.586485
 21
115.788963
 31
0.0
 11
138.969982
 21
111.624420
 31
0.0
 11
132.014414
 21
105.341390
 31
0.0
 11
128.800178
 21
102.443641
 31
0.0
 11
125.898603
 21
99.838970
 31
0.0
 11
123.428684
 21
97.633196
 31
0.0
 11
122.392725
 21
96.713004
 31
0.0
 11
121.509271
 21
95.932302
 31
0.0
 11
120.793324
 21
95.304312
 31
0.0
 11
120.502861
 21
95.051706
 31
0.0
 11
120.260019
 21
94.842357
 31
0.0
 11
120.066822
 21
94.678132
 31
0.0
 11
120.044740
 21
94.659908
 31
0.0
 11
120.026833
 21
94.645542
 31
0.0
 11
120.007293
 21
94.629623
 31
0.0
  0
SPLINE
  5
150
100
AcDbEntity
  8
0
 62
7
100
AcDbSpline
 70
0
 71
3
 72
52
 73
48
 74
46
 40
0.000000
 40
0.000000
 40
0.000000
 40
0.000000
 40
0.164650
 40
0.368095
 40
0.612717
 40
1.250876
 40
2.042386
 40
2.974927
 40
5.214593
 40
7.873622
 40
10.855736
 40
14.185557
 40
16.998376
 40
19.275649
 40
20.207622
 40
20.998859
 40
21.647340
 40
22.148516
 40
22.505225
 40
22.726826
 40
24.184016
 40
25.481853
 40
26.766943
 40
27.441370
 40
28.092374
 40
28.757492
 40
29.473499
 40
30.273190
 40
31.181989
 40
32.063084
 40
34.106850
 40
37.139358
 40
40.978846
 40
45.435536
 40
50.323463
 40
55.183470
 40
59.561843
 40
63.279962
 40
64.835610
 40
66.159152
 40
67.228170
 40
67.660233
 40
68.020127
 40
68.304844
 40
68.347764
 40
68.382469
 40
68.418754
 40
68.418754
 40
68.418754
 40
68.418754
 10
120.007293
 20
94.629623
 30
0.0
 10
120.005009
 20
94.684459
 30
0.0
 10
119.999904
 20
94.807052
 30
0.0
 10
119.993667
 20
95.011199
 30
0.0
 10
119.984509
 20
95.373159
 30
0.0
 10
119.974381
 20
95.931170
 30
0.0
 10
119.963482
 20
96.718498
 30
0.0
 10
119.949386
 20
98.039664
 30
0.0
 10
119.935673
 20
99.983367
 30
0.0
 10
119.925163
 20
102.610286
 30
0.0
 10
119.922735
 20
105.600608
 30
0.0
 10
119.921016
 20
108.642194
 30
0.0
 10
119.910201
 20
111.448817
 30
0.0
 10
119.895252
 20
113.456122
 30
0.0
 10
119.878905
 20
114.789524
 30
0.0
 10
119.865786
 20
115.579971
 30
0.0
 10
119.851424
 20
116.226812
 30
0.0
 10
119.835121
 20
116.728607
 30
0.0
 10
119.820951
 20
117.088314
 30
0.0
 10
119.752786
 20
117.763550
 30
0.0
 10
119.464150
 20
118.731188
 30
0.0
 10
118.713439
 20
119.877808
 30
0.0
 10
117.800126
 20
120.513898
 30
0.0
 10
116.977318
 20
120.812142
 30
0.0
 10
116.310477
 20
120.884073
 30
0.0
 10
115.633400
 20
120.789483
 30
0.0
 10
114.948873
 20
120.531041
 30
0.0
 10
114.250500
 20
120.118235
 30
0.0
 10
113.571814
 20
119.582113
 30
0.0
 10
112.627631
 20
118.720969
 30
0.0
 10
111.142917
 20
117.402210
 30
0.0
 10
108.933339
 20
115.414734
 30
0.0
 10
106.122167
 20
112.893380
 30
0.0
 10
102.852908
 20
109.956485
 30
0.0
 10
99.331825
 20
106.790888
 30
0.0
 10
95.828292
 20
103.644814
 30
0.0
 10
92.609165
 20
100.765654
 30
0.0
 10
90.206869
 20
98.625436
 30
0.0
 10
88.561437
 20
97.166459
 30
0.0
 10
87.574968
 20
96.295299
 30
0.0
 10
86.867447
 20
95.674077
 30
0.0
 10
86.399746
 20
95.266570
 30
0.0
 10
86.128190
 20
95.031922
 30
0.0
 10
85.954250
 20
94.882697
 30
0.0
 10
85.861832
 20
94.804932
 30
0.0
 10
85.832461
 20
94.780867
 30
0.0
 10
85.814237
 20
94.765772
 30
0.0
 10
85.804923
 20
94.758057
 30
0.0
 11
120.007293
 21
94.629623
 31
0.0
 11
120.000714
 21
94.794142
 31
0.0
 11
119.994248
 21
94.997484
 31
0.0
 11
119.987989
 21
95.242026
 31
0.0
 11
119.975718
 21
95.880067
 31
0.0
 11
119.964517
 21
96.671497
 31
0.0
 11
119.954365
 21
97.603983
 31
0.0
 11
119.937702
 21
99.843588
 31
0.0
 11
119.926926
 21
102.502595
 31
0.0
 11
119.922945
 21
105.484706
 31
0.0
 11
119.918940
 21
108.814525
 31
0.0
 11
119.907651
 21
111.627321
 31
0.0
 11
119.889321
 21
113.904521
 31
0.0
 11
119.877601
 21
114.836419
 31
0.0
 11
119.864184
 21
115.627543
 31
0.0
 11
119.849082
 21
116.275848
 31
0.0
 11
119.832883
 21
116.776762
 31
0.0
 11
119.814698
 21
117.133007
 31
0.0
 11
119.792307
 21
117.353474
 31
0.0
 11
119.380220
 21
118.751182
 31
0.0
 11
118.649399
 21
119.823693
 31
0.0
 11
117.599573
 21
120.564855
 31
0.0
 11
116.963135
 21
120.788012
 31
0.0
 11
116.315790
 21
120.856938
 31
0.0
 11
115.656538
 21
120.768803
 31
0.0
 11
114.983879
 21
120.523452
 31
0.0
 11
114.291648
 21
120.123050
 31
0.0
 11
113.571841
 21
119.568258
 31
0.0
 11
112.913203
 21
118.983002
 31
0.0
 11
111.390482
 21
117.619807
 31
0.0
 11
109.132906
 21
115.595097
 31
0.0
 11
106.275637
 21
113.030397
 31
0.0
 11
102.960027
 21
110.052343
 31
0.0
 11
99.324581
 21
106.785025
 31
0.0
 11
95.707710
 21
103.538809
 31
0.0
 11
92.444101
 21
100.620076
 31
0.0
 11
89.667289
 21
98.147481
 31
0.0
 11
88.503176
 21
97.115550
 31
0.0
 11
87.510913
 21
96.239663
 31
0.0
 11
86.707263
 21
95.534718
 31
0.0
 11
86.381397
 21
95.251012
 31
0.0
 11
86.109073
 21
95.015717
 31
0.0
 11
85.892567
 21
94.830817
 31
0.0
 11
85.859670
 21
94.803248
 31
0.0
 11
85.832887
 21
94.781178
 31
0.0
 11
85.804923
 21
94.758057
 31
0.0
  0
SPLINE
  5
151
100
AcDbEntity
  8
0
 62
7
100
AcDbSpline
 70
0
 71
3
 72
52
 73
48
 74
46
 40
0.000000
 40
0.000000
 40
0.000000
 40
0.000000
 40
0.166357
 40
0.371427
 40
0.617621
 40
1.259883
 40
2.053840
 40
2.985878
 40
5.210389
 40
7.826488
 40
10.727228
 40
13.859767
 40
16.605871
 40
18.904609
 40
19.867181
 40
20.695138
 40
21.380985
 40
21.914452
 40
22.293302
 40
22.522329
 40
23.039168
 40
23.566142
 40
24.005735
 40
25.357214
 40
26.690208
 40
27.962592
 40
28.476888
 40
29.026714
 40
29.672226
 40
30.472663
 40
31.486312
 40
32.766210
 40
36.315708
 40
43.194651
 40
51.914375
 40
56.320877
 40
60.289173
 40
63.657331
 40
65.065680
 40
66.263178
 40
67.229673
 40
67.620018
 40
67.944839
 40
68.201236
 40
68.226096
 40
68.245962
 40
68.268215
 40
68.268215
 40
68.268215
 40
68.268215
 10
85.804923
 20
94.758057
 30
0.0
 10
85.802830
 20
94.813470
 30
0.0
 10
85.798158
 20
94.937192
 30
0.0
 10
85.792559
 20
95.142992
 30
0.0
 10
85.784081
 20
95.507402
 30
0.0
 10
85.774284
 20
96.068125
 30
0.0
 10
85.763643
 20
96.857473
 30
0.0
 10
85.749973
 20
98.174239
 30
0.0
 10
85.736663
 20
100.098413
 30
0.0
 10
85.725948
 20
102.678845
 30
0.0
 10
85.723234
 20
105.561972
 30
0.0
 10
85.720708
 20
108.488433
 30
0.0
 10
85.709255
 20
111.214207
 30
0.0
 10
85.694227
 20
113.216629
 30
0.0
 10
85.678272
 20
114.579627
 30
0.0
 10
85.665707
 20
115.404993
 30
0.0
 10
85.652030
 20
116.087282
 30
0.0
 10
85.637298
 20
116.619812
 30
0.0
 10
85.623882
 20
117.000012
 30
0.0
 10
85.594231
 20
117.374081
 30
0.0
 10
85.505460
 20
117.790149
 30
0.0
 10
85.384201
 20
118.269408
 30
0.0
 10
85.131636
 20
119.001496
 30
0.0
 10
84.507300
 20
119.871193
 30
0.0
 10
83.414595
 20
120.647906
 30
0.0
 10
82.371039
 20
120.907238
 30
0.0
 10
81.590469
 20
120.835009
 30
0.0
 10
81.043315
 20
120.661463
 30
0.0
 10
80.455166
 20
120.345054
 30
0.0
 10
79.784714
 20
119.871361
 30
0.0
 10
78.984759
 20
119.219723
 30
0.0
 10
77.526079
 20
117.928863
 30
0.0
 10
74.629053
 20
115.313836
 30
0.0
 10
69.877020
 20
111.052614
 30
0.0
 10
64.920433
 20
106.591736
 30
0.0
 10
60.679843
 20
102.785602
 30
0.0
 10
57.760132
 20
100.178457
 30
0.0
 10
55.581125
 20
98.242274
 30
0.0
 10
54.088573
 20
96.924053
 30
0.0
 10
53.193967
 20
96.138150
 30
0.0
 10
52.552258
 20
95.578529
 30
0.0
 10
52.128012
 20
95.212144
 30
0.0
 10
51.881870
 20
95.001678
 30
0.0
 10
51.727595
 20
94.871234
 30
0.0
 10
51.650304
 20
94.807192
 30
0.0
 10
51.632954
 20
94.793141
 30
0.0
 10
51.622088
 20
94.784251
 30
0.0
 10
51.616348
 20
94.779554
 30
0.0
 11
85.804923
 21
94.758057
 31
0.0
 11
85.798907
 21
94.924305
 31
0.0
 11
85.793055
 21
95.129292
 31
0.0
 11
85.787284
 21
95.375418
 31
0.0
 11
85.775549
 21
96.017573
 31
0.0
 11
85.764641
 21
96.811455
 31
0.0
 11
85.754763
 21
97.743440
 31
0.0
 11
85.738508
 21
99.967892
 31
0.0
 11
85.727670
 21
102.583968
 31
0.0
 11
85.723343
 21
105.484706
 31
0.0
 11
85.718739
 21
108.617241
 31
0.0
 11
85.706983
 21
111.363319
 31
0.0
 11
85.688616
 21
113.661984
 31
0.0
 11
85.677140
 21
114.624488
 31
0.0
 11
85.664258
 21
115.452344
 31
0.0
 11
85.650033
 21
116.138044
 31
0.0
 11
85.635081
 21
116.671302
 31
0.0
 11
85.618672
 21
117.049796
 31
0.0
 11
85.598768
 21
117.277957
 31
0.0
 11
85.503095
 21
117.785863
 31
0.0
 11
85.369240
 21
118.295554
 31
0.0
 11
85.221185
 21
118.709464
 31
0.0
 11
84.451686
 21
119.820486
 31
0.0
 11
83.358060
 21
120.582623
 31
0.0
 11
82.117844
 21
120.866920
 31
0.0
 11
81.605827
 21
120.818559
 31
0.0
 11
81.080348
 21
120.656753
 31
0.0
 11
80.507194
 21
120.359804
 31
0.0
 11
79.847789
 21
119.906058
 31
0.0
 11
79.057589
 21
119.271181
 31
0.0
 11
78.093420
 21
118.429446
 31
0.0
 11
75.451974
 21
116.058435
 31
0.0
 11
70.335082
 21
111.460905
 31
0.0
 11
63.850018
 21
105.631882
 31
0.0
 11
60.569822
 21
102.689505
 31
0.0
 11
57.609753
 21
100.046521
 31
0.0
 11
55.091209
 21
97.810135
 31
0.0
 11
54.035449
 21
96.878031
 31
0.0
 11
53.135590
 21
96.087933
 31
0.0
 11
52.406790
 21
95.453139
 31
0.0
 11
52.111254
 21
95.198133
 31
0.0
 11
51.864317
 21
94.987110
 31
0.0
 11
51.668161
 21
94.821997
 31
0.0
 11
51.648990
 21
94.806170
 31
0.0
 11
51.633582
 21
94.793629
 31
0.0
 11
51.616348
 21
94.779554
 31
0.0
  0
LINE
  5
152
100
AcDbEntity
  8
0
 62
7
100
AcDbLine
 10
37.528937
 20
151.678201
 30
0.0
 11
37.528940
 21
151.678156
 31
0.0
  0
SPLINE
  5
153
100
AcDbEntity
  8
0
 62
7
100
AcDbSpline
 70
0
 71
3
 72
37
 73
33
 74
31
 40
0.000000
 40
0.000000
 40
0.000000
 40
0.000000
 40
0.084648
 40
0.177681
 40
0.291131
 40
0.709292
 40
1.236458
 40
1.868286
 40
3.429469
 40
5.360440
 40
7.628613
 40
13.046358
 40
19.422364
 40
26.496250
 40
44.545549
 40
52.063522
 40
54.002229
 40
54.815659
 40
55.519283
 40
56.162797
 40
56.804842
 40
57.504213
 40
58.310910
 40
58.583911
 40
59.009014
 40
59.582825
 40
60.295401
 40
61.129189
 40
62.068946
 40
64.205455
 40
66.582754
 40
69.078427
 40
69.078427
 40
69.078427
 40
69.078427
 10
51.616348
 20
94.779554
 30
0.0
 10
51.615562
 20
94.807759
 30
0.0
 10
51.613912
 20
94.866963
 30
0.0
 10
51.611283
 20
94.963971
 30
0.0
 10
51.607089
 20
95.172145
 30
0.0
 10
51.601920
 20
95.525034
 30
0.0
 10
51.595314
 20
96.050711
 30
0.0
 10
51.586025
 20
96.957390
 30
0.0
 10
51.575124
 20
98.332009
 30
0.0
 10
51.562966
 20
100.252078
 30
0.0
 10
51.546044
 20
103.457675
 30
0.0
 10
51.526935
 20
108.144831
 30
0.0
 10
51.509550
 20
114.434598
 30
0.0
 10
51.483764
 20
124.930549
 30
0.0
 10
51.522348
 20
135.839425
 30
0.0
 10
51.395898
 20
144.957784
 30
0.0
 10
51.387775
 20
148.422453
 30
0.0
 10
51.013025
 20
149.519645
 30
0.0
 10
50.694687
 20
150.169124
 30
0.0
 10
50.266496
 20
150.685393
 30
0.0
 10
49.718423
 20
151.069560
 30
0.0
 10
49.047978
 20
151.330995
 30
0.0
 10
48.469914
 20
151.474721
 30
0.0
 10
47.971016
 20
151.530134
 30
0.0
 10
47.547452
 20
151.551260
 30
0.0
 10
46.977446
 20
151.574037
 30
0.0
 10
46.270993
 20
151.594583
 30
0.0
 10
45.442501
 20
151.613340
 30
0.0
 10
44.139341
 20
151.636132
 30
0.0
 10
42.321598
 20
151.657206
 30
0.0
 10
39.985151
 20
151.673517
 30
0.0
 10
38.360828
 20
151.676615
 30
0.0
 10
37.528937
 20
151.678201
 30
0.0
 11
51.616348
 21
94.779554
 31
0.0
 11
51.614000
 21
94.864169
 31
0.0
 11
51.611564
 21
94.957171
 31
0.0
 11
51.609179
 21
95.070595
 31
0.0
 11
51.602580
 21
95.488704
 31
0.0
 11
51.595938
 21
96.015828
 31
0.0
 11
51.589339
 21
96.647622
 31
0.0
 11
51.576474
 21
98.208752
 31
0.0
 11
51.563989
 21
100.139683
 31
0.0
 11
51.551854
 21
102.407823
 31
0.0
 11
51.529326
 21
107.825521
 31
0.0
 11
51.510503
 21
114.201500
 31
0.0
 11
51.496733
 21
121.275372
 31
0.0
 11
51.461158
 21
139.324636
 31
0.0
 11
51.392998
 21
146.842300
 31
0.0
 11
51.239866
 21
148.774950
 31
0.0
 11
50.984152
 21
149.547140
 31
0.0
 11
50.660869
 21
150.172101
 31
0.0
 11
50.246576
 21
150.664515
 31
0.0
 11
49.723192
 21
151.036389
 31
0.0
 11
49.077313
 21
151.304644
 31
0.0
 11
48.292518
 21
151.491339
 31
0.0
 11
48.021287
 21
151.522375
 31
0.0
 11
47.596967
 21
151.548193
 31
0.0
 11
47.023621
 21
151.571264
 31
0.0
 11
46.311367
 21
151.592703
 31
0.0
 11
45.477800
 21
151.611868
 31
0.0
 11
44.538192
 21
151.628592
 31
0.0
 11
42.401843
 21
151.654721
 31
0.0
 11
40.024601
 21
151.671280
 31
0.0
 11
37.528937
 21
151.678201
 31
0.0
  0
LINE
  5
154
100
AcDbEntity
  8
0
 62
7
100
AcDbLine
 10
153.497971
 20
118.303197
 30
0.0
 11
153.778543
 21
117.607011
 31
0.0
  0
LINE
  5
155
100
AcDbEntity
  8
0
 62
7
100
AcDbLine
 10
153.778543
 20
117.607011
 30
0.0
 11
153.814371
 21
83.072821
 31
0.0
  0
SPLINE
  5
156
100
AcDbEntity
  8
0
 62
7
100
AcDbSpline
 70
0
 71
3
 72
250
 73
246
 74
244
 40
0.000000
 40
0.000000
 40
0.000000
 40
0.000000
 40
2.494665
 40
4.870833
 40
7.005624
 40
7.944157
 40
8.776214
 40
9.486219
 40
10.061092
 40
10.480493
 40
10.718141
 40
11.486678
 40
12.131283
 40
12.706454
 40
13.283246
 40
13.932485
 40
14.708251
 40
16.580111
 40
24.086605
 40
42.140519
 40
49.214699
 40
55.591067
 40
61.009257
 40
63.277641
 40
65.208905
 40
66.770684
 40
67.402921
 40
67.930710
 40
68.350043
 40
68.517725
 40
68.656902
 40
68.767436
 40
68.811861
 40
68.849243
 40
68.879998
 40
68.893038
 40
68.904998
 40
68.916530
 40
68.922350
 40
68.928927
 40
68.937209
 40
68.942431
 40
68.949052
 40
68.957807
 40
68.978661
 40
69.007043
 40
69.021473
 40
69.045482
 40
69.089857
 40
69.113923
 40
69.123748
 40
69.143679
 40
69.160284
 40
69.177898
 40
69.190112
 40
69.199275
 40
69.213823
 40
69.225424
 40
69.236086
 40
69.258590
 40
69.283465
 40
69.311844
 40
69.381246
 40
69.467637
 40
69.571322
 40
69.830443
 40
70.156691
 40
70.547967
 40
71.516186
 40
72.715011
 40
74.124198
 40
77.493218
 40
81.462056
 40
85.869077
 40
94.588968
 40
101.467859
 40
105.016097
 40
106.288052
 40
107.286361
 40
108.059499
 40
108.659979
 40
109.153547
 40
109.614491
 40
110.766847
 40
111.999150
 40
113.243828
 40
113.644732
 40
114.153899
 40
114.650005
 40
114.845517
 40
115.221234
 40
115.757538
 40
116.441551
 40
117.268326
 40
118.230053
 40
120.527540
 40
123.272813
 40
126.404680
 40
129.306161
 40
131.923142
 40
134.148788
 40
135.081490
 40
135.876418
 40
136.520349
 40
136.781503
 40
137.000105
 40
137.174920
 40
137.245530
 40
137.305057
 40
137.353830
 40
137.374328
 40
137.392898
 40
137.410451
 40
137.419210
 40
137.428938
 40
137.440854
 40
137.448154
 40
137.457267
 40
137.469332
 40
137.476951
 40
137.486148
 40
137.497356
 40
137.516289
 40
137.538708
 40
137.549682
 40
137.569353
 40
137.608839
 40
137.639831
 40
137.655400
 40
137.666981
 40
137.675914
 40
137.689365
 40
137.698903
 40
137.706311
 40
137.718701
 40
137.729332
 40
137.739802
 40
137.763168
 40
137.790071
 40
137.821175
 40
137.897625
 40
137.993281
 40
138.108146
 40
138.394959
 40
138.755935
 40
139.188708
 40
140.258996
 40
141.583434
 40
143.139661
 40
146.858470
 40
151.237291
 40
156.097716
 40
160.985640
 40
165.442377
 40
169.281824
 40
172.321541
 40
174.371131
 40
175.232552
 40
176.108698
 40
176.865324
 40
177.526755
 40
178.127145
 40
178.710864
 40
179.324016
 40
180.514244
 40
181.716147
 40
183.094947
 40
183.282229
 40
183.633970
 40
184.136672
 40
184.782977
 40
185.572911
 40
186.503955
 40
188.779695
 40
191.591456
 40
194.920561
 40
197.903389
 40
200.563277
 40
202.804127
 40
203.737455
 40
204.530143
 40
205.170203
 40
205.429307
 40
205.646068
 40
205.819299
 40
205.889185
 40
205.948122
 40
205.996628
 40
206.017154
 40
206.035891
 40
206.053803
 40
206.062756
 40
206.072741
 40
206.085111
 40
206.092694
 40
206.102067
 40
206.114329
 40
206.122021
 40
206.131211
 40
206.142184
 40
206.160042
 40
206.180860
 40
206.191020
 40
206.208375
 40
206.243544
 40
206.272187
 40
206.287888
 40
206.300049
 40
206.309636
 40
206.324081
 40
206.334377
 40
206.342356
 40
206.355435
 40
206.366255
 40
206.376508
 40
206.398534
 40
206.423182
 40
206.451376
 40
206.520282
 40
206.606010
 40
206.708711
 40
206.964889
 40
207.287020
 40
207.672923
 40
208.626735
 40
209.806703
 40
211.192980
 40
214.505208
 40
218.404758
 40
222.732797
 40
232.106102
 40
238.323148
 40
242.066583
 40
243.224133
 40
244.018711
 40
244.534589
 40
244.855627
 40
245.071443
 40
245.274545
 40
246.202125
 40
247.066296
 40
247.919504
 40
248.804147
 40
249.753395
 40
250.796925
 40
250.796925
 40
250.796925
 40
250.796925
 10
37.528376
 20
151.395934
 30
0.0
 10
38.359931
 20
151.394365
 30
0.0
 10
39.983541
 20
151.391302
 30
0.0
 10
42.318702
 20
151.374981
 30
0.0
 10
44.135086
 20
151.353790
 30
0.0
 10
45.436689
 20
151.331194
 30
0.0
 10
46.263345
 20
151.312585
 30
0.0
 10
46.968725
 20
151.292598
 30
0.0
 10
47.536322
 20
151.268798
 30
0.0
 10
47.946404
 20
151.246550
 30
0.0
 10
48.419461
 20
151.198183
 30
0.0
 10
48.955585
 20
151.062314
 30
0.0
 10
49.576906
 20
150.822808
 30
0.0
 10
50.073363
 20
150.475423
 30
0.0
 10
50.460587
 20
150.007502
 30
0.0
 10
50.753948
 20
149.405001
 30
0.0
 10
51.111568
 20
148.358067
 30
0.0
 10
51.091016
 20
144.930548
 30
0.0
 10
51.255259
 20
135.839561
 30
0.0
 10
51.199543
 20
124.931196
 30
0.0
 10
51.227612
 20
114.433711
 30
0.0
 10
51.244639
 20
108.143543
 30
0.0
 10
51.263823
 20
103.456054
 30
0.0
 10
51.280722
 20
100.250140
 30
0.0
 10
51.292874
 20
98.329704
 30
0.0
 10
51.303778
 20
96.954652
 30
0.0
 10
51.313104
 20
96.047431
 30
0.0
 10
51.319627
 20
95.521018
 30
0.0
 10
51.325262
 20
95.149459
 30
0.0
 10
51.329931
 20
94.907439
 30
0.0
 10
51.333199
 20
94.768346
 30
0.0
 10
51.336037
 20
94.670341
 30
0.0
 10
51.338393
 20
94.606270
 30
0.0
 10
51.339956
 20
94.568782
 30
0.0
 10
51.341417
 20
94.541762
 30
0.0
 10
51.342707
 20
94.523221
 30
0.0
 10
51.343836
 20
94.511094
 30
0.0
 10
51.344947
 20
94.501387
 30
0.0
 10
51.345809
 20
94.493456
 30
0.0
 10
51.346961
 20
94.486657
 30
0.0
 10
51.348174
 20
94.480072
 30
0.0
 10
51.349754
 20
94.473550
 30
0.0
 10
51.351494
 20
94.466914
 30
0.0
 10
51.354832
 20
94.455261
 30
0.0
 10
51.365477
 20
94.438764
 30
0.0
 10
51.377436
 20
94.421679
 30
0.0
 10
51.388103
 20
94.401147
 30
0.0
 10
51.416680
 20
94.393099
 30
0.0
 10
51.443235
 20
94.380170
 30
0.0
 10
51.465839
 20
94.363973
 30
0.0
 10
51.484091
 20
94.365317
 30
0.0
 10
51.499420
 20
94.365107
 30
0.0
 10
51.517542
 20
94.366173
 30
0.0
 10
51.532570
 20
94.370139
 30
0.0
 10
51.544852
 20
94.374434
 30
0.0
 10
51.555675
 20
94.379579
 30
0.0
 10
51.566259
 20
94.384739
 30
0.0
 10
51.576830
 20
94.390990
 30
0.0
 10
51.589344
 20
94.399119
 30
0.0
 10
51.605296
 20
94.410074
 30
0.0
 10
51.625600
 20
94.425094
 30
0.0
 10
51.658091
 20
94.449913
 30
0.0
 10
51.706334
 20
94.487884
 30
0.0
 10
51.773541
 20
94.542331
 30
0.0
 10
51.888946
 20
94.637736
 30
0.0
 10
52.064445
 20
94.785916
 30
0.0
 10
52.311820
 20
94.997547
 30
0.0
 10
52.737111
 20
95.364804
 30
0.0
 10
53.379766
 20
95.925360
 30
0.0
 10
54.275250
 20
96.712227
 30
0.0
 10
55.768515
 20
98.031165
 30
0.0
 10
57.948023
 20
99.967910
 30
0.0
 10
60.868009
 20
102.575709
 30
0.0
 10
65.108815
 20
106.382213
 30
0.0
 10
70.065595
 20
110.843203
 30
0.0
 10
74.817662
 20
115.103787
 30
0.0
 10
77.712201
 20
117.717013
 30
0.0
 10
79.165118
 20
119.001988
 30
0.0
 10
79.951706
 20
119.643395
 30
0.0
 10
80.598038
 20
120.100314
 30
0.0
 10
81.146594
 20
120.399416
 30
0.0
 10
81.644105
 20
120.558273
 30
0.0
 10
82.348543
 20
120.620254
 30
0.0
 10
83.298089
 20
120.374841
 30
0.0
 10
84.297495
 20
119.662463
 30
0.0
 10
84.882063
 20
118.866508
 30
0.0
 10
85.111922
 20
118.184049
 30
0.0
 10
85.226846
 20
117.730054
 30
0.0
 10
85.315228
 20
117.338120
 30
0.0
 10
85.339609
 20
116.982836
 30
0.0
 10
85.354528
 20
116.614039
 30
0.0
 10
85.369959
 20
116.082201
 30
0.0
 10
85.383377
 20
115.399979
 30
0.0
 10
85.396069
 20
114.575898
 30
0.0
 10
85.411969
 20
113.213994
 30
0.0
 10
85.427050
 20
111.212547
 30
0.0
 10
85.438539
 20
108.487692
 30
0.0
 10
85.441008
 20
105.561484
 30
0.0
 10
85.443622
 20
102.678040
 30
0.0
 10
85.454393
 20
100.096689
 30
0.0
 10
85.467732
 20
98.171621
 30
0.0
 10
85.481421
 20
96.853933
 30
0.0
 10
85.491990
 20
96.063482
 30
0.0
 10
85.501987
 20
95.496895
 30
0.0
 10
85.510580
 20
95.122430
 30
0.0
 10
85.516614
 20
94.904323
 30
0.0
 10
85.522082
 20
94.749741
 30
0.0
 10
85.526843
 20
94.648199
 30
0.0
 10
85.530307
 20
94.588664
 30
0.0
 10
85.533291
 20
94.545829
 30
0.0
 10
85.536122
 20
94.516686
 30
0.0
 10
85.538202
 20
94.497924
 30
0.0
 10
85.540413
 20
94.483125
 30
0.0
 10
85.542234
 20
94.471252
 30
0.0
 10
85.543987
 20
94.461265
 30
0.0
 10
85.546419
 20
94.451916
 30
0.0
 10
85.549268
 20
94.442912
 30
0.0
 10
85.552624
 20
94.434024
 30
0.0
 10
85.556668
 20
94.425310
 30
0.0
 10
85.561144
 20
94.416781
 30
0.0
 10
85.566088
 20
94.408852
 30
0.0
 10
85.573499
 20
94.397997
 30
0.0
 10
85.586290
 20
94.385806
 30
0.0
 10
85.599694
 20
94.374898
 30
0.0
 10
85.612566
 20
94.362214
 30
0.0
 10
85.636747
 20
94.358687
 30
0.0
 10
85.664689
 20
94.349429
 30
0.0
 10
85.693411
 20
94.343097
 30
0.0
 10
85.712659
 20
94.346338
 30
0.0
 10
85.724441
 20
94.348743
 30
0.0
 10
85.735236
 20
94.352200
 30
0.0
 10
85.745200
 20
94.355965
 30
0.0
 10
85.754304
 20
94.360443
 30
0.0
 10
85.762798
 20
94.365288
 30
0.0
 10
85.771583
 20
94.370365
 30
0.0
 10
85.780870
 20
94.376570
 30
0.0
 10
85.792991
 20
94.385100
 30
0.0
 10
85.809298
 20
94.397106
 30
0.0
 10
85.830705
 20
94.413765
 30
0.0
 10
85.865813
 20
94.441626
 30
0.0
 10
85.918431
 20
94.484285
 30
0.0
 10
85.992083
 20
94.545325
 30
0.0
 10
86.118893
 20
94.652105
 30
0.0
 10
86.311958
 20
94.817496
 30
0.0
 10
86.584312
 20
95.053205
 30
0.0
 10
87.052754
 20
95.461414
 30
0.0
 10
87.761054
 20
96.083202
 30
0.0
 10
88.748284
 20
96.954883
 30
0.0
 10
90.394301
 20
98.414287
 30
0.0
 10
92.796981
 20
100.554934
 30
0.0
 10
96.016472
 20
103.434466
 30
0.0
 10
99.520204
 20
106.580748
 30
0.0
 10
103.041407
 20
109.746443
 30
0.0
 10
106.310656
 20
112.683350
 30
0.0
 10
109.123647
 20
115.206276
 30
0.0
 10
111.336369
 20
117.196740
 30
0.0
 10
112.819998
 20
118.513380
 30
0.0
 10
113.752164
 20
119.364727
 30
0.0
 10
114.405959
 20
119.880933
 30
0.0
 10
115.066417
 20
120.272203
 30
0.0
 10
115.699583
 20
120.512139
 30
0.0
 10
116.314071
 20
120.600687
 30
0.0
 10
116.916524
 20
120.535619
 30
0.0
 10
117.667033
 20
120.258771
 30
0.0
 10
118.514271
 20
119.678262
 30
0.0
 10
119.210473
 20
118.604557
 30
0.0
 10
119.479617
 20
117.704024
 30
0.0
 10
119.537243
 20
117.067230
 30
0.0
 10
119.552263
 20
116.720221
 30
0.0
 10
119.569389
 20
116.220294
 30
0.0
 10
119.583409
 20
115.574106
 30
0.0
 10
119.596672
 20
114.785129
 30
0.0
 10
119.612996
 20
113.452982
 30
0.0
 10
119.627925
 20
111.446850
 30
0.0
 10
119.638747
 20
108.641330
 30
0.0
 10
119.640493
 20
105.600097
 30
0.0
 10
119.642899
 20
102.609489
 30
0.0
 10
119.653455
 20
99.981651
 30
0.0
 10
119.667052
 20
98.037004
 30
0.0
 10
119.681349
 20
96.714791
 30
0.0
 10
119.692448
 20
95.926176
 30
0.0
 10
119.703049
 20
95.362321
 30
0.0
 10
119.712129
 20
94.990455
 30
0.0
 10
119.718507
 20
94.774184
 30
0.0
 10
119.724244
 20
94.620993
 30
0.0
 10
119.729469
 20
94.520443
 30
0.0
 10
119.733284
 20
94.461453
 30
0.0
 10
119.736831
 20
94.418942
 30
0.0
 10
119.739504
 20
94.389809
 30
0.0
 10
119.741500
 20
94.370852
 30
0.0
 10
119.743732
 20
94.355813
 30
0.0
 10
119.745947
 20
94.343725
 30
0.0
 10
119.748588
 20
94.333621
 30
0.0
 10
119.751489
 20
94.324072
 30
0.0
 10
119.754542
 20
94.314785
 30
0.0
 10
119.757955
 20
94.305655
 30
0.0
 10
119.762239
 20
94.296851
 30
0.0
 10
119.767026
 20
94.288391
 30
0.0
 10
119.772170
 20
94.280658
 30
0.0
 10
119.779626
 20
94.270378
 30
0.0
 10
119.791804
 20
94.258998
 30
0.0
 10
119.804414
 20
94.248897
 30
0.0
 10
119.816279
 20
94.237576
 30
0.0
 10
119.837497
 20
94.233373
 30
0.0
 10
119.862538
 20
94.224271
 30
0.0
 10
119.888790
 20
94.217941
 30
0.0
 10
119.907662
 20
94.219664
 30
0.0
 10
119.919985
 20
94.221684
 30
0.0
 10
119.931645
 20
94.224822
 30
0.0
 10
119.942575
 20
94.228247
 30
0.0
 10
119.952620
 20
94.232542
 30
0.0
 10
119.961894
 20
94.237363
 30
0.0
 10
119.971283
 20
94.242346
 30
0.0
 10
119.980959
 20
94.248358
 30
0.0
 10
119.992859
 20
94.256407
 30
0.0
 10
120.008378
 20
94.267331
 30
0.0
 10
120.028355
 20
94.282293
 30
0.0
 10
120.060435
 20
94.307150
 30
0.0
 10
120.107993
 20
94.345263
 30
0.0
 10
120.174282
 20
94.399705
 30
0.0
 10
120.287970
 20
94.494782
 30
0.0
 10
120.460741
 20
94.642030
 30
0.0
 10
120.704067
 20
94.852014
 30
0.0
 10
121.121942
 20
95.215664
 30
0.0
 10
121.753011
 20
95.769902
 30
0.0
 10
122.631988
 20
96.547179
 30
0.0
 10
124.096740
 20
97.848759
 30
0.0
 10
126.233808
 20
99.758479
 30
0.0
 10
129.096161
 20
102.328175
 30
0.0
 10
133.452491
 20
106.258019
 30
0.0
 10
138.377571
 20
110.710682
 30
0.0
 10
143.162148
 20
115.028120
 30
0.0
 10
145.917311
 20
117.506823
 30
0.0
 10
147.337621
 20
118.766593
 30
0.0
 10
147.957548
 20
119.307497
 30
0.0
 10
148.373852
 20
119.657362
 30
0.0
 10
148.649498
 20
119.874919
 30
0.0
 10
148.855009
 20
120.011698
 30
0.0
 10
149.238724
 20
120.243988
 30
0.0
 10
149.854251
 20
120.521961
 30
0.0
 10
150.749399
 20
120.596444
 30
0.0
 10
151.606915
 20
120.392196
 30
0.0
 10
152.384624
 20
119.925677
 30
0.0
 10
153.058359
 20
119.220773
 30
0.0
 10
153.346884
 20
118.618553
 30
0.0
 10
153.497971
 20
118.303197
 30
0.0
 11
37.528376
 21
151.395934
 31
0.0
 11
40.023032
 21
151.389054
 31
0.0
 11
42.399141
 21
151.372467
 31
0.0
 11
44.533772
 21
151.346325
 31
0.0
 11
45.472158
 21
151.329724
 31
0.0
 11
46.304000
 21
151.310799
 31
0.0
 11
47.013687
 21
151.289547
 31
0.0
 11
47.588047
 21
151.265266
 31
0.0
 11
48.006626
 21
151.239020
 31
0.0
 11
48.242897
 21
151.213480
 31
0.0
 11
48.990701
 21
151.036168
 31
0.0
 11
49.586289
 21
150.789610
 31
0.0
 11
50.055295
 21
150.456661
 31
0.0
 11
50.426443
 21
150.015144
 31
0.0
 11
50.724143
 21
149.438181
 31
0.0
 11
50.967555
 21
148.701592
 31
0.0
 11
51.105414
 21
146.834815
 31
0.0
 11
51.175147
 21
139.328645
 31
0.0
 11
51.214500
 21
121.274774
 31
0.0
 11
51.228276
 21
114.200607
 31
0.0
 11
51.247095
 21
107.824267
 31
0.0
 11
51.269621
 21
102.406124
 31
0.0
 11
51.281746
 21
100.137772
 31
0.0
 11
51.294224
 21
98.206548
 31
0.0
 11
51.307105
 21
96.644823
 31
0.0
 11
51.313704
 21
96.012620
 31
0.0
 11
51.320347
 21
95.484873
 31
0.0
 11
51.326946
 21
95.065592
 31
0.0
 11
51.330242
 21
94.897942
 31
0.0
 11
51.333564
 21
94.758805
 31
0.0
 11
51.336880
 21
94.648320
 31
0.0
 11
51.338519
 21
94.603926
 31
0.0
 11
51.340133
 21
94.566579
 31
0.0
 11
51.341847
 21
94.535872
 31
0.0
 11
51.342785
 21
94.522866
 31
0.0
 11
51.343891
 21
94.510957
 31
0.0
 11
51.345149
 21
94.499493
 31
0.0
 11
51.345836
 21
94.493714
 31
0.0
 11
51.346880
 21
94.487220
 31
0.0
 11
51.348451
 21
94.479089
 31
0.0
 11
51.349658
 21
94.474008
 31
0.0
 11
51.351336
 21
94.467603
 31
0.0
 11
51.353954
 21
94.459249
 31
0.0
 11
51.364133
 21
94.441048
 31
0.0
 11
51.379526
 21
94.417203
 31
0.0
 11
51.387578
 21
94.405228
 31
0.0
 11
51.409165
 21
94.394719
 31
0.0
 11
51.449114
 21
94.375399
 31
0.0
 11
51.470811
 21
94.364989
 31
0.0
 11
51.480637
 21
94.364969
 31
0.0
 11
51.500564
 21
94.365355
 31
0.0
 11
51.517115
 21
94.366682
 31
0.0
 11
51.534227
 21
94.370857
 31
0.0
 11
51.545718
 21
94.375001
 31
0.0
 11
51.554047
 21
94.378818
 31
0.0
 11
51.567040
 21
94.385361
 31
0.0
 11
51.577054
 21
94.391221
 31
0.0
 11
51.586017
 21
94.396993
 31
0.0
 11
51.604572
 21
94.409729
 31
0.0
 11
51.624625
 21
94.424447
 31
0.0
 11
51.647200
 21
94.441644
 31
0.0
 11
51.701793
 21
94.484494
 31
0.0
 11
51.768980
 21
94.538803
 31
0.0
 11
51.848947
 21
94.604802
 31
0.0
 11
52.047187
 21
94.771669
 31
0.0
 11
52.295200
 21
94.983629
 31
0.0
 11
52.591434
 21
95.239251
 31
0.0
 11
53.321490
 21
95.875228
 31
0.0
 11
54.222264
 21
96.666294
 31
0.0
 11
55.278607
 21
97.599005
 31
0.0
 11
57.797710
 21
99.836059
 31
0.0
 11
60.758024
 21
102.479583
 31
0.0
 11
64.038520
 21
105.422402
 31
0.0
 11
70.523788
 21
111.251450
 31
0.0
 11
75.640785
 21
115.848783
 31
0.0
 11
78.281372
 21
118.218866
 31
0.0
 11
79.239685
 21
119.055230
 31
0.0
 11
80.017800
 21
119.680658
 31
0.0
 11
80.654353
 21
120.119455
 31
0.0
 11
81.186624
 21
120.397417
 31
0.0
 11
81.658221
 21
120.543041
 31
0.0
 11
82.117280
 21
120.584681
 31
0.0
 11
83.238936
 21
120.320459
 31
0.0
 11
84.249796
 21
119.615667
 31
0.0
 11
84.962653
 21
118.595345
 31
0.0
 11
85.095967
 21
118.217255
 31
0.0
 11
85.225818
 21
117.724924
 31
0.0
 11
85.319289
 21
117.237703
 31
0.0
 11
85.334865
 21
117.042813
 31
0.0
 11
85.351776
 21
116.667477
 31
0.0
 11
85.367797
 21
116.131412
 31
0.0
 11
85.382001
 21
115.447546
 31
0.0
 11
85.394902
 21
114.620872
 31
0.0
 11
85.406380
 21
113.659213
 31
0.0
 11
85.424767
 21
111.361800
 31
0.0
 11
85.436554
 21
108.616552
 31
0.0
 11
85.441107
 21
105.484689
 31
0.0
 11
85.445369
 21
102.583211
 31
0.0
 11
85.456237
 21
99.966252
 31
0.0
 11
85.472527
 21
97.740666
 31
0.0
 11
85.482399
 21
96.808016
 31
0.0
 11
85.493288
 21
96.013163
 31
0.0
 11
85.505047
 21
95.369339
 31
0.0
 11
85.511129
 21
95.108256
 31
0.0
 11
85.517329
 21
94.889741
 31
0.0
 11
85.523787
 21
94.715046
 31
0.0
 11
85.527160
 21
94.644517
 31
0.0
 11
85.530640
 21
94.585091
 31
0.0
 11
85.534257
 21
94.536453
 31
0.0
 11
85.536233
 21
94.516050
 31
0.0
 11
85.538359
 21
94.497603
 31
0.0
 11
85.540861
 21
94.480229
 31
0.0
 11
85.542215
 21
94.471575
 31
0.0
 11
85.543976
 21
94.462008
 31
0.0
 11
85.546929
 21
94.450463
 31
0.0
 11
85.549142
 21
94.443507
 31
0.0
 11
85.552364
 21
94.434983
 31
0.0
 11
85.557400
 21
94.424019
 31
0.0
 11
85.560973
 21
94.417289
 31
0.0
 11
85.565783
 21
94.409450
 31
0.0
 11
85.572273
 21
94.400312
 31
0.0
 11
85.585553
 21
94.386818
 31
0.0
 11
85.602421
 21
94.372052
 31
0.0
 11
85.610858
 21
94.365034
 31
0.0
 11
85.629688
 21
94.359340
 31
0.0
 11
85.667849
 21
94.349200
 31
0.0
 11
85.698502
 21
94.344630
 31
0.0
 11
85.713939
 21
94.346657
 31
0.0
 11
85.725248
 21
94.349149
 31
0.0
 11
85.733780
 21
94.351798
 31
0.0
 11
85.746322
 21
94.356658
 31
0.0
 11
85.754888
 21
94.360852
 31
0.0
 11
85.761353
 21
94.364470
 31
0.0
 11
85.772015
 21
94.370781
 31
0.0
 11
85.780889
 21
94.376635
 31
0.0
 11
85.789462
 21
94.382645
 31
0.0
 11
85.808289
 21
94.396484
 31
0.0
 11
85.829576
 21
94.412936
 31
0.0
 11
85.853953
 21
94.432254
 31
0.0
 11
85.913380
 21
94.480347
 31
0.0
 11
85.987080
 21
94.541326
 31
0.0
 11
86.074989
 21
94.615258
 31
0.0
 11
86.293044
 21
94.801575
 31
0.0
 11
86.566094
 21
95.037684
 31
0.0
 11
86.892443
 21
95.321917
 31
0.0
 11
87.697086
 21
96.027656
 31
0.0
 11
88.690090
 21
96.904057
 31
0.0
 11
89.854673
 21
97.936331
 31
0.0
 11
92.631984
 21
100.409402
 31
0.0
 11
95.895900
 21
103.328465
 31
0.0
 11
99.513068
 21
106.574975
 31
0.0
 11
103.148510
 21
109.842292
 31
0.0
 11
106.464156
 21
112.820378
 31
0.0
 11
109.321394
 21
115.385050
 31
0.0
 11
111.584464
 21
117.414433
 31
0.0
 11
113.111642
 21
118.781381
 31
0.0
 11
113.755368
 21
119.353800
 31
0.0
 11
114.449397
 21
119.888549
 31
0.0
 11
115.104241
 21
120.267576
 31
0.0
 11
115.725411
 21
120.494816
 31
0.0
 11
116.320306
 21
120.575860
 31
0.0
 11
116.900735
 21
120.513975
 31
0.0
 11
117.478827
 21
120.309607
 31
0.0
 11
118.453362
 21
119.626289
 31
0.0
 11
119.128897
 21
118.632195
 31
0.0
 11
119.513914
 21
117.308242
 31
0.0
 11
119.531284
 21
117.121768
 31
0.0
 11
119.549651
 21
116.770507
 31
0.0
 11
119.566831
 21
116.268098
 31
0.0
 11
119.581897
 21
115.621969
 31
0.0
 11
119.595331
 21
114.832149
 31
0.0
 11
119.607070
 21
113.901179
 31
0.0
 11
119.625379
 21
111.625512
 31
0.0
 11
119.636673
 21
108.813774
 31
0.0
 11
119.640694
 21
105.484672
 31
0.0
 11
119.644674
 21
102.501846
 31
0.0
 11
119.655448
 21
99.841980
 31
0.0
 11
119.672114
 21
97.601192
 31
0.0
 11
119.682405
 21
96.667921
 31
0.0
 11
119.693855
 21
95.875315
 31
0.0
 11
119.706288
 21
95.235377
 31
0.0
 11
119.712712
 21
94.976352
 31
0.0
 11
119.719254
 21
94.759689
 31
0.0
 11
119.726129
 21
94.586596
 31
0.0
 11
119.729818
 21
94.516806
 31
0.0
 11
119.733709
 21
94.457999
 31
0.0
 11
119.737700
 21
94.409656
 31
0.0
 11
119.739606
 21
94.389219
 31
0.0
 11
119.741663
 21
94.370596
 31
0.0
 11
119.744304
 21
94.352879
 31
0.0
 11
119.745988
 21
94.344086
 31
0.0
 11
119.748443
 21
94.334407
 31
0.0
 11
119.752008
 21
94.322563
 31
0.0
 11
119.754399
 21
94.315366
 31
0.0
 11
119.757736
 21
94.306608
 31
0.0
 11
119.763043
 21
94.295554
 31
0.0
 11
119.766851
 21
94.288871
 31
0.0
 11
119.771888
 21
94.281184
 31
0.0
 11
119.778481
 21
94.272412
 31
0.0
 11
119.791185
 21
94.259861
 31
0.0
 11
119.806988
 21
94.246310
 31
0.0
 11
119.814862
 21
94.239888
 31
0.0
 11
119.831296
 21
94.234309
 31
0.0
 11
119.864971
 21
94.224170
 31
0.0
 11
119.893134
 21
94.218948
 31
0.0
 11
119.908801
 21
94.219979
 31
0.0
 11
119.920785
 21
94.222046
 31
0.0
 11
119.930065
 21
94.224451
 31
0.0
 11
119.943800
 21
94.228927
 31
0.0
 11
119.953266
 21
94.232976
 31
0.0
 11
119.960382
 21
94.236586
 31
0.0
 11
119.971868
 21
94.242840
 31
0.0
 11
119.981080
 21
94.248517
 31
0.0
 11
119.989597
 21
94.254225
 31
0.0
 11
120.007603
 21
94.266911
 31
0.0
 11
120.027371
 21
94.281634
 31
0.0
 11
120.049679
 21
94.298873
 31
0.0
 11
120.103540
 21
94.341852
 31
0.0
 11
120.169836
 21
94.396204
 31
0.0
 11
120.248666
 21
94.462031
 31
0.0
 11
120.443857
 21
94.627946
 31
0.0
 11
120.687841
 21
94.838279
 31
0.0
 11
120.979029
 21
95.091519
 31
0.0
 11
121.696049
 21
95.720519
 31
0.0
 11
122.580182
 21
96.501949
 31
0.0
 11
123.616593
 21
97.422610
 31
0.0
 11
126.087050
 21
99.628896
 31
0.0
 11
128.988888
 21
102.233857
 31
0.0
 11
132.203424
 21
105.131905
 31
0.0
 11
139.159177
 21
111.414926
 31
0.0
 11
143.775610
 21
115.579083
 31
0.0
 11
146.562583
 21
118.078299
 31
0.0
 11
147.429381
 21
118.845492
 31
0.0
 11
148.029472
 21
119.366304
 31
0.0
 11
148.425690
 21
119.696669
 31
0.0
 11
148.680101
 21
119.892476
 31
0.0
 11
148.859345
 21
120.012677
 31
0.0
 11
149.033128
 21
120.117795
 31
0.0
 11
149.888164
 21
120.477406
 31
0.0
 11
150.749249
 21
120.550374
 31
0.0
 11
151.579744
 21
120.354819
 31
0.0
 11
152.342336
 21
119.906440
 31
0.0
 11
152.995877
 21
119.217995
 31
0.0
 11
153.497971
 21
118.303197
 31
0.0
  0
LINE
  5
157
100
AcDbEntity
  8
0
 62
7
100
AcDbLine
 10
151.628241
 20
44.427669
 30
0.0
 11
150.981667
 21
44.165843
 31
0.0
  0
LINE
  5
158
100
AcDbEntity
  8
0
 62
7
100
AcDbLine
 10
150.981667
 20
44.165843
 30
0.0
 11
89.283591
 21
44.144902
 31
0.0
  0
SPLINE
  5
159
100
AcDbEntity
  8
0
 62
7
100
AcDbSpline
 70
0
 71
3
 72
22
 73
18
 74
16
 40
0.000000
 40
0.000000
 40
0.000000
 40
0.000000
 40
11.295723
 40
20.207437
 40
26.910892
 40
29.489454
 40
31.581791
 40
33.209749
 40
33.856404
 40
34.395065
 40
34.828355
 40
35.160560
 40
35.390642
 40
35.513273
 40
37.025430
 40
38.248574
 40
39.468455
 40
39.468455
 40
39.468455
 40
39.468455
 10
153.814371
 20
83.072821
 30
0.0
 10
153.817814
 20
79.307581
 30
0.0
 10
153.823974
 20
72.571771
 30
0.0
 10
153.823785
 20
63.601473
 30
0.0
 10
153.815820
 20
57.536896
 30
0.0
 10
153.802594
 20
53.745466
 30
0.0
 10
153.790902
 20
51.645878
 30
0.0
 10
153.778472
 20
50.190278
 30
0.0
 10
153.766708
 20
49.252590
 30
0.0
 10
153.757806
 20
48.713131
 30
0.0
 10
153.748775
 20
48.278491
 30
0.0
 10
153.737982
 20
47.946825
 30
0.0
 10
153.728936
 20
47.718646
 30
0.0
 10
153.676756
 20
47.099106
 30
0.0
 10
153.444242
 20
46.165176
 30
0.0
 10
152.735743
 20
44.992961
 30
0.0
 10
151.997079
 20
44.615932
 30
0.0
 10
151.628241
 20
44.427669
 30
0.0
 11
153.814371
 21
83.072821
 31
0.0
 11
153.822732
 21
71.777101
 31
0.0
 11
153.821579
 21
62.865387
 31
0.0
 11
153.810504
 21
56.161941
 31
0.0
 11
153.801041
 21
53.583396
 31
0.0
 11
153.788875
 21
51.491095
 31
0.0
 11
153.774123
 21
49.863204
 31
0.0
 11
153.765791
 21
49.216602
 31
0.0
 11
153.756801
 21
48.678016
 31
0.0
 11
153.747114
 21
48.244835
 31
0.0
 11
153.736410
 21
47.912802
 31
0.0
 11
153.725299
 21
47.682989
 31
0.0
 11
153.715144
 21
47.560779
 31
0.0
 11
153.338993
 21
46.096153
 31
0.0
 11
152.659697
 21
45.078981
 31
0.0
 11
151.628241
 21
44.427669
 31
0.0
  0
LINE
  5
15a
100
AcDbEntity
  8
0
 62
7
100
AcDbLine
 10
37.528333
 20
151.395937
 30
0.0
 11
37.528376
 21
151.395934
 31
0.0
  0
SPLINE
  5
15b
100
AcDbEntity
  8
0
 62
7
100
AcDbSpline
 70
0
 71
3
 72
49
 73
45
 74
43
 40
0.000000
 40
0.000000
 40
0.000000
 40
0.000000
 40
21.059412
 40
37.148027
 40
48.795792
 40
53.120054
 40
56.532874
 40
59.100303
 40
60.087605
 40
60.888236
 40
61.510427
 40
61.757195
 40
61.962276
 40
62.126413
 40
62.252983
 40
62.337168
 40
62.367335
 40
63.609951
 40
64.729396
 40
66.010996
 40
66.657050
 40
68.800431
 40
73.680283
 40
82.534160
 40
96.604511
 40
117.134816
 40
137.709156
 40
151.792119
 40
160.638405
 40
165.500833
 40
167.628880
 40
168.275367
 40
169.552808
 40
170.677764
 40
171.960517
 40
172.167377
 40
172.564527
 40
173.120179
 40
173.811795
 40
174.627685
 40
175.552199
 40
177.665291
 40
180.028345
 40
182.518613
 40
182.518613
 40
182.518613
 40
182.518613
 10
89.283591
 20
44.144902
 30
0.0
 10
82.263787
 20
44.142951
 30
0.0
 10
69.881111
 20
44.139510
 30
0.0
 10
53.615848
 20
44.142963
 30
0.0
 10
42.928969
 20
44.153457
 30
0.0
 10
36.467370
 20
44.168751
 30
0.0
 10
33.032556
 20
44.181616
 30
0.0
 10
30.710074
 20
44.195324
 30
0.0
 10
29.258349
 20
44.208901
 30
0.0
 10
28.455036
 20
44.218975
 30
0.0
 10
27.898582
 20
44.228391
 30
0.0
 10
27.540662
 20
44.236674
 30
0.0
 10
27.335424
 20
44.242778
 30
0.0
 10
27.170261
 20
44.248587
 30
0.0
 10
27.045466
 20
44.255323
 30
0.0
 10
26.965399
 20
44.261615
 30
0.0
 10
26.515015
 20
44.303460
 30
0.0
 10
25.743761
 20
44.622109
 30
0.0
 10
24.846590
 20
45.462418
 30
0.0
 10
24.390133
 20
46.413085
 30
0.0
 10
24.261423
 20
47.768428
 30
0.0
 10
24.249598
 20
50.324509
 30
0.0
 10
24.192586
 20
55.616876
 30
0.0
 10
24.194103
 20
64.884864
 30
0.0
 10
24.179310
 20
79.369726
 30
0.0
 10
24.184149
 20
97.761371
 30
0.0
 10
24.179107
 20
116.157293
 30
0.0
 10
24.194420
 20
130.658370
 30
0.0
 10
24.191816
 20
139.922482
 30
0.0
 10
24.250628
 20
145.200978
 30
0.0
 10
24.260160
 20
147.746816
 30
0.0
 10
24.392981
 20
149.095099
 30
0.0
 10
24.843568
 20
150.047707
 30
0.0
 10
25.767314
 20
150.893612
 30
0.0
 10
26.617051
 20
151.195725
 30
0.0
 10
27.242116
 20
151.263740
 30
0.0
 10
27.628309
 20
151.284786
 30
0.0
 10
28.175876
 20
151.308213
 30
0.0
 10
28.863394
 20
151.326843
 30
0.0
 10
29.673868
 20
151.344279
 30
0.0
 10
30.958215
 20
151.364774
 30
0.0
 10
32.758352
 20
151.382921
 30
0.0
 10
35.080467
 20
151.395314
 30
0.0
 10
36.698243
 20
151.395726
 30
0.0
 10
37.528333
 20
151.395937
 30
0.0
 11
89.283591
 21
44.144902
 31
0.0
 11
68.224179
 21
44.141000
 31
0.0
 11
52.135565
 21
44.145671
 31
0.0
 11
40.487809
 21
44.159775
 31
0.0
 11
36.163560
 21
44.170581
 31
0.0
 11
32.750766
 21
44.184072
 31
0.0
 11
30.183390
 21
44.200565
 31
0.0
 11
29.196134
 21
44.210062
 31
0.0
 11
28.395569
 21
44.220379
 31
0.0
 11
27.773476
 21
44.231432
 31
0.0
 11
27.526778
 21
44.237291
 31
0.0
 11
27.321788
 21
44.243389
 31
0.0
 11
27.157769
 21
44.249607
 31
0.0
 11
27.031398
 21
44.256704
 31
0.0
 11
26.947473
 21
44.263318
 31
0.0
 11
26.917439
 21
44.266145
 31
0.0
 11
25.753845
 21
44.702200
 31
0.0
 11
24.936845
 21
45.467489
 31
0.0
 11
24.395629
 21
46.629206
 31
0.0
 11
24.313263
 21
47.269987
 31
0.0
 11
24.252477
 21
49.412506
 31
0.0
 11
24.213177
 21
54.292199
 31
0.0
 11
24.192468
 21
63.146052
 31
0.0
 11
24.183959
 21
77.216401
 31
0.0
 11
24.182309
 21
97.746706
 31
0.0
 11
24.183929
 21
118.321046
 31
0.0
 11
24.192408
 21
132.404007
 31
0.0
 11
24.213177
 21
141.250268
 31
0.0
 11
24.252444
 21
146.112537
 31
0.0
 11
24.313475
 21
148.239709
 31
0.0
 11
24.397283
 21
148.880741
 31
0.0
 11
24.935986
 21
150.039039
 31
0.0
 11
25.766830
 21
150.797474
 31
0.0
 11
26.973663
 21
151.232225
 31
0.0
 11
27.179198
 21
151.255612
 31
0.0
 11
27.575518
 21
151.281263
 31
0.0
 11
28.130664
 21
151.304985
 31
0.0
 11
28.821986
 21
151.325130
 31
0.0
 11
29.637685
 21
151.342792
 31
0.0
 11
30.562076
 21
151.357901
 31
0.0
 11
32.675047
 21
151.380504
 31
0.0
 11
35.038067
 21
151.393139
 31
0.0
 11
37.528333
 21
151.395937
 31
0.0
  0
ENDSEC
  0
SECTION
  2
OBJECTS
  0
DICTIONARY
  5
C
330
0
100
AcDbDictionary
  3
ACAD_GROUP
350
D
  3
ACAD_MLINESTYLE
350
17
  0
DICTIONARY
  5
D
330
C
100
AcDbDictionary
  0
DICTIONARY
  5
1A
330
C
100
AcDbDictionary
  0
DICTIONARY
  5
17
330
C
100
AcDbDictionary
  3
STANDARD
350
18
  0
DICTIONARY
  5
19
330
C
100
AcDbDictionary
  0
ENDSEC
  0
EOF
