  0
SECTION
  2
BLOCKS
  0
ENDSEC
  0
SECTION
  2
ENTITIES
  0
LINE
  8
0
 10
30
 20
45
 11
20.25
 21
45
  0
LINE
  8
0
 10
20.25
 20
45
 11
20.25
 21
-25
  0
LINE
  8
0
 10
20.25
 20
-25
 11
-20.25
 21
-25
  0
LINE
  8
0
 10
-20.25
 20
-25
 11
-20.25
 21
45
  0
LINE
  8
0
 10
-20.25
 20
45
 11
-30
 21
45
  0
LINE
  8
0
 10
-30
 20
45
 11
-30
 21
-45
  0
LINE
  8
0
 10
-30
 20
-45
 11
30
 21
-45
  0
LINE
  8
0
 10
30
 20
-45
 11
30
 21
45
  0
LINE
  8
0
 10
-25.0942
 20
33.5029
 11
-25.2811
 21
33.5266
  0
LINE
  8
0
 10
-25.2811
 20
33.5266
 11
-25.4635
 21
33.5734
  0
LINE
  8
0
 10
-25.4635
 20
33.5734
 11
-25.6387
 21
33.6427
  0
LINE
  8
0
 10
-25.6387
 20
33.6427
 11
-25.8037
 21
33.7335
  0
LINE
  8
0
 10
-25.8037
 20
33.7335
 11
-25.9561
 21
33.8442
  0
LINE
  8
0
 10
-25.9561
 20
33.8442
 11
-26.0934
 21
33.9732
  0
LINE
  8
0
 10
-26.0934
 20
33.9732
 11
-26.2135
 21
34.1183
  0
LINE
  8
0
 10
-26.2135
 20
34.1183
 11
-26.3145
 21
34.2774
  0
LINE
  8
0
 10
-26.3145
 20
34.2774
 11
-26.3947
 21
34.4478
  0
LINE
  8
0
 10
-26.3947
 20
34.4478
 11
-26.4529
 21
34.627
  0
LINE
  8
0
 10
-26.4529
 20
34.627
 11
-26.4882
 21
34.812
  0
LINE
  8
0
 10
-26.4882
 20
34.812
 11
-26.5
 21
35
  0
LINE
  8
0
 10
-26.5
 20
35
 11
-26.4882
 21
35.188
  0
LINE
  8
0
 10
-26.4882
 20
35.188
 11
-26.4529
 21
35.373
  0
LINE
  8
0
 10
-26.4529
 20
35.373
 11
-26.3947
 21
35.5522
  0
LINE
  8
0
 10
-26.3947
 20
35.5522
 11
-26.3145
 21
35.7226
  0
LINE
  8
0
 10
-26.3145
 20
35.7226
 11
-26.2135
 21
35.8817
  0
LINE
  8
0
 10
-26.2135
 20
35.8817
 11
-26.0934
 21
36.0268
  0
LINE
  8
0
 10
-26.0934
 20
36.0268
 11
-25.9561
 21
36.1558
  0
LINE
  8
0
 10
-25.9561
 20
36.1558
 11
-25.8037
 21
36.2665
  0
LINE
  8
0
 10
-25.8037
 20
36.2665
 11
-25.6387
 21
36.3572
  0
LINE
  8
0
 10
-25.6387
 20
36.3572
 11
-25.4635
 21
36.4266
  0
LINE
  8
0
 10
-25.4635
 20
36.4266
 11
-25.2811
 21
36.4734
  0
LINE
  8
0
 10
-25.2811
 20
36.4734
 11
-25.0942
 21
36.497
  0
LINE
  8
0
 10
-25.0942
 20
36.497
 11
-24.9058
 21
36.497
  0
LINE
  8
0
 10
-24.9058
 20
36.497
 11
-24.7189
 21
36.4734
  0
LINE
  8
0
 10
-24.7189
 20
36.4734
 11
-24.5365
 21
36.4266
  0
LINE
  8
0
 10
-24.5365
 20
36.4266
 11
-24.3613
 21
36.3572
  0
LINE
  8
0
 10
-24.3613
 20
36.3572
 11
-24.1963
 21
36.2665
  0
LINE
  8
0
 10
-24.1963
 20
36.2665
 11
-24.0439
 21
36.1558
  0
LINE
  8
0
 10
-24.0439
 20
36.1558
 11
-23.9065
 21
36.0268
  0
LINE
  8
0
 10
-23.9065
 20
36.0268
 11
-23.7865
 21
35.8817
  0
LINE
  8
0
 10
-23.7865
 20
35.8817
 11
-23.6855
 21
35.7226
  0
LINE
  8
0
 10
-23.6855
 20
35.7226
 11
-23.6053
 21
35.5522
  0
LINE
  8
0
 10
-23.6053
 20
35.5522
 11
-23.5471
 21
35.373
  0
LINE
  8
0
 10
-23.5471
 20
35.373
 11
-23.5118
 21
35.188
  0
LINE
  8
0
 10
-23.5118
 20
35.188
 11
-23.5
 21
35
  0
LINE
  8
0
 10
-23.5
 20
35
 11
-23.5118
 21
34.812
  0
LINE
  8
0
 10
-23.5118
 20
34.812
 11
-23.5471
 21
34.627
  0
LINE
  8
0
 10
-23.5471
 20
34.627
 11
-23.6053
 21
34.4478
  0
LINE
  8
0
 10
-23.6053
 20
34.4478
 11
-23.6855
 21
34.2774
  0
LINE
  8
0
 10
-23.6855
 20
34.2774
 11
-23.7865
 21
34.1183
  0
LINE
  8
0
 10
-23.7865
 20
34.1183
 11
-23.9065
 21
33.9732
  0
LINE
  8
0
 10
-23.9065
 20
33.9732
 11
-24.0439
 21
33.8442
  0
LINE
  8
0
 10
-24.0439
 20
33.8442
 11
-24.1963
 21
33.7335
  0
LINE
  8
0
 10
-24.1963
 20
33.7335
 11
-24.3613
 21
33.6427
  0
LINE
  8
0
 10
-24.3613
 20
33.6427
 11
-24.5365
 21
33.5734
  0
LINE
  8
0
 10
-24.5365
 20
33.5734
 11
-24.7189
 21
33.5266
  0
LINE
  8
0
 10
-24.7189
 20
33.5266
 11
-24.9058
 21
33.5029
  0
LINE
  8
0
 10
-24.9058
 20
33.5029
 11
-25.0942
 21
33.5029
  0
LINE
  8
0
 10
24.9058
 20
33.5029
 11
24.7189
 21
33.5266
  0
LINE
  8
0
 10
24.7189
 20
33.5266
 11
24.5365
 21
33.5734
  0
LINE
  8
0
 10
24.5365
 20
33.5734
 11
24.3613
 21
33.6427
  0
LINE
  8
0
 10
24.3613
 20
33.6427
 11
24.1963
 21
33.7335
  0
LINE
  8
0
 10
24.1963
 20
33.7335
 11
24.0439
 21
33.8442
  0
LINE
  8
0
 10
24.0439
 20
33.8442
 11
23.9065
 21
33.9732
  0
LINE
  8
0
 10
23.9065
 20
33.9732
 11
23.7865
 21
34.1183
  0
LINE
  8
0
 10
23.7865
 20
34.1183
 11
23.6855
 21
34.2774
  0
LINE
  8
0
 10
23.6855
 20
34.2774
 11
23.6053
 21
34.4478
  0
LINE
  8
0
 10
23.6053
 20
34.4478
 11
23.5471
 21
34.627
  0
LINE
  8
0
 10
23.5471
 20
34.627
 11
23.5118
 21
34.812
  0
LINE
  8
0
 10
23.5118
 20
34.812
 11
23.5
 21
35
  0
LINE
  8
0
 10
23.5
 20
35
 11
23.5118
 21
35.188
  0
LINE
  8
0
 10
23.5118
 20
35.188
 11
23.5471
 21
35.373
  0
LINE
  8
0
 10
23.5471
 20
35.373
 11
23.6053
 21
35.5522
  0
LINE
  8
0
 10
23.6053
 20
35.5522
 11
23.6855
 21
35.7226
  0
LINE
  8
0
 10
23.6855
 20
35.7226
 11
23.7865
 21
35.8817
  0
LINE
  8
0
 10
23.7865
 20
35.8817
 11
23.9065
 21
36.0268
  0
LINE
  8
0
 10
23.9065
 20
36.0268
 11
24.0439
 21
36.1558
  0
LINE
  8
0
 10
24.0439
 20
36.1558
 11
24.1963
 21
36.2665
  0
LINE
  8
0
 10
24.1963
 20
36.2665
 11
24.3613
 21
36.3572
  0
LINE
  8
0
 10
24.3613
 20
36.3572
 11
24.5365
 21
36.4266
  0
LINE
  8
0
 10
24.5365
 20
36.4266
 11
24.7189
 21
36.4734
  0
LINE
  8
0
 10
24.7189
 20
36.4734
 11
24.9058
 21
36.497
  0
LINE
  8
0
 10
24.9058
 20
36.497
 11
25.0942
 21
36.497
  0
LINE
  8
0
 10
25.0942
 20
36.497
 11
25.2811
 21
36.4734
  0
LINE
  8
0
 10
25.2811
 20
36.4734
 11
25.4635
 21
36.4266
  0
LINE
  8
0
 10
25.4635
 20
36.4266
 11
25.6387
 21
36.3572
  0
LINE
  8
0
 10
25.6387
 20
36.3572
 11
25.8037
 21
36.2665
  0
LINE
  8
0
 10
25.8037
 20
36.2665
 11
25.9561
 21
36.1558
  0
LINE
  8
0
 10
25.9561
 20
36.1558
 11
26.0934
 21
36.0268
  0
LINE
  8
0
 10
26.0934
 20
36.0268
 11
26.2135
 21
35.8817
  0
LINE
  8
0
 10
26.2135
 20
35.8817
 11
26.3145
 21
35.7226
  0
LINE
  8
0
 10
26.3145
 20
35.7226
 11
26.3947
 21
35.5522
  0
LINE
  8
0
 10
26.3947
 20
35.5522
 11
26.4529
 21
35.373
  0
LINE
  8
0
 10
26.4529
 20
35.373
 11
26.4882
 21
35.188
  0
LINE
  8
0
 10
26.4882
 20
35.188
 11
26.5
 21
35
  0
LINE
  8
0
 10
26.5
 20
35
 11
26.4882
 21
34.812
  0
LINE
  8
0
 10
26.4882
 20
34.812
 11
26.4529
 21
34.627
  0
LINE
  8
0
 10
26.4529
 20
34.627
 11
26.3947
 21
34.4478
  0
LINE
  8
0
 10
26.3947
 20
34.4478
 11
26.3145
 21
34.2774
  0
LINE
  8
0
 10
26.3145
 20
34.2774
 11
26.2135
 21
34.1183
  0
LINE
  8
0
 10
26.2135
 20
34.1183
 11
26.0934
 21
33.9732
  0
LINE
  8
0
 10
26.0934
 20
33.9732
 11
25.9561
 21
33.8442
  0
LINE
  8
0
 10
25.9561
 20
33.8442
 11
25.8037
 21
33.7335
  0
LINE
  8
0
 10
25.8037
 20
33.7335
 11
25.6387
 21
33.6427
  0
LINE
  8
0
 10
25.6387
 20
33.6427
 11
25.4635
 21
33.5734
  0
LINE
  8
0
 10
25.4635
 20
33.5734
 11
25.2811
 21
33.5266
  0
LINE
  8
0
 10
25.2811
 20
33.5266
 11
25.0942
 21
33.5029
  0
LINE
  8
0
 10
25.0942
 20
33.5029
 11
24.9058
 21
33.5029
  0
LINE
  8
0
 10
-25.0942
 20
-36.497
 11
-25.2811
 21
-36.4734
  0
LINE
  8
0
 10
-25.2811
 20
-36.4734
 11
-25.4635
 21
-36.4266
  0
LINE
  8
0
 10
-25.4635
 20
-36.4266
 11
-25.6387
 21
-36.3572
  0
LINE
  8
0
 10
-25.6387
 20
-36.3572
 11
-25.8037
 21
-36.2665
  0
LINE
  8
0
 10
-25.8037
 20
-36.2665
 11
-25.9561
 21
-36.1558
  0
LINE
  8
0
 10
-25.9561
 20
-36.1558
 11
-26.0934
 21
-36.0268
  0
LINE
  8
0
 10
-26.0934
 20
-36.0268
 11
-26.2135
 21
-35.8817
  0
LINE
  8
0
 10
-26.2135
 20
-35.8817
 11
-26.3145
 21
-35.7226
  0
LINE
  8
0
 10
-26.3145
 20
-35.7226
 11
-26.3947
 21
-35.5522
  0
LINE
  8
0
 10
-26.3947
 20
-35.5522
 11
-26.4529
 21
-35.373
  0
LINE
  8
0
 10
-26.4529
 20
-35.373
 11
-26.4882
 21
-35.188
  0
LINE
  8
0
 10
-26.4882
 20
-35.188
 11
-26.5
 21
-35
  0
LINE
  8
0
 10
-26.5
 20
-35
 11
-26.4882
 21
-34.812
  0
LINE
  8
0
 10
-26.4882
 20
-34.812
 11
-26.4529
 21
-34.627
  0
LINE
  8
0
 10
-26.4529
 20
-34.627
 11
-26.3947
 21
-34.4478
  0
LINE
  8
0
 10
-26.3947
 20
-34.4478
 11
-26.3145
 21
-34.2774
  0
LINE
  8
0
 10
-26.3145
 20
-34.2774
 11
-26.2135
 21
-34.1183
  0
LINE
  8
0
 10
-26.2135
 20
-34.1183
 11
-26.0934
 21
-33.9732
  0
LINE
  8
0
 10
-26.0934
 20
-33.9732
 11
-25.9561
 21
-33.8442
  0
LINE
  8
0
 10
-25.9561
 20
-33.8442
 11
-25.8037
 21
-33.7335
  0
LINE
  8
0
 10
-25.8037
 20
-33.7335
 11
-25.6387
 21
-33.6427
  0
LINE
  8
0
 10
-25.6387
 20
-33.6427
 11
-25.4635
 21
-33.5734
  0
LINE
  8
0
 10
-25.4635
 20
-33.5734
 11
-25.2811
 21
-33.5266
  0
LINE
  8
0
 10
-25.2811
 20
-33.5266
 11
-25.0942
 21
-33.5029
  0
LINE
  8
0
 10
-25.0942
 20
-33.5029
 11
-24.9058
 21
-33.5029
  0
LINE
  8
0
 10
-24.9058
 20
-33.5029
 11
-24.7189
 21
-33.5266
  0
LINE
  8
0
 10
-24.7189
 20
-33.5266
 11
-24.5365
 21
-33.5734
  0
LINE
  8
0
 10
-24.5365
 20
-33.5734
 11
-24.3613
 21
-33.6427
  0
LINE
  8
0
 10
-24.3613
 20
-33.6427
 11
-24.1963
 21
-33.7335
  0
LINE
  8
0
 10
-24.1963
 20
-33.7335
 11
-24.0439
 21
-33.8442
  0
LINE
  8
0
 10
-24.0439
 20
-33.8442
 11
-23.9065
 21
-33.9732
  0
LINE
  8
0
 10
-23.9065
 20
-33.9732
 11
-23.7865
 21
-34.1183
  0
LINE
  8
0
 10
-23.7865
 20
-34.1183
 11
-23.6855
 21
-34.2774
  0
LINE
  8
0
 10
-23.6855
 20
-34.2774
 11
-23.6053
 21
-34.4478
  0
LINE
  8
0
 10
-23.6053
 20
-34.4478
 11
-23.5471
 21
-34.627
  0
LINE
  8
0
 10
-23.5471
 20
-34.627
 11
-23.5118
 21
-34.812
  0
LINE
  8
0
 10
-23.5118
 20
-34.812
 11
-23.5
 21
-35
  0
LINE
  8
0
 10
-23.5
 20
-35
 11
-23.5118
 21
-35.188
  0
LINE
  8
0
 10
-23.5118
 20
-35.188
 11
-23.5471
 21
-35.373
  0
LINE
  8
0
 10
-23.5471
 20
-35.373
 11
-23.6053
 21
-35.5522
  0
LINE
  8
0
 10
-23.6053
 20
-35.5522
 11
-23.6855
 21
-35.7226
  0
LINE
  8
0
 10
-23.6855
 20
-35.7226
 11
-23.7865
 21
-35.8817
  0
LINE
  8
0
 10
-23.7865
 20
-35.8817
 11
-23.9065
 21
-36.0268
  0
LINE
  8
0
 10
-23.9065
 20
-36.0268
 11
-24.0439
 21
-36.1558
  0
LINE
  8
0
 10
-24.0439
 20
-36.1558
 11
-24.1963
 21
-36.2665
  0
LINE
  8
0
 10
-24.1963
 20
-36.2665
 11
-24.3613
 21
-36.3572
  0
LINE
  8
0
 10
-24.3613
 20
-36.3572
 11
-24.5365
 21
-36.4266
  0
LINE
  8
0
 10
-24.5365
 20
-36.4266
 11
-24.7189
 21
-36.4734
  0
LINE
  8
0
 10
-24.7189
 20
-36.4734
 11
-24.9058
 21
-36.497
  0
LINE
  8
0
 10
-24.9058
 20
-36.497
 11
-25.0942
 21
-36.497
  0
LINE
  8
0
 10
24.9058
 20
-36.497
 11
24.7189
 21
-36.4734
  0
LINE
  8
0
 10
24.7189
 20
-36.4734
 11
24.5365
 21
-36.4266
  0
LINE
  8
0
 10
24.5365
 20
-36.4266
 11
24.3613
 21
-36.3572
  0
LINE
  8
0
 10
24.3613
 20
-36.3572
 11
24.1963
 21
-36.2665
  0
LINE
  8
0
 10
24.1963
 20
-36.2665
 11
24.0439
 21
-36.1558
  0
LINE
  8
0
 10
24.0439
 20
-36.1558
 11
23.9065
 21
-36.0268
  0
LINE
  8
0
 10
23.9065
 20
-36.0268
 11
23.7865
 21
-35.8817
  0
LINE
  8
0
 10
23.7865
 20
-35.8817
 11
23.6855
 21
-35.7226
  0
LINE
  8
0
 10
23.6855
 20
-35.7226
 11
23.6053
 21
-35.5522
  0
LINE
  8
0
 10
23.6053
 20
-35.5522
 11
23.5471
 21
-35.373
  0
LINE
  8
0
 10
23.5471
 20
-35.373
 11
23.5118
 21
-35.188
  0
LINE
  8
0
 10
23.5118
 20
-35.188
 11
23.5
 21
-35
  0
LINE
  8
0
 10
23.5
 20
-35
 11
23.5118
 21
-34.812
  0
LINE
  8
0
 10
23.5118
 20
-34.812
 11
23.5471
 21
-34.627
  0
LINE
  8
0
 10
23.5471
 20
-34.627
 11
23.6053
 21
-34.4478
  0
LINE
  8
0
 10
23.6053
 20
-34.4478
 11
23.6855
 21
-34.2774
  0
LINE
  8
0
 10
23.6855
 20
-34.2774
 11
23.7865
 21
-34.1183
  0
LINE
  8
0
 10
23.7865
 20
-34.1183
 11
23.9065
 21
-33.9732
  0
LINE
  8
0
 10
23.9065
 20
-33.9732
 11
24.0439
 21
-33.8442
  0
LINE
  8
0
 10
24.0439
 20
-33.8442
 11
24.1963
 21
-33.7335
  0
LINE
  8
0
 10
24.1963
 20
-33.7335
 11
24.3613
 21
-33.6427
  0
LINE
  8
0
 10
24.3613
 20
-33.6427
 11
24.5365
 21
-33.5734
  0
LINE
  8
0
 10
24.5365
 20
-33.5734
 11
24.7189
 21
-33.5266
  0
LINE
  8
0
 10
24.7189
 20
-33.5266
 11
24.9058
 21
-33.5029
  0
LINE
  8
0
 10
24.9058
 20
-33.5029
 11
25.0942
 21
-33.5029
  0
LINE
  8
0
 10
25.0942
 20
-33.5029
 11
25.2811
 21
-33.5266
  0
LINE
  8
0
 10
25.2811
 20
-33.5266
 11
25.4635
 21
-33.5734
  0
LINE
  8
0
 10
25.4635
 20
-33.5734
 11
25.6387
 21
-33.6427
  0
LINE
  8
0
 10
25.6387
 20
-33.6427
 11
25.8037
 21
-33.7335
  0
LINE
  8
0
 10
25.8037
 20
-33.7335
 11
25.9561
 21
-33.8442
  0
LINE
  8
0
 10
25.9561
 20
-33.8442
 11
26.0934
 21
-33.9732
  0
LINE
  8
0
 10
26.0934
 20
-33.9732
 11
26.2135
 21
-34.1183
  0
LINE
  8
0
 10
26.2135
 20
-34.1183
 11
26.3145
 21
-34.2774
  0
LINE
  8
0
 10
26.3145
 20
-34.2774
 11
26.3947
 21
-34.4478
  0
LINE
  8
0
 10
26.3947
 20
-34.4478
 11
26.4529
 21
-34.627
  0
LINE
  8
0
 10
26.4529
 20
-34.627
 11
26.4882
 21
-34.812
  0
LINE
  8
0
 10
26.4882
 20
-34.812
 11
26.5
 21
-35
  0
LINE
  8
0
 10
26.5
 20
-35
 11
26.4882
 21
-35.188
  0
LINE
  8
0
 10
26.4882
 20
-35.188
 11
26.4529
 21
-35.373
  0
LINE
  8
0
 10
26.4529
 20
-35.373
 11
26.3947
 21
-35.5522
  0
LINE
  8
0
 10
26.3947
 20
-35.5522
 11
26.3145
 21
-35.7226
  0
LINE
  8
0
 10
26.3145
 20
-35.7226
 11
26.2135
 21
-35.8817
  0
LINE
  8
0
 10
26.2135
 20
-35.8817
 11
26.0934
 21
-36.0268
  0
LINE
  8
0
 10
26.0934
 20
-36.0268
 11
25.9561
 21
-36.1558
  0
LINE
  8
0
 10
25.9561
 20
-36.1558
 11
25.8037
 21
-36.2665
  0
LINE
  8
0
 10
25.8037
 20
-36.2665
 11
25.6387
 21
-36.3572
  0
LINE
  8
0
 10
25.6387
 20
-36.3572
 11
25.4635
 21
-36.4266
  0
LINE
  8
0
 10
25.4635
 20
-36.4266
 11
25.2811
 21
-36.4734
  0
LINE
  8
0
 10
25.2811
 20
-36.4734
 11
25.0942
 21
-36.497
  0
LINE
  8
0
 10
25.0942
 20
-36.497
 11
24.9058
 21
-36.497
  0
ENDSEC
  0
SECTION
  2
OBJECTS
  0
DICTIONARY
  0
ENDSEC
  0
EOF
