  0
SECTION
  2
BLOCKS
  0
ENDSEC
  0
SECTION
  2
ENTITIES
  0
LINE
  8
0
 10
30
 20
45
 11
-30
 21
45
  0
LINE
  8
0
 10
-30
 20
45
 11
-30
 21
-45
  0
LINE
  8
0
 10
-30
 20
-45
 11
30
 21
-45
  0
LINE
  8
0
 10
30
 20
-45
 11
30
 21
45
  0
LINE
  8
0
 10
-25.0942
 20
33.5029
 11
-25.2811
 21
33.5266
  0
LINE
  8
0
 10
-25.2811
 20
33.5266
 11
-25.4635
 21
33.5734
  0
LINE
  8
0
 10
-25.4635
 20
33.5734
 11
-25.6387
 21
33.6427
  0
LINE
  8
0
 10
-25.6387
 20
33.6427
 11
-25.8037
 21
33.7335
  0
LINE
  8
0
 10
-25.8037
 20
33.7335
 11
-25.9561
 21
33.8442
  0
LINE
  8
0
 10
-25.9561
 20
33.8442
 11
-26.0934
 21
33.9732
  0
LINE
  8
0
 10
-26.0934
 20
33.9732
 11
-26.2135
 21
34.1183
  0
LINE
  8
0
 10
-26.2135
 20
34.1183
 11
-26.3145
 21
34.2774
  0
LINE
  8
0
 10
-26.3145
 20
34.2774
 11
-26.3947
 21
34.4478
  0
LINE
  8
0
 10
-26.3947
 20
34.4478
 11
-26.4529
 21
34.627
  0
LINE
  8
0
 10
-26.4529
 20
34.627
 11
-26.4882
 21
34.812
  0
LINE
  8
0
 10
-26.4882
 20
34.812
 11
-26.5
 21
35
  0
LINE
  8
0
 10
-26.5
 20
35
 11
-26.4882
 21
35.188
  0
LINE
  8
0
 10
-26.4882
 20
35.188
 11
-26.4529
 21
35.373
  0
LINE
  8
0
 10
-26.4529
 20
35.373
 11
-26.3947
 21
35.5522
  0
LINE
  8
0
 10
-26.3947
 20
35.5522
 11
-26.3145
 21
35.7226
  0
LINE
  8
0
 10
-26.3145
 20
35.7226
 11
-26.2135
 21
35.8817
  0
LINE
  8
0
 10
-26.2135
 20
35.8817
 11
-26.0934
 21
36.0268
  0
LINE
  8
0
 10
-26.0934
 20
36.0268
 11
-25.9561
 21
36.1558
  0
LINE
  8
0
 10
-25.9561
 20
36.1558
 11
-25.8037
 21
36.2665
  0
LINE
  8
0
 10
-25.8037
 20
36.2665
 11
-25.6387
 21
36.3572
  0
LINE
  8
0
 10
-25.6387
 20
36.3572
 11
-25.4635
 21
36.4266
  0
LINE
  8
0
 10
-25.4635
 20
36.4266
 11
-25.2811
 21
36.4734
  0
LINE
  8
0
 10
-25.2811
 20
36.4734
 11
-25.0942
 21
36.497
  0
LINE
  8
0
 10
-25.0942
 20
36.497
 11
-24.9058
 21
36.497
  0
LINE
  8
0
 10
-24.9058
 20
36.497
 11
-24.7189
 21
36.4734
  0
LINE
  8
0
 10
-24.7189
 20
36.4734
 11
-24.5365
 21
36.4266
  0
LINE
  8
0
 10
-24.5365
 20
36.4266
 11
-24.3613
 21
36.3572
  0
LINE
  8
0
 10
-24.3613
 20
36.3572
 11
-24.1963
 21
36.2665
  0
LINE
  8
0
 10
-24.1963
 20
36.2665
 11
-24.0439
 21
36.1558
  0
LINE
  8
0
 10
-24.0439
 20
36.1558
 11
-23.9065
 21
36.0268
  0
LINE
  8
0
 10
-23.9065
 20
36.0268
 11
-23.7865
 21
35.8817
  0
LINE
  8
0
 10
-23.7865
 20
35.8817
 11
-23.6855
 21
35.7226
  0
LINE
  8
0
 10
-23.6855
 20
35.7226
 11
-23.6053
 21
35.5522
  0
LINE
  8
0
 10
-23.6053
 20
35.5522
 11
-23.5471
 21
35.373
  0
LINE
  8
0
 10
-23.5471
 20
35.373
 11
-23.5118
 21
35.188
  0
LINE
  8
0
 10
-23.5118
 20
35.188
 11
-23.5
 21
35
  0
LINE
  8
0
 10
-23.5
 20
35
 11
-23.5118
 21
34.812
  0
LINE
  8
0
 10
-23.5118
 20
34.812
 11
-23.5471
 21
34.627
  0
LINE
  8
0
 10
-23.5471
 20
34.627
 11
-23.6053
 21
34.4478
  0
LINE
  8
0
 10
-23.6053
 20
34.4478
 11
-23.6855
 21
34.2774
  0
LINE
  8
0
 10
-23.6855
 20
34.2774
 11
-23.7865
 21
34.1183
  0
LINE
  8
0
 10
-23.7865
 20
34.1183
 11
-23.9065
 21
33.9732
  0
LINE
  8
0
 10
-23.9065
 20
33.9732
 11
-24.0439
 21
33.8442
  0
LINE
  8
0
 10
-24.0439
 20
33.8442
 11
-24.1963
 21
33.7335
  0
LINE
  8
0
 10
-24.1963
 20
33.7335
 11
-24.3613
 21
33.6427
  0
LINE
  8
0
 10
-24.3613
 20
33.6427
 11
-24.5365
 21
33.5734
  0
LINE
  8
0
 10
-24.5365
 20
33.5734
 11
-24.7189
 21
33.5266
  0
LINE
  8
0
 10
-24.7189
 20
33.5266
 11
-24.9058
 21
33.5029
  0
LINE
  8
0
 10
-24.9058
 20
33.5029
 11
-25.0942
 21
33.5029
  0
LINE
  8
0
 10
24.9058
 20
33.5029
 11
24.7189
 21
33.5266
  0
LINE
  8
0
 10
24.7189
 20
33.5266
 11
24.5365
 21
33.5734
  0
LINE
  8
0
 10
24.5365
 20
33.5734
 11
24.3613
 21
33.6427
  0
LINE
  8
0
 10
24.3613
 20
33.6427
 11
24.1963
 21
33.7335
  0
LINE
  8
0
 10
24.1963
 20
33.7335
 11
24.0439
 21
33.8442
  0
LINE
  8
0
 10
24.0439
 20
33.8442
 11
23.9065
 21
33.9732
  0
LINE
  8
0
 10
23.9065
 20
33.9732
 11
23.7865
 21
34.1183
  0
LINE
  8
0
 10
23.7865
 20
34.1183
 11
23.6855
 21
34.2774
  0
LINE
  8
0
 10
23.6855
 20
34.2774
 11
23.6053
 21
34.4478
  0
LINE
  8
0
 10
23.6053
 20
34.4478
 11
23.5471
 21
34.627
  0
LINE
  8
0
 10
23.5471
 20
34.627
 11
23.5118
 21
34.812
  0
LINE
  8
0
 10
23.5118
 20
34.812
 11
23.5
 21
35
  0
LINE
  8
0
 10
23.5
 20
35
 11
23.5118
 21
35.188
  0
LINE
  8
0
 10
23.5118
 20
35.188
 11
23.5471
 21
35.373
  0
LINE
  8
0
 10
23.5471
 20
35.373
 11
23.6053
 21
35.5522
  0
LINE
  8
0
 10
23.6053
 20
35.5522
 11
23.6855
 21
35.7226
  0
LINE
  8
0
 10
23.6855
 20
35.7226
 11
23.7865
 21
35.8817
  0
LINE
  8
0
 10
23.7865
 20
35.8817
 11
23.9065
 21
36.0268
  0
LINE
  8
0
 10
23.9065
 20
36.0268
 11
24.0439
 21
36.1558
  0
LINE
  8
0
 10
24.0439
 20
36.1558
 11
24.1963
 21
36.2665
  0
LINE
  8
0
 10
24.1963
 20
36.2665
 11
24.3613
 21
36.3572
  0
LINE
  8
0
 10
24.3613
 20
36.3572
 11
24.5365
 21
36.4266
  0
LINE
  8
0
 10
24.5365
 20
36.4266
 11
24.7189
 21
36.4734
  0
LINE
  8
0
 10
24.7189
 20
36.4734
 11
24.9058
 21
36.497
  0
LINE
  8
0
 10
24.9058
 20
36.497
 11
25.0942
 21
36.497
  0
LINE
  8
0
 10
25.0942
 20
36.497
 11
25.2811
 21
36.4734
  0
LINE
  8
0
 10
25.2811
 20
36.4734
 11
25.4635
 21
36.4266
  0
LINE
  8
0
 10
25.4635
 20
36.4266
 11
25.6387
 21
36.3572
  0
LINE
  8
0
 10
25.6387
 20
36.3572
 11
25.8037
 21
36.2665
  0
LINE
  8
0
 10
25.8037
 20
36.2665
 11
25.9561
 21
36.1558
  0
LINE
  8
0
 10
25.9561
 20
36.1558
 11
26.0934
 21
36.0268
  0
LINE
  8
0
 10
26.0934
 20
36.0268
 11
26.2135
 21
35.8817
  0
LINE
  8
0
 10
26.2135
 20
35.8817
 11
26.3145
 21
35.7226
  0
LINE
  8
0
 10
26.3145
 20
35.7226
 11
26.3947
 21
35.5522
  0
LINE
  8
0
 10
26.3947
 20
35.5522
 11
26.4529
 21
35.373
  0
LINE
  8
0
 10
26.4529
 20
35.373
 11
26.4882
 21
35.188
  0
LINE
  8
0
 10
26.4882
 20
35.188
 11
26.5
 21
35
  0
LINE
  8
0
 10
26.5
 20
35
 11
26.4882
 21
34.812
  0
LINE
  8
0
 10
26.4882
 20
34.812
 11
26.4529
 21
34.627
  0
LINE
  8
0
 10
26.4529
 20
34.627
 11
26.3947
 21
34.4478
  0
LINE
  8
0
 10
26.3947
 20
34.4478
 11
26.3145
 21
34.2774
  0
LINE
  8
0
 10
26.3145
 20
34.2774
 11
26.2135
 21
34.1183
  0
LINE
  8
0
 10
26.2135
 20
34.1183
 11
26.0934
 21
33.9732
  0
LINE
  8
0
 10
26.0934
 20
33.9732
 11
25.9561
 21
33.8442
  0
LINE
  8
0
 10
25.9561
 20
33.8442
 11
25.8037
 21
33.7335
  0
LINE
  8
0
 10
25.8037
 20
33.7335
 11
25.6387
 21
33.6427
  0
LINE
  8
0
 10
25.6387
 20
33.6427
 11
25.4635
 21
33.5734
  0
LINE
  8
0
 10
25.4635
 20
33.5734
 11
25.2811
 21
33.5266
  0
LINE
  8
0
 10
25.2811
 20
33.5266
 11
25.0942
 21
33.5029
  0
LINE
  8
0
 10
25.0942
 20
33.5029
 11
24.9058
 21
33.5029
  0
LINE
  8
0
 10
-0.25116
 20
6.00789
 11
-0.749512
 21
6.07085
  0
LINE
  8
0
 10
-0.749512
 20
6.07085
 11
-1.23605
 21
6.19577
  0
LINE
  8
0
 10
-1.23605
 20
6.19577
 11
-1.70311
 21
6.38069
  0
LINE
  8
0
 10
-1.70311
 20
6.38069
 11
-2.1433
 21
6.62268
  0
LINE
  8
0
 10
-2.1433
 20
6.62268
 11
-2.54968
 21
6.91794
  0
LINE
  8
0
 10
-2.54968
 20
6.91794
 11
-2.91586
 21
7.26181
  0
LINE
  8
0
 10
-2.91586
 20
7.26181
 11
-3.23605
 21
7.64885
  0
LINE
  8
0
 10
-3.23605
 20
7.64885
 11
-3.50522
 21
8.07298
  0
LINE
  8
0
 10
-3.50522
 20
8.07298
 11
-3.7191
 21
8.5275
  0
LINE
  8
0
 10
-3.7191
 20
8.5275
 11
-3.87433
 21
9.00523
  0
LINE
  8
0
 10
-3.87433
 20
9.00523
 11
-3.96844
 21
9.49866
  0
LINE
  8
0
 10
-3.96844
 20
9.49866
 11
-4
 21
10
  0
LINE
  8
0
 10
-4
 20
10
 11
-3.96844
 21
10.5013
  0
LINE
  8
0
 10
-3.96844
 20
10.5013
 11
-3.87433
 21
10.9948
  0
LINE
  8
0
 10
-3.87433
 20
10.9948
 11
-3.7191
 21
11.4725
  0
LINE
  8
0
 10
-3.7191
 20
11.4725
 11
-3.50522
 21
11.927
  0
LINE
  8
0
 10
-3.50522
 20
11.927
 11
-3.23605
 21
12.3511
  0
LINE
  8
0
 10
-3.23605
 20
12.3511
 11
-2.91586
 21
12.7382
  0
LINE
  8
0
 10
-2.91586
 20
12.7382
 11
-2.54968
 21
13.082
  0
LINE
  8
0
 10
-2.54968
 20
13.082
 11
-2.1433
 21
13.3773
  0
LINE
  8
0
 10
-2.1433
 20
13.3773
 11
-1.70311
 21
13.6193
  0
LINE
  8
0
 10
-1.70311
 20
13.6193
 11
-1.23605
 21
13.8042
  0
LINE
  8
0
 10
-1.23605
 20
13.8042
 11
-0.749512
 21
13.9291
  0
LINE
  8
0
 10
-0.749512
 20
13.9291
 11
-0.25116
 21
13.9921
  0
LINE
  8
0
 10
-0.25116
 20
13.9921
 11
0.25116
 21
13.9921
  0
LINE
  8
0
 10
0.25116
 20
13.9921
 11
0.749512
 21
13.9291
  0
LINE
  8
0
 10
0.749512
 20
13.9291
 11
1.23605
 21
13.8042
  0
LINE
  8
0
 10
1.23605
 20
13.8042
 11
1.70311
 21
13.6193
  0
LINE
  8
0
 10
1.70311
 20
13.6193
 11
2.1433
 21
13.3773
  0
LINE
  8
0
 10
2.1433
 20
13.3773
 11
2.54968
 21
13.082
  0
LINE
  8
0
 10
2.54968
 20
13.082
 11
2.91586
 21
12.7382
  0
LINE
  8
0
 10
2.91586
 20
12.7382
 11
3.23605
 21
12.3511
  0
LINE
  8
0
 10
3.23605
 20
12.3511
 11
3.50522
 21
11.927
  0
LINE
  8
0
 10
3.50522
 20
11.927
 11
3.7191
 21
11.4725
  0
LINE
  8
0
 10
3.7191
 20
11.4725
 11
3.87433
 21
10.9948
  0
LINE
  8
0
 10
3.87433
 20
10.9948
 11
3.96844
 21
10.5013
  0
LINE
  8
0
 10
3.96844
 20
10.5013
 11
4
 21
10
  0
LINE
  8
0
 10
4
 20
10
 11
3.96844
 21
9.49866
  0
LINE
  8
0
 10
3.96844
 20
9.49866
 11
3.87433
 21
9.00523
  0
LINE
  8
0
 10
3.87433
 20
9.00523
 11
3.7191
 21
8.5275
  0
LINE
  8
0
 10
3.7191
 20
8.5275
 11
3.50522
 21
8.07298
  0
LINE
  8
0
 10
3.50522
 20
8.07298
 11
3.23605
 21
7.64885
  0
LINE
  8
0
 10
3.23605
 20
7.64885
 11
2.91586
 21
7.26181
  0
LINE
  8
0
 10
2.91586
 20
7.26181
 11
2.54968
 21
6.91794
  0
LINE
  8
0
 10
2.54968
 20
6.91794
 11
2.1433
 21
6.62268
  0
LINE
  8
0
 10
2.1433
 20
6.62268
 11
1.70311
 21
6.38069
  0
LINE
  8
0
 10
1.70311
 20
6.38069
 11
1.23605
 21
6.19577
  0
LINE
  8
0
 10
1.23605
 20
6.19577
 11
0.749512
 21
6.07085
  0
LINE
  8
0
 10
0.749512
 20
6.07085
 11
0.25116
 21
6.00789
  0
LINE
  8
0
 10
0.25116
 20
6.00789
 11
-0.25116
 21
6.00789
  0
LINE
  8
0
 10
-25.0942
 20
-36.497
 11
-25.2811
 21
-36.4734
  0
LINE
  8
0
 10
-25.2811
 20
-36.4734
 11
-25.4635
 21
-36.4266
  0
LINE
  8
0
 10
-25.4635
 20
-36.4266
 11
-25.6387
 21
-36.3572
  0
LINE
  8
0
 10
-25.6387
 20
-36.3572
 11
-25.8037
 21
-36.2665
  0
LINE
  8
0
 10
-25.8037
 20
-36.2665
 11
-25.9561
 21
-36.1558
  0
LINE
  8
0
 10
-25.9561
 20
-36.1558
 11
-26.0934
 21
-36.0268
  0
LINE
  8
0
 10
-26.0934
 20
-36.0268
 11
-26.2135
 21
-35.8817
  0
LINE
  8
0
 10
-26.2135
 20
-35.8817
 11
-26.3145
 21
-35.7226
  0
LINE
  8
0
 10
-26.3145
 20
-35.7226
 11
-26.3947
 21
-35.5522
  0
LINE
  8
0
 10
-26.3947
 20
-35.5522
 11
-26.4529
 21
-35.373
  0
LINE
  8
0
 10
-26.4529
 20
-35.373
 11
-26.4882
 21
-35.188
  0
LINE
  8
0
 10
-26.4882
 20
-35.188
 11
-26.5
 21
-35
  0
LINE
  8
0
 10
-26.5
 20
-35
 11
-26.4882
 21
-34.812
  0
LINE
  8
0
 10
-26.4882
 20
-34.812
 11
-26.4529
 21
-34.627
  0
LINE
  8
0
 10
-26.4529
 20
-34.627
 11
-26.3947
 21
-34.4478
  0
LINE
  8
0
 10
-26.3947
 20
-34.4478
 11
-26.3145
 21
-34.2774
  0
LINE
  8
0
 10
-26.3145
 20
-34.2774
 11
-26.2135
 21
-34.1183
  0
LINE
  8
0
 10
-26.2135
 20
-34.1183
 11
-26.0934
 21
-33.9732
  0
LINE
  8
0
 10
-26.0934
 20
-33.9732
 11
-25.9561
 21
-33.8442
  0
LINE
  8
0
 10
-25.9561
 20
-33.8442
 11
-25.8037
 21
-33.7335
  0
LINE
  8
0
 10
-25.8037
 20
-33.7335
 11
-25.6387
 21
-33.6427
  0
LINE
  8
0
 10
-25.6387
 20
-33.6427
 11
-25.4635
 21
-33.5734
  0
LINE
  8
0
 10
-25.4635
 20
-33.5734
 11
-25.2811
 21
-33.5266
  0
LINE
  8
0
 10
-25.2811
 20
-33.5266
 11
-25.0942
 21
-33.5029
  0
LINE
  8
0
 10
-25.0942
 20
-33.5029
 11
-24.9058
 21
-33.5029
  0
LINE
  8
0
 10
-24.9058
 20
-33.5029
 11
-24.7189
 21
-33.5266
  0
LINE
  8
0
 10
-24.7189
 20
-33.5266
 11
-24.5365
 21
-33.5734
  0
LINE
  8
0
 10
-24.5365
 20
-33.5734
 11
-24.3613
 21
-33.6427
  0
LINE
  8
0
 10
-24.3613
 20
-33.6427
 11
-24.1963
 21
-33.7335
  0
LINE
  8
0
 10
-24.1963
 20
-33.7335
 11
-24.0439
 21
-33.8442
  0
LINE
  8
0
 10
-24.0439
 20
-33.8442
 11
-23.9065
 21
-33.9732
  0
LINE
  8
0
 10
-23.9065
 20
-33.9732
 11
-23.7865
 21
-34.1183
  0
LINE
  8
0
 10
-23.7865
 20
-34.1183
 11
-23.6855
 21
-34.2774
  0
LINE
  8
0
 10
-23.6855
 20
-34.2774
 11
-23.6053
 21
-34.4478
  0
LINE
  8
0
 10
-23.6053
 20
-34.4478
 11
-23.5471
 21
-34.627
  0
LINE
  8
0
 10
-23.5471
 20
-34.627
 11
-23.5118
 21
-34.812
  0
LINE
  8
0
 10
-23.5118
 20
-34.812
 11
-23.5
 21
-35
  0
LINE
  8
0
 10
-23.5
 20
-35
 11
-23.5118
 21
-35.188
  0
LINE
  8
0
 10
-23.5118
 20
-35.188
 11
-23.5471
 21
-35.373
  0
LINE
  8
0
 10
-23.5471
 20
-35.373
 11
-23.6053
 21
-35.5522
  0
LINE
  8
0
 10
-23.6053
 20
-35.5522
 11
-23.6855
 21
-35.7226
  0
LINE
  8
0
 10
-23.6855
 20
-35.7226
 11
-23.7865
 21
-35.8817
  0
LINE
  8
0
 10
-23.7865
 20
-35.8817
 11
-23.9065
 21
-36.0268
  0
LINE
  8
0
 10
-23.9065
 20
-36.0268
 11
-24.0439
 21
-36.1558
  0
LINE
  8
0
 10
-24.0439
 20
-36.1558
 11
-24.1963
 21
-36.2665
  0
LINE
  8
0
 10
-24.1963
 20
-36.2665
 11
-24.3613
 21
-36.3572
  0
LINE
  8
0
 10
-24.3613
 20
-36.3572
 11
-24.5365
 21
-36.4266
  0
LINE
  8
0
 10
-24.5365
 20
-36.4266
 11
-24.7189
 21
-36.4734
  0
LINE
  8
0
 10
-24.7189
 20
-36.4734
 11
-24.9058
 21
-36.497
  0
LINE
  8
0
 10
-24.9058
 20
-36.497
 11
-25.0942
 21
-36.497
  0
LINE
  8
0
 10
24.9058
 20
-36.497
 11
24.7189
 21
-36.4734
  0
LINE
  8
0
 10
24.7189
 20
-36.4734
 11
24.5365
 21
-36.4266
  0
LINE
  8
0
 10
24.5365
 20
-36.4266
 11
24.3613
 21
-36.3572
  0
LINE
  8
0
 10
24.3613
 20
-36.3572
 11
24.1963
 21
-36.2665
  0
LINE
  8
0
 10
24.1963
 20
-36.2665
 11
24.0439
 21
-36.1558
  0
LINE
  8
0
 10
24.0439
 20
-36.1558
 11
23.9065
 21
-36.0268
  0
LINE
  8
0
 10
23.9065
 20
-36.0268
 11
23.7865
 21
-35.8817
  0
LINE
  8
0
 10
23.7865
 20
-35.8817
 11
23.6855
 21
-35.7226
  0
LINE
  8
0
 10
23.6855
 20
-35.7226
 11
23.6053
 21
-35.5522
  0
LINE
  8
0
 10
23.6053
 20
-35.5522
 11
23.5471
 21
-35.373
  0
LINE
  8
0
 10
23.5471
 20
-35.373
 11
23.5118
 21
-35.188
  0
LINE
  8
0
 10
23.5118
 20
-35.188
 11
23.5
 21
-35
  0
LINE
  8
0
 10
23.5
 20
-35
 11
23.5118
 21
-34.812
  0
LINE
  8
0
 10
23.5118
 20
-34.812
 11
23.5471
 21
-34.627
  0
LINE
  8
0
 10
23.5471
 20
-34.627
 11
23.6053
 21
-34.4478
  0
LINE
  8
0
 10
23.6053
 20
-34.4478
 11
23.6855
 21
-34.2774
  0
LINE
  8
0
 10
23.6855
 20
-34.2774
 11
23.7865
 21
-34.1183
  0
LINE
  8
0
 10
23.7865
 20
-34.1183
 11
23.9065
 21
-33.9732
  0
LINE
  8
0
 10
23.9065
 20
-33.9732
 11
24.0439
 21
-33.8442
  0
LINE
  8
0
 10
24.0439
 20
-33.8442
 11
24.1963
 21
-33.7335
  0
LINE
  8
0
 10
24.1963
 20
-33.7335
 11
24.3613
 21
-33.6427
  0
LINE
  8
0
 10
24.3613
 20
-33.6427
 11
24.5365
 21
-33.5734
  0
LINE
  8
0
 10
24.5365
 20
-33.5734
 11
24.7189
 21
-33.5266
  0
LINE
  8
0
 10
24.7189
 20
-33.5266
 11
24.9058
 21
-33.5029
  0
LINE
  8
0
 10
24.9058
 20
-33.5029
 11
25.0942
 21
-33.5029
  0
LINE
  8
0
 10
25.0942
 20
-33.5029
 11
25.2811
 21
-33.5266
  0
LINE
  8
0
 10
25.2811
 20
-33.5266
 11
25.4635
 21
-33.5734
  0
LINE
  8
0
 10
25.4635
 20
-33.5734
 11
25.6387
 21
-33.6427
  0
LINE
  8
0
 10
25.6387
 20
-33.6427
 11
25.8037
 21
-33.7335
  0
LINE
  8
0
 10
25.8037
 20
-33.7335
 11
25.9561
 21
-33.8442
  0
LINE
  8
0
 10
25.9561
 20
-33.8442
 11
26.0934
 21
-33.9732
  0
LINE
  8
0
 10
26.0934
 20
-33.9732
 11
26.2135
 21
-34.1183
  0
LINE
  8
0
 10
26.2135
 20
-34.1183
 11
26.3145
 21
-34.2774
  0
LINE
  8
0
 10
26.3145
 20
-34.2774
 11
26.3947
 21
-34.4478
  0
LINE
  8
0
 10
26.3947
 20
-34.4478
 11
26.4529
 21
-34.627
  0
LINE
  8
0
 10
26.4529
 20
-34.627
 11
26.4882
 21
-34.812
  0
LINE
  8
0
 10
26.4882
 20
-34.812
 11
26.5
 21
-35
  0
LINE
  8
0
 10
26.5
 20
-35
 11
26.4882
 21
-35.188
  0
LINE
  8
0
 10
26.4882
 20
-35.188
 11
26.4529
 21
-35.373
  0
LINE
  8
0
 10
26.4529
 20
-35.373
 11
26.3947
 21
-35.5522
  0
LINE
  8
0
 10
26.3947
 20
-35.5522
 11
26.3145
 21
-35.7226
  0
LINE
  8
0
 10
26.3145
 20
-35.7226
 11
26.2135
 21
-35.8817
  0
LINE
  8
0
 10
26.2135
 20
-35.8817
 11
26.0934
 21
-36.0268
  0
LINE
  8
0
 10
26.0934
 20
-36.0268
 11
25.9561
 21
-36.1558
  0
LINE
  8
0
 10
25.9561
 20
-36.1558
 11
25.8037
 21
-36.2665
  0
LINE
  8
0
 10
25.8037
 20
-36.2665
 11
25.6387
 21
-36.3572
  0
LINE
  8
0
 10
25.6387
 20
-36.3572
 11
25.4635
 21
-36.4266
  0
LINE
  8
0
 10
25.4635
 20
-36.4266
 11
25.2811
 21
-36.4734
  0
LINE
  8
0
 10
25.2811
 20
-36.4734
 11
25.0942
 21
-36.497
  0
LINE
  8
0
 10
25.0942
 20
-36.497
 11
24.9058
 21
-36.497
  0
ENDSEC
  0
SECTION
  2
OBJECTS
  0
DICTIONARY
  0
ENDSEC
  0
EOF
