  0
SECTION
  2
BLOCKS
  0
ENDSEC
  0
SECTION
  2
ENTITIES
  0
LINE
  8
0
 10
22.5
 20
21.5
 11
22.5
 21
24.5
  0
LINE
  8
0
 10
22.5
 20
24.5
 11
-22.5
 21
24.5
  0
LINE
  8
0
 10
-22.5
 20
24.5
 11
-22.5
 21
21.5
  0
LINE
  8
0
 10
-22.5
 20
21.5
 11
-25.5
 21
21.5
  0
LINE
  8
0
 10
-25.5
 20
21.5
 11
-25.5
 21
11.5
  0
LINE
  8
0
 10
-25.5
 20
11.5
 11
-22.5
 21
11.5
  0
LINE
  8
0
 10
-22.5
 20
11.5
 11
-22.5
 21
8.5
  0
LINE
  8
0
 10
-22.5
 20
8.5
 11
-25.5
 21
8.5
  0
LINE
  8
0
 10
-25.5
 20
8.5
 11
-25.5
 21
-8.5
  0
LINE
  8
0
 10
-25.5
 20
-8.5
 11
-22.5
 21
-8.5
  0
LINE
  8
0
 10
-22.5
 20
-8.5
 11
-22.5
 21
-11.5
  0
LINE
  8
0
 10
-22.5
 20
-11.5
 11
-25.5
 21
-11.5
  0
LINE
  8
0
 10
-25.5
 20
-11.5
 11
-25.5
 21
-21.5
  0
LINE
  8
0
 10
-25.5
 20
-21.5
 11
-22.5
 21
-21.5
  0
LINE
  8
0
 10
-22.5
 20
-21.5
 11
-22.5
 21
-24.5
  0
LINE
  8
0
 10
-22.5
 20
-24.5
 11
22.5
 21
-24.5
  0
LINE
  8
0
 10
22.5
 20
-24.5
 11
22.5
 21
-21.5
  0
LINE
  8
0
 10
22.5
 20
-21.5
 11
25.5
 21
-21.5
  0
LINE
  8
0
 10
25.5
 20
-21.5
 11
25.5
 21
-11.5
  0
LINE
  8
0
 10
25.5
 20
-11.5
 11
22.5
 21
-11.5
  0
LINE
  8
0
 10
22.5
 20
-11.5
 11
22.5
 21
-8.5
  0
LINE
  8
0
 10
22.5
 20
-8.5
 11
25.5
 21
-8.5
  0
LINE
  8
0
 10
25.5
 20
-8.5
 11
25.5
 21
8.5
  0
LINE
  8
0
 10
25.5
 20
8.5
 11
22.5
 21
8.5
  0
LINE
  8
0
 10
22.5
 20
8.5
 11
22.5
 21
11.5
  0
LINE
  8
0
 10
22.5
 20
11.5
 11
25.5
 21
11.5
  0
LINE
  8
0
 10
25.5
 20
11.5
 11
25.5
 21
21.5
  0
LINE
  8
0
 10
25.5
 20
21.5
 11
22.5
 21
21.5
  0
LINE
  8
0
 10
-11.5
 20
-15.5
 11
-11.5
 21
15.5
  0
LINE
  8
0
 10
-11.5
 20
15.5
 11
11.5
 21
15.5
  0
LINE
  8
0
 10
11.5
 20
15.5
 11
11.5
 21
-15.5
  0
LINE
  8
0
 10
11.5
 20
-15.5
 11
-11.5
 21
-15.5
  0
LINE
  8
0
 10
-15.5628
 20
1.50197
 11
-15.6874
 21
1.5177
  0
LINE
  8
0
 10
-15.6874
 20
1.5177
 11
-15.809
 21
1.54893
  0
LINE
  8
0
 10
-15.809
 20
1.54893
 11
-15.9258
 21
1.59517
  0
LINE
  8
0
 10
-15.9258
 20
1.59517
 11
-16.0358
 21
1.65567
  0
LINE
  8
0
 10
-16.0358
 20
1.65567
 11
-16.1374
 21
1.72948
  0
LINE
  8
0
 10
-16.1374
 20
1.72948
 11
-16.229
 21
1.81544
  0
LINE
  8
0
 10
-16.229
 20
1.81544
 11
-16.309
 21
1.9122
  0
LINE
  8
0
 10
-16.309
 20
1.9122
 11
-16.3763
 21
2.01823
  0
LINE
  8
0
 10
-16.3763
 20
2.01823
 11
-16.4298
 21
2.13187
  0
LINE
  8
0
 10
-16.4298
 20
2.13187
 11
-16.4686
 21
2.2513
  0
LINE
  8
0
 10
-16.4686
 20
2.2513
 11
-16.4921
 21
2.37466
  0
LINE
  8
0
 10
-16.4921
 20
2.37466
 11
-16.5
 21
2.5
  0
LINE
  8
0
 10
-16.5
 20
2.5
 11
-16.4921
 21
2.62532
  0
LINE
  8
0
 10
-16.4921
 20
2.62532
 11
-16.4686
 21
2.74869
  0
LINE
  8
0
 10
-16.4686
 20
2.74869
 11
-16.4298
 21
2.86812
  0
LINE
  8
0
 10
-16.4298
 20
2.86812
 11
-16.3763
 21
2.98175
  0
LINE
  8
0
 10
-16.3763
 20
2.98175
 11
-16.309
 21
3.08778
  0
LINE
  8
0
 10
-16.309
 20
3.08778
 11
-16.229
 21
3.18454
  0
LINE
  8
0
 10
-16.229
 20
3.18454
 11
-16.1374
 21
3.27051
  0
LINE
  8
0
 10
-16.1374
 20
3.27051
 11
-16.0358
 21
3.34431
  0
LINE
  8
0
 10
-16.0358
 20
3.34431
 11
-15.9258
 21
3.40482
  0
LINE
  8
0
 10
-15.9258
 20
3.40482
 11
-15.809
 21
3.45105
  0
LINE
  8
0
 10
-15.809
 20
3.45105
 11
-15.6874
 21
3.48228
  0
LINE
  8
0
 10
-15.6874
 20
3.48228
 11
-15.5628
 21
3.49802
  0
LINE
  8
0
 10
-15.5628
 20
3.49802
 11
-15.4372
 21
3.49802
  0
LINE
  8
0
 10
-15.4372
 20
3.49802
 11
-15.3126
 21
3.48228
  0
LINE
  8
0
 10
-15.3126
 20
3.48228
 11
-15.191
 21
3.45105
  0
LINE
  8
0
 10
-15.191
 20
3.45105
 11
-15.0742
 21
3.40482
  0
LINE
  8
0
 10
-15.0742
 20
3.40482
 11
-14.9642
 21
3.34431
  0
LINE
  8
0
 10
-14.9642
 20
3.34431
 11
-14.8626
 21
3.27051
  0
LINE
  8
0
 10
-14.8626
 20
3.27051
 11
-14.771
 21
3.18454
  0
LINE
  8
0
 10
-14.771
 20
3.18454
 11
-14.691
 21
3.08778
  0
LINE
  8
0
 10
-14.691
 20
3.08778
 11
-14.6237
 21
2.98175
  0
LINE
  8
0
 10
-14.6237
 20
2.98175
 11
-14.5702
 21
2.86812
  0
LINE
  8
0
 10
-14.5702
 20
2.86812
 11
-14.5314
 21
2.74869
  0
LINE
  8
0
 10
-14.5314
 20
2.74869
 11
-14.5079
 21
2.62532
  0
LINE
  8
0
 10
-14.5079
 20
2.62532
 11
-14.5
 21
2.5
  0
LINE
  8
0
 10
-14.5
 20
2.5
 11
-14.5079
 21
2.37466
  0
LINE
  8
0
 10
-14.5079
 20
2.37466
 11
-14.5314
 21
2.2513
  0
LINE
  8
0
 10
-14.5314
 20
2.2513
 11
-14.5702
 21
2.13187
  0
LINE
  8
0
 10
-14.5702
 20
2.13187
 11
-14.6237
 21
2.01823
  0
LINE
  8
0
 10
-14.6237
 20
2.01823
 11
-14.691
 21
1.9122
  0
LINE
  8
0
 10
-14.691
 20
1.9122
 11
-14.771
 21
1.81544
  0
LINE
  8
0
 10
-14.771
 20
1.81544
 11
-14.8626
 21
1.72948
  0
LINE
  8
0
 10
-14.8626
 20
1.72948
 11
-14.9642
 21
1.65567
  0
LINE
  8
0
 10
-14.9642
 20
1.65567
 11
-15.0742
 21
1.59517
  0
LINE
  8
0
 10
-15.0742
 20
1.59517
 11
-15.191
 21
1.54893
  0
LINE
  8
0
 10
-15.191
 20
1.54893
 11
-15.3126
 21
1.5177
  0
LINE
  8
0
 10
-15.3126
 20
1.5177
 11
-15.4372
 21
1.50197
  0
LINE
  8
0
 10
-15.4372
 20
1.50197
 11
-15.5628
 21
1.50197
  0
LINE
  8
0
 10
15.4372
 20
1.50197
 11
15.3126
 21
1.5177
  0
LINE
  8
0
 10
15.3126
 20
1.5177
 11
15.191
 21
1.54893
  0
LINE
  8
0
 10
15.191
 20
1.54893
 11
15.0742
 21
1.59517
  0
LINE
  8
0
 10
15.0742
 20
1.59517
 11
14.9642
 21
1.65567
  0
LINE
  8
0
 10
14.9642
 20
1.65567
 11
14.8626
 21
1.72948
  0
LINE
  8
0
 10
14.8626
 20
1.72948
 11
14.771
 21
1.81544
  0
LINE
  8
0
 10
14.771
 20
1.81544
 11
14.691
 21
1.9122
  0
LINE
  8
0
 10
14.691
 20
1.9122
 11
14.6237
 21
2.01823
  0
LINE
  8
0
 10
14.6237
 20
2.01823
 11
14.5702
 21
2.13187
  0
LINE
  8
0
 10
14.5702
 20
2.13187
 11
14.5314
 21
2.2513
  0
LINE
  8
0
 10
14.5314
 20
2.2513
 11
14.5079
 21
2.37466
  0
LINE
  8
0
 10
14.5079
 20
2.37466
 11
14.5
 21
2.5
  0
LINE
  8
0
 10
14.5
 20
2.5
 11
14.5079
 21
2.62532
  0
LINE
  8
0
 10
14.5079
 20
2.62532
 11
14.5314
 21
2.74869
  0
LINE
  8
0
 10
14.5314
 20
2.74869
 11
14.5702
 21
2.86812
  0
LINE
  8
0
 10
14.5702
 20
2.86812
 11
14.6237
 21
2.98175
  0
LINE
  8
0
 10
14.6237
 20
2.98175
 11
14.691
 21
3.08778
  0
LINE
  8
0
 10
14.691
 20
3.08778
 11
14.771
 21
3.18454
  0
LINE
  8
0
 10
14.771
 20
3.18454
 11
14.8626
 21
3.27051
  0
LINE
  8
0
 10
14.8626
 20
3.27051
 11
14.9642
 21
3.34431
  0
LINE
  8
0
 10
14.9642
 20
3.34431
 11
15.0742
 21
3.40482
  0
LINE
  8
0
 10
15.0742
 20
3.40482
 11
15.191
 21
3.45105
  0
LINE
  8
0
 10
15.191
 20
3.45105
 11
15.3126
 21
3.48228
  0
LINE
  8
0
 10
15.3126
 20
3.48228
 11
15.4372
 21
3.49802
  0
LINE
  8
0
 10
15.4372
 20
3.49802
 11
15.5628
 21
3.49802
  0
LINE
  8
0
 10
15.5628
 20
3.49802
 11
15.6874
 21
3.48228
  0
LINE
  8
0
 10
15.6874
 20
3.48228
 11
15.809
 21
3.45105
  0
LINE
  8
0
 10
15.809
 20
3.45105
 11
15.9258
 21
3.40482
  0
LINE
  8
0
 10
15.9258
 20
3.40482
 11
16.0358
 21
3.34431
  0
LINE
  8
0
 10
16.0358
 20
3.34431
 11
16.1374
 21
3.27051
  0
LINE
  8
0
 10
16.1374
 20
3.27051
 11
16.229
 21
3.18454
  0
LINE
  8
0
 10
16.229
 20
3.18454
 11
16.309
 21
3.08778
  0
LINE
  8
0
 10
16.309
 20
3.08778
 11
16.3763
 21
2.98175
  0
LINE
  8
0
 10
16.3763
 20
2.98175
 11
16.4298
 21
2.86812
  0
LINE
  8
0
 10
16.4298
 20
2.86812
 11
16.4686
 21
2.74869
  0
LINE
  8
0
 10
16.4686
 20
2.74869
 11
16.4921
 21
2.62532
  0
LINE
  8
0
 10
16.4921
 20
2.62532
 11
16.5
 21
2.5
  0
LINE
  8
0
 10
16.5
 20
2.5
 11
16.4921
 21
2.37466
  0
LINE
  8
0
 10
16.4921
 20
2.37466
 11
16.4686
 21
2.2513
  0
LINE
  8
0
 10
16.4686
 20
2.2513
 11
16.4298
 21
2.13187
  0
LINE
  8
0
 10
16.4298
 20
2.13187
 11
16.3763
 21
2.01823
  0
LINE
  8
0
 10
16.3763
 20
2.01823
 11
16.309
 21
1.9122
  0
LINE
  8
0
 10
16.309
 20
1.9122
 11
16.229
 21
1.81544
  0
LINE
  8
0
 10
16.229
 20
1.81544
 11
16.1374
 21
1.72948
  0
LINE
  8
0
 10
16.1374
 20
1.72948
 11
16.0358
 21
1.65567
  0
LINE
  8
0
 10
16.0358
 20
1.65567
 11
15.9258
 21
1.59517
  0
LINE
  8
0
 10
15.9258
 20
1.59517
 11
15.809
 21
1.54893
  0
LINE
  8
0
 10
15.809
 20
1.54893
 11
15.6874
 21
1.5177
  0
LINE
  8
0
 10
15.6874
 20
1.5177
 11
15.5628
 21
1.50197
  0
LINE
  8
0
 10
15.5628
 20
1.50197
 11
15.4372
 21
1.50197
  0
ENDSEC
  0
SECTION
  2
OBJECTS
  0
DICTIONARY
  0
ENDSEC
  0
EOF
