  0
SECTION
  2
BLOCKS
  0
ENDSEC
  0
SECTION
  2
ENTITIES
  0
LINE
  8
0
 10
22.5
 20
21.5
 11
22.5
 21
24.5
  0
LINE
  8
0
 10
22.5
 20
24.5
 11
-22.5
 21
24.5
  0
LINE
  8
0
 10
-22.5
 20
24.5
 11
-22.5
 21
21.5
  0
LINE
  8
0
 10
-22.5
 20
21.5
 11
-25.5
 21
21.5
  0
LINE
  8
0
 10
-25.5
 20
21.5
 11
-25.5
 21
11.5
  0
LINE
  8
0
 10
-25.5
 20
11.5
 11
-22.5
 21
11.5
  0
LINE
  8
0
 10
-22.5
 20
11.5
 11
-22.5
 21
8.5
  0
LINE
  8
0
 10
-22.5
 20
8.5
 11
-25.5
 21
8.5
  0
LINE
  8
0
 10
-25.5
 20
8.5
 11
-25.5
 21
-8.5
  0
LINE
  8
0
 10
-25.5
 20
-8.5
 11
-22.5
 21
-8.5
  0
LINE
  8
0
 10
-22.5
 20
-8.5
 11
-22.5
 21
-11.5
  0
LINE
  8
0
 10
-22.5
 20
-11.5
 11
-25.5
 21
-11.5
  0
LINE
  8
0
 10
-25.5
 20
-11.5
 11
-25.5
 21
-21.5
  0
LINE
  8
0
 10
-25.5
 20
-21.5
 11
-22.5
 21
-21.5
  0
LINE
  8
0
 10
-22.5
 20
-21.5
 11
-22.5
 21
-24.5
  0
LINE
  8
0
 10
-22.5
 20
-24.5
 11
22.5
 21
-24.5
  0
LINE
  8
0
 10
22.5
 20
-24.5
 11
22.5
 21
-21.5
  0
LINE
  8
0
 10
22.5
 20
-21.5
 11
25.5
 21
-21.5
  0
LINE
  8
0
 10
25.5
 20
-21.5
 11
25.5
 21
-11.5
  0
LINE
  8
0
 10
25.5
 20
-11.5
 11
22.5
 21
-11.5
  0
LINE
  8
0
 10
22.5
 20
-11.5
 11
22.5
 21
-8.5
  0
LINE
  8
0
 10
22.5
 20
-8.5
 11
25.5
 21
-8.5
  0
LINE
  8
0
 10
25.5
 20
-8.5
 11
25.5
 21
8.5
  0
LINE
  8
0
 10
25.5
 20
8.5
 11
22.5
 21
8.5
  0
LINE
  8
0
 10
22.5
 20
8.5
 11
22.5
 21
11.5
  0
LINE
  8
0
 10
22.5
 20
11.5
 11
25.5
 21
11.5
  0
LINE
  8
0
 10
25.5
 20
11.5
 11
25.5
 21
21.5
  0
LINE
  8
0
 10
25.5
 20
21.5
 11
22.5
 21
21.5
  0
LINE
  8
0
 10
-4
 20
14.5
 11
-4
 21
19.5
  0
LINE
  8
0
 10
-4
 20
19.5
 11
4
 21
19.5
  0
LINE
  8
0
 10
4
 20
19.5
 11
4
 21
14.5
  0
LINE
  8
0
 10
4
 20
14.5
 11
-4
 21
14.5
  0
ENDSEC
  0
SECTION
  2
OBJECTS
  0
DICTIONARY
  0
ENDSEC
  0
EOF
