  0
SECTION
  2
BLOCKS
  0
ENDSEC
  0
SECTION
  2
ENTITIES
  0
LINE
  8
0
 10
24
 20
21.5
 11
24
 21
24.5
  0
LINE
  8
0
 10
24
 20
24.5
 11
-24
 21
24.5
  0
LINE
  8
0
 10
-24
 20
24.5
 11
-24
 21
21.5
  0
LINE
  8
0
 10
-24
 20
21.5
 11
-27
 21
21.5
  0
LINE
  8
0
 10
-27
 20
21.5
 11
-27
 21
11.5
  0
LINE
  8
0
 10
-27
 20
11.5
 11
-24
 21
11.5
  0
LINE
  8
0
 10
-24
 20
11.5
 11
-24
 21
8.5
  0
LINE
  8
0
 10
-24
 20
8.5
 11
-27
 21
8.5
  0
LINE
  8
0
 10
-27
 20
8.5
 11
-27
 21
-8.5
  0
LINE
  8
0
 10
-27
 20
-8.5
 11
-24
 21
-8.5
  0
LINE
  8
0
 10
-24
 20
-8.5
 11
-24
 21
-11.5
  0
LINE
  8
0
 10
-24
 20
-11.5
 11
-27
 21
-11.5
  0
LINE
  8
0
 10
-27
 20
-11.5
 11
-27
 21
-21.5
  0
LINE
  8
0
 10
-27
 20
-21.5
 11
-24
 21
-21.5
  0
LINE
  8
0
 10
-24
 20
-21.5
 11
-24
 21
-24.5
  0
LINE
  8
0
 10
-24
 20
-24.5
 11
24
 21
-24.5
  0
LINE
  8
0
 10
24
 20
-24.5
 11
24
 21
-21.5
  0
LINE
  8
0
 10
24
 20
-21.5
 11
27
 21
-21.5
  0
LINE
  8
0
 10
27
 20
-21.5
 11
27
 21
-11.5
  0
LINE
  8
0
 10
27
 20
-11.5
 11
24
 21
-11.5
  0
LINE
  8
0
 10
24
 20
-11.5
 11
24
 21
-8.5
  0
LINE
  8
0
 10
24
 20
-8.5
 11
27
 21
-8.5
  0
LINE
  8
0
 10
27
 20
-8.5
 11
27
 21
8.5
  0
LINE
  8
0
 10
27
 20
8.5
 11
24
 21
8.5
  0
LINE
  8
0
 10
24
 20
8.5
 11
24
 21
11.5
  0
LINE
  8
0
 10
24
 20
11.5
 11
27
 21
11.5
  0
LINE
  8
0
 10
27
 20
11.5
 11
27
 21
21.5
  0
LINE
  8
0
 10
27
 20
21.5
 11
24
 21
21.5
  0
LINE
  8
0
 10
-4
 20
14.5
 11
-4
 21
19.5
  0
LINE
  8
0
 10
-4
 20
19.5
 11
4
 21
19.5
  0
LINE
  8
0
 10
4
 20
19.5
 11
4
 21
14.5
  0
LINE
  8
0
 10
4
 20
14.5
 11
-4
 21
14.5
  0
ENDSEC
  0
SECTION
  2
OBJECTS
  0
DICTIONARY
  0
ENDSEC
  0
EOF
