  0
SECTION
  2
BLOCKS
  0
ENDSEC
  0
SECTION
  2
ENTITIES
  0
LINE
  8
0
 10
31.5
 20
72
 11
-31.5
 21
72
  0
LINE
  8
0
 10
-31.5
 20
72
 11
-31.5
 21
-72
  0
LINE
  8
0
 10
-31.5
 20
-72
 11
31.5
 21
-72
  0
LINE
  8
0
 10
31.5
 20
-72
 11
31.5
 21
72
  0
LINE
  8
0
 10
-28.0942
 20
67.0029
 11
-28.2811
 21
67.0266
  0
LINE
  8
0
 10
-28.2811
 20
67.0266
 11
-28.4635
 21
67.0734
  0
LINE
  8
0
 10
-28.4635
 20
67.0734
 11
-28.6387
 21
67.1427
  0
LINE
  8
0
 10
-28.6387
 20
67.1427
 11
-28.8037
 21
67.2335
  0
LINE
  8
0
 10
-28.8037
 20
67.2335
 11
-28.9561
 21
67.3442
  0
LINE
  8
0
 10
-28.9561
 20
67.3442
 11
-29.0934
 21
67.4732
  0
LINE
  8
0
 10
-29.0934
 20
67.4732
 11
-29.2135
 21
67.6183
  0
LINE
  8
0
 10
-29.2135
 20
67.6183
 11
-29.3145
 21
67.7774
  0
LINE
  8
0
 10
-29.3145
 20
67.7774
 11
-29.3947
 21
67.9478
  0
LINE
  8
0
 10
-29.3947
 20
67.9478
 11
-29.4529
 21
68.127
  0
LINE
  8
0
 10
-29.4529
 20
68.127
 11
-29.4882
 21
68.312
  0
LINE
  8
0
 10
-29.4882
 20
68.312
 11
-29.5
 21
68.5
  0
LINE
  8
0
 10
-29.5
 20
68.5
 11
-29.4882
 21
68.688
  0
LINE
  8
0
 10
-29.4882
 20
68.688
 11
-29.4529
 21
68.873
  0
LINE
  8
0
 10
-29.4529
 20
68.873
 11
-29.3947
 21
69.0522
  0
LINE
  8
0
 10
-29.3947
 20
69.0522
 11
-29.3145
 21
69.2226
  0
LINE
  8
0
 10
-29.3145
 20
69.2226
 11
-29.2135
 21
69.3817
  0
LINE
  8
0
 10
-29.2135
 20
69.3817
 11
-29.0934
 21
69.5268
  0
LINE
  8
0
 10
-29.0934
 20
69.5268
 11
-28.9561
 21
69.6558
  0
LINE
  8
0
 10
-28.9561
 20
69.6558
 11
-28.8037
 21
69.7665
  0
LINE
  8
0
 10
-28.8037
 20
69.7665
 11
-28.6387
 21
69.8572
  0
LINE
  8
0
 10
-28.6387
 20
69.8572
 11
-28.4635
 21
69.9266
  0
LINE
  8
0
 10
-28.4635
 20
69.9266
 11
-28.2811
 21
69.9734
  0
LINE
  8
0
 10
-28.2811
 20
69.9734
 11
-28.0942
 21
69.997
  0
LINE
  8
0
 10
-28.0942
 20
69.997
 11
-27.9058
 21
69.997
  0
LINE
  8
0
 10
-27.9058
 20
69.997
 11
-27.7189
 21
69.9734
  0
LINE
  8
0
 10
-27.7189
 20
69.9734
 11
-27.5365
 21
69.9266
  0
LINE
  8
0
 10
-27.5365
 20
69.9266
 11
-27.3613
 21
69.8572
  0
LINE
  8
0
 10
-27.3613
 20
69.8572
 11
-27.1963
 21
69.7665
  0
LINE
  8
0
 10
-27.1963
 20
69.7665
 11
-27.0439
 21
69.6558
  0
LINE
  8
0
 10
-27.0439
 20
69.6558
 11
-26.9065
 21
69.5268
  0
LINE
  8
0
 10
-26.9065
 20
69.5268
 11
-26.7865
 21
69.3817
  0
LINE
  8
0
 10
-26.7865
 20
69.3817
 11
-26.6855
 21
69.2226
  0
LINE
  8
0
 10
-26.6855
 20
69.2226
 11
-26.6053
 21
69.0522
  0
LINE
  8
0
 10
-26.6053
 20
69.0522
 11
-26.5471
 21
68.873
  0
LINE
  8
0
 10
-26.5471
 20
68.873
 11
-26.5118
 21
68.688
  0
LINE
  8
0
 10
-26.5118
 20
68.688
 11
-26.5
 21
68.5
  0
LINE
  8
0
 10
-26.5
 20
68.5
 11
-26.5118
 21
68.312
  0
LINE
  8
0
 10
-26.5118
 20
68.312
 11
-26.5471
 21
68.127
  0
LINE
  8
0
 10
-26.5471
 20
68.127
 11
-26.6053
 21
67.9478
  0
LINE
  8
0
 10
-26.6053
 20
67.9478
 11
-26.6855
 21
67.7774
  0
LINE
  8
0
 10
-26.6855
 20
67.7774
 11
-26.7865
 21
67.6183
  0
LINE
  8
0
 10
-26.7865
 20
67.6183
 11
-26.9065
 21
67.4732
  0
LINE
  8
0
 10
-26.9065
 20
67.4732
 11
-27.0439
 21
67.3442
  0
LINE
  8
0
 10
-27.0439
 20
67.3442
 11
-27.1963
 21
67.2335
  0
LINE
  8
0
 10
-27.1963
 20
67.2335
 11
-27.3613
 21
67.1427
  0
LINE
  8
0
 10
-27.3613
 20
67.1427
 11
-27.5365
 21
67.0734
  0
LINE
  8
0
 10
-27.5365
 20
67.0734
 11
-27.7189
 21
67.0266
  0
LINE
  8
0
 10
-27.7189
 20
67.0266
 11
-27.9058
 21
67.0029
  0
LINE
  8
0
 10
-27.9058
 20
67.0029
 11
-28.0942
 21
67.0029
  0
LINE
  8
0
 10
27.9058
 20
67.0029
 11
27.7189
 21
67.0266
  0
LINE
  8
0
 10
27.7189
 20
67.0266
 11
27.5365
 21
67.0734
  0
LINE
  8
0
 10
27.5365
 20
67.0734
 11
27.3613
 21
67.1427
  0
LINE
  8
0
 10
27.3613
 20
67.1427
 11
27.1963
 21
67.2335
  0
LINE
  8
0
 10
27.1963
 20
67.2335
 11
27.0439
 21
67.3442
  0
LINE
  8
0
 10
27.0439
 20
67.3442
 11
26.9065
 21
67.4732
  0
LINE
  8
0
 10
26.9065
 20
67.4732
 11
26.7865
 21
67.6183
  0
LINE
  8
0
 10
26.7865
 20
67.6183
 11
26.6855
 21
67.7774
  0
LINE
  8
0
 10
26.6855
 20
67.7774
 11
26.6053
 21
67.9478
  0
LINE
  8
0
 10
26.6053
 20
67.9478
 11
26.5471
 21
68.127
  0
LINE
  8
0
 10
26.5471
 20
68.127
 11
26.5118
 21
68.312
  0
LINE
  8
0
 10
26.5118
 20
68.312
 11
26.5
 21
68.5
  0
LINE
  8
0
 10
26.5
 20
68.5
 11
26.5118
 21
68.688
  0
LINE
  8
0
 10
26.5118
 20
68.688
 11
26.5471
 21
68.873
  0
LINE
  8
0
 10
26.5471
 20
68.873
 11
26.6053
 21
69.0522
  0
LINE
  8
0
 10
26.6053
 20
69.0522
 11
26.6855
 21
69.2226
  0
LINE
  8
0
 10
26.6855
 20
69.2226
 11
26.7865
 21
69.3817
  0
LINE
  8
0
 10
26.7865
 20
69.3817
 11
26.9065
 21
69.5268
  0
LINE
  8
0
 10
26.9065
 20
69.5268
 11
27.0439
 21
69.6558
  0
LINE
  8
0
 10
27.0439
 20
69.6558
 11
27.1963
 21
69.7665
  0
LINE
  8
0
 10
27.1963
 20
69.7665
 11
27.3613
 21
69.8572
  0
LINE
  8
0
 10
27.3613
 20
69.8572
 11
27.5365
 21
69.9266
  0
LINE
  8
0
 10
27.5365
 20
69.9266
 11
27.7189
 21
69.9734
  0
LINE
  8
0
 10
27.7189
 20
69.9734
 11
27.9058
 21
69.997
  0
LINE
  8
0
 10
27.9058
 20
69.997
 11
28.0942
 21
69.997
  0
LINE
  8
0
 10
28.0942
 20
69.997
 11
28.2811
 21
69.9734
  0
LINE
  8
0
 10
28.2811
 20
69.9734
 11
28.4635
 21
69.9266
  0
LINE
  8
0
 10
28.4635
 20
69.9266
 11
28.6387
 21
69.8572
  0
LINE
  8
0
 10
28.6387
 20
69.8572
 11
28.8037
 21
69.7665
  0
LINE
  8
0
 10
28.8037
 20
69.7665
 11
28.9561
 21
69.6558
  0
LINE
  8
0
 10
28.9561
 20
69.6558
 11
29.0934
 21
69.5268
  0
LINE
  8
0
 10
29.0934
 20
69.5268
 11
29.2135
 21
69.3817
  0
LINE
  8
0
 10
29.2135
 20
69.3817
 11
29.3145
 21
69.2226
  0
LINE
  8
0
 10
29.3145
 20
69.2226
 11
29.3947
 21
69.0522
  0
LINE
  8
0
 10
29.3947
 20
69.0522
 11
29.4529
 21
68.873
  0
LINE
  8
0
 10
29.4529
 20
68.873
 11
29.4882
 21
68.688
  0
LINE
  8
0
 10
29.4882
 20
68.688
 11
29.5
 21
68.5
  0
LINE
  8
0
 10
29.5
 20
68.5
 11
29.4882
 21
68.312
  0
LINE
  8
0
 10
29.4882
 20
68.312
 11
29.4529
 21
68.127
  0
LINE
  8
0
 10
29.4529
 20
68.127
 11
29.3947
 21
67.9478
  0
LINE
  8
0
 10
29.3947
 20
67.9478
 11
29.3145
 21
67.7774
  0
LINE
  8
0
 10
29.3145
 20
67.7774
 11
29.2135
 21
67.6183
  0
LINE
  8
0
 10
29.2135
 20
67.6183
 11
29.0934
 21
67.4732
  0
LINE
  8
0
 10
29.0934
 20
67.4732
 11
28.9561
 21
67.3442
  0
LINE
  8
0
 10
28.9561
 20
67.3442
 11
28.8037
 21
67.2335
  0
LINE
  8
0
 10
28.8037
 20
67.2335
 11
28.6387
 21
67.1427
  0
LINE
  8
0
 10
28.6387
 20
67.1427
 11
28.4635
 21
67.0734
  0
LINE
  8
0
 10
28.4635
 20
67.0734
 11
28.2811
 21
67.0266
  0
LINE
  8
0
 10
28.2811
 20
67.0266
 11
28.0942
 21
67.0029
  0
LINE
  8
0
 10
28.0942
 20
67.0029
 11
27.9058
 21
67.0029
  0
LINE
  8
0
 10
-22.5
 20
63
 11
-22.5
 21
66
  0
LINE
  8
0
 10
-22.5
 20
66
 11
22.5
 21
66
  0
LINE
  8
0
 10
22.5
 20
66
 11
22.5
 21
63
  0
LINE
  8
0
 10
22.5
 20
63
 11
-22.5
 21
63
  0
LINE
  8
0
 10
-15
 20
58.5
 11
-15
 21
61.5
  0
LINE
  8
0
 10
-15
 20
61.5
 11
15
 21
61.5
  0
LINE
  8
0
 10
15
 20
61.5
 11
15
 21
58.5
  0
LINE
  8
0
 10
15
 20
58.5
 11
-15
 21
58.5
  0
LINE
  8
0
 10
18.3744
 20
56.0039
 11
18.1252
 21
56.0354
  0
LINE
  8
0
 10
18.1252
 20
56.0354
 11
17.882
 21
56.0979
  0
LINE
  8
0
 10
17.882
 20
56.0979
 11
17.6484
 21
56.1903
  0
LINE
  8
0
 10
17.6484
 20
56.1903
 11
17.4283
 21
56.3113
  0
LINE
  8
0
 10
17.4283
 20
56.3113
 11
17.2251
 21
56.459
  0
LINE
  8
0
 10
17.2251
 20
56.459
 11
17.0421
 21
56.6309
  0
LINE
  8
0
 10
17.0421
 20
56.6309
 11
16.882
 21
56.8244
  0
LINE
  8
0
 10
16.882
 20
56.8244
 11
16.7474
 21
57.0365
  0
LINE
  8
0
 10
16.7474
 20
57.0365
 11
16.6404
 21
57.2637
  0
LINE
  8
0
 10
16.6404
 20
57.2637
 11
16.5628
 21
57.5026
  0
LINE
  8
0
 10
16.5628
 20
57.5026
 11
16.5158
 21
57.7493
  0
LINE
  8
0
 10
16.5158
 20
57.7493
 11
16.5
 21
58
  0
LINE
  8
0
 10
16.5
 20
58
 11
16.5158
 21
58.2507
  0
LINE
  8
0
 10
16.5158
 20
58.2507
 11
16.5628
 21
58.4974
  0
LINE
  8
0
 10
16.5628
 20
58.4974
 11
16.6404
 21
58.7362
  0
LINE
  8
0
 10
16.6404
 20
58.7362
 11
16.7474
 21
58.9635
  0
LINE
  8
0
 10
16.7474
 20
58.9635
 11
16.882
 21
59.1756
  0
LINE
  8
0
 10
16.882
 20
59.1756
 11
17.0421
 21
59.3691
  0
LINE
  8
0
 10
17.0421
 20
59.3691
 11
17.2251
 21
59.541
  0
LINE
  8
0
 10
17.2251
 20
59.541
 11
17.4283
 21
59.6886
  0
LINE
  8
0
 10
17.4283
 20
59.6886
 11
17.6484
 21
59.8096
  0
LINE
  8
0
 10
17.6484
 20
59.8096
 11
17.882
 21
59.9021
  0
LINE
  8
0
 10
17.882
 20
59.9021
 11
18.1252
 21
59.9646
  0
LINE
  8
0
 10
18.1252
 20
59.9646
 11
18.3744
 21
59.996
  0
LINE
  8
0
 10
18.3744
 20
59.996
 11
18.6256
 21
59.996
  0
LINE
  8
0
 10
18.6256
 20
59.996
 11
18.8748
 21
59.9646
  0
LINE
  8
0
 10
18.8748
 20
59.9646
 11
19.118
 21
59.9021
  0
LINE
  8
0
 10
19.118
 20
59.9021
 11
19.3515
 21
59.8096
  0
LINE
  8
0
 10
19.3515
 20
59.8096
 11
19.5716
 21
59.6886
  0
LINE
  8
0
 10
19.5716
 20
59.6886
 11
19.7748
 21
59.541
  0
LINE
  8
0
 10
19.7748
 20
59.541
 11
19.9579
 21
59.3691
  0
LINE
  8
0
 10
19.9579
 20
59.3691
 11
20.118
 21
59.1756
  0
LINE
  8
0
 10
20.118
 20
59.1756
 11
20.2526
 21
58.9635
  0
LINE
  8
0
 10
20.2526
 20
58.9635
 11
20.3595
 21
58.7362
  0
LINE
  8
0
 10
20.3595
 20
58.7362
 11
20.4372
 21
58.4974
  0
LINE
  8
0
 10
20.4372
 20
58.4974
 11
20.4842
 21
58.2507
  0
LINE
  8
0
 10
20.4842
 20
58.2507
 11
20.5
 21
58
  0
LINE
  8
0
 10
20.5
 20
58
 11
20.4842
 21
57.7493
  0
LINE
  8
0
 10
20.4842
 20
57.7493
 11
20.4372
 21
57.5026
  0
LINE
  8
0
 10
20.4372
 20
57.5026
 11
20.3595
 21
57.2637
  0
LINE
  8
0
 10
20.3595
 20
57.2637
 11
20.2526
 21
57.0365
  0
LINE
  8
0
 10
20.2526
 20
57.0365
 11
20.118
 21
56.8244
  0
LINE
  8
0
 10
20.118
 20
56.8244
 11
19.9579
 21
56.6309
  0
LINE
  8
0
 10
19.9579
 20
56.6309
 11
19.7748
 21
56.459
  0
LINE
  8
0
 10
19.7748
 20
56.459
 11
19.5716
 21
56.3113
  0
LINE
  8
0
 10
19.5716
 20
56.3113
 11
19.3515
 21
56.1903
  0
LINE
  8
0
 10
19.3515
 20
56.1903
 11
19.118
 21
56.0979
  0
LINE
  8
0
 10
19.118
 20
56.0979
 11
18.8748
 21
56.0354
  0
LINE
  8
0
 10
18.8748
 20
56.0354
 11
18.6256
 21
56.0039
  0
LINE
  8
0
 10
18.6256
 20
56.0039
 11
18.3744
 21
56.0039
  0
LINE
  8
0
 10
-18.6256
 20
56.0039
 11
-18.8748
 21
56.0354
  0
LINE
  8
0
 10
-18.8748
 20
56.0354
 11
-19.118
 21
56.0979
  0
LINE
  8
0
 10
-19.118
 20
56.0979
 11
-19.3515
 21
56.1903
  0
LINE
  8
0
 10
-19.3515
 20
56.1903
 11
-19.5716
 21
56.3113
  0
LINE
  8
0
 10
-19.5716
 20
56.3113
 11
-19.7748
 21
56.459
  0
LINE
  8
0
 10
-19.7748
 20
56.459
 11
-19.9579
 21
56.6309
  0
LINE
  8
0
 10
-19.9579
 20
56.6309
 11
-20.118
 21
56.8244
  0
LINE
  8
0
 10
-20.118
 20
56.8244
 11
-20.2526
 21
57.0365
  0
LINE
  8
0
 10
-20.2526
 20
57.0365
 11
-20.3595
 21
57.2637
  0
LINE
  8
0
 10
-20.3595
 20
57.2637
 11
-20.4372
 21
57.5026
  0
LINE
  8
0
 10
-20.4372
 20
57.5026
 11
-20.4842
 21
57.7493
  0
LINE
  8
0
 10
-20.4842
 20
57.7493
 11
-20.5
 21
58
  0
LINE
  8
0
 10
-20.5
 20
58
 11
-20.4842
 21
58.2507
  0
LINE
  8
0
 10
-20.4842
 20
58.2507
 11
-20.4372
 21
58.4974
  0
LINE
  8
0
 10
-20.4372
 20
58.4974
 11
-20.3595
 21
58.7362
  0
LINE
  8
0
 10
-20.3595
 20
58.7362
 11
-20.2526
 21
58.9635
  0
LINE
  8
0
 10
-20.2526
 20
58.9635
 11
-20.118
 21
59.1756
  0
LINE
  8
0
 10
-20.118
 20
59.1756
 11
-19.9579
 21
59.3691
  0
LINE
  8
0
 10
-19.9579
 20
59.3691
 11
-19.7748
 21
59.541
  0
LINE
  8
0
 10
-19.7748
 20
59.541
 11
-19.5716
 21
59.6886
  0
LINE
  8
0
 10
-19.5716
 20
59.6886
 11
-19.3515
 21
59.8096
  0
LINE
  8
0
 10
-19.3515
 20
59.8096
 11
-19.118
 21
59.9021
  0
LINE
  8
0
 10
-19.118
 20
59.9021
 11
-18.8748
 21
59.9646
  0
LINE
  8
0
 10
-18.8748
 20
59.9646
 11
-18.6256
 21
59.996
  0
LINE
  8
0
 10
-18.6256
 20
59.996
 11
-18.3744
 21
59.996
  0
LINE
  8
0
 10
-18.3744
 20
59.996
 11
-18.1252
 21
59.9646
  0
LINE
  8
0
 10
-18.1252
 20
59.9646
 11
-17.882
 21
59.9021
  0
LINE
  8
0
 10
-17.882
 20
59.9021
 11
-17.6484
 21
59.8096
  0
LINE
  8
0
 10
-17.6484
 20
59.8096
 11
-17.4283
 21
59.6886
  0
LINE
  8
0
 10
-17.4283
 20
59.6886
 11
-17.2251
 21
59.541
  0
LINE
  8
0
 10
-17.2251
 20
59.541
 11
-17.0421
 21
59.3691
  0
LINE
  8
0
 10
-17.0421
 20
59.3691
 11
-16.882
 21
59.1756
  0
LINE
  8
0
 10
-16.882
 20
59.1756
 11
-16.7474
 21
58.9635
  0
LINE
  8
0
 10
-16.7474
 20
58.9635
 11
-16.6404
 21
58.7362
  0
LINE
  8
0
 10
-16.6404
 20
58.7362
 11
-16.5628
 21
58.4974
  0
LINE
  8
0
 10
-16.5628
 20
58.4974
 11
-16.5158
 21
58.2507
  0
LINE
  8
0
 10
-16.5158
 20
58.2507
 11
-16.5
 21
58
  0
LINE
  8
0
 10
-16.5
 20
58
 11
-16.5158
 21
57.7493
  0
LINE
  8
0
 10
-16.5158
 20
57.7493
 11
-16.5628
 21
57.5026
  0
LINE
  8
0
 10
-16.5628
 20
57.5026
 11
-16.6404
 21
57.2637
  0
LINE
  8
0
 10
-16.6404
 20
57.2637
 11
-16.7474
 21
57.0365
  0
LINE
  8
0
 10
-16.7474
 20
57.0365
 11
-16.882
 21
56.8244
  0
LINE
  8
0
 10
-16.882
 20
56.8244
 11
-17.0421
 21
56.6309
  0
LINE
  8
0
 10
-17.0421
 20
56.6309
 11
-17.2251
 21
56.459
  0
LINE
  8
0
 10
-17.2251
 20
56.459
 11
-17.4283
 21
56.3113
  0
LINE
  8
0
 10
-17.4283
 20
56.3113
 11
-17.6484
 21
56.1903
  0
LINE
  8
0
 10
-17.6484
 20
56.1903
 11
-17.882
 21
56.0979
  0
LINE
  8
0
 10
-17.882
 20
56.0979
 11
-18.1252
 21
56.0354
  0
LINE
  8
0
 10
-18.1252
 20
56.0354
 11
-18.3744
 21
56.0039
  0
LINE
  8
0
 10
-18.3744
 20
56.0039
 11
-18.6256
 21
56.0039
  0
LINE
  8
0
 10
-25.5
 20
48.5
 11
-25.5
 21
51.5
  0
LINE
  8
0
 10
-25.5
 20
51.5
 11
-22.5
 21
51.5
  0
LINE
  8
0
 10
-22.5
 20
51.5
 11
-22.5
 21
48.5
  0
LINE
  8
0
 10
-22.5
 20
48.5
 11
-25.5
 21
48.5
  0
LINE
  8
0
 10
22.5
 20
48.5
 11
22.5
 21
51.5
  0
LINE
  8
0
 10
22.5
 20
51.5
 11
25.5
 21
51.5
  0
LINE
  8
0
 10
25.5
 20
51.5
 11
25.5
 21
48.5
  0
LINE
  8
0
 10
25.5
 20
48.5
 11
22.5
 21
48.5
  0
LINE
  8
0
 10
-15
 20
48.5
 11
-15
 21
51.5
  0
LINE
  8
0
 10
-15
 20
51.5
 11
15
 21
51.5
  0
LINE
  8
0
 10
15
 20
51.5
 11
15
 21
48.5
  0
LINE
  8
0
 10
15
 20
48.5
 11
-15
 21
48.5
  0
LINE
  8
0
 10
-15
 20
38.5
 11
-15
 21
41.5
  0
LINE
  8
0
 10
-15
 20
41.5
 11
15
 21
41.5
  0
LINE
  8
0
 10
15
 20
41.5
 11
15
 21
38.5
  0
LINE
  8
0
 10
15
 20
38.5
 11
-15
 21
38.5
  0
LINE
  8
0
 10
-15
 20
28.5
 11
-15
 21
31.5
  0
LINE
  8
0
 10
-15
 20
31.5
 11
15
 21
31.5
  0
LINE
  8
0
 10
15
 20
31.5
 11
15
 21
28.5
  0
LINE
  8
0
 10
15
 20
28.5
 11
-15
 21
28.5
  0
LINE
  8
0
 10
-15
 20
18.5
 11
-15
 21
21.5
  0
LINE
  8
0
 10
-15
 20
21.5
 11
15
 21
21.5
  0
LINE
  8
0
 10
15
 20
21.5
 11
15
 21
18.5
  0
LINE
  8
0
 10
15
 20
18.5
 11
-15
 21
18.5
  0
LINE
  8
0
 10
22.5
 20
18.5
 11
22.5
 21
21.5
  0
LINE
  8
0
 10
22.5
 20
21.5
 11
25.5
 21
21.5
  0
LINE
  8
0
 10
25.5
 20
21.5
 11
25.5
 21
18.5
  0
LINE
  8
0
 10
25.5
 20
18.5
 11
22.5
 21
18.5
  0
LINE
  8
0
 10
-25.5
 20
18.5
 11
-25.5
 21
21.5
  0
LINE
  8
0
 10
-25.5
 20
21.5
 11
-22.5
 21
21.5
  0
LINE
  8
0
 10
-22.5
 20
21.5
 11
-22.5
 21
18.5
  0
LINE
  8
0
 10
-22.5
 20
18.5
 11
-25.5
 21
18.5
  0
LINE
  8
0
 10
-15
 20
8.5
 11
-15
 21
11.5
  0
LINE
  8
0
 10
-15
 20
11.5
 11
15
 21
11.5
  0
LINE
  8
0
 10
15
 20
11.5
 11
15
 21
8.5
  0
LINE
  8
0
 10
15
 20
8.5
 11
-15
 21
8.5
  0
LINE
  8
0
 10
-15
 20
-1.5
 11
-15
 21
1.5
  0
LINE
  8
0
 10
-15
 20
1.5
 11
15
 21
1.5
  0
LINE
  8
0
 10
15
 20
1.5
 11
15
 21
-1.5
  0
LINE
  8
0
 10
15
 20
-1.5
 11
-15
 21
-1.5
  0
LINE
  8
0
 10
-15
 20
-11.5
 11
-15
 21
-8.5
  0
LINE
  8
0
 10
-15
 20
-8.5
 11
15
 21
-8.5
  0
LINE
  8
0
 10
15
 20
-8.5
 11
15
 21
-11.5
  0
LINE
  8
0
 10
15
 20
-11.5
 11
-15
 21
-11.5
  0
LINE
  8
0
 10
-25.5
 20
-21.5
 11
-25.5
 21
-18.5
  0
LINE
  8
0
 10
-25.5
 20
-18.5
 11
-22.5
 21
-18.5
  0
LINE
  8
0
 10
-22.5
 20
-18.5
 11
-22.5
 21
-21.5
  0
LINE
  8
0
 10
-22.5
 20
-21.5
 11
-25.5
 21
-21.5
  0
LINE
  8
0
 10
22.5
 20
-21.5
 11
22.5
 21
-18.5
  0
LINE
  8
0
 10
22.5
 20
-18.5
 11
25.5
 21
-18.5
  0
LINE
  8
0
 10
25.5
 20
-18.5
 11
25.5
 21
-21.5
  0
LINE
  8
0
 10
25.5
 20
-21.5
 11
22.5
 21
-21.5
  0
LINE
  8
0
 10
-15
 20
-21.5
 11
-15
 21
-18.5
  0
LINE
  8
0
 10
-15
 20
-18.5
 11
15
 21
-18.5
  0
LINE
  8
0
 10
15
 20
-18.5
 11
15
 21
-21.5
  0
LINE
  8
0
 10
15
 20
-21.5
 11
-15
 21
-21.5
  0
LINE
  8
0
 10
-15
 20
-31.5
 11
-15
 21
-28.5
  0
LINE
  8
0
 10
-15
 20
-28.5
 11
15
 21
-28.5
  0
LINE
  8
0
 10
15
 20
-28.5
 11
15
 21
-31.5
  0
LINE
  8
0
 10
15
 20
-31.5
 11
-15
 21
-31.5
  0
LINE
  8
0
 10
-15
 20
-41.5
 11
-15
 21
-38.5
  0
LINE
  8
0
 10
-15
 20
-38.5
 11
15
 21
-38.5
  0
LINE
  8
0
 10
15
 20
-38.5
 11
15
 21
-41.5
  0
LINE
  8
0
 10
15
 20
-41.5
 11
-15
 21
-41.5
  0
LINE
  8
0
 10
-15
 20
-51.5
 11
-15
 21
-48.5
  0
LINE
  8
0
 10
-15
 20
-48.5
 11
15
 21
-48.5
  0
LINE
  8
0
 10
15
 20
-48.5
 11
15
 21
-51.5
  0
LINE
  8
0
 10
15
 20
-51.5
 11
-15
 21
-51.5
  0
LINE
  8
0
 10
-25.5
 20
-51.5
 11
-25.5
 21
-48.5
  0
LINE
  8
0
 10
-25.5
 20
-48.5
 11
-22.5
 21
-48.5
  0
LINE
  8
0
 10
-22.5
 20
-48.5
 11
-22.5
 21
-51.5
  0
LINE
  8
0
 10
-22.5
 20
-51.5
 11
-25.5
 21
-51.5
  0
LINE
  8
0
 10
22.5
 20
-51.5
 11
22.5
 21
-48.5
  0
LINE
  8
0
 10
22.5
 20
-48.5
 11
25.5
 21
-48.5
  0
LINE
  8
0
 10
25.5
 20
-48.5
 11
25.5
 21
-51.5
  0
LINE
  8
0
 10
25.5
 20
-51.5
 11
22.5
 21
-51.5
  0
LINE
  8
0
 10
-15
 20
-61.5
 11
-15
 21
-58.5
  0
LINE
  8
0
 10
-15
 20
-58.5
 11
15
 21
-58.5
  0
LINE
  8
0
 10
15
 20
-58.5
 11
15
 21
-61.5
  0
LINE
  8
0
 10
15
 20
-61.5
 11
-15
 21
-61.5
  0
LINE
  8
0
 10
-22.5
 20
-66
 11
-22.5
 21
-63
  0
LINE
  8
0
 10
-22.5
 20
-63
 11
22.5
 21
-63
  0
LINE
  8
0
 10
22.5
 20
-63
 11
22.5
 21
-66
  0
LINE
  8
0
 10
22.5
 20
-66
 11
-22.5
 21
-66
  0
LINE
  8
0
 10
27.9058
 20
-69.997
 11
27.7189
 21
-69.9734
  0
LINE
  8
0
 10
27.7189
 20
-69.9734
 11
27.5365
 21
-69.9266
  0
LINE
  8
0
 10
27.5365
 20
-69.9266
 11
27.3613
 21
-69.8572
  0
LINE
  8
0
 10
27.3613
 20
-69.8572
 11
27.1963
 21
-69.7665
  0
LINE
  8
0
 10
27.1963
 20
-69.7665
 11
27.0439
 21
-69.6558
  0
LINE
  8
0
 10
27.0439
 20
-69.6558
 11
26.9065
 21
-69.5268
  0
LINE
  8
0
 10
26.9065
 20
-69.5268
 11
26.7865
 21
-69.3817
  0
LINE
  8
0
 10
26.7865
 20
-69.3817
 11
26.6855
 21
-69.2226
  0
LINE
  8
0
 10
26.6855
 20
-69.2226
 11
26.6053
 21
-69.0522
  0
LINE
  8
0
 10
26.6053
 20
-69.0522
 11
26.5471
 21
-68.873
  0
LINE
  8
0
 10
26.5471
 20
-68.873
 11
26.5118
 21
-68.688
  0
LINE
  8
0
 10
26.5118
 20
-68.688
 11
26.5
 21
-68.5
  0
LINE
  8
0
 10
26.5
 20
-68.5
 11
26.5118
 21
-68.312
  0
LINE
  8
0
 10
26.5118
 20
-68.312
 11
26.5471
 21
-68.127
  0
LINE
  8
0
 10
26.5471
 20
-68.127
 11
26.6053
 21
-67.9478
  0
LINE
  8
0
 10
26.6053
 20
-67.9478
 11
26.6855
 21
-67.7774
  0
LINE
  8
0
 10
26.6855
 20
-67.7774
 11
26.7865
 21
-67.6183
  0
LINE
  8
0
 10
26.7865
 20
-67.6183
 11
26.9065
 21
-67.4732
  0
LINE
  8
0
 10
26.9065
 20
-67.4732
 11
27.0439
 21
-67.3442
  0
LINE
  8
0
 10
27.0439
 20
-67.3442
 11
27.1963
 21
-67.2335
  0
LINE
  8
0
 10
27.1963
 20
-67.2335
 11
27.3613
 21
-67.1427
  0
LINE
  8
0
 10
27.3613
 20
-67.1427
 11
27.5365
 21
-67.0734
  0
LINE
  8
0
 10
27.5365
 20
-67.0734
 11
27.7189
 21
-67.0266
  0
LINE
  8
0
 10
27.7189
 20
-67.0266
 11
27.9058
 21
-67.0029
  0
LINE
  8
0
 10
27.9058
 20
-67.0029
 11
28.0942
 21
-67.0029
  0
LINE
  8
0
 10
28.0942
 20
-67.0029
 11
28.2811
 21
-67.0266
  0
LINE
  8
0
 10
28.2811
 20
-67.0266
 11
28.4635
 21
-67.0734
  0
LINE
  8
0
 10
28.4635
 20
-67.0734
 11
28.6387
 21
-67.1427
  0
LINE
  8
0
 10
28.6387
 20
-67.1427
 11
28.8037
 21
-67.2335
  0
LINE
  8
0
 10
28.8037
 20
-67.2335
 11
28.9561
 21
-67.3442
  0
LINE
  8
0
 10
28.9561
 20
-67.3442
 11
29.0934
 21
-67.4732
  0
LINE
  8
0
 10
29.0934
 20
-67.4732
 11
29.2135
 21
-67.6183
  0
LINE
  8
0
 10
29.2135
 20
-67.6183
 11
29.3145
 21
-67.7774
  0
LINE
  8
0
 10
29.3145
 20
-67.7774
 11
29.3947
 21
-67.9478
  0
LINE
  8
0
 10
29.3947
 20
-67.9478
 11
29.4529
 21
-68.127
  0
LINE
  8
0
 10
29.4529
 20
-68.127
 11
29.4882
 21
-68.312
  0
LINE
  8
0
 10
29.4882
 20
-68.312
 11
29.5
 21
-68.5
  0
LINE
  8
0
 10
29.5
 20
-68.5
 11
29.4882
 21
-68.688
  0
LINE
  8
0
 10
29.4882
 20
-68.688
 11
29.4529
 21
-68.873
  0
LINE
  8
0
 10
29.4529
 20
-68.873
 11
29.3947
 21
-69.0522
  0
LINE
  8
0
 10
29.3947
 20
-69.0522
 11
29.3145
 21
-69.2226
  0
LINE
  8
0
 10
29.3145
 20
-69.2226
 11
29.2135
 21
-69.3817
  0
LINE
  8
0
 10
29.2135
 20
-69.3817
 11
29.0934
 21
-69.5268
  0
LINE
  8
0
 10
29.0934
 20
-69.5268
 11
28.9561
 21
-69.6558
  0
LINE
  8
0
 10
28.9561
 20
-69.6558
 11
28.8037
 21
-69.7665
  0
LINE
  8
0
 10
28.8037
 20
-69.7665
 11
28.6387
 21
-69.8572
  0
LINE
  8
0
 10
28.6387
 20
-69.8572
 11
28.4635
 21
-69.9266
  0
LINE
  8
0
 10
28.4635
 20
-69.9266
 11
28.2811
 21
-69.9734
  0
LINE
  8
0
 10
28.2811
 20
-69.9734
 11
28.0942
 21
-69.997
  0
LINE
  8
0
 10
28.0942
 20
-69.997
 11
27.9058
 21
-69.997
  0
LINE
  8
0
 10
-28.0942
 20
-69.997
 11
-28.2811
 21
-69.9734
  0
LINE
  8
0
 10
-28.2811
 20
-69.9734
 11
-28.4635
 21
-69.9266
  0
LINE
  8
0
 10
-28.4635
 20
-69.9266
 11
-28.6387
 21
-69.8572
  0
LINE
  8
0
 10
-28.6387
 20
-69.8572
 11
-28.8037
 21
-69.7665
  0
LINE
  8
0
 10
-28.8037
 20
-69.7665
 11
-28.9561
 21
-69.6558
  0
LINE
  8
0
 10
-28.9561
 20
-69.6558
 11
-29.0934
 21
-69.5268
  0
LINE
  8
0
 10
-29.0934
 20
-69.5268
 11
-29.2135
 21
-69.3817
  0
LINE
  8
0
 10
-29.2135
 20
-69.3817
 11
-29.3145
 21
-69.2226
  0
LINE
  8
0
 10
-29.3145
 20
-69.2226
 11
-29.3947
 21
-69.0522
  0
LINE
  8
0
 10
-29.3947
 20
-69.0522
 11
-29.4529
 21
-68.873
  0
LINE
  8
0
 10
-29.4529
 20
-68.873
 11
-29.4882
 21
-68.688
  0
LINE
  8
0
 10
-29.4882
 20
-68.688
 11
-29.5
 21
-68.5
  0
LINE
  8
0
 10
-29.5
 20
-68.5
 11
-29.4882
 21
-68.312
  0
LINE
  8
0
 10
-29.4882
 20
-68.312
 11
-29.4529
 21
-68.127
  0
LINE
  8
0
 10
-29.4529
 20
-68.127
 11
-29.3947
 21
-67.9478
  0
LINE
  8
0
 10
-29.3947
 20
-67.9478
 11
-29.3145
 21
-67.7774
  0
LINE
  8
0
 10
-29.3145
 20
-67.7774
 11
-29.2135
 21
-67.6183
  0
LINE
  8
0
 10
-29.2135
 20
-67.6183
 11
-29.0934
 21
-67.4732
  0
LINE
  8
0
 10
-29.0934
 20
-67.4732
 11
-28.9561
 21
-67.3442
  0
LINE
  8
0
 10
-28.9561
 20
-67.3442
 11
-28.8037
 21
-67.2335
  0
LINE
  8
0
 10
-28.8037
 20
-67.2335
 11
-28.6387
 21
-67.1427
  0
LINE
  8
0
 10
-28.6387
 20
-67.1427
 11
-28.4635
 21
-67.0734
  0
LINE
  8
0
 10
-28.4635
 20
-67.0734
 11
-28.2811
 21
-67.0266
  0
LINE
  8
0
 10
-28.2811
 20
-67.0266
 11
-28.0942
 21
-67.0029
  0
LINE
  8
0
 10
-28.0942
 20
-67.0029
 11
-27.9058
 21
-67.0029
  0
LINE
  8
0
 10
-27.9058
 20
-67.0029
 11
-27.7189
 21
-67.0266
  0
LINE
  8
0
 10
-27.7189
 20
-67.0266
 11
-27.5365
 21
-67.0734
  0
LINE
  8
0
 10
-27.5365
 20
-67.0734
 11
-27.3613
 21
-67.1427
  0
LINE
  8
0
 10
-27.3613
 20
-67.1427
 11
-27.1963
 21
-67.2335
  0
LINE
  8
0
 10
-27.1963
 20
-67.2335
 11
-27.0439
 21
-67.3442
  0
LINE
  8
0
 10
-27.0439
 20
-67.3442
 11
-26.9065
 21
-67.4732
  0
LINE
  8
0
 10
-26.9065
 20
-67.4732
 11
-26.7865
 21
-67.6183
  0
LINE
  8
0
 10
-26.7865
 20
-67.6183
 11
-26.6855
 21
-67.7774
  0
LINE
  8
0
 10
-26.6855
 20
-67.7774
 11
-26.6053
 21
-67.9478
  0
LINE
  8
0
 10
-26.6053
 20
-67.9478
 11
-26.5471
 21
-68.127
  0
LINE
  8
0
 10
-26.5471
 20
-68.127
 11
-26.5118
 21
-68.312
  0
LINE
  8
0
 10
-26.5118
 20
-68.312
 11
-26.5
 21
-68.5
  0
LINE
  8
0
 10
-26.5
 20
-68.5
 11
-26.5118
 21
-68.688
  0
LINE
  8
0
 10
-26.5118
 20
-68.688
 11
-26.5471
 21
-68.873
  0
LINE
  8
0
 10
-26.5471
 20
-68.873
 11
-26.6053
 21
-69.0522
  0
LINE
  8
0
 10
-26.6053
 20
-69.0522
 11
-26.6855
 21
-69.2226
  0
LINE
  8
0
 10
-26.6855
 20
-69.2226
 11
-26.7865
 21
-69.3817
  0
LINE
  8
0
 10
-26.7865
 20
-69.3817
 11
-26.9065
 21
-69.5268
  0
LINE
  8
0
 10
-26.9065
 20
-69.5268
 11
-27.0439
 21
-69.6558
  0
LINE
  8
0
 10
-27.0439
 20
-69.6558
 11
-27.1963
 21
-69.7665
  0
LINE
  8
0
 10
-27.1963
 20
-69.7665
 11
-27.3613
 21
-69.8572
  0
LINE
  8
0
 10
-27.3613
 20
-69.8572
 11
-27.5365
 21
-69.9266
  0
LINE
  8
0
 10
-27.5365
 20
-69.9266
 11
-27.7189
 21
-69.9734
  0
LINE
  8
0
 10
-27.7189
 20
-69.9734
 11
-27.9058
 21
-69.997
  0
LINE
  8
0
 10
-27.9058
 20
-69.997
 11
-28.0942
 21
-69.997
  0
ENDSEC
  0
SECTION
  2
OBJECTS
  0
DICTIONARY
  0
ENDSEC
  0
EOF
