  0
SECTION
  2
BLOCKS
  0
ENDSEC
  0
SECTION
  2
ENTITIES
  0
LINE
  8
0
 10
24.5
 20
-21.5
 11
24.5
 21
-18.5
  0
LINE
  8
0
 10
24.5
 20
-18.5
 11
21.5
 21
-18.5
  0
LINE
  8
0
 10
21.5
 20
-18.5
 11
21.5
 21
18.5
  0
LINE
  8
0
 10
21.5
 20
18.5
 11
24.5
 21
18.5
  0
LINE
  8
0
 10
24.5
 20
18.5
 11
24.5
 21
21.5
  0
LINE
  8
0
 10
24.5
 20
21.5
 11
21.5
 21
21.5
  0
LINE
  8
0
 10
21.5
 20
21.5
 11
21.5
 21
48.5
  0
LINE
  8
0
 10
21.5
 20
48.5
 11
24.5
 21
48.5
  0
LINE
  8
0
 10
24.5
 20
48.5
 11
24.5
 21
51.5
  0
LINE
  8
0
 10
24.5
 20
51.5
 11
21.5
 21
51.5
  0
LINE
  8
0
 10
21.5
 20
51.5
 11
21.5
 21
63
  0
LINE
  8
0
 10
21.5
 20
63
 11
11.5
 21
63
  0
LINE
  8
0
 10
11.5
 20
63
 11
11.5
 21
66
  0
LINE
  8
0
 10
11.5
 20
66
 11
8.5
 21
66
  0
LINE
  8
0
 10
8.5
 20
66
 11
8.5
 21
63
  0
LINE
  8
0
 10
8.5
 20
63
 11
-8.5
 21
63
  0
LINE
  8
0
 10
-8.5
 20
63
 11
-8.5
 21
66
  0
LINE
  8
0
 10
-8.5
 20
66
 11
-11.5
 21
66
  0
LINE
  8
0
 10
-11.5
 20
66
 11
-11.5
 21
63
  0
LINE
  8
0
 10
-11.5
 20
63
 11
-21.5
 21
63
  0
LINE
  8
0
 10
-21.5
 20
63
 11
-21.5
 21
51.5
  0
LINE
  8
0
 10
-21.5
 20
51.5
 11
-24.5
 21
51.5
  0
LINE
  8
0
 10
-24.5
 20
51.5
 11
-24.5
 21
48.5
  0
LINE
  8
0
 10
-24.5
 20
48.5
 11
-21.5
 21
48.5
  0
LINE
  8
0
 10
-21.5
 20
48.5
 11
-21.5
 21
21.5
  0
LINE
  8
0
 10
-21.5
 20
21.5
 11
-24.5
 21
21.5
  0
LINE
  8
0
 10
-24.5
 20
21.5
 11
-24.5
 21
18.5
  0
LINE
  8
0
 10
-24.5
 20
18.5
 11
-21.5
 21
18.5
  0
LINE
  8
0
 10
-21.5
 20
18.5
 11
-21.5
 21
-18.5
  0
LINE
  8
0
 10
-21.5
 20
-18.5
 11
-24.5
 21
-18.5
  0
LINE
  8
0
 10
-24.5
 20
-18.5
 11
-24.5
 21
-21.5
  0
LINE
  8
0
 10
-24.5
 20
-21.5
 11
-21.5
 21
-21.5
  0
LINE
  8
0
 10
-21.5
 20
-21.5
 11
-21.5
 21
-48.5
  0
LINE
  8
0
 10
-21.5
 20
-48.5
 11
-24.5
 21
-48.5
  0
LINE
  8
0
 10
-24.5
 20
-48.5
 11
-24.5
 21
-51.5
  0
LINE
  8
0
 10
-24.5
 20
-51.5
 11
-21.5
 21
-51.5
  0
LINE
  8
0
 10
-21.5
 20
-51.5
 11
-21.5
 21
-63
  0
LINE
  8
0
 10
-21.5
 20
-63
 11
-11.5
 21
-63
  0
LINE
  8
0
 10
-11.5
 20
-63
 11
-11.5
 21
-66
  0
LINE
  8
0
 10
-11.5
 20
-66
 11
-8.5
 21
-66
  0
LINE
  8
0
 10
-8.5
 20
-66
 11
-8.5
 21
-63
  0
LINE
  8
0
 10
-8.5
 20
-63
 11
8.5
 21
-63
  0
LINE
  8
0
 10
8.5
 20
-63
 11
8.5
 21
-66
  0
LINE
  8
0
 10
8.5
 20
-66
 11
11.5
 21
-66
  0
LINE
  8
0
 10
11.5
 20
-66
 11
11.5
 21
-63
  0
LINE
  8
0
 10
11.5
 20
-63
 11
21.5
 21
-63
  0
LINE
  8
0
 10
21.5
 20
-63
 11
21.5
 21
-51.5
  0
LINE
  8
0
 10
21.5
 20
-51.5
 11
24.5
 21
-51.5
  0
LINE
  8
0
 10
24.5
 20
-51.5
 11
24.5
 21
-48.5
  0
LINE
  8
0
 10
24.5
 20
-48.5
 11
21.5
 21
-48.5
  0
LINE
  8
0
 10
21.5
 20
-48.5
 11
21.5
 21
-21.5
  0
LINE
  8
0
 10
21.5
 20
-21.5
 11
24.5
 21
-21.5
  0
LINE
  8
0
 10
-15
 20
53.5
 11
-15
 21
56.5
  0
LINE
  8
0
 10
-15
 20
56.5
 11
15
 21
56.5
  0
LINE
  8
0
 10
15
 20
56.5
 11
15
 21
53.5
  0
LINE
  8
0
 10
15
 20
53.5
 11
-15
 21
53.5
  0
LINE
  8
0
 10
-15
 20
43.5
 11
-15
 21
46.5
  0
LINE
  8
0
 10
-15
 20
46.5
 11
15
 21
46.5
  0
LINE
  8
0
 10
15
 20
46.5
 11
15
 21
43.5
  0
LINE
  8
0
 10
15
 20
43.5
 11
-15
 21
43.5
  0
LINE
  8
0
 10
-15
 20
33.5
 11
-15
 21
36.5
  0
LINE
  8
0
 10
-15
 20
36.5
 11
15
 21
36.5
  0
LINE
  8
0
 10
15
 20
36.5
 11
15
 21
33.5
  0
LINE
  8
0
 10
15
 20
33.5
 11
-15
 21
33.5
  0
LINE
  8
0
 10
-15
 20
23.5
 11
-15
 21
26.5
  0
LINE
  8
0
 10
-15
 20
26.5
 11
15
 21
26.5
  0
LINE
  8
0
 10
15
 20
26.5
 11
15
 21
23.5
  0
LINE
  8
0
 10
15
 20
23.5
 11
-15
 21
23.5
  0
LINE
  8
0
 10
-15
 20
13.5
 11
-15
 21
16.5
  0
LINE
  8
0
 10
-15
 20
16.5
 11
15
 21
16.5
  0
LINE
  8
0
 10
15
 20
16.5
 11
15
 21
13.5
  0
LINE
  8
0
 10
15
 20
13.5
 11
-15
 21
13.5
  0
LINE
  8
0
 10
-15
 20
3.5
 11
-15
 21
6.5
  0
LINE
  8
0
 10
-15
 20
6.5
 11
15
 21
6.5
  0
LINE
  8
0
 10
15
 20
6.5
 11
15
 21
3.5
  0
LINE
  8
0
 10
15
 20
3.5
 11
-15
 21
3.5
  0
LINE
  8
0
 10
-15
 20
-6.5
 11
-15
 21
-3.5
  0
LINE
  8
0
 10
-15
 20
-3.5
 11
15
 21
-3.5
  0
LINE
  8
0
 10
15
 20
-3.5
 11
15
 21
-6.5
  0
LINE
  8
0
 10
15
 20
-6.5
 11
-15
 21
-6.5
  0
LINE
  8
0
 10
-15
 20
-16.5
 11
-15
 21
-13.5
  0
LINE
  8
0
 10
-15
 20
-13.5
 11
15
 21
-13.5
  0
LINE
  8
0
 10
15
 20
-13.5
 11
15
 21
-16.5
  0
LINE
  8
0
 10
15
 20
-16.5
 11
-15
 21
-16.5
  0
LINE
  8
0
 10
-15
 20
-26.5
 11
-15
 21
-23.5
  0
LINE
  8
0
 10
-15
 20
-23.5
 11
15
 21
-23.5
  0
LINE
  8
0
 10
15
 20
-23.5
 11
15
 21
-26.5
  0
LINE
  8
0
 10
15
 20
-26.5
 11
-15
 21
-26.5
  0
LINE
  8
0
 10
-15
 20
-36.5
 11
-15
 21
-33.5
  0
LINE
  8
0
 10
-15
 20
-33.5
 11
15
 21
-33.5
  0
LINE
  8
0
 10
15
 20
-33.5
 11
15
 21
-36.5
  0
LINE
  8
0
 10
15
 20
-36.5
 11
-15
 21
-36.5
  0
LINE
  8
0
 10
-15
 20
-46.5
 11
-15
 21
-43.5
  0
LINE
  8
0
 10
-15
 20
-43.5
 11
15
 21
-43.5
  0
LINE
  8
0
 10
15
 20
-43.5
 11
15
 21
-46.5
  0
LINE
  8
0
 10
15
 20
-46.5
 11
-15
 21
-46.5
  0
LINE
  8
0
 10
-15
 20
-56.5
 11
-15
 21
-53.5
  0
LINE
  8
0
 10
-15
 20
-53.5
 11
15
 21
-53.5
  0
LINE
  8
0
 10
15
 20
-53.5
 11
15
 21
-56.5
  0
LINE
  8
0
 10
15
 20
-56.5
 11
-15
 21
-56.5
  0
ENDSEC
  0
SECTION
  2
OBJECTS
  0
DICTIONARY
  0
ENDSEC
  0
EOF
