  0
SECTION
  2
BLOCKS
  0
ENDSEC
  0
SECTION
  2
ENTITIES
  0
LINE
  8
0
 10
28.5
 20
70.5
 11
-28.5
 21
70.5
  0
LINE
  8
0
 10
-28.5
 20
70.5
 11
-28.5
 21
-70.5
  0
LINE
  8
0
 10
-28.5
 20
-70.5
 11
28.5
 21
-70.5
  0
LINE
  8
0
 10
28.5
 20
-70.5
 11
28.5
 21
70.5
  0
LINE
  8
0
 10
-24
 20
63
 11
-24
 21
66
  0
LINE
  8
0
 10
-24
 20
66
 11
24
 21
66
  0
LINE
  8
0
 10
24
 20
66
 11
24
 21
63
  0
LINE
  8
0
 10
24
 20
63
 11
-24
 21
63
  0
LINE
  8
0
 10
-15
 20
58.5
 11
-15
 21
61.5
  0
LINE
  8
0
 10
-15
 20
61.5
 11
15
 21
61.5
  0
LINE
  8
0
 10
15
 20
61.5
 11
15
 21
58.5
  0
LINE
  8
0
 10
15
 20
58.5
 11
-15
 21
58.5
  0
LINE
  8
0
 10
18.3744
 20
56.0039
 11
18.1252
 21
56.0354
  0
LINE
  8
0
 10
18.1252
 20
56.0354
 11
17.882
 21
56.0979
  0
LINE
  8
0
 10
17.882
 20
56.0979
 11
17.6484
 21
56.1903
  0
LINE
  8
0
 10
17.6484
 20
56.1903
 11
17.4283
 21
56.3113
  0
LINE
  8
0
 10
17.4283
 20
56.3113
 11
17.2251
 21
56.459
  0
LINE
  8
0
 10
17.2251
 20
56.459
 11
17.0421
 21
56.6309
  0
LINE
  8
0
 10
17.0421
 20
56.6309
 11
16.882
 21
56.8244
  0
LINE
  8
0
 10
16.882
 20
56.8244
 11
16.7474
 21
57.0365
  0
LINE
  8
0
 10
16.7474
 20
57.0365
 11
16.6404
 21
57.2637
  0
LINE
  8
0
 10
16.6404
 20
57.2637
 11
16.5628
 21
57.5026
  0
LINE
  8
0
 10
16.5628
 20
57.5026
 11
16.5158
 21
57.7493
  0
LINE
  8
0
 10
16.5158
 20
57.7493
 11
16.5
 21
58
  0
LINE
  8
0
 10
16.5
 20
58
 11
16.5158
 21
58.2507
  0
LINE
  8
0
 10
16.5158
 20
58.2507
 11
16.5628
 21
58.4974
  0
LINE
  8
0
 10
16.5628
 20
58.4974
 11
16.6404
 21
58.7362
  0
LINE
  8
0
 10
16.6404
 20
58.7362
 11
16.7474
 21
58.9635
  0
LINE
  8
0
 10
16.7474
 20
58.9635
 11
16.882
 21
59.1756
  0
LINE
  8
0
 10
16.882
 20
59.1756
 11
17.0421
 21
59.3691
  0
LINE
  8
0
 10
17.0421
 20
59.3691
 11
17.2251
 21
59.541
  0
LINE
  8
0
 10
17.2251
 20
59.541
 11
17.4283
 21
59.6886
  0
LINE
  8
0
 10
17.4283
 20
59.6886
 11
17.6484
 21
59.8096
  0
LINE
  8
0
 10
17.6484
 20
59.8096
 11
17.882
 21
59.9021
  0
LINE
  8
0
 10
17.882
 20
59.9021
 11
18.1252
 21
59.9646
  0
LINE
  8
0
 10
18.1252
 20
59.9646
 11
18.3744
 21
59.996
  0
LINE
  8
0
 10
18.3744
 20
59.996
 11
18.6256
 21
59.996
  0
LINE
  8
0
 10
18.6256
 20
59.996
 11
18.8748
 21
59.9646
  0
LINE
  8
0
 10
18.8748
 20
59.9646
 11
19.118
 21
59.9021
  0
LINE
  8
0
 10
19.118
 20
59.9021
 11
19.3515
 21
59.8096
  0
LINE
  8
0
 10
19.3515
 20
59.8096
 11
19.5716
 21
59.6886
  0
LINE
  8
0
 10
19.5716
 20
59.6886
 11
19.7748
 21
59.541
  0
LINE
  8
0
 10
19.7748
 20
59.541
 11
19.9579
 21
59.3691
  0
LINE
  8
0
 10
19.9579
 20
59.3691
 11
20.118
 21
59.1756
  0
LINE
  8
0
 10
20.118
 20
59.1756
 11
20.2526
 21
58.9635
  0
LINE
  8
0
 10
20.2526
 20
58.9635
 11
20.3595
 21
58.7362
  0
LINE
  8
0
 10
20.3595
 20
58.7362
 11
20.4372
 21
58.4974
  0
LINE
  8
0
 10
20.4372
 20
58.4974
 11
20.4842
 21
58.2507
  0
LINE
  8
0
 10
20.4842
 20
58.2507
 11
20.5
 21
58
  0
LINE
  8
0
 10
20.5
 20
58
 11
20.4842
 21
57.7493
  0
LINE
  8
0
 10
20.4842
 20
57.7493
 11
20.4372
 21
57.5026
  0
LINE
  8
0
 10
20.4372
 20
57.5026
 11
20.3595
 21
57.2637
  0
LINE
  8
0
 10
20.3595
 20
57.2637
 11
20.2526
 21
57.0365
  0
LINE
  8
0
 10
20.2526
 20
57.0365
 11
20.118
 21
56.8244
  0
LINE
  8
0
 10
20.118
 20
56.8244
 11
19.9579
 21
56.6309
  0
LINE
  8
0
 10
19.9579
 20
56.6309
 11
19.7748
 21
56.459
  0
LINE
  8
0
 10
19.7748
 20
56.459
 11
19.5716
 21
56.3113
  0
LINE
  8
0
 10
19.5716
 20
56.3113
 11
19.3515
 21
56.1903
  0
LINE
  8
0
 10
19.3515
 20
56.1903
 11
19.118
 21
56.0979
  0
LINE
  8
0
 10
19.118
 20
56.0979
 11
18.8748
 21
56.0354
  0
LINE
  8
0
 10
18.8748
 20
56.0354
 11
18.6256
 21
56.0039
  0
LINE
  8
0
 10
18.6256
 20
56.0039
 11
18.3744
 21
56.0039
  0
LINE
  8
0
 10
-18.6256
 20
56.0039
 11
-18.8748
 21
56.0354
  0
LINE
  8
0
 10
-18.8748
 20
56.0354
 11
-19.118
 21
56.0979
  0
LINE
  8
0
 10
-19.118
 20
56.0979
 11
-19.3515
 21
56.1903
  0
LINE
  8
0
 10
-19.3515
 20
56.1903
 11
-19.5716
 21
56.3113
  0
LINE
  8
0
 10
-19.5716
 20
56.3113
 11
-19.7748
 21
56.459
  0
LINE
  8
0
 10
-19.7748
 20
56.459
 11
-19.9579
 21
56.6309
  0
LINE
  8
0
 10
-19.9579
 20
56.6309
 11
-20.118
 21
56.8244
  0
LINE
  8
0
 10
-20.118
 20
56.8244
 11
-20.2526
 21
57.0365
  0
LINE
  8
0
 10
-20.2526
 20
57.0365
 11
-20.3595
 21
57.2637
  0
LINE
  8
0
 10
-20.3595
 20
57.2637
 11
-20.4372
 21
57.5026
  0
LINE
  8
0
 10
-20.4372
 20
57.5026
 11
-20.4842
 21
57.7493
  0
LINE
  8
0
 10
-20.4842
 20
57.7493
 11
-20.5
 21
58
  0
LINE
  8
0
 10
-20.5
 20
58
 11
-20.4842
 21
58.2507
  0
LINE
  8
0
 10
-20.4842
 20
58.2507
 11
-20.4372
 21
58.4974
  0
LINE
  8
0
 10
-20.4372
 20
58.4974
 11
-20.3595
 21
58.7362
  0
LINE
  8
0
 10
-20.3595
 20
58.7362
 11
-20.2526
 21
58.9635
  0
LINE
  8
0
 10
-20.2526
 20
58.9635
 11
-20.118
 21
59.1756
  0
LINE
  8
0
 10
-20.118
 20
59.1756
 11
-19.9579
 21
59.3691
  0
LINE
  8
0
 10
-19.9579
 20
59.3691
 11
-19.7748
 21
59.541
  0
LINE
  8
0
 10
-19.7748
 20
59.541
 11
-19.5716
 21
59.6886
  0
LINE
  8
0
 10
-19.5716
 20
59.6886
 11
-19.3515
 21
59.8096
  0
LINE
  8
0
 10
-19.3515
 20
59.8096
 11
-19.118
 21
59.9021
  0
LINE
  8
0
 10
-19.118
 20
59.9021
 11
-18.8748
 21
59.9646
  0
LINE
  8
0
 10
-18.8748
 20
59.9646
 11
-18.6256
 21
59.996
  0
LINE
  8
0
 10
-18.6256
 20
59.996
 11
-18.3744
 21
59.996
  0
LINE
  8
0
 10
-18.3744
 20
59.996
 11
-18.1252
 21
59.9646
  0
LINE
  8
0
 10
-18.1252
 20
59.9646
 11
-17.882
 21
59.9021
  0
LINE
  8
0
 10
-17.882
 20
59.9021
 11
-17.6484
 21
59.8096
  0
LINE
  8
0
 10
-17.6484
 20
59.8096
 11
-17.4283
 21
59.6886
  0
LINE
  8
0
 10
-17.4283
 20
59.6886
 11
-17.2251
 21
59.541
  0
LINE
  8
0
 10
-17.2251
 20
59.541
 11
-17.0421
 21
59.3691
  0
LINE
  8
0
 10
-17.0421
 20
59.3691
 11
-16.882
 21
59.1756
  0
LINE
  8
0
 10
-16.882
 20
59.1756
 11
-16.7474
 21
58.9635
  0
LINE
  8
0
 10
-16.7474
 20
58.9635
 11
-16.6404
 21
58.7362
  0
LINE
  8
0
 10
-16.6404
 20
58.7362
 11
-16.5628
 21
58.4974
  0
LINE
  8
0
 10
-16.5628
 20
58.4974
 11
-16.5158
 21
58.2507
  0
LINE
  8
0
 10
-16.5158
 20
58.2507
 11
-16.5
 21
58
  0
LINE
  8
0
 10
-16.5
 20
58
 11
-16.5158
 21
57.7493
  0
LINE
  8
0
 10
-16.5158
 20
57.7493
 11
-16.5628
 21
57.5026
  0
LINE
  8
0
 10
-16.5628
 20
57.5026
 11
-16.6404
 21
57.2637
  0
LINE
  8
0
 10
-16.6404
 20
57.2637
 11
-16.7474
 21
57.0365
  0
LINE
  8
0
 10
-16.7474
 20
57.0365
 11
-16.882
 21
56.8244
  0
LINE
  8
0
 10
-16.882
 20
56.8244
 11
-17.0421
 21
56.6309
  0
LINE
  8
0
 10
-17.0421
 20
56.6309
 11
-17.2251
 21
56.459
  0
LINE
  8
0
 10
-17.2251
 20
56.459
 11
-17.4283
 21
56.3113
  0
LINE
  8
0
 10
-17.4283
 20
56.3113
 11
-17.6484
 21
56.1903
  0
LINE
  8
0
 10
-17.6484
 20
56.1903
 11
-17.882
 21
56.0979
  0
LINE
  8
0
 10
-17.882
 20
56.0979
 11
-18.1252
 21
56.0354
  0
LINE
  8
0
 10
-18.1252
 20
56.0354
 11
-18.3744
 21
56.0039
  0
LINE
  8
0
 10
-18.3744
 20
56.0039
 11
-18.6256
 21
56.0039
  0
LINE
  8
0
 10
-15
 20
48.5
 11
-15
 21
51.5
  0
LINE
  8
0
 10
-15
 20
51.5
 11
15
 21
51.5
  0
LINE
  8
0
 10
15
 20
51.5
 11
15
 21
48.5
  0
LINE
  8
0
 10
15
 20
48.5
 11
-15
 21
48.5
  0
LINE
  8
0
 10
24
 20
48.5
 11
24
 21
51.5
  0
LINE
  8
0
 10
24
 20
51.5
 11
27
 21
51.5
  0
LINE
  8
0
 10
27
 20
51.5
 11
27
 21
48.5
  0
LINE
  8
0
 10
27
 20
48.5
 11
24
 21
48.5
  0
LINE
  8
0
 10
-27
 20
48.5
 11
-27
 21
51.5
  0
LINE
  8
0
 10
-27
 20
51.5
 11
-24
 21
51.5
  0
LINE
  8
0
 10
-24
 20
51.5
 11
-24
 21
48.5
  0
LINE
  8
0
 10
-24
 20
48.5
 11
-27
 21
48.5
  0
LINE
  8
0
 10
-15
 20
38.5
 11
-15
 21
41.5
  0
LINE
  8
0
 10
-15
 20
41.5
 11
15
 21
41.5
  0
LINE
  8
0
 10
15
 20
41.5
 11
15
 21
38.5
  0
LINE
  8
0
 10
15
 20
38.5
 11
-15
 21
38.5
  0
LINE
  8
0
 10
-15
 20
28.5
 11
-15
 21
31.5
  0
LINE
  8
0
 10
-15
 20
31.5
 11
15
 21
31.5
  0
LINE
  8
0
 10
15
 20
31.5
 11
15
 21
28.5
  0
LINE
  8
0
 10
15
 20
28.5
 11
-15
 21
28.5
  0
LINE
  8
0
 10
-15
 20
18.5
 11
-15
 21
21.5
  0
LINE
  8
0
 10
-15
 20
21.5
 11
15
 21
21.5
  0
LINE
  8
0
 10
15
 20
21.5
 11
15
 21
18.5
  0
LINE
  8
0
 10
15
 20
18.5
 11
-15
 21
18.5
  0
LINE
  8
0
 10
24
 20
18.5
 11
24
 21
21.5
  0
LINE
  8
0
 10
24
 20
21.5
 11
27
 21
21.5
  0
LINE
  8
0
 10
27
 20
21.5
 11
27
 21
18.5
  0
LINE
  8
0
 10
27
 20
18.5
 11
24
 21
18.5
  0
LINE
  8
0
 10
-27
 20
18.5
 11
-27
 21
21.5
  0
LINE
  8
0
 10
-27
 20
21.5
 11
-24
 21
21.5
  0
LINE
  8
0
 10
-24
 20
21.5
 11
-24
 21
18.5
  0
LINE
  8
0
 10
-24
 20
18.5
 11
-27
 21
18.5
  0
LINE
  8
0
 10
-15
 20
8.5
 11
-15
 21
11.5
  0
LINE
  8
0
 10
-15
 20
11.5
 11
15
 21
11.5
  0
LINE
  8
0
 10
15
 20
11.5
 11
15
 21
8.5
  0
LINE
  8
0
 10
15
 20
8.5
 11
-15
 21
8.5
  0
LINE
  8
0
 10
-15
 20
-1.5
 11
-15
 21
1.5
  0
LINE
  8
0
 10
-15
 20
1.5
 11
15
 21
1.5
  0
LINE
  8
0
 10
15
 20
1.5
 11
15
 21
-1.5
  0
LINE
  8
0
 10
15
 20
-1.5
 11
-15
 21
-1.5
  0
LINE
  8
0
 10
-15
 20
-11.5
 11
-15
 21
-8.5
  0
LINE
  8
0
 10
-15
 20
-8.5
 11
15
 21
-8.5
  0
LINE
  8
0
 10
15
 20
-8.5
 11
15
 21
-11.5
  0
LINE
  8
0
 10
15
 20
-11.5
 11
-15
 21
-11.5
  0
LINE
  8
0
 10
-27
 20
-21.5
 11
-27
 21
-18.5
  0
LINE
  8
0
 10
-27
 20
-18.5
 11
-24
 21
-18.5
  0
LINE
  8
0
 10
-24
 20
-18.5
 11
-24
 21
-21.5
  0
LINE
  8
0
 10
-24
 20
-21.5
 11
-27
 21
-21.5
  0
LINE
  8
0
 10
24
 20
-21.5
 11
24
 21
-18.5
  0
LINE
  8
0
 10
24
 20
-18.5
 11
27
 21
-18.5
  0
LINE
  8
0
 10
27
 20
-18.5
 11
27
 21
-21.5
  0
LINE
  8
0
 10
27
 20
-21.5
 11
24
 21
-21.5
  0
LINE
  8
0
 10
-15
 20
-21.5
 11
-15
 21
-18.5
  0
LINE
  8
0
 10
-15
 20
-18.5
 11
15
 21
-18.5
  0
LINE
  8
0
 10
15
 20
-18.5
 11
15
 21
-21.5
  0
LINE
  8
0
 10
15
 20
-21.5
 11
-15
 21
-21.5
  0
LINE
  8
0
 10
-15
 20
-31.5
 11
-15
 21
-28.5
  0
LINE
  8
0
 10
-15
 20
-28.5
 11
15
 21
-28.5
  0
LINE
  8
0
 10
15
 20
-28.5
 11
15
 21
-31.5
  0
LINE
  8
0
 10
15
 20
-31.5
 11
-15
 21
-31.5
  0
LINE
  8
0
 10
-15
 20
-41.5
 11
-15
 21
-38.5
  0
LINE
  8
0
 10
-15
 20
-38.5
 11
15
 21
-38.5
  0
LINE
  8
0
 10
15
 20
-38.5
 11
15
 21
-41.5
  0
LINE
  8
0
 10
15
 20
-41.5
 11
-15
 21
-41.5
  0
LINE
  8
0
 10
-27
 20
-51.5
 11
-27
 21
-48.5
  0
LINE
  8
0
 10
-27
 20
-48.5
 11
-24
 21
-48.5
  0
LINE
  8
0
 10
-24
 20
-48.5
 11
-24
 21
-51.5
  0
LINE
  8
0
 10
-24
 20
-51.5
 11
-27
 21
-51.5
  0
LINE
  8
0
 10
24
 20
-51.5
 11
24
 21
-48.5
  0
LINE
  8
0
 10
24
 20
-48.5
 11
27
 21
-48.5
  0
LINE
  8
0
 10
27
 20
-48.5
 11
27
 21
-51.5
  0
LINE
  8
0
 10
27
 20
-51.5
 11
24
 21
-51.5
  0
LINE
  8
0
 10
-15
 20
-51.5
 11
-15
 21
-48.5
  0
LINE
  8
0
 10
-15
 20
-48.5
 11
15
 21
-48.5
  0
LINE
  8
0
 10
15
 20
-48.5
 11
15
 21
-51.5
  0
LINE
  8
0
 10
15
 20
-51.5
 11
-15
 21
-51.5
  0
LINE
  8
0
 10
-15
 20
-61.5
 11
-15
 21
-58.5
  0
LINE
  8
0
 10
-15
 20
-58.5
 11
15
 21
-58.5
  0
LINE
  8
0
 10
15
 20
-58.5
 11
15
 21
-61.5
  0
LINE
  8
0
 10
15
 20
-61.5
 11
-15
 21
-61.5
  0
LINE
  8
0
 10
-24
 20
-66
 11
-24
 21
-63
  0
LINE
  8
0
 10
-24
 20
-63
 11
24
 21
-63
  0
LINE
  8
0
 10
24
 20
-63
 11
24
 21
-66
  0
LINE
  8
0
 10
24
 20
-66
 11
-24
 21
-66
  0
ENDSEC
  0
SECTION
  2
OBJECTS
  0
DICTIONARY
  0
ENDSEC
  0
EOF
