  0
SECTION
  2
HEADER
  9
$ACADVER
  1
AC1014
  9
$HANDSEED
  5
FFFF
  9
$MEASUREMENT
 70
     1
  0
ENDSEC
  0
SECTION
  2
TABLES
  0
TABLE
  2
VPORT
  5
8
330
0
100
AcDbSymbolTable
 70
     4
  0
VPORT
  5
2E
330
8
100
AcDbSymbolTableRecord
100
AcDbViewportTableRecord
  2
*ACTIVE
 70
     0
 10
0.0
 20
0.0
 11
1.0
 21
1.0
 12
210.0
 22
148.5
 13
0.0
 23
0.0
 14
10.0
 24
10.0
 15
10.0
 25
10.0
 16
0.0
 26
0.0
 36
1.0
 17
0.0
 27
0.0
 37
0.0
 40
341.0
 41
1.24
 42
50.0
 43
0.0
 44
0.0
 50
0.0
 51
0.0
 71
     0
 72
   100
 73
     1
 74
     3
 75
     0
 76
     0
 77
     0
 78
     0
  0
ENDTAB
  0
TABLE
  2
LTYPE
  5
5
330
0
100
AcDbSymbolTable
 70
     1
  0
LTYPE
  5
14
330
5
100
AcDbSymbolTableRecord
100
AcDbLinetypeTableRecord
  2
BYBLOCK
 70
     0
  3

 72
    65
 73
     0
 40
0.0
  0
LTYPE
  5
15
330
5
100
AcDbSymbolTableRecord
100
AcDbLinetypeTableRecord
  2
BYLAYER
 70
     0
  3

 72
    65
 73
     0
 40
0.0
  0
LTYPE
  5
16
330
5
100
AcDbSymbolTableRecord
100
AcDbLinetypeTableRecord
  2
CONTINUOUS
 70
     0
  3
Solid line
 72
    65
 73
     0
 40
0.0
  0
ENDTAB
  0
TABLE
  2
LAYER
  5
2
100
AcDbSymbolTable
 70
1
  0
LAYER
  5
50
100
AcDbSymbolTableRecord
100
AcDbLayerTableRecord
  2
0
 70
0
  6
CONTINUOUS
  0
ENDTAB
  0
TABLE
  2
STYLE
  5
3
330
0
100
AcDbSymbolTable
 70
     1
  0
STYLE
  5
11
330
3
100
AcDbSymbolTableRecord
100
AcDbTextStyleTableRecord
  2
STANDARD
 70
     0
 40
0.0
 41
1.0
 50
0.0
 71
     0
 42
2.5
  3
txt
  4

  0
ENDTAB
  0
TABLE
  2
VIEW
  5
6
330
0
100
AcDbSymbolTable
 70
     0
  0
ENDTAB
  0
TABLE
  2
UCS
  5
7
330
0
100
AcDbSymbolTable
 70
     0
  0
ENDTAB
  0
TABLE
  2
APPID
  5
9
330
0
100
AcDbSymbolTable
 70
     2
  0
APPID
  5
12
330
9
100
AcDbSymbolTableRecord
100
AcDbRegAppTableRecord
  2
ACAD
 70
     0
  0
ENDTAB
  0
TABLE
  2
DIMSTYLE
  5
A
330
0
100
AcDbSymbolTable
 70
     1
  0
DIMSTYLE
105
27
330
A
100
AcDbSymbolTableRecord
100
AcDbDimStyleTableRecord
  2
ISO-25
 70
     0
  3

  4

  5

  6

  7

 40
1.0
 41
2.5
 42
0.625
 43
3.75
 44
1.25
 45
0.0
 46
0.0
 47
0.0
 48
0.0
140
2.5
141
2.5
142
0.0
143
0.03937007874016
144
1.0
145
0.0
146
1.0
147
0.625
 71
     0
 72
     0
 73
     0
 74
     0
 75
     0
 76
     0
 77
     1
 78
     8
170
     0
171
     3
172
     1
173
     0
174
     0
175
     0
176
     0
177
     0
178
     0
270
     2
271
     2
272
     2
273
     2
274
     3
340
11
275
     0
280
     0
281
     0
282
     0
283
     0
284
     8
285
     0
286
     0
287
     3
288
     0
  0
ENDTAB
  0
TABLE
  2
BLOCK_RECORD
  5
1
330
0
100
AcDbSymbolTable
 70
     1
  0
BLOCK_RECORD
  5
1F
330
1
100
AcDbSymbolTableRecord
100
AcDbBlockTableRecord
  2
*MODEL_SPACE
  0
BLOCK_RECORD
  5
1B
330
1
100
AcDbSymbolTableRecord
100
AcDbBlockTableRecord
  2
*PAPER_SPACE
  0
ENDTAB
  0
ENDSEC
  0
SECTION
  2
BLOCKS
  0
BLOCK
  5
20
330
1F
100
AcDbEntity
  8
0
100
AcDbBlockBegin
  2
*MODEL_SPACE
 70
     0
 10
0.0
 20
0.0
 30
0.0
  3
*MODEL_SPACE
  1

  0
ENDBLK
  5
21
330
1F
100
AcDbEntity
  8
0
100
AcDbBlockEnd
  0
BLOCK
  5
1C
330
1B
100
AcDbEntity
 67
     1
  8
0
100
AcDbBlockBegin
  2
*PAPER_SPACE
  1

  0
ENDBLK
  5
1D
330
1B
100
AcDbEntity
 67
     1
  8
0
100
AcDbBlockEnd
  0
ENDSEC
  0
SECTION
  2
ENTITIES
  0
SPLINE
  5
100
100
AcDbEntity
  8
0
 62
7
100
AcDbSpline
 70
0
 71
3
 72
25
 73
21
 74
19
 40
0.000000
 40
0.000000
 40
0.000000
 40
0.000000
 40
0.724100
 40
1.437838
 40
2.161939
 40
2.886038
 40
3.599776
 40
4.323877
 40
5.047977
 40
5.761715
 40
6.485815
 40
7.209916
 40
7.923654
 40
8.647755
 40
9.371856
 40
10.085593
 40
10.809693
 40
11.533794
 40
12.247533
 40
12.971634
 40
12.971634
 40
12.971634
 40
12.971634
 10
11.830296
 20
61.189623
 30
0.0
 10
11.805503
 20
61.432220
 30
0.0
 10
11.756274
 20
61.913944
 30
0.0
 10
11.374334
 20
62.550549
 30
0.0
 10
10.815112
 20
63.023848
 30
0.0
 10
10.122620
 20
63.274870
 30
0.0
 10
9.387809
 20
63.274870
 30
0.0
 10
8.696287
 20
63.023849
 30
0.0
 10
8.133191
 20
62.550549
 30
0.0
 10
7.765642
 20
61.913944
 30
0.0
 10
7.637312
 20
61.189622
 30
0.0
 10
7.765642
 20
60.465300
 30
0.0
 10
8.133192
 20
59.828695
 30
0.0
 10
8.696286
 20
59.355394
 30
0.0
 10
9.387809
 20
59.104373
 30
0.0
 10
10.122620
 20
59.104372
 30
0.0
 10
10.815112
 20
59.355394
 30
0.0
 10
11.374334
 20
59.828695
 30
0.0
 10
11.756274
 20
60.465300
 30
0.0
 10
11.805503
 20
60.947025
 30
0.0
 10
11.830296
 20
61.189623
 30
0.0
 11
11.830296
 21
61.189623
 31
0.0
 11
11.703982
 21
61.902620
 31
0.0
 11
11.347112
 21
62.520735
 31
0.0
 11
10.792793
 21
62.986625
 31
0.0
 11
10.112163
 21
63.233733
 31
0.0
 11
9.398425
 21
63.233733
 31
0.0
 11
8.717794
 21
62.986625
 31
0.0
 11
8.163476
 21
62.520735
 31
0.0
 11
7.806607
 21
61.902620
 31
0.0
 11
7.680294
 21
61.189623
 31
0.0
 11
7.806607
 21
60.476624
 31
0.0
 11
8.163476
 21
59.858509
 31
0.0
 11
8.717794
 21
59.392618
 31
0.0
 11
9.398425
 21
59.145510
 31
0.0
 11
10.112163
 21
59.145510
 31
0.0
 11
10.792793
 21
59.392618
 31
0.0
 11
11.347112
 21
59.858509
 31
0.0
 11
11.703982
 21
60.476624
 31
0.0
 11
11.830296
 21
61.189623
 31
0.0
  0
LINE
  5
101
100
AcDbEntity
  8
0
 62
7
100
AcDbLine
 10
11.830296
 20
61.189623
 30
0.0
 11
11.830296
 21
61.189623
 31
0.0
  0
LINE
  5
102
100
AcDbEntity
  8
0
 62
7
100
AcDbLine
 10
123.830294
 20
13.689636
 30
0.0
 11
123.830294
 21
13.689636
 31
0.0
  0
LINE
  5
103
100
AcDbEntity
  8
0
 62
7
100
AcDbLine
 10
29.855295
 20
68.739623
 30
0.0
 11
24.855294
 21
63.739622
 31
0.0
  0
LINE
  5
104
100
AcDbEntity
  8
0
 62
7
100
AcDbLine
 10
101.655293
 20
68.739623
 30
0.0
 11
29.855295
 21
68.739623
 31
0.0
  0
LINE
  5
105
100
AcDbEntity
  8
0
 62
7
100
AcDbLine
 10
106.655295
 20
63.739622
 30
0.0
 11
101.655293
 21
68.739623
 31
0.0
  0
LINE
  5
106
100
AcDbEntity
  8
0
 62
7
100
AcDbLine
 10
106.655295
 20
11.139617
 30
0.0
 11
106.655295
 21
63.739622
 31
0.0
  0
LINE
  5
107
100
AcDbEntity
  8
0
 62
7
100
AcDbLine
 10
101.655293
 20
6.139616
 30
0.0
 11
106.655295
 21
11.139617
 31
0.0
  0
LINE
  5
108
100
AcDbEntity
  8
0
 62
7
100
AcDbLine
 10
29.855295
 20
6.139616
 30
0.0
 11
101.655293
 21
6.139616
 31
0.0
  0
LINE
  5
109
100
AcDbEntity
  8
0
 62
7
100
AcDbLine
 10
24.855294
 20
11.139617
 30
0.0
 11
29.855295
 21
6.139616
 31
0.0
  0
LINE
  5
10a
100
AcDbEntity
  8
0
 62
7
100
AcDbLine
 10
24.855294
 20
63.739622
 30
0.0
 11
24.855294
 21
11.139617
 31
0.0
  0
SPLINE
  5
10b
100
AcDbEntity
  8
0
 62
7
100
AcDbSpline
 70
0
 71
3
 72
25
 73
21
 74
19
 40
0.000000
 40
0.000000
 40
0.000000
 40
0.000000
 40
0.724091
 40
1.437825
 40
2.161929
 40
2.886031
 40
3.599769
 40
4.323870
 40
5.047974
 40
5.761709
 40
6.485800
 40
7.209910
 40
7.923652
 40
8.647756
 40
9.371857
 40
10.085595
 40
10.809698
 40
11.533802
 40
12.247543
 40
12.971653
 40
12.971653
 40
12.971653
 40
12.971653
 10
123.830294
 20
13.689636
 30
0.0
 10
123.805502
 20
13.932230
 30
0.0
 10
123.756272
 20
14.413950
 30
0.0
 10
123.374333
 20
15.050551
 30
0.0
 10
122.815113
 20
15.523853
 30
0.0
 10
122.122622
 20
15.774881
 30
0.0
 10
121.387808
 20
15.774882
 30
0.0
 10
120.696287
 20
15.523852
 30
0.0
 10
120.133195
 20
15.050551
 30
0.0
 10
119.765642
 20
14.413950
 30
0.0
 10
119.637311
 20
13.689629
 30
0.0
 10
119.765641
 20
12.965306
 30
0.0
 10
120.133193
 20
12.328695
 30
0.0
 10
120.696287
 20
11.855392
 30
0.0
 10
121.387808
 20
11.604362
 30
0.0
 10
122.122622
 20
11.604362
 30
0.0
 10
122.815113
 20
11.855391
 30
0.0
 10
123.374335
 20
12.328695
 30
0.0
 10
123.756275
 20
12.965306
 30
0.0
 10
123.805503
 20
13.447035
 30
0.0
 10
123.830294
 20
13.689636
 30
0.0
 11
123.830294
 21
13.689636
 31
0.0
 11
123.703981
 21
14.402624
 31
0.0
 11
123.347113
 21
15.020736
 31
0.0
 11
122.792795
 21
15.486629
 31
0.0
 11
122.112163
 21
15.733743
 31
0.0
 11
121.398425
 21
15.733743
 31
0.0
 11
120.717795
 21
15.486629
 31
0.0
 11
120.163477
 21
15.020736
 31
0.0
 11
119.806607
 21
14.402624
 31
0.0
 11
119.680293
 21
13.689636
 31
0.0
 11
119.806607
 21
12.976628
 31
0.0
 11
120.163477
 21
12.358509
 31
0.0
 11
120.717795
 21
11.892614
 31
0.0
 11
121.398425
 21
11.645500
 31
0.0
 11
122.112163
 21
11.645500
 31
0.0
 11
122.792795
 21
11.892614
 31
0.0
 11
123.347113
 21
12.358509
 31
0.0
 11
123.703981
 21
12.976628
 31
0.0
 11
123.830294
 21
13.689636
 31
0.0
  0
SPLINE
  5
10c
100
AcDbEntity
  8
0
 62
7
100
AcDbSpline
 70
0
 71
3
 72
25
 73
21
 74
19
 40
0.000000
 40
0.000000
 40
0.000000
 40
0.000000
 40
0.724100
 40
1.437837
 40
2.161938
 40
2.886039
 40
3.599776
 40
4.323876
 40
5.047977
 40
5.761715
 40
6.485815
 40
7.209916
 40
7.923654
 40
8.647756
 40
9.371855
 40
10.085593
 40
10.809694
 40
11.533795
 40
12.247533
 40
12.971634
 40
12.971634
 40
12.971634
 40
12.971634
 10
123.830294
 20
61.189623
 30
0.0
 10
123.805502
 20
61.432220
 30
0.0
 10
123.756273
 20
61.913944
 30
0.0
 10
123.374335
 20
62.550549
 30
0.0
 10
122.815113
 20
63.023849
 30
0.0
 10
122.122621
 20
63.274870
 30
0.0
 10
121.387809
 20
63.274870
 30
0.0
 10
120.696288
 20
63.023848
 30
0.0
 10
120.133193
 20
62.550549
 30
0.0
 10
119.765642
 20
61.913944
 30
0.0
 10
119.637311
 20
61.189622
 30
0.0
 10
119.765642
 20
60.465300
 30
0.0
 10
120.133193
 20
59.828695
 30
0.0
 10
120.696287
 20
59.355394
 30
0.0
 10
121.387809
 20
59.104372
 30
0.0
 10
122.122621
 20
59.104373
 30
0.0
 10
122.815113
 20
59.355394
 30
0.0
 10
123.374335
 20
59.828695
 30
0.0
 10
123.756274
 20
60.465301
 30
0.0
 10
123.805503
 20
60.947025
 30
0.0
 10
123.830294
 20
61.189623
 30
0.0
 11
123.830294
 21
61.189623
 31
0.0
 11
123.703981
 21
61.902620
 31
0.0
 11
123.347113
 21
62.520735
 31
0.0
 11
122.792795
 21
62.986625
 31
0.0
 11
122.112163
 21
63.233733
 31
0.0
 11
121.398425
 21
63.233733
 31
0.0
 11
120.717795
 21
62.986625
 31
0.0
 11
120.163477
 21
62.520735
 31
0.0
 11
119.806607
 21
61.902620
 31
0.0
 11
119.680293
 21
61.189623
 31
0.0
 11
119.806607
 21
60.476624
 31
0.0
 11
120.163477
 21
59.858509
 31
0.0
 11
120.717795
 21
59.392618
 31
0.0
 11
121.398425
 21
59.145510
 31
0.0
 11
122.112163
 21
59.145510
 31
0.0
 11
122.792795
 21
59.392618
 31
0.0
 11
123.347113
 21
59.858509
 31
0.0
 11
123.703981
 21
60.476624
 31
0.0
 11
123.830294
 21
61.189623
 31
0.0
  0
LINE
  5
10d
100
AcDbEntity
  8
0
 62
7
100
AcDbLine
 10
123.830294
 20
61.189623
 30
0.0
 11
123.830294
 21
61.189623
 31
0.0
  0
LINE
  5
10e
100
AcDbEntity
  8
0
 62
7
100
AcDbLine
 10
11.830296
 20
13.689636
 30
0.0
 11
11.830296
 21
13.689636
 31
0.0
  0
SPLINE
  5
10f
100
AcDbEntity
  8
0
 62
7
100
AcDbSpline
 70
0
 71
3
 72
25
 73
21
 74
19
 40
0.000000
 40
0.000000
 40
0.000000
 40
0.000000
 40
0.724091
 40
1.437826
 40
2.161930
 40
2.886031
 40
3.599769
 40
4.323871
 40
5.047975
 40
5.761709
 40
6.485800
 40
7.209910
 40
7.923651
 40
8.647755
 40
9.371858
 40
10.085596
 40
10.809697
 40
11.533801
 40
12.247543
 40
12.971653
 40
12.971653
 40
12.971653
 40
12.971653
 10
11.830296
 20
13.689636
 30
0.0
 10
11.805503
 20
13.932230
 30
0.0
 10
11.756273
 20
14.413950
 30
0.0
 10
11.374332
 20
15.050551
 30
0.0
 10
10.815112
 20
15.523852
 30
0.0
 10
10.122621
 20
15.774882
 30
0.0
 10
9.387808
 20
15.774881
 30
0.0
 10
8.696286
 20
15.523853
 30
0.0
 10
8.133194
 20
15.050551
 30
0.0
 10
7.765643
 20
14.413950
 30
0.0
 10
7.637312
 20
13.689629
 30
0.0
 10
7.765641
 20
12.965306
 30
0.0
 10
8.133191
 20
12.328695
 30
0.0
 10
8.696286
 20
11.855391
 30
0.0
 10
9.387808
 20
11.604362
 30
0.0
 10
10.122621
 20
11.604362
 30
0.0
 10
10.815112
 20
11.855392
 30
0.0
 10
11.374334
 20
12.328695
 30
0.0
 10
11.756275
 20
12.965306
 30
0.0
 10
11.805504
 20
13.447035
 30
0.0
 10
11.830296
 20
13.689636
 30
0.0
 11
11.830296
 21
13.689636
 31
0.0
 11
11.703982
 21
14.402624
 31
0.0
 11
11.347112
 21
15.020736
 31
0.0
 11
10.792793
 21
15.486629
 31
0.0
 11
10.112163
 21
15.733743
 31
0.0
 11
9.398425
 21
15.733743
 31
0.0
 11
8.717794
 21
15.486629
 31
0.0
 11
8.163476
 21
15.020736
 31
0.0
 11
7.806607
 21
14.402624
 31
0.0
 11
7.680294
 21
13.689636
 31
0.0
 11
7.806607
 21
12.976628
 31
0.0
 11
8.163476
 21
12.358509
 31
0.0
 11
8.717794
 21
11.892614
 31
0.0
 11
9.398425
 21
11.645500
 31
0.0
 11
10.112163
 21
11.645500
 31
0.0
 11
10.792793
 21
11.892614
 31
0.0
 11
11.347112
 21
12.358509
 31
0.0
 11
11.703982
 21
12.976628
 31
0.0
 11
11.830296
 21
13.689636
 31
0.0
  0
ENDSEC
  0
SECTION
  2
OBJECTS
  0
DICTIONARY
  5
C
330
0
100
AcDbDictionary
  3
ACAD_GROUP
350
D
  3
ACAD_MLINESTYLE
350
17
  0
DICTIONARY
  5
D
330
C
100
AcDbDictionary
  0
DICTIONARY
  5
1A
330
C
100
AcDbDictionary
  0
DICTIONARY
  5
17
330
C
100
AcDbDictionary
  3
STANDARD
350
18
  0
DICTIONARY
  5
19
330
C
100
AcDbDictionary
  0
ENDSEC
  0
EOF
